<?xml version="1.0" encoding="utf-8"?>
<!-- Generator: Adobe Illustrator 16.0.0, SVG Export Plug-In . SVG Version: 6.00 Build 0)  -->
<!DOCTYPE svg PUBLIC "-//W3C//DTD SVG 1.1//EN" "http://www.w3.org/Graphics/SVG/1.1/DTD/svg11.dtd">
<svg version="1.1" xmlns="http://www.w3.org/2000/svg" xmlns:xlink="http://www.w3.org/1999/xlink" x="0px" y="0px" width="200px"
	 height="200px" viewBox="0 0 200 200" enable-background="new 0 0 200 200" xml:space="preserve">
<g id="Capa_3">
</g>
<g id="Capa_1">
	<g>
		<circle fill="#BBB9BB" cx="100" cy="99.865" r="97.61"/>
		<g>
			<g>
				<g>
					<g>
						<path fill="#5D405F" d="M84.13,165.788c0,1.156-0.938,2.095-2.093,2.095h-5.785c-1.155,0-2.092-0.938-2.092-2.095l0,0
							c0-1.156,0.938-2.095,2.092-2.095h5.785C83.193,163.693,84.13,164.632,84.13,165.788L84.13,165.788z"/>
						<path fill="#5D405F" d="M124.418,165.788c0,1.156-0.937,2.095-2.093,2.095h-5.783c-1.157,0-2.093-0.938-2.093-2.095l0,0
							c0-1.156,0.936-2.095,2.093-2.095h5.783C123.482,163.693,124.418,164.632,124.418,165.788L124.418,165.788z"/>
					</g>
					<path fill="#249CF2" d="M72.741,129.471c0.623-2.507,3.246-4.559,5.83-4.559h42.097c2.583,0,5.175,2.059,5.759,4.576
						l7.283,31.394c0.583,2.517-1.053,4.576-3.635,4.576h-61.57c-2.583,0-4.188-2.051-3.564-4.559L72.741,129.471z"/>
					<path opacity="0.2" fill="#8B8B90" d="M84.677,124.912h-6.105c-2.584,0-5.207,2.052-5.83,4.559l-7.801,31.429
						c-0.624,2.508,0.982,4.559,3.564,4.559h31.716L84.677,124.912z"/>
					<path fill="#4B334D" d="M133.71,160.882l-0.226-0.973L65.039,160.5l-0.099,0.399c-0.624,2.508,0.982,4.559,3.564,4.559h61.57
						C132.657,165.458,134.293,163.398,133.71,160.882z"/>
					<path fill="#F5F5F5" d="M139.348,30.036h-8.459c-0.185-0.032-0.373-0.054-0.569-0.054L68.66,29.789l-3.39-0.004l10.876,69.673
						c0.294,1.869,1.595,4.523,2.896,5.897l3.613,3.821c1.3,1.375,2.371,2.95,2.38,3.5c0.009,0.551,0.017,1.001,0.017,1.001
						l29.463-0.011c0,0,0.007-0.391,0.018-0.868c0.008-0.479,1.094-1.981,2.413-3.338l3.174-3.271c1.317-1.358,2.629-4,2.914-5.87
						l8.668-56.197L139.348,30.036z"/>
					<g>
						<path fill="#FFFFFF" d="M124.648,29.982c0.197,0,0.387,0.021,0.571,0.054h5.669c-0.185-0.032-0.373-0.054-0.569-0.054
							L68.66,29.789l-3.39-0.004l0.001,0.009L124.648,29.982z"/>
						<path fill="#FFFFFF" d="M130.843,30.036l-7.646,14.087l-5.834,56.197c-0.284,1.87-1.595,4.512-2.914,5.87l-3.175,3.271
							c-1.317,1.356-2.402,2.859-2.412,3.338c-0.009,0.478-0.017,0.868-0.017,0.868l-23.793,0.009v0.002l29.463-0.011
							c0,0,0.007-0.391,0.018-0.868c0.008-0.479,1.094-1.981,2.413-3.338l3.174-3.271c1.317-1.358,2.629-4,2.914-5.87l8.668-56.197
							l7.646-14.087H130.843z"/>
					</g>
					<path opacity="0.2" fill="#8B8B90" d="M85.038,112.838c0.007,0.475,0.015,0.84,0.015,0.84l29.463-0.011
						c0,0,0.007-0.37,0.016-0.829H85.038z"/>
					<path fill="#4B334D" d="M115.239,121.118c0,0.542-0.439,0.982-0.981,0.982H84.321c-0.542,0-0.98-0.44-0.98-0.982v-6.468
						c0-0.543,0.438-0.983,0.98-0.983h29.938c0.542,0,0.981,0.44,0.981,0.983V121.118z"/>
					<path fill="#4E3150" d="M67.449,32.696l-0.604-3.102c0-1.644,1.333-2.977,2.978-2.977h61.349c1.644,0,2.976,1.333,2.976,2.977
						l-1.81,3.102"/>
					<polygon fill="#5B405F" points="67.082,29.785 67.536,32.696 133.611,32.696 133.913,30.036 					"/>
					<path fill="#4BC6F2" d="M110.382,24.749c0,1.615-1.31,2.926-2.926,2.926H93.539c-1.617,0-2.925-1.311-2.925-2.926l0,0
						c0-1.614,1.308-2.925,2.925-2.925h13.917C109.072,21.824,110.382,23.135,110.382,24.749L110.382,24.749z"/>
					<path fill="#4E3150" d="M127.325,26.564c0,0.779-0.632,1.412-1.414,1.412h-50.83c-0.78,0-1.412-0.633-1.412-1.412l0,0
						c0-0.78,0.632-1.412,1.412-1.412h50.83C126.693,25.152,127.325,25.784,127.325,26.564L127.325,26.564z"/>
					<path fill="#249CF2" d="M73.856,84.796l-11.052-4.185c-0.569-0.286-1.337-1.415-1.395-2.049l-4.772-33.209
						c0-0.14,0.194-0.415,0.321-0.461l10.259-2.641l-1.123-7.192l-10.943,2.819c-3.537,0.911-6.054,4.476-5.729,8.113l4.772,33.214
						c0.282,3.151,2.539,6.467,5.37,7.882l16.043,8.909L73.856,84.796z"/>
					<path fill="#4B334D" d="M121.907,148.797c0,1.645-1.333,2.979-2.978,2.979H79.65c-1.644,0-2.977-1.334-2.977-2.979l1.208-6.42
						c0-1.646,1.332-2.978,2.977-2.978h36.864c1.644,0,2.977,1.332,2.977,2.978L121.907,148.797z"/>
					<g>
						<g>
							<path fill="#F05A28" d="M85.406,147.549c0,1-0.811,1.811-1.811,1.811l0,0c-1.001,0-1.812-0.811-1.812-1.811v-3.925
								c0-0.999,0.811-1.81,1.812-1.81l0,0c1,0,1.811,0.811,1.811,1.81V147.549z"/>
							<path fill="#F05A28" d="M92.046,147.549c0,1-0.812,1.811-1.812,1.811l0,0c-0.999,0-1.811-0.811-1.811-1.811v-3.925
								c0-0.999,0.812-1.81,1.811-1.81l0,0c1.001,0,1.812,0.811,1.812,1.81V147.549z"/>
							<path fill="#F05A28" d="M98.686,147.549c0,1-0.812,1.811-1.812,1.811l0,0c-1,0-1.81-0.811-1.81-1.811v-3.925
								c0-0.999,0.81-1.81,1.81-1.81l0,0c1,0,1.812,0.811,1.812,1.81V147.549z"/>
							<path fill="#F05A28" d="M105.325,147.549c0,1-0.81,1.811-1.81,1.811l0,0c-1,0-1.812-0.811-1.812-1.811v-3.925
								c0-0.999,0.812-1.81,1.812-1.81l0,0c1,0,1.81,0.811,1.81,1.81V147.549z"/>
						</g>
						<circle fill="#F9A42D" cx="112.871" cy="145.738" r="3.924"/>
					</g>
					<g>
						<rect x="84.809" y="129.139" fill="#7BC3F7" width="1.659" height="7.545"/>
						<rect x="88.221" y="129.139" fill="#7BC3F7" width="1.657" height="7.545"/>
						<rect x="91.635" y="129.139" fill="#7BC3F7" width="1.657" height="7.545"/>
						<rect x="95.049" y="129.139" fill="#7BC3F7" width="1.657" height="7.545"/>
						<rect x="98.46" y="129.139" fill="#7BC3F7" width="1.657" height="7.545"/>
						<rect x="101.873" y="129.139" fill="#7BC3F7" width="1.658" height="7.545"/>
						<rect x="105.285" y="129.139" fill="#7BC3F7" width="1.66" height="7.545"/>
						<rect x="108.699" y="129.139" fill="#7BC3F7" width="1.657" height="7.545"/>
						<rect x="112.113" y="129.139" fill="#7BC3F7" width="1.657" height="7.545"/>
					</g>
					<rect x="83.341" y="115.705" opacity="0.2" fill="#8B8B90" width="31.899" height="1.206"/>
					<path fill="#4B334D" d="M120.694,124.36c0,0.543-0.44,0.981-0.982,0.981H78.867c-0.542,0-0.981-0.438-0.981-0.981v-6.468
						c0-0.544,0.439-0.981,0.981-0.981h40.846c0.542,0,0.982,0.438,0.982,0.981V124.36z"/>
					<path opacity="0.2" fill="#8B8B90" d="M65.039,160.5l-0.099,0.399c-0.624,2.508,0.982,4.559,3.564,4.559h37.752l-1.426-5.249
						L65.039,160.5z"/>
				</g>
				<path opacity="0.2" fill="#8B8B90" d="M93.79,112.677c-0.009-0.55-1.08-2.125-2.379-3.5l-3.614-3.821
					c-1.299-1.374-2.603-4.028-2.896-5.897l-8.924-69.647l-7.317-0.021l-3.39-0.004l10.876,69.673
					c0.294,1.869,1.595,4.523,2.896,5.897l3.613,3.821c1.3,1.375,2.371,2.95,2.38,3.5c0.009,0.551,0.017,1.001,0.017,1.001
					l8.755-0.004C93.808,113.653,93.8,113.214,93.79,112.677z"/>
				<g opacity="0.2">
					<polygon fill="#8B8B90" points="63.007,43.334 67.217,42.252 66.094,35.06 61.885,36.145 					"/>
					<polygon fill="#8B8B90" points="73.856,84.796 69.204,83.033 70.812,93.334 75.606,95.997 					"/>
				</g>
				<path opacity="0.2" fill="#8B8B90" d="M103.267,102.109c0,1.9-1.539,3.439-3.438,3.439h-0.907c-1.9,0-3.438-1.539-3.438-3.439
					V43.797c0-1.899,1.539-3.439,3.438-3.439h0.907c1.899,0,3.438,1.54,3.438,3.439V102.109z"/>
				<g>
					<rect x="98.998" y="97.108" fill="#F5F5F5" width="4.421" height="1.657"/>
					<rect x="98.998" y="90.86" fill="#F5F5F5" width="4.421" height="1.658"/>
					<rect x="98.998" y="84.613" fill="#F5F5F5" width="4.421" height="1.657"/>
					<rect x="98.998" y="78.365" fill="#F5F5F5" width="4.421" height="1.658"/>
					<rect x="98.998" y="72.118" fill="#F5F5F5" width="4.421" height="1.659"/>
					<rect x="98.998" y="65.872" fill="#F5F5F5" width="4.421" height="1.657"/>
					<rect x="98.998" y="59.625" fill="#F5F5F5" width="4.421" height="1.656"/>
					<rect x="98.998" y="53.377" fill="#F5F5F5" width="4.421" height="1.658"/>
					<rect x="98.998" y="47.131" fill="#F5F5F5" width="4.421" height="1.657"/>
				</g>
				
					<line fill="none" stroke="#FFFFFF" stroke-width="1.2162" stroke-linecap="round" stroke-linejoin="round" stroke-miterlimit="10" x1="138.94" y1="30.362" x2="138.94" y2="71.972"/>
				<g>
					<circle fill="#505050" cx="139.209" cy="74.401" r="2.767"/>
					<circle fill="#505050" cx="139.615" cy="77.97" r="1.438"/>
					<ellipse fill="#505050" cx="139.233" cy="78.557" rx="0.424" ry="1.437"/>
					<ellipse fill="#505050" cx="139.911" cy="78.646" rx="0.425" ry="1.438"/>
					<g>
						<path fill="none" stroke="#505050" stroke-width="0.5016" stroke-miterlimit="10" d="M140.231,72.771
							c1.469-1.147,3.59-0.886,4.735,0.584"/>
						<path fill="none" stroke="#505050" stroke-width="0.5016" stroke-miterlimit="10" d="M140.726,74.391
							c1.186-0.927,2.9-0.715,3.827,0.472"/>
						<path fill="none" stroke="#505050" stroke-width="0.5016" stroke-miterlimit="10" d="M139.802,75.829
							c1.189-0.925,2.902-0.715,3.829,0.474l-0.037,1.155"/>
					</g>
					<g>
						<path fill="none" stroke="#505050" stroke-width="0.5016" stroke-miterlimit="10" d="M138.489,72.771
							c-1.468-1.147-3.59-0.886-4.735,0.584"/>
						<path fill="none" stroke="#505050" stroke-width="0.5016" stroke-miterlimit="10" d="M137.996,74.391
							c-1.188-0.927-2.902-0.715-3.828,0.472"/>
						<path fill="none" stroke="#505050" stroke-width="0.5016" stroke-miterlimit="10" d="M138.918,75.829
							c-1.188-0.925-2.901-0.715-3.827,0.474l0.034,1.155"/>
					</g>
					<circle fill="#F9C03F" cx="138.593" cy="77.566" r="1.005"/>
					<circle fill="#F9C03F" cx="140.59" cy="77.566" r="1.005"/>
				</g>
			</g>
			<g id="XMLID_10_">
				
					<polyline id="XMLID_18_" fill="none" stroke="#FFFFFF" stroke-width="1.4076" stroke-linecap="round" stroke-linejoin="round" stroke-miterlimit="10" points="
					195.217,86.139 120.522,103.88 136.011,168.784 				"/>
				
					<line id="XMLID_17_" fill="none" stroke="#FFFFFF" stroke-width="1.4076" stroke-linecap="round" stroke-linejoin="round" stroke-miterlimit="10" x1="120.522" y1="103.88" x2="185.602" y2="143.885"/>
				
					<path id="XMLID_16_" fill="none" stroke="#FFFFFF" stroke-width="1.4076" stroke-linecap="round" stroke-linejoin="round" stroke-miterlimit="10" d="
					M127.161,131.698L127.161,131.698c0.722-8.292,8.058-14.411,16.346-13.626l0.126,0.009"/>
				
					<path id="XMLID_15_" fill="none" stroke="#FFFFFF" stroke-width="1.4076" stroke-linecap="round" stroke-linejoin="round" stroke-miterlimit="10" d="
					M130.85,147.151L130.85,147.151c5.254-11.15,16.686-18.056,29-17.521l2.752,0.116"/>
				
					<path id="XMLID_14_" fill="none" stroke="#FFFFFF" stroke-width="1.4076" stroke-linecap="round" stroke-linejoin="round" stroke-miterlimit="10" d="
					M134.536,162.605l0.352-0.44c10.886-13.729,27.433-21.756,44.957-21.817l0.003-0.001"/>
				
					<path id="XMLID_13_" fill="none" stroke="#FFFFFF" stroke-width="1.4076" stroke-linecap="round" stroke-linejoin="round" stroke-miterlimit="10" d="
					M179.263,89.877l-0.234,0.508c-7.333,15.916-7.029,34.301,0.833,49.967l0.001,0.003"/>
				
					<path id="XMLID_12_" fill="none" stroke="#FFFFFF" stroke-width="1.4076" stroke-linecap="round" stroke-linejoin="round" stroke-miterlimit="10" d="
					M148.34,97.241L148.34,97.241c-7.071,4.389-9.218,13.697-4.777,20.739l0.067,0.106"/>
				
					<path id="XMLID_11_" fill="none" stroke="#FFFFFF" stroke-width="1.4076" stroke-linecap="round" stroke-linejoin="round" stroke-miterlimit="10" d="
					M163.793,93.553L163.793,93.553c-7.574,9.725-8.575,23.042-2.54,33.792l1.348,2.401"/>
			</g>
			<g id="XMLID_1_">
				
					<polyline id="XMLID_9_" fill="none" stroke="#FFFFFF" stroke-width="1.4076" stroke-linecap="round" stroke-linejoin="round" stroke-miterlimit="10" points="
					4.217,96.639 76.729,118.006 61.462,169.833 				"/>
				
					<line id="XMLID_8_" fill="none" stroke="#FFFFFF" stroke-width="1.4076" stroke-linecap="round" stroke-linejoin="round" stroke-miterlimit="10" x1="76.729" y1="118.006" x2="18.217" y2="150.139"/>
				
					<path id="XMLID_7_" fill="none" stroke="#FFFFFF" stroke-width="1.4076" stroke-linecap="round" stroke-linejoin="round" stroke-miterlimit="10" d="
					M70.186,140.218L70.186,140.218c-0.235-6.734-5.907-11.992-12.642-11.708l-0.104,0.003"/>
				
					<path id="XMLID_6_" fill="none" stroke="#FFFFFF" stroke-width="1.4076" stroke-linecap="round" stroke-linejoin="round" stroke-miterlimit="10" d="
					M66.551,152.559L66.551,152.559c-3.779-9.238-12.73-15.305-22.71-15.395l-2.233-0.021"/>
				
					<path id="XMLID_5_" fill="none" stroke="#FFFFFF" stroke-width="1.4076" stroke-linecap="round" stroke-linejoin="round" stroke-miterlimit="10" d="
					M62.915,164.897l-0.264-0.37c-8.222-11.561-21.262-18.751-35.43-19.54l-0.002-0.002"/>
				
					<path id="XMLID_4_" fill="none" stroke="#FFFFFF" stroke-width="1.4076" stroke-linecap="round" stroke-linejoin="round" stroke-miterlimit="10" d="
					M29.823,104.2l0.167,0.422c5.255,13.179,4.233,28.032-2.785,40.365l-0.001,0.004"/>
				
					<path id="XMLID_3_" fill="none" stroke="#FFFFFF" stroke-width="1.4076" stroke-linecap="round" stroke-linejoin="round" stroke-miterlimit="10" d="
					M54.516,111.462L54.516,111.462c5.532,3.847,6.875,11.466,2.986,16.971l-0.059,0.085"/>
				
					<path id="XMLID_2_" fill="none" stroke="#FFFFFF" stroke-width="1.4076" stroke-linecap="round" stroke-linejoin="round" stroke-miterlimit="10" d="
					M42.175,107.828L42.175,107.828c5.714,8.182,5.962,18.993,0.627,27.43l-1.193,1.885"/>
			</g>
			<g>
				<rect x="25.219" y="168.282" fill="#C75D6F" width="152.782" height="29.462"/>
				<rect x="25.219" y="168.282" opacity="0.2" fill="#8B8B90" width="152.782" height="9.387"/>
				<rect x="101.082" y="168.282" opacity="0.2" fill="#8B8B90" width="1.057" height="29.462"/>
				<g>
					<g>
						<path opacity="0.2" fill="#8B8B90" d="M87.363,197.744v-7.872c0-4.944-4.01-8.953-8.954-8.953H46.69
							c-4.944,0-8.952,4.009-8.952,8.953v7.872H87.363z"/>
						<path fill="#CC6B7B" d="M90.283,197.744v-6.249c0-4.945-4.01-8.953-8.955-8.953H49.611c-4.946,0-8.955,4.008-8.955,8.953
							v6.249H90.283z"/>
					</g>
					<g>
						<path opacity="0.2" fill="#8B8B90" d="M163.254,197.744v-7.872c0-4.944-4.009-8.953-8.954-8.953h-31.719
							c-4.944,0-8.953,4.009-8.953,8.953v7.872H163.254z"/>
						<path fill="#CC6B7B" d="M166.173,197.744v-6.249c0-4.945-4.008-8.953-8.954-8.953h-31.718c-4.946,0-8.955,4.008-8.955,8.953
							v6.249H166.173z"/>
					</g>
				</g>
				<path fill="#C75D6F" d="M180.265,174.488c0,0.884-0.715,1.6-1.6,1.6H24.558c-0.883,0-1.6-0.716-1.6-1.6v-4.584
					c0-0.884,0.716-1.601,1.6-1.601h154.107c0.884,0,1.6,0.717,1.6,1.601V174.488z"/>
			</g>
		</g>
	</g>
</g>
<g id="Capa_4">
</g>
<g id="Capa_6" display="none">
</g>
<g id="_x31_" display="none">
</g>
<g id="pop_up_FB" display="none">
</g>
<g id="_x32_" display="none">
</g>
<g id="_x33_" display="none">
</g>
<g id="_x33__ok" display="none">
</g>
<g id="DENEGADA" display="none">
</g>
<g id="Lista_de_espera" display="none">
</g>
</svg>
