<?xml version="1.0" encoding="utf-8"?>
<!-- Generator: Adobe Illustrator 16.0.0, SVG Export Plug-In . SVG Version: 6.00 Build 0)  -->
<!DOCTYPE svg PUBLIC "-//W3C//DTD SVG 1.1//EN" "http://www.w3.org/Graphics/SVG/1.1/DTD/svg11.dtd">
<svg version="1.1" xmlns="http://www.w3.org/2000/svg" xmlns:xlink="http://www.w3.org/1999/xlink" x="0px" y="0px" width="200px"
	 height="200px" viewBox="0 0 200 200" enable-background="new 0 0 200 200" xml:space="preserve">
<g id="Capa_3">
</g>
<g id="Capa_1">
	<g>
		<circle fill="#BBB9BB" cx="100" cy="100.707" r="97.61"/>
		<g>
			<g>
				<path fill="#FFD23F" d="M131.476,63.137c-4.406-4.406-4.406-11.55,0-15.956l16.039-16.039c4.405-4.406,11.549-4.406,15.955,0
					l0,0c4.406,4.406,4.405,11.548-0.001,15.954l-16.04,16.039C143.024,67.541,135.88,67.542,131.476,63.137L131.476,63.137z"/>
				
					<path fill="none" stroke="#F9C5B6" stroke-width="2.1433" stroke-linecap="round" stroke-linejoin="round" stroke-miterlimit="10" d="
					M136.759,53.056c0.514,1.227,2.49,3.278,3.805,3.853"/>
				
					<path fill="none" stroke="#F9C5B6" stroke-width="2.1433" stroke-linecap="round" stroke-linejoin="round" stroke-miterlimit="10" d="
					M131.231,55.332c1.289,3.081,3.719,5.694,7.023,7.137"/>
			</g>
			<g>
				<polygon fill="#FFD23F" points="135.326,146.476 49.95,146.476 20.659,198.271 106.034,198.271 				"/>
				<path fill="#F9C03F" d="M43.199,154.691c-2.029,0-3.805,1.424-4.82,3.564c1.867,2.865,1.867,5.604,0.124,8.486
					c1.032,1.998,2.75,3.31,4.697,3.31c3.157,0,5.716-3.438,5.716-7.68S46.356,154.691,43.199,154.691z"/>
				<polygon fill="#F9C03F" points="135.326,146.476 103.177,146.476 73.884,198.271 106.034,198.271 				"/>
				<circle fill="#FFD23F" cx="86.029" cy="125.399" r="57.869"/>
			</g>
			<path opacity="0.15" fill="#65759D" d="M75.087,146.322c0,2.688-2.178,4.864-4.863,4.864H51.217
				c-2.686,0-2.989-61.968-2.989-61.968c0-2.687,2.177-4.864,4.864-4.864h17.131c2.686,0,4.863,2.178,4.863,4.864V146.322z"/>
			<path opacity="0.15" fill="#65759D" d="M93.708,82.891c-15.766,0-29.832,7.271-39.032,18.643v53.585
				c0,8.243,6.682,14.926,14.924,14.926h58.057c9.982-9.175,16.241-22.337,16.241-36.964
				C143.898,105.36,121.429,82.891,93.708,82.891z"/>
			<g>
				<path fill="#2D2E35" d="M146.417,151.856c0,8.466-6.861,15.325-15.324,15.325H66.071c-8.464,0-15.324-6.859-15.324-15.325
					V19.296c0-8.464,6.86-15.324,15.324-15.324h65.021c8.463,0,15.324,6.86,15.324,15.324V151.856z"/>
				<path fill="#2D2E35" d="M133.239,5.17c0,1.928-1.563,3.49-3.489,3.49h-17.694c-1.928,0-3.49-1.562-3.49-3.49l0,0
					c0-1.927,1.562-3.488,3.49-3.488h17.694C131.676,1.682,133.239,3.243,133.239,5.17L133.239,5.17z"/>
				<path fill="#2D2E35" d="M73.003,24.663c0,1.928-1.561,3.49-3.488,3.49H51.821c-1.928,0-3.49-1.562-3.49-3.49l0,0
					c0-1.927,1.562-3.487,3.49-3.487h17.694C71.442,21.176,73.003,22.736,73.003,24.663L73.003,24.663z"/>
				<path fill="#2D2E35" d="M73.003,32.166c0,1.927-1.561,3.489-3.488,3.489H51.821c-1.928,0-3.49-1.562-3.49-3.489l0,0
					c0-1.927,1.562-3.489,3.49-3.489h17.694C71.442,28.677,73.003,30.239,73.003,32.166L73.003,32.166z"/>
				<path fill="#505050" d="M143.92,149.043c0,8.243-6.682,14.926-14.924,14.926H65.672c-8.244,0-14.925-6.683-14.925-14.926V18.896
					c0-8.242,6.681-14.924,14.925-14.924h63.324c8.242,0,14.924,6.682,14.924,14.924V149.043z"/>
				<g>
					<g>
						<path fill="#97A0A2" d="M128.996,5.043c7.638,0,13.853,6.215,13.853,13.853v130.147c0,7.64-6.215,13.854-13.853,13.854H65.672
							c-7.639,0-13.853-6.215-13.853-13.854V18.896c0-7.638,6.214-13.853,13.853-13.853H128.996 M128.996,3.972H65.672
							c-8.244,0-14.925,6.682-14.925,14.924v130.147c0,8.243,6.681,14.926,14.925,14.926h63.324c8.242,0,14.924-6.683,14.924-14.926
							V18.896C143.92,10.653,137.238,3.972,128.996,3.972L128.996,3.972z"/>
					</g>
				</g>
				<path fill="#EEEEEE" d="M135.934,139.246c0,0.973-0.788,1.762-1.761,1.762H60.494c-0.973,0-1.76-0.789-1.76-1.762V21.705
					c0-0.974,0.788-1.761,1.76-1.761h73.679c0.973,0,1.761,0.787,1.761,1.761V139.246z"/>
				<path fill="#00BB68" d="M74.791,38.206c0,3.361-2.725,6.085-6.085,6.085c-3.361,0-6.085-2.724-6.085-6.085
					s2.724-6.085,6.085-6.085C72.066,32.121,74.791,34.845,74.791,38.206"/>
				<path fill="#EEEEEE" d="M68.706,39.343c-1.585,0-3.001,0.725-3.936,1.86c0.852,1.265,2.295,2.098,3.936,2.098
					c1.639,0,3.084-0.833,3.934-2.098C71.707,40.067,70.291,39.343,68.706,39.343z"/>
				<path fill="#EEEEEE" d="M70.995,36.36c0-1.264-1.024-2.288-2.288-2.288c-1.265,0-2.289,1.024-2.289,2.288
					s1.024,2.289,2.289,2.289C69.971,38.649,70.995,37.624,70.995,36.36"/>
				<rect x="76.862" y="34.724" fill="#006D3D" width="32.598" height="1.629"/>
				<rect x="76.862" y="39.075" fill="#006D3D" width="24.299" height="1.629"/>
				<rect x="62.933" y="47.475" fill="#BBB9BB" width="69.119" height="73.723"/>
				<path fill="#00BB68" d="M58.734,124.865v14.381c0,0.973,0.788,1.762,1.76,1.762h73.679c0.973,0,1.761-0.789,1.761-1.762v-14.381
					H58.734z"/>
				<path fill="#90F7A2" d="M83.32,133.126c0,2.52-2.042,4.562-4.56,4.562H67.9c-2.519,0-4.561-2.042-4.561-4.562l0,0
					c0-2.52,2.042-4.561,4.561-4.561h10.86C81.278,128.565,83.32,130.606,83.32,133.126L83.32,133.126z"/>
				<path fill="#006D3D" d="M130.956,133.126c0,2.52-2.043,4.562-4.561,4.562H99.248c-2.521,0-4.562-2.042-4.562-4.562l0,0
					c0-2.52,2.041-4.561,4.562-4.561h27.147C128.913,128.565,130.956,130.606,130.956,133.126L130.956,133.126z"/>
				<path fill="#00BB68" d="M135.934,29.714v-8.009c0-0.974-0.788-1.761-1.761-1.761H60.494c-0.973,0-1.76,0.787-1.76,1.761v8.009
					H135.934z"/>
				<polygon fill="#EEEEEE" points="64.199,27.125 61.739,24.663 64.199,22.203 64.78,22.783 62.9,24.663 64.78,26.545 				"/>
				<rect x="120.337" y="24.429" fill="#EEEEEE" width="10.409" height="1.629"/>
				<circle fill="#2D2E35" cx="97.333" cy="151.656" r="6.157"/>
				<path opacity="0.2" fill="#FFFFFF" d="M128.996,6.472H65.97l68.111,153.9c0.338-0.152,0.672-0.314,0.994-0.496
					c3.783-2.132,6.344-6.189,6.344-10.833V18.896C141.419,12.046,135.847,6.472,128.996,6.472z"/>
				<path fill="#505050" d="M105.913,15.71c0,0.812-0.654,1.467-1.465,1.467h-13.92c-0.809,0-1.465-0.655-1.465-1.467l0,0
					c0-0.809,0.656-1.465,1.465-1.465h13.92C105.259,14.245,105.913,14.901,105.913,15.71L105.913,15.71z"/>
				<circle fill="#505050" cx="97.358" cy="10.305" r="2.414"/>
			</g>
			<g>
				<path opacity="0.1" fill="#65759D" d="M146.417,142.03v-14.285c-0.7-0.135-1.421-0.209-2.161-0.209h-14.735
					c-6.229,0-11.281,5.053-11.281,11.283c0,6.231,5.052,11.281,11.281,11.281h14.598
					C145.573,147.758,146.417,144.993,146.417,142.03z"/>
				<path fill="#FFD23F" d="M155.539,136.202c0,6.23-5.053,11.283-11.283,11.283h-14.735c-6.229,0-11.281-5.053-11.281-11.283l0,0
					c0-6.23,5.052-11.282,11.281-11.282h14.735C150.486,124.92,155.539,129.972,155.539,136.202L155.539,136.202z"/>
				<path opacity="0.1" fill="#65759D" d="M131.979,125.224c1.975,1.7,4.543,2.729,7.353,2.729h12.617
					c-2.017-1.88-4.72-3.033-7.693-3.033h-9.685C133.679,124.92,132.812,125.026,131.979,125.224z"/>
				<path fill="#FFE69D" d="M127.786,128.908h-3.141c-2.219,0-4.184,1.063-5.43,2.703c-0.626,1.402-0.977,2.955-0.977,4.591
					c0,2.54,0.838,4.884,2.256,6.77c1.149,0.885,2.587,1.416,4.15,1.416h3.141c3.77,0,6.826-3.055,6.826-6.823v-1.833
					C134.612,131.963,131.556,128.908,127.786,128.908z"/>
				<path fill="#F5F5D4" d="M129.968,136.946c0,2.211,1.014,4.185,2.601,5.482c1.259-1.237,2.044-2.959,2.044-4.864v-1.833
					c0-1.732-0.652-3.311-1.717-4.514C131.124,132.506,129.968,134.589,129.968,136.946z"/>
				<path fill="none" stroke="#FFE69D" stroke-width="2.1433" stroke-miterlimit="10" d="M144.675,139.595
					c0.504-1.23,0.555-4.08,0.033-5.415"/>
				<path fill="none" stroke="#FFE69D" stroke-width="2.1433" stroke-miterlimit="10" d="M150.19,141.895
					c1.27-3.091,1.397-6.657,0.084-10.014"/>
			</g>
			<path fill="#FFD23F" d="M39.927,94.28c8.991-4.32,15.201-13.508,15.201-24.151c0-9.868-5.326-18.505-13.281-23.135
				c-0.709-0.413-3.268-0.289-3.394,1.101c-1.39,15.209-8.954,64.713-8.954,64.713"/>
			<path fill="#FFE69D" d="M35.912,68.667c2.868,0.278,6.232-1.635,6.687-4.518c0,0,0.001-16.665-0.335-16.903
				c-0.018-0.012-0.036-0.024-0.056-0.034c-0.133-0.082-0.27-0.16-0.404-0.238c-0.761-0.392-3.091-0.441-3.35,1.121
				c-0.531,3.202-1.779,11.219-2.509,20.254C35.933,68.455,35.922,68.562,35.912,68.667z"/>
			<path fill="#FFE69D" d="M37.496,89.838c-0.259-0.565-0.925-0.813-1.492-0.554c-0.544,0.248-1.591,0.428-2.673,0.456
				c-0.157,0.004-0.306,0.042-0.44,0.103c-0.09,0.628-0.209,1.456-0.3,2.07c0.199,0.175,0.486,0.077,0.77,0.077
				c0.009,0,0.02,0,0.03,0c0.673-0.018,2.367-0.118,3.55-0.661C37.505,91.071,37.753,90.402,37.496,89.838z"/>
			<g>
				<path fill="#FFD23F" d="M166.851,114.055c0,6.231-5.052,11.282-11.281,11.282h-21.286c-6.229,0-11.282-5.051-11.282-11.282l0,0
					c0-6.23,5.053-11.282,11.282-11.282h21.286C161.799,102.772,166.851,107.824,166.851,114.055L166.851,114.055z"/>
				<path opacity="0.1" fill="#65759D" d="M140.397,102.772c-1.822,0-3.541,0.436-5.065,1.202c1.909,1.482,4.306,2.367,6.911,2.367
					h16.57c1.469,0,2.873-0.284,4.159-0.795c-1.981-1.727-4.569-2.774-7.403-2.774H140.397z"/>
				<path fill="#FFE69D" d="M132.551,106.761h-3.142c-2.219,0-4.184,1.063-5.43,2.702c-0.627,1.402-0.979,2.957-0.979,4.592
					c0,2.54,0.84,4.884,2.258,6.77c1.15,0.884,2.586,1.416,4.15,1.416h3.142c3.77,0,6.823-3.056,6.823-6.824v-1.831
					C139.374,109.815,136.32,106.761,132.551,106.761z"/>
				<path fill="#F5F5D4" d="M134.731,114.799c0,2.21,1.012,4.185,2.601,5.484c1.259-1.238,2.042-2.96,2.042-4.867v-1.831
					c0-1.733-0.65-3.312-1.716-4.515C135.887,110.358,134.731,112.441,134.731,114.799z"/>
				<path fill="none" stroke="#FFE69D" stroke-width="2.1433" stroke-miterlimit="10" d="M155.987,117.446
					c0.504-1.229,0.557-4.078,0.033-5.414"/>
				<path fill="none" stroke="#FFE69D" stroke-width="2.1433" stroke-miterlimit="10" d="M161.505,119.746
					c1.268-3.091,1.396-6.656,0.081-10.013"/>
			</g>
			<g>
				<path fill="#FFD23F" d="M170.095,92.443c0,6.23-5.051,11.282-11.281,11.282H136.13c-6.23,0-11.283-5.052-11.283-11.282l0,0
					c0-6.23,5.053-11.28,11.283-11.28h22.684C165.044,81.163,170.095,86.213,170.095,92.443L170.095,92.443z"/>
				<path fill="#FFE69D" d="M134.396,85.15h-3.141c-2.219,0-4.185,1.062-5.432,2.702c-0.627,1.402-0.977,2.955-0.977,4.591
					c0,2.54,0.841,4.883,2.258,6.77c1.15,0.884,2.586,1.416,4.15,1.416h3.141c3.77,0,6.825-3.056,6.825-6.824v-1.831
					C141.221,88.204,138.165,85.15,134.396,85.15z"/>
				<path fill="#F5F5D4" d="M136.575,93.188c0,2.21,1.014,4.185,2.604,5.483c1.258-1.238,2.042-2.959,2.042-4.866v-1.831
					c0-1.733-0.653-3.311-1.718-4.515C137.733,88.747,136.575,90.83,136.575,93.188z"/>
				<path fill="none" stroke="#FFE69D" stroke-width="2.1433" stroke-miterlimit="10" d="M159.229,95.835
					c0.506-1.229,0.559-4.079,0.033-5.415"/>
				<path fill="none" stroke="#FFE69D" stroke-width="2.1433" stroke-miterlimit="10" d="M164.748,98.135
					c1.269-3.09,1.397-6.657,0.081-10.013"/>
			</g>
			<path fill="#FFE69D" d="M40.233,95.538c-0.259-0.566-0.924-0.814-1.491-0.556c-1.961,0.898-4.121,1.298-6.258,1.156
				c-0.188-0.013-0.364,0.024-0.525,0.095c-0.095,0.64-0.186,1.266-0.277,1.883c0.178,0.15,0.401,0.251,0.652,0.267
				c0.331,0.022,0.663,0.034,0.995,0.034c2.179,0,4.357-0.474,6.35-1.388C40.243,96.771,40.493,96.103,40.233,95.538z"/>
			<path fill="#F5F5D4" d="M41.774,66.094c-0.982-0.767-2.328-1.241-3.815-1.241c-0.577,0-1.202,0.062-1.723,0.193
				c-0.144,1.228-0.208,2.451-0.325,3.621C38.068,68.877,40.506,67.845,41.774,66.094z"/>
			<g>
				<g>
					<g>
						<path fill="#5D405F" d="M90.999,116.305c0,0.517-0.42,0.937-0.938,0.937h-2.586c-0.518,0-0.938-0.42-0.938-0.937l0,0
							c0-0.516,0.42-0.937,0.938-0.937h2.586C90.579,115.368,90.999,115.789,90.999,116.305L90.999,116.305z"/>
						<path fill="#5D405F" d="M109.019,116.305c0,0.517-0.42,0.937-0.937,0.937h-2.587c-0.518,0-0.938-0.42-0.938-0.937l0,0
							c0-0.516,0.42-0.937,0.938-0.937h2.587C108.599,115.368,109.019,115.789,109.019,116.305L109.019,116.305z"/>
					</g>
					<path fill="#249CF2" d="M85.905,100.062c0.279-1.122,1.451-2.039,2.605-2.039h18.83c1.156,0,2.314,0.921,2.574,2.046
						l3.258,14.041c0.261,1.126-0.471,2.048-1.627,2.048H84.009c-1.154,0-1.872-0.919-1.593-2.04L85.905,100.062z"/>
					<path opacity="0.2" fill="#8B8B90" d="M91.243,98.023h-2.732c-1.154,0-2.326,0.917-2.605,2.039l-3.489,14.056
						c-0.279,1.121,0.438,2.04,1.593,2.04h14.186L91.243,98.023z"/>
					<path fill="#4B334D" d="M113.173,114.11l-0.101-0.435L82.46,113.94l-0.044,0.178c-0.279,1.121,0.438,2.04,1.593,2.04h27.537
						C112.702,116.158,113.434,115.236,113.173,114.11z"/>
					<path fill="#F5F5F5" d="M115.694,55.589h-3.783c-0.082-0.015-0.168-0.023-0.256-0.023l-27.576-0.088l-1.516-0.002l4.863,31.163
						c0.133,0.835,0.714,2.022,1.295,2.638l1.617,1.708c0.582,0.616,1.061,1.32,1.064,1.567c0.004,0.245,0.006,0.446,0.006,0.446
						l13.18-0.004c0,0,0.002-0.176,0.006-0.389c0.005-0.215,0.489-0.886,1.08-1.493l1.42-1.464c0.59-0.607,1.176-1.788,1.303-2.625
						l3.877-25.136L115.694,55.589z"/>
					<g>
						<path fill="#FFFFFF" d="M109.121,55.565c0.087,0,0.171,0.009,0.253,0.023h2.537c-0.082-0.015-0.168-0.023-0.256-0.023
							l-27.576-0.088l-1.516-0.002v0.006L109.121,55.565z"/>
						<path fill="#FFFFFF" d="M111.892,55.589l-3.42,6.299l-2.609,25.136c-0.129,0.837-0.714,2.018-1.303,2.625l-1.42,1.464
							c-0.59,0.607-1.078,1.278-1.08,1.493c-0.004,0.213-0.007,0.389-0.007,0.389l-10.644,0.003v0.001l13.18-0.004
							c0,0,0.002-0.176,0.006-0.389c0.005-0.215,0.489-0.886,1.08-1.493l1.42-1.464c0.59-0.607,1.176-1.788,1.303-2.625
							l3.877-25.136l3.42-6.299H111.892z"/>
					</g>
					<path opacity="0.2" fill="#8B8B90" d="M91.404,92.622c0.003,0.213,0.005,0.376,0.005,0.376l13.18-0.004
						c0,0,0.002-0.165,0.006-0.372H91.404z"/>
					<path fill="#4B334D" d="M104.911,96.325c0,0.244-0.195,0.44-0.439,0.44H91.084c-0.243,0-0.438-0.196-0.438-0.44v-2.892
						c0-0.243,0.195-0.439,0.438-0.439h13.388c0.244,0,0.439,0.196,0.439,0.439V96.325z"/>
					<path fill="#4E3150" d="M83.537,56.778l-0.269-1.387c0-0.735,0.596-1.332,1.331-1.332h27.438c0.734,0,1.332,0.597,1.332,1.332
						l-0.811,1.387"/>
					<polygon fill="#5B405F" points="83.374,55.476 83.577,56.778 113.128,56.778 113.263,55.589 					"/>
					<path fill="#4BC6F2" d="M102.739,53.224c0,0.723-0.586,1.31-1.309,1.31h-6.224c-0.725,0-1.31-0.587-1.31-1.31l0,0
						c0-0.722,0.585-1.308,1.31-1.308h6.224C102.153,51.916,102.739,52.502,102.739,53.224L102.739,53.224z"/>
					<path fill="#4E3150" d="M110.317,54.036c0,0.349-0.283,0.632-0.631,0.632H86.951c-0.35,0-0.632-0.283-0.632-0.632l0,0
						c0-0.349,0.282-0.632,0.632-0.632h22.735C110.034,53.404,110.317,53.688,110.317,54.036L110.317,54.036z"/>
					<path fill="#249CF2" d="M86.403,80.08l-4.943-1.872c-0.254-0.128-0.599-0.632-0.624-0.915l-2.135-14.854
						c0-0.062,0.088-0.186,0.144-0.206l4.59-1.182l-0.503-3.216l-4.895,1.261c-1.581,0.407-2.708,2.002-2.563,3.628L77.61,77.58
						c0.125,1.409,1.135,2.893,2.4,3.525l7.176,3.983L86.403,80.08z"/>
					<path fill="#4B334D" d="M107.894,108.705c0,0.736-0.596,1.333-1.332,1.333H88.993c-0.734,0-1.33-0.597-1.33-1.333l0.541-2.87
						c0-0.736,0.594-1.332,1.33-1.332h16.488c0.734,0,1.331,0.596,1.331,1.332L107.894,108.705z"/>
					<g>
						<g>
							<path fill="#F05A28" d="M91.569,108.148c0,0.446-0.362,0.81-0.811,0.81l0,0c-0.447,0-0.81-0.363-0.81-0.81v-1.756
								c0-0.447,0.362-0.811,0.81-0.811l0,0c0.448,0,0.811,0.363,0.811,0.811V108.148z"/>
							<path fill="#F05A28" d="M94.539,108.148c0,0.446-0.364,0.81-0.812,0.81l0,0c-0.447,0-0.809-0.363-0.809-0.81v-1.756
								c0-0.447,0.361-0.811,0.809-0.811l0,0c0.447,0,0.812,0.363,0.812,0.811V108.148z"/>
							<path fill="#F05A28" d="M97.508,108.148c0,0.446-0.362,0.81-0.81,0.81l0,0c-0.448,0-0.81-0.363-0.81-0.81v-1.756
								c0-0.447,0.361-0.811,0.81-0.811l0,0c0.447,0,0.81,0.363,0.81,0.811V108.148z"/>
							<path fill="#F05A28" d="M100.478,108.148c0,0.446-0.361,0.81-0.811,0.81l0,0c-0.447,0-0.809-0.363-0.809-0.81v-1.756
								c0-0.447,0.361-0.811,0.809-0.811l0,0c0.449,0,0.811,0.363,0.811,0.811V108.148z"/>
						</g>
						<circle fill="#F9A42D" cx="103.853" cy="107.338" r="1.756"/>
					</g>
					<g>
						<rect x="91.302" y="99.912" fill="#7BC3F7" width="0.741" height="3.376"/>
						<rect x="92.829" y="99.912" fill="#7BC3F7" width="0.741" height="3.376"/>
						<rect x="94.355" y="99.912" fill="#7BC3F7" width="0.739" height="3.376"/>
						<rect x="95.882" y="99.912" fill="#7BC3F7" width="0.741" height="3.376"/>
						<rect x="97.407" y="99.912" fill="#7BC3F7" width="0.742" height="3.376"/>
						<rect x="98.934" y="99.912" fill="#7BC3F7" width="0.741" height="3.376"/>
						<rect x="100.46" y="99.912" fill="#7BC3F7" width="0.74" height="3.376"/>
						<rect x="101.987" y="99.912" fill="#7BC3F7" width="0.74" height="3.376"/>
						<rect x="103.513" y="99.912" fill="#7BC3F7" width="0.742" height="3.376"/>
					</g>
					<rect x="90.646" y="93.906" opacity="0.2" fill="#8B8B90" width="14.266" height="0.538"/>
					<path fill="#4B334D" d="M107.352,97.777c0,0.242-0.196,0.438-0.44,0.438H88.646c-0.244,0-0.44-0.196-0.44-0.438v-2.894
						c0-0.243,0.196-0.439,0.44-0.439h18.266c0.244,0,0.44,0.196,0.44,0.439V97.777z"/>
					<path opacity="0.2" fill="#8B8B90" d="M82.46,113.94l-0.044,0.178c-0.279,1.121,0.438,2.04,1.593,2.04h16.887l-0.639-2.349
						L82.46,113.94z"/>
				</g>
				<path opacity="0.2" fill="#8B8B90" d="M95.318,92.552c-0.005-0.247-0.481-0.951-1.063-1.567l-1.617-1.708
					c-0.58-0.615-1.162-1.803-1.295-2.638l-3.991-31.15l-3.272-0.011l-1.516-0.002l4.863,31.163
					c0.133,0.835,0.714,2.022,1.295,2.638l1.617,1.708c0.582,0.616,1.061,1.32,1.064,1.567c0.004,0.245,0.006,0.446,0.006,0.446
					l3.918-0.001C95.327,92.987,95.323,92.791,95.318,92.552z"/>
				<g opacity="0.2">
					<polygon fill="#8B8B90" points="81.55,61.537 83.435,61.052 82.932,57.836 81.049,58.32 					"/>
					<polygon fill="#8B8B90" points="86.403,80.08 84.323,79.293 85.042,83.899 87.187,85.089 					"/>
				</g>
				<path opacity="0.2" fill="#8B8B90" d="M99.558,87.823c0,0.85-0.689,1.539-1.539,1.539h-0.404c-0.85,0-1.537-0.689-1.537-1.539
					V61.744c0-0.851,0.688-1.538,1.537-1.538h0.404c0.85,0,1.539,0.688,1.539,1.538V87.823z"/>
				<g>
					<rect x="97.648" y="85.587" fill="#F5F5F5" width="1.978" height="0.741"/>
					<rect x="97.648" y="82.793" fill="#F5F5F5" width="1.978" height="0.741"/>
					<rect x="97.648" y="79.999" fill="#F5F5F5" width="1.978" height="0.741"/>
					<rect x="97.648" y="77.204" fill="#F5F5F5" width="1.978" height="0.742"/>
					<rect x="97.648" y="74.411" fill="#F5F5F5" width="1.978" height="0.74"/>
					<rect x="97.648" y="71.617" fill="#F5F5F5" width="1.978" height="0.74"/>
					<rect x="97.648" y="68.822" fill="#F5F5F5" width="1.978" height="0.741"/>
					<rect x="97.648" y="66.027" fill="#F5F5F5" width="1.978" height="0.741"/>
					<rect x="97.648" y="63.233" fill="#F5F5F5" width="1.978" height="0.742"/>
				</g>
			</g>
		</g>
	</g>
</g>
<g id="Capa_4">
</g>
<g id="Capa_6" display="none">
</g>
<g id="_x31_" display="none">
</g>
<g id="pop_up_FB" display="none">
</g>
<g id="_x32_" display="none">
</g>
<g id="_x33_" display="none">
</g>
<g id="_x33__ok" display="none">
</g>
<g id="DENEGADA" display="none">
</g>
<g id="Lista_de_espera" display="none">
</g>
</svg>
