<?xml version="1.0" encoding="utf-8"?>
<!-- Generator: Adobe Illustrator 16.0.0, SVG Export Plug-In . SVG Version: 6.00 Build 0)  -->
<!DOCTYPE svg PUBLIC "-//W3C//DTD SVG 1.1//EN" "http://www.w3.org/Graphics/SVG/1.1/DTD/svg11.dtd">
<svg version="1.1" id="Capa_1" xmlns="http://www.w3.org/2000/svg" xmlns:xlink="http://www.w3.org/1999/xlink" x="0px" y="0px"
	 width="215px" height="200px" viewBox="0 0 215 200" enable-background="new 0 0 215 200" xml:space="preserve">
<g>
	<path fill="#E7E6E8" d="M163.507,158.792c5.691,2.419,5.555,6.014-0.309,7.987l-93.41,31.394
		c-5.863,1.976-11.646-0.325-16.691-3.906l-27.17-19.283c-5.047-3.579-4.295-7.864,1.664-9.52l84.545-23.52
		c5.959-1.656,8.229-1.455,13.922,0.963L163.507,158.792z"/>
	<g>
		<circle fill="#BBB9BB" cx="109.16" cy="99.161" r="97.61"/>
		<polyline fill="#AAA7AA" points="165.118,118.57 166.01,130.111 182.334,118.57 		"/>
		<path fill="#AAA7AA" d="M169.122,118.068H77.679c-6.528,0-11.84-5.312-11.84-11.84V73.335c0-6.528,5.312-11.839,11.84-11.839
			h87.991v7H77.679c-2.669,0-4.84,2.171-4.84,4.839v32.894c0,2.668,2.171,4.84,4.84,4.84h91.442V118.068z"/>
		<g>
			<g>
				<path fill="#FFFFFF" stroke="#00BB68" stroke-width="1.5102" stroke-miterlimit="10" d="M146.625,74.83
					c0,4.605-3.734,8.339-8.338,8.339H43.842L43.116,94.71l-16.49-11.541H9.468c-4.605,0-8.339-3.733-8.339-8.339V34.932
					c0-4.604,3.733-8.338,8.339-8.338h128.819c4.604,0,8.338,3.733,8.338,8.338V74.83z"/>
				<path fill="#E7E6E8" d="M72.839,82.406v-9.071c0-2.668,2.171-4.839,4.84-4.839h68.189v-7H77.679
					c-6.528,0-11.84,5.311-11.84,11.839v9.071H72.839z"/>
				<g>
					<circle fill="#00BB68" cx="36.851" cy="47.315" r="30.812"/>
					<g>
						<defs>
							<circle id="SVGID_13_" cx="38.954" cy="39.612" r="38.514"/>
						</defs>
						<clipPath id="SVGID_2_">
							<use xlink:href="#SVGID_13_"  overflow="visible"/>
						</clipPath>
						<g clip-path="url(#SVGID_2_)">
							<g>
								<path fill="#C75D6F" d="M10.821,93.662c6.393,0,11.574,5.182,11.574,11.57v2.59c0,1.66-0.352,3.237-0.984,4.667
									c14.256,0,36.006,0,38.633,0c-0.039-35.611-0.881-9.536-0.953-24.976c0.031-0.641,0.047-1.287,0.047-1.938
									c0-15.94-24.51-23.949-24.51-23.949s-28.4,4.059-28.4,23.949c0,2.808,0.396,5.521,1.133,8.087H10.821z"/>
								<g>
									<defs>
										<path id="SVGID_15_" d="M21.411,112.489c14.256,0,36.006,0,38.633,0c-0.039-35.611-0.881-9.536-0.953-24.976
											c0.029-0.641,0.047-1.287,0.047-1.938c0-8.216-6.51-14.324-12.82-18.315c-2.072,3.754-6.646,6.364-11.965,6.364
											c-6.086,0-11.205-3.42-12.701-8.061c-7.484,3.404-15.424,9.495-15.424,20.012c0,2.808,0.396,5.521,1.133,8.087h3.461
											c6.393,0,11.574,5.182,11.574,11.57v2.59C22.395,109.482,22.043,111.06,21.411,112.489z"/>
									</defs>
									<clipPath id="SVGID_4_">
										<use xlink:href="#SVGID_15_"  overflow="visible"/>
									</clipPath>
									<g clip-path="url(#SVGID_4_)">
										<rect x="3.778" y="88.182" opacity="0.2" fill="#8B8B90" width="57.939" height="8.202"/>
										<rect x="3.778" y="72.588" opacity="0.2" fill="#8B8B90" width="57.939" height="8.201"/>
									</g>
								</g>
								<path fill="none" stroke="#E7E7E7" stroke-width="2.9863" stroke-miterlimit="10" d="M46.413,67.257
									c-1.984,3.465-6.588,5.895-11.949,5.895c-6.328,0-11.6-3.384-12.754-7.865"/>
								<path fill="#F9C03F" d="M59.676,43.097c-0.117-0.37-3.836-11.234-5.057-14.804l0.246-4.187c0,0-9.494,3.235-12.732,4.449
									c-0.141,0.052-0.273,0.107-0.402,0.166H37.43c-6.393,0-11.574,5.18-11.574,11.571v9.405v1.869v11.704l-0.934,0.397
									l-3.213,1.617c1.154,4.481,6.426,7.865,12.754,7.865c5.361,0,9.965-2.43,11.949-5.895c0,0,0.027-0.048,0.041-0.094
									c-1.52-0.602-2.596-2.08-2.596-3.814c0-2.126,1.768-3.252,3.688-4.08c4.428-1.624,7.588-5.877,7.588-10.867l-0.096-1.965
									c1.178,0.864,2.838,0.769,3.9-0.297C59.762,45.317,60.01,44.135,59.676,43.097z"/>
								<path opacity="0.2" fill="#8B8B90" d="M34.913,52.846c-0.068-0.221-0.123-0.557-0.17-0.98
									c-0.023,0.94-0.035,1.993-0.035,3.172c0,3.704,2.91,6.706,7.068,6.706c1.043,0,2.037-0.189,2.938-0.53
									C40.124,60.794,36.321,58.666,34.913,52.846z"/>
								<path fill="#2D2E35" d="M56.135,24.646c3.229,0,5.844-2.616,5.844-5.845c0-2.545-1.627-4.709-3.898-5.512
									c0.297-0.699,0.461-1.47,0.461-2.276c0-3.229-2.617-5.845-5.846-5.845c-1.182,0-2.283,0.352-3.205,0.956
									c-0.781-2.305-2.963-3.966-5.533-3.966c-2.309,0-4.303,1.338-5.254,3.28C37.7,4.626,36.42,4.138,35.028,4.138
									c-3.23,0-5.848,2.616-5.848,5.844c0,0.267,0.02,0.528,0.057,0.785c-0.619-0.242-1.287-0.378-1.988-0.378
									c-2.986,0-5.41,2.423-5.41,5.41c0,0.856,0.199,1.666,0.553,2.386c-0.205-0.024-0.414-0.038-0.625-0.038
									c-2.99,0-5.411,2.423-5.411,5.41c0,1.568,0.669,2.98,1.733,3.968c-1.418,0.977-2.35,2.611-2.35,4.462
									c0,2.547,1.758,4.681,4.13,5.257c0.048,2.945,2.45,5.318,5.407,5.318c2.707,0,4.951-1.988,5.348-4.583
									c-0.914-0.495-1.535-1.461-1.535-2.574c0-1.614,1.311-2.925,2.924-2.925c1.615,0,2.924,1.311,2.924,2.925
									c0,0.204-0.752,15.119-0.023,17.441c1.596,6.594,6.264,8.45,11.666,8.45c5.645,0,11.285-1.526,11.018-9.692
									c0.242-2.169-0.203-3.623-1.09-4.6c-0.664-0.067-1.311-0.354-1.82-0.864l-0.539-0.541c-2.219-0.689-5.127-0.426-7.797-0.553
									c-2.586-0.123-5.205-2.466-7.279-3.248c0,0-2.156-11.291,3.062-13.242c3.238-1.214,12.732-4.449,12.732-4.449l-0.027,0.393
									C55.256,24.595,55.688,24.646,56.135,24.646z"/>
								<path opacity="0.2" fill="#8B8B90" d="M39.071,41.798c1.07,0.404,2.283,1.255,3.564,1.984
									c-1.17-3.203-2.652-11.829,0.719-14.073c2.133-1.422,7.158-4.073,10.809-5.329l0.014-0.038
									c-2.238,0.766-9.332,3.198-12.043,4.214C36.915,30.507,39.071,41.798,39.071,41.798z"/>
							</g>
							<path fill="none" stroke="#505050" stroke-width="1.608" stroke-miterlimit="10" d="M48.719,52.426
								c-3.656,0-6.854-1.961-8.596-4.89"/>
							<path fill="none" stroke="#505050" stroke-width="1.608" stroke-miterlimit="10" d="M24.987,26.698
								c-0.209-3.649,1.572-6.952,4.396-8.859"/>
							<circle fill="#2D2E35" cx="50.607" cy="35.133" r="2.054"/>
							<path opacity="0.2" fill="#8B8B90" d="M25.856,42.527v1.796c0.027,0,0.055,0.002,0.08,0.002c2.611,0,4.729-2.229,4.729-4.979
								c0-0.356-0.039-0.704-0.105-1.042C30.071,40.555,28.184,42.279,25.856,42.527z"/>
						</g>
					</g>
				</g>
				<g>
					
						<line fill="none" stroke="#505050" stroke-width="2.1142" stroke-miterlimit="10" x1="77.598" y1="43.112" x2="97.459" y2="43.112"/>
					
						<line fill="none" stroke="#505050" stroke-width="2.1142" stroke-miterlimit="10" x1="77.598" y1="55.799" x2="135.518" y2="55.799"/>
					
						<line fill="none" stroke="#505050" stroke-width="2.1142" stroke-miterlimit="10" x1="77.598" y1="67.579" x2="135.518" y2="67.579"/>
				</g>
			</g>
			<g>
				<path fill="#FFFFFF" stroke="#00BB68" stroke-width="1.5102" stroke-miterlimit="10" d="M69.339,113.232
					c0,4.604,3.734,8.339,8.34,8.339h91.442l0.893,11.542l16.324-11.542h15.155c4.604,0,8.338-3.734,8.338-8.339V73.335
					c0-4.605-3.734-8.339-8.338-8.339H77.679c-4.605,0-8.34,3.733-8.34,8.339V113.232z"/>
				<g>
					<circle fill="#00BB68" cx="176.111" cy="85.718" r="30.812"/>
					<g>
						<defs>
							<circle id="SVGID_17_" cx="176.113" cy="78.016" r="38.513"/>
						</defs>
						<clipPath id="SVGID_6_">
							<use xlink:href="#SVGID_17_"  overflow="visible"/>
						</clipPath>
						<g clip-path="url(#SVGID_6_)">
							<circle fill="#2D2E35" cx="166.921" cy="87.454" r="13.329"/>
							<g>
								<path fill="#F05A28" d="M205.352,180.95c0,0-53.041,0-57.357,0c9.529-23.628,12.754-45.03,10.424-53.2
									c-1.525-5.359,2.711,1.47,2.729-5.644c11.137-8.049,44.205,0,44.205,0V180.95z"/>
								<path fill="#F05A28" d="M150.495,117.092c0.736,16.515,17.645,15.519,20.863,8.651c13.715,0,31.293,17.904,35.41,5.372
									c1.031-3.143,1.592-6.505,1.592-10c0-17.436-31.061-26.193-31.061-26.193s-6.141,2.277-12.656,6.413
									C157.829,109.092,156.536,110.915,150.495,117.092z"/>
								<path fill="none" stroke="#FFFFFF" stroke-width="2.2611" stroke-linecap="round" stroke-miterlimit="10" d="
									M164.643,101.334c2.186,3.763,6.998,6.192,12.834,6.192c6.924,0,12.688-3.701,13.951-8.601"/>
								<path opacity="0.2" fill="#8B8B90" d="M179.167,141.914c0-6.989,5.666-12.655,12.656-12.655h17.213
									c6.988,0,12.654,5.666,12.654,12.655v33.232c0,6.988-5.666,12.655-12.654,12.655h-17.213
									c-6.99,0-12.656-5.667-12.656-12.655V141.914z"/>
								<path fill="#FFFFFF" d="M190.678,142.112c0-6.99,5.666-12.655,12.658-12.655h17.209c6.99,0,12.656,5.665,12.656,12.655
									v27.343c0,6.99-5.666,12.656-12.656,12.656h-17.209c-6.992,0-12.658-5.666-12.658-12.656V142.112z"/>
								<rect x="168.186" y="77.277" fill="#F9C03F" width="18.707" height="15.837"/>
								<path fill="#F9C03F" d="M187.913,96.903l-1.02-0.183V83.922v-2.046V71.589c0-6.989-5.668-12.655-12.656-12.655h-6.707
									c-6.988,0-12.656-6.22-12.656,0.77v20.754c0,5.458,3.457,10.11,8.299,11.886c2.156,0.801,4.033,2.139,4.033,4.463
									c0,1.221-0.684,2.269-1.314,3.064c-0.662,0.837-1.252,1.455-1.248,1.464c2.186,3.763,6.998,6.192,12.834,6.192
									c6.924,0,12.688-3.701,13.951-8.601L187.913,96.903z"/>
								<circle opacity="0.2" fill="#8B8B90" cx="189.372" cy="83.249" r="12.09"/>
								<path fill="none" stroke="#F9C03F" stroke-width="13.8178" stroke-miterlimit="10" d="M161.917,154.077h16.477
									c11.066,0,20.037-8.972,20.037-20.038v-3.038"/>
								
									<line fill="none" stroke="#FFFFFF" stroke-width="2.8845" stroke-miterlimit="10" x1="208.883" y1="130.813" x2="191.176" y2="130.813"/>
								<path fill="#F9C03F" d="M176.463,147.169c0,7.639-6.191,13.828-13.828,13.828c-7.639,0-13.832-6.189-13.832-13.828"/>
							</g>
							<g>
								<g>
									<g>
										<circle fill="none" stroke="#F05A28" stroke-width="1.1109" stroke-miterlimit="10" cx="154.069" cy="71.196" r="3.637"/>
									</g>
									<g>
										<path fill="none" stroke="#F05A28" stroke-width="1.1109" stroke-miterlimit="10" d="M160.1,69.718
											c-0.438-0.187-0.922-0.29-1.428-0.29c-0.438,0-0.857,0.079-1.248,0.221"/>
									</g>
									<g>
										<circle fill="none" stroke="#F05A28" stroke-width="1.1109" stroke-miterlimit="10" cx="163.276" cy="71.196" r="3.637"/>
									</g>
									
										<line fill="none" stroke="#F05A28" stroke-width="1.1109" stroke-miterlimit="10" x1="166.948" y1="69.996" x2="174.831" y2="69.996"/>
								</g>
							</g>
							<path fill="none" stroke="#F9A42D" stroke-width="1.7586" stroke-miterlimit="10" d="M173.809,73.927
								c0,6.039-4.895,10.935-10.934,10.935"/>
							<path fill="#2D2E35" d="M201.803,76.78l-0.004-0.021c-7.41-1.796-12.91-8.466-12.91-16.425c0-0.047,0-0.093,0.002-0.14
								l-0.031,0.018c0.012-0.027,0.021-0.059,0.033-0.087c0.002-0.236,0.006-0.472,0.02-0.705
								c-2.416-7.526-10.143-13.034-19.309-13.034c-8.918,0-16.475,5.211-19.1,12.423c0.82,2.779,2.367,5.292,4.439,7.373
								c-0.023-0.698-0.037-1.444-0.037-2.248l20.773,3.269c0,1.636-0.031,3.049-0.092,4.272c1.482-0.392,2.893-0.929,4.211-1.597
								v14.172c0,10.212,8.277,18.489,18.488,18.489l0,0c7.248,0,13.119-5.873,13.119-13.119
								C211.407,83.393,207.34,78.317,201.803,76.78z"/>
							<circle fill="#F9C03F" cx="178.702" cy="73.029" r="3.197"/>
							<path fill="none" stroke="#505050" stroke-width="1.3128" stroke-miterlimit="10" d="M187.375,79.188
								c-0.268,3.256,2.156,6.112,5.412,6.38"/>
							<path fill="none" stroke="#505050" stroke-width="1.3128" stroke-miterlimit="10" d="M185.317,87.42
								c-0.268,3.258,2.156,6.112,5.414,6.379"/>
							<path fill="none" stroke="#505050" stroke-width="1.3128" stroke-miterlimit="10" d="M197.893,83.075
								c-0.266,3.255,2.156,6.111,5.414,6.379"/>
							<path fill="none" stroke="#505050" stroke-width="1.3128" stroke-miterlimit="10" d="M194.692,89.706
								c-0.266,3.258,2.158,6.114,5.414,6.38"/>
							<path fill="none" stroke="#505050" stroke-width="1.3128" stroke-miterlimit="10" d="M155.407,54.822
								c-1.506,2.899-0.375,6.472,2.523,7.976"/>
							<path fill="none" stroke="#505050" stroke-width="1.3128" stroke-miterlimit="10" d="M162.252,55.576
								c-1.506,2.899-0.373,6.472,2.525,7.977"/>
							<path fill="none" stroke="#505050" stroke-width="1.3128" stroke-miterlimit="10" d="M169.209,56.55
								c-1.504,2.901-0.375,6.473,2.527,7.977"/>
						</g>
					</g>
				</g>
				<g>
					
						<line fill="none" stroke="#505050" stroke-width="2.1142" stroke-miterlimit="10" x1="138.369" y1="81.515" x2="118.507" y2="81.515"/>
					
						<line fill="none" stroke="#505050" stroke-width="2.1142" stroke-miterlimit="10" x1="138.369" y1="94.202" x2="80.449" y2="94.202"/>
					
						<line fill="none" stroke="#505050" stroke-width="2.1142" stroke-miterlimit="10" x1="138.369" y1="105.981" x2="80.449" y2="105.981"/>
				</g>
			</g>
			<g>
				<path fill="#AAA7AA" d="M163.507,158.792l-37.449-15.885c-5.693-2.418-7.963-2.619-13.922-0.963l-76.596,21.308
					c12.562,14.416,29.288,25.104,48.304,30.197l79.354-26.67C169.062,164.806,169.199,161.211,163.507,158.792z"/>
				<path fill="#2D2E35" d="M151.908,148.864c5.344,2.27,6.092,11.937,0.59,13.789L59.82,192.821
					c-5.502,1.854-10.928-0.306-15.662-3.665l-25.301-19.019c-4.734-3.36-4.031-14.008,3.545-15.364l83.287-21.52
					c3.609-1.753,5.736-1.564,11.08,0.705L151.908,148.864z"/>
				<path fill="none" stroke="#97A0A2" stroke-width="1.0608" stroke-miterlimit="10" d="M150.525,148.204
					c5.342,2.27,5.213,5.643-0.289,7.495l-87.654,29.459c-5.5,1.853-10.924-0.307-15.658-3.666l-25.498-18.095
					c-4.734-3.358-4.031-7.379,1.562-8.935l79.334-22.068c5.592-1.554,7.721-1.365,13.062,0.905L150.525,148.204z"/>
				<path fill="#505050" d="M150.525,148.204c5.342,2.27,5.213,5.643-0.289,7.495l-87.654,29.459
					c-5.5,1.853-10.924-0.307-15.658-3.666l-25.498-18.095c-4.734-3.358-4.031-7.379,1.562-8.935l79.334-22.068
					c5.592-1.554,7.721-1.365,13.062,0.905L150.525,148.204z"/>
				<g>
					<path fill="#EEEEEE" d="M81.147,176.6c-1.055,0-2.145-0.276-2.843-0.722l-36.311-23.165c-0.431-0.275-0.667-0.58-0.633-0.814
						c0.035-0.235,0.35-0.457,0.842-0.595l54.321-15.216c0.449-0.125,1.014-0.192,1.634-0.192c1.073,0,2.152,0.195,2.886,0.521
						l41.892,18.625c0.507,0.226,0.728,0.476,0.72,0.624c-0.007,0.147-0.25,0.376-0.777,0.553L82.544,176.4
						C82.153,176.531,81.67,176.6,81.147,176.6z"/>
					<path fill="#FFFFFF" d="M98.158,136.25L98.158,136.25c1.011,0,2.061,0.188,2.742,0.49l41.892,18.625
						c0.259,0.115,0.395,0.218,0.461,0.281c-0.073,0.058-0.217,0.146-0.486,0.236l-60.335,20.182
						c-0.355,0.119-0.8,0.182-1.285,0.182c-0.992,0-2.008-0.255-2.653-0.666l-36.31-23.165c-0.38-0.243-0.47-0.434-0.476-0.458
						c0.014-0.035,0.156-0.191,0.59-0.313l54.321-15.215C97.038,136.312,97.569,136.25,98.158,136.25 M98.158,135.542
						c-0.629,0-1.234,0.066-1.729,0.206l-54.321,15.215c-1.343,0.376-1.48,1.297-0.304,2.048l36.311,23.165
						c0.783,0.499,1.95,0.777,3.033,0.777c0.544,0,1.067-0.07,1.509-0.218l60.335-20.182c1.323-0.442,1.362-1.269,0.088-1.835
						l-41.892-18.625C100.383,135.736,99.234,135.542,98.158,135.542L98.158,135.542z"/>
				</g>
				<g>
					<path fill="#00BB68" d="M81.147,176.776c-1.087,0-2.213-0.287-2.938-0.75l-36.311-23.165c-0.499-0.318-0.759-0.679-0.713-0.989
						c0.046-0.311,0.399-0.579,0.97-0.739l5.829-1.634c0.366-0.103,0.792-0.154,1.265-0.154c1.153,0,2.398,0.319,3.172,0.814
						l35.711,22.783c0.501,0.319,0.765,0.694,0.723,1.029c-0.042,0.334-0.388,0.634-0.951,0.822l-5.304,1.773
						C82.191,176.704,81.688,176.776,81.147,176.776L81.147,176.776z"/>
					<path fill="#FFFFFF" d="M49.249,149.521c1.122,0,2.329,0.309,3.077,0.786l35.711,22.783c0.435,0.277,0.675,0.599,0.643,0.859
						c-0.032,0.26-0.343,0.513-0.832,0.677l-5.304,1.773c-0.391,0.131-0.874,0.199-1.397,0.199c-1.055,0-2.145-0.276-2.843-0.722
						l-36.31-23.165c-0.432-0.275-0.668-0.58-0.633-0.814c0.035-0.234,0.35-0.457,0.842-0.595l5.829-1.634
						C48.377,149.573,48.798,149.521,49.249,149.521 M49.249,149.168c-0.472,0-0.922,0.052-1.312,0.161l-5.829,1.634
						c-1.343,0.376-1.48,1.297-0.304,2.048l36.311,23.165c0.783,0.499,1.95,0.777,3.033,0.777c0.544,0,1.067-0.07,1.509-0.218
						l5.304-1.773c1.323-0.442,1.443-1.418,0.267-2.169L52.516,150.01C51.682,149.477,50.402,149.168,49.249,149.168L49.249,149.168
						z"/>
				</g>
				<g>
					<path fill="#BBB9BB" d="M69.221,147.773c-0.888-0.566-2.444-0.798-3.458-0.514l-4.4,1.232c-1.014,0.284-1.117,0.98-0.229,1.547
						l27.417,17.492c0.889,0.566,2.433,0.757,3.432,0.423l4.002-1.34c0.999-0.334,1.09-1.071,0.202-1.638L69.221,147.773z"/>
				</g>
				<g>
					<path fill="#F9C03F" d="M81.063,144.736c-0.888-0.566-2.444-0.798-3.458-0.514l-4.4,1.232c-1.014,0.284-1.117,0.98-0.229,1.547
						l27.416,17.492c0.887,0.566,2.431,0.757,3.43,0.423l4.006-1.34c0.999-0.334,1.09-1.071,0.202-1.638L81.063,144.736z"/>
				</g>
				
					<line opacity="0.2" fill="none" stroke="#FFFFFF" stroke-width="0.3536" stroke-miterlimit="10" x1="34.826" y1="151.221" x2="79.126" y2="179.484"/>
				
					<line fill="none" stroke="#2D2E35" stroke-width="1.4143" stroke-linecap="round" stroke-miterlimit="10" x1="118.902" y1="139.243" x2="130.3" y2="144.665"/>
				
					<line fill="none" stroke="#97A0A2" stroke-width="1.4143" stroke-linecap="round" stroke-miterlimit="10" x1="134.544" y1="165.035" x2="145.976" y2="161.542"/>
				
					<line fill="none" stroke="#97A0A2" stroke-width="1.7679" stroke-linecap="round" stroke-miterlimit="10" x1="29.527" y1="173.692" x2="36.732" y2="179.008"/>
				<ellipse opacity="0.15" fill="#65759D" cx="44.07" cy="167.585" rx="5.504" ry="3.344"/>
				<ellipse fill="#2D2E35" cx="43.638" cy="167.258" rx="5.479" ry="3.017"/>
				<ellipse fill="#00BB68" cx="106.559" cy="148.569" rx="11.204" ry="5.716"/>
				<path opacity="0.2" fill="#FFFFFF" d="M22.988,155.171l79.334-22.067c5.592-1.555,7.721-1.367,13.062,0.902l26.006,11.031"/>
			</g>
		</g>
	</g>
	<rect x="65.837" y="82.406" fill="#00B160" width="2.75" height="1.5"/>
	<rect x="145.869" y="61.484" fill="#00B160" width="1.516" height="2.734"/>
</g>
</svg>
