<?xml version="1.0" encoding="utf-8"?>
<!-- Generator: Adobe Illustrator 16.0.0, SVG Export Plug-In . SVG Version: 6.00 Build 0)  -->
<!DOCTYPE svg PUBLIC "-//W3C//DTD SVG 1.1//EN" "http://www.w3.org/Graphics/SVG/1.1/DTD/svg11.dtd">
<svg version="1.1" id="Layer_1" xmlns="http://www.w3.org/2000/svg" xmlns:xlink="http://www.w3.org/1999/xlink" x="0px" y="0px"
	 width="217px" height="207px" viewBox="0 0 217 207" enable-background="new 0 0 217 207" xml:space="preserve">
<g id="Capa_3">
</g>
<g id="Capa_1">
	<g>
		<circle fill="#BBB9BB" cx="104.537" cy="107.408" r="97.61"/>
		<g>
			<g>
				<path fill="#C75D6F" d="M205.986,136.154c-9.373,0-16.971,7.6-16.971,16.971v44.555c0,2.436,0.518,4.748,1.441,6.842
					c-20.902,0-52.796,0-56.646,0c0.062-52.219,1.293-54.74,1.398-77.381c-0.045-0.939-0.068-1.888-0.068-2.843
					c0-23.376,35.938-35.116,35.938-35.116s41.646,5.95,41.646,35.116c0,4.117-0.584,8.097-1.664,11.856H205.986L205.986,136.154z"
					/>
				<g>
					<g>
						<defs>
							<path id="SVGID_1_" d="M190.458,204.521c-20.901,0-52.796,0-56.646,0c0.061-52.219,1.291-54.74,1.397-77.381
								c-0.045-0.939-0.069-1.888-0.069-2.843c0-12.049,9.549-21.005,18.801-26.857c3.035,5.505,9.746,9.334,17.543,9.334
								c8.926,0,16.431-5.015,18.625-11.82c10.972,4.992,22.615,13.922,22.615,29.344c0,4.117-0.584,8.096-1.664,11.857h-5.074
								c-9.373,0-16.971,7.599-16.971,16.97v44.554C189.016,200.113,189.533,202.428,190.458,204.521z"/>
						</defs>
						<clipPath id="SVGID_2_">
							<use xlink:href="#SVGID_1_"  overflow="visible"/>
						</clipPath>
						<g clip-path="url(#SVGID_2_)">
							<rect x="131.361" y="128.119" opacity="0.2" fill="#2C2E30" enable-background="new    " width="84.951" height="12.027"/>
							<rect x="131.361" y="150.984" opacity="0.2" fill="#2C2E30" enable-background="new    " width="84.951" height="12.027"/>
							<rect x="131.361" y="173.85" opacity="0.2" fill="#2C2E30" enable-background="new    " width="84.951" height="12.027"/>
							<rect x="131.361" y="105.253" opacity="0.2" fill="#2C2E30" enable-background="new    " width="84.951" height="12.026"/>
						</g>
					</g>
				</g>
				<path fill="none" stroke="#E7E7E7" stroke-width="4.3788" stroke-miterlimit="10" d="M153.801,97.437
					c2.909,5.082,9.657,8.644,17.52,8.644c9.279,0,17.007-4.964,18.701-11.531"/>
				<path fill="#F9C03F" d="M134.352,62.011c0.172-0.541,5.625-16.474,7.416-21.706l-0.365-6.14c0,0,13.924,4.745,18.675,6.522
					c0.205,0.078,0.399,0.16,0.589,0.244h6.309c9.371,0,16.969,7.596,16.969,16.968v13.79v2.742v17.162l1.369,0.582l4.711,2.373
					c-1.695,6.567-9.422,11.531-18.701,11.531c-7.862,0-14.61-3.562-17.521-8.644c0,0-0.043-0.067-0.063-0.137
					c2.229-0.88,3.812-3.051,3.812-5.593c0-3.118-2.596-4.77-5.407-5.983c-6.496-2.382-11.129-8.617-11.129-15.936l0.139-2.88
					c-1.723,1.267-4.16,1.126-5.719-0.434C134.225,65.266,133.863,63.533,134.352,62.011z"/>
				<path fill="#249CF2" d="M189.016,185.852v11.828c0,2.436,0.519,4.748,1.442,6.842c-20.901,0-52.796,0-56.646,0
					c0.008-6.357,0.031-11.975,0.07-18.67H189.016z"/>
				<rect x="134.051" y="187.257" fill="#505050" width="55.504" height="6.938"/>
				<path fill="#F07E35" d="M141.085,190.822c0,2.395-1.94,4.336-4.337,4.336h-2.074c-2.395,0-2.693-1.941-2.693-4.336l0,0
					c0-2.396,0.301-4.336,2.693-4.336h2.074C139.145,186.486,141.085,188.428,141.085,190.822L141.085,190.822z"/>
				<rect x="184.611" y="186.832" fill="#249CF2" width="2.214" height="7.96"/>
				<rect x="146.758" y="186.832" fill="#249CF2" width="2.213" height="7.96"/>
				<path opacity="0.2" fill="#4B4C4F" enable-background="new    " d="M190.458,204.521c-4.892,0-10.386,0-15.981,0
					c-0.576-1.705-0.891-3.525-0.891-5.424v-44.556c0-9.371,7.598-16.968,16.969-16.968h8.639
					c-5.988,2.617-10.178,8.594-10.178,15.551v44.555C189.016,200.113,189.533,202.428,190.458,204.521z"/>
				<path opacity="0.2" fill="#8B8B90" enable-background="new    " d="M170.66,76.306c0.104-0.323,0.184-0.815,0.25-1.438
					c0.035,1.38,0.055,2.922,0.055,4.652c0,5.432-4.27,9.834-10.361,9.834c-1.531,0-2.987-0.277-4.312-0.778
					C163.021,87.961,168.596,84.841,170.66,76.306z"/>
				<path fill="#2D2E35" d="M139.543,34.956c-4.734,0-8.57-3.837-8.57-8.57c0-3.733,2.389-6.905,5.717-8.081
					c-0.432-1.026-0.674-2.155-0.674-3.34c0-4.734,3.836-8.57,8.569-8.57c1.735,0,3.351,0.518,4.699,1.404
					c1.147-3.382,4.349-5.816,8.114-5.816c3.386,0,6.312,1.963,7.705,4.812c1.473-1.193,3.348-1.911,5.394-1.911
					c4.731,0,8.569,3.837,8.569,8.57c0,0.391-0.028,0.774-0.08,1.151c0.902-0.355,1.883-0.554,2.91-0.554
					c4.385,0,7.937,3.552,7.937,7.934c0,1.255-0.294,2.441-0.813,3.497c0.303-0.036,0.607-0.056,0.918-0.056
					c4.383,0,7.936,3.552,7.936,7.933c0,2.301-0.979,4.371-2.542,5.819c2.079,1.43,3.446,3.826,3.446,6.542
					c0,3.734-2.58,6.863-6.055,7.707c-0.074,4.319-3.596,7.8-7.93,7.8c-3.971,0-7.26-2.915-7.842-6.721
					c1.339-0.726,2.25-2.144,2.25-3.773c0-2.369-1.92-4.288-4.287-4.288c-2.368,0-4.29,1.919-4.29,4.288
					c0,0.299,1.108,22.168,0.036,25.573c-2.336,9.669-9.18,12.39-17.104,12.39c-8.279,0-16.548-2.237-16.152-14.21
					c-0.357-3.181,0.293-5.313,1.594-6.744c0.977-0.101,1.924-0.521,2.668-1.267l0.794-0.794c3.254-1.013,7.517-0.627,11.431-0.812
					c3.795-0.18,7.635-3.616,10.678-4.763c0,0,3.16-16.556-4.49-19.418c-4.751-1.777-18.674-6.522-18.674-6.522l0.041,0.575
					C140.832,34.88,140.197,34.956,139.543,34.956z"/>
				<path opacity="0.2" fill="#8B8B90" enable-background="new    " d="M164.566,60.105c-1.569,0.593-3.353,1.841-5.229,2.912
					c1.716-4.698,3.89-17.346-1.052-20.638c-3.125-2.085-10.495-5.974-15.85-7.814l-0.022-0.056
					c3.282,1.123,13.687,4.69,17.663,6.178C167.729,43.55,164.566,60.105,164.566,60.105z"/>
				<path fill="none" stroke="#F9C03F" stroke-width="18.5259" stroke-miterlimit="10" d="M150.456,168.491h22.09
					c14.837,0,26.864-12.028,26.864-26.866v-4.072"/>
				
					<line fill="none" stroke="#FFFFFF" stroke-width="3.8674" stroke-linecap="round" stroke-miterlimit="10" x1="211.4" y1="137.303" x2="189.684" y2="137.303"/>
				<path fill="#F9C03F" d="M169.582,159.219c0,10.246-8.305,18.553-18.549,18.553c-10.245,0-18.551-8.307-18.551-18.553"/>
			</g>
			<path fill="none" stroke="#505050" stroke-width="2.3578" stroke-miterlimit="10" d="M150.418,75.69
				c5.359,0,10.049-2.877,12.605-7.171"/>
			<path fill="none" stroke="#505050" stroke-width="2.3578" stroke-miterlimit="10" d="M185.218,37.966
				c0.302-5.353-2.306-10.195-6.448-12.989"/>
			<circle fill="#2D2E35" cx="147.648" cy="50.333" r="3.011"/>
			<circle fill="#2D2E35" cx="62.61" cy="74.383" r="18.552"/>
			<g>
				<path fill="#F05835" d="M19.294,204.521c6.048-2.791,10.248-8.902,10.248-16v-38.06c0-9.729-7.888-17.614-17.616-17.614H9.113
					v-10.232c0,0,46.033-11.202,61.535,0c0.025,9.9,5.919,0.396,3.793,7.857c-3.24,11.369,1.251,41.161,14.514,74.049
					C84.342,204.521,39.76,204.521,19.294,204.521z"/>
				<ellipse fill="#F9C03F" cx="72.007" cy="158.172" rx="3.778" ry="3.675"/>
				<path fill="#F05835" d="M65.781,93.704c-9.068-5.758-17.616-8.925-17.616-8.925S4.931,96.967,4.931,121.234
					c0,4.867,0.778,9.547,2.214,13.92c0.156,0.468,0.325,0.898,0.504,1.308h7.85v4.874c10.292-0.456,27.038-13.66,40.936-13.66
					c4.479,9.561,33.424,6.553,34.449-16.436C82.472,102.642,75.267,104.501,65.781,93.704z"/>
				<g>
					<g>
						<g>
							<path fill="#5D405F" d="M74.896,185.384c0,0.671-0.545,1.216-1.214,1.216h-3.356c-0.671,0-1.216-0.545-1.216-1.216l0,0
								c0-0.67,0.545-1.215,1.216-1.215h3.356C74.351,184.169,74.896,184.714,74.896,185.384L74.896,185.384z"/>
							<path fill="#5D405F" d="M98.273,185.384c0,0.671-0.545,1.216-1.214,1.216h-3.358c-0.67,0-1.214-0.545-1.214-1.216l0,0
								c0-0.67,0.544-1.215,1.214-1.215h3.358C97.729,184.169,98.273,184.714,98.273,185.384L98.273,185.384z"/>
						</g>
						<path fill="#249CF2" d="M68.285,164.311c0.363-1.453,1.885-2.645,3.384-2.645h24.427c1.5,0,3.004,1.193,3.342,2.654
							l4.228,18.217c0.337,1.461-0.612,2.656-2.11,2.656H65.829c-1.5,0-2.43-1.191-2.069-2.646L68.285,164.311z"/>
						<path opacity="0.2" fill="#8B8B90" enable-background="new    " d="M75.211,161.666h-3.542c-1.499,0-3.021,1.189-3.384,2.645
							l-4.525,18.237c-0.36,1.454,0.569,2.646,2.069,2.646h18.402L75.211,161.666z"/>
						<path fill="#4B334D" d="M103.665,182.537l-0.132-0.564l-39.717,0.344l-0.057,0.231c-0.36,1.454,0.569,2.646,2.069,2.646
							h35.726C103.053,185.193,104.002,183.998,103.665,182.537z"/>
						<path fill="#F5F5F5" d="M106.936,106.613h-4.91c-0.104-0.02-0.217-0.031-0.329-0.031l-35.779-0.113l-1.965-0.003l6.311,40.431
							c0.169,1.084,0.928,2.625,1.681,3.422l2.096,2.218c0.755,0.797,1.375,1.713,1.381,2.03c0.006,0.32,0.01,0.58,0.01,0.58
							l17.096-0.006c0,0,0.004-0.228,0.011-0.504c0.006-0.277,0.634-1.148,1.399-1.938l1.842-1.896
							c0.766-0.789,1.525-2.32,1.692-3.406l5.028-32.608L106.936,106.613z"/>
						<g>
							<path fill="#FFFFFF" d="M98.406,106.582c0.115,0,0.225,0.012,0.33,0.031h3.289c-0.104-0.02-0.217-0.031-0.329-0.031
								l-35.779-0.113l-1.965-0.003v0.007L98.406,106.582z"/>
							<path fill="#FFFFFF" d="M102.002,106.613l-4.438,8.174l-3.386,32.607c-0.165,1.086-0.925,2.619-1.689,3.406l-1.845,1.896
								c-0.762,0.789-1.395,1.66-1.398,1.938c-0.005,0.277-0.01,0.506-0.01,0.506l-13.807,0.004v0.002l17.096-0.006
								c0,0,0.004-0.229,0.011-0.506c0.006-0.277,0.634-1.148,1.399-1.937l1.842-1.897c0.766-0.787,1.525-2.32,1.692-3.406
								l5.028-32.607l4.438-8.174H102.002L102.002,106.613z"/>
						</g>
						<path opacity="0.2" fill="#8B8B90" enable-background="new    " d="M75.422,154.66c0.004,0.273,0.008,0.486,0.008,0.486
							l17.096-0.006c0,0,0.004-0.216,0.011-0.48H75.422z"/>
						<path fill="#4B334D" d="M92.945,159.463c0,0.314-0.254,0.57-0.567,0.57H75.006c-0.316,0-0.57-0.256-0.57-0.57v-3.752
							c0-0.314,0.254-0.57,0.57-0.57h17.372c0.313,0,0.567,0.256,0.567,0.57V159.463z"/>
						<path fill="#4E3150" d="M65.217,108.156l-0.353-1.801c0-0.953,0.774-1.727,1.728-1.727h35.601
							c0.952,0,1.726,0.773,1.726,1.727l-1.05,1.801"/>
						<polygon fill="#5B405F" points="65.004,106.466 65.267,108.156 103.608,108.156 103.781,106.613 						"/>
						<path fill="#4BC6F2" d="M90.127,103.545c0,0.938-0.762,1.697-1.696,1.697h-8.076c-0.938,0-1.697-0.762-1.697-1.697l0,0
							c0-0.937,0.76-1.696,1.697-1.696h8.076C89.365,101.849,90.127,102.608,90.127,103.545L90.127,103.545z"/>
						<path fill="#4E3150" d="M99.958,104.598c0,0.455-0.366,0.819-0.818,0.819H69.645c-0.452,0-0.818-0.364-0.818-0.819l0,0
							c0-0.451,0.366-0.818,0.818-0.818H99.14C99.592,103.779,99.958,104.146,99.958,104.598L99.958,104.598z"/>
						<path fill="#249CF2" d="M68.935,138.389l-6.415-2.431c-0.329-0.165-0.775-0.819-0.809-1.188l-2.768-19.27
							c0-0.081,0.112-0.241,0.184-0.268l5.951-1.535l-0.65-4.172l-6.35,1.637c-2.051,0.529-3.511,2.598-3.323,4.708l2.77,19.272
							c0.164,1.828,1.474,3.752,3.115,4.573l9.31,5.169L68.935,138.389z"/>
						<path fill="#4B334D" d="M96.815,175.525c0,0.953-0.773,1.728-1.729,1.728H72.295c-0.953,0-1.728-0.774-1.728-1.728l0.7-3.727
							c0-0.955,0.775-1.729,1.727-1.729h21.394c0.954,0,1.726,0.772,1.726,1.729L96.815,175.525z"/>
						<g>
							<g>
								<path fill="#F05A28" d="M75.635,174.801c0,0.581-0.469,1.051-1.05,1.051l0,0c-0.58,0-1.052-0.47-1.052-1.051v-2.277
									c0-0.58,0.472-1.051,1.052-1.051l0,0c0.581,0,1.05,0.471,1.05,1.051V174.801z"/>
								<path fill="#F05A28" d="M79.489,174.801c0,0.581-0.471,1.051-1.051,1.051l0,0c-0.581,0-1.051-0.47-1.051-1.051v-2.277
									c0-0.58,0.47-1.051,1.051-1.051l0,0c0.58,0,1.051,0.471,1.051,1.051V174.801z"/>
								<path fill="#F05A28" d="M83.342,174.801c0,0.581-0.473,1.051-1.052,1.051l0,0c-0.579,0-1.052-0.47-1.052-1.051v-2.277
									c0-0.58,0.473-1.051,1.052-1.051l0,0c0.579,0,1.052,0.471,1.052,1.051V174.801z"/>
								<path fill="#F05A28" d="M87.193,174.801c0,0.581-0.469,1.051-1.051,1.051l0,0c-0.579,0-1.051-0.47-1.051-1.051v-2.277
									c0-0.58,0.472-1.051,1.051-1.051l0,0c0.582,0,1.051,0.471,1.051,1.051V174.801z"/>
							</g>
							<circle fill="#F9A42D" cx="91.574" cy="173.751" r="2.276"/>
						</g>
						<g>
							<rect x="75.29" y="164.116" fill="#7BC3F7" width="0.962" height="4.379"/>
							<rect x="77.268" y="164.116" fill="#7BC3F7" width="0.965" height="4.379"/>
							<rect x="79.25" y="164.116" fill="#7BC3F7" width="0.961" height="4.379"/>
							<rect x="81.231" y="164.116" fill="#7BC3F7" width="0.961" height="4.379"/>
							<rect x="83.211" y="164.116" fill="#7BC3F7" width="0.963" height="4.379"/>
							<rect x="85.19" y="164.116" fill="#7BC3F7" width="0.962" height="4.379"/>
							<rect x="87.174" y="164.116" fill="#7BC3F7" width="0.961" height="4.379"/>
							<rect x="89.151" y="164.116" fill="#7BC3F7" width="0.962" height="4.379"/>
							<rect x="91.133" y="164.116" fill="#7BC3F7" width="0.961" height="4.379"/>
						</g>
						<rect x="74.436" y="156.322" opacity="0.2" fill="#8B8B90" enable-background="new    " width="18.51" height="0.699"/>
						<path fill="#4B334D" d="M96.109,161.346c0,0.313-0.253,0.57-0.567,0.57h-23.7c-0.313,0-0.571-0.257-0.571-0.57v-3.754
							c0-0.314,0.258-0.568,0.571-0.568h23.7c0.314,0,0.567,0.254,0.567,0.568V161.346z"/>
						<path opacity="0.2" fill="#8B8B90" enable-background="new    " d="M63.816,182.314l-0.057,0.232
							c-0.36,1.454,0.569,2.646,2.069,2.646h21.906l-0.828-3.047L63.816,182.314z"/>
					</g>
					<path opacity="0.2" fill="#8B8B90" enable-background="new    " d="M80.501,154.564c-0.007-0.316-0.627-1.232-1.381-2.029
						l-2.098-2.219c-0.755-0.797-1.511-2.338-1.68-3.42l-5.178-40.414l-4.248-0.016l-1.965-0.002l6.311,40.432
						c0.169,1.082,0.928,2.623,1.681,3.42l2.096,2.219c0.755,0.797,1.375,1.713,1.381,2.029c0.006,0.32,0.01,0.582,0.01,0.582
						l5.081-0.002C80.511,155.132,80.508,154.878,80.501,154.564z"/>
					<g opacity="0.2">
						<polygon fill="#8B8B90" points="62.638,114.33 65.078,113.699 64.428,109.527 61.987,110.156 						"/>
						<polygon fill="#8B8B90" points="68.935,138.389 66.232,137.363 67.166,143.344 69.949,144.887 						"/>
					</g>
					<path opacity="0.2" fill="#8B8B90" enable-background="new    " d="M85.998,148.436c0,1.102-0.891,1.994-1.994,1.994h-0.525
						c-1.102,0-1.996-0.894-1.996-1.994v-33.838c0-1.102,0.895-1.996,1.996-1.996h0.525c1.104,0,1.994,0.896,1.994,1.996V148.436z"
						/>
					<g>
						<rect x="83.521" y="145.531" fill="#F5F5F5" width="2.564" height="0.962"/>
						<rect x="83.521" y="141.906" fill="#F5F5F5" width="2.564" height="0.962"/>
						<rect x="83.521" y="138.281" fill="#F5F5F5" width="2.564" height="0.962"/>
						<rect x="83.521" y="134.656" fill="#F5F5F5" width="2.564" height="0.962"/>
						<rect x="83.521" y="131.031" fill="#F5F5F5" width="2.564" height="0.961"/>
						<rect x="83.521" y="127.406" fill="#F5F5F5" width="2.564" height="0.962"/>
						<rect x="83.521" y="123.781" fill="#F5F5F5" width="2.564" height="0.962"/>
						<rect x="83.521" y="120.156" fill="#F5F5F5" width="2.564" height="0.962"/>
						<rect x="83.521" y="116.531" fill="#F5F5F5" width="2.564" height="0.961"/>
					</g>
				</g>
				<g>
					<path opacity="0.2" fill="#646569" enable-background="new    " d="M19.299,204.52c0.184-0.084,0.366-0.174,0.545-0.265
						c0.011-0.005,0.021-0.011,0.034-0.017c0.536-0.271,1.057-0.57,1.561-0.895c0.019-0.013,0.037-0.023,0.055-0.035
						c0.167-0.107,0.329-0.218,0.491-0.33l0,0c0.489-0.342,0.96-0.707,1.411-1.094c0.035-0.029,0.071-0.062,0.106-0.092
						c0.412-0.361,0.81-0.74,1.187-1.139c0.042-0.045,0.084-0.086,0.123-0.129c0.112-0.117,0.218-0.236,0.323-0.357
						c0.055-0.061,0.106-0.12,0.156-0.182c0.329-0.379,0.636-0.771,0.928-1.178c0.064-0.086,0.127-0.174,0.188-0.263
						c0.076-0.11,0.153-0.221,0.227-0.333c0.068-0.104,0.135-0.209,0.201-0.314c0.09-0.143,0.178-0.283,0.262-0.428
						c0.088-0.148,0.176-0.3,0.261-0.451c0.054-0.099,0.106-0.199,0.159-0.299c0.066-0.127,0.133-0.256,0.195-0.385
						c0.049-0.098,0.097-0.193,0.145-0.291c0.089-0.188,0.174-0.378,0.258-0.57c0.034-0.08,0.069-0.164,0.104-0.248
						c0.073-0.177,0.144-0.354,0.21-0.535c0.034-0.09,0.064-0.178,0.099-0.269c0.06-0.166,0.117-0.333,0.17-0.501
						c0.023-0.078,0.051-0.154,0.075-0.234c0.072-0.237,0.142-0.479,0.202-0.721c0.018-0.062,0.035-0.127,0.049-0.189
						c0.047-0.192,0.092-0.387,0.133-0.582c0.02-0.082,0.034-0.163,0.052-0.245c0.043-0.209,0.078-0.418,0.11-0.63
						c0.01-0.051,0.021-0.102,0.027-0.15c0.039-0.258,0.07-0.52,0.1-0.779c0.006-0.07,0.012-0.143,0.019-0.213
						c0.019-0.201,0.034-0.406,0.046-0.613c0.006-0.078,0.011-0.154,0.012-0.231c0.014-0.271,0.022-0.54,0.022-0.812v-38.06
						l-10.413-17.819l10.413,0.002c8.979,0.808,16.021,8.352,16.021,17.541v46.258c0,2.912-0.713,5.658-1.965,8.078
						c-9.153,0-17.906,0-24.305,0L19.299,204.52z"/>
				</g>
				<path fill="none" stroke="#FFFFFF" stroke-width="3.1472" stroke-linecap="round" stroke-miterlimit="10" d="M65.78,93.701
					c-3.044,5.24-9.738,8.619-17.866,8.619c-9.637,0-17.655-5.15-19.416-11.969"/>
				<path fill="#F9C03F" d="M33.392,87.537l1.419-0.254V69.466v-2.847V52.302c0-9.729,7.887-17.615,17.617-17.615h9.335
					c9.729,0,17.614-8.659,17.614,1.071v28.888c0,7.598-4.809,14.071-11.551,16.542c-3.001,1.115-5.611,2.978-5.611,6.213
					c0,1.696,0.95,3.156,1.831,4.265c0.921,1.164,1.739,2.025,1.734,2.036c-3.044,5.24-9.738,8.619-17.866,8.619
					c-9.637,0-17.655-5.15-19.416-11.969L33.392,87.537z"/>
				<circle opacity="0.2" fill="#8B8B90" enable-background="new    " cx="31.362" cy="68.529" r="16.829"/>
				<path fill="none" stroke="#F9C03F" stroke-width="19.2331" stroke-miterlimit="10" d="M69.574,168.166h-22.93
					c-15.406,0-27.895-12.488-27.895-27.893v-4.228"/>
				
					<line fill="none" stroke="#FFFFFF" stroke-width="4.015" stroke-miterlimit="10" x1="4.203" y1="134.734" x2="28.848" y2="134.734"/>
				<path fill="#F9C03F" d="M49.326,158.9c0,10.629,8.619,19.25,19.248,19.25c10.634,0,19.251-8.621,19.251-19.25"/>
			</g>
			<g>
				<g>
					<g>
						<circle fill="none" stroke="#F05A28" stroke-width="1.7485" stroke-miterlimit="10" cx="80.496" cy="51.754" r="5.061"/>
					</g>
					<g>
						<path fill="none" stroke="#F05A28" stroke-width="1.7485" stroke-miterlimit="10" d="M72.105,49.696
							c0.611-0.26,1.28-0.403,1.986-0.403c0.608,0,1.193,0.107,1.737,0.307"/>
					</g>
					<g>
						<circle fill="none" stroke="#F05A28" stroke-width="1.7485" stroke-miterlimit="10" cx="67.682" cy="51.754" r="5.062"/>
					</g>
					
						<line fill="none" stroke="#F05A28" stroke-width="1.7485" stroke-miterlimit="10" x1="62.573" y1="50.083" x2="51.603" y2="50.083"/>
				</g>
			</g>
			<path fill="none" stroke="#F9A42D" stroke-width="2.4478" stroke-miterlimit="10" d="M53.022,55.554
				c0,8.406,6.812,15.22,15.216,15.22"/>
			<path fill="#2D2E35" d="M14.058,59.526l0.006-0.029c10.312-2.499,17.97-11.784,17.97-22.862c0-0.064-0.004-0.128-0.005-0.192
				l0.046,0.023c-0.016-0.039-0.032-0.08-0.049-0.12c-0.003-0.329-0.01-0.657-0.024-0.983c3.359-10.476,14.115-18.142,26.872-18.142
				c12.412,0,22.932,7.253,26.59,17.293c-1.146,3.867-3.297,7.365-6.182,10.262c0.034-0.973,0.051-2.012,0.051-3.131l-28.915,4.55
				c0,2.277,0.045,4.246,0.126,5.946c-0.18-0.048-0.355-0.106-0.535-0.156c-0.784-1.277-2.188-2.133-3.795-2.133
				c-0.442,0-0.869,0.068-1.272,0.188c-0.084-0.041-0.171-0.078-0.254-0.119v0.206c-1.707,0.624-2.927,2.257-2.927,4.178
				s1.22,3.553,2.927,4.178v11.166c0,14.213-11.522,25.735-25.737,25.735H18.95c-10.085,0-18.26-8.177-18.26-18.263
				C0.688,68.729,6.348,61.665,14.058,59.526z"/>
			<path fill="none" stroke="#505050" stroke-width="1.8273" stroke-miterlimit="10" d="M34.141,62.876
				c0.371,4.534-3.002,8.51-7.536,8.88"/>
			<path fill="none" stroke="#505050" stroke-width="1.8273" stroke-miterlimit="10" d="M37.005,74.336
				c0.372,4.532-3.003,8.509-7.533,8.88"/>
			<path fill="none" stroke="#505050" stroke-width="1.8273" stroke-miterlimit="10" d="M19.497,68.288
				c0.372,4.533-3.003,8.508-7.532,8.88"/>
			<path fill="none" stroke="#505050" stroke-width="1.8273" stroke-miterlimit="10" d="M23.953,77.519
				c0.372,4.533-3.001,8.509-7.532,8.881"/>
			<path fill="none" stroke="#505050" stroke-width="1.8273" stroke-miterlimit="10" d="M78.639,28.962
				c2.094,4.038,0.52,9.009-3.516,11.104"/>
			<path fill="none" stroke="#505050" stroke-width="1.8273" stroke-miterlimit="10" d="M69.105,30.012
				c2.096,4.036,0.521,9.009-3.514,11.104"/>
			<path fill="none" stroke="#505050" stroke-width="1.8273" stroke-miterlimit="10" d="M59.426,31.367
				c2.094,4.038,0.519,9.008-3.517,11.103"/>
			<g>
				<path fill="#505050" d="M130.318,149.45l2.359,15.354c0,1.436,1.096,2.531,2.527,2.531h15.182c1.432,0,2.529-1.098,2.529-2.531
					l2.359-15.354H130.318z"/>
				<g>
					<path fill="#006D3D" d="M136.585,112.163c0,3.683,2.985,6.667,6.67,6.667c3.681,0,6.667-2.984,6.667-6.667
						s-6.667-12.533-6.667-12.533S136.585,108.48,136.585,112.163z"/>
					<g>
						<path fill="#006D3D" d="M128.509,127.178c2.538,0.678,5.148-0.826,5.825-3.365c0.682-2.539-0.825-5.147-3.367-5.828
							c-2.535-0.68-9.867,2.283-9.867,2.283S125.967,126.498,128.509,127.178z"/>
					</g>
					<g>
						<path fill="#006D3D" d="M156.453,127.178c-2.54,0.678-5.15-0.826-5.827-3.365c-0.681-2.539,0.826-5.147,3.364-5.828
							c2.539-0.68,9.869,2.283,9.869,2.283S158.99,126.498,156.453,127.178z"/>
					</g>
					
						<line fill="none" stroke="#00BB68" stroke-width="1.3988" stroke-linecap="round" stroke-miterlimit="10" x1="143.105" y1="112.469" x2="143.105" y2="149.247"/>
					<path fill="none" stroke="#00BB68" stroke-width="1.3988" stroke-linecap="round" stroke-miterlimit="10" d="M156.898,122.341
						c0,0-10.363,0.79-13.59,8.736"/>
					<path fill="none" stroke="#00BB68" stroke-width="1.3988" stroke-linecap="round" stroke-miterlimit="10" d="M129.146,122.341
						c0,0,10.363,0.79,13.588,8.736"/>
					<g>
						<path fill="#006D3D" d="M132.288,137.525c1.853,0.496,3.755-0.604,4.25-2.455c0.494-1.854-0.604-3.756-2.456-4.252
							s-7.197,1.666-7.197,1.666S130.436,137.029,132.288,137.525z"/>
					</g>
					<g>
						<path fill="#006D3D" d="M152.674,137.525c-1.854,0.496-3.757-0.604-4.253-2.455c-0.495-1.854,0.604-3.756,2.454-4.252
							c1.854-0.496,7.199,1.666,7.199,1.666S154.521,137.029,152.674,137.525z"/>
					</g>
					<path fill="none" stroke="#00BB68" stroke-width="1.3988" stroke-linecap="round" stroke-miterlimit="10" d="M152.998,133.998
						c0,0-7.561,0.574-9.912,6.372"/>
					<path fill="none" stroke="#00BB68" stroke-width="1.3988" stroke-linecap="round" stroke-miterlimit="10" d="M132.755,133.998
						c0,0,7.558,0.574,9.911,6.372"/>
				</g>
			</g>
			<ellipse fill="#F9C03F" cx="154.545" cy="161.959" rx="3.641" ry="3.186"/>
			<g>
				<polygon fill="#F05A28" points="125.467,160.852 132.818,163.17 136.413,151.775 133.666,147.675 129.062,149.458 				"/>
				
					<line fill="none" stroke="#FFFFFF" stroke-width="1.0105" stroke-miterlimit="10" x1="134.135" y1="154.693" x2="129.284" y2="153.137"/>
				
					<line fill="none" stroke="#FFFFFF" stroke-width="1.0105" stroke-miterlimit="10" x1="133.465" y1="156.715" x2="128.609" y2="155.156"/>
				
					<line fill="none" stroke="#FFFFFF" stroke-width="1.0105" stroke-miterlimit="10" x1="132.846" y1="158.623" x2="130.021" y2="157.719"/>
				<path fill="none" stroke="#505050" stroke-width="1.3473" stroke-linecap="round" stroke-miterlimit="10" d="M132.973,149.812
					c0,0,3.012-6.221,10.402-0.235"/>
			</g>
			<path opacity="0.2" fill="#8B8B90" enable-background="new    " d="M183.941,61.176v2.633c-0.039,0-0.08,0.005-0.117,0.005
				c-3.828,0-6.932-3.27-6.932-7.301c0-0.524,0.055-1.035,0.155-1.527C177.764,58.282,180.527,60.812,183.941,61.176z"/>
			<path fill="#F9C03F" d="M91.871,154.001c-0.443,1.772,0.839,3.618,2.864,4.124c2.024,0.506,2.434-1.253,2.877-3.023
				c0.442-1.772,0.749-2.886-1.273-3.391C94.314,151.205,92.315,152.229,91.871,154.001z"/>
			<path fill="#F9C03F" d="M93.299,148.514c-0.442,1.771,0.839,3.617,2.863,4.123c2.021,0.506,2.433-1.253,2.876-3.025
				c0.442-1.771,0.752-2.883-1.271-3.389C95.741,145.716,93.74,146.742,93.299,148.514z"/>
			<path fill="#F9C03F" d="M95.155,143.227c-0.442,1.771,0.839,3.617,2.864,4.121c2.023,0.508,2.434-1.254,2.876-3.023
				c0.443-1.771,0.751-2.885-1.272-3.391C97.599,140.43,95.598,141.453,95.155,143.227z"/>
		</g>
	</g>
</g>
<g id="Capa_4">
</g>
<g id="Capa_6" display="none">
</g>
<g id="_x31_" display="none">
</g>
<g id="pop_up_FB" display="none">
</g>
<g id="_x32_" display="none">
</g>
<g id="_x33_" display="none">
</g>
<g id="_x33__ok" display="none">
</g>
<g id="DENEGADA" display="none">
</g>
<g id="Lista_de_espera" display="none">
</g>
</svg>
