<?xml version="1.0" encoding="utf-8"?>
<!-- Generator: Adobe Illustrator 16.0.0, SVG Export Plug-In . SVG Version: 6.00 Build 0)  -->
<!DOCTYPE svg PUBLIC "-//W3C//DTD SVG 1.1//EN" "http://www.w3.org/Graphics/SVG/1.1/DTD/svg11.dtd">
<svg version="1.1" id="Capa_1" xmlns="http://www.w3.org/2000/svg" xmlns:xlink="http://www.w3.org/1999/xlink" x="0px" y="0px"
	 width="283.464px" height="680.315px" viewBox="0 0 283.464 680.315" enable-background="new 0 0 283.464 680.315"
	 xml:space="preserve">
<g>
	<circle fill="#BBB9BB" cx="141.731" cy="156.306" r="140.224"/>
	<g>
		<g>
			<path fill="#FFFFFF" d="M216.519,106.06c-5.259,2.921-11.686,4.674-17.528,5.259c6.427-4.09,11.101-10.517,13.438-18.112
				c-5.844,3.505-12.271,6.427-19.865,8.18c-5.843-6.427-13.438-10.517-22.202-10.517c-16.944,0-30.967,14.607-30.967,33.303
				c0,2.337,0,5.259,0.585,7.596c-25.708-1.169-48.494-14.607-63.686-34.472c-2.921,4.674-4.09,10.517-4.09,16.943
				c0,11.686,5.259,21.618,13.438,27.461c-5.259,0-9.933-1.753-14.022-4.09v0.584c0,15.775,10.517,29.213,24.539,32.719
				c-2.337,0.585-5.259,1.169-8.18,1.169c-1.753,0-4.09,0-5.843-0.584c4.09,13.438,15.19,22.786,28.629,22.786
				c-10.517,8.764-23.955,14.022-37.978,14.022c-2.337,0-4.674,0-7.595-0.584c13.438,9.348,29.797,15.19,47.325,15.19
				c56.674,0,87.64-50.247,87.64-94.067c0-1.168,0-2.921,0-4.09C207.17,118.914,212.429,113.071,216.519,106.06z"/>
		</g>
	</g>
	<circle fill="#1CB7EB" cx="141.731" cy="524.009" r="140.224"/>
	<g>
		<g>
			<path fill="#FFFFFF" d="M216.519,473.762c-5.259,2.921-11.686,4.674-17.528,5.259c6.427-4.09,11.101-10.517,13.438-18.112
				c-5.844,3.505-12.271,6.427-19.865,8.18c-5.843-6.427-13.438-10.517-22.202-10.517c-16.944,0-30.967,14.607-30.967,33.303
				c0,2.337,0,5.259,0.585,7.596c-25.708-1.169-48.494-14.607-63.686-34.472c-2.921,4.674-4.09,10.517-4.09,16.943
				c0,11.686,5.259,21.618,13.438,27.461c-5.259,0-9.933-1.753-14.022-4.09v0.584c0,15.775,10.517,29.213,24.539,32.719
				c-2.337,0.585-5.259,1.169-8.18,1.169c-1.753,0-4.09,0-5.843-0.584c4.09,13.438,15.19,22.786,28.629,22.786
				c-10.517,8.764-23.955,14.022-37.978,14.022c-2.337,0-4.674,0-7.595-0.584c13.438,9.348,29.797,15.19,47.325,15.19
				c56.674,0,87.64-50.247,87.64-94.067c0-1.168,0-2.921,0-4.09C207.17,486.616,212.429,480.773,216.519,473.762z"/>
		</g>
	</g>
</g>
</svg>
