<?xml version="1.0" encoding="utf-8"?>
<!-- Generator: Adobe Illustrator 16.0.0, SVG Export Plug-In . SVG Version: 6.00 Build 0)  -->
<!DOCTYPE svg PUBLIC "-//W3C//DTD SVG 1.1//EN" "http://www.w3.org/Graphics/SVG/1.1/DTD/svg11.dtd">
<svg version="1.1" xmlns="http://www.w3.org/2000/svg" xmlns:xlink="http://www.w3.org/1999/xlink" x="0px" y="0px" width="186px"
	 height="87px" viewBox="0 0 186 87" enable-background="new 0 0 186 87" xml:space="preserve">
<g id="Capa_2">
</g>
<g id="Capa_1">
	<g>
		<g>
			<path fill="#1D1D1B" d="M168.405,35.227c0,2.477-0.775,3.035-1.615,3.035c-0.818,0-1.594-0.559-1.594-3.035
				c0-2.411,0.755-2.992,1.594-2.992C167.63,32.234,168.405,32.815,168.405,35.227 M171.182,35.246c0-3.249-1.528-5.357-4.371-5.357
				c-2.84,0-4.391,2.087-4.391,5.357c0,3.381,1.485,5.431,4.391,5.431C169.719,40.677,171.182,38.497,171.182,35.246z
				 M158.352,34.191h-2.646c0.085-1.075,0.342-2.109,1.354-2.109S158.285,33.073,158.352,34.191z M161.148,35.399
				c0-3.511-1.312-5.511-4.154-5.511c-2.646,0-4.218,2.237-4.218,5.357c0,3.683,1.765,5.431,4.54,5.431
				c1.401,0,2.305-0.178,3.273-0.607c0.258-0.107,0.453-0.323,0.344-0.646l-0.429-1.247c-0.086-0.281-0.239-0.474-0.602-0.347
				c-0.583,0.216-1.186,0.409-2.025,0.409c-1.765,0-2.068-0.882-2.173-2.26h4.863C160.892,35.979,161.148,35.722,161.148,35.399z
				 M148.383,35.291c0,2.088-0.515,2.886-1.397,2.886c-0.99,0-1.594-0.604-1.594-2.886c0-2.11,0.407-3.015,1.594-3.015
				C147.891,32.276,148.383,33.16,148.383,35.291z M151.075,39.939V25.797c0-0.323-0.259-0.581-0.583-0.581h-1.634
				c-0.325,0-0.581,0.258-0.581,0.581v5.189c-0.475-0.583-1.206-1.098-2.325-1.098c-0.946,0-1.743,0.494-2.175,0.924
				c-1.012,1.013-1.291,2.648-1.291,4.327c0,4.649,1.767,5.537,3.551,5.537c1.054,0,2.09-0.737,2.456-1.512l0.171,0.774
				c0.085,0.345,0.387,0.583,0.71,0.583h1.118C150.816,40.522,151.075,40.263,151.075,39.939z M140.569,39.939v-9.32
				c0-0.322-0.257-0.581-0.58-0.581h-1.636c-0.324,0-0.581,0.259-0.581,0.581v9.32c0,0.323,0.257,0.583,0.581,0.583h1.636
				C140.312,40.522,140.569,40.263,140.569,39.939z M140.722,26.744c0-0.926-0.668-1.679-1.593-1.679
				c-0.928,0-1.596,0.753-1.596,1.679c0,0.925,0.668,1.68,1.596,1.68C140.054,28.424,140.722,27.669,140.722,26.744z
				 M136.135,30.749c0.129-0.452-0.083-0.711-0.406-0.711h-1.788c-0.322,0-0.581,0.216-0.646,0.539l-1.248,6.091
				c-0.15,0.732-0.217,1.571-0.279,2.347c-0.087-0.775-0.107-1.636-0.26-2.324l-1.292-6.113c-0.064-0.323-0.32-0.539-0.644-0.539
				h-2.002c-0.323,0-0.54,0.259-0.412,0.711l2.715,9.234c0.106,0.345,0.343,0.539,0.688,0.539h2.197c0.343,0,0.58-0.194,0.688-0.539
				L136.135,30.749z M123.588,34.191h-2.649c0.086-1.075,0.343-2.109,1.355-2.109C123.308,32.082,123.522,33.073,123.588,34.191z
				 M126.383,35.399c0-3.511-1.312-5.511-4.154-5.511c-2.646,0-4.219,2.237-4.219,5.357c0,3.683,1.767,5.431,4.542,5.431
				c1.399,0,2.305-0.178,3.273-0.607c0.257-0.107,0.453-0.323,0.341-0.646l-0.426-1.247c-0.089-0.281-0.238-0.474-0.604-0.347
				c-0.582,0.216-1.185,0.409-2.022,0.409c-1.767,0-2.067-0.882-2.175-2.26h4.863C126.128,35.979,126.383,35.722,126.383,35.399z
				 M117.214,39.789l-0.258-1.355c-0.064-0.344-0.279-0.474-0.626-0.388c-0.15,0.044-0.43,0.064-0.624,0.064
				c-0.387,0-0.644-0.258-0.644-0.839v-5.123h1.312c0.323,0,0.582-0.26,0.582-0.582v-0.947c0-0.322-0.259-0.581-0.582-0.581h-1.312
				v-2.756c0-0.517-0.216-0.796-0.713-0.688l-1.57,0.365c-0.407,0.087-0.518,0.453-0.518,0.861v2.218h-1.096
				c-0.324,0-0.586,0.259-0.586,0.581v0.947c0,0.322,0.262,0.582,0.586,0.582h1.096v5.854c0,1.636,0.712,2.674,2.498,2.674
				c0.754,0,1.57-0.13,2.087-0.307C117.13,40.284,117.255,40.069,117.214,39.789z M109.55,39.939v-7.36
				c0-1.615-1.034-2.69-2.646-2.69c-1.122,0-2.024,0.473-2.844,1.354l-0.151-0.688c-0.062-0.301-0.256-0.517-0.601-0.517h-1.25
				c-0.32,0-0.579,0.259-0.579,0.581v9.32c0,0.323,0.259,0.583,0.579,0.583h1.637c0.323,0,0.582-0.26,0.582-0.583v-5.574
				c0-1.249,0.668-2.131,1.596-2.131c0.665,0,0.88,0.388,0.88,0.903v6.802c0,0.323,0.258,0.583,0.584,0.583h1.632
				C109.292,40.522,109.55,40.263,109.55,39.939z M97.002,35.227c0,2.477-0.775,3.035-1.616,3.035c-0.816,0-1.592-0.559-1.592-3.035
				c0-2.411,0.753-2.992,1.592-2.992C96.227,32.234,97.002,32.815,97.002,35.227z M99.776,35.246c0-3.249-1.527-5.357-4.369-5.357
				c-2.843,0-4.392,2.087-4.392,5.357c0,3.381,1.487,5.431,4.392,5.431C98.313,40.677,99.776,38.497,99.776,35.246z M89.639,39.919
				l-1.145-13.39c-0.019-0.323-0.363-0.604-0.685-0.604h-2.392c-0.32,0-0.686,0.216-0.752,0.539l-1.703,8.094
				c-0.104,0.517-0.213,1.96-0.278,2.69c-0.062-0.753-0.173-2.109-0.279-2.69l-1.637-8.094c-0.064-0.323-0.431-0.539-0.751-0.539
				h-2.456c-0.323,0-0.667,0.28-0.688,0.604l-1.164,13.39c-0.021,0.323,0.194,0.604,0.516,0.604h1.724
				c0.321,0,0.667-0.28,0.688-0.604l0.323-8.806c0.022-0.494-0.043-2.647-0.043-3.077c0.128,0.817,0.323,2.434,0.473,3.077
				l1.594,7.32c0.064,0.323,0.433,0.538,0.753,0.538h1.809c0.323,0,0.688-0.215,0.756-0.538l1.679-7.32
				c0.168-0.71,0.343-2.26,0.448-3.077c0,0.582-0.041,2.627-0.02,3.077l0.278,8.806c0,0.323,0.367,0.604,0.691,0.604h1.743
				C89.444,40.522,89.659,40.242,89.639,39.919z M72.2,34.387h-4.153c0.261-2.562,1.442-2.972,2.154-2.972
				C71.62,31.415,72.159,32.944,72.2,34.387z M73.966,35.312c0-4.069-1.83-5.274-3.809-5.274c-2.305,0-3.897,1.98-3.897,5.23
				c0,3.488,1.614,5.364,4.585,5.364c1.227,0,1.917-0.219,2.496-0.477c0.259-0.108,0.368-0.323,0.281-0.56l-0.191-0.539
				c-0.09-0.216-0.259-0.366-0.562-0.279c-0.645,0.193-1.225,0.344-2.044,0.344c-1.938,0-2.691-1.184-2.777-3.358h5.486
				C73.772,35.764,73.966,35.549,73.966,35.312z M62.021,35.399c0,2.583-0.713,3.81-2.111,3.81c-1.355,0-1.96-1.099-1.96-3.854
				c0-1.571,0.239-2.495,0.54-3.057c0.301-0.56,0.796-0.839,1.44-0.839C61.245,31.459,62.021,32.837,62.021,35.399z M63.654,40.091
				V25.71c0-0.256-0.215-0.431-0.452-0.431h-0.775c-0.236,0-0.45,0.175-0.45,0.431v5.856c-0.561-1.012-1.356-1.528-2.412-1.528
				c-0.928,0-1.852,0.408-2.409,1.162c-0.733,0.99-1.034,2.046-1.034,4.177c0,3.487,1.162,5.256,3.377,5.256
				c1.122,0,1.896-0.412,2.522-1.468l0.17,0.926c0.066,0.301,0.236,0.432,0.561,0.432h0.451
				C63.439,40.522,63.654,40.328,63.654,40.091z M148.277,16.917c0,0.688-0.688,1.4-1.657,1.4c-0.366,0-0.928-0.279-0.928-1.054
				c0-1.445,0.949-1.658,2.585-1.658V16.917z M151.269,19.889l-0.107-0.625c-0.107-0.581-0.086-1.184-0.086-1.636v-3.401
				c0-1.873-0.128-4.39-4.11-4.39c-0.928,0-2.219,0.235-2.93,0.472c-0.343,0.108-0.451,0.322-0.365,0.69l0.302,1.205
				c0.063,0.301,0.322,0.473,0.71,0.344c0.539-0.173,1.402-0.366,2.153-0.366c1.228,0,1.442,0.408,1.442,1.528l-1.744,0.13
				c-2.648,0.193-3.617,1.571-3.617,3.424c0,2.044,0.861,3.36,2.843,3.36c1.312,0,2.389-0.499,2.926-1.273l0.088,0.516
				c0.065,0.388,0.234,0.603,0.604,0.603h1.398C151.161,20.469,151.334,20.254,151.269,19.889z M141.023,19.889v-9.32
				c0-0.324-0.26-0.582-0.581-0.582h-1.638c-0.321,0-0.581,0.258-0.581,0.582v9.32c0,0.323,0.26,0.58,0.581,0.58h1.638
				C140.764,20.469,141.023,20.212,141.023,19.889z M141.174,6.692c0-0.926-0.667-1.678-1.592-1.678
				c-0.927,0-1.595,0.752-1.595,1.678s0.668,1.679,1.595,1.679C140.507,8.371,141.174,7.618,141.174,6.692z M136.244,19.609
				l-0.237-1.271c-0.066-0.3-0.235-0.473-0.604-0.365c-0.406,0.128-0.946,0.173-1.333,0.173c-1.594,0-2.196-0.904-2.196-3.058
				c0-1.958,0.776-2.842,2.154-2.842c0.473,0,0.731,0.107,1.03,0.194c0.41,0.107,0.604-0.087,0.691-0.345l0.385-1.227
				c0.064-0.238,0-0.517-0.385-0.668c-0.604-0.236-1.293-0.364-1.938-0.364c-3.208,0-4.822,2.322-4.822,5.251
				c0,3.854,1.786,5.536,4.606,5.536c0.798,0,1.613-0.108,2.304-0.37C136.244,20.125,136.308,19.911,136.244,19.609z
				 M127.308,19.889v-7.361c0-1.616-1.029-2.69-2.646-2.69c-1.12,0-2.023,0.472-2.839,1.355l-0.152-0.69
				c-0.066-0.301-0.26-0.516-0.604-0.516h-1.25c-0.322,0-0.579,0.258-0.579,0.582v9.32c0,0.323,0.257,0.58,0.579,0.58h1.638
				c0.322,0,0.581-0.257,0.581-0.58v-5.576c0-1.248,0.667-2.131,1.593-2.131c0.67,0,0.884,0.388,0.884,0.904v6.803
				c0,0.323,0.261,0.58,0.583,0.58h1.635C127.052,20.469,127.308,20.212,127.308,19.889z M114.544,14.141h-2.647
				c0.087-1.076,0.344-2.109,1.357-2.109C114.264,12.031,114.48,13.021,114.544,14.141z M117.344,15.347
				c0-3.509-1.313-5.51-4.155-5.51c-2.646,0-4.221,2.236-4.221,5.358c0,3.681,1.769,5.429,4.544,5.429
				c1.398,0,2.304-0.177,3.273-0.606c0.257-0.106,0.449-0.323,0.345-0.646l-0.433-1.249c-0.086-0.279-0.236-0.472-0.603-0.344
				c-0.581,0.215-1.185,0.408-2.024,0.408c-1.767,0-2.067-0.884-2.174-2.26h4.865C117.086,15.928,117.344,15.669,117.344,15.347z
				 M104.578,15.237c0,2.09-0.519,2.886-1.398,2.886c-0.991,0-1.595-0.603-1.595-2.886c0-2.107,0.409-3.013,1.595-3.013
				C104.082,12.225,104.578,13.107,104.578,15.237z M107.269,19.889V5.745c0-0.322-0.259-0.581-0.581-0.581h-1.637
				c-0.322,0-0.579,0.259-0.579,0.581v5.188c-0.475-0.58-1.206-1.096-2.325-1.096c-0.949,0-1.745,0.494-2.176,0.925
				c-1.01,1.011-1.291,2.646-1.291,4.326c0,4.649,1.766,5.536,3.553,5.536c1.054,0,2.087-0.735,2.452-1.511l0.174,0.775
				c0.086,0.345,0.387,0.58,0.711,0.58h1.118C107.01,20.469,107.269,20.212,107.269,19.889z M96.936,19.889v-7.361
				c0-1.616-1.034-2.69-2.649-2.69c-1.116,0-2.021,0.472-2.837,1.355l-0.152-0.69c-0.065-0.301-0.26-0.516-0.603-0.516h-1.25
				c-0.322,0-0.581,0.258-0.581,0.582v9.32c0,0.323,0.259,0.58,0.581,0.58h1.637c0.32,0,0.58-0.257,0.58-0.58v-5.576
				c0-1.248,0.668-2.131,1.593-2.131c0.669,0,0.884,0.388,0.884,0.904v6.803c0,0.323,0.257,0.58,0.58,0.58h1.639
				C96.678,20.469,96.936,20.212,96.936,19.889z M84.17,14.141h-2.648c0.088-1.076,0.347-2.109,1.356-2.109
				C83.89,12.031,84.107,13.021,84.17,14.141z M86.97,15.347c0-3.509-1.315-5.51-4.154-5.51c-2.649,0-4.221,2.236-4.221,5.358
				c0,3.681,1.767,5.429,4.543,5.429c1.398,0,2.302-0.177,3.271-0.606c0.257-0.106,0.451-0.323,0.344-0.646l-0.43-1.249
				c-0.086-0.279-0.236-0.472-0.604-0.344c-0.58,0.215-1.184,0.408-2.024,0.408c-1.768,0-2.066-0.884-2.174-2.26h4.866
				C86.71,15.928,86.97,15.669,86.97,15.347z M77.798,19.737l-0.257-1.356c-0.065-0.343-0.28-0.473-0.627-0.387
				c-0.148,0.044-0.429,0.064-0.621,0.064c-0.389,0-0.648-0.258-0.648-0.839v-5.124h1.317c0.319,0,0.579-0.258,0.579-0.581v-0.946
				c0-0.324-0.26-0.582-0.579-0.582h-1.317V7.229c0-0.516-0.214-0.795-0.709-0.688l-1.571,0.366
				c-0.408,0.086-0.517,0.451-0.517,0.86v2.218H71.75c-0.324,0-0.585,0.258-0.585,0.582v0.946c0,0.323,0.261,0.581,0.585,0.581
				h1.098v5.856c0,1.635,0.708,2.672,2.496,2.672c0.755,0,1.57-0.129,2.088-0.305C77.712,20.233,77.842,20.018,77.798,19.737z
				 M70.133,19.889v-7.361c0-1.616-1.029-2.69-2.646-2.69c-1.118,0-2.024,0.472-2.841,1.355l-0.152-0.69
				c-0.063-0.301-0.258-0.516-0.604-0.516h-1.247c-0.322,0-0.581,0.258-0.581,0.582v9.32c0,0.323,0.259,0.58,0.581,0.58h1.636
				c0.323,0,0.582-0.257,0.582-0.58v-5.576c0-1.248,0.668-2.131,1.593-2.131c0.667,0,0.882,0.388,0.882,0.904v6.803
				c0,0.323,0.258,0.58,0.582,0.58h1.637C69.877,20.469,70.133,20.212,70.133,19.889z M59.522,19.866V6.477
				c0-0.322-0.278-0.603-0.603-0.603h-1.787c-0.322,0-0.604,0.28-0.604,0.603v13.39c0,0.324,0.281,0.603,0.604,0.603h1.787
				C59.244,20.469,59.522,20.19,59.522,19.866z"/>
			<path fill-rule="evenodd" clip-rule="evenodd" fill="#FF8900" d="M34.367,13.156l-3.126-1.813
				c-0.001-0.003-0.005-0.008-0.005-0.008l-5.552-3.22c-0.046-0.029-0.092-0.043-0.144-0.07c-0.038-0.014-0.083-0.035-0.12-0.052
				c-0.07-0.028-0.141-0.053-0.215-0.072c-0.049-0.017-0.096-0.027-0.147-0.036c-0.081-0.016-0.156-0.026-0.238-0.036
				c-0.039-0.004-0.076-0.005-0.116-0.005c-0.091-0.002-0.183,0.001-0.278,0.016c-0.026,0-0.059,0.007-0.085,0.012
				c-0.096,0.014-0.186,0.036-0.276,0.064c-0.04,0.014-0.084,0.026-0.12,0.042C23.886,8,23.828,8.029,23.775,8.057
				c-0.047,0.022-0.097,0.037-0.142,0.064L20.597,9.87l-5.733,3.301c-0.976,0.562-1.342,1.749-0.83,2.648
				c0.522,0.901,1.732,1.18,2.708,0.617l3.157-1.818l0.006-0.003l4.757-2.737l2.088,1.213c0,0,0.002,0,0.006,0.001l5.725,3.319
				c0.97,0.568,2.187,0.295,2.703-0.605C35.702,14.907,35.343,13.721,34.367,13.156 M33.804,40.969H31.54
				c-0.463,0-0.984-0.397-0.984-0.857c0,0-0.588-12.271-0.588-13.103c-0.151,1.165-3.693,13.151-3.693,13.151
				c-0.095,0.46-0.615,0.765-1.078,0.765h-1.189c-0.461,0-0.982-0.305-1.075-0.765c0,0-3.492-11.986-3.678-13.151
				c0,0.613-0.614,13.103-0.614,13.103c-0.035,0.46-0.522,0.857-0.982,0.857H15.42c-0.462,0-0.771-0.397-0.735-0.857l1.658-19.092
				c0.027-0.461,0.519-0.862,0.981-0.862h2.624c0.457,0,0.979,0.307,1.072,0.768c0,0,3.513,12.479,3.609,13.554
				c0.089-1.041,3.623-13.554,3.623-13.554c0.097-0.461,0.617-0.768,1.077-0.768h2.605c0.456,0,0.946,0.401,0.981,0.862
				l1.623,19.092C34.571,40.571,34.267,40.969,33.804,40.969z M9.067,1.57H40.16c2.296,0,4.101,1.9,4.101,4.102v38.996
				c0,2.197-1.805,4.095-4.101,4.095H9.067c-2.304,0-4.101-1.897-4.101-4.095V5.672C4.967,3.471,6.764,1.57,9.067,1.57z"/>
		</g>
		<g>
			<rect x="1.056" y="66.823" fill="none" width="183.888" height="18.605"/>
			<text transform="matrix(1 0 0 1 1.0762 77.4951)" fill="#7D7D7D" font-family="'ProximaNova-Light'" font-size="16">Declarado de interés </text>
		</g>
	</g>
</g>
<g id="Layer_3" display="none">
</g>
</svg>
