<?xml version="1.0" encoding="utf-8"?>
<!-- Generator: Adobe Illustrator 16.0.0, SVG Export Plug-In . SVG Version: 6.00 Build 0)  -->
<!DOCTYPE svg PUBLIC "-//W3C//DTD SVG 1.1//EN" "http://www.w3.org/Graphics/SVG/1.1/DTD/svg11.dtd">
<svg version="1.1" xmlns="http://www.w3.org/2000/svg" xmlns:xlink="http://www.w3.org/1999/xlink" x="0px" y="0px" width="184px"
	 height="49px" viewBox="0 0 184 49" enable-background="new 0 0 184 49" xml:space="preserve">
<g id="Capa_2">
</g>
<g id="Capa_1">
	<g>
		<path fill="#3EBA95" d="M8.436,44.896c-0.055,0.211-0.123,0.412-0.203,0.611c-0.164,0.407-0.378,0.755-0.642,1.037
			c-0.199,0.229-0.417,0.41-0.653,0.544l-5.081-2.846c-0.082-0.399-0.124-0.808-0.124-1.224c0-0.577,0.07-1.124,0.217-1.637
			c0.137-0.53,0.357-1.012,0.658-1.436c0.155-0.208,0.323-0.396,0.512-0.563c0.187-0.164,0.399-0.314,0.637-0.446
			c0.462-0.257,1.02-0.385,1.665-0.385c0.182,0,0.354,0.011,0.527,0.034c0.169,0.025,0.332,0.062,0.479,0.124
			c0.341,0.111,0.642,0.271,0.906,0.481c0.252,0.19,0.482,0.446,0.682,0.769c0.183,0.318,0.313,0.672,0.395,1.052h0.932
			c-0.058-0.54-0.204-1.011-0.45-1.407c-0.239-0.408-0.54-0.754-0.904-1.04c-0.373-0.282-0.772-0.497-1.198-0.641
			c-0.459-0.141-0.913-0.214-1.367-0.214c-0.757,0-1.432,0.149-2.023,0.443c-0.572,0.283-1.051,0.672-1.448,1.165
			c-0.391,0.505-0.677,1.068-0.859,1.693c-0.189,0.646-0.282,1.314-0.282,2.007c0,0.709,0.093,1.383,0.282,2.02
			c0.203,0.646,0.487,1.206,0.859,1.678c0.378,0.475,0.857,0.858,1.448,1.152c0.564,0.293,1.237,0.44,2.023,0.44
			c0.557,0,1.078-0.093,1.571-0.283c0.474-0.19,0.877-0.46,1.213-0.811c0.337-0.341,0.62-0.769,0.848-1.282
			c0.108-0.255,0.199-0.523,0.274-0.804c0.072-0.278,0.123-0.579,0.148-0.902H8.548C8.53,44.464,8.498,44.685,8.436,44.896
			 M5.421,47.499c-0.646,0-1.203-0.127-1.665-0.384c-0.457-0.247-0.841-0.589-1.148-1.024c-0.181-0.246-0.326-0.513-0.438-0.797
			l0.638,0.369l0.771,0.441l2.404,1.351C5.797,47.484,5.608,47.499,5.421,47.499"/>
		<path fill="#3EBA95" d="M28.843,39.318c-0.369-0.493-0.851-0.881-1.434-1.165c-0.562-0.294-1.235-0.443-2.006-0.443
			c-0.784,0-1.454,0.149-2.018,0.443c-0.588,0.284-1.069,0.672-1.448,1.165c-0.385,0.484-0.673,1.048-0.862,1.693
			c-0.191,0.627-0.288,1.295-0.288,2.007c0,0.7,0.097,1.369,0.288,2.005c0.189,0.636,0.478,1.195,0.862,1.677
			c0.401,0.503,0.881,0.894,1.448,1.168c0.589,0.294,1.263,0.44,2.018,0.44c0.745,0,1.416-0.146,2.006-0.44
			c0.564-0.274,1.044-0.665,1.434-1.168c0.385-0.481,0.668-1.041,0.863-1.677c0.19-0.636,0.286-1.305,0.286-2.005
			c0-0.712-0.096-1.38-0.286-2.007C29.511,40.366,29.228,39.803,28.843,39.318 M27.057,47.1c-0.467,0.267-1.015,0.399-1.653,0.399
			c-0.636,0-1.197-0.133-1.677-0.399c-0.264-0.144-0.496-0.317-0.694-0.505h4.712C27.548,46.782,27.32,46.956,27.057,47.1
			 M29.053,42.874L29.053,42.874c-0.033,0.396-0.095,1.348-0.192,1.78c-0.107,0.369-0.257,0.7-0.428,1.012h-6.086
			c-0.17-0.312-0.318-0.643-0.429-1.012c-0.099-0.433-0.161-1.385-0.186-1.78h-0.005c0-0.004,0.005-0.008,0.005-0.01
			s-0.005-0.006-0.005-0.009h0.005c0.015-0.214,0.037-0.68,0.07-0.878c0.033-0.197,0.072-0.396,0.115-0.596
			c0.149-0.53,0.37-1.012,0.673-1.436c0.28-0.428,0.657-0.77,1.136-1.026c0.46-0.257,1.021-0.382,1.677-0.382
			c0.647,0,1.201,0.125,1.653,0.382c0.474,0.257,0.853,0.599,1.131,1.026c0.303,0.424,0.527,0.905,0.673,1.436
			c0.042,0.2,0.084,0.398,0.115,0.596c0.03,0.198,0.054,0.664,0.071,0.878h0.006v0.009V42.874z"/>
		<path fill="#3EBA95" d="M73.058,45.007c0.192-0.625,0.287-1.293,0.287-2.007c0-0.699-0.095-1.367-0.287-2.004
			c-0.193-0.636-0.478-1.196-0.86-1.678c-0.389-0.503-0.866-0.893-1.437-1.167c-0.59-0.294-1.256-0.441-2.005-0.441
			c-0.755,0-1.431,0.147-2.021,0.441c-0.564,0.274-1.049,0.664-1.447,1.167c-0.381,0.481-0.671,1.042-0.862,1.678
			c-0.19,0.637-0.286,1.305-0.286,2.004c0,0.714,0.096,1.382,0.286,2.007c0.191,0.649,0.481,1.208,0.862,1.691
			c0.383,0.496,0.866,0.886,1.447,1.169c0.565,0.294,1.238,0.441,2.021,0.441c0.773,0,1.443-0.147,2.005-0.441
			c0.587-0.283,1.066-0.673,1.437-1.169C72.58,46.215,72.864,45.656,73.058,45.007 M71.103,39.424h-4.717
			c0.197-0.188,0.426-0.359,0.691-0.504c0.485-0.266,1.043-0.398,1.679-0.398c0.638,0,1.19,0.133,1.655,0.398
			C70.673,39.064,70.896,39.236,71.103,39.424 M72.404,43.156v0.007c-0.021,0.217-0.045,0.681-0.077,0.878
			c-0.033,0.198-0.072,0.397-0.117,0.598c-0.146,0.529-0.367,1.01-0.67,1.436c-0.281,0.428-0.658,0.771-1.129,1.025
			c-0.462,0.255-1.008,0.384-1.655,0.384c-0.656,0-1.216-0.129-1.679-0.384c-0.474-0.255-0.852-0.598-1.135-1.025
			c-0.3-0.426-0.525-0.906-0.67-1.436c-0.045-0.2-0.082-0.399-0.112-0.598c-0.032-0.197-0.059-0.661-0.075-0.878v-0.007v-0.009
			c0.023-0.396,0.092-1.352,0.188-1.782c0.108-0.369,0.257-0.699,0.427-1.011h6.088c0.169,0.312,0.317,0.642,0.423,1.011
			c0.098,0.431,0.166,1.386,0.194,1.782V43.156z"/>
		<polygon fill="#3EBA95" points="49.104,47.043 49.076,47.043 47.52,42.591 49.184,37.956 48.197,37.956 47.053,41.253 
			45.904,37.956 44.923,37.956 46.588,42.618 45.06,47.043 45.031,47.043 41.866,37.956 40.878,37.956 44.484,48.11 45.562,48.11 
			47.053,43.942 48.529,48.11 49.607,48.11 53.228,37.956 52.243,37.956 		"/>
		<path fill="#3EBA95" d="M90.718,43.558c0.375-0.131,0.683-0.316,0.919-0.554c0.271-0.266,0.474-0.574,0.598-0.925
			c0.135-0.352,0.205-0.759,0.205-1.224c0-0.454-0.07-0.862-0.205-1.223c-0.124-0.352-0.327-0.658-0.598-0.923
			c-0.236-0.247-0.544-0.437-0.919-0.571c-0.343-0.122-0.733-0.183-1.168-0.183h-3.404h-0.941V48.11h0.941v-8.506l5.669,8.506h1.09
			l-2.92-4.396C90.276,43.688,90.522,43.634,90.718,43.558 M86.692,38.778h2.649c0.634,0,1.157,0.17,1.561,0.512
			c0.394,0.334,0.596,0.854,0.596,1.565s-0.202,1.233-0.596,1.564c-0.356,0.314-0.845,0.484-1.453,0.512L86.692,38.778z"/>
		<path fill="#3EBA95" d="M112.604,37.956h-1.263l-3.531,3.028l-2.146-3.028h-0.929V48.11h0.929v-4.084l1.926-1.676l4.017,5.76
			h1.199l-4.494-6.415L112.604,37.956z M105.664,42.818v-3.214l1.403,2.004L105.664,42.818z"/>
		<polygon fill="#F05A56" points="141.529,37.924 140.71,37.924 137.718,43.897 134.729,37.924 133.909,37.924 133.418,37.924 
			132.979,37.924 132.979,48.11 133.909,48.11 133.909,38.836 137.204,44.938 135.616,48.11 136.544,48.11 137.718,45.92 
			138.896,48.11 139.823,48.11 138.24,44.938 141.529,38.836 141.529,48.11 142.458,48.11 142.458,37.924 142.019,37.924 		"/>
		<polygon fill="#F05A56" points="160.165,44.369 157.993,37.956 157.014,37.956 159.704,45.705 159.236,47.043 159.209,47.043 
			156.067,37.956 155.085,37.956 158.705,48.11 159.785,48.11 163.39,37.956 162.418,37.956 		"/>
		<path fill="#F05A56" d="M181.236,39.233c-0.743-0.825-1.867-1.26-3.361-1.31h-3.369V48.11h3.369
			c1.485-0.038,2.604-0.474,3.361-1.308c0.756-0.817,1.133-2.079,1.133-3.784C182.369,41.312,181.992,40.05,181.236,39.233
			 M175.432,38.751h1.978c0.694,0,1.301,0.079,1.821,0.241c0.517,0.161,0.935,0.407,1.254,0.739
			c0.332,0.342,0.566,0.787,0.725,1.338c0.062,0.217,0.132,0.451,0.151,0.711c0.047,0.616,0.047,1.857,0,2.476
			c-0.02,0.259-0.089,0.491-0.151,0.709c-0.145,0.532-0.391,0.972-0.725,1.323c-0.333,0.351-0.757,0.604-1.254,0.755
			c-0.521,0.16-1.127,0.243-1.821,0.243h-1.978V43.43"/>
		<path fill="#002835" d="M61.022,1.428V33.05h-2.766L40.979,14.317V33.05h-2.803V1.428h2.803l17.277,18.69V1.428H61.022z
			 M58.257,24.369L40.979,5.682v4.428l17.277,18.688V24.369z"/>
		<polygon fill="#002835" points="87.906,30.483 87.906,33.05 67.66,33.05 67.66,1.385 87.707,1.385 87.707,3.996 70.425,3.996 
			70.425,13.343 86.606,13.343 86.606,15.955 70.425,15.955 70.425,18.48 86.606,18.48 86.606,21.048 70.425,21.048 70.425,30.483 
					"/>
		<path fill="#002835" d="M95.364,6.566V33.05h-2.771V1.428h2.771h10.01c1.284,0,2.436,0.193,3.454,0.576
			c1.097,0.415,1.996,1.004,2.69,1.771c0.807,0.828,1.396,1.79,1.772,2.88c0.399,1.125,0.603,2.393,0.603,3.81
			c0,1.446-0.203,2.717-0.603,3.808c-0.376,1.093-0.966,2.053-1.772,2.879c-0.694,0.738-1.594,1.312-2.69,1.728
			c-0.592,0.235-1.312,0.396-2.17,0.485l8.599,13.686h-3.215L95.364,6.566z M96.972,3.996l8.118,12.935
			c1.797-0.09,3.213-0.621,4.261-1.598c1.179-1.03,1.77-2.654,1.77-4.868s-0.591-3.84-1.77-4.872
			c-1.179-1.063-2.709-1.597-4.581-1.597H96.972z"/>
		<path fill="#002835" d="M144.723,15.624v5.035v2.521v9.248h-1.966l-0.365-5.646h-0.08c-0.481,1.099-1.085,2.039-1.807,2.82
			c-0.669,0.813-1.445,1.465-2.333,1.954c-0.909,0.55-1.832,0.928-2.771,1.13c-1.018,0.231-2.035,0.346-3.055,0.346
			c-2.277,0-4.246-0.446-5.905-1.344c-1.717-0.871-3.135-2.042-4.261-3.519c-1.122-1.476-1.966-3.195-2.529-5.165
			c-0.562-1.912-0.848-3.952-0.848-6.122c0-2.111,0.286-4.153,0.848-6.12c0.563-1.969,1.407-3.692,2.529-5.166
			c1.18-1.532,2.597-2.723,4.261-3.562c1.739-0.897,3.711-1.344,5.905-1.344c1.503,0,2.936,0.214,4.301,0.649
			c1.338,0.432,2.536,1.085,3.574,1.952c0.537,0.466,1.021,0.957,1.449,1.478c0.425,0.521,0.83,1.114,1.206,1.779
			c0.695,1.245,1.19,2.736,1.483,4.473h-2.73c-0.079-0.897-0.362-1.81-0.842-2.735c-0.428-0.897-1.06-1.723-1.888-2.474
			c-0.38-0.406-0.807-0.761-1.291-1.064c-0.479-0.305-0.988-0.57-1.524-0.803c-1.152-0.492-2.398-0.739-3.738-0.739
			c-1.929,0-3.557,0.405-4.903,1.216c-1.392,0.812-2.517,1.839-3.371,3.082c-0.857,1.333-1.503,2.794-1.932,4.386
			c-0.4,1.62-0.602,3.284-0.602,4.992c0,1.678,0.201,3.341,0.602,4.994c0.429,1.591,1.074,3.052,1.932,4.384
			c0.881,1.303,2.011,2.343,3.371,3.124c1.367,0.783,3.002,1.175,4.903,1.175c1.554,0,2.973-0.291,4.261-0.869
			c1.232-0.55,2.293-1.332,3.178-2.345c0.853-1.071,1.495-2.285,1.925-3.647c0.024-0.086,0.058-0.171,0.082-0.262
			c0.025-0.085,0.05-0.172,0.08-0.257h-9.36v-2.521h9.762c0.026-0.231,0.039-0.477,0.039-0.738v-0.78v-0.997h-9.801v-2.52H144.723z"
			/>
		<path fill="#002835" d="M183.444,33.05h-2.936l-16.516-9.875l-3.454,9.875h-2.891l11.57-31.622h2.976L183.444,33.05z
			 M170.626,4.44l-5.787,16.166l14.464,9.077L170.626,4.44z"/>
		<path fill="#002835" d="M28.6,1.442h2.925v4.481L28.6,7.513V1.442z M31.524,8.804v23.949H28.6V10.396l1.723-0.946L31.524,8.804z"
			/>
		<path fill="#002835" d="M21.747,16.871c-0.397-0.366-0.847-0.707-1.324-1.031l0.002-0.002c-0.481-0.366-1.034-0.676-1.661-0.924
			c-0.03-0.013-0.061-0.021-0.091-0.034c-0.282-0.119-0.562-0.229-0.845-0.331c-0.104-0.035-0.211-0.067-0.315-0.102
			c0,0-0.006-0.003-0.008-0.005l-0.012-0.003c-0.391-0.128-0.786-0.249-1.196-0.36l-1.806-0.455l-0.011,0.002L9.538,12.39
			c-0.363-0.085-0.722-0.187-1.068-0.3c-0.349-0.113-0.706-0.242-1.071-0.385c-0.699-0.257-1.429-0.547-2.091-0.938
			c-0.393-0.231-0.403-0.186-0.708-0.441C4.329,10.102,4.125,9.914,3.839,9.49c-0.17-0.256-0.214-0.51-0.195-0.764
			C3.776,8.251,3.962,7.82,4.206,7.438c0.502-0.896,1.156-1.615,1.969-2.157c0.812-0.609,1.677-1.025,2.602-1.249
			c0.979-0.257,1.83-0.384,2.557-0.384c1.452,0,2.74,0.16,3.858,0.48c1.227,0.287,2.277,0.783,3.142,1.487
			c0.926,0.766,1.624,1.709,2.1,2.83c0.251,0.606,0.434,1.279,0.547,2.015c0.11,0.735,0.164,1.537,0.164,2.4h2.854
			c0.084-2.081-0.167-3.889-0.756-5.423c-0.612-1.535-1.425-2.767-2.432-3.694c-1.092-0.958-2.39-1.681-3.898-2.159
			c-1.566-0.447-3.202-0.671-4.907-0.671c-1.704,0-3.214,0.175-4.529,0.526c-1.229,0.385-2.291,0.864-3.186,1.44
			C3.448,3.486,2.776,4.16,2.274,4.896C1.801,5.567,1.423,6.303,1.144,7.104C0.891,7.805,0.724,8.478,0.64,9.118
			C0.584,9.47,0.556,9.766,0.556,10.005v0.648c0,1.503,0.196,2.702,0.588,3.598c0.445,1.055,1.007,1.902,1.678,2.543
			c0.397,0.366,0.844,0.709,1.325,1.031l-0.003,0.003c0.482,0.367,1.035,0.676,1.662,0.923c0.028,0.015,0.061,0.023,0.089,0.036
			c0.28,0.118,0.562,0.229,0.847,0.329c0.102,0.036,0.212,0.069,0.317,0.104c0.001,0.002,0.004,0.002,0.004,0.002l0.01,0.002
			c0.389,0.131,0.784,0.252,1.197,0.363l1.808,0.455l0.012-0.003l4.94,1.238c0.364,0.084,0.719,0.186,1.07,0.298
			c0.348,0.116,0.703,0.242,1.071,0.387c0.696,0.255,1.427,0.547,2.088,0.936c0.396,0.232,0.406,0.187,0.711,0.442
			c0.267,0.226,0.475,0.412,0.76,0.837c0.169,0.253,0.213,0.508,0.196,0.763c-0.133,0.476-0.317,0.906-0.562,1.288
			c-0.504,0.895-1.162,1.614-1.97,2.158c-0.81,0.609-1.677,1.025-2.601,1.248c-0.979,0.256-1.832,0.384-2.557,0.384
			c-1.455,0-2.74-0.159-3.86-0.479c-1.229-0.289-2.278-0.784-3.146-1.487c-0.921-0.768-1.619-1.711-2.094-2.83
			c-0.25-0.609-0.434-1.279-0.546-2.017c-0.115-0.735-0.168-1.535-0.168-2.398H0.571c-0.083,2.08,0.168,3.886,0.756,5.422
			c0.615,1.534,1.426,2.768,2.432,3.694c1.09,0.961,2.391,1.679,3.899,2.16c1.564,0.446,3.2,0.671,4.906,0.671
			c1.705,0,3.215-0.177,4.529-0.528c1.229-0.384,2.292-0.863,3.186-1.438c0.838-0.607,1.512-1.28,2.015-2.016
			c0.474-0.671,0.852-1.407,1.132-2.207c0.251-0.703,0.417-1.376,0.503-2.015c0.055-0.354,0.082-0.648,0.082-0.889v-0.647
			c0-1.504-0.195-2.702-0.585-3.598C22.978,18.358,22.418,17.514,21.747,16.871 M19.303,19.797c-0.475-0.226-0.77-0.338-1.257-0.51
			c-0.49-0.171-1-0.326-1.53-0.47l-1.628-0.409h0.002l-0.276-0.069l-1.664-0.42h-0.011L9.57,17.077
			c-0.361-0.086-0.72-0.187-1.068-0.301c-0.305-0.1-0.734-0.254-1.079-0.388c-0.639-0.264-1.257-0.612-1.847-1.037
			c-0.013-0.008-0.025-0.014-0.038-0.022c-0.246-0.156-0.335-0.266-0.757-0.721c-0.061-0.067-0.122-0.132-0.196-0.244
			c-0.047-0.073-0.109-0.203-0.212-0.408c-0.242-0.469-0.352-0.853-0.352-0.853c0.425,0.225,0.562,0.274,1.067,0.492
			c0.484,0.208,1.137,0.5,1.625,0.672c0.489,0.171,1.107,0.401,1.631,0.562l1.344,0.34L9.68,15.174l5.319,1.331
			c0.361,0.086,0.718,0.187,1.065,0.3c0.308,0.1,0.734,0.255,1.082,0.386c0.692,0.289,1.361,0.671,2,1.148
			c0.31,0.257,0.542,0.468,0.819,0.838c0.256,0.345,0.426,0.957,0.582,1.391C20.154,20.234,19.741,20.01,19.303,19.797"/>
		<path fill="#002835" d="M153.83,7.513l-2.922-1.589V1.442h2.922V7.513z M152.11,9.449l1.72,0.946v22.357h-2.922V8.804
			L152.11,9.449z"/>
	</g>
</g>
<g id="Layer_3" display="none">
</g>
</svg>
