<?xml version="1.0" encoding="utf-8"?>
<!-- Generator: Adobe Illustrator 16.0.0, SVG Export Plug-In . SVG Version: 6.00 Build 0)  -->
<!DOCTYPE svg PUBLIC "-//W3C//DTD SVG 1.1//EN" "http://www.w3.org/Graphics/SVG/1.1/DTD/svg11.dtd">
<svg version="1.1" xmlns="http://www.w3.org/2000/svg" xmlns:xlink="http://www.w3.org/1999/xlink" x="0px" y="0px" width="108px"
	 height="47px" viewBox="0 0 108 47" enable-background="new 0 0 108 47" xml:space="preserve">
<g id="Capa_2">
</g>
<g id="Capa_1">
	<g>
		<g>
			<path fill="#1D1D1B" d="M97.138,38.411c0,1.461-0.457,1.79-0.953,1.79c-0.482,0-0.94-0.329-0.94-1.79
				c0-1.422,0.445-1.767,0.94-1.767C96.681,36.645,97.138,36.989,97.138,38.411 M98.776,38.423c0-1.918-0.902-3.161-2.579-3.161
				c-1.674,0-2.589,1.231-2.589,3.161c0,1.993,0.876,3.202,2.589,3.202C97.913,41.625,98.776,40.34,98.776,38.423z M91.208,37.801
				h-1.561c0.051-0.635,0.202-1.245,0.799-1.245S91.169,37.141,91.208,37.801z M92.858,38.512c0-2.069-0.774-3.25-2.45-3.25
				c-1.561,0-2.488,1.32-2.488,3.161c0,2.172,1.041,3.202,2.679,3.202c0.825,0,1.359-0.104,1.93-0.358
				c0.153-0.063,0.267-0.189,0.204-0.381l-0.253-0.734c-0.05-0.167-0.141-0.279-0.355-0.204c-0.343,0.126-0.699,0.24-1.194,0.24
				c-1.041,0-1.219-0.52-1.282-1.333h2.869C92.707,38.854,92.858,38.703,92.858,38.512z M85.329,38.448
				c0,1.232-0.304,1.703-0.825,1.703c-0.584,0-0.939-0.357-0.939-1.703c0-1.243,0.24-1.777,0.939-1.777
				C85.038,36.671,85.329,37.191,85.329,38.448z M86.917,41.19V32.85c0-0.191-0.153-0.343-0.344-0.343H85.61
				c-0.191,0-0.345,0.151-0.345,0.343v3.061c-0.279-0.345-0.71-0.648-1.37-0.648c-0.559,0-1.029,0.292-1.283,0.546
				c-0.598,0.597-0.764,1.562-0.764,2.552c0,2.742,1.044,3.266,2.097,3.266c0.622,0,1.231-0.435,1.447-0.891l0.102,0.456
				c0.05,0.203,0.228,0.344,0.419,0.344h0.659C86.764,41.534,86.917,41.381,86.917,41.19z M80.72,41.19v-5.497
				c0-0.19-0.152-0.343-0.342-0.343h-0.965c-0.191,0-0.343,0.152-0.343,0.343v5.497c0,0.19,0.152,0.344,0.343,0.344h0.965
				C80.568,41.534,80.72,41.381,80.72,41.19z M80.81,33.408c0-0.547-0.394-0.991-0.938-0.991c-0.547,0-0.941,0.444-0.941,0.991
				c0,0.545,0.394,0.99,0.941,0.99C80.416,34.398,80.81,33.953,80.81,33.408z M78.105,35.77c0.076-0.267-0.049-0.419-0.241-0.419
				H76.81c-0.189,0-0.343,0.127-0.38,0.318l-0.735,3.592c-0.09,0.433-0.128,0.927-0.166,1.384c-0.051-0.457-0.063-0.964-0.153-1.371
				l-0.76-3.604c-0.039-0.191-0.19-0.318-0.381-0.318h-1.18c-0.191,0-0.318,0.152-0.243,0.419l1.601,5.447
				c0.063,0.202,0.204,0.317,0.407,0.317h1.296c0.203,0,0.342-0.115,0.406-0.317L78.105,35.77z M70.703,37.801h-1.562
				c0.051-0.635,0.204-1.245,0.8-1.245C70.54,36.556,70.666,37.141,70.703,37.801z M72.353,38.512c0-2.069-0.774-3.25-2.45-3.25
				c-1.561,0-2.488,1.32-2.488,3.161c0,2.172,1.042,3.202,2.678,3.202c0.827,0,1.359-0.104,1.931-0.358
				c0.151-0.063,0.268-0.189,0.202-0.381l-0.252-0.734c-0.052-0.167-0.14-0.279-0.355-0.204c-0.344,0.126-0.699,0.24-1.194,0.24
				c-1.042,0-1.219-0.52-1.283-1.333h2.87C72.202,38.854,72.353,38.703,72.353,38.512z M66.944,41.102l-0.151-0.799
				c-0.038-0.203-0.166-0.279-0.369-0.229c-0.089,0.026-0.254,0.038-0.367,0.038c-0.23,0-0.381-0.151-0.381-0.494v-3.022h0.774
				c0.19,0,0.343-0.152,0.343-0.343v-0.559c0-0.19-0.153-0.343-0.343-0.343h-0.774v-1.626c0-0.304-0.127-0.47-0.42-0.406
				l-0.927,0.216c-0.24,0.052-0.304,0.268-0.304,0.509v1.308h-0.648c-0.191,0-0.344,0.152-0.344,0.343v0.559
				c0,0.19,0.153,0.343,0.344,0.343h0.648v3.453c0,0.966,0.419,1.577,1.473,1.577c0.444,0,0.927-0.076,1.231-0.181
				C66.895,41.394,66.97,41.267,66.944,41.102z M62.424,41.19V36.85c0-0.953-0.609-1.588-1.561-1.588
				c-0.662,0-1.194,0.279-1.678,0.799l-0.088-0.404c-0.037-0.179-0.153-0.306-0.353-0.306h-0.739c-0.188,0-0.341,0.152-0.341,0.343
				v5.497c0,0.19,0.153,0.344,0.341,0.344h0.965c0.191,0,0.344-0.153,0.344-0.344v-3.288c0-0.736,0.393-1.258,0.94-1.258
				c0.393,0,0.52,0.229,0.52,0.534v4.012c0,0.19,0.152,0.344,0.345,0.344h0.962C62.272,41.534,62.424,41.381,62.424,41.19z
				 M55.023,38.411c0,1.461-0.458,1.79-0.953,1.79c-0.481,0-0.939-0.329-0.939-1.79c0-1.422,0.445-1.767,0.939-1.767
				C54.566,36.645,55.023,36.989,55.023,38.411z M56.66,38.423c0-1.918-0.9-3.161-2.577-3.161c-1.675,0-2.589,1.231-2.589,3.161
				c0,1.993,0.875,3.202,2.589,3.202C55.797,41.625,56.66,40.34,56.66,38.423z M50.682,41.178l-0.675-7.896
				c-0.011-0.191-0.215-0.355-0.405-0.355h-1.41c-0.189,0-0.405,0.126-0.444,0.317l-1.004,4.773
				c-0.062,0.305-0.126,1.156-0.164,1.588c-0.038-0.445-0.103-1.245-0.165-1.588l-0.966-4.773c-0.038-0.191-0.253-0.317-0.443-0.317
				h-1.449c-0.189,0-0.393,0.164-0.406,0.355l-0.686,7.896c-0.013,0.191,0.114,0.356,0.304,0.356h1.018
				c0.189,0,0.393-0.165,0.405-0.356l0.191-5.193c0.012-0.291-0.026-1.562-0.026-1.815c0.076,0.482,0.191,1.437,0.279,1.815
				l0.939,4.318c0.039,0.189,0.255,0.316,0.445,0.316h1.066c0.19,0,0.407-0.127,0.445-0.316l0.992-4.318
				c0.099-0.419,0.201-1.333,0.264-1.815c0,0.344-0.023,1.55-0.012,1.815l0.164,5.193c0,0.191,0.217,0.356,0.409,0.356h1.027
				C50.566,41.534,50.693,41.369,50.682,41.178z M40.396,37.916h-2.45c0.153-1.512,0.851-1.753,1.27-1.753
				C40.053,36.163,40.372,37.065,40.396,37.916z M41.438,38.461c0-2.4-1.08-3.11-2.248-3.11c-1.359,0-2.297,1.168-2.297,3.085
				c0,2.057,0.952,3.163,2.704,3.163c0.724,0,1.131-0.128,1.472-0.28c0.152-0.064,0.217-0.191,0.166-0.33l-0.113-0.317
				c-0.053-0.128-0.153-0.216-0.332-0.166c-0.379,0.114-0.724,0.203-1.206,0.203c-1.144,0-1.587-0.698-1.637-1.98h3.236
				C41.323,38.728,41.438,38.601,41.438,38.461z M34.391,38.512c0,1.524-0.418,2.248-1.245,2.248c-0.799,0-1.155-0.648-1.155-2.273
				c0-0.928,0.14-1.472,0.317-1.803c0.178-0.331,0.47-0.495,0.851-0.495C33.933,36.188,34.391,37.002,34.391,38.512z M35.354,41.279
				v-8.481c0-0.151-0.126-0.254-0.266-0.254h-0.457c-0.141,0-0.266,0.103-0.266,0.254v3.454c-0.331-0.596-0.801-0.901-1.423-0.901
				c-0.546,0-1.091,0.241-1.42,0.686c-0.432,0.583-0.611,1.206-0.611,2.463c0,2.057,0.687,3.1,1.993,3.1
				c0.661,0,1.118-0.242,1.486-0.864l0.1,0.545c0.041,0.178,0.141,0.255,0.332,0.255h0.265
				C35.228,41.534,35.354,41.419,35.354,41.279z M85.265,27.611c0,0.406-0.404,0.826-0.977,0.826c-0.216,0-0.547-0.165-0.547-0.622
				c0-0.852,0.561-0.978,1.523-0.978V27.611z M87.031,29.364l-0.063-0.368c-0.064-0.343-0.051-0.698-0.051-0.965v-2.006
				c0-1.105-0.077-2.59-2.425-2.59c-0.546,0-1.307,0.14-1.728,0.278c-0.203,0.064-0.266,0.189-0.216,0.407l0.179,0.711
				c0.037,0.177,0.189,0.279,0.418,0.203c0.318-0.103,0.828-0.218,1.27-0.218c0.724,0,0.85,0.242,0.85,0.902l-1.027,0.076
				c-1.563,0.115-2.133,0.928-2.133,2.02c0,1.206,0.508,1.981,1.675,1.981c0.774,0,1.41-0.293,1.726-0.75l0.053,0.305
				c0.038,0.228,0.139,0.354,0.356,0.354h0.824C86.968,29.706,87.069,29.579,87.031,29.364z M80.988,29.364v-5.497
				c0-0.191-0.152-0.344-0.342-0.344H79.68c-0.19,0-0.344,0.152-0.344,0.344v5.497c0,0.19,0.154,0.342,0.344,0.342h0.966
				C80.835,29.706,80.988,29.555,80.988,29.364z M81.076,21.58c0-0.545-0.392-0.989-0.938-0.989c-0.547,0-0.941,0.444-0.941,0.989
				c0,0.547,0.394,0.99,0.941,0.99C80.684,22.57,81.076,22.127,81.076,21.58z M78.169,29.199l-0.141-0.75
				c-0.039-0.177-0.138-0.278-0.354-0.215c-0.241,0.075-0.559,0.103-0.787,0.103c-0.939,0-1.295-0.534-1.295-1.804
				c0-1.154,0.457-1.677,1.27-1.677c0.279,0,0.431,0.063,0.608,0.115c0.242,0.063,0.357-0.052,0.407-0.204l0.228-0.724
				c0.038-0.141,0-0.305-0.228-0.394c-0.355-0.139-0.763-0.215-1.143-0.215c-1.892,0-2.844,1.37-2.844,3.098
				c0,2.271,1.054,3.264,2.717,3.264c0.471,0,0.952-0.062,1.358-0.218C78.169,29.504,78.207,29.377,78.169,29.199z M72.899,29.364
				v-4.343c0-0.952-0.608-1.586-1.561-1.586c-0.661,0-1.194,0.278-1.676,0.799l-0.089-0.406c-0.038-0.178-0.153-0.305-0.357-0.305
				h-0.736c-0.191,0-0.342,0.152-0.342,0.344v5.497c0,0.19,0.15,0.342,0.342,0.342h0.966c0.189,0,0.343-0.151,0.343-0.342v-3.289
				c0-0.736,0.393-1.258,0.938-1.258c0.395,0,0.521,0.229,0.521,0.534v4.013c0,0.19,0.153,0.342,0.344,0.342h0.964
				C72.748,29.706,72.899,29.555,72.899,29.364z M65.371,25.975H63.81c0.05-0.636,0.201-1.245,0.8-1.245
				C65.205,24.729,65.333,25.314,65.371,25.975z M67.022,26.686c0-2.069-0.775-3.25-2.452-3.25c-1.561,0-2.489,1.318-2.489,3.161
				c0,2.171,1.042,3.2,2.679,3.2c0.825,0,1.358-0.103,1.931-0.356c0.151-0.063,0.265-0.191,0.203-0.381l-0.255-0.737
				c-0.05-0.164-0.14-0.278-0.355-0.201c-0.343,0.125-0.7,0.24-1.194,0.24c-1.043,0-1.22-0.521-1.282-1.333h2.869
				C66.869,27.028,67.022,26.876,67.022,26.686z M59.492,26.621c0,1.232-0.307,1.701-0.825,1.701c-0.584,0-0.94-0.355-0.94-1.701
				c0-1.242,0.242-1.776,0.94-1.776C59.2,24.845,59.492,25.364,59.492,26.621z M61.079,29.364v-8.343
				c0-0.189-0.153-0.342-0.342-0.342h-0.965c-0.19,0-0.343,0.152-0.343,0.342v3.061c-0.279-0.343-0.711-0.646-1.372-0.646
				c-0.56,0-1.029,0.291-1.283,0.546c-0.595,0.596-0.76,1.561-0.76,2.552c0,2.742,1.041,3.264,2.095,3.264
				c0.622,0,1.229-0.433,1.447-0.89l0.101,0.457c0.051,0.203,0.229,0.342,0.42,0.342h0.659
				C60.926,29.706,61.079,29.555,61.079,29.364z M54.984,29.364v-4.343c0-0.952-0.609-1.586-1.562-1.586
				c-0.659,0-1.191,0.278-1.674,0.799l-0.089-0.406c-0.039-0.178-0.153-0.305-0.356-0.305h-0.737c-0.19,0-0.342,0.152-0.342,0.344
				v5.497c0,0.19,0.152,0.342,0.342,0.342h0.966c0.189,0,0.341-0.151,0.341-0.342v-3.289c0-0.736,0.395-1.258,0.94-1.258
				c0.394,0,0.521,0.229,0.521,0.534v4.013c0,0.19,0.151,0.342,0.342,0.342h0.967C54.832,29.706,54.984,29.555,54.984,29.364z
				 M47.456,25.975h-1.563c0.051-0.636,0.204-1.245,0.8-1.245C47.291,24.729,47.418,25.314,47.456,25.975z M49.106,26.686
				c0-2.069-0.774-3.25-2.45-3.25c-1.562,0-2.489,1.318-2.489,3.161c0,2.171,1.041,3.2,2.679,3.2c0.824,0,1.358-0.103,1.93-0.356
				c0.152-0.063,0.267-0.191,0.203-0.381l-0.254-0.737c-0.051-0.164-0.139-0.278-0.356-0.201c-0.342,0.125-0.699,0.24-1.193,0.24
				c-1.042,0-1.219-0.521-1.283-1.333h2.871C48.953,27.028,49.106,26.876,49.106,26.686z M43.698,29.275l-0.152-0.801
				c-0.039-0.202-0.166-0.279-0.369-0.229c-0.089,0.026-0.253,0.039-0.367,0.039c-0.229,0-0.381-0.152-0.381-0.495v-3.022h0.775
				c0.189,0,0.342-0.151,0.342-0.343v-0.558c0-0.191-0.153-0.344-0.342-0.344h-0.775v-1.625c0-0.305-0.127-0.47-0.419-0.406
				l-0.928,0.216c-0.241,0.051-0.304,0.267-0.304,0.509v1.307H40.13c-0.191,0-0.345,0.152-0.345,0.344v0.558
				c0,0.191,0.154,0.343,0.345,0.343h0.647v3.454c0,0.965,0.417,1.575,1.472,1.575c0.445,0,0.927-0.074,1.232-0.178
				C43.647,29.567,43.723,29.44,43.698,29.275z M39.177,29.364v-4.343c0-0.952-0.608-1.586-1.562-1.586
				c-0.66,0-1.193,0.278-1.676,0.799l-0.088-0.406c-0.038-0.178-0.153-0.305-0.356-0.305h-0.737c-0.19,0-0.343,0.152-0.343,0.344
				v5.497c0,0.19,0.153,0.342,0.343,0.342h0.965c0.191,0,0.344-0.151,0.344-0.342v-3.289c0-0.736,0.394-1.258,0.939-1.258
				c0.393,0,0.52,0.229,0.52,0.534v4.013c0,0.19,0.152,0.342,0.343,0.342h0.966C39.025,29.706,39.177,29.555,39.177,29.364z
				 M32.917,29.352v-7.897c0-0.19-0.164-0.355-0.355-0.355h-1.054c-0.19,0-0.356,0.165-0.356,0.355v7.897
				c0,0.19,0.166,0.354,0.356,0.354h1.054C32.753,29.706,32.917,29.542,32.917,29.352z"/>
			<path fill-rule="evenodd" clip-rule="evenodd" fill="#FF8900" d="M18.082,25.393l-1.844-1.069
				c-0.001-0.001-0.003-0.004-0.006-0.004l-3.271-1.9c-0.028-0.016-0.055-0.024-0.085-0.039c-0.023-0.01-0.049-0.021-0.071-0.032
				c-0.042-0.017-0.083-0.03-0.126-0.042c-0.029-0.01-0.057-0.017-0.087-0.021c-0.047-0.009-0.093-0.015-0.14-0.021
				c-0.023-0.003-0.045-0.004-0.069-0.004c-0.054-0.001-0.108,0.001-0.164,0.01c-0.016,0-0.035,0.003-0.051,0.007
				c-0.056,0.008-0.108,0.021-0.163,0.037c-0.024,0.009-0.048,0.017-0.071,0.025c-0.034,0.013-0.068,0.03-0.101,0.047
				c-0.026,0.014-0.056,0.021-0.083,0.038l-1.791,1.031l-3.381,1.947c-0.575,0.33-0.792,1.031-0.488,1.562
				c0.308,0.531,1.02,0.694,1.596,0.362l1.862-1.071c0.002,0,0.004-0.002,0.004-0.002l2.805-1.614l1.231,0.716
				c0.002,0,0.002,0,0.003,0l3.377,1.958c0.572,0.334,1.29,0.174,1.595-0.358C18.869,26.427,18.656,25.726,18.082,25.393
				 M17.748,41.797h-1.335c-0.271,0-0.58-0.233-0.58-0.506c0,0-0.347-7.236-0.347-7.728c-0.088,0.688-2.178,7.757-2.178,7.757
				c-0.056,0.271-0.364,0.451-0.636,0.451h-0.702c-0.272,0-0.579-0.18-0.634-0.451c0,0-2.061-7.069-2.169-7.757
				c0,0.361-0.363,7.728-0.363,7.728c-0.021,0.272-0.307,0.506-0.579,0.506H6.906c-0.272,0-0.455-0.233-0.434-0.506L7.45,30.032
				c0.016-0.272,0.306-0.51,0.578-0.51h1.549c0.27,0,0.577,0.181,0.633,0.453c0,0,2.071,7.36,2.128,7.994
				c0.052-0.615,2.137-7.994,2.137-7.994c0.057-0.272,0.363-0.453,0.635-0.453h1.537c0.269,0,0.559,0.237,0.579,0.51l0.958,11.259
				C18.201,41.563,18.022,41.797,17.748,41.797z M3.16,18.561h18.337c1.354,0,2.418,1.12,2.418,2.418v23.001
				c0,1.296-1.063,2.415-2.418,2.415H3.16c-1.359,0-2.42-1.119-2.42-2.415V20.979C0.74,19.681,1.801,18.561,3.16,18.561z"/>
		</g>
		<g>
			<rect x="1.445" y="2.138" fill="none" width="105.816" height="10.706"/>
			<text transform="matrix(1 0 0 1 1.4448 8.2783)" fill="#7D7D7D" font-family="'ProximaNova-Light'" font-size="9.2069">Declarado de interés </text>
		</g>
	</g>
</g>
<g id="Layer_3" display="none">
</g>
</svg>
