<?xml version="1.0" encoding="utf-8"?>
<!-- Generator: Adobe Illustrator 16.0.0, SVG Export Plug-In . SVG Version: 6.00 Build 0)  -->
<!DOCTYPE svg PUBLIC "-//W3C//DTD SVG 1.1//EN" "http://www.w3.org/Graphics/SVG/1.1/DTD/svg11.dtd">
<svg version="1.1" xmlns="http://www.w3.org/2000/svg" xmlns:xlink="http://www.w3.org/1999/xlink" x="0px" y="0px" width="94px"
	 height="52px" viewBox="0 0 94 52" enable-background="new 0 0 94 52" xml:space="preserve">
<g id="Capa_2">
</g>
<g id="Capa_1">
	<g>
		<rect x="0.747" y="0.963" width="21.765" height="25.047"/>
		<rect x="24.327" y="0.963" width="21.766" height="25.047"/>
		<rect x="47.905" y="0.963" width="21.767" height="25.047"/>
		<rect x="71.485" y="0.963" width="21.768" height="25.047"/>
		<polygon fill="#FFFFFF" points="64.562,6.396 64.764,6.599 64.764,8.83 64.562,9.034 60.229,9.034 60.229,17.939 64.562,17.939 
			64.764,18.143 64.764,20.376 64.562,20.579 53.014,20.579 52.812,20.376 52.812,18.143 53.014,17.939 57.349,17.939 57.349,9.034 
			53.014,9.034 52.812,8.83 52.812,6.599 53.014,6.396 		"/>
		<polygon fill="#FFFFFF" points="88.142,6.396 88.345,6.599 88.345,8.83 88.142,9.034 83.809,9.034 83.809,17.939 88.142,17.939 
			88.345,18.142 88.345,20.376 88.142,20.579 76.595,20.579 76.393,20.376 76.393,18.142 76.595,17.939 80.929,17.939 80.929,9.034 
			76.595,9.034 76.393,8.83 76.393,6.599 76.595,6.396 		"/>
		<polygon fill="#FFFFFF" points="40.965,6.397 38.493,6.397 38.291,6.6 38.291,13.373 32.127,8.881 32.127,6.6 31.925,6.397 
			29.451,6.397 29.248,6.6 29.248,20.377 29.451,20.58 31.925,20.58 32.127,20.377 32.127,12.442 38.291,16.935 38.291,20.377 
			38.493,20.58 40.965,20.58 41.169,20.377 41.169,6.6 		"/>
		<rect x="7.992" y="15.556" fill="#FFFFFF" width="7.273" height="2.638"/>
		<polygon fill="#FFFFFF" points="11.73,9.989 14.727,15.551 14.727,20.372 14.931,20.577 17.402,20.577 17.605,20.372 
			17.605,14.823 13.147,6.599 12.881,6.396 10.377,6.396 10.109,6.599 5.653,14.823 5.653,20.372 5.855,20.577 8.329,20.577 
			8.531,20.372 8.531,15.551 11.528,9.989 		"/>
		<path d="M3.21,34.514c-0.042-0.259-0.104-0.509-0.188-0.753c-0.083-0.241-0.172-0.466-0.269-0.67
			c-0.095-0.204-0.186-0.381-0.272-0.533c-0.085-0.151-0.151-0.267-0.197-0.344H2.278c-0.045,0.077-0.111,0.192-0.197,0.344
			c-0.087,0.152-0.177,0.329-0.273,0.533c-0.095,0.204-0.184,0.429-0.268,0.67c-0.084,0.244-0.147,0.494-0.187,0.753H3.21z
			 M2.618,31.697c0.123,0.199,0.253,0.424,0.392,0.672c0.138,0.25,0.268,0.518,0.387,0.805c0.121,0.286,0.22,0.584,0.299,0.894
			c0.08,0.311,0.12,0.625,0.12,0.942v0.96c0,0.049-0.018,0.091-0.051,0.125c-0.033,0.034-0.076,0.052-0.126,0.052H3.427
			c-0.049,0-0.091-0.018-0.125-0.052C3.269,36.061,3.25,36.019,3.25,35.97v-0.897H1.312v0.897c0,0.049-0.018,0.091-0.052,0.125
			c-0.034,0.034-0.076,0.052-0.126,0.052H0.923c-0.05,0-0.091-0.018-0.125-0.052c-0.034-0.034-0.051-0.076-0.051-0.125v-0.96
			c0-0.317,0.04-0.632,0.12-0.942c0.079-0.31,0.179-0.607,0.3-0.894c0.12-0.287,0.249-0.555,0.388-0.805
			c0.137-0.248,0.268-0.473,0.391-0.672c0.032-0.051,0.064-0.092,0.099-0.127c0.033-0.032,0.075-0.05,0.125-0.05h0.225
			c0.051,0,0.093,0.018,0.126,0.05C2.553,31.605,2.586,31.646,2.618,31.697"/>
		<path d="M8.136,34.105c0,0.208-0.01,0.403-0.03,0.581c-0.021,0.18-0.049,0.325-0.085,0.439c-0.113,0.354-0.308,0.624-0.583,0.812
			c-0.275,0.188-0.605,0.282-0.991,0.282c-0.396,0-0.73-0.091-1.002-0.271c-0.272-0.182-0.468-0.451-0.586-0.811
			c-0.023-0.066-0.042-0.138-0.055-0.21c-0.014-0.073-0.026-0.158-0.037-0.255c-0.01-0.097-0.02-0.215-0.025-0.351
			c-0.003-0.136-0.006-0.299-0.006-0.49c0-0.19,0.003-0.354,0.006-0.489c0.005-0.138,0.015-0.254,0.025-0.35
			c0.011-0.099,0.023-0.184,0.037-0.256c0.013-0.073,0.031-0.144,0.054-0.211c0.118-0.358,0.313-0.628,0.585-0.811
			c0.272-0.181,0.605-0.271,0.999-0.271c0.381,0,0.693,0.079,0.937,0.238c0.242,0.158,0.427,0.353,0.553,0.585
			c0.024,0.045,0.029,0.091,0.015,0.137c-0.015,0.044-0.043,0.078-0.089,0.102l-0.21,0.101c-0.095,0.056-0.175,0.029-0.238-0.073
			c-0.109-0.178-0.24-0.309-0.392-0.395c-0.152-0.087-0.343-0.13-0.576-0.13c-0.262,0-0.476,0.06-0.643,0.177
			c-0.165,0.118-0.284,0.287-0.356,0.511c-0.014,0.041-0.027,0.091-0.041,0.148c-0.014,0.061-0.023,0.133-0.03,0.219
			c-0.007,0.087-0.013,0.191-0.017,0.315c-0.005,0.126-0.007,0.277-0.007,0.453c0,0.177,0.002,0.328,0.007,0.453
			c0.004,0.124,0.01,0.229,0.017,0.315c0.007,0.087,0.016,0.159,0.03,0.218c0.014,0.061,0.027,0.109,0.041,0.15
			c0.072,0.222,0.191,0.392,0.356,0.511c0.167,0.117,0.38,0.177,0.643,0.177c0.235,0,0.443-0.058,0.62-0.171
			c0.177-0.113,0.301-0.278,0.374-0.497c0.022-0.076,0.043-0.175,0.062-0.293c0.018-0.117,0.027-0.262,0.027-0.434
			c0-0.028-0.014-0.042-0.042-0.042H6.694c-0.051,0-0.093-0.016-0.126-0.051c-0.035-0.034-0.051-0.075-0.051-0.126v-0.176
			c0-0.051,0.016-0.093,0.051-0.127c0.033-0.034,0.075-0.052,0.126-0.052h1.263c0.049,0,0.093,0.018,0.127,0.052
			c0.034,0.034,0.051,0.076,0.051,0.127V34.105z"/>
		<path d="M9.287,36.146c-0.051,0-0.093-0.018-0.127-0.052c-0.035-0.034-0.051-0.076-0.051-0.125v-4.272
			c0-0.051,0.017-0.092,0.051-0.127c0.034-0.032,0.076-0.05,0.127-0.05h2.571c0.049,0,0.091,0.018,0.126,0.05
			c0.034,0.035,0.05,0.076,0.05,0.127v0.211c0,0.05-0.016,0.092-0.05,0.125c-0.035,0.035-0.077,0.052-0.126,0.052H9.762
			c-0.028,0-0.042,0.014-0.042,0.041v1.36c0,0.027,0.013,0.04,0.042,0.04h1.761c0.05,0,0.091,0.018,0.126,0.052
			c0.034,0.034,0.051,0.076,0.051,0.126v0.21c0,0.052-0.017,0.093-0.051,0.126c-0.036,0.034-0.076,0.052-0.126,0.052H9.762
			c-0.028,0-0.042,0.014-0.042,0.04v1.409c0,0.027,0.013,0.041,0.042,0.041h2.096c0.049,0,0.091,0.017,0.126,0.051
			c0.034,0.034,0.05,0.076,0.05,0.125v0.212c0,0.049-0.016,0.091-0.05,0.125c-0.035,0.034-0.077,0.052-0.126,0.052H9.287z"/>
		<path d="M15.681,31.697c0-0.051,0.018-0.092,0.052-0.127c0.034-0.032,0.077-0.05,0.127-0.05h0.214c0.05,0,0.093,0.018,0.126,0.05
			c0.034,0.035,0.053,0.076,0.053,0.127v4.272c0,0.049-0.019,0.091-0.053,0.125s-0.076,0.052-0.126,0.052H15.86
			c-0.051,0-0.094-0.018-0.127-0.052c-0.034-0.034-0.052-0.076-0.052-0.125v-0.905l-2.15-1.952h-0.02v2.857
			c0,0.049-0.017,0.091-0.051,0.125c-0.035,0.034-0.078,0.052-0.128,0.052h-0.213c-0.05,0-0.092-0.018-0.127-0.052
			c-0.036-0.034-0.052-0.076-0.052-0.125v-4.272c0-0.051,0.016-0.092,0.052-0.127c0.035-0.032,0.077-0.05,0.127-0.05h0.213
			c0.05,0,0.093,0.018,0.128,0.05c0.034,0.035,0.051,0.076,0.051,0.127v0.577l2.144,1.967h0.027V31.697z"/>
		<path d="M20.313,35.391c-0.14,0.268-0.332,0.474-0.574,0.616c-0.243,0.144-0.526,0.214-0.855,0.214
			c-0.379,0-0.702-0.089-0.965-0.268c-0.264-0.18-0.454-0.453-0.573-0.82c-0.022-0.068-0.041-0.138-0.058-0.208
			c-0.015-0.07-0.028-0.153-0.037-0.252c-0.01-0.096-0.016-0.214-0.021-0.35c-0.005-0.136-0.007-0.301-0.007-0.49
			c0-0.19,0.002-0.354,0.007-0.49c0.004-0.137,0.011-0.252,0.021-0.349c0.008-0.099,0.021-0.184,0.037-0.254
			c0.017-0.069,0.035-0.139,0.058-0.206c0.119-0.369,0.309-0.641,0.573-0.82c0.263-0.179,0.585-0.269,0.965-0.269
			c0.329,0,0.612,0.071,0.855,0.215c0.242,0.143,0.434,0.347,0.574,0.614c0.023,0.046,0.028,0.092,0.015,0.137
			c-0.015,0.047-0.043,0.079-0.09,0.102l-0.209,0.104c-0.046,0.022-0.091,0.028-0.137,0.017s-0.08-0.043-0.103-0.092
			c-0.085-0.159-0.203-0.287-0.35-0.385c-0.147-0.098-0.332-0.146-0.555-0.146c-0.254,0-0.458,0.06-0.611,0.177
			c-0.155,0.118-0.27,0.286-0.347,0.503c-0.015,0.051-0.026,0.104-0.038,0.161c-0.012,0.057-0.021,0.127-0.027,0.21
			c-0.008,0.085-0.013,0.189-0.018,0.313s-0.006,0.277-0.006,0.459s0.001,0.334,0.006,0.46c0.005,0.124,0.009,0.229,0.018,0.313
			c0.006,0.083,0.015,0.154,0.027,0.213c0.011,0.061,0.022,0.111,0.038,0.157c0.077,0.218,0.191,0.385,0.347,0.504
			c0.153,0.117,0.357,0.176,0.611,0.176c0.223,0,0.406-0.05,0.552-0.146c0.145-0.099,0.263-0.226,0.353-0.385
			c0.029-0.051,0.064-0.08,0.107-0.092c0.042-0.012,0.086-0.006,0.133,0.017l0.209,0.102c0.046,0.023,0.075,0.058,0.09,0.103
			C20.341,35.301,20.336,35.346,20.313,35.391"/>
		<path d="M22.41,31.521c0.049,0,0.091,0.018,0.125,0.05c0.035,0.035,0.052,0.076,0.052,0.127v0.211c0,0.05-0.018,0.092-0.052,0.125
			c-0.034,0.035-0.076,0.052-0.125,0.052h-0.34v3.497h0.34c0.049,0,0.091,0.017,0.125,0.051c0.035,0.034,0.052,0.076,0.052,0.125
			v0.212c0,0.049-0.018,0.091-0.052,0.125c-0.034,0.034-0.076,0.052-0.125,0.052h-0.773h-0.027h-0.492
			c-0.05,0-0.092-0.018-0.125-0.052c-0.034-0.034-0.051-0.076-0.051-0.125v-0.212c0-0.049,0.017-0.091,0.051-0.125
			c0.034-0.034,0.076-0.051,0.125-0.051h0.34v-3.497h-0.34c-0.05,0-0.092-0.017-0.125-0.052C20.957,32,20.94,31.958,20.94,31.908
			v-0.211c0-0.051,0.017-0.092,0.051-0.127c0.034-0.032,0.076-0.05,0.125-0.05H22.41z"/>
		<path d="M25.818,34.514c-0.041-0.259-0.104-0.509-0.187-0.753c-0.084-0.241-0.174-0.466-0.269-0.67
			c-0.096-0.204-0.187-0.381-0.272-0.533c-0.086-0.151-0.151-0.267-0.197-0.344h-0.006c-0.046,0.077-0.111,0.192-0.198,0.344
			c-0.086,0.152-0.177,0.329-0.272,0.533c-0.095,0.204-0.185,0.429-0.269,0.67c-0.084,0.244-0.146,0.494-0.187,0.753H25.818z
			 M25.226,31.697c0.124,0.199,0.253,0.424,0.392,0.672c0.138,0.25,0.267,0.518,0.388,0.805c0.12,0.286,0.22,0.584,0.299,0.894
			c0.079,0.311,0.119,0.625,0.119,0.942v0.96c0,0.049-0.017,0.091-0.051,0.125c-0.033,0.034-0.076,0.052-0.126,0.052h-0.21
			c-0.05,0-0.092-0.018-0.126-0.052c-0.034-0.034-0.05-0.076-0.05-0.125v-0.897H23.92v0.897c0,0.049-0.018,0.091-0.051,0.125
			c-0.034,0.034-0.076,0.052-0.126,0.052h-0.21c-0.05,0-0.092-0.018-0.126-0.052c-0.033-0.034-0.051-0.076-0.051-0.125v-0.96
			c0-0.317,0.039-0.632,0.119-0.942c0.079-0.31,0.179-0.607,0.299-0.894c0.119-0.287,0.249-0.555,0.388-0.805
			c0.138-0.248,0.269-0.473,0.391-0.672c0.032-0.051,0.065-0.092,0.099-0.127c0.034-0.032,0.076-0.05,0.126-0.05h0.225
			c0.048,0,0.09,0.018,0.125,0.05C25.161,31.605,25.195,31.646,25.226,31.697"/>
		<path d="M31.88,31.697c0-0.051,0.018-0.092,0.052-0.127c0.034-0.032,0.076-0.05,0.127-0.05h0.214c0.05,0,0.093,0.018,0.127,0.05
			c0.035,0.035,0.052,0.076,0.052,0.127v4.272c0,0.049-0.018,0.091-0.052,0.125c-0.034,0.034-0.077,0.052-0.127,0.052h-0.214
			c-0.051,0-0.093-0.018-0.127-0.052c-0.035-0.034-0.052-0.076-0.052-0.125v-0.905l-2.15-1.952h-0.02v2.857
			c0,0.049-0.017,0.091-0.051,0.125c-0.035,0.034-0.078,0.052-0.128,0.052h-0.212c-0.051,0-0.093-0.018-0.128-0.052
			s-0.051-0.076-0.051-0.125v-4.272c0-0.051,0.017-0.092,0.051-0.127c0.035-0.032,0.077-0.05,0.128-0.05h0.212
			c0.051,0,0.094,0.018,0.128,0.05c0.034,0.035,0.051,0.076,0.051,0.127v0.577l2.143,1.967h0.027V31.697z"/>
		<path d="M35.983,34.514c-0.041-0.259-0.103-0.509-0.187-0.753c-0.084-0.241-0.173-0.466-0.269-0.67
			c-0.097-0.204-0.186-0.381-0.272-0.533c-0.086-0.151-0.152-0.267-0.198-0.344H35.05c-0.045,0.077-0.111,0.192-0.197,0.344
			c-0.086,0.152-0.177,0.329-0.271,0.533c-0.096,0.204-0.185,0.429-0.27,0.67c-0.084,0.244-0.146,0.494-0.187,0.753H35.983z
			 M35.391,31.697c0.122,0.199,0.253,0.424,0.391,0.672c0.139,0.25,0.268,0.518,0.388,0.805c0.119,0.286,0.22,0.584,0.298,0.894
			c0.08,0.311,0.121,0.625,0.121,0.942v0.96c0,0.049-0.018,0.091-0.052,0.125c-0.033,0.034-0.075,0.052-0.125,0.052H36.2
			c-0.049,0-0.091-0.018-0.125-0.052s-0.051-0.076-0.051-0.125v-0.897h-1.939v0.897c0,0.049-0.018,0.091-0.052,0.125
			c-0.034,0.034-0.075,0.052-0.125,0.052h-0.21c-0.05,0-0.092-0.018-0.125-0.052c-0.034-0.034-0.052-0.076-0.052-0.125v-0.96
			c0-0.317,0.04-0.632,0.119-0.942c0.08-0.31,0.179-0.607,0.3-0.894c0.12-0.287,0.249-0.555,0.388-0.805
			c0.139-0.248,0.269-0.473,0.391-0.672c0.032-0.051,0.063-0.092,0.099-0.127c0.035-0.032,0.076-0.05,0.126-0.05h0.225
			c0.05,0,0.091,0.018,0.126,0.05C35.326,31.605,35.359,31.646,35.391,31.697"/>
		<path d="M40.459,35.391c-0.142,0.268-0.332,0.474-0.575,0.616c-0.243,0.144-0.527,0.214-0.854,0.214
			c-0.38,0-0.704-0.089-0.966-0.268c-0.264-0.18-0.453-0.453-0.572-0.82c-0.022-0.068-0.042-0.138-0.058-0.208
			c-0.016-0.07-0.029-0.153-0.038-0.252c-0.009-0.096-0.015-0.214-0.02-0.35c-0.006-0.136-0.007-0.301-0.007-0.49
			c0-0.19,0.001-0.354,0.007-0.49c0.004-0.137,0.011-0.252,0.02-0.349c0.009-0.099,0.021-0.184,0.038-0.254
			c0.016-0.069,0.036-0.139,0.058-0.206c0.119-0.369,0.308-0.641,0.572-0.82c0.262-0.179,0.585-0.269,0.966-0.269
			c0.327,0,0.611,0.071,0.854,0.215c0.243,0.143,0.434,0.347,0.575,0.614c0.022,0.046,0.027,0.092,0.013,0.137
			c-0.013,0.047-0.042,0.079-0.088,0.102l-0.211,0.104c-0.045,0.022-0.09,0.028-0.135,0.017c-0.046-0.012-0.081-0.043-0.103-0.092
			c-0.086-0.159-0.203-0.287-0.35-0.385s-0.333-0.146-0.555-0.146c-0.253,0-0.458,0.06-0.611,0.177
			c-0.155,0.118-0.271,0.286-0.349,0.503c-0.013,0.051-0.024,0.104-0.036,0.161c-0.012,0.057-0.021,0.127-0.028,0.21
			c-0.006,0.085-0.012,0.189-0.018,0.313c-0.003,0.124-0.005,0.277-0.005,0.459s0.002,0.334,0.005,0.46
			c0.006,0.124,0.011,0.229,0.018,0.313c0.008,0.083,0.017,0.154,0.028,0.213c0.012,0.061,0.023,0.111,0.036,0.157
			c0.078,0.218,0.194,0.385,0.349,0.504c0.153,0.117,0.358,0.176,0.611,0.176c0.221,0,0.406-0.05,0.551-0.146
			c0.146-0.099,0.263-0.226,0.354-0.385c0.028-0.051,0.062-0.08,0.105-0.092c0.044-0.012,0.088-0.006,0.133,0.017l0.211,0.102
			c0.046,0.023,0.075,0.058,0.088,0.103C40.486,35.301,40.482,35.346,40.459,35.391"/>
		<path d="M42.555,31.521c0.049,0,0.092,0.018,0.125,0.05c0.034,0.035,0.052,0.076,0.052,0.127v0.211
			c0,0.05-0.018,0.092-0.052,0.125c-0.034,0.035-0.076,0.052-0.125,0.052h-0.341v3.497h0.341c0.049,0,0.092,0.017,0.125,0.051
			s0.052,0.076,0.052,0.125v0.212c0,0.049-0.018,0.091-0.052,0.125s-0.076,0.052-0.125,0.052H41.78h-0.027h-0.492
			c-0.049,0-0.091-0.018-0.125-0.052c-0.033-0.034-0.051-0.076-0.051-0.125v-0.212c0-0.049,0.018-0.091,0.051-0.125
			c0.035-0.034,0.077-0.051,0.125-0.051h0.339v-3.497h-0.339c-0.049,0-0.091-0.017-0.125-0.052
			c-0.033-0.033-0.051-0.075-0.051-0.125v-0.211c0-0.051,0.018-0.092,0.051-0.127c0.035-0.032,0.077-0.05,0.125-0.05H42.555z"/>
		<path d="M45.099,35.657c0.259,0,0.47-0.06,0.633-0.179c0.163-0.117,0.28-0.287,0.353-0.509c0.014-0.041,0.026-0.093,0.038-0.152
			c0.011-0.062,0.022-0.138,0.034-0.229c0.012-0.091,0.02-0.197,0.025-0.319c0.005-0.123,0.006-0.269,0.006-0.437
			s-0.001-0.312-0.006-0.436c-0.005-0.122-0.013-0.229-0.025-0.319c-0.011-0.092-0.022-0.166-0.034-0.229
			c-0.011-0.062-0.024-0.111-0.038-0.152c-0.073-0.224-0.19-0.394-0.353-0.511c-0.163-0.118-0.375-0.177-0.633-0.177
			s-0.469,0.059-0.629,0.177c-0.161,0.117-0.278,0.287-0.351,0.511c-0.014,0.041-0.027,0.091-0.037,0.152
			c-0.012,0.062-0.023,0.137-0.034,0.229c-0.012,0.091-0.02,0.197-0.023,0.319c-0.005,0.123-0.007,0.268-0.007,0.436
			s0.002,0.313,0.007,0.437c0.004,0.122,0.012,0.229,0.023,0.319c0.011,0.091,0.022,0.166,0.034,0.229
			c0.01,0.06,0.023,0.111,0.037,0.152c0.073,0.222,0.19,0.392,0.351,0.509C44.63,35.598,44.84,35.657,45.099,35.657 M45.099,36.221
			c-0.391,0-0.72-0.091-0.99-0.271c-0.27-0.182-0.463-0.451-0.582-0.811c-0.022-0.066-0.042-0.138-0.057-0.21
			c-0.017-0.073-0.029-0.158-0.038-0.256c-0.009-0.096-0.016-0.214-0.02-0.35s-0.006-0.301-0.006-0.49
			c0-0.19,0.002-0.354,0.006-0.489c0.004-0.137,0.011-0.254,0.02-0.352c0.009-0.097,0.021-0.182,0.038-0.254
			c0.016-0.073,0.035-0.144,0.057-0.211c0.118-0.358,0.312-0.628,0.582-0.811c0.27-0.182,0.6-0.271,0.99-0.271
			c0.395,0,0.727,0.09,0.997,0.271c0.27,0.183,0.463,0.452,0.582,0.811c0.022,0.067,0.042,0.138,0.057,0.211
			c0.016,0.072,0.029,0.157,0.038,0.254c0.009,0.098,0.016,0.215,0.021,0.352c0.004,0.136,0.006,0.299,0.006,0.489
			c0,0.189-0.002,0.354-0.006,0.49s-0.011,0.254-0.021,0.35c-0.009,0.098-0.021,0.183-0.038,0.256
			c-0.015,0.072-0.035,0.144-0.057,0.21c-0.119,0.359-0.312,0.629-0.582,0.811C45.826,36.13,45.494,36.221,45.099,36.221"/>
		<path d="M50.521,31.697c0-0.051,0.018-0.092,0.052-0.127c0.034-0.032,0.077-0.05,0.127-0.05h0.214c0.05,0,0.091,0.018,0.127,0.05
			c0.035,0.035,0.051,0.076,0.051,0.127v4.272c0,0.049-0.016,0.091-0.051,0.125c-0.036,0.034-0.077,0.052-0.127,0.052h-0.214
			c-0.05,0-0.093-0.018-0.127-0.052c-0.035-0.034-0.052-0.076-0.052-0.125v-0.905l-2.15-1.952h-0.02v2.857
			c0,0.049-0.018,0.091-0.051,0.125c-0.034,0.034-0.078,0.052-0.128,0.052h-0.214c-0.049,0-0.093-0.018-0.126-0.052
			c-0.034-0.034-0.052-0.076-0.052-0.125v-4.272c0-0.051,0.018-0.092,0.052-0.127c0.033-0.032,0.077-0.05,0.126-0.05h0.214
			c0.05,0,0.094,0.018,0.128,0.05c0.034,0.035,0.051,0.076,0.051,0.127v0.577l2.144,1.967h0.026V31.697z"/>
		<path d="M54.625,34.514c-0.041-0.259-0.103-0.509-0.187-0.753c-0.084-0.241-0.174-0.466-0.269-0.67s-0.186-0.381-0.272-0.533
			c-0.087-0.151-0.154-0.267-0.198-0.344h-0.006c-0.046,0.077-0.112,0.192-0.198,0.344c-0.087,0.152-0.177,0.329-0.272,0.533
			c-0.095,0.204-0.185,0.429-0.269,0.67c-0.084,0.244-0.147,0.494-0.188,0.753H54.625z M54.033,31.697
			c0.122,0.199,0.252,0.424,0.391,0.672c0.138,0.25,0.268,0.518,0.388,0.805c0.119,0.286,0.22,0.584,0.298,0.894
			c0.08,0.311,0.12,0.625,0.12,0.942v0.96c0,0.049-0.017,0.091-0.051,0.125c-0.033,0.034-0.076,0.052-0.125,0.052h-0.21
			c-0.05,0-0.092-0.018-0.125-0.052c-0.034-0.034-0.052-0.076-0.052-0.125v-0.897h-1.938v0.897c0,0.049-0.018,0.091-0.052,0.125
			c-0.033,0.034-0.076,0.052-0.125,0.052h-0.211c-0.049,0-0.092-0.018-0.125-0.052c-0.034-0.034-0.052-0.076-0.052-0.125v-0.96
			c0-0.317,0.04-0.632,0.119-0.942c0.079-0.31,0.179-0.607,0.3-0.894c0.12-0.287,0.249-0.555,0.387-0.805
			c0.138-0.248,0.269-0.473,0.392-0.672c0.032-0.051,0.064-0.092,0.099-0.127c0.034-0.032,0.075-0.05,0.125-0.05h0.224
			c0.051,0,0.093,0.018,0.126,0.05C53.968,31.605,54.001,31.646,54.033,31.697"/>
		<path d="M56.311,31.697c0-0.051,0.018-0.092,0.052-0.127c0.034-0.032,0.077-0.05,0.127-0.05h0.254c0.051,0,0.093,0.018,0.126,0.05
			c0.035,0.035,0.053,0.076,0.053,0.127v3.844c0,0.027,0.014,0.04,0.041,0.04h2.096c0.049,0,0.091,0.018,0.126,0.052
			c0.033,0.034,0.051,0.076,0.051,0.125v0.212c0,0.049-0.018,0.091-0.051,0.125c-0.035,0.034-0.077,0.052-0.126,0.052h-2.57
			c-0.05,0-0.093-0.018-0.127-0.052c-0.035-0.034-0.052-0.076-0.052-0.125V31.697z"/>
		<path d="M1.428,42.949c0,0.027,0.014,0.04,0.04,0.04h0.848c0.281,0,0.506-0.048,0.678-0.146c0.172-0.097,0.295-0.26,0.373-0.486
			c0.013-0.041,0.028-0.088,0.041-0.144c0.014-0.054,0.023-0.123,0.03-0.208c0.007-0.083,0.013-0.187,0.017-0.309
			c0.005-0.121,0.008-0.275,0.008-0.456s-0.002-0.333-0.008-0.455c-0.003-0.123-0.009-0.227-0.017-0.31
			c-0.007-0.084-0.016-0.152-0.03-0.208c-0.013-0.054-0.027-0.103-0.041-0.144c-0.078-0.226-0.201-0.388-0.373-0.486
			c-0.172-0.098-0.397-0.146-0.678-0.146H1.468c-0.026,0-0.04,0.013-0.04,0.041V42.949z M0.993,43.554
			c-0.05,0-0.092-0.017-0.127-0.05c-0.034-0.034-0.05-0.075-0.05-0.126v-4.272c0-0.05,0.017-0.091,0.05-0.125
			c0.035-0.035,0.077-0.052,0.127-0.052h1.449c0.792,0,1.296,0.328,1.51,0.985c0.016,0.064,0.034,0.131,0.051,0.198
			c0.016,0.068,0.03,0.151,0.041,0.251c0.012,0.1,0.02,0.221,0.023,0.36c0.005,0.141,0.007,0.313,0.007,0.518
			s-0.001,0.377-0.007,0.518c-0.003,0.141-0.012,0.261-0.023,0.36c-0.011,0.1-0.025,0.183-0.041,0.251
			c-0.017,0.069-0.035,0.135-0.051,0.197c-0.214,0.658-0.718,0.986-1.51,0.986H0.993z"/>
		<path d="M5.233,43.554c-0.051,0-0.092-0.017-0.128-0.05c-0.034-0.034-0.051-0.075-0.051-0.126v-4.272
			c0-0.05,0.018-0.091,0.051-0.125c0.036-0.035,0.077-0.052,0.128-0.052h2.569c0.05,0,0.091,0.017,0.126,0.052
			c0.035,0.034,0.05,0.075,0.05,0.125v0.21c0,0.05-0.016,0.093-0.05,0.127c-0.035,0.033-0.076,0.051-0.126,0.051H5.707
			c-0.027,0-0.042,0.013-0.042,0.041v1.361c0,0.025,0.015,0.039,0.042,0.039H7.47c0.049,0,0.091,0.019,0.125,0.052
			c0.034,0.034,0.05,0.075,0.05,0.126v0.211c0,0.05-0.017,0.092-0.05,0.126c-0.034,0.034-0.077,0.052-0.125,0.052H5.707
			c-0.027,0-0.042,0.013-0.042,0.039v1.409c0,0.027,0.015,0.04,0.042,0.04h2.095c0.05,0,0.091,0.018,0.126,0.052
			c0.035,0.033,0.05,0.076,0.05,0.126v0.211c0,0.051-0.016,0.092-0.05,0.126c-0.035,0.033-0.076,0.05-0.126,0.05H5.233z"/>
		<path d="M11.687,38.929c0.05,0,0.092,0.017,0.126,0.052c0.034,0.034,0.051,0.075,0.051,0.124v0.211
			c0,0.05-0.018,0.093-0.051,0.127c-0.034,0.033-0.076,0.051-0.126,0.051h-0.34v3.496h0.34c0.05,0,0.092,0.018,0.126,0.052
			c0.034,0.033,0.051,0.076,0.051,0.126v0.211c0,0.051-0.018,0.092-0.051,0.126c-0.034,0.033-0.076,0.05-0.126,0.05h-0.774h-0.027
			h-0.492c-0.05,0-0.091-0.017-0.125-0.05c-0.035-0.034-0.052-0.075-0.052-0.126v-0.211c0-0.05,0.017-0.093,0.052-0.126
			c0.034-0.034,0.075-0.052,0.125-0.052h0.339v-3.496h-0.339c-0.05,0-0.091-0.018-0.125-0.051c-0.035-0.034-0.052-0.077-0.052-0.127
			v-0.211c0-0.049,0.017-0.09,0.052-0.124c0.034-0.035,0.075-0.052,0.125-0.052H11.687z"/>
		<path d="M15.443,39.104c0-0.049,0.017-0.092,0.051-0.125c0.034-0.034,0.077-0.051,0.127-0.051h0.214
			c0.05,0,0.093,0.017,0.127,0.051c0.034,0.033,0.052,0.076,0.052,0.125v4.273c0,0.049-0.019,0.092-0.052,0.126
			c-0.035,0.033-0.077,0.05-0.127,0.05h-0.214c-0.05,0-0.093-0.017-0.127-0.05c-0.035-0.034-0.051-0.077-0.051-0.126v-0.906
			l-2.149-1.951h-0.021v2.857c0,0.049-0.018,0.092-0.052,0.126c-0.034,0.033-0.077,0.05-0.128,0.05H12.88
			c-0.051,0-0.093-0.017-0.127-0.05c-0.035-0.034-0.052-0.077-0.052-0.126v-4.273c0-0.049,0.018-0.092,0.052-0.125
			c0.034-0.034,0.076-0.051,0.127-0.051h0.212c0.051,0,0.094,0.017,0.128,0.051c0.035,0.033,0.052,0.076,0.052,0.125v0.578
			l2.144,1.967h0.027V39.104z"/>
		<path d="M17.539,40.058c0.004,0.317,0.049,0.629,0.132,0.933c0.084,0.304,0.18,0.581,0.29,0.833
			c0.109,0.251,0.215,0.47,0.319,0.653c0.104,0.184,0.18,0.312,0.226,0.384h0.006c0.044-0.072,0.119-0.2,0.224-0.384
			c0.105-0.184,0.211-0.402,0.32-0.653c0.109-0.252,0.205-0.529,0.29-0.833c0.083-0.304,0.128-0.615,0.133-0.933v-0.953
			c0-0.049,0.017-0.092,0.05-0.125c0.035-0.034,0.076-0.051,0.126-0.051h0.21c0.051,0,0.093,0.017,0.127,0.051
			c0.034,0.033,0.05,0.076,0.05,0.125v0.96c0,0.318-0.04,0.631-0.118,0.942c-0.081,0.311-0.181,0.608-0.299,0.894
			c-0.121,0.287-0.25,0.556-0.388,0.808c-0.139,0.251-0.269,0.476-0.391,0.67c-0.031,0.049-0.065,0.092-0.1,0.126
			c-0.032,0.033-0.074,0.05-0.126,0.05h-0.224c-0.051,0-0.092-0.017-0.126-0.05c-0.034-0.034-0.066-0.077-0.098-0.126
			c-0.123-0.194-0.254-0.419-0.392-0.67c-0.139-0.252-0.268-0.521-0.387-0.808c-0.121-0.285-0.221-0.583-0.3-0.894
			c-0.079-0.312-0.119-0.624-0.119-0.942v-0.96c0-0.049,0.017-0.092,0.052-0.125c0.033-0.034,0.074-0.051,0.125-0.051h0.21
			c0.05,0,0.093,0.017,0.126,0.051c0.034,0.033,0.051,0.076,0.051,0.125V40.058z"/>
		<path d="M21.153,43.554c-0.052,0-0.094-0.017-0.127-0.05c-0.035-0.034-0.052-0.075-0.052-0.126v-4.272
			c0-0.05,0.017-0.091,0.052-0.125c0.033-0.035,0.075-0.052,0.127-0.052h2.57c0.05,0,0.091,0.017,0.125,0.052
			c0.034,0.034,0.052,0.075,0.052,0.125v0.21c0,0.05-0.018,0.093-0.052,0.127c-0.035,0.033-0.076,0.051-0.125,0.051h-2.096
			c-0.027,0-0.041,0.013-0.041,0.041v1.361c0,0.025,0.014,0.039,0.041,0.039h1.763c0.05,0,0.091,0.019,0.125,0.052
			c0.034,0.034,0.052,0.075,0.052,0.126v0.211c0,0.05-0.018,0.092-0.052,0.126c-0.034,0.034-0.076,0.052-0.125,0.052h-1.763
			c-0.027,0-0.041,0.013-0.041,0.039v1.409c0,0.027,0.014,0.04,0.041,0.04h2.096c0.05,0,0.091,0.018,0.125,0.052
			c0.034,0.033,0.052,0.076,0.052,0.126v0.211c0,0.051-0.018,0.092-0.052,0.126c-0.035,0.033-0.076,0.05-0.125,0.05H21.153z"/>
		<path d="M25.056,42.656c0.149,0.104,0.326,0.199,0.534,0.283c0.206,0.083,0.43,0.125,0.67,0.125c0.321,0,0.572-0.071,0.751-0.218
			c0.179-0.145,0.268-0.335,0.268-0.571c0-0.099-0.015-0.19-0.046-0.271c-0.032-0.082-0.085-0.155-0.162-0.218
			c-0.074-0.063-0.172-0.118-0.295-0.163c-0.123-0.046-0.276-0.08-0.463-0.103l-0.231-0.034c-0.908-0.122-1.361-0.549-1.361-1.278
			c0-0.205,0.035-0.392,0.106-0.559c0.07-0.167,0.171-0.311,0.302-0.429c0.132-0.118,0.291-0.209,0.477-0.272
			s0.395-0.095,0.626-0.095c0.245,0,0.48,0.033,0.705,0.099c0.224,0.065,0.422,0.15,0.595,0.255
			c0.045,0.026,0.074,0.064,0.084,0.108c0.012,0.046,0.006,0.091-0.016,0.137l-0.117,0.191c-0.022,0.044-0.058,0.072-0.104,0.084
			c-0.048,0.012-0.094,0.006-0.141-0.017c-0.171-0.096-0.34-0.169-0.506-0.218c-0.166-0.05-0.338-0.075-0.52-0.075
			c-0.287,0-0.504,0.069-0.654,0.208c-0.149,0.138-0.224,0.318-0.224,0.54c0,0.195,0.073,0.356,0.218,0.48s0.397,0.212,0.754,0.262
			l0.225,0.034c0.455,0.063,0.794,0.199,1.021,0.408c0.227,0.209,0.341,0.503,0.341,0.885c0,0.204-0.036,0.391-0.106,0.561
			c-0.07,0.169-0.176,0.316-0.319,0.438c-0.143,0.122-0.319,0.22-0.53,0.29c-0.211,0.069-0.455,0.104-0.732,0.104
			c-0.299,0-0.587-0.049-0.864-0.148c-0.276-0.101-0.503-0.221-0.68-0.362c-0.036-0.035-0.057-0.076-0.064-0.121
			c-0.007-0.045,0.007-0.089,0.045-0.13l0.163-0.189c0.031-0.037,0.072-0.058,0.122-0.062C24.977,42.611,25.02,42.625,25.056,42.656
			"/>
		<path d="M28.499,39.493c-0.05,0-0.092-0.018-0.126-0.051c-0.034-0.034-0.052-0.077-0.052-0.127v-0.211
			c0-0.049,0.018-0.092,0.052-0.124c0.034-0.035,0.076-0.052,0.126-0.052h3.007c0.051,0,0.091,0.017,0.127,0.052
			c0.033,0.032,0.05,0.075,0.05,0.124v0.211c0,0.05-0.017,0.093-0.05,0.127c-0.036,0.033-0.076,0.051-0.127,0.051H30.35
			c-0.028,0-0.041,0.014-0.041,0.041v3.844c0,0.049-0.018,0.092-0.052,0.126c-0.035,0.033-0.077,0.05-0.128,0.05h-0.254
			c-0.05,0-0.093-0.017-0.127-0.05c-0.034-0.034-0.053-0.077-0.053-0.126v-3.844c0-0.027-0.012-0.041-0.04-0.041H28.499z"/>
		<path d="M33.567,38.929c0.049,0,0.092,0.017,0.126,0.052c0.034,0.034,0.051,0.075,0.051,0.124v0.211
			c0,0.05-0.018,0.093-0.051,0.127c-0.034,0.033-0.077,0.051-0.126,0.051h-0.34v3.496h0.34c0.049,0,0.092,0.018,0.126,0.052
			c0.034,0.033,0.051,0.076,0.051,0.126v0.211c0,0.051-0.018,0.092-0.051,0.126c-0.034,0.033-0.077,0.05-0.126,0.05h-0.773h-0.028
			h-0.492c-0.049,0-0.091-0.017-0.125-0.05c-0.034-0.034-0.051-0.075-0.051-0.126v-0.211c0-0.05,0.017-0.093,0.051-0.126
			c0.034-0.034,0.076-0.052,0.125-0.052h0.34v-3.496h-0.34c-0.049,0-0.091-0.018-0.125-0.051c-0.034-0.034-0.051-0.077-0.051-0.127
			v-0.211c0-0.049,0.017-0.09,0.051-0.124c0.034-0.035,0.076-0.052,0.125-0.052H33.567z"/>
		<path d="M37.819,41.514c0,0.209-0.011,0.402-0.031,0.582c-0.021,0.178-0.049,0.325-0.085,0.438
			c-0.113,0.354-0.309,0.624-0.583,0.813c-0.275,0.188-0.605,0.281-0.992,0.281c-0.396,0-0.729-0.09-1.002-0.272
			c-0.273-0.181-0.468-0.45-0.586-0.81c-0.023-0.067-0.042-0.138-0.055-0.21c-0.014-0.072-0.026-0.158-0.038-0.256
			c-0.011-0.097-0.02-0.213-0.023-0.35c-0.005-0.137-0.008-0.299-0.008-0.49c0-0.19,0.002-0.354,0.008-0.489
			c0.003-0.136,0.012-0.253,0.023-0.351c0.011-0.098,0.024-0.182,0.038-0.256c0.013-0.073,0.032-0.143,0.053-0.21
			c0.119-0.358,0.313-0.629,0.586-0.81c0.272-0.182,0.605-0.272,1-0.272c0.381,0,0.693,0.08,0.936,0.238
			c0.242,0.158,0.427,0.354,0.555,0.585c0.021,0.045,0.027,0.091,0.015,0.137c-0.015,0.044-0.044,0.078-0.09,0.101l-0.21,0.104
			c-0.096,0.054-0.176,0.028-0.24-0.076c-0.108-0.176-0.238-0.309-0.391-0.395c-0.151-0.086-0.344-0.129-0.575-0.129
			c-0.262,0-0.477,0.059-0.643,0.177c-0.166,0.118-0.285,0.289-0.357,0.511c-0.014,0.04-0.027,0.091-0.041,0.15
			c-0.013,0.058-0.024,0.13-0.03,0.217c-0.007,0.086-0.013,0.191-0.017,0.316c-0.005,0.125-0.006,0.275-0.006,0.452
			s0.001,0.327,0.006,0.453c0.004,0.124,0.01,0.229,0.017,0.315c0.006,0.087,0.018,0.159,0.03,0.219
			c0.014,0.059,0.027,0.108,0.041,0.148c0.072,0.223,0.191,0.394,0.357,0.511c0.166,0.118,0.38,0.177,0.643,0.177
			c0.236,0,0.443-0.056,0.62-0.169c0.176-0.113,0.301-0.28,0.374-0.497c0.022-0.078,0.043-0.175,0.061-0.292
			c0.017-0.119,0.027-0.264,0.027-0.436c0-0.027-0.013-0.041-0.041-0.041h-0.788c-0.051,0-0.092-0.018-0.127-0.052
			c-0.034-0.034-0.05-0.076-0.05-0.126v-0.177c0-0.05,0.016-0.092,0.05-0.126c0.035-0.033,0.076-0.05,0.127-0.05h1.263
			c0.051,0,0.093,0.017,0.127,0.05c0.035,0.034,0.052,0.076,0.052,0.126V41.514z"/>
		<path d="M41.05,41.922c-0.04-0.258-0.103-0.51-0.186-0.752c-0.084-0.243-0.174-0.466-0.269-0.67
			c-0.096-0.204-0.187-0.383-0.272-0.534c-0.086-0.151-0.152-0.267-0.198-0.344h-0.006c-0.047,0.077-0.112,0.192-0.197,0.344
			c-0.087,0.151-0.177,0.33-0.272,0.534c-0.096,0.204-0.186,0.427-0.27,0.67c-0.083,0.242-0.146,0.494-0.187,0.752H41.05z
			 M40.459,39.104c0.122,0.201,0.252,0.425,0.392,0.675c0.137,0.249,0.267,0.517,0.387,0.803c0.12,0.285,0.22,0.583,0.299,0.894
			c0.079,0.312,0.119,0.626,0.119,0.943v0.959c0,0.049-0.018,0.092-0.052,0.126c-0.033,0.033-0.075,0.05-0.125,0.05h-0.21
			c-0.05,0-0.093-0.017-0.126-0.05c-0.035-0.034-0.051-0.077-0.051-0.126v-0.898h-1.939v0.898c0,0.049-0.017,0.092-0.052,0.126
			c-0.033,0.033-0.075,0.05-0.125,0.05h-0.211c-0.05,0-0.092-0.017-0.126-0.05c-0.033-0.034-0.051-0.077-0.051-0.126v-0.959
			c0-0.317,0.039-0.632,0.12-0.943c0.079-0.311,0.179-0.608,0.298-0.894c0.121-0.286,0.25-0.554,0.389-0.803
			c0.138-0.25,0.269-0.474,0.391-0.675c0.032-0.049,0.064-0.092,0.099-0.125c0.034-0.034,0.075-0.051,0.127-0.051h0.223
			c0.051,0,0.093,0.017,0.127,0.051C40.395,39.013,40.428,39.056,40.459,39.104"/>
		<path d="M45.526,42.8c-0.139,0.268-0.332,0.473-0.573,0.615c-0.242,0.143-0.528,0.215-0.854,0.215c-0.381,0-0.703-0.09-0.967-0.27
			c-0.262-0.179-0.453-0.452-0.571-0.82c-0.023-0.068-0.043-0.136-0.058-0.206c-0.016-0.07-0.029-0.155-0.038-0.253
			c-0.009-0.097-0.016-0.213-0.02-0.351c-0.005-0.136-0.008-0.298-0.008-0.489s0.002-0.354,0.008-0.489
			c0.004-0.136,0.011-0.253,0.02-0.351s0.021-0.182,0.038-0.251c0.015-0.07,0.035-0.14,0.058-0.208
			c0.118-0.368,0.309-0.642,0.571-0.82c0.264-0.18,0.586-0.269,0.967-0.269c0.326,0,0.612,0.071,0.854,0.215
			c0.241,0.142,0.434,0.348,0.573,0.616c0.024,0.044,0.029,0.09,0.015,0.135c-0.015,0.046-0.044,0.08-0.088,0.104l-0.211,0.101
			c-0.045,0.022-0.09,0.028-0.136,0.018c-0.044-0.012-0.078-0.042-0.101-0.093c-0.087-0.158-0.204-0.286-0.352-0.383
			c-0.147-0.099-0.333-0.147-0.554-0.147c-0.253,0-0.459,0.06-0.613,0.177c-0.154,0.118-0.269,0.285-0.348,0.504
			c-0.012,0.05-0.025,0.104-0.036,0.159c-0.011,0.057-0.021,0.128-0.028,0.211c-0.006,0.084-0.012,0.188-0.018,0.313
			c-0.004,0.125-0.006,0.278-0.006,0.459s0.002,0.336,0.006,0.459c0.005,0.125,0.011,0.229,0.018,0.313s0.017,0.155,0.028,0.215
			c0.011,0.059,0.023,0.109,0.036,0.155c0.079,0.219,0.193,0.387,0.348,0.504c0.154,0.118,0.359,0.177,0.613,0.177
			c0.222,0,0.406-0.048,0.552-0.146c0.145-0.098,0.262-0.226,0.354-0.384c0.027-0.049,0.061-0.081,0.104-0.092
			c0.043-0.012,0.087-0.006,0.132,0.017l0.211,0.103c0.044,0.023,0.073,0.058,0.088,0.102C45.555,42.709,45.55,42.754,45.526,42.8"
			/>
		<path d="M47.624,38.929c0.049,0,0.092,0.017,0.125,0.052c0.034,0.034,0.051,0.075,0.051,0.124v0.211
			c0,0.05-0.017,0.093-0.051,0.127c-0.034,0.033-0.076,0.051-0.125,0.051h-0.341v3.496h0.341c0.049,0,0.092,0.018,0.125,0.052
			c0.034,0.033,0.051,0.076,0.051,0.126v0.211c0,0.051-0.017,0.092-0.051,0.126c-0.034,0.033-0.076,0.05-0.125,0.05H46.85h-0.028
			h-0.492c-0.05,0-0.092-0.017-0.126-0.05c-0.034-0.034-0.051-0.075-0.051-0.126v-0.211c0-0.05,0.018-0.093,0.051-0.126
			c0.034-0.034,0.076-0.052,0.126-0.052h0.34v-3.496h-0.34c-0.05,0-0.092-0.018-0.126-0.051c-0.034-0.034-0.051-0.077-0.051-0.127
			v-0.211c0-0.049,0.018-0.09,0.051-0.124c0.034-0.035,0.076-0.052,0.126-0.052H47.624z"/>
		<path d="M50.019,38.37c-0.05,0-0.08-0.014-0.09-0.045c-0.008-0.029-0.001-0.059,0.022-0.091l0.428-0.701
			c0.055-0.09,0.131-0.136,0.231-0.136h0.347c0.04,0,0.072,0.016,0.092,0.045s0.013,0.069-0.023,0.118l-0.504,0.674
			c-0.031,0.041-0.066,0.073-0.104,0.1c-0.04,0.023-0.087,0.036-0.147,0.036H50.019z M50.167,43.064c0.259,0,0.47-0.059,0.632-0.177
			c0.164-0.117,0.282-0.288,0.354-0.511c0.013-0.04,0.026-0.092,0.038-0.152c0.011-0.062,0.022-0.138,0.034-0.228
			c0.011-0.091,0.02-0.197,0.024-0.32c0.005-0.123,0.007-0.268,0.007-0.436s-0.002-0.313-0.007-0.436
			c-0.004-0.122-0.013-0.229-0.024-0.318c-0.012-0.092-0.022-0.168-0.034-0.229c-0.011-0.061-0.024-0.111-0.038-0.152
			c-0.073-0.222-0.19-0.393-0.354-0.511c-0.162-0.118-0.374-0.177-0.632-0.177s-0.468,0.059-0.629,0.177s-0.278,0.289-0.35,0.511
			c-0.014,0.041-0.026,0.092-0.038,0.152c-0.012,0.062-0.023,0.138-0.035,0.229c-0.011,0.09-0.019,0.196-0.024,0.318
			c-0.004,0.122-0.006,0.268-0.006,0.436s0.001,0.312,0.006,0.436c0.005,0.123,0.013,0.229,0.024,0.32
			c0.012,0.09,0.022,0.166,0.035,0.228c0.012,0.061,0.023,0.112,0.038,0.152c0.072,0.223,0.189,0.394,0.35,0.511
			C49.699,43.006,49.909,43.064,50.167,43.064 M50.167,43.629c-0.39,0-0.72-0.09-0.989-0.272c-0.27-0.181-0.464-0.45-0.582-0.81
			c-0.024-0.067-0.042-0.138-0.058-0.21c-0.016-0.072-0.028-0.158-0.037-0.256c-0.009-0.097-0.017-0.213-0.021-0.35
			c-0.004-0.136-0.008-0.299-0.008-0.49c0-0.19,0.004-0.354,0.008-0.489c0.004-0.136,0.012-0.253,0.021-0.351
			c0.009-0.098,0.021-0.182,0.037-0.255c0.016-0.074,0.034-0.144,0.058-0.211c0.118-0.358,0.312-0.629,0.582-0.81
			c0.269-0.182,0.6-0.272,0.989-0.272c0.395,0,0.727,0.091,0.998,0.272c0.27,0.181,0.463,0.451,0.581,0.81
			c0.023,0.067,0.042,0.137,0.059,0.211c0.016,0.073,0.028,0.157,0.038,0.255c0.009,0.098,0.017,0.215,0.02,0.351
			c0.005,0.136,0.007,0.299,0.007,0.489c0,0.191-0.002,0.354-0.007,0.49c-0.003,0.137-0.011,0.253-0.02,0.35
			c-0.009,0.098-0.022,0.184-0.038,0.256c-0.016,0.072-0.035,0.143-0.059,0.21c-0.117,0.359-0.311,0.629-0.581,0.81
			C50.895,43.539,50.562,43.629,50.167,43.629"/>
		<path d="M55.59,39.104c0-0.049,0.018-0.092,0.051-0.125c0.035-0.034,0.077-0.051,0.127-0.051h0.213
			c0.05,0,0.093,0.017,0.127,0.051c0.035,0.033,0.052,0.076,0.052,0.125v4.273c0,0.049-0.018,0.092-0.052,0.126
			c-0.035,0.033-0.077,0.05-0.127,0.05h-0.213c-0.051,0-0.093-0.017-0.127-0.05c-0.034-0.034-0.051-0.077-0.051-0.126v-0.906
			l-2.15-1.951h-0.021v2.857c0,0.049-0.017,0.092-0.05,0.126c-0.035,0.033-0.078,0.05-0.128,0.05h-0.213
			c-0.051,0-0.093-0.017-0.127-0.05c-0.036-0.034-0.051-0.077-0.051-0.126v-4.273c0-0.049,0.016-0.092,0.051-0.125
			c0.034-0.034,0.077-0.051,0.127-0.051h0.213c0.05,0,0.093,0.017,0.128,0.051c0.034,0.033,0.05,0.076,0.05,0.125v0.578l2.144,1.967
			h0.027V39.104z"/>
		<path d="M0.994,50.964c-0.05,0-0.093-0.018-0.127-0.052c-0.034-0.034-0.051-0.076-0.051-0.127v-4.272
			c0-0.049,0.018-0.091,0.051-0.125c0.034-0.034,0.077-0.051,0.127-0.051h2.57c0.05,0,0.092,0.017,0.126,0.051
			s0.051,0.076,0.051,0.125v0.212c0,0.05-0.017,0.091-0.051,0.125S3.614,46.9,3.563,46.9H1.468c-0.027,0-0.041,0.014-0.041,0.042
			v1.36c0,0.026,0.014,0.041,0.041,0.041h1.762c0.051,0,0.092,0.018,0.127,0.05c0.034,0.036,0.051,0.078,0.051,0.127v0.212
			c0,0.049-0.017,0.091-0.051,0.125c-0.035,0.034-0.076,0.051-0.127,0.051H1.468c-0.027,0-0.041,0.014-0.041,0.041v1.409
			c0,0.026,0.014,0.04,0.041,0.04h2.096c0.05,0,0.092,0.018,0.126,0.051c0.034,0.034,0.051,0.075,0.051,0.126v0.21
			c0,0.051-0.017,0.093-0.051,0.127s-0.076,0.052-0.126,0.052H0.994z"/>
		<path d="M7.448,46.337c0.051,0,0.092,0.017,0.125,0.051c0.034,0.034,0.052,0.076,0.052,0.125v0.212
			c0,0.049-0.018,0.091-0.052,0.125C7.541,46.884,7.499,46.9,7.448,46.9h-0.34v3.498h0.34c0.051,0,0.092,0.018,0.125,0.051
			c0.034,0.034,0.052,0.075,0.052,0.126v0.211c0,0.05-0.018,0.092-0.052,0.126c-0.033,0.034-0.075,0.052-0.125,0.052H6.675H6.647
			H6.155c-0.05,0-0.092-0.018-0.125-0.052c-0.035-0.034-0.051-0.076-0.051-0.126v-0.211c0-0.051,0.016-0.092,0.051-0.126
			c0.033-0.033,0.075-0.051,0.125-0.051h0.34V46.9h-0.34c-0.05,0-0.092-0.017-0.125-0.051c-0.035-0.034-0.051-0.076-0.051-0.125
			v-0.212c0-0.049,0.016-0.091,0.051-0.125c0.033-0.034,0.075-0.051,0.125-0.051H7.448z"/>
		<path d="M11.204,46.513c0-0.049,0.017-0.091,0.052-0.125c0.033-0.034,0.076-0.051,0.127-0.051h0.213
			c0.05,0,0.092,0.017,0.127,0.051c0.034,0.034,0.052,0.076,0.052,0.125v4.273c0,0.05-0.018,0.092-0.052,0.126
			c-0.035,0.034-0.078,0.051-0.127,0.051h-0.213c-0.051,0-0.094-0.017-0.127-0.051c-0.035-0.034-0.052-0.076-0.052-0.126v-0.904
			l-2.15-1.954H9.034v2.858c0,0.05-0.017,0.092-0.052,0.126c-0.034,0.034-0.078,0.051-0.127,0.051H8.641
			c-0.049,0-0.092-0.017-0.127-0.051c-0.034-0.034-0.052-0.076-0.052-0.126v-4.273c0-0.049,0.018-0.091,0.052-0.125
			c0.035-0.034,0.078-0.051,0.127-0.051h0.214c0.049,0,0.093,0.017,0.127,0.051c0.035,0.034,0.052,0.076,0.052,0.125v0.579
			l2.143,1.967h0.028V46.513z"/>
		<path d="M15.654,46.513c0-0.049,0.018-0.091,0.051-0.125c0.035-0.034,0.078-0.051,0.128-0.051h0.214
			c0.049,0,0.092,0.017,0.126,0.051s0.052,0.076,0.052,0.125v4.273c0,0.05-0.018,0.092-0.052,0.126s-0.078,0.051-0.126,0.051h-0.214
			c-0.05,0-0.093-0.017-0.128-0.051c-0.034-0.034-0.051-0.076-0.051-0.126v-0.904l-2.15-1.954h-0.021v2.858
			c0,0.05-0.017,0.092-0.052,0.126c-0.033,0.034-0.076,0.051-0.126,0.051H13.09c-0.05,0-0.093-0.017-0.126-0.051
			c-0.035-0.034-0.053-0.076-0.053-0.126v-4.273c0-0.049,0.018-0.091,0.053-0.125c0.033-0.034,0.077-0.051,0.126-0.051h0.214
			c0.05,0,0.093,0.017,0.126,0.051c0.036,0.034,0.052,0.076,0.052,0.125v0.579l2.144,1.967h0.027V46.513z"/>
		<path d="M18.892,50.474c0.259,0,0.469-0.06,0.633-0.178c0.163-0.117,0.281-0.287,0.354-0.511c0.013-0.039,0.026-0.091,0.036-0.153
			c0.012-0.06,0.023-0.136,0.035-0.227c0.011-0.092,0.019-0.198,0.024-0.32c0.004-0.122,0.007-0.268,0.007-0.436
			c0-0.167-0.003-0.312-0.007-0.435c-0.005-0.122-0.013-0.229-0.024-0.32s-0.022-0.167-0.035-0.228
			c-0.01-0.062-0.023-0.113-0.036-0.154c-0.073-0.222-0.191-0.391-0.354-0.509c-0.164-0.117-0.374-0.178-0.633-0.178
			s-0.468,0.061-0.629,0.178c-0.162,0.118-0.278,0.287-0.351,0.509c-0.013,0.041-0.026,0.093-0.038,0.154
			c-0.012,0.061-0.022,0.137-0.034,0.228s-0.02,0.198-0.023,0.32c-0.005,0.122-0.009,0.268-0.009,0.435
			c0,0.168,0.003,0.313,0.009,0.436c0.003,0.122,0.012,0.229,0.023,0.32c0.011,0.091,0.021,0.167,0.034,0.227
			c0.012,0.062,0.024,0.114,0.038,0.153c0.073,0.224,0.189,0.394,0.351,0.511C18.424,50.414,18.633,50.474,18.892,50.474
			 M18.892,51.037c-0.391,0-0.721-0.09-0.99-0.271c-0.27-0.181-0.463-0.452-0.582-0.81c-0.022-0.068-0.042-0.138-0.058-0.21
			c-0.015-0.074-0.028-0.159-0.037-0.256c-0.009-0.098-0.016-0.215-0.021-0.352c-0.004-0.136-0.006-0.299-0.006-0.489
			c0-0.189,0.002-0.354,0.006-0.489c0.005-0.137,0.011-0.253,0.021-0.351c0.009-0.098,0.022-0.183,0.037-0.256
			c0.016-0.071,0.035-0.142,0.058-0.21c0.119-0.359,0.312-0.629,0.582-0.811c0.27-0.181,0.6-0.271,0.99-0.271
			c0.394,0,0.727,0.091,0.997,0.271c0.27,0.182,0.463,0.451,0.582,0.811c0.023,0.068,0.042,0.139,0.058,0.21
			c0.016,0.073,0.029,0.158,0.038,0.256s0.015,0.214,0.021,0.351c0.003,0.136,0.006,0.3,0.006,0.489c0,0.19-0.002,0.354-0.006,0.489
			c-0.005,0.137-0.012,0.254-0.021,0.352c-0.009,0.097-0.022,0.182-0.038,0.256c-0.016,0.072-0.034,0.142-0.058,0.21
			c-0.118,0.357-0.312,0.629-0.582,0.81C19.619,50.947,19.286,51.037,18.892,51.037"/>
		<path d="M21.913,47.466c0.004,0.318,0.048,0.628,0.133,0.932c0.084,0.304,0.18,0.582,0.289,0.834
			c0.109,0.251,0.216,0.47,0.32,0.652c0.104,0.185,0.179,0.312,0.225,0.385h0.007c0.044-0.072,0.12-0.2,0.224-0.385
			c0.104-0.183,0.211-0.401,0.32-0.652c0.109-0.252,0.205-0.53,0.29-0.834c0.084-0.304,0.127-0.613,0.134-0.932v-0.953
			c0-0.049,0.016-0.091,0.049-0.125c0.035-0.034,0.077-0.051,0.126-0.051h0.211c0.049,0,0.091,0.017,0.125,0.051
			s0.051,0.076,0.051,0.125v0.96c0,0.317-0.041,0.632-0.119,0.942c-0.08,0.311-0.179,0.609-0.3,0.896
			c-0.119,0.285-0.249,0.554-0.387,0.806c-0.138,0.251-0.269,0.476-0.391,0.67c-0.032,0.05-0.065,0.092-0.099,0.126
			s-0.076,0.051-0.126,0.051H22.77c-0.05,0-0.091-0.017-0.125-0.051c-0.035-0.034-0.067-0.076-0.099-0.126
			c-0.124-0.194-0.252-0.419-0.392-0.67c-0.138-0.252-0.268-0.521-0.388-0.806c-0.12-0.286-0.221-0.585-0.299-0.896
			c-0.08-0.311-0.121-0.625-0.121-0.942v-0.96c0-0.049,0.018-0.091,0.053-0.125c0.034-0.034,0.075-0.051,0.126-0.051h0.21
			c0.049,0,0.09,0.017,0.125,0.051c0.034,0.034,0.051,0.076,0.051,0.125V47.466z"/>
		<path d="M27.431,49.33c-0.042-0.258-0.104-0.509-0.188-0.752c-0.083-0.243-0.172-0.466-0.268-0.67
			c-0.096-0.204-0.187-0.383-0.273-0.534c-0.085-0.152-0.151-0.266-0.197-0.344h-0.006c-0.046,0.078-0.112,0.191-0.198,0.344
			c-0.087,0.151-0.176,0.33-0.271,0.534c-0.096,0.204-0.185,0.427-0.27,0.67c-0.083,0.243-0.146,0.494-0.188,0.752H27.431z
			 M26.839,46.513c0.122,0.2,0.252,0.425,0.391,0.674c0.139,0.25,0.268,0.518,0.388,0.804c0.12,0.285,0.22,0.583,0.299,0.895
			c0.08,0.311,0.118,0.625,0.118,0.941v0.96c0,0.05-0.017,0.092-0.05,0.126c-0.034,0.034-0.076,0.051-0.125,0.051h-0.212
			c-0.049,0-0.091-0.017-0.126-0.051c-0.033-0.034-0.05-0.076-0.05-0.126v-0.898h-1.94v0.898c0,0.05-0.017,0.092-0.05,0.126
			c-0.034,0.034-0.077,0.051-0.126,0.051h-0.211c-0.05,0-0.092-0.017-0.125-0.051s-0.051-0.076-0.051-0.126v-0.96
			c0-0.316,0.04-0.631,0.12-0.941c0.078-0.312,0.178-0.609,0.298-0.895c0.12-0.286,0.249-0.554,0.387-0.804
			c0.139-0.249,0.269-0.474,0.392-0.674c0.032-0.049,0.064-0.091,0.099-0.125c0.034-0.034,0.075-0.051,0.125-0.051h0.225
			c0.05,0,0.091,0.017,0.125,0.051C26.774,46.422,26.807,46.464,26.839,46.513"/>
		<path d="M31.907,50.208c-0.141,0.268-0.333,0.473-0.574,0.616c-0.243,0.142-0.527,0.213-0.855,0.213
			c-0.379,0-0.702-0.089-0.965-0.269c-0.264-0.178-0.454-0.452-0.572-0.818c-0.022-0.068-0.041-0.138-0.058-0.209
			c-0.015-0.069-0.027-0.154-0.036-0.251c-0.008-0.098-0.016-0.214-0.021-0.352c-0.005-0.135-0.008-0.299-0.008-0.489
			s0.003-0.353,0.008-0.489c0.004-0.136,0.012-0.253,0.021-0.351c0.009-0.098,0.021-0.182,0.036-0.252
			c0.018-0.07,0.036-0.139,0.058-0.208c0.119-0.367,0.309-0.64,0.572-0.819c0.263-0.179,0.586-0.269,0.965-0.269
			c0.328,0,0.613,0.072,0.855,0.214c0.242,0.144,0.434,0.349,0.574,0.616c0.023,0.046,0.028,0.09,0.014,0.136
			c-0.014,0.045-0.043,0.08-0.088,0.103l-0.211,0.102c-0.046,0.023-0.09,0.028-0.136,0.017c-0.044-0.011-0.08-0.041-0.102-0.092
			c-0.085-0.158-0.203-0.286-0.351-0.384c-0.147-0.097-0.332-0.146-0.555-0.146c-0.253,0-0.458,0.061-0.611,0.178
			c-0.154,0.117-0.27,0.285-0.347,0.503c-0.014,0.051-0.027,0.104-0.038,0.16c-0.011,0.057-0.021,0.126-0.027,0.211
			c-0.006,0.084-0.013,0.188-0.017,0.313c-0.005,0.124-0.007,0.276-0.007,0.458c0,0.183,0.002,0.335,0.007,0.46
			c0.004,0.124,0.011,0.229,0.017,0.312c0.007,0.084,0.016,0.156,0.027,0.215c0.011,0.059,0.024,0.11,0.038,0.156
			c0.077,0.217,0.192,0.386,0.347,0.503c0.154,0.118,0.358,0.176,0.611,0.176c0.223,0,0.407-0.047,0.553-0.146
			c0.146-0.097,0.263-0.225,0.353-0.384c0.027-0.05,0.062-0.08,0.105-0.092c0.044-0.011,0.087-0.005,0.133,0.018l0.211,0.102
			c0.045,0.022,0.074,0.057,0.088,0.103C31.935,50.117,31.93,50.162,31.907,50.208"/>
		<path d="M34.003,46.337c0.05,0,0.092,0.017,0.126,0.051s0.051,0.076,0.051,0.125v0.212c0,0.049-0.017,0.091-0.051,0.125
			S34.053,46.9,34.003,46.9h-0.34v3.498h0.34c0.05,0,0.092,0.018,0.126,0.051c0.034,0.034,0.051,0.075,0.051,0.126v0.211
			c0,0.05-0.017,0.092-0.051,0.126s-0.076,0.052-0.126,0.052h-0.774h-0.027H32.71c-0.05,0-0.092-0.018-0.125-0.052
			c-0.035-0.034-0.052-0.076-0.052-0.126v-0.211c0-0.051,0.018-0.092,0.052-0.126c0.033-0.033,0.075-0.051,0.125-0.051h0.339V46.9
			H32.71c-0.05,0-0.092-0.017-0.125-0.051c-0.035-0.034-0.052-0.076-0.052-0.125v-0.212c0-0.049,0.018-0.091,0.052-0.125
			c0.033-0.034,0.075-0.051,0.125-0.051H34.003z"/>
		<path d="M36.397,45.778c-0.051,0-0.08-0.014-0.088-0.044c-0.009-0.029-0.002-0.061,0.02-0.092l0.429-0.7
			c0.054-0.092,0.132-0.137,0.231-0.137h0.347c0.04,0,0.072,0.015,0.091,0.044c0.021,0.03,0.013,0.07-0.023,0.119l-0.504,0.674
			c-0.031,0.041-0.067,0.074-0.105,0.099c-0.039,0.024-0.087,0.037-0.146,0.037H36.397z M36.547,50.474
			c0.259,0,0.47-0.06,0.632-0.178c0.165-0.117,0.282-0.287,0.354-0.511c0.014-0.039,0.026-0.091,0.038-0.153
			c0.012-0.06,0.022-0.136,0.034-0.227c0.011-0.092,0.02-0.198,0.024-0.32c0.004-0.122,0.006-0.268,0.006-0.436
			c0-0.167-0.002-0.312-0.006-0.435c-0.005-0.122-0.014-0.229-0.024-0.32c-0.012-0.091-0.022-0.167-0.034-0.228
			c-0.012-0.062-0.024-0.113-0.038-0.154c-0.073-0.222-0.19-0.391-0.354-0.509c-0.163-0.117-0.374-0.178-0.632-0.178
			c-0.258,0-0.468,0.061-0.629,0.178c-0.161,0.118-0.278,0.287-0.351,0.509c-0.014,0.041-0.027,0.093-0.038,0.154
			c-0.011,0.061-0.022,0.137-0.034,0.228s-0.02,0.198-0.024,0.32c-0.005,0.122-0.007,0.268-0.007,0.435
			c0,0.168,0.002,0.313,0.007,0.436c0.004,0.122,0.013,0.229,0.024,0.32c0.011,0.091,0.023,0.167,0.034,0.227
			c0.011,0.062,0.023,0.114,0.038,0.153c0.072,0.224,0.19,0.394,0.351,0.511C36.079,50.414,36.289,50.474,36.547,50.474
			 M36.547,51.037c-0.391,0-0.721-0.09-0.99-0.271c-0.271-0.181-0.464-0.452-0.582-0.81c-0.023-0.068-0.042-0.138-0.059-0.21
			c-0.015-0.074-0.029-0.159-0.038-0.256c-0.009-0.098-0.016-0.215-0.02-0.352c-0.004-0.136-0.007-0.299-0.007-0.489
			c0-0.189,0.002-0.354,0.007-0.489c0.004-0.137,0.011-0.253,0.02-0.351s0.022-0.183,0.038-0.256
			c0.017-0.071,0.035-0.142,0.059-0.21c0.118-0.359,0.311-0.629,0.582-0.811c0.269-0.181,0.599-0.271,0.99-0.271
			c0.396,0,0.728,0.091,0.998,0.271c0.269,0.182,0.463,0.451,0.581,0.811c0.023,0.068,0.042,0.139,0.059,0.21
			c0.015,0.073,0.029,0.158,0.037,0.256c0.009,0.098,0.016,0.214,0.021,0.351c0.004,0.136,0.007,0.3,0.007,0.489
			c0,0.19-0.003,0.354-0.007,0.489c-0.005,0.137-0.012,0.254-0.021,0.352c-0.008,0.097-0.021,0.182-0.037,0.256
			c-0.017,0.072-0.036,0.142-0.059,0.21c-0.117,0.357-0.312,0.629-0.581,0.81C37.275,50.947,36.943,51.037,36.547,51.037"/>
		<path d="M41.97,46.513c0-0.049,0.017-0.091,0.051-0.125c0.034-0.034,0.078-0.051,0.128-0.051h0.213
			c0.05,0,0.093,0.017,0.127,0.051c0.035,0.034,0.052,0.076,0.052,0.125v4.273c0,0.05-0.017,0.092-0.052,0.126
			c-0.035,0.034-0.078,0.051-0.127,0.051h-0.213c-0.05,0-0.094-0.017-0.128-0.051c-0.035-0.034-0.051-0.076-0.051-0.126v-0.904
			l-2.15-1.954H39.8v2.858c0,0.05-0.018,0.092-0.052,0.126c-0.035,0.034-0.077,0.051-0.128,0.051h-0.213
			c-0.05,0-0.093-0.017-0.126-0.051c-0.035-0.034-0.052-0.076-0.052-0.126v-4.273c0-0.049,0.018-0.091,0.052-0.125
			c0.033-0.034,0.076-0.051,0.126-0.051h0.213c0.051,0,0.093,0.017,0.128,0.051c0.034,0.034,0.052,0.076,0.052,0.125v0.579
			l2.143,1.967h0.027V46.513z"/>
	</g>
</g>
<g id="Layer_3" display="none">
</g>
</svg>
