<?xml version="1.0" encoding="utf-8"?>
<!-- Generator: Adobe Illustrator 26.3.1, SVG Export Plug-In . SVG Version: 6.00 Build 0)  -->
<svg version="1.1" id="Layer_1" xmlns="http://www.w3.org/2000/svg" xmlns:xlink="http://www.w3.org/1999/xlink" x="0px" y="0px"
	 viewBox="0 0 412.16 39.08" style="enable-background:new 0 0 412.16 39.08;" xml:space="preserve">
<style type="text/css">
	.st0{fill:#FFFFFF;}
	.st1{fill:#3FB894;}
	.st2{fill:#EE5A56;}
	.st3{fill:#002835;}
</style>
<g>
	<g>
		<rect y="0.71" width="32.71" height="37.65"/>
		<rect x="35.44" y="0.71" width="32.72" height="37.65"/>
		<rect x="70.88" y="0.71" width="32.72" height="37.65"/>
		<rect x="106.33" y="0.71" width="32.72" height="37.65"/>
		<polygon class="st0" points="95.92,8.88 96.22,9.18 96.22,12.54 95.92,12.85 89.41,12.85 89.41,26.23 95.92,26.23 96.22,26.54 
			96.22,29.89 95.92,30.2 78.56,30.2 78.26,29.89 78.26,26.54 78.56,26.23 85.08,26.23 85.08,12.85 78.56,12.85 78.26,12.54 
			78.26,9.18 78.56,8.88 		"/>
		<polygon class="st0" points="131.36,8.88 131.67,9.18 131.67,12.54 131.36,12.85 124.85,12.85 124.85,26.23 131.36,26.23 
			131.67,26.54 131.67,29.89 131.36,30.2 114.01,30.2 113.7,29.89 113.7,26.54 114.01,26.23 120.52,26.23 120.52,12.85 
			114.01,12.85 113.7,12.54 113.7,9.18 114.01,8.88 		"/>
		<polygon class="st0" points="60.45,8.88 56.74,8.88 56.43,9.19 56.43,19.37 47.17,12.62 47.17,9.19 46.86,8.88 43.14,8.88 
			42.84,9.19 42.84,29.9 43.14,30.2 46.86,30.2 47.17,29.9 47.17,17.97 56.43,24.72 56.43,29.9 56.74,30.2 60.45,30.2 60.76,29.9 
			60.76,9.19 		"/>
		<rect x="10.89" y="22.65" class="st0" width="10.93" height="3.96"/>
		<polygon class="st0" points="16.51,14.28 21.01,22.64 21.01,29.89 21.32,30.2 25.03,30.2 25.34,29.89 25.34,21.55 18.64,9.18 
			18.24,8.88 14.48,8.88 14.07,9.18 7.37,21.55 7.37,29.89 7.68,30.2 11.4,30.2 11.7,29.89 11.7,22.64 16.21,14.28 		"/>
		<path d="M150.91,9.41c-0.06-0.39-0.15-0.76-0.28-1.13c-0.13-0.36-0.26-0.7-0.4-1.01c-0.14-0.31-0.28-0.57-0.41-0.8
			c-0.13-0.23-0.23-0.4-0.3-0.52h-0.01c-0.07,0.12-0.17,0.29-0.3,0.52c-0.13,0.23-0.27,0.5-0.41,0.8c-0.14,0.31-0.28,0.64-0.4,1.01
			c-0.13,0.36-0.22,0.74-0.28,1.13H150.91z M150.03,5.18c0.18,0.3,0.38,0.64,0.59,1.01c0.21,0.38,0.4,0.78,0.58,1.21
			c0.18,0.43,0.33,0.88,0.45,1.34c0.12,0.47,0.18,0.94,0.18,1.42v1.44c0,0.07-0.03,0.14-0.08,0.19c-0.05,0.05-0.11,0.08-0.19,0.08
			h-0.32c-0.08,0-0.14-0.03-0.19-0.08c-0.05-0.05-0.08-0.11-0.08-0.19v-1.35h-2.91v1.35c0,0.07-0.03,0.14-0.08,0.19
			c-0.05,0.05-0.11,0.08-0.19,0.08h-0.32c-0.07,0-0.14-0.03-0.19-0.08c-0.05-0.05-0.08-0.11-0.08-0.19v-1.44
			c0-0.48,0.06-0.95,0.18-1.42c0.12-0.47,0.27-0.91,0.45-1.34c0.18-0.43,0.38-0.83,0.58-1.21c0.21-0.37,0.4-0.71,0.59-1.01
			c0.05-0.07,0.1-0.14,0.15-0.19c0.05-0.05,0.11-0.08,0.19-0.08h0.34c0.07,0,0.14,0.03,0.19,0.08
			C149.93,5.04,149.98,5.1,150.03,5.18"/>
		<path d="M158.32,8.8c0,0.31-0.02,0.61-0.05,0.87c-0.03,0.27-0.07,0.49-0.13,0.66c-0.17,0.53-0.46,0.94-0.88,1.22
			c-0.41,0.28-0.91,0.42-1.49,0.42c-0.59,0-1.1-0.14-1.51-0.41c-0.41-0.27-0.7-0.68-0.88-1.22c-0.03-0.1-0.06-0.21-0.08-0.32
			c-0.02-0.11-0.04-0.24-0.06-0.38c-0.02-0.15-0.03-0.32-0.04-0.53c-0.01-0.2-0.01-0.45-0.01-0.74c0-0.29,0-0.53,0.01-0.74
			c0.01-0.2,0.02-0.38,0.04-0.53c0.02-0.15,0.04-0.27,0.06-0.38c0.02-0.11,0.05-0.21,0.08-0.32c0.18-0.54,0.47-0.94,0.88-1.22
			c0.41-0.27,0.91-0.41,1.5-0.41c0.57,0,1.04,0.12,1.41,0.36c0.36,0.24,0.64,0.53,0.83,0.88c0.04,0.07,0.04,0.14,0.02,0.2
			c-0.02,0.07-0.06,0.12-0.13,0.15l-0.32,0.15c-0.14,0.08-0.26,0.04-0.36-0.11c-0.16-0.27-0.36-0.46-0.59-0.59
			c-0.23-0.13-0.52-0.19-0.86-0.19c-0.4,0-0.72,0.09-0.97,0.27c-0.25,0.18-0.43,0.43-0.54,0.77c-0.02,0.06-0.04,0.14-0.06,0.23
			c-0.02,0.09-0.04,0.2-0.05,0.33c-0.01,0.13-0.02,0.29-0.03,0.48c-0.01,0.19-0.01,0.41-0.01,0.68c0,0.27,0,0.49,0.01,0.68
			s0.02,0.35,0.03,0.48c0.01,0.13,0.03,0.24,0.05,0.33c0.02,0.09,0.04,0.16,0.06,0.22c0.11,0.33,0.29,0.59,0.54,0.77
			c0.25,0.18,0.57,0.27,0.97,0.27c0.35,0,0.66-0.09,0.93-0.26c0.27-0.17,0.45-0.42,0.56-0.75c0.04-0.12,0.07-0.26,0.09-0.44
			c0.03-0.18,0.04-0.4,0.04-0.65c0-0.04-0.02-0.06-0.06-0.06h-1.19c-0.08,0-0.14-0.03-0.19-0.08c-0.05-0.05-0.08-0.11-0.08-0.19
			V8.44c0-0.07,0.03-0.14,0.08-0.19s0.11-0.08,0.19-0.08h1.9c0.08,0,0.14,0.03,0.19,0.08c0.05,0.05,0.08,0.11,0.08,0.19V8.8z"/>
		<path d="M160.05,11.86c-0.08,0-0.14-0.03-0.19-0.08c-0.05-0.05-0.08-0.11-0.08-0.19V5.18c0-0.07,0.03-0.14,0.08-0.19
			c0.05-0.05,0.12-0.08,0.19-0.08h3.86c0.07,0,0.14,0.03,0.19,0.08c0.05,0.05,0.08,0.11,0.08,0.19v0.32c0,0.07-0.03,0.14-0.08,0.19
			c-0.05,0.05-0.11,0.08-0.19,0.08h-3.15c-0.04,0-0.06,0.02-0.06,0.06v2.05c0,0.04,0.02,0.06,0.06,0.06h2.65
			c0.07,0,0.14,0.03,0.19,0.08c0.05,0.05,0.08,0.11,0.08,0.19v0.32c0,0.08-0.03,0.14-0.08,0.19c-0.05,0.05-0.11,0.08-0.19,0.08
			h-2.65c-0.04,0-0.06,0.02-0.06,0.06v2.12c0,0.04,0.02,0.06,0.06,0.06h3.15c0.07,0,0.14,0.03,0.19,0.08
			c0.05,0.05,0.08,0.11,0.08,0.19v0.32c0,0.07-0.03,0.14-0.08,0.19c-0.05,0.05-0.11,0.08-0.19,0.08H160.05z"/>
		<path d="M169.66,5.18c0-0.07,0.03-0.14,0.08-0.19c0.05-0.05,0.12-0.08,0.19-0.08h0.32c0.08,0,0.14,0.03,0.19,0.08
			c0.05,0.05,0.08,0.11,0.08,0.19v6.42c0,0.07-0.03,0.14-0.08,0.19c-0.05,0.05-0.12,0.08-0.19,0.08h-0.32
			c-0.08,0-0.14-0.03-0.19-0.08c-0.05-0.05-0.08-0.11-0.08-0.19v-1.36l-3.23-2.93h-0.03v4.3c0,0.07-0.03,0.14-0.08,0.19
			c-0.05,0.05-0.12,0.08-0.19,0.08h-0.32c-0.08,0-0.14-0.03-0.19-0.08c-0.05-0.05-0.08-0.11-0.08-0.19V5.18
			c0-0.07,0.03-0.14,0.08-0.19c0.05-0.05,0.12-0.08,0.19-0.08h0.32c0.08,0,0.14,0.03,0.19,0.08c0.05,0.05,0.08,0.11,0.08,0.19v0.87
			L169.62,9h0.04V5.18z"/>
		<path d="M176.62,10.73c-0.21,0.4-0.5,0.71-0.86,0.93c-0.36,0.21-0.79,0.32-1.28,0.32c-0.57,0-1.06-0.13-1.45-0.4
			c-0.4-0.27-0.68-0.68-0.86-1.23c-0.03-0.1-0.06-0.21-0.09-0.31c-0.02-0.11-0.04-0.23-0.06-0.38c-0.01-0.15-0.02-0.32-0.03-0.53
			c-0.01-0.2-0.01-0.45-0.01-0.74c0-0.29,0-0.53,0.01-0.74c0.01-0.2,0.02-0.38,0.03-0.53c0.01-0.15,0.03-0.27,0.06-0.38
			c0.02-0.11,0.05-0.21,0.09-0.31c0.18-0.55,0.46-0.96,0.86-1.23c0.39-0.27,0.88-0.4,1.45-0.4c0.49,0,0.92,0.11,1.28,0.32
			c0.36,0.22,0.65,0.52,0.86,0.93c0.03,0.07,0.04,0.14,0.02,0.2c-0.02,0.07-0.06,0.12-0.13,0.15l-0.32,0.15
			c-0.07,0.03-0.14,0.04-0.2,0.03c-0.07-0.02-0.12-0.06-0.15-0.14c-0.13-0.24-0.31-0.43-0.53-0.58c-0.22-0.15-0.5-0.22-0.83-0.22
			c-0.38,0-0.69,0.09-0.92,0.27c-0.23,0.18-0.41,0.43-0.52,0.76c-0.02,0.08-0.04,0.16-0.06,0.24c-0.02,0.09-0.03,0.19-0.04,0.32
			c-0.01,0.13-0.02,0.28-0.03,0.47c-0.01,0.19-0.01,0.42-0.01,0.69c0,0.27,0,0.5,0.01,0.69c0.01,0.19,0.02,0.34,0.03,0.47
			c0.01,0.13,0.02,0.23,0.04,0.32c0.02,0.09,0.04,0.17,0.06,0.24c0.12,0.33,0.29,0.58,0.52,0.76c0.23,0.18,0.54,0.27,0.92,0.27
			c0.33,0,0.61-0.07,0.83-0.22c0.22-0.15,0.4-0.34,0.53-0.58c0.04-0.07,0.09-0.12,0.16-0.14c0.06-0.02,0.13-0.01,0.2,0.03l0.32,0.15
			c0.07,0.03,0.11,0.09,0.13,0.15C176.66,10.59,176.66,10.66,176.62,10.73"/>
		<path d="M179.77,4.91c0.07,0,0.14,0.03,0.19,0.08c0.05,0.05,0.08,0.11,0.08,0.19v0.32c0,0.07-0.03,0.14-0.08,0.19
			c-0.05,0.05-0.11,0.08-0.19,0.08h-0.51v5.26h0.51c0.07,0,0.14,0.03,0.19,0.08c0.05,0.05,0.08,0.11,0.08,0.19v0.32
			c0,0.08-0.03,0.14-0.08,0.19c-0.05,0.05-0.11,0.08-0.19,0.08h-1.16h-0.04h-0.74c-0.07,0-0.14-0.03-0.19-0.08
			c-0.05-0.05-0.08-0.11-0.08-0.19v-0.32c0-0.07,0.03-0.14,0.08-0.19c0.05-0.05,0.11-0.08,0.19-0.08h0.51V5.76h-0.51
			c-0.07,0-0.14-0.03-0.19-0.08c-0.05-0.05-0.08-0.11-0.08-0.19V5.18c0-0.07,0.03-0.14,0.08-0.19c0.05-0.05,0.11-0.08,0.19-0.08
			H179.77z"/>
		<path d="M184.9,9.41c-0.06-0.39-0.16-0.76-0.28-1.13c-0.13-0.36-0.26-0.7-0.4-1.01c-0.14-0.31-0.28-0.57-0.41-0.8
			c-0.13-0.23-0.23-0.4-0.3-0.52h-0.01c-0.07,0.12-0.17,0.29-0.3,0.52c-0.13,0.23-0.27,0.5-0.41,0.8c-0.14,0.31-0.28,0.64-0.4,1.01
			c-0.13,0.36-0.22,0.74-0.28,1.13H184.9z M184.01,5.18c0.18,0.3,0.38,0.64,0.59,1.01c0.21,0.38,0.4,0.78,0.58,1.21
			c0.18,0.43,0.33,0.88,0.45,1.34c0.12,0.47,0.18,0.94,0.18,1.42v1.44c0,0.07-0.03,0.14-0.08,0.19c-0.05,0.05-0.11,0.08-0.19,0.08
			h-0.32c-0.07,0-0.14-0.03-0.19-0.08c-0.05-0.05-0.08-0.11-0.08-0.19v-1.35h-2.91v1.35c0,0.07-0.03,0.14-0.08,0.19
			c-0.05,0.05-0.11,0.08-0.19,0.08h-0.32c-0.07,0-0.14-0.03-0.19-0.08c-0.05-0.05-0.08-0.11-0.08-0.19v-1.44
			c0-0.48,0.06-0.95,0.18-1.42c0.12-0.47,0.27-0.91,0.45-1.34c0.18-0.43,0.37-0.83,0.58-1.21c0.21-0.37,0.4-0.71,0.59-1.01
			c0.05-0.07,0.1-0.14,0.15-0.19c0.05-0.05,0.11-0.08,0.19-0.08h0.34c0.07,0,0.14,0.03,0.19,0.08
			C183.91,5.04,183.96,5.1,184.01,5.18"/>
		<path d="M194.01,5.18c0-0.07,0.03-0.14,0.08-0.19c0.05-0.05,0.12-0.08,0.19-0.08h0.32c0.08,0,0.14,0.03,0.19,0.08
			c0.05,0.05,0.08,0.11,0.08,0.19v6.42c0,0.07-0.03,0.14-0.08,0.19c-0.05,0.05-0.12,0.08-0.19,0.08h-0.32
			c-0.08,0-0.14-0.03-0.19-0.08c-0.05-0.05-0.08-0.11-0.08-0.19v-1.36l-3.23-2.93h-0.03v4.3c0,0.07-0.03,0.14-0.08,0.19
			c-0.05,0.05-0.12,0.08-0.19,0.08h-0.32c-0.08,0-0.14-0.03-0.19-0.08c-0.05-0.05-0.08-0.11-0.08-0.19V5.18
			c0-0.07,0.03-0.14,0.08-0.19c0.05-0.05,0.12-0.08,0.19-0.08h0.32c0.08,0,0.14,0.03,0.19,0.08c0.05,0.05,0.08,0.11,0.08,0.19v0.87
			L193.97,9h0.04V5.18z"/>
		<path d="M200.18,9.41c-0.06-0.39-0.15-0.76-0.28-1.13c-0.13-0.36-0.26-0.7-0.4-1.01c-0.14-0.31-0.28-0.57-0.41-0.8
			c-0.13-0.23-0.23-0.4-0.3-0.52h-0.01c-0.07,0.12-0.17,0.29-0.3,0.52c-0.13,0.23-0.27,0.5-0.41,0.8c-0.14,0.31-0.28,0.64-0.4,1.01
			c-0.13,0.36-0.22,0.74-0.28,1.13H200.18z M199.29,5.18c0.18,0.3,0.38,0.64,0.59,1.01c0.21,0.38,0.4,0.78,0.58,1.21
			c0.18,0.43,0.33,0.88,0.45,1.34c0.12,0.47,0.18,0.94,0.18,1.42v1.44c0,0.07-0.03,0.14-0.08,0.19c-0.05,0.05-0.11,0.08-0.19,0.08
			h-0.32c-0.07,0-0.14-0.03-0.19-0.08c-0.05-0.05-0.08-0.11-0.08-0.19v-1.35h-2.91v1.35c0,0.07-0.03,0.14-0.08,0.19
			c-0.05,0.05-0.11,0.08-0.19,0.08h-0.32c-0.07,0-0.14-0.03-0.19-0.08c-0.05-0.05-0.08-0.11-0.08-0.19v-1.44
			c0-0.48,0.06-0.95,0.18-1.42c0.12-0.47,0.27-0.91,0.45-1.34c0.18-0.43,0.37-0.83,0.58-1.21c0.21-0.37,0.4-0.71,0.59-1.01
			c0.05-0.07,0.1-0.14,0.15-0.19c0.05-0.05,0.11-0.08,0.19-0.08h0.34c0.07,0,0.14,0.03,0.19,0.08
			C199.19,5.04,199.24,5.1,199.29,5.18"/>
		<path d="M206.9,10.73c-0.21,0.4-0.5,0.71-0.86,0.93c-0.36,0.21-0.79,0.32-1.28,0.32c-0.57,0-1.06-0.13-1.45-0.4
			c-0.4-0.27-0.68-0.68-0.86-1.23c-0.03-0.1-0.06-0.21-0.09-0.31c-0.02-0.11-0.04-0.23-0.06-0.38c-0.01-0.15-0.02-0.32-0.03-0.53
			c-0.01-0.2-0.01-0.45-0.01-0.74c0-0.29,0-0.53,0.01-0.74c0.01-0.2,0.02-0.38,0.03-0.53c0.01-0.15,0.03-0.27,0.06-0.38
			c0.02-0.11,0.05-0.21,0.09-0.31c0.18-0.55,0.46-0.96,0.86-1.23c0.39-0.27,0.88-0.4,1.45-0.4c0.49,0,0.92,0.11,1.28,0.32
			c0.36,0.22,0.65,0.52,0.86,0.93c0.03,0.07,0.04,0.14,0.02,0.2c-0.02,0.07-0.06,0.12-0.13,0.15l-0.32,0.15
			c-0.07,0.03-0.14,0.04-0.2,0.03c-0.07-0.02-0.12-0.06-0.15-0.14c-0.13-0.24-0.31-0.43-0.53-0.58c-0.22-0.15-0.5-0.22-0.83-0.22
			c-0.38,0-0.69,0.09-0.92,0.27c-0.23,0.18-0.41,0.43-0.52,0.76c-0.02,0.08-0.04,0.16-0.06,0.24c-0.02,0.09-0.03,0.19-0.04,0.32
			c-0.01,0.13-0.02,0.28-0.03,0.47c-0.01,0.19-0.01,0.42-0.01,0.69c0,0.27,0,0.5,0.01,0.69c0.01,0.19,0.02,0.34,0.03,0.47
			c0.01,0.13,0.02,0.23,0.04,0.32c0.02,0.09,0.04,0.17,0.06,0.24c0.12,0.33,0.29,0.58,0.52,0.76c0.23,0.18,0.54,0.27,0.92,0.27
			c0.33,0,0.61-0.07,0.83-0.22c0.22-0.15,0.4-0.34,0.53-0.58c0.04-0.07,0.09-0.12,0.16-0.14c0.07-0.02,0.13-0.01,0.2,0.03l0.32,0.15
			c0.07,0.03,0.11,0.09,0.13,0.15C206.94,10.59,206.94,10.66,206.9,10.73"/>
		<path d="M210.05,4.91c0.07,0,0.14,0.03,0.19,0.08c0.05,0.05,0.08,0.11,0.08,0.19v0.32c0,0.07-0.03,0.14-0.08,0.19
			c-0.05,0.05-0.11,0.08-0.19,0.08h-0.51v5.26h0.51c0.07,0,0.14,0.03,0.19,0.08c0.05,0.05,0.08,0.11,0.08,0.19v0.32
			c0,0.08-0.03,0.14-0.08,0.19c-0.05,0.05-0.11,0.08-0.19,0.08h-1.16h-0.04h-0.74c-0.07,0-0.14-0.03-0.19-0.08
			c-0.05-0.05-0.08-0.11-0.08-0.19v-0.32c0-0.07,0.03-0.14,0.08-0.19c0.05-0.05,0.11-0.08,0.19-0.08h0.51V5.76h-0.51
			c-0.07,0-0.14-0.03-0.19-0.08c-0.05-0.05-0.08-0.11-0.08-0.19V5.18c0-0.07,0.03-0.14,0.08-0.19c0.05-0.05,0.11-0.08,0.19-0.08
			H210.05z"/>
		<path d="M213.88,11.13c0.39,0,0.71-0.09,0.95-0.27c0.24-0.18,0.42-0.43,0.53-0.77c0.02-0.06,0.04-0.14,0.06-0.23
			c0.02-0.09,0.03-0.21,0.05-0.34c0.02-0.14,0.03-0.3,0.04-0.48c0.01-0.18,0.01-0.4,0.01-0.65c0-0.25,0-0.47-0.01-0.65
			c-0.01-0.18-0.02-0.34-0.04-0.48c-0.02-0.14-0.03-0.25-0.05-0.34c-0.02-0.09-0.04-0.17-0.06-0.23c-0.11-0.33-0.29-0.59-0.53-0.77
			c-0.25-0.18-0.56-0.27-0.95-0.27c-0.39,0-0.7,0.09-0.95,0.27c-0.24,0.18-0.42,0.43-0.53,0.77c-0.02,0.06-0.04,0.14-0.06,0.23
			c-0.02,0.09-0.03,0.21-0.05,0.34c-0.02,0.14-0.03,0.3-0.04,0.48c-0.01,0.18-0.01,0.4-0.01,0.65c0,0.25,0,0.47,0.01,0.65
			c0.01,0.18,0.02,0.34,0.04,0.48c0.02,0.14,0.03,0.25,0.05,0.34c0.02,0.09,0.04,0.17,0.06,0.23c0.11,0.33,0.28,0.59,0.53,0.77
			C213.17,11.04,213.49,11.13,213.88,11.13 M213.88,11.98c-0.59,0-1.08-0.14-1.49-0.41c-0.41-0.27-0.7-0.68-0.87-1.22
			c-0.03-0.1-0.06-0.21-0.09-0.32c-0.02-0.11-0.04-0.24-0.06-0.38c-0.01-0.15-0.02-0.32-0.03-0.53c-0.01-0.2-0.01-0.45-0.01-0.74
			c0-0.29,0-0.53,0.01-0.74c0.01-0.2,0.02-0.38,0.03-0.53c0.01-0.15,0.03-0.27,0.06-0.38c0.02-0.11,0.05-0.21,0.09-0.32
			c0.18-0.54,0.47-0.94,0.87-1.22c0.41-0.27,0.9-0.41,1.49-0.41c0.59,0,1.09,0.14,1.5,0.41c0.41,0.27,0.7,0.68,0.87,1.22
			c0.03,0.1,0.06,0.21,0.09,0.32c0.02,0.11,0.04,0.24,0.06,0.38c0.01,0.15,0.02,0.32,0.03,0.53c0.01,0.2,0.01,0.45,0.01,0.74
			c0,0.29,0,0.53-0.01,0.74c-0.01,0.2-0.02,0.38-0.03,0.53c-0.01,0.15-0.03,0.27-0.06,0.38c-0.02,0.11-0.05,0.21-0.09,0.32
			c-0.18,0.54-0.47,0.94-0.87,1.22C214.97,11.84,214.47,11.98,213.88,11.98"/>
		<path d="M222.03,5.18c0-0.07,0.03-0.14,0.08-0.19c0.05-0.05,0.12-0.08,0.19-0.08h0.32c0.08,0,0.14,0.03,0.19,0.08
			c0.05,0.05,0.08,0.11,0.08,0.19v6.42c0,0.07-0.03,0.14-0.08,0.19c-0.05,0.05-0.12,0.08-0.19,0.08h-0.32
			c-0.08,0-0.14-0.03-0.19-0.08c-0.05-0.05-0.08-0.11-0.08-0.19v-1.36L218.8,7.3h-0.03v4.3c0,0.07-0.02,0.14-0.08,0.19
			c-0.05,0.05-0.12,0.08-0.19,0.08h-0.32c-0.08,0-0.14-0.03-0.19-0.08c-0.05-0.05-0.08-0.11-0.08-0.19V5.18
			c0-0.07,0.03-0.14,0.08-0.19c0.05-0.05,0.12-0.08,0.19-0.08h0.32c0.08,0,0.14,0.03,0.19,0.08c0.05,0.05,0.08,0.11,0.08,0.19v0.87
			L221.99,9h0.04V5.18z"/>
		<path d="M228.2,9.41c-0.06-0.39-0.15-0.76-0.28-1.13c-0.13-0.36-0.26-0.7-0.4-1.01c-0.14-0.31-0.28-0.57-0.41-0.8
			c-0.13-0.23-0.23-0.4-0.3-0.52h-0.01c-0.07,0.12-0.17,0.29-0.3,0.52c-0.13,0.23-0.27,0.5-0.41,0.8c-0.14,0.31-0.28,0.64-0.4,1.01
			c-0.13,0.36-0.22,0.74-0.28,1.13H228.2z M227.31,5.18c0.18,0.3,0.38,0.64,0.59,1.01c0.21,0.38,0.4,0.78,0.58,1.21
			c0.18,0.43,0.33,0.88,0.45,1.34c0.12,0.47,0.18,0.94,0.18,1.42v1.44c0,0.07-0.03,0.14-0.08,0.19c-0.05,0.05-0.11,0.08-0.19,0.08
			h-0.32c-0.07,0-0.14-0.03-0.19-0.08c-0.05-0.05-0.08-0.11-0.08-0.19v-1.35h-2.91v1.35c0,0.07-0.03,0.14-0.08,0.19
			c-0.05,0.05-0.11,0.08-0.19,0.08h-0.32c-0.07,0-0.14-0.03-0.19-0.08c-0.05-0.05-0.08-0.11-0.08-0.19v-1.44
			c0-0.48,0.06-0.95,0.18-1.42c0.12-0.47,0.27-0.91,0.45-1.34c0.18-0.43,0.37-0.83,0.58-1.21c0.21-0.37,0.4-0.71,0.59-1.01
			c0.05-0.07,0.1-0.14,0.15-0.19c0.05-0.05,0.11-0.08,0.19-0.08h0.34c0.07,0,0.14,0.03,0.19,0.08
			C227.21,5.04,227.26,5.1,227.31,5.18"/>
		<path d="M230.73,5.18c0-0.07,0.03-0.14,0.08-0.19c0.05-0.05,0.12-0.08,0.19-0.08h0.38c0.08,0,0.14,0.03,0.19,0.08
			c0.05,0.05,0.08,0.11,0.08,0.19v5.78c0,0.04,0.02,0.06,0.06,0.06h3.15c0.07,0,0.14,0.03,0.19,0.08c0.05,0.05,0.08,0.11,0.08,0.19
			v0.32c0,0.07-0.03,0.14-0.08,0.19c-0.05,0.05-0.11,0.08-0.19,0.08H231c-0.08,0-0.14-0.03-0.19-0.08
			c-0.05-0.05-0.08-0.11-0.08-0.19V5.18z"/>
		<path d="M148.24,22.09c0,0.04,0.02,0.06,0.06,0.06h1.27c0.42,0,0.76-0.07,1.02-0.22c0.26-0.15,0.44-0.39,0.56-0.73
			c0.02-0.06,0.04-0.13,0.06-0.21c0.02-0.08,0.04-0.19,0.05-0.31s0.02-0.28,0.03-0.47c0.01-0.18,0.01-0.41,0.01-0.69
			c0-0.27,0-0.5-0.01-0.69c-0.01-0.18-0.02-0.34-0.03-0.46s-0.03-0.23-0.05-0.31c-0.02-0.08-0.04-0.15-0.06-0.21
			c-0.12-0.34-0.3-0.58-0.56-0.73c-0.26-0.15-0.6-0.22-1.02-0.22h-1.27c-0.04,0-0.06,0.02-0.06,0.06V22.09z M147.58,23
			c-0.08,0-0.14-0.03-0.19-0.08c-0.05-0.05-0.08-0.11-0.08-0.19v-6.42c0-0.08,0.03-0.14,0.08-0.19c0.05-0.05,0.11-0.08,0.19-0.08
			h2.18c1.19,0,1.95,0.49,2.27,1.48c0.03,0.1,0.05,0.19,0.08,0.3c0.02,0.1,0.04,0.23,0.06,0.38c0.02,0.15,0.03,0.33,0.04,0.54
			c0.01,0.21,0.01,0.47,0.01,0.78s0,0.57-0.01,0.78c-0.01,0.21-0.02,0.39-0.04,0.54c-0.02,0.15-0.04,0.28-0.06,0.38
			c-0.02,0.1-0.05,0.2-0.08,0.3c-0.32,0.99-1.08,1.48-2.27,1.48H147.58z"/>
		<path d="M153.95,23c-0.08,0-0.14-0.03-0.19-0.08c-0.05-0.05-0.08-0.11-0.08-0.19v-6.42c0-0.08,0.03-0.14,0.08-0.19
			s0.11-0.08,0.19-0.08h3.86c0.07,0,0.14,0.03,0.19,0.08c0.05,0.05,0.08,0.11,0.08,0.19v0.32c0,0.07-0.03,0.14-0.08,0.19
			c-0.05,0.05-0.11,0.08-0.19,0.08h-3.15c-0.04,0-0.06,0.02-0.06,0.06V19c0,0.04,0.02,0.06,0.06,0.06h2.65
			c0.07,0,0.14,0.03,0.19,0.08c0.05,0.05,0.08,0.11,0.08,0.19v0.32c0,0.08-0.03,0.14-0.08,0.19c-0.05,0.05-0.11,0.08-0.19,0.08
			h-2.65c-0.04,0-0.06,0.02-0.06,0.06v2.12c0,0.04,0.02,0.06,0.06,0.06h3.15c0.07,0,0.14,0.03,0.19,0.08
			c0.05,0.05,0.08,0.11,0.08,0.19v0.32c0,0.07-0.03,0.14-0.08,0.19c-0.05,0.05-0.11,0.08-0.19,0.08H153.95z"/>
		<path d="M163.66,16.05c0.07,0,0.14,0.03,0.19,0.08c0.05,0.05,0.08,0.11,0.08,0.19v0.32c0,0.07-0.03,0.14-0.08,0.19
			c-0.05,0.05-0.11,0.08-0.19,0.08h-0.51v5.26h0.51c0.07,0,0.14,0.03,0.19,0.08c0.05,0.05,0.08,0.11,0.08,0.19v0.32
			c0,0.08-0.03,0.14-0.08,0.19c-0.05,0.05-0.11,0.08-0.19,0.08h-1.16h-0.04h-0.74c-0.07,0-0.14-0.03-0.19-0.08
			c-0.05-0.05-0.08-0.11-0.08-0.19v-0.32c0-0.07,0.03-0.14,0.08-0.19c0.05-0.05,0.11-0.08,0.19-0.08h0.51v-5.26h-0.51
			c-0.07,0-0.14-0.03-0.19-0.08c-0.05-0.05-0.08-0.11-0.08-0.19v-0.32c0-0.08,0.03-0.14,0.08-0.19s0.11-0.08,0.19-0.08H163.66z"/>
		<path d="M169.3,16.31c0-0.07,0.03-0.14,0.08-0.19c0.05-0.05,0.12-0.08,0.19-0.08h0.32c0.08,0,0.14,0.03,0.19,0.08
			c0.05,0.05,0.08,0.11,0.08,0.19v6.42c0,0.07-0.03,0.14-0.08,0.19c-0.05,0.05-0.12,0.08-0.19,0.08h-0.32
			c-0.08,0-0.14-0.03-0.19-0.08c-0.05-0.05-0.08-0.11-0.08-0.19v-1.36l-3.23-2.93h-0.03v4.3c0,0.07-0.02,0.14-0.08,0.19
			c-0.05,0.05-0.12,0.08-0.19,0.08h-0.32c-0.08,0-0.14-0.03-0.19-0.08c-0.05-0.05-0.08-0.11-0.08-0.19v-6.42
			c0-0.07,0.03-0.14,0.08-0.19c0.05-0.05,0.12-0.08,0.19-0.08h0.32c0.08,0,0.14,0.03,0.19,0.08c0.05,0.05,0.08,0.11,0.08,0.19v0.87
			l3.22,2.96h0.04V16.31z"/>
		<path d="M172.45,17.74c0.01,0.48,0.07,0.94,0.2,1.4c0.13,0.46,0.27,0.87,0.43,1.25c0.16,0.38,0.32,0.71,0.48,0.98
			c0.16,0.28,0.27,0.47,0.34,0.58h0.01c0.07-0.11,0.18-0.3,0.34-0.58c0.16-0.28,0.32-0.6,0.48-0.98c0.16-0.38,0.31-0.8,0.43-1.25
			c0.13-0.46,0.19-0.92,0.2-1.4v-1.43c0-0.07,0.03-0.14,0.08-0.19c0.05-0.05,0.11-0.08,0.19-0.08h0.32c0.07,0,0.14,0.03,0.19,0.08
			c0.05,0.05,0.08,0.11,0.08,0.19v1.44c0,0.48-0.06,0.95-0.18,1.42c-0.12,0.47-0.27,0.92-0.45,1.35c-0.18,0.43-0.37,0.83-0.58,1.21
			c-0.21,0.38-0.4,0.71-0.59,1.01c-0.05,0.07-0.1,0.14-0.15,0.19c-0.05,0.05-0.11,0.08-0.19,0.08h-0.34c-0.08,0-0.14-0.03-0.19-0.08
			c-0.05-0.05-0.1-0.11-0.15-0.19c-0.18-0.29-0.38-0.63-0.59-1.01c-0.21-0.38-0.4-0.78-0.58-1.21c-0.18-0.43-0.33-0.88-0.45-1.35
			c-0.12-0.47-0.18-0.94-0.18-1.42v-1.44c0-0.07,0.03-0.14,0.08-0.19c0.05-0.05,0.11-0.08,0.19-0.08h0.32
			c0.08,0,0.14,0.03,0.19,0.08c0.05,0.05,0.08,0.11,0.08,0.19V17.74z"/>
		<path d="M177.88,23c-0.08,0-0.14-0.03-0.19-0.08c-0.05-0.05-0.08-0.11-0.08-0.19v-6.42c0-0.08,0.03-0.14,0.08-0.19
			c0.05-0.05,0.12-0.08,0.19-0.08h3.86c0.07,0,0.14,0.03,0.19,0.08c0.05,0.05,0.08,0.11,0.08,0.19v0.32c0,0.07-0.03,0.14-0.08,0.19
			c-0.05,0.05-0.11,0.08-0.19,0.08h-3.15c-0.04,0-0.06,0.02-0.06,0.06V19c0,0.04,0.02,0.06,0.06,0.06h2.65
			c0.07,0,0.14,0.03,0.19,0.08c0.05,0.05,0.08,0.11,0.08,0.19v0.32c0,0.08-0.03,0.14-0.08,0.19c-0.05,0.05-0.11,0.08-0.19,0.08
			h-2.65c-0.04,0-0.06,0.02-0.06,0.06v2.12c0,0.04,0.02,0.06,0.06,0.06h3.15c0.07,0,0.14,0.03,0.19,0.08
			c0.05,0.05,0.08,0.11,0.08,0.19v0.32c0,0.07-0.03,0.14-0.08,0.19c-0.05,0.05-0.11,0.08-0.19,0.08H177.88z"/>
		<path d="M183.75,21.65c0.22,0.16,0.49,0.3,0.8,0.42c0.31,0.13,0.65,0.19,1.01,0.19c0.48,0,0.86-0.11,1.13-0.33
			c0.27-0.22,0.4-0.5,0.4-0.86c0-0.15-0.02-0.29-0.07-0.41c-0.05-0.12-0.13-0.23-0.24-0.33c-0.11-0.1-0.26-0.18-0.44-0.25
			c-0.18-0.07-0.42-0.12-0.7-0.15l-0.35-0.05c-1.36-0.18-2.05-0.82-2.05-1.92c0-0.31,0.05-0.59,0.16-0.84
			c0.11-0.25,0.26-0.47,0.46-0.64c0.2-0.18,0.44-0.31,0.72-0.41c0.28-0.1,0.59-0.14,0.94-0.14c0.37,0,0.72,0.05,1.06,0.15
			c0.34,0.1,0.64,0.23,0.89,0.38c0.07,0.04,0.11,0.1,0.13,0.16c0.02,0.07,0.01,0.14-0.03,0.2l-0.17,0.29
			c-0.03,0.07-0.09,0.11-0.16,0.13c-0.07,0.02-0.14,0.01-0.21-0.03c-0.26-0.14-0.51-0.25-0.76-0.33c-0.25-0.07-0.51-0.11-0.78-0.11
			c-0.43,0-0.76,0.1-0.98,0.31s-0.34,0.48-0.34,0.81c0,0.29,0.11,0.53,0.33,0.72c0.22,0.19,0.6,0.32,1.14,0.39l0.34,0.05
			c0.68,0.1,1.19,0.3,1.53,0.61c0.34,0.31,0.51,0.76,0.51,1.33c0,0.31-0.05,0.59-0.16,0.84c-0.11,0.26-0.27,0.48-0.48,0.66
			c-0.21,0.18-0.48,0.33-0.8,0.43c-0.32,0.11-0.68,0.16-1.1,0.16c-0.45,0-0.88-0.08-1.3-0.23c-0.42-0.15-0.76-0.33-1.02-0.54
			c-0.06-0.06-0.09-0.12-0.1-0.18c-0.01-0.07,0.01-0.13,0.07-0.19l0.25-0.29c0.05-0.06,0.11-0.09,0.18-0.09
			C183.63,21.58,183.7,21.6,183.75,21.65"/>
		<path d="M188.93,16.89c-0.08,0-0.14-0.03-0.19-0.08c-0.05-0.05-0.08-0.11-0.08-0.19v-0.32c0-0.08,0.03-0.14,0.08-0.19
			c0.05-0.05,0.11-0.08,0.19-0.08h4.52c0.07,0,0.14,0.03,0.19,0.08c0.05,0.05,0.08,0.11,0.08,0.19v0.32c0,0.07-0.03,0.14-0.08,0.19
			c-0.05,0.05-0.11,0.08-0.19,0.08h-1.74c-0.04,0-0.06,0.02-0.06,0.06v5.78c0,0.08-0.03,0.14-0.08,0.19
			c-0.05,0.05-0.11,0.08-0.19,0.08h-0.38c-0.08,0-0.14-0.03-0.19-0.08c-0.05-0.05-0.08-0.11-0.08-0.19v-5.78
			c0-0.04-0.02-0.06-0.06-0.06H188.93z"/>
		<path d="M196.54,16.05c0.07,0,0.14,0.03,0.19,0.08c0.05,0.05,0.08,0.11,0.08,0.19v0.32c0,0.07-0.03,0.14-0.08,0.19
			c-0.05,0.05-0.11,0.08-0.19,0.08h-0.51v5.26h0.51c0.07,0,0.14,0.03,0.19,0.08c0.05,0.05,0.08,0.11,0.08,0.19v0.32
			c0,0.08-0.03,0.14-0.08,0.19c-0.05,0.05-0.11,0.08-0.19,0.08h-1.16h-0.04h-0.74c-0.07,0-0.14-0.03-0.19-0.08
			c-0.05-0.05-0.08-0.11-0.08-0.19v-0.32c0-0.07,0.03-0.14,0.08-0.19c0.05-0.05,0.11-0.08,0.19-0.08h0.51v-5.26h-0.51
			c-0.07,0-0.14-0.03-0.19-0.08c-0.05-0.05-0.08-0.11-0.08-0.19v-0.32c0-0.08,0.03-0.14,0.08-0.19c0.05-0.05,0.11-0.08,0.19-0.08
			H196.54z"/>
		<path d="M202.94,19.93c0,0.31-0.02,0.61-0.05,0.87c-0.03,0.27-0.07,0.49-0.13,0.66c-0.17,0.53-0.46,0.94-0.88,1.22
			c-0.41,0.28-0.91,0.42-1.49,0.42c-0.59,0-1.1-0.14-1.51-0.41c-0.41-0.27-0.7-0.68-0.88-1.22c-0.03-0.1-0.06-0.21-0.08-0.32
			c-0.02-0.11-0.04-0.24-0.06-0.38c-0.02-0.15-0.03-0.32-0.04-0.53c-0.01-0.2-0.01-0.45-0.01-0.74c0-0.29,0-0.53,0.01-0.74
			c0.01-0.2,0.02-0.38,0.04-0.53c0.02-0.15,0.04-0.27,0.06-0.38c0.02-0.11,0.05-0.21,0.08-0.32c0.18-0.54,0.47-0.94,0.88-1.22
			c0.41-0.27,0.91-0.41,1.5-0.41c0.57,0,1.04,0.12,1.41,0.36c0.36,0.24,0.64,0.53,0.83,0.88c0.03,0.07,0.04,0.14,0.02,0.2
			c-0.02,0.07-0.07,0.12-0.13,0.15l-0.32,0.15c-0.14,0.08-0.26,0.04-0.36-0.11c-0.16-0.27-0.36-0.46-0.59-0.59
			c-0.23-0.13-0.52-0.19-0.86-0.19c-0.4,0-0.72,0.09-0.97,0.27c-0.25,0.18-0.43,0.43-0.54,0.77c-0.02,0.06-0.04,0.14-0.06,0.23
			c-0.02,0.09-0.04,0.2-0.05,0.33c-0.01,0.13-0.02,0.29-0.03,0.48c-0.01,0.19-0.01,0.41-0.01,0.68c0,0.27,0,0.49,0.01,0.68
			c0.01,0.19,0.02,0.35,0.03,0.48c0.01,0.13,0.03,0.24,0.05,0.33c0.02,0.09,0.04,0.16,0.06,0.22c0.11,0.33,0.29,0.59,0.54,0.77
			c0.25,0.18,0.57,0.27,0.97,0.27c0.35,0,0.66-0.09,0.93-0.26c0.27-0.17,0.45-0.42,0.56-0.75c0.03-0.12,0.06-0.26,0.09-0.44
			c0.03-0.18,0.04-0.39,0.04-0.65c0-0.04-0.02-0.06-0.06-0.06h-1.19c-0.08,0-0.14-0.03-0.19-0.08c-0.05-0.05-0.08-0.11-0.08-0.19
			v-0.27c0-0.07,0.03-0.14,0.08-0.19c0.05-0.05,0.11-0.08,0.19-0.08h1.9c0.08,0,0.14,0.03,0.19,0.08c0.05,0.05,0.08,0.11,0.08,0.19
			V19.93z"/>
		<path d="M207.79,20.55c-0.06-0.39-0.15-0.77-0.28-1.13c-0.13-0.36-0.26-0.7-0.4-1.01c-0.14-0.31-0.28-0.57-0.41-0.8
			c-0.13-0.23-0.23-0.4-0.3-0.52h-0.01c-0.07,0.12-0.17,0.29-0.3,0.52c-0.13,0.23-0.27,0.5-0.41,0.8c-0.14,0.31-0.28,0.64-0.4,1.01
			c-0.13,0.36-0.22,0.74-0.28,1.13H207.79z M206.9,16.31c0.18,0.3,0.38,0.64,0.59,1.01c0.21,0.38,0.4,0.78,0.58,1.21
			c0.18,0.43,0.33,0.88,0.45,1.34c0.12,0.47,0.18,0.94,0.18,1.42v1.44c0,0.07-0.03,0.14-0.08,0.19c-0.05,0.05-0.11,0.08-0.19,0.08
			h-0.32c-0.08,0-0.14-0.03-0.19-0.08c-0.05-0.05-0.08-0.11-0.08-0.19v-1.35h-2.91v1.35c0,0.07-0.03,0.14-0.08,0.19
			c-0.05,0.05-0.11,0.08-0.19,0.08h-0.32c-0.07,0-0.14-0.03-0.19-0.08c-0.05-0.05-0.08-0.11-0.08-0.19v-1.44
			c0-0.48,0.06-0.95,0.18-1.42c0.12-0.47,0.27-0.91,0.45-1.34c0.18-0.43,0.37-0.83,0.58-1.21c0.21-0.37,0.4-0.71,0.59-1.01
			c0.05-0.07,0.1-0.14,0.15-0.19c0.05-0.05,0.11-0.08,0.19-0.08h0.34c0.08,0,0.14,0.03,0.19,0.08
			C206.81,16.17,206.86,16.24,206.9,16.31"/>
		<path d="M214.52,21.86c-0.21,0.4-0.5,0.71-0.86,0.93c-0.36,0.21-0.79,0.32-1.28,0.32c-0.57,0-1.06-0.14-1.45-0.4
			c-0.4-0.27-0.68-0.68-0.86-1.23c-0.03-0.1-0.06-0.21-0.09-0.31c-0.02-0.11-0.04-0.23-0.06-0.38c-0.01-0.15-0.02-0.32-0.03-0.53
			c-0.01-0.2-0.01-0.45-0.01-0.74c0-0.29,0-0.53,0.01-0.74c0.01-0.2,0.02-0.38,0.03-0.53c0.01-0.15,0.03-0.27,0.06-0.38
			c0.02-0.11,0.05-0.21,0.09-0.31c0.18-0.55,0.46-0.96,0.86-1.23c0.4-0.27,0.88-0.4,1.45-0.4c0.49,0,0.92,0.11,1.28,0.32
			c0.37,0.22,0.65,0.52,0.86,0.93c0.03,0.07,0.04,0.14,0.02,0.2c-0.02,0.07-0.07,0.12-0.13,0.15l-0.32,0.15
			c-0.07,0.03-0.14,0.04-0.2,0.03c-0.07-0.02-0.12-0.06-0.15-0.14c-0.13-0.24-0.3-0.43-0.53-0.58c-0.22-0.15-0.5-0.22-0.83-0.22
			c-0.38,0-0.69,0.09-0.92,0.27c-0.23,0.18-0.41,0.43-0.52,0.76c-0.02,0.08-0.04,0.16-0.06,0.24c-0.02,0.09-0.03,0.19-0.04,0.32
			c-0.01,0.13-0.02,0.28-0.03,0.47c-0.01,0.19-0.01,0.42-0.01,0.69c0,0.27,0,0.5,0.01,0.69c0.01,0.19,0.02,0.34,0.03,0.47
			c0.01,0.13,0.02,0.23,0.04,0.32c0.02,0.09,0.04,0.17,0.06,0.24c0.12,0.33,0.29,0.58,0.52,0.76c0.23,0.18,0.54,0.27,0.92,0.27
			c0.33,0,0.61-0.07,0.83-0.22c0.22-0.15,0.4-0.34,0.53-0.58c0.04-0.07,0.09-0.12,0.16-0.14c0.06-0.02,0.13-0.01,0.2,0.03l0.32,0.15
			c0.07,0.03,0.11,0.09,0.13,0.15C214.56,21.73,214.56,21.8,214.52,21.86"/>
		<path d="M217.67,16.05c0.07,0,0.14,0.03,0.19,0.08c0.05,0.05,0.08,0.11,0.08,0.19v0.32c0,0.07-0.03,0.14-0.08,0.19
			c-0.05,0.05-0.11,0.08-0.19,0.08h-0.51v5.26h0.51c0.07,0,0.14,0.03,0.19,0.08c0.05,0.05,0.08,0.11,0.08,0.19v0.32
			c0,0.08-0.03,0.14-0.08,0.19c-0.05,0.05-0.11,0.08-0.19,0.08h-1.16h-0.04h-0.74c-0.07,0-0.14-0.03-0.19-0.08
			c-0.05-0.05-0.08-0.11-0.08-0.19v-0.32c0-0.07,0.03-0.14,0.08-0.19c0.05-0.05,0.11-0.08,0.19-0.08h0.51v-5.26h-0.51
			c-0.07,0-0.14-0.03-0.19-0.08c-0.05-0.05-0.08-0.11-0.08-0.19v-0.32c0-0.08,0.03-0.14,0.08-0.19c0.05-0.05,0.11-0.08,0.19-0.08
			H217.67z"/>
		<path d="M221.27,15.21c-0.08,0-0.12-0.02-0.13-0.07c-0.01-0.04,0-0.09,0.03-0.14l0.64-1.05c0.08-0.14,0.2-0.2,0.35-0.2h0.52
			c0.06,0,0.11,0.02,0.14,0.07c0.03,0.04,0.02,0.1-0.04,0.18L222.03,15c-0.05,0.06-0.1,0.11-0.16,0.15
			c-0.06,0.04-0.13,0.06-0.22,0.06H221.27z M221.5,22.26c0.39,0,0.71-0.09,0.95-0.27c0.25-0.18,0.42-0.43,0.53-0.77
			c0.02-0.06,0.04-0.14,0.06-0.23c0.02-0.09,0.03-0.21,0.05-0.34c0.02-0.14,0.03-0.3,0.04-0.48c0.01-0.18,0.01-0.4,0.01-0.65
			c0-0.25,0-0.47-0.01-0.65c-0.01-0.18-0.02-0.34-0.04-0.48c-0.02-0.14-0.03-0.25-0.05-0.34c-0.02-0.09-0.04-0.17-0.06-0.23
			c-0.11-0.33-0.29-0.59-0.53-0.77c-0.24-0.18-0.56-0.27-0.95-0.27c-0.39,0-0.7,0.09-0.95,0.27c-0.24,0.18-0.42,0.43-0.53,0.77
			c-0.02,0.06-0.04,0.14-0.06,0.23c-0.02,0.09-0.03,0.21-0.05,0.34c-0.02,0.14-0.03,0.3-0.04,0.48c-0.01,0.18-0.01,0.4-0.01,0.65
			c0,0.25,0,0.47,0.01,0.65c0.01,0.18,0.02,0.34,0.04,0.48c0.02,0.14,0.04,0.25,0.05,0.34c0.02,0.09,0.04,0.17,0.06,0.23
			c0.11,0.33,0.28,0.59,0.53,0.77C220.79,22.18,221.11,22.26,221.5,22.26 M221.5,23.11c-0.59,0-1.08-0.14-1.49-0.41
			c-0.41-0.27-0.7-0.68-0.87-1.22c-0.03-0.1-0.06-0.21-0.09-0.32c-0.02-0.11-0.04-0.24-0.06-0.38c-0.01-0.15-0.02-0.32-0.03-0.53
			c-0.01-0.2-0.01-0.45-0.01-0.74c0-0.29,0-0.53,0.01-0.74c0.01-0.2,0.02-0.38,0.03-0.53c0.01-0.15,0.03-0.27,0.06-0.38
			c0.02-0.11,0.05-0.21,0.09-0.32c0.18-0.54,0.47-0.94,0.87-1.22c0.41-0.27,0.9-0.41,1.49-0.41c0.59,0,1.09,0.14,1.5,0.41
			c0.41,0.27,0.7,0.68,0.87,1.22c0.04,0.1,0.06,0.21,0.09,0.32c0.02,0.11,0.04,0.24,0.06,0.38c0.01,0.15,0.02,0.32,0.03,0.53
			c0.01,0.2,0.01,0.45,0.01,0.74c0,0.29,0,0.53-0.01,0.74c-0.01,0.2-0.02,0.38-0.03,0.53c-0.01,0.15-0.03,0.27-0.06,0.38
			c-0.02,0.11-0.05,0.21-0.09,0.32c-0.18,0.54-0.47,0.94-0.87,1.22C222.59,22.98,222.09,23.11,221.5,23.11"/>
		<path d="M229.65,16.31c0-0.07,0.03-0.14,0.08-0.19c0.05-0.05,0.12-0.08,0.19-0.08h0.32c0.08,0,0.14,0.03,0.19,0.08
			c0.05,0.05,0.08,0.11,0.08,0.19v6.42c0,0.07-0.03,0.14-0.08,0.19c-0.05,0.05-0.12,0.08-0.19,0.08h-0.32
			c-0.08,0-0.14-0.03-0.19-0.08c-0.05-0.05-0.08-0.11-0.08-0.19v-1.36l-3.23-2.93h-0.03v4.3c0,0.07-0.03,0.14-0.08,0.19
			c-0.05,0.05-0.12,0.08-0.19,0.08h-0.32c-0.08,0-0.14-0.03-0.19-0.08c-0.05-0.05-0.08-0.11-0.08-0.19v-6.42
			c0-0.07,0.03-0.14,0.08-0.19c0.05-0.05,0.12-0.08,0.19-0.08h0.32c0.08,0,0.14,0.03,0.19,0.08c0.05,0.05,0.08,0.11,0.08,0.19v0.87
			l3.22,2.96h0.04V16.31z"/>
		<path d="M147.58,34.14c-0.08,0-0.14-0.03-0.19-0.08c-0.05-0.05-0.08-0.11-0.08-0.19v-6.42c0-0.08,0.03-0.14,0.08-0.19
			c0.05-0.05,0.11-0.08,0.19-0.08h3.86c0.07,0,0.14,0.03,0.19,0.08c0.05,0.05,0.08,0.11,0.08,0.19v0.32c0,0.07-0.03,0.14-0.08,0.19
			c-0.05,0.05-0.11,0.08-0.19,0.08h-3.15c-0.04,0-0.06,0.02-0.06,0.06v2.05c0,0.04,0.02,0.06,0.06,0.06h2.65
			c0.07,0,0.14,0.03,0.19,0.08c0.05,0.05,0.08,0.11,0.08,0.19v0.32c0,0.08-0.03,0.14-0.08,0.19c-0.05,0.05-0.11,0.08-0.19,0.08
			h-2.65c-0.04,0-0.06,0.02-0.06,0.06v2.12c0,0.04,0.02,0.06,0.06,0.06h3.15c0.07,0,0.14,0.03,0.19,0.08
			c0.05,0.05,0.08,0.11,0.08,0.19v0.32c0,0.07-0.03,0.14-0.08,0.19c-0.05,0.05-0.11,0.08-0.19,0.08H147.58z"/>
		<path d="M157.29,27.18c0.07,0,0.14,0.03,0.19,0.08c0.05,0.05,0.08,0.11,0.08,0.19v0.32c0,0.07-0.03,0.14-0.08,0.19
			c-0.05,0.05-0.11,0.08-0.19,0.08h-0.51v5.26h0.51c0.07,0,0.14,0.03,0.19,0.08c0.05,0.05,0.08,0.11,0.08,0.19v0.32
			c0,0.08-0.03,0.14-0.08,0.19c-0.05,0.05-0.11,0.08-0.19,0.08h-1.16h-0.04h-0.74c-0.07,0-0.14-0.03-0.19-0.08
			c-0.05-0.05-0.08-0.11-0.08-0.19v-0.32c0-0.07,0.03-0.14,0.08-0.19c0.05-0.05,0.11-0.08,0.19-0.08h0.51v-5.26h-0.51
			c-0.07,0-0.14-0.03-0.19-0.08c-0.05-0.05-0.08-0.11-0.08-0.19v-0.32c0-0.07,0.03-0.14,0.08-0.19c0.05-0.05,0.11-0.08,0.19-0.08
			H157.29z"/>
		<path d="M162.93,27.45c0-0.07,0.03-0.14,0.08-0.19c0.05-0.05,0.12-0.08,0.19-0.08h0.32c0.08,0,0.14,0.03,0.19,0.08
			c0.05,0.05,0.08,0.11,0.08,0.19v6.42c0,0.07-0.03,0.14-0.08,0.19c-0.05,0.05-0.12,0.08-0.19,0.08h-0.32
			c-0.08,0-0.14-0.03-0.19-0.08c-0.05-0.05-0.08-0.11-0.08-0.19v-1.36l-3.23-2.94h-0.03v4.3c0,0.07-0.03,0.14-0.08,0.19
			c-0.05,0.05-0.12,0.08-0.19,0.08h-0.32c-0.08,0-0.14-0.03-0.19-0.08c-0.05-0.05-0.08-0.11-0.08-0.19v-6.42
			c0-0.07,0.03-0.14,0.08-0.19c0.05-0.05,0.11-0.08,0.19-0.08h0.32c0.07,0,0.14,0.03,0.19,0.08c0.05,0.05,0.08,0.11,0.08,0.19v0.87
			l3.22,2.96h0.04V27.45z"/>
		<path d="M169.62,27.45c0-0.07,0.03-0.14,0.08-0.19c0.05-0.05,0.12-0.08,0.19-0.08h0.32c0.08,0,0.14,0.03,0.19,0.08
			c0.05,0.05,0.08,0.11,0.08,0.19v6.42c0,0.07-0.03,0.14-0.08,0.19c-0.05,0.05-0.12,0.08-0.19,0.08h-0.32
			c-0.08,0-0.14-0.03-0.19-0.08c-0.05-0.05-0.08-0.11-0.08-0.19v-1.36l-3.23-2.94h-0.03v4.3c0,0.07-0.03,0.14-0.08,0.19
			c-0.05,0.05-0.12,0.08-0.19,0.08h-0.32c-0.08,0-0.14-0.03-0.19-0.08c-0.05-0.05-0.08-0.11-0.08-0.19v-6.42
			c0-0.07,0.03-0.14,0.08-0.19c0.05-0.05,0.12-0.08,0.19-0.08h0.32c0.08,0,0.14,0.03,0.19,0.08c0.05,0.05,0.08,0.11,0.08,0.19v0.87
			l3.22,2.96h0.04V27.45z"/>
		<path d="M174.49,33.4c0.39,0,0.71-0.09,0.95-0.27c0.25-0.18,0.42-0.43,0.53-0.77c0.02-0.06,0.04-0.14,0.06-0.23
			c0.02-0.09,0.03-0.21,0.05-0.34c0.02-0.14,0.03-0.3,0.04-0.48c0.01-0.18,0.01-0.4,0.01-0.65c0-0.25,0-0.47-0.01-0.65
			c-0.01-0.18-0.02-0.34-0.04-0.48c-0.02-0.14-0.03-0.25-0.05-0.34c-0.02-0.09-0.04-0.17-0.06-0.23c-0.11-0.33-0.29-0.59-0.53-0.77
			c-0.24-0.18-0.56-0.27-0.95-0.27c-0.39,0-0.7,0.09-0.95,0.27c-0.24,0.18-0.42,0.43-0.53,0.77c-0.02,0.06-0.04,0.14-0.06,0.23
			c-0.02,0.09-0.03,0.21-0.05,0.34c-0.02,0.14-0.03,0.3-0.04,0.48c-0.01,0.18-0.01,0.4-0.01,0.65c0,0.25,0,0.47,0.01,0.65
			c0.01,0.18,0.02,0.34,0.04,0.48c0.02,0.14,0.03,0.25,0.05,0.34c0.02,0.09,0.04,0.17,0.06,0.23c0.11,0.33,0.28,0.59,0.53,0.77
			C173.78,33.31,174.1,33.4,174.49,33.4 M174.49,34.25c-0.59,0-1.08-0.14-1.49-0.41c-0.41-0.27-0.7-0.68-0.87-1.22
			c-0.03-0.1-0.06-0.21-0.09-0.32c-0.02-0.11-0.04-0.24-0.06-0.38c-0.01-0.15-0.02-0.32-0.03-0.53c-0.01-0.2-0.01-0.45-0.01-0.74
			c0-0.29,0-0.53,0.01-0.74c0.01-0.2,0.02-0.38,0.03-0.53c0.01-0.15,0.03-0.27,0.06-0.38c0.02-0.11,0.05-0.21,0.09-0.32
			c0.18-0.54,0.47-0.94,0.87-1.22c0.41-0.27,0.9-0.41,1.49-0.41c0.59,0,1.09,0.14,1.5,0.41c0.41,0.27,0.7,0.68,0.87,1.22
			c0.03,0.1,0.06,0.21,0.09,0.32c0.02,0.11,0.04,0.24,0.06,0.38c0.01,0.15,0.02,0.32,0.03,0.53c0.01,0.2,0.01,0.45,0.01,0.74
			c0,0.29,0,0.53-0.01,0.74c-0.01,0.2-0.02,0.38-0.03,0.53c-0.01,0.15-0.03,0.27-0.06,0.38c-0.02,0.11-0.05,0.21-0.09,0.32
			c-0.18,0.54-0.47,0.94-0.87,1.22C175.58,34.11,175.08,34.25,174.49,34.25"/>
		<path d="M179.03,28.88c0.01,0.48,0.07,0.94,0.2,1.4c0.13,0.46,0.27,0.87,0.43,1.25c0.16,0.38,0.32,0.71,0.48,0.98
			c0.16,0.28,0.27,0.47,0.34,0.58h0.01c0.07-0.11,0.18-0.3,0.34-0.58c0.16-0.28,0.32-0.6,0.48-0.98c0.16-0.38,0.31-0.8,0.43-1.25
			c0.13-0.46,0.19-0.92,0.2-1.4v-1.43c0-0.07,0.03-0.14,0.08-0.19c0.05-0.05,0.11-0.08,0.19-0.08h0.32c0.07,0,0.14,0.03,0.19,0.08
			c0.05,0.05,0.08,0.11,0.08,0.19v1.44c0,0.48-0.06,0.95-0.18,1.42c-0.12,0.47-0.27,0.92-0.45,1.35c-0.18,0.43-0.37,0.83-0.58,1.21
			c-0.21,0.38-0.4,0.71-0.59,1.01c-0.05,0.07-0.1,0.14-0.15,0.19c-0.05,0.05-0.11,0.08-0.19,0.08h-0.34c-0.08,0-0.14-0.03-0.19-0.08
			c-0.05-0.05-0.1-0.11-0.15-0.19c-0.18-0.29-0.38-0.63-0.59-1.01c-0.21-0.38-0.4-0.78-0.58-1.21c-0.18-0.43-0.33-0.88-0.45-1.35
			c-0.12-0.47-0.18-0.94-0.18-1.42v-1.44c0-0.07,0.03-0.14,0.08-0.19c0.05-0.05,0.11-0.08,0.19-0.08h0.32
			c0.07,0,0.14,0.03,0.19,0.08c0.05,0.05,0.08,0.11,0.08,0.19V28.88z"/>
		<path d="M187.32,31.68c-0.06-0.39-0.15-0.77-0.28-1.13c-0.13-0.36-0.26-0.7-0.4-1.01c-0.14-0.31-0.28-0.57-0.41-0.8
			c-0.13-0.23-0.23-0.4-0.3-0.52h-0.01c-0.07,0.12-0.17,0.29-0.3,0.52c-0.13,0.23-0.27,0.5-0.41,0.8c-0.14,0.31-0.28,0.64-0.4,1.01
			c-0.13,0.37-0.22,0.74-0.28,1.13H187.32z M186.43,27.45c0.18,0.3,0.38,0.64,0.59,1.01c0.21,0.38,0.4,0.78,0.58,1.21
			c0.18,0.43,0.33,0.88,0.45,1.34c0.12,0.47,0.18,0.94,0.18,1.42v1.44c0,0.07-0.03,0.14-0.08,0.19c-0.05,0.05-0.11,0.08-0.19,0.08
			h-0.32c-0.08,0-0.14-0.03-0.19-0.08c-0.05-0.05-0.08-0.11-0.08-0.19v-1.35h-2.91v1.35c0,0.07-0.03,0.14-0.08,0.19
			c-0.05,0.05-0.11,0.08-0.19,0.08h-0.32c-0.07,0-0.14-0.03-0.19-0.08c-0.05-0.05-0.08-0.11-0.08-0.19v-1.44
			c0-0.48,0.06-0.95,0.18-1.42c0.12-0.47,0.27-0.91,0.45-1.34c0.18-0.43,0.37-0.83,0.58-1.21c0.21-0.37,0.4-0.71,0.59-1.01
			c0.05-0.07,0.1-0.14,0.15-0.19c0.05-0.05,0.11-0.08,0.19-0.08h0.34c0.07,0,0.14,0.03,0.19,0.08
			C186.33,27.31,186.38,27.37,186.43,27.45"/>
		<path d="M194.05,33c-0.21,0.4-0.5,0.71-0.86,0.93c-0.36,0.21-0.79,0.32-1.28,0.32c-0.57,0-1.06-0.13-1.45-0.4
			c-0.4-0.27-0.68-0.68-0.86-1.23c-0.03-0.1-0.06-0.21-0.09-0.31c-0.02-0.11-0.04-0.23-0.06-0.38c-0.01-0.15-0.02-0.32-0.03-0.53
			c-0.01-0.2-0.01-0.45-0.01-0.74c0-0.29,0-0.53,0.01-0.74c0.01-0.2,0.02-0.38,0.03-0.53c0.01-0.15,0.03-0.27,0.06-0.38
			c0.02-0.11,0.05-0.21,0.09-0.31c0.18-0.55,0.46-0.96,0.86-1.23c0.4-0.27,0.88-0.4,1.45-0.4c0.49,0,0.92,0.11,1.28,0.32
			c0.37,0.21,0.65,0.52,0.86,0.93c0.03,0.07,0.04,0.14,0.02,0.2c-0.02,0.07-0.07,0.12-0.13,0.15l-0.32,0.15
			c-0.07,0.03-0.14,0.04-0.2,0.03c-0.07-0.02-0.12-0.06-0.15-0.14c-0.13-0.24-0.3-0.43-0.53-0.58c-0.22-0.15-0.5-0.22-0.83-0.22
			c-0.38,0-0.69,0.09-0.92,0.27c-0.23,0.18-0.41,0.43-0.52,0.76c-0.02,0.08-0.04,0.16-0.06,0.24c-0.02,0.09-0.03,0.19-0.04,0.32
			c-0.01,0.13-0.02,0.28-0.03,0.47c-0.01,0.19-0.01,0.42-0.01,0.69c0,0.27,0,0.5,0.01,0.69c0.01,0.19,0.02,0.34,0.03,0.47
			c0.01,0.13,0.02,0.23,0.04,0.32c0.02,0.09,0.04,0.17,0.06,0.24c0.12,0.33,0.29,0.58,0.52,0.76c0.23,0.18,0.54,0.27,0.92,0.27
			c0.33,0,0.61-0.07,0.83-0.22c0.22-0.15,0.4-0.34,0.53-0.58c0.04-0.07,0.09-0.12,0.16-0.14c0.06-0.02,0.13-0.01,0.2,0.03l0.32,0.15
			c0.07,0.03,0.11,0.09,0.13,0.15C194.09,32.86,194.08,32.93,194.05,33"/>
		<path d="M197.2,27.18c0.08,0,0.14,0.03,0.19,0.08c0.05,0.05,0.08,0.11,0.08,0.19v0.32c0,0.07-0.03,0.14-0.08,0.19
			c-0.05,0.05-0.11,0.08-0.19,0.08h-0.51v5.26h0.51c0.08,0,0.14,0.03,0.19,0.08c0.05,0.05,0.08,0.11,0.08,0.19v0.32
			c0,0.08-0.03,0.14-0.08,0.19c-0.05,0.05-0.11,0.08-0.19,0.08h-1.16h-0.04h-0.74c-0.08,0-0.14-0.03-0.19-0.08
			c-0.05-0.05-0.08-0.11-0.08-0.19v-0.32c0-0.07,0.03-0.14,0.08-0.19c0.05-0.05,0.11-0.08,0.19-0.08h0.51v-5.26h-0.51
			c-0.08,0-0.14-0.03-0.19-0.08c-0.05-0.05-0.08-0.11-0.08-0.19v-0.32c0-0.07,0.03-0.14,0.08-0.19c0.05-0.05,0.11-0.08,0.19-0.08
			H197.2z"/>
		<path d="M200.8,26.34c-0.07,0-0.12-0.02-0.13-0.07c-0.01-0.04,0-0.09,0.03-0.14l0.64-1.05c0.08-0.14,0.2-0.2,0.35-0.2h0.52
			c0.06,0,0.11,0.02,0.14,0.07c0.03,0.04,0.02,0.1-0.04,0.18l-0.76,1.01c-0.05,0.06-0.1,0.11-0.16,0.15
			c-0.06,0.04-0.13,0.06-0.22,0.06H200.8z M201.02,33.4c0.39,0,0.71-0.09,0.95-0.27c0.25-0.18,0.42-0.43,0.53-0.77
			c0.02-0.06,0.04-0.14,0.06-0.23c0.02-0.09,0.03-0.21,0.05-0.34c0.02-0.14,0.03-0.3,0.04-0.48c0.01-0.18,0.01-0.4,0.01-0.65
			c0-0.25,0-0.47-0.01-0.65c-0.01-0.18-0.02-0.34-0.04-0.48c-0.02-0.14-0.03-0.25-0.05-0.34c-0.02-0.09-0.04-0.17-0.06-0.23
			c-0.11-0.33-0.29-0.59-0.53-0.77c-0.24-0.18-0.56-0.27-0.95-0.27c-0.39,0-0.7,0.09-0.95,0.27c-0.24,0.18-0.42,0.43-0.53,0.77
			c-0.02,0.06-0.04,0.14-0.06,0.23c-0.02,0.09-0.03,0.21-0.05,0.34c-0.02,0.14-0.03,0.3-0.04,0.48c-0.01,0.18-0.01,0.4-0.01,0.65
			c0,0.25,0,0.47,0.01,0.65c0.01,0.18,0.02,0.34,0.04,0.48c0.02,0.14,0.03,0.25,0.05,0.34c0.02,0.09,0.04,0.17,0.06,0.23
			c0.11,0.33,0.28,0.59,0.53,0.77C200.32,33.31,200.64,33.4,201.02,33.4 M201.02,34.25c-0.59,0-1.08-0.14-1.49-0.41
			c-0.41-0.27-0.7-0.68-0.87-1.22c-0.03-0.1-0.06-0.21-0.09-0.32c-0.02-0.11-0.04-0.24-0.06-0.38c-0.01-0.15-0.02-0.32-0.03-0.53
			c-0.01-0.2-0.01-0.45-0.01-0.74c0-0.29,0-0.53,0.01-0.74c0.01-0.2,0.02-0.38,0.03-0.53c0.01-0.15,0.03-0.27,0.06-0.38
			c0.02-0.11,0.05-0.21,0.09-0.32c0.18-0.54,0.47-0.94,0.87-1.22c0.41-0.27,0.9-0.41,1.49-0.41c0.59,0,1.09,0.14,1.5,0.41
			c0.41,0.27,0.7,0.68,0.87,1.22c0.03,0.1,0.06,0.21,0.09,0.32c0.02,0.11,0.04,0.24,0.06,0.38c0.01,0.15,0.02,0.32,0.03,0.53
			c0.01,0.2,0.01,0.45,0.01,0.74c0,0.29,0,0.53-0.01,0.74c-0.01,0.2-0.02,0.38-0.03,0.53c-0.01,0.15-0.03,0.27-0.06,0.38
			c-0.02,0.11-0.05,0.21-0.09,0.32c-0.18,0.54-0.47,0.94-0.87,1.22C202.12,34.11,201.62,34.25,201.02,34.25"/>
		<path d="M209.17,27.45c0-0.07,0.03-0.14,0.08-0.19c0.05-0.05,0.12-0.08,0.19-0.08h0.32c0.08,0,0.14,0.03,0.19,0.08
			c0.05,0.05,0.08,0.11,0.08,0.19v6.42c0,0.07-0.03,0.14-0.08,0.19c-0.05,0.05-0.12,0.08-0.19,0.08h-0.32
			c-0.08,0-0.14-0.03-0.19-0.08c-0.05-0.05-0.08-0.11-0.08-0.19v-1.36l-3.23-2.94h-0.03v4.3c0,0.07-0.03,0.14-0.08,0.19
			c-0.05,0.05-0.12,0.08-0.19,0.08h-0.32c-0.08,0-0.14-0.03-0.19-0.08c-0.05-0.05-0.08-0.11-0.08-0.19v-6.42
			c0-0.07,0.03-0.14,0.08-0.19c0.05-0.05,0.12-0.08,0.19-0.08h0.32c0.08,0,0.14,0.03,0.19,0.08c0.05,0.05,0.08,0.11,0.08,0.19v0.87
			l3.22,2.96h0.04V27.45z"/>
	</g>
	<g>
		<g>
			<path class="st1" d="M268.55,36.28c-0.05,0.17-0.1,0.34-0.17,0.5c-0.14,0.33-0.31,0.62-0.53,0.85c-0.16,0.19-0.34,0.34-0.54,0.45
				l-4.17-2.34c-0.07-0.33-0.1-0.66-0.1-1c0-0.47,0.06-0.92,0.18-1.34c0.11-0.44,0.29-0.83,0.54-1.18c0.13-0.17,0.27-0.33,0.42-0.46
				c0.15-0.14,0.33-0.26,0.52-0.37c0.38-0.21,0.84-0.32,1.37-0.32c0.15,0,0.29,0.01,0.43,0.03c0.14,0.02,0.27,0.05,0.4,0.1
				c0.28,0.09,0.53,0.22,0.74,0.39c0.21,0.16,0.4,0.37,0.56,0.63c0.15,0.26,0.26,0.55,0.33,0.86h0.76
				c-0.05-0.44-0.17-0.83-0.37-1.16c-0.2-0.34-0.44-0.62-0.74-0.85c-0.3-0.23-0.64-0.41-0.99-0.53c-0.37-0.12-0.75-0.18-1.12-0.18
				c-0.62,0-1.17,0.12-1.66,0.36c-0.47,0.23-0.86,0.55-1.19,0.96c-0.32,0.41-0.55,0.88-0.71,1.39c-0.15,0.53-0.23,1.08-0.23,1.65
				c0,0.58,0.08,1.13,0.23,1.66c0.17,0.53,0.4,0.99,0.71,1.38c0.31,0.39,0.7,0.7,1.19,0.95c0.46,0.24,1.02,0.36,1.66,0.36
				c0.46,0,0.89-0.08,1.29-0.23c0.39-0.16,0.72-0.38,1-0.67c0.28-0.28,0.51-0.63,0.69-1.05c0.09-0.21,0.17-0.43,0.23-0.66
				c0.06-0.23,0.1-0.48,0.12-0.74h-0.76C268.62,35.92,268.59,36.1,268.55,36.28z M266.07,38.41c-0.53,0-0.99-0.1-1.37-0.32
				c-0.37-0.2-0.69-0.48-0.94-0.84c-0.15-0.2-0.27-0.42-0.36-0.65l0.52,0.3l0.63,0.36l1.97,1.11
				C266.38,38.4,266.22,38.41,266.07,38.41z"/>
			<path class="st1" d="M285.29,31.7c-0.3-0.4-0.7-0.72-1.18-0.96c-0.46-0.24-1.01-0.36-1.65-0.36c-0.64,0-1.19,0.12-1.66,0.36
				c-0.48,0.23-0.88,0.55-1.19,0.96c-0.32,0.4-0.55,0.86-0.71,1.39c-0.16,0.51-0.24,1.06-0.24,1.65c0,0.57,0.08,1.12,0.24,1.65
				c0.16,0.52,0.39,0.98,0.71,1.38c0.33,0.41,0.72,0.73,1.19,0.96c0.48,0.24,1.04,0.36,1.66,0.36c0.61,0,1.16-0.12,1.65-0.36
				c0.46-0.22,0.86-0.55,1.18-0.96c0.32-0.39,0.55-0.86,0.71-1.38c0.16-0.52,0.23-1.07,0.23-1.65c0-0.58-0.08-1.13-0.23-1.65
				C285.84,32.56,285.61,32.1,285.29,31.7z M283.82,38.08c-0.38,0.22-0.83,0.33-1.36,0.33c-0.52,0-0.98-0.11-1.38-0.33
				c-0.22-0.12-0.41-0.26-0.57-0.41h3.87C284.23,37.82,284.04,37.97,283.82,38.08z M285.46,34.62L285.46,34.62
				c-0.02,0.32-0.08,1.11-0.16,1.46c-0.09,0.3-0.21,0.58-0.35,0.83h-4.99c-0.14-0.26-0.26-0.53-0.35-0.83
				c-0.08-0.35-0.13-1.14-0.15-1.46h0c0,0,0-0.01,0-0.01c0,0,0-0.01,0-0.01h0c0.01-0.18,0.03-0.56,0.06-0.72
				c0.03-0.16,0.06-0.32,0.09-0.49c0.12-0.44,0.3-0.83,0.55-1.18c0.23-0.35,0.54-0.63,0.93-0.84c0.38-0.21,0.84-0.31,1.38-0.31
				c0.53,0,0.99,0.1,1.36,0.31c0.39,0.21,0.7,0.49,0.93,0.84c0.25,0.35,0.43,0.74,0.55,1.18c0.04,0.16,0.07,0.33,0.1,0.49
				c0.03,0.16,0.04,0.54,0.06,0.72h0C285.46,34.6,285.46,34.61,285.46,34.62C285.46,34.61,285.46,34.61,285.46,34.62z"/>
			<path class="st1" d="M321.58,36.37c0.16-0.51,0.23-1.06,0.23-1.65c0-0.57-0.08-1.12-0.23-1.64c-0.16-0.52-0.39-0.98-0.71-1.38
				c-0.32-0.41-0.71-0.73-1.18-0.96c-0.48-0.24-1.03-0.36-1.65-0.36c-0.62,0-1.17,0.12-1.66,0.36c-0.46,0.23-0.86,0.54-1.19,0.96
				c-0.31,0.4-0.55,0.86-0.71,1.38c-0.16,0.52-0.23,1.07-0.23,1.64c0,0.59,0.08,1.13,0.23,1.65c0.16,0.53,0.39,0.99,0.71,1.39
				c0.31,0.41,0.71,0.73,1.19,0.96c0.46,0.24,1.02,0.36,1.66,0.36c0.63,0,1.18-0.12,1.65-0.36c0.48-0.23,0.87-0.55,1.18-0.96
				C321.18,37.36,321.42,36.9,321.58,36.37z M319.97,31.79h-3.87c0.16-0.15,0.35-0.29,0.57-0.41c0.4-0.22,0.86-0.33,1.38-0.33
				c0.52,0,0.98,0.11,1.36,0.33C319.62,31.49,319.8,31.63,319.97,31.79z M321.04,34.85C321.04,34.85,321.04,34.85,321.04,34.85
				L321.04,34.85c-0.02,0.18-0.04,0.57-0.06,0.73c-0.03,0.16-0.06,0.33-0.09,0.49c-0.12,0.43-0.3,0.83-0.55,1.18
				c-0.23,0.35-0.54,0.63-0.93,0.84c-0.38,0.21-0.82,0.31-1.36,0.31c-0.54,0-1-0.11-1.38-0.31c-0.39-0.21-0.7-0.49-0.93-0.84
				c-0.25-0.35-0.43-0.74-0.55-1.18c-0.04-0.16-0.07-0.33-0.09-0.49c-0.03-0.16-0.05-0.54-0.06-0.72l0,0c0,0,0-0.01,0-0.01
				c0,0,0-0.01,0-0.01l0,0c0.02-0.33,0.08-1.11,0.16-1.46c0.09-0.3,0.21-0.57,0.35-0.83h5c0.14,0.26,0.26,0.53,0.35,0.83
				C320.96,33.73,321.01,34.52,321.04,34.85L321.04,34.85C321.04,34.84,321.04,34.85,321.04,34.85z"/>
			<polygon class="st1" points="301.92,38.04 301.9,38.04 300.62,34.38 301.98,30.58 301.18,30.58 300.23,33.29 299.29,30.58 
				298.49,30.58 299.85,34.41 298.6,38.04 298.58,38.04 295.98,30.58 295.17,30.58 298.13,38.91 299.01,38.91 300.23,35.49 
				301.45,38.91 302.33,38.91 305.3,30.58 304.49,30.58 			"/>
			<path class="st1" d="M336.07,35.18c0.31-0.11,0.56-0.26,0.75-0.45c0.22-0.22,0.39-0.47,0.49-0.76c0.11-0.29,0.17-0.62,0.17-1
				c0-0.37-0.06-0.71-0.17-1c-0.1-0.29-0.27-0.54-0.49-0.76c-0.19-0.2-0.44-0.36-0.75-0.47c-0.28-0.1-0.6-0.15-0.96-0.15h-2.79
				h-0.77v8.33h0.77v-6.98l4.65,6.98h0.9l-2.4-3.61C335.71,35.29,335.91,35.24,336.07,35.18z M332.77,31.26h2.17
				c0.52,0,0.95,0.14,1.28,0.42c0.32,0.27,0.49,0.7,0.49,1.29c0,0.58-0.17,1.01-0.49,1.28c-0.29,0.26-0.69,0.4-1.19,0.42
				L332.77,31.26z"/>
			<path class="st1" d="M354.03,30.58h-1.03l-2.9,2.49l-1.76-2.49h-0.76v8.33h0.76v-3.35l1.58-1.38l3.3,4.73h0.99l-3.69-5.26
				L354.03,30.58z M348.33,34.57v-2.64l1.15,1.64L348.33,34.57z"/>
			<polygon class="st2" points="377.77,30.56 377.1,30.56 374.64,35.46 372.19,30.56 371.51,30.56 371.11,30.56 370.75,30.56 
				370.75,38.91 371.51,38.91 371.51,31.3 374.22,36.31 372.91,38.91 373.68,38.91 374.64,37.12 375.6,38.91 376.37,38.91 
				375.07,36.31 377.77,31.3 377.77,38.91 378.53,38.91 378.53,30.56 378.17,30.56 			"/>
			<polygon class="st2" points="393.06,35.84 391.28,30.58 390.47,30.58 392.68,36.94 392.3,38.04 392.28,38.04 389.7,30.58 
				388.89,30.58 391.86,38.91 392.75,38.91 395.71,30.58 394.91,30.58 			"/>
			<path class="st2" d="M410.35,31.63c-0.61-0.68-1.53-1.03-2.76-1.07h-2.77v8.36h2.77c1.22-0.03,2.14-0.39,2.76-1.07
				c0.62-0.67,0.93-1.7,0.93-3.11C411.28,33.33,410.97,32.3,410.35,31.63z M405.59,31.23h1.62c0.57,0,1.07,0.07,1.49,0.2
				c0.42,0.13,0.77,0.33,1.03,0.61c0.27,0.28,0.46,0.65,0.59,1.1c0.05,0.18,0.11,0.37,0.12,0.58c0.04,0.51,0.04,1.52,0,2.03
				c-0.02,0.21-0.07,0.4-0.12,0.58c-0.12,0.44-0.32,0.8-0.59,1.09c-0.27,0.29-0.62,0.5-1.03,0.62c-0.43,0.13-0.92,0.2-1.49,0.2
				h-1.62v-3.16"/>
		</g>
		<g>
			<path class="st3" d="M311.7,0.6v25.95h-2.27l-14.18-15.37v15.37h-2.3V0.6h2.3l14.18,15.34V0.6H311.7z M309.43,19.43L295.25,4.1
				v3.63l14.18,15.34V19.43z"/>
			<path class="st3" d="M333.76,24.45v2.11h-16.61V0.57h16.45v2.14h-14.18v7.67h13.28v2.14h-13.28v2.07h13.28v2.11h-13.28v7.74
				H333.76z"/>
			<path class="st3" d="M339.88,4.82v21.73h-2.27V0.6h2.27h8.21c1.05,0,2,0.16,2.84,0.47c0.9,0.34,1.64,0.82,2.21,1.45
				c0.66,0.68,1.14,1.47,1.45,2.36c0.33,0.92,0.49,1.96,0.49,3.13c0,1.19-0.16,2.23-0.49,3.13c-0.31,0.9-0.8,1.68-1.45,2.36
				c-0.57,0.61-1.31,1.08-2.21,1.42c-0.48,0.19-1.08,0.33-1.78,0.4l7.06,11.23h-2.64L339.88,4.82z M341.2,2.71l6.66,10.61
				c1.47-0.07,2.64-0.51,3.5-1.31c0.97-0.85,1.45-2.18,1.45-4c0-1.82-0.49-3.15-1.45-4c-0.97-0.87-2.22-1.31-3.76-1.31H341.2z"/>
			<path class="st3" d="M380.39,12.26v4.13v2.07v7.59h-1.61l-0.3-4.63h-0.07c-0.39,0.9-0.89,1.67-1.48,2.31
				c-0.55,0.67-1.19,1.2-1.91,1.6c-0.75,0.45-1.5,0.76-2.27,0.93c-0.84,0.19-1.67,0.28-2.51,0.28c-1.87,0-3.48-0.37-4.85-1.1
				c-1.41-0.71-2.57-1.68-3.5-2.89c-0.92-1.21-1.61-2.62-2.08-4.24c-0.46-1.57-0.7-3.24-0.7-5.02c0-1.73,0.23-3.41,0.7-5.02
				c0.46-1.62,1.16-3.03,2.08-4.24c0.97-1.26,2.13-2.23,3.5-2.92c1.43-0.74,3.04-1.1,4.85-1.1c1.23,0,2.41,0.18,3.53,0.53
				c1.1,0.35,2.08,0.89,2.93,1.6c0.44,0.38,0.84,0.79,1.19,1.21c0.35,0.43,0.68,0.91,0.99,1.46c0.57,1.02,0.98,2.25,1.22,3.67h-2.24
				c-0.06-0.74-0.3-1.49-0.69-2.24c-0.35-0.74-0.87-1.41-1.55-2.03c-0.31-0.33-0.66-0.63-1.06-0.87c-0.4-0.25-0.81-0.47-1.25-0.66
				c-0.94-0.4-1.97-0.61-3.07-0.61c-1.58,0-2.92,0.33-4.02,1c-1.14,0.67-2.07,1.51-2.77,2.53c-0.7,1.09-1.23,2.29-1.58,3.6
				c-0.33,1.33-0.49,2.7-0.49,4.1c0,1.38,0.16,2.74,0.49,4.1c0.35,1.31,0.88,2.5,1.58,3.6c0.72,1.07,1.65,1.92,2.77,2.56
				c1.12,0.64,2.46,0.96,4.02,0.96c1.28,0,2.44-0.24,3.5-0.71c1.01-0.45,1.88-1.09,2.61-1.92c0.7-0.88,1.23-1.87,1.58-2.99
				c0.02-0.07,0.04-0.14,0.07-0.21c0.02-0.07,0.04-0.14,0.07-0.21h-7.68v-2.07h8.01c0.02-0.19,0.03-0.39,0.03-0.61
				c0-0.21,0-0.43,0-0.64v-0.82h-8.04v-2.07H380.39z"/>
			<path class="st3" d="M412.16,26.56h-2.41l-13.55-8.1l-2.83,8.1h-2.37l9.5-25.95h2.44L412.16,26.56z M401.64,3.08l-4.75,13.27
				l11.87,7.45L401.64,3.08z"/>
			<path class="st3" d="M285.09,0.62h2.4v3.68l-2.4,1.31V0.62z M287.49,6.66v19.65h-2.4V7.96l1.41-0.78L287.49,6.66z"/>
			<path class="st3" d="M279.47,13.28c-0.33-0.3-0.69-0.58-1.09-0.85l0,0c-0.39-0.3-0.85-0.56-1.36-0.76
				c-0.02-0.01-0.05-0.02-0.07-0.03c-0.23-0.1-0.46-0.19-0.69-0.27c-0.08-0.03-0.17-0.06-0.26-0.08c0,0-0.01,0-0.01,0
				c0,0-0.01,0-0.01,0c-0.32-0.1-0.64-0.2-0.98-0.3l-1.48-0.37l-0.01,0l-4.06-1.02c-0.3-0.07-0.59-0.15-0.88-0.24
				c-0.29-0.09-0.58-0.2-0.88-0.32c-0.57-0.21-1.17-0.45-1.72-0.77c-0.32-0.19-0.33-0.15-0.58-0.36c-0.22-0.19-0.39-0.34-0.62-0.69
				c-0.14-0.21-0.18-0.42-0.16-0.63c0.11-0.39,0.26-0.74,0.46-1.06c0.41-0.74,0.95-1.33,1.62-1.77c0.67-0.5,1.38-0.84,2.13-1.02
				c0.8-0.21,1.5-0.32,2.1-0.32c1.19,0,2.25,0.13,3.17,0.39c1.01,0.24,1.87,0.64,2.58,1.22c0.76,0.63,1.33,1.4,1.72,2.32
				c0.21,0.5,0.36,1.05,0.45,1.65c0.09,0.6,0.14,1.26,0.14,1.97h2.34c0.07-1.71-0.14-3.19-0.62-4.45c-0.5-1.26-1.17-2.27-2-3.03
				c-0.89-0.79-1.96-1.38-3.2-1.77c-1.28-0.37-2.63-0.55-4.03-0.55c-1.4,0-2.64,0.14-3.72,0.43c-1.01,0.32-1.88,0.71-2.62,1.18
				c-0.69,0.5-1.24,1.05-1.65,1.65c-0.39,0.55-0.7,1.15-0.93,1.81c-0.21,0.58-0.34,1.13-0.41,1.65c-0.05,0.29-0.07,0.53-0.07,0.73
				c0,0.2,0,0.37,0,0.53c0,1.23,0.16,2.22,0.48,2.95c0.37,0.87,0.83,1.56,1.38,2.09c0.33,0.3,0.69,0.58,1.09,0.85l0,0
				c0.39,0.3,0.85,0.56,1.36,0.76c0.03,0.01,0.05,0.02,0.08,0.03c0.23,0.1,0.46,0.19,0.69,0.27c0.08,0.03,0.17,0.06,0.26,0.08
				c0,0,0,0,0,0c0,0,0,0,0.01,0c0.32,0.11,0.64,0.21,0.98,0.3l1.48,0.37l0.01,0l4.06,1.02c0.3,0.07,0.59,0.15,0.88,0.24
				c0.29,0.09,0.58,0.2,0.88,0.32c0.57,0.21,1.17,0.45,1.72,0.77c0.32,0.19,0.33,0.15,0.58,0.36c0.22,0.19,0.39,0.34,0.62,0.69
				c0.14,0.21,0.18,0.42,0.16,0.63c-0.11,0.39-0.26,0.74-0.46,1.06c-0.41,0.73-0.95,1.33-1.62,1.77c-0.67,0.5-1.38,0.84-2.13,1.02
				c-0.8,0.21-1.5,0.31-2.1,0.31c-1.19,0-2.25-0.13-3.17-0.39c-1.01-0.24-1.87-0.64-2.58-1.22c-0.76-0.63-1.33-1.4-1.72-2.32
				c-0.21-0.5-0.36-1.05-0.45-1.65c-0.09-0.6-0.14-1.26-0.14-1.97h-2.34c-0.07,1.71,0.14,3.19,0.62,4.45c0.5,1.26,1.17,2.27,2,3.03
				c0.89,0.79,1.96,1.38,3.2,1.77c1.28,0.37,2.63,0.55,4.03,0.55c1.4,0,2.64-0.14,3.72-0.43c1.01-0.31,1.88-0.71,2.62-1.18
				c0.69-0.5,1.24-1.05,1.65-1.65c0.39-0.55,0.7-1.15,0.93-1.81c0.21-0.58,0.34-1.13,0.41-1.65c0.05-0.29,0.07-0.53,0.07-0.73
				s0-0.37,0-0.53c0-1.23-0.16-2.22-0.48-2.95C280.48,14.5,280.02,13.8,279.47,13.28z M277.46,15.68c-0.39-0.19-0.63-0.28-1.03-0.42
				c-0.4-0.14-0.82-0.27-1.26-0.39l-1.34-0.34h0l-0.23-0.06l-1.36-0.34h-0.01l-2.76-0.69c-0.3-0.07-0.59-0.15-0.88-0.25
				c-0.25-0.08-0.6-0.21-0.89-0.32c-0.52-0.22-1.03-0.5-1.52-0.85c-0.01-0.01-0.02-0.01-0.03-0.02c-0.2-0.13-0.28-0.22-0.62-0.59
				c-0.05-0.06-0.1-0.11-0.16-0.2c-0.04-0.06-0.09-0.17-0.17-0.34c-0.2-0.39-0.29-0.7-0.29-0.7c0.35,0.18,0.46,0.22,0.88,0.4
				c0.4,0.17,0.93,0.41,1.33,0.55c0.4,0.14,0.91,0.33,1.34,0.46l1.1,0.28l-0.01,0l4.36,1.09c0.3,0.07,0.59,0.15,0.88,0.25
				c0.25,0.08,0.6,0.21,0.89,0.32c0.57,0.24,1.12,0.55,1.64,0.94c0.25,0.21,0.44,0.38,0.67,0.69c0.21,0.28,0.35,0.78,0.48,1.14
				C278.16,16.04,277.82,15.85,277.46,15.68z"/>
			<path class="st3" d="M387.86,5.6l-2.4-1.31V0.62h2.4V5.6z M386.45,7.19l1.41,0.78v18.35h-2.4V6.66L386.45,7.19z"/>
		</g>
	</g>
</g>
</svg>
