<?xml version="1.0" encoding="utf-8"?>
<!-- Generator: Adobe Illustrator 16.0.0, SVG Export Plug-In . SVG Version: 6.00 Build 0)  -->
<!DOCTYPE svg PUBLIC "-//W3C//DTD SVG 1.1//EN" "http://www.w3.org/Graphics/SVG/1.1/DTD/svg11.dtd">
<svg version="1.1" id="Layer_1" xmlns="http://www.w3.org/2000/svg" xmlns:xlink="http://www.w3.org/1999/xlink" x="0px" y="0px"
	 width="91px" height="90.92px" viewBox="0 0 91 90.92" enable-background="new 0 0 91 90.92" xml:space="preserve">
<g>
	<g>
		<path fill="#7DEEAC" d="M90.96,45.46c0,25.107-20.354,45.46-45.46,45.46c-25.108,0-45.46-20.353-45.46-45.46
			C0.04,20.354,20.392,0,45.5,0C70.606,0,90.96,20.354,90.96,45.46"/>
		<path fill-rule="evenodd" clip-rule="evenodd" fill="#FFFFFF" d="M44.953,18.699c-3.408,0.896-1.722,6.754-6.607,6.08
			c-1.892-0.254-2.676-2.893-4.798-2.928c-1.339-0.045-2.53,1.139-2.702,1.988c-0.383,1.492,0.668,3.061,0.403,4.674
			c-0.231,1.574-1.656,2.597-2.821,2.768c-1.569,0.207-3.168-0.812-4.595-0.555c-0.987,0.168-2.093,1.824-2.005,3.062
			c0.173,2.035,2.646,2.717,2.934,4.498c0.905,5.27-5.521,3.105-6.073,6.797v0.941c0.349,2.717,4.039,1.908,5.438,3.867
			c0.292,0.418,0.927,1.439,0.635,2.928c-0.432,2.08-2.845,2.547-2.934,4.502c-0.088,1.357,1.104,2.594,1.861,2.848
			c1.542,0.422,3.082-0.729,4.858-0.428c1.453,0.217,2.558,1.615,2.702,2.809c0.265,1.785-1.017,3.059-0.403,4.842
			c0.259,0.848,1.683,1.867,2.931,1.744c2.447-0.17,3.086-4.125,6.666-2.723c1.216,0.512,1.538,1.404,2.036,2.723
			c0.462,1.48,0.752,2.926,2.474,3.141h1.039c2.824-0.381,2.068-4.885,4.509-5.863c3.607-1.402,4.128,2.635,6.807,2.723
			c1.104,0.086,2.591-1.02,2.847-1.871c0.497-1.744-0.723-3.059-0.433-4.807c0.231-1.227,1.363-2.5,2.819-2.717
			c1.659-0.254,3.139,0.85,4.712,0.428c0.815-0.254,2.009-1.57,1.92-2.928c-0.177-2.002-2.673-2.896-2.996-4.51
			c-0.844-4.973,5.208-3.395,6.134-6.631v-1.139c-0.839-3.404-7.152-1.746-6.134-6.799c0.351-1.535,2.819-2.465,2.996-4.375
			c0.089-1.314-1.105-2.852-2.006-3.062c-1.834-0.387-3.055,0.805-4.715,0.555c-1.104-0.215-2.297-1.193-2.642-2.424
			c-0.497-1.789,0.815-2.893,0.433-4.93c-0.176-0.938-1.625-2.121-2.935-2.076c-1.748,0.076-2.561,2.334-4.275,2.797
			c-1.192,0.342-2.734-0.045-3.461-0.721c-1.397-1.271-0.96-4.975-3.58-5.1 M50.735,56.049c-7.741,3.867-17.303-1.914-17.102-10.666
			c0.088-3.395,1.368-5.943,3.23-7.945c1.89-1.957,4.249-3.396,7.797-3.648c6.945-0.598,12.615,4.672,12.648,11.594
			C57.363,50.906,54.053,54.436,50.735,56.049"/>
	</g>
	<g>
		
			<path fill="none" stroke="#33363F" stroke-width="3.612" stroke-linecap="round" stroke-linejoin="round" stroke-miterlimit="10" d="
			M44.953,18.699c-3.408,0.896-1.722,6.754-6.607,6.08c-1.892-0.254-2.676-2.893-4.798-2.928c-1.339-0.045-2.53,1.139-2.702,1.988
			c-0.383,1.492,0.668,3.061,0.403,4.674c-0.231,1.574-1.656,2.597-2.821,2.768c-1.569,0.207-3.168-0.812-4.595-0.555
			c-0.987,0.168-2.093,1.824-2.005,3.062c0.173,2.035,2.646,2.717,2.934,4.498c0.905,5.27-5.521,3.105-6.073,6.797v0.941
			c0.349,2.717,4.039,1.908,5.438,3.867c0.292,0.418,0.927,1.439,0.635,2.928c-0.432,2.08-2.845,2.547-2.934,4.502
			c-0.088,1.357,1.104,2.594,1.861,2.848c1.542,0.422,3.082-0.729,4.858-0.428c1.453,0.217,2.558,1.615,2.702,2.809
			c0.265,1.785-1.017,3.059-0.403,4.842c0.259,0.848,1.683,1.867,2.931,1.744c2.447-0.17,3.086-4.125,6.666-2.723
			c1.216,0.512,1.538,1.404,2.036,2.723c0.462,1.48,0.752,2.926,2.474,3.141h1.039c2.824-0.381,2.068-4.885,4.509-5.863
			c3.607-1.402,4.128,2.635,6.807,2.723c1.104,0.086,2.591-1.02,2.847-1.871c0.497-1.744-0.723-3.059-0.433-4.807
			c0.231-1.227,1.363-2.5,2.819-2.717c1.659-0.254,3.139,0.85,4.712,0.428c0.815-0.254,2.009-1.57,1.92-2.928
			c-0.177-2.002-2.673-2.896-2.996-4.51c-0.844-4.973,5.208-3.395,6.134-6.631v-1.139c-0.839-3.404-7.152-1.746-6.134-6.799
			c0.351-1.535,2.819-2.465,2.996-4.375c0.089-1.314-1.105-2.852-2.006-3.062c-1.834-0.387-3.055,0.805-4.715,0.555
			c-1.104-0.215-2.297-1.193-2.642-2.424c-0.497-1.789,0.815-2.893,0.433-4.93c-0.176-0.938-1.625-2.121-2.935-2.076
			c-1.748,0.076-2.561,2.334-4.275,2.797c-1.192,0.342-2.734-0.045-3.461-0.721c-1.397-1.271-0.96-4.975-3.58-5.1 M50.735,56.049
			c-7.741,3.867-17.303-1.914-17.102-10.666c0.088-3.395,1.368-5.943,3.23-7.945c1.89-1.957,4.249-3.396,7.797-3.648
			c6.945-0.598,12.615,4.672,12.648,11.594C57.363,50.906,54.053,54.436,50.735,56.049z"/>
	</g>
</g>
</svg>
