<?xml version="1.0" encoding="utf-8"?>
<!-- Generator: Adobe Illustrator 16.0.0, SVG Export Plug-In . SVG Version: 6.00 Build 0)  -->
<!DOCTYPE svg PUBLIC "-//W3C//DTD SVG 1.1//EN" "http://www.w3.org/Graphics/SVG/1.1/DTD/svg11.dtd">
<svg version="1.1" id="Layer_1" xmlns="http://www.w3.org/2000/svg" xmlns:xlink="http://www.w3.org/1999/xlink" x="0px" y="0px"
	 width="91px" height="91px" viewBox="0 0 91 91" enable-background="new 0 0 91 91" xml:space="preserve">
<g>
	<g>
		<path fill="#7DEEAC" d="M90.96,45.5c0,25.107-20.354,45.46-45.459,45.46C20.394,90.96,0.04,70.607,0.04,45.5
			c0-25.105,20.354-45.46,45.461-45.46C70.606,0.04,90.96,20.395,90.96,45.5"/>
		<path fill="#FFFFFF" d="M74.163,65.751c0,1.371-1.111,2.484-2.482,2.484H19.321c-1.373,0-2.484-1.113-2.484-2.484V26.235
			c0-1.373,1.111-2.484,2.484-2.484h52.359c1.371,0,2.482,1.111,2.482,2.484V65.751z"/>
		
			<polyline fill="none" stroke="#33363F" stroke-width="3.612" stroke-linecap="round" stroke-linejoin="round" stroke-miterlimit="10" points="
			16.913,27.528 44.987,53.157 73.853,26.862 		"/>
		
			<line fill="none" stroke="#33363F" stroke-width="3.612" stroke-linecap="round" stroke-linejoin="round" stroke-miterlimit="10" x1="17.821" y1="66.497" x2="34.903" y2="47.14"/>
		
			<line fill="none" stroke="#33363F" stroke-width="3.612" stroke-linecap="round" stroke-linejoin="round" stroke-miterlimit="10" x1="55.528" y1="46.847" x2="73.177" y2="66.497"/>
	</g>
	
		<path fill="none" stroke="#33363F" stroke-width="3.612" stroke-linecap="round" stroke-linejoin="round" stroke-miterlimit="10" d="
		M74.163,65.751c0,1.371-1.111,2.484-2.482,2.484H19.321c-1.373,0-2.484-1.113-2.484-2.484V26.235c0-1.373,1.111-2.484,2.484-2.484
		h52.359c1.371,0,2.482,1.111,2.482,2.484V65.751z"/>
</g>
</svg>
