<?xml version="1.0" encoding="utf-8"?>
<!-- Generator: Adobe Illustrator 16.0.0, SVG Export Plug-In . SVG Version: 6.00 Build 0)  -->
<!DOCTYPE svg PUBLIC "-//W3C//DTD SVG 1.1//EN" "http://www.w3.org/Graphics/SVG/1.1/DTD/svg11.dtd">
<svg version="1.1" id="Capa_1" xmlns="http://www.w3.org/2000/svg" xmlns:xlink="http://www.w3.org/1999/xlink" x="0px" y="0px"
	 width="120px" height="120px" viewBox="0 0 120 120" enable-background="new 0 0 120 120" xml:space="preserve">
<g>
	
		<circle fill="#FFFFFF" stroke="#33363F" stroke-width="3" stroke-linecap="round" stroke-linejoin="bevel" stroke-miterlimit="10" cx="53.422" cy="65.084" r="50.529"/>
	<g opacity="0.1">
		<path fill="#231F20" d="M101.516,72.297c-1.059-2.534-0.646-6.389,0.898-8.702c-0.232-7.734-2.257-15.023-5.684-21.463H86.679
			c-0.349,0-0.683-0.036-1.001-0.102C85.531,42,85.4,41.941,85.262,41.898c-0.162-0.051-0.33-0.089-0.482-0.156
			c-0.195-0.086-0.369-0.201-0.545-0.313C84.158,41.38,84.072,41.343,84,41.29c-0.213-0.157-0.404-0.337-0.58-0.53
			c-0.021-0.022-0.048-0.04-0.068-0.063c-0.765-0.87-1.148-2.067-1-3.392l0.998-6.44l-0.011,0.011l0.614-3.973
			c0.007-0.043,0.007-0.085,0.013-0.129c-6.318-5.048-13.903-8.564-22.199-9.994H48.832l0.082-0.509
			c-1.938,0.178-3.845,0.466-5.712,0.864L31.114,81.57h0.227l-4.751,24.245c1.207,0.908,3.709,2.458,5.642,3.477
			c0.559,0.294,1.077,0.551,1.494,0.727l0.008-0.047L38.38,81.57h0.881h31.284c0.34,0,0.664,0.036,0.975,0.1
			c0.242,0.049,0.467,0.129,0.688,0.215c0.058,0.021,0.12,0.033,0.175,0.057c0.543,0.234,1.018,0.571,1.406,0.986l1.074,2.328
			c0.025,0.19,0.038,0.385,0.044,0.581c0.001,0.259-0.002,0.521-0.044,0.79l-0.184,1.152c-0.443,2.781,1.5,5.059,4.316,5.059h3.453
			H93.81c4.052-5.878,6.856-12.677,8.025-20.016L101.516,72.297z"/>
		<path fill="#231F20" d="M75.277,16.78h-2.559c3.918,1.571,7.601,3.604,10.984,6.034C82.653,19.27,79.44,16.78,75.277,16.78z"/>
		<path fill="#231F20" d="M115.668,42.132H100.1c2.761,5.593,4.543,11.75,5.128,18.249l12.576-14.087
			C119.447,44.004,118.484,42.132,115.668,42.132z"/>
		<path fill="#231F20" d="M104.146,76.623c-1.327,5.837-3.636,11.302-6.748,16.215h10.588c2.816,0,4.232-2.127,3.145-4.725
			L104.146,76.623z"/>
		<path fill="#231F20" d="M49.512,12.565c0.267-1.461-0.699-2.862-2.16-3.131c-1.46-0.267-2.863,0.7-3.129,2.159l-0.437,2.371
			c1.841-0.346,3.716-0.593,5.62-0.739L49.512,12.565z"/>
	</g>
	
		<path fill="#FFD260" stroke="#33363F" stroke-width="3" stroke-linecap="round" stroke-linejoin="bevel" stroke-miterlimit="10" d="
		M44.35,4.432c-1.459-0.267-2.863,0.7-3.129,2.159L23.08,105.149c1.556,1.171,5.268,3.557,6.956,4.544L46.51,7.562
		C46.778,6.102,45.812,4.7,44.35,4.432z"/>
	<path fill="#00C074" d="M114.803,41.292c1.644-2.29,0.68-4.162-2.136-4.162H83.678c-2.759,0-4.664-2.186-4.326-4.888l0.64-4.138
		l0.357-2.242l-0.011,0.011l0.615-3.973c0.863-5.568-3.043-10.123-8.678-10.123H40.267l-12.154,64.79h39.43
		c1.337,0,2.463,0.524,3.244,1.357l1.075,2.329c0.058,0.439,0.075,0.893-0.001,1.371l-0.184,1.151
		c-0.443,2.782,1.501,5.059,4.316,5.059h28.99c2.816,0,4.232-2.126,3.146-4.725l-9.616-15.815c-1.085-2.6-0.633-6.598,1.01-8.887
		L114.803,41.292z"/>
	<polyline fill="#00B674" points="28.408,76.567 40.267,11.777 62.035,11.777 36.26,76.567 	"/>
	<path fill="#00B674" d="M83.678,37.13c-2.759,0-4.664-2.186-4.326-4.888l0.025-0.175l-0.016,0.005l-7.5,49.554l-0.184,1.151
		c-0.443,2.782,1.501,5.059,4.316,5.059h3.453l15.088-50.142L83.678,37.13z"/>
	<path fill="none" stroke="#33363F" stroke-width="3" stroke-linecap="round" stroke-linejoin="round" stroke-miterlimit="10" d="
		M80.349,25.862l-0.987,6.209c-0.445,2.783,1.499,5.059,4.316,5.059h28.989c2.815,0,3.779,1.872,2.136,4.162L99.523,58.408
		c-1.643,2.289-2.095,6.287-1.01,8.887l9.616,15.815c1.087,2.599-0.329,4.725-3.146,4.725h-28.99c-2.815,0-4.76-2.276-4.316-5.059
		l0.184-1.151c0.441-2.781-1.5-5.058-4.318-5.058H28.408L34,46.02l6.267-34.242h32.009c5.635,0,9.541,4.555,8.678,10.123
		l-9.052,58.439"/>
</g>
</svg>
