<?xml version="1.0" encoding="utf-8"?>
<!-- Generator: Adobe Illustrator 16.0.0, SVG Export Plug-In . SVG Version: 6.00 Build 0)  -->
<!DOCTYPE svg PUBLIC "-//W3C//DTD SVG 1.1//EN" "http://www.w3.org/Graphics/SVG/1.1/DTD/svg11.dtd">
<svg version="1.1" xmlns="http://www.w3.org/2000/svg" xmlns:xlink="http://www.w3.org/1999/xlink" x="0px" y="0px" width="170px"
	 height="160px" viewBox="0 0 170 160" enable-background="new 0 0 170 160" xml:space="preserve">
<g id="Capa_2">
</g>
<g id="Capa_1">
	<g>
		<g>
			
				<circle fill="#00C074" stroke="#33363F" stroke-width="4" stroke-linecap="round" stroke-linejoin="bevel" stroke-miterlimit="10" cx="78.624" cy="78.224" r="75.608"/>
		</g>
		<path opacity="0.2" fill="#003F20" d="M163.858,152.077c-2.67-2.688-2.626-8.939-2.586-14.452
			c0.044-6.164,0.084-10.493-3.183-13.779c-1.512-1.52-3.514-2.287-5.957-2.287h-25.768c-5.662-30.802-5.137-82.405-5.131-82.918
			c-0.066-3.954-1.936-11.27-8.564-11.27H42.589c-7.329,0-8.425,14.081-8.425,22.47v2.809h11.198
			c-0.05,26.476,1.38,80.248,13.317,92.503c1.937,1.987,4.131,2.997,6.52,2.997h25.432c0.549,3.05,1.606,5.826,3.656,7.889
			c2.2,2.221,5.267,3.346,9.109,3.346h65.588v-5.618C166.661,153.767,164.986,153.218,163.858,152.077z"/>
		<path fill="#F5F5F5" d="M158.867,148.086c-2.671-2.688-2.625-8.939-2.587-14.452c0.044-6.165,0.084-10.494-3.182-13.779
			c-1.513-1.52-3.515-2.287-5.959-2.287h-25.765c-5.663-30.801-5.138-82.405-5.132-82.918c-0.065-3.953-1.936-11.27-8.565-11.27
			h-70.08c-7.33,0-8.427,14.08-8.427,22.47v2.809h11.2c-0.05,26.475,1.379,80.248,13.317,92.503c1.937,1.987,4.13,2.997,6.52,2.997
			H85.64c0.549,3.05,1.606,5.826,3.656,7.889c2.199,2.221,5.266,3.346,9.109,3.346h65.588v-5.617
			C161.67,149.777,159.994,149.228,158.867,148.086z"/>
		<path fill="#E9E9E9" d="M86.391,23.381H37.598c-7.33,0-8.427,14.08-8.427,22.47v2.809h11.2
			c-0.05,26.475,1.379,80.248,13.317,92.503c1.937,1.987,4.13,2.997,6.52,2.997h8.974"/>
		<path fill="#D9D9DE" d="M84.418,129.211c1.496,15.094-3.679,12.702-8.219,12.702c-13.598,0-8.219-8.163-8.219-12.702
			c0-4.54,3.68-8.22,8.219-8.22C80.739,120.992,83.972,124.693,84.418,129.211z"/>
		
			<path fill="none" stroke="#33363F" stroke-width="4.489" stroke-linecap="round" stroke-linejoin="round" stroke-miterlimit="10" d="
			M65.592,141.042c1.62-1.581,1.584-5.796,1.551-8.863c-0.041-3.641-0.082-7.404,2.512-9.94c1.543-1.504,3.762-2.265,6.601-2.265
			c2.436,0,4.436,0.74,5.941,2.205c3.261,3.167,3.22,8.784,3.174,14.726l0.2,5.449"/>
		<g>
			<path fill="#33363F" d="M107.678,27.871c3.713,0,4.055,6.29,4.076,6.82c-0.023,2.482-0.416,53.108,5.206,83.69
				c0.392,2.131,2.249,3.678,4.415,3.678h25.765c1.629,0,2.365,0.55,2.775,0.962c1.948,1.96,1.911,7.104,1.876,12.081v0.079
				c-0.042,6.036-0.081,11.746,3.562,15.725H96.621c-2.64,0-4.576-0.659-5.925-2.02c-1.175-1.183-1.967-2.988-2.421-5.519
				c-0.385-2.139-2.246-3.695-4.419-3.695H60.208c-0.732,0-1.872-0.17-3.304-1.64c-2.52-2.587-7.157-10.994-9.904-38.237
				c-1.814-18.001-2.165-37.738-2.141-51.125c0.003-1.192-0.469-2.336-1.311-3.18c-0.843-0.844-1.986-1.317-3.178-1.317h-6.696
				c0.225-12.39,2.915-16.301,3.923-16.301H107.678 M107.678,23.381h-70.08c-7.33,0-8.427,14.08-8.427,22.47v2.809h11.2
				c-0.05,26.475,1.379,80.248,13.317,92.503c1.937,1.987,4.13,2.997,6.52,2.997h23.648c0.548,3.05,1.606,5.826,3.655,7.889
				c2.2,2.221,5.267,3.346,9.109,3.346h67.372v-5.617c-2.323,0-3.999-0.549-5.126-1.69c-2.671-2.688-2.625-7.442-2.587-12.955
				c0.044-6.165,0.084-11.991-3.182-15.276c-1.513-1.52-3.515-2.287-5.959-2.287h-25.765c-5.663-30.801-5.138-82.405-5.132-82.918
				C116.178,30.698,114.308,23.381,107.678,23.381L107.678,23.381z"/>
		</g>
		
			<path fill="none" stroke="#33363F" stroke-width="4.3886" stroke-linecap="round" stroke-linejoin="round" stroke-miterlimit="10" d="
			M42.711,47.79c0-7.747,2.02-22.154-5.311-22.154"/>
		
			<line fill="none" stroke="#33363F" stroke-width="4.489" stroke-linecap="round" stroke-linejoin="round" stroke-miterlimit="10" x1="74.993" y1="120.006" x2="136.405" y2="120.006"/>
		
			<circle fill="#FFD260" stroke="#33363F" stroke-width="3.5422" stroke-linecap="round" stroke-linejoin="bevel" stroke-miterlimit="10" cx="78.792" cy="45.974" r="7.294"/>
		
			<line fill="none" stroke="#33363F" stroke-width="4.3886" stroke-linecap="round" stroke-linejoin="round" stroke-miterlimit="10" x1="53.825" y1="64.118" x2="104.701" y2="64.118"/>
		
			<line fill="none" stroke="#33363F" stroke-width="4.3886" stroke-linecap="round" stroke-linejoin="round" stroke-miterlimit="10" x1="55.321" y1="76.836" x2="106.197" y2="76.836"/>
		
			<line fill="none" stroke="#33363F" stroke-width="4.3886" stroke-linecap="round" stroke-linejoin="round" stroke-miterlimit="10" x1="56.818" y1="89.555" x2="103.204" y2="89.555"/>
		
			<line fill="none" stroke="#33363F" stroke-width="4.3886" stroke-linecap="round" stroke-linejoin="round" stroke-miterlimit="10" x1="95.338" y1="130.853" x2="143.219" y2="130.853"/>
		
			<line fill="none" stroke="#33363F" stroke-width="4.3886" stroke-linecap="round" stroke-linejoin="round" stroke-miterlimit="10" x1="96.834" y1="142.075" x2="126.388" y2="142.075"/>
		
			<line fill="none" stroke="#33363F" stroke-width="4.3886" stroke-linecap="round" stroke-linejoin="round" stroke-miterlimit="10" x1="58.316" y1="102.274" x2="108.444" y2="102.274"/>
		
			<line fill="none" stroke="#33363F" stroke-width="4.3886" stroke-linecap="round" stroke-linejoin="round" stroke-miterlimit="10" x1="59.812" y1="114.993" x2="69.914" y2="114.993"/>
	</g>
</g>
</svg>
