<?xml version="1.0" encoding="utf-8"?>
<!-- Generator: Adobe Illustrator 16.0.0, SVG Export Plug-In . SVG Version: 6.00 Build 0)  -->
<!DOCTYPE svg PUBLIC "-//W3C//DTD SVG 1.1//EN" "http://www.w3.org/Graphics/SVG/1.1/DTD/svg11.dtd">
<svg version="1.1" xmlns="http://www.w3.org/2000/svg" xmlns:xlink="http://www.w3.org/1999/xlink" x="0px" y="0px" width="70px"
	 height="60px" viewBox="0 0 70 60" enable-background="new 0 0 70 60" xml:space="preserve">
<g id="Capa_3">
</g>
<g id="Capa_1">
	<g>
		<path fill="none" stroke="#767676" stroke-width="2.7726" stroke-linejoin="round" stroke-miterlimit="10" d="M25.908,33.918
			c-9.46,0-17.911,4.323-23.49,11.098c5.08,7.555,13.703,12.529,23.49,12.529c9.785,0,18.408-4.975,23.483-12.529
			C43.82,38.241,35.369,33.918,25.908,33.918z"/>
		<path fill="none" stroke="#767676" stroke-width="2.7726" stroke-linejoin="round" stroke-miterlimit="10" d="M39.575,16.115
			c0-7.543-6.116-13.66-13.659-13.66c-7.547,0-13.664,6.117-13.664,13.66c0,7.547,6.117,13.664,13.664,13.664
			C33.459,29.779,39.575,23.662,39.575,16.115"/>
		<path fill="#FFFFFF" stroke="#767676" stroke-width="2.7726" stroke-linejoin="round" stroke-miterlimit="10" d="M67.582,42.923
			c0,7.662-6.21,13.873-13.873,13.873c-7.661,0-13.873-6.211-13.873-13.873c0-7.661,6.212-13.872,13.873-13.872
			C61.371,29.051,67.582,35.262,67.582,42.923"/>
		<g>
			<g>
				<path fill="#767676" d="M44.447,45.045v-2.949H52v-7.971h3.03v7.971h7.552v2.949h-7.552v8.271H52v-8.271H44.447z"/>
			</g>
		</g>
	</g>
</g>
<g id="Capa_4">
</g>
<g id="Capa_6" display="none">
</g>
<g id="_x31_" display="none">
</g>
<g id="pop_up_FB" display="none">
</g>
<g id="_x32_" display="none">
</g>
<g id="_x33_" display="none">
</g>
<g id="_x33__ok" display="none">
</g>
<g id="DENEGADA" display="none">
</g>
<g id="Lista_de_espera" display="none">
</g>
</svg>
