<?xml version="1.0" encoding="utf-8"?>
<!-- Generator: Adobe Illustrator 16.0.0, SVG Export Plug-In . SVG Version: 6.00 Build 0)  -->
<!DOCTYPE svg PUBLIC "-//W3C//DTD SVG 1.1//EN" "http://www.w3.org/Graphics/SVG/1.1/DTD/svg11.dtd">
<svg version="1.1" xmlns="http://www.w3.org/2000/svg" xmlns:xlink="http://www.w3.org/1999/xlink" x="0px" y="0px" width="95px"
	 height="63px" viewBox="0 0 95 63" enable-background="new 0 0 95 63" xml:space="preserve">
<g id="Capa_3">
</g>
<g id="Capa_1">
	<g>
		<rect x="40.512" y="28.52" fill="#FFFFFF" width="23.01" height="18.032"/>
		<path fill="#33363F" d="M63.521,47.464h-23.01l-0.911-0.912V28.52l0.911-0.911h23.01l0.914,0.911v18.032L63.521,47.464z
			 M41.426,45.64h21.182V29.435H41.426V45.64z"/>
		<rect x="39.115" y="28.09" fill="#FFFFFF" width="25.801" height="4.74"/>
		<path fill="#33363F" d="M64.917,33.741H39.116l-0.912-0.911v-4.74l0.912-0.913h25.801l0.914,0.913v4.74L64.917,33.741z
			 M40.027,31.916h23.979v-2.915H40.027V31.916z"/>
		<rect x="49.889" y="28.09" fill="#FFFFFF" width="4.256" height="18.462"/>
		<path fill="#33363F" d="M54.145,47.464h-4.256l-0.912-0.912V28.09l0.912-0.913h4.256l0.91,0.913v18.462L54.145,47.464z
			 M50.802,45.64h2.43V29.004h-2.43V45.64z"/>
		<path fill="#FFFFFF" d="M51.623,27.341c0,0-3.994,0.008-5.735,0.008c-1.742,0-3.154-1.412-3.154-3.155
			c0-1.74,1.412-3.151,3.154-3.151C49.304,21.042,51.623,27.341,51.623,27.341"/>
		<path fill="#33363F" d="M45.888,28.262c-2.242,0-4.067-1.824-4.067-4.068c0-2.241,1.825-4.065,4.067-4.065
			c3.937,0,6.328,6.191,6.591,6.896l-0.855,1.229C51.623,28.254,47.629,28.262,45.888,28.262 M45.888,21.954
			c-1.236,0-2.242,1.005-2.242,2.239c0,1.235,1.006,2.242,2.242,2.242c1.078,0,3.024-0.002,4.348-0.005
			C49.346,24.593,47.674,21.954,45.888,21.954"/>
		<path fill="#FFFFFF" d="M52.265,27.341c0,0,3.995,0.008,5.734,0.008c1.743,0,3.153-1.412,3.153-3.155
			c0-1.74-1.41-3.151-3.153-3.151C54.585,21.042,52.265,27.341,52.265,27.341"/>
		<path fill="#33363F" d="M57.999,28.262c-1.741,0-5.736-0.008-5.736-0.008l-0.855-1.229c0.26-0.706,2.655-6.896,6.591-6.896
			c2.243,0,4.067,1.824,4.067,4.068C62.066,26.436,60.242,28.262,57.999,28.262 M53.651,26.431c1.321,0.001,3.269,0.004,4.348,0.004
			c1.237,0,2.242-1.006,2.242-2.238c0-1.237-1.005-2.242-2.242-2.242C56.205,21.954,54.539,24.593,53.651,26.431"/>
		<path fill="#FFFFFF" d="M11.431,14.342c0,12.707,11.701,17.682,11.701,17.682S34.83,27.049,34.83,14.342
			c0-6.461-5.24-11.697-11.698-11.697C16.669,2.645,11.431,7.881,11.431,14.342"/>
		<path fill="#33363F" d="M23.51,32.909h-0.757c-0.123-0.053-12.282-5.375-12.282-18.567c0-6.981,5.679-12.66,12.661-12.66
			s12.661,5.679,12.661,12.66C35.793,27.534,23.63,32.856,23.51,32.909 M23.132,3.606c-5.923,0-10.739,4.815-10.739,10.735
			c0,10.786,8.761,15.661,10.739,16.622c1.976-0.961,10.736-5.836,10.736-16.622C33.868,8.422,29.054,3.606,23.132,3.606"/>
		<path fill="#FFFFFF" d="M36.731,15.324c-1.732,0.528-3.622,0.757-5.581,0.623c-7.025-0.496-12.503-5.513-12.979-11.551
			c2.066-1.198,4.501-1.812,7.063-1.633C31.83,3.229,36.854,8.787,36.731,15.324"/>
		<path fill="#33363F" d="M32.258,16.948c-0.39,0-0.784-0.016-1.177-0.042c-7.387-0.52-13.35-5.865-13.869-12.434l0.479-0.909
			c2.293-1.329,4.954-1.946,7.61-1.76c7.082,0.499,12.526,6.446,12.394,13.537l-0.681,0.904
			C35.485,16.71,33.886,16.948,32.258,16.948 M19.199,4.935c0.756,5.344,5.809,9.612,12.02,10.052
			c1.54,0.105,3.08-0.025,4.542-0.392c-0.246-5.75-4.773-10.46-10.596-10.871C23.099,3.583,21.032,4.001,19.199,4.935"/>
		<path fill="#FFFFFF" d="M17.245,4.235c0.499,1.296,0.772,2.721,0.772,4.215c0,4.532-2.53,8.417-6.135,10.069
			c-0.285-1.289-0.451-2.679-0.451-4.176C11.431,10.029,13.769,6.262,17.245,4.235"/>
		<path fill="#33363F" d="M12.284,19.394l-1.34-0.666c-0.315-1.41-0.473-2.886-0.473-4.386c0-4.483,2.408-8.674,6.289-10.938
			l1.382,0.485c0.557,1.449,0.838,2.982,0.838,4.561C18.979,13.235,16.353,17.529,12.284,19.394 M16.714,5.737
			c-2.69,2.015-4.321,5.211-4.321,8.604c0,0.913,0.066,1.816,0.195,2.697c2.749-1.771,4.469-5.013,4.469-8.59
			C17.057,7.524,16.939,6.614,16.714,5.737"/>
		<path fill="#FFFFFF" d="M9.101,27.578c3.069-3.072,2.93-8.474,2.93-8.474s-5.516-0.253-8.585,2.818
			c-1.563,1.561-1.563,4.093,0,5.655C5.004,29.141,7.537,29.141,9.101,27.578"/>
		<path fill="#33363F" d="M6.271,29.711c-1.326,0-2.571-0.515-3.506-1.451c-0.939-0.938-1.455-2.186-1.455-3.51
			c0-1.326,0.516-2.57,1.455-3.51c2.879-2.878,7.581-3.103,8.955-3.103c0.228,0,0.355,0.006,0.355,0.006l0.916,0.938
			c0.008,0.236,0.114,5.851-3.211,9.179C8.842,29.196,7.598,29.711,6.271,29.711 M11.032,20.082
			c-1.546,0.085-4.893,0.506-6.907,2.52c-0.573,0.574-0.89,1.339-0.89,2.148c0,0.811,0.316,1.573,0.89,2.149
			c0.575,0.573,1.338,0.889,2.146,0.889c0.81,0,1.575-0.315,2.148-0.889C10.426,24.89,10.915,21.674,11.032,20.082"/>
		<path fill="#FFFFFF" d="M31.562,52.355c0,4.02,3.26,7.283,7.278,7.283c4.024,0,7.281-3.264,7.281-7.283H31.562z"/>
		<path fill="#33363F" d="M38.84,60.601c-4.542,0-8.241-3.698-8.241-8.245l0.963-0.964h14.56l0.964,0.964
			C47.085,56.902,43.384,60.601,38.84,60.601 M32.598,53.319c0.466,3.027,3.087,5.356,6.242,5.356c3.156,0,5.779-2.329,6.246-5.356
			H32.598z"/>
		<path fill="#FFFFFF" d="M37.503,49.758H33.05v-5.952l-9.922-11.104c-5.67,0-10.268,4.596-10.268,10.269v1.668v1.556v0.378
			c0,8.621,7.013,14.302,15.631,14.302h9.531L37.503,49.758z"/>
		<path fill="#33363F" d="M26.042,27.232c-2.544,0-4.793-1.621-5.598-4.038c-0.168-0.506,0.105-1.05,0.611-1.218
			c0.503-0.167,1.048,0.107,1.217,0.608c0.542,1.629,2.055,2.722,3.77,2.722c0.532,0,0.962,0.433,0.962,0.964
			S26.574,27.232,26.042,27.232"/>
		<path fill="#FFFFFF" d="M72.59,52.355c0,4.02-3.258,7.283-7.276,7.283c-4.022,0-7.281-3.264-7.281-7.283H72.59z"/>
		<path fill="#33363F" d="M65.313,60.601c-4.545,0-8.244-3.698-8.244-8.245l0.963-0.964H72.59l0.964,0.964
			C73.554,56.902,69.855,60.601,65.313,60.601 M59.066,53.319c0.466,3.027,3.089,5.356,6.247,5.356c3.154,0,5.776-2.329,6.241-5.356
			H59.066z"/>
		<path fill="#FFFFFF" d="M81.026,32.701l-9.927,11.106v5.95H66.65L66.13,60.873h9.535c8.619,0,15.628-7.012,15.628-15.629v-0.049
			v-0.558V42.97C91.293,37.297,86.7,32.701,81.026,32.701"/>
		<path fill="#FFFFFF" d="M92.727,14.342c0,12.707-11.701,17.682-11.701,17.682s-11.702-4.975-11.702-17.682
			c0-6.461,5.241-11.697,11.702-11.697C87.489,2.645,92.727,7.881,92.727,14.342"/>
		<path fill="#33363F" d="M80.65,32.909c-0.123-0.053-12.287-5.375-12.287-18.567c0-6.981,5.68-12.66,12.662-12.66
			c6.984,0,12.664,5.679,12.664,12.66c0,13.192-12.164,18.515-12.284,18.567H80.65z M81.026,3.606
			c-5.92,0-10.739,4.815-10.739,10.735c0,10.786,8.763,15.661,10.739,16.622c1.976-0.961,10.739-5.836,10.739-16.622
			C91.765,8.422,86.948,3.606,81.026,3.606"/>
		<path fill="#33363F" d="M78.258,27.232c-0.536,0-0.961-0.431-0.961-0.962s0.426-0.964,0.961-0.964c1.712,0,3.228-1.093,3.77-2.722
			c0.169-0.501,0.717-0.775,1.22-0.608c0.503,0.168,0.775,0.712,0.607,1.218C83.05,25.611,80.8,27.232,78.258,27.232"/>
		<path fill="#FFFFFF" d="M86.913,4.235c-0.497,1.296-0.772,2.721-0.772,4.215c0,4.532,2.531,8.417,6.134,10.069
			c0.288-1.289,0.452-2.679,0.452-4.176C92.727,10.029,90.388,6.262,86.913,4.235"/>
		<path fill="#33363F" d="M91.873,19.394c-4.067-1.864-6.697-6.158-6.697-10.944c0-1.578,0.284-3.111,0.839-4.561l1.385-0.485
			c3.881,2.265,6.29,6.455,6.29,10.938c0,1.499-0.16,2.974-0.477,4.386L91.873,19.394z M87.442,5.737
			c-0.225,0.877-0.341,1.787-0.341,2.712c0,3.577,1.72,6.819,4.469,8.59c0.128-0.883,0.195-1.784,0.195-2.697
			C91.765,10.948,90.134,7.752,87.442,5.737"/>
		<path fill="#FFFFFF" d="M66.999,14.168c1.743,0.665,3.66,1.036,5.674,1.036c7.236,0,13.204-4.745,14.129-10.896
			c-2.033-1.377-4.479-2.18-7.117-2.18C72.891,2.128,67.344,7.463,66.999,14.168"/>
		<path fill="#33363F" d="M72.673,16.168c-2.085,0-4.107-0.371-6.016-1.103l-0.617-0.946c0.373-7.266,6.366-12.954,13.645-12.954
			c2.741,0,5.392,0.812,7.656,2.346l0.412,0.939C86.75,11.129,80.269,16.168,72.673,16.168 M68.019,13.508
			c1.489,0.487,3.05,0.734,4.654,0.734c6.414,0,11.908-4.03,13.068-9.472c-1.826-1.101-3.906-1.68-6.056-1.68
			C73.667,3.091,68.676,7.612,68.019,13.508"/>
		<path fill="#33363F" d="M34.012,49.543h-1.925v-5.367l-9.382-10.501c-4.935,0.222-8.882,4.305-8.882,9.292v3.227h-1.924v-3.227
			c0-6.19,5.038-11.228,11.229-11.228l0.717,0.321l9.924,11.105l0.243,0.64V49.543z"/>
		<path fill="#33363F" d="M38.021,61.835h-9.531c-9.613,0-16.592-6.418-16.592-15.264v-1.934h1.924v1.934
			c0,7.729,6.168,13.339,14.668,13.339h8.522l-0.429-9.189h-8.093c-4.526,0-5.476-2.256-5.476-4.149v-3.288h1.925v3.288
			c0,0.723,0,2.225,3.551,2.225h9.012l0.962,0.916l0.518,11.114L38.021,61.835z"/>
		<path fill="#33363F" d="M72.063,49.918h-1.925v-6.11l0.243-0.642l9.927-11.106l0.717-0.32c6.192,0,11.228,5.037,11.228,11.23
			v2.226h-1.923V42.97c0-4.99-3.947-9.074-8.879-9.295l-9.389,10.499V49.918z"/>
		<path fill="#33363F" d="M75.665,61.835H66.13l-0.959-1.009l0.517-11.114l0.962-0.916h9.015c1.959,0,3.553-1.593,3.553-3.553v-1.96
			h1.921v1.96c0,3.021-2.454,5.478-5.474,5.478h-8.097l-0.426,9.189h8.523c8.089,0,14.666-6.579,14.666-14.667v-0.605h1.923v0.605
			C92.254,54.393,84.812,61.835,75.665,61.835"/>
	</g>
</g>
<g id="Capa_4">
</g>
<g id="Capa_6" display="none">
</g>
<g id="_x31_" display="none">
</g>
<g id="pop_up_FB" display="none">
</g>
<g id="_x32_" display="none">
</g>
<g id="_x33_" display="none">
</g>
<g id="_x33__ok" display="none">
</g>
<g id="DENEGADA" display="none">
</g>
<g id="Lista_de_espera" display="none">
</g>
</svg>
