<?xml version="1.0" encoding="utf-8"?>
<!-- Generator: Adobe Illustrator 16.0.0, SVG Export Plug-In . SVG Version: 6.00 Build 0)  -->
<!DOCTYPE svg PUBLIC "-//W3C//DTD SVG 1.1//EN" "http://www.w3.org/Graphics/SVG/1.1/DTD/svg11.dtd">
<svg version="1.1" id="Capa_1" xmlns="http://www.w3.org/2000/svg" xmlns:xlink="http://www.w3.org/1999/xlink" x="0px" y="0px"
	 width="307px" height="277px" viewBox="0 0 307 277" enable-background="new 0 0 307 277" xml:space="preserve">
<g>
	<g>
		<g>
			<g>
				<g>
					<g>
						<rect x="118.838" y="83.173" fill="#FFFFE1" width="69.332" height="54.33"/>
						<path fill="#1E2125" d="M188.17,140.253h-69.332l-2.75-2.75v-54.33l2.75-2.75h69.332l2.75,2.75v54.33L188.17,140.253z
							 M121.588,134.753h63.832v-48.83h-63.832V134.753z"/>
					</g>
					<g>
						<rect x="114.629" y="81.873" fill="#FFFFE1" width="77.75" height="14.281"/>
						<path fill="#1E2125" d="M192.379,98.904h-77.75l-2.75-2.75V81.873l2.75-2.75h77.75l2.75,2.75v14.281L192.379,98.904z
							 M117.379,93.404h72.25v-8.781h-72.25V93.404z"/>
					</g>
					<g>
						<rect x="147.094" y="81.873" fill="#FFFFE1" width="12.82" height="55.631"/>
						<path fill="#1E2125" d="M159.915,140.253h-12.82l-2.75-2.75V81.873l2.75-2.75h12.82l2.75,2.75v55.631L159.915,140.253z
							 M149.844,134.753h7.32V84.623h-7.32V134.753z"/>
					</g>
					<g>
						<path fill="#FFFFE1" d="M152.315,79.617c0,0-12.029,0.023-17.279,0.023c-5.247,0-9.502-4.254-9.502-9.504
							c0-5.246,4.255-9.502,9.502-9.502C145.327,60.634,152.315,79.617,152.315,79.617z"/>
						<path fill="#1E2125" d="M135.036,82.39c-6.756,0-12.252-5.497-12.252-12.254c0-6.756,5.496-12.252,12.252-12.252
							c11.866,0,19.077,18.655,19.86,20.782l-2.576,3.7C152.32,82.367,140.287,82.39,135.036,82.39z M135.036,63.384
							c-3.724,0-6.752,3.029-6.752,6.752c0,3.724,3.028,6.754,6.752,6.754c3.255,0,9.114-0.009,13.098-0.016
							C145.451,71.34,140.423,63.384,135.036,63.384z"/>
					</g>
					<g>
						<path fill="#FFFFE1" d="M154.254,79.617c0,0,12.029,0.023,17.278,0.023c5.247,0,9.502-4.254,9.502-9.504
							c0-5.246-4.255-9.502-9.502-9.502C161.243,60.634,154.254,79.617,154.254,79.617z"/>
						<path fill="#1E2125" d="M171.533,82.39c-5.25,0-17.283-0.023-17.283-0.023l-2.576-3.7c0.783-2.127,7.994-20.782,19.859-20.782
							c6.756,0,12.252,5.496,12.252,12.252C183.785,76.893,178.289,82.39,171.533,82.39z M158.431,76.875
							c3.982,0.007,9.846,0.016,13.102,0.016c3.723,0,6.752-3.03,6.752-6.754c0-3.723-3.029-6.752-6.752-6.752
							C166.128,63.384,161.107,71.34,158.431,76.875z"/>
					</g>
					<g>
						<g>
							<path fill="#FFFFE1" d="M31.214,40.451c0,38.287,35.252,53.273,35.252,53.273s35.254-14.986,35.254-53.273
								c0-19.471-15.785-35.25-35.254-35.25C46.996,5.201,31.214,20.98,31.214,40.451z"/>
							<path fill="#1E2125" d="M67.6,96.393h-2.269c-0.371-0.157-37.017-16.196-37.017-55.942c0-21.036,17.114-38.15,38.151-38.15
								c21.038,0,38.154,17.114,38.154,38.15C104.621,80.197,67.97,96.236,67.6,96.393z M66.466,8.101
								c-17.839,0-32.352,14.512-32.352,32.35c0,32.499,26.398,47.183,32.352,50.079c5.953-2.896,32.354-17.58,32.354-50.079
								C98.821,22.613,84.306,8.101,66.466,8.101z"/>
						</g>
						<g>
							<path fill="#96F8A7" d="M107.449,43.41c-5.227,1.592-10.918,2.281-16.82,1.871c-21.17-1.488-37.668-16.607-39.103-34.799
								c6.222-3.607,13.552-5.457,21.272-4.918C92.679,6.96,107.818,23.708,107.449,43.41z"/>
							<path fill="#1E2125" d="M93.963,48.296c-1.172,0-2.361-0.041-3.536-0.123c-22.266-1.564-40.231-17.671-41.793-37.464
								l1.438-2.736c6.908-4.005,14.926-5.865,22.93-5.302c21.343,1.499,37.746,19.417,37.346,40.793l-2.054,2.72
								C103.691,47.585,98.869,48.296,93.963,48.296z M54.621,12.099C56.904,28.2,72.119,41.073,90.832,42.388
								c4.641,0.321,9.285-0.077,13.691-1.177C103.78,23.885,90.137,9.689,72.595,8.457C66.376,8.031,60.14,9.291,54.621,12.099z"/>
						</g>
						<g>
							<path fill="#96F8A7" d="M48.728,9.992c1.5,3.908,2.332,8.199,2.332,12.703c0,13.656-7.625,25.365-18.485,30.342
								c-0.866-3.881-1.36-8.07-1.36-12.586C31.214,27.451,38.257,16.103,48.728,9.992z"/>
							<path fill="#1E2125" d="M33.783,55.673l-4.039-2.005c-0.947-4.252-1.429-8.699-1.429-13.218
								c0-13.51,7.261-26.141,18.95-32.964l4.17,1.465c1.675,4.362,2.524,8.986,2.524,13.743
								C53.959,37.112,46.04,50.056,33.783,55.673z M47.135,14.52c-8.11,6.066-13.021,15.702-13.021,25.931
								c0,2.752,0.196,5.471,0.584,8.123C42.981,43.238,48.16,33.47,48.16,22.695C48.16,19.901,47.816,17.165,47.135,14.52z"/>
						</g>
						<g>
							<path fill="#96F8A7" d="M24.189,80.333c9.253-9.258,8.83-25.531,8.83-25.531s-16.617-0.768-25.871,8.486
								c-4.71,4.709-4.71,12.336,0,17.045C11.851,85.039,19.482,85.039,24.189,80.333z"/>
							<path fill="#1E2125" d="M15.667,86.762c-3.994,0-7.748-1.555-10.57-4.379c-2.826-2.824-4.382-6.579-4.382-10.572
								s1.556-7.748,4.382-10.573c8.677-8.677,22.846-9.352,26.98-9.352c0.69,0,1.074,0.02,1.074,0.02l2.766,2.821
								c0.019,0.715,0.341,17.633-9.678,27.656C23.415,85.208,19.66,86.762,15.667,86.762z M30.011,57.748
								c-4.661,0.254-14.742,1.521-20.812,7.592c-1.73,1.729-2.684,4.028-2.684,6.472s0.953,4.742,2.683,6.472
								c1.728,1.729,4.024,2.68,6.47,2.68c2.443,0,4.742-0.952,6.471-2.68C28.183,72.235,29.656,62.541,30.011,57.748z"/>
						</g>
						<g>
							<g>
								<path fill="#FFFFE1" d="M91.869,154.994c0,12.115,9.818,21.938,21.934,21.938s21.936-9.822,21.936-21.938H91.869z"/>
								<path fill="#1E2125" d="M113.802,179.832c-13.693,0-24.833-11.143-24.833-24.838l2.899-2.9h43.869l2.899,2.9
									C138.637,168.689,127.496,179.832,113.802,179.832z M94.99,157.894c1.4,9.125,9.303,16.137,18.812,16.137
									s17.414-7.012,18.814-16.137H94.99z"/>
							</g>
							<path fill="#96F8A7" d="M109.769,147.166H96.355v-17.932l-29.9-33.463c-17.085,0-30.936,13.848-30.936,30.936v5.031v4.688
								v1.143c0,25.969,21.126,43.088,47.096,43.088h28.719L109.769,147.166z"/>
						</g>
						<path fill="#1E2125" d="M75.238,79.291c-7.666,0-14.443-4.891-16.865-12.168c-0.506-1.52,0.315-3.162,1.835-3.668
							c1.519-0.504,3.161,0.316,3.667,1.836c1.633,4.904,6.199,8.199,11.363,8.199c1.602,0,2.899,1.299,2.899,2.9
							S76.839,79.291,75.238,79.291z"/>
					</g>
					<g>
						<g>
							<path fill="#FFFFE1" d="M215.5,154.994c0,12.115-9.82,21.938-21.932,21.938c-12.115,0-21.938-9.822-21.938-21.938H215.5z"/>
							<path fill="#1E2125" d="M193.568,179.832c-13.695,0-24.838-11.143-24.838-24.838l2.9-2.9H215.5l2.899,2.9
								C218.399,168.689,207.259,179.832,193.568,179.832z M174.75,157.894c1.401,9.125,9.306,16.137,18.817,16.137
								c9.508,0,17.41-7.012,18.811-16.137H174.75z"/>
						</g>
						<path fill="#96F8A7" d="M240.914,95.771l-29.902,33.463v17.932h-13.41l-1.564,33.49h28.721
							c25.967,0,47.094-21.123,47.094-47.092v-0.146v-1.68v-5.031C271.851,109.619,258.001,95.771,240.914,95.771z"/>
						<g>
							<path fill="#FFFFE1" d="M276.167,40.451c0,38.287-35.254,53.273-35.254,53.273S205.66,78.738,205.66,40.451
								c0-19.471,15.785-35.25,35.254-35.25S276.167,20.98,276.167,40.451z"/>
							<path fill="#1E2125" d="M239.779,96.393c-0.369-0.157-37.019-16.196-37.019-55.942c0-21.036,17.116-38.15,38.153-38.15
								c21.038,0,38.153,17.114,38.153,38.15c0,39.746-36.647,55.785-37.019,55.942H239.779z M240.914,8.101
								c-17.84,0-32.354,14.512-32.354,32.35c0,32.499,26.4,47.183,32.354,50.079c5.953-2.896,32.354-17.58,32.354-50.079
								C273.267,22.613,258.753,8.101,240.914,8.101z"/>
						</g>
						<path fill="#1E2125" d="M232.568,79.291c-1.602,0-2.899-1.299-2.899-2.9s1.298-2.9,2.899-2.9c5.164,0,9.73-3.295,11.365-8.2
							c0.508-1.52,2.151-2.339,3.668-1.834c1.52,0.506,2.342,2.148,1.835,3.668C247.011,74.401,240.232,79.291,232.568,79.291z"/>
						<g>
							<path fill="#96F8A7" d="M258.654,9.992c-1.502,3.908-2.334,8.199-2.334,12.703c0,13.656,7.627,25.365,18.484,30.342
								c0.867-3.881,1.363-8.07,1.363-12.586C276.167,27.451,269.123,16.103,258.654,9.992z"/>
							<path fill="#1E2125" d="M273.596,55.673c-12.257-5.618-20.177-18.562-20.177-32.979c0-4.756,0.85-9.38,2.527-13.743
								l4.168-1.465c11.69,6.824,18.952,19.455,18.952,32.964c0,4.514-0.481,8.961-1.432,13.218L273.596,55.673z M260.245,14.52
								c-0.681,2.645-1.025,5.382-1.025,8.175c0,10.774,5.18,20.543,13.462,25.88c0.389-2.655,0.586-5.374,0.586-8.124
								C273.267,30.223,268.355,20.587,260.245,14.52z"/>
						</g>
						<g>
							<g>
								<g>
									<g>
										<g>
											<path fill="none" d="M306.285,80.333"/>
										</g>
									</g>
								</g>
							</g>
						</g>
						<g>
							<path fill="#96F8A7" d="M198.656,39.923c5.24,2.006,11.021,3.125,17.098,3.125c21.789,0,39.775-14.303,42.561-32.836
								c-6.117-4.145-13.496-6.566-21.443-6.566C216.404,3.646,199.691,19.716,198.656,39.923z"/>
							<path fill="#1E2125" d="M215.753,45.949c-6.284,0-12.385-1.116-18.135-3.317l-1.859-2.856
								c1.122-21.886,19.181-39.029,41.111-39.029c8.27,0,16.247,2.443,23.069,7.066l1.241,2.831
								C258.157,30.77,238.626,45.949,215.753,45.949z M201.725,37.937c4.483,1.468,9.192,2.211,14.028,2.211
								c19.316,0,35.877-12.145,39.361-28.541c-5.496-3.316-11.765-5.061-18.244-5.061C218.75,6.546,203.706,20.169,201.725,37.937z
								"/>
						</g>
					</g>
					<path fill="#1E2125" d="M99.255,146.523h-5.8V130.34L65.181,98.7c-14.869,0.667-26.762,12.975-26.762,28.007v9.719h-5.8v-9.719
						c0-18.657,15.179-33.836,33.835-33.836l2.162,0.968l29.901,33.463l0.737,1.933V146.523z"/>
					<path fill="#1E2125" d="M111.333,183.556H82.615c-28.969,0-49.995-19.341-49.995-45.988v-5.83h5.8v5.83
						c0,23.286,18.586,40.188,44.195,40.188h25.68l-1.293-27.689H82.615c-13.639,0-16.5-6.797-16.5-12.498v-9.914h5.799v9.914
						c0,2.174,0,6.697,10.701,6.697h27.154l2.896,2.765l1.564,33.49L111.333,183.556z"/>
					<path fill="#1E2125" d="M213.911,147.644h-5.8v-18.41l0.737-1.933l29.903-33.463l2.162-0.968
						c18.658,0,33.837,15.179,33.837,33.836v6.711h-5.8v-6.711c0-15.032-11.894-27.34-26.764-28.007l-28.276,31.642V147.644z"/>
					<path fill="#1E2125" d="M224.757,183.556h-28.721l-2.897-3.036l1.564-33.49l2.897-2.765h27.156
						c5.9,0,10.701-4.801,10.701-10.701v-5.91h5.8v5.91c0,9.099-7.401,16.502-16.501,16.502h-24.389l-1.294,27.689h25.683
						c24.369,0,44.193-19.824,44.193-44.191v-1.826h5.8v1.826C274.75,161.129,252.324,183.556,224.757,183.556z"/>
				</g>
			</g>
		</g>
	</g>
	<g>
		<path fill="#1E2125" d="M36.128,241.543h25.74v6.68H43.587v6.922h16.088v6.68H43.587v7.166h18.525v6.68H36.128V241.543z"/>
		<path fill="#1E2125" d="M67.916,270.698l4.436-5.314c3.072,2.535,6.289,4.145,10.189,4.145c3.072,0,4.924-1.219,4.924-3.219
			v-0.098c0-1.9-1.17-2.875-6.873-4.338c-6.875-1.756-11.311-3.656-11.311-10.434v-0.098c0-6.191,4.973-10.286,11.943-10.286
			c4.973,0,9.215,1.56,12.676,4.339L90,251.05c-3.022-2.097-5.996-3.364-8.873-3.364c-2.876,0-4.387,1.316-4.387,2.975v0.098
			c0,2.242,1.462,2.973,7.361,4.484c6.922,1.805,10.822,4.291,10.822,10.238v0.098c0,6.776-5.168,10.578-12.529,10.578
			C77.227,276.157,72.01,274.354,67.916,270.698z"/>
		<path fill="#1E2125" d="M126.955,248.466h-10.383v-6.923h28.275v6.923h-10.385v27.204h-7.508V248.466z"/>
		<path fill="#1E2125" d="M151.528,261.044v-19.501h7.508v19.306c0,5.558,2.778,8.435,7.361,8.435s7.361-2.779,7.361-8.19v-19.55
			h7.508v19.258c0,10.335-5.802,15.404-14.967,15.404S151.528,271.087,151.528,261.044z"/>
		<path fill="#1E2125" d="M199.988,262.214l-13.113-20.671h8.775l8.141,13.699l8.288-13.699h8.532l-13.115,20.525v13.602h-7.508
			V262.214z"/>
		<path fill="#1E2125" d="M222.318,258.704v-0.097c0-9.702,7.654-17.648,18.184-17.648c10.531,0,18.088,7.849,18.088,17.551v0.098
			c0,9.702-7.654,17.647-18.185,17.647S222.318,268.406,222.318,258.704z M250.74,258.704v-0.097c0-5.851-4.29-10.726-10.335-10.726
			c-6.046,0-10.237,4.777-10.237,10.628v0.098c0,5.851,4.289,10.726,10.334,10.726C246.547,269.333,250.74,264.555,250.74,258.704z"
			/>
		<path fill="#1E2125" d="M266.196,242.518v-0.975h8.678v0.975l-2.292,21.549h-4.095L266.196,242.518z M266.585,267.87h7.898v7.801
			h-7.898V267.87z"/>
	</g>
	<g>
		<path fill="#1E2125" d="M126.396,200.592l1.422-1.688c1.285,1.113,2.571,1.746,4.242,1.746c1.458,0,2.379-0.672,2.379-1.689
			v-0.038c0-0.96-0.537-1.478-3.032-2.054c-2.86-0.691-4.473-1.536-4.473-4.012v-0.039c0-2.303,1.919-3.896,4.588-3.896
			c1.958,0,3.513,0.596,4.876,1.689l-1.268,1.785c-1.209-0.902-2.418-1.383-3.646-1.383c-1.383,0-2.188,0.711-2.188,1.594v0.039
			c0,1.036,0.614,1.496,3.187,2.111c2.841,0.69,4.318,1.708,4.318,3.935v0.038c0,2.516-1.977,4.012-4.799,4.012
			C129.948,202.742,128.009,202.033,126.396,200.592z"/>
		<path fill="#1E2125" d="M140.87,189.113h2.361v13.438h-2.361V189.113z"/>
		<path fill="#1E2125" d="M154.881,189.113h2.361V200.4h7.063v2.15h-9.425V189.113z"/>
		<path fill="#1E2125" d="M166.551,195.871v-0.039c0-3.781,2.918-6.948,7.045-6.948s7.007,3.128,7.007,6.91v0.038
			c0,3.781-2.918,6.949-7.045,6.949S166.551,199.652,166.551,195.871z M178.126,195.871v-0.039c0-2.61-1.9-4.779-4.568-4.779
			s-4.53,2.131-4.53,4.741v0.038c0,2.611,1.9,4.779,4.568,4.779C176.265,200.611,178.126,198.481,178.126,195.871z"/>
	</g>
	<g>
		<path fill="#1E2125" d="M61,212.253h2.61l4.051,10.326l4.031-10.326h2.553l-5.586,13.533h-2.073L61,212.253z"/>
		<path fill="#1E2125" d="M77.701,212.253h9.962v2.111h-7.601v3.493h6.736v2.112h-6.736v3.608h7.697v2.111H77.701V212.253z"/>
		<path fill="#1E2125" d="M91.712,212.253h2.188l7.198,9.29v-9.29h2.322v13.437h-1.977l-7.41-9.56v9.56h-2.322V212.253z"/>
		<path fill="#1E2125" d="M108.162,212.253h2.361v13.437h-2.361V212.253z M110.562,208.357l2.111,0.921l-2.457,1.862h-1.805
			L110.562,208.357z"/>
		<path fill="#1E2125" d="M114.362,223.732l1.421-1.689c1.285,1.113,2.572,1.747,4.242,1.747c1.459,0,2.38-0.672,2.38-1.688v-0.039
			c0-0.96-0.537-1.479-3.032-2.054c-2.861-0.691-4.473-1.536-4.473-4.013v-0.037c0-2.305,1.919-3.897,4.588-3.897
			c1.957,0,3.512,0.595,4.875,1.689l-1.267,1.785c-1.21-0.902-2.419-1.382-3.647-1.382c-1.382,0-2.188,0.71-2.188,1.593v0.038
			c0,1.037,0.613,1.498,3.186,2.111c2.842,0.691,4.319,1.709,4.319,3.936v0.039c0,2.514-1.978,4.012-4.799,4.012
			C117.914,225.882,115.974,225.171,114.362,223.732z"/>
		<path fill="#1E2125" d="M140.371,212.158h2.188l5.913,13.532h-2.496l-1.363-3.244h-6.354l-1.382,3.244h-2.419L140.371,212.158z
			 M143.75,220.353l-2.322-5.374l-2.305,5.374H143.75z"/>
		<path fill="#1E2125" d="M158.835,212.253h6.027c1.535,0,2.745,0.422,3.513,1.189c0.595,0.596,0.902,1.324,0.902,2.227v0.039
			c0,1.612-0.921,2.477-1.919,2.994c1.574,0.537,2.668,1.439,2.668,3.264v0.038c0,2.399-1.978,3.686-4.973,3.686h-6.219V212.253z
			 M164.382,217.916c1.518,0,2.535-0.595,2.535-1.823v-0.038c0-1.057-0.846-1.709-2.361-1.709h-3.398v3.57H164.382z
			 M165.074,223.597c1.613,0,2.592-0.633,2.592-1.842v-0.039c0-1.133-0.902-1.805-2.764-1.805h-3.744v3.686H165.074z"/>
		<path fill="#1E2125" d="M173.634,219.989v-7.735h2.361v7.64c0,2.495,1.286,3.839,3.397,3.839c2.093,0,3.378-1.267,3.378-3.743
			v-7.735h2.361v7.62c0,4.013-2.265,6.027-5.777,6.027C175.861,225.901,173.634,223.886,173.634,219.989z"/>
		<path fill="#1E2125" d="M188.625,223.732l1.422-1.689c1.285,1.113,2.571,1.747,4.242,1.747c1.458,0,2.379-0.672,2.379-1.688
			v-0.039c0-0.96-0.537-1.479-3.032-2.054c-2.86-0.691-4.473-1.536-4.473-4.013v-0.037c0-2.305,1.919-3.897,4.588-3.897
			c1.958,0,3.513,0.595,4.876,1.689l-1.268,1.785c-1.209-0.902-2.418-1.382-3.646-1.382c-1.383,0-2.188,0.71-2.188,1.593v0.038
			c0,1.037,0.614,1.498,3.187,2.111c2.841,0.691,4.318,1.709,4.318,3.936v0.039c0,2.514-1.977,4.012-4.799,4.012
			C192.176,225.882,190.238,225.171,188.625,223.732z"/>
		<path fill="#1E2125" d="M202.369,219.009v-0.037c0-3.82,2.86-6.949,6.93-6.949c2.477,0,3.974,0.863,5.26,2.092l-1.517,1.747
			c-1.075-0.998-2.227-1.67-3.763-1.67c-2.572,0-4.434,2.111-4.434,4.741v0.039c0,2.629,1.861,4.779,4.434,4.779
			c1.651,0,2.707-0.672,3.859-1.747l1.516,1.536c-1.4,1.459-2.937,2.38-5.451,2.38C205.287,225.92,202.369,222.869,202.369,219.009z
			"/>
		<path fill="#1E2125" d="M223.042,212.158h2.188l5.912,13.532h-2.495l-1.362-3.244h-6.354l-1.382,3.244h-2.419L223.042,212.158z
			 M226.42,220.353l-2.323-5.374l-2.303,5.374H226.42z"/>
		<path fill="#1E2125" d="M234.597,212.253h5.988c1.689,0,3.014,0.498,3.878,1.344c0.71,0.729,1.113,1.727,1.113,2.898v0.038
			c0,2.208-1.325,3.532-3.206,4.069L246,225.69h-2.784l-3.302-4.684h-2.955v4.684h-2.361V212.253z M240.414,218.914
			c1.688,0,2.764-0.883,2.764-2.246v-0.038c0-1.439-1.037-2.227-2.783-2.227h-3.436v4.511H240.414z"/>
	</g>
</g>
</svg>
