<?xml version="1.0" encoding="utf-8"?>
<!-- Generator: Adobe Illustrator 26.3.1, SVG Export Plug-In . SVG Version: 6.00 Build 0)  -->
<svg version="1.1" id="Layer_1" xmlns="http://www.w3.org/2000/svg" xmlns:xlink="http://www.w3.org/1999/xlink" x="0px" y="0px"
	 viewBox="0 0 247.4 81.33" style="enable-background:new 0 0 247.4 81.33;" xml:space="preserve">
<style type="text/css">
	.st0{fill:#1FC17B;}
</style>
<g>
	<path class="st0" d="M61.13,0H7.12C3.13,0,0,3.28,0,7.07v67.2c0,3.79,3.13,7.06,7.12,7.06h54.01c3.99,0,7.12-3.27,7.12-7.06V7.07
		C68.25,3.28,65.12,0,61.13,0 M50.09,67.9h-3.94c-0.8,0-1.72-0.68-1.72-1.48c0,0-1.01-21.16-1.01-22.58
		c-0.26,2.01-6.41,22.66-6.41,22.66c-0.17,0.79-1.08,1.32-1.87,1.32h-2.07c-0.8,0-1.71-0.53-1.86-1.32c0,0-6.07-20.65-6.38-22.66
		c0,1.06-1.08,22.58-1.08,22.58c-0.06,0.8-0.9,1.48-1.71,1.48h-3.88c-0.81,0-1.33-0.68-1.28-1.48l2.89-32.91
		c0.04-0.79,0.9-1.48,1.7-1.48h4.57c0.8,0,1.71,0.53,1.86,1.32c0,0,6.1,21.5,6.27,23.36c0.15-1.8,6.29-23.36,6.29-23.36
		c0.16-0.79,1.07-1.32,1.87-1.32h4.53c0.8,0,1.66,0.69,1.7,1.48l2.83,32.91C51.42,67.22,50.89,67.9,50.09,67.9 M52.49,24.53
		c-0.91,1.56-3.02,2.02-4.71,1.05l-9.94-5.73l0-0.01l-3.63-2.09l-8.26,4.72h-0.01l-5.47,3.14c-1.7,0.97-3.8,0.48-4.7-1.07
		c-0.91-1.55-0.27-3.6,1.43-4.57l9.96-5.68l5.28-3.02c0.08-0.05,0.15-0.08,0.23-0.11c0.1-0.05,0.2-0.1,0.31-0.13
		c0.07-0.03,0.13-0.05,0.21-0.08c0.16-0.05,0.31-0.09,0.48-0.11l0.15-0.02c0.16-0.02,0.32-0.03,0.48-0.03l0.2,0.01
		c0.14,0.01,0.27,0.03,0.41,0.06c0.09,0.01,0.17,0.03,0.26,0.06c0.13,0.03,0.25,0.08,0.37,0.13c0.08,0.03,0.14,0.07,0.2,0.09
		c0.08,0.04,0.17,0.07,0.26,0.12l9.63,5.56l0.03,0l5.42,3.13C52.76,20.94,53.39,22.98,52.49,24.53"/>
	<path d="M88.94,35.05H87.2c-0.65,0-1.19-0.54-1.19-1.15V12c0-0.65,0.54-1.19,1.19-1.19h1.74c0.61,0,1.16,0.54,1.16,1.19v21.91
		C90.1,34.51,89.56,35.05,88.94,35.05"/>
	<path d="M105.72,35.05c-1.02,0-1.45-0.43-1.45-1.47V23.56c0-1.61-0.69-2.69-2.39-2.69c-1.7,0-2.75,1.25-2.75,3.3v9.41
		c0,1.04-0.44,1.47-1.45,1.47H96.6c-1.05,0-1.48-0.43-1.48-1.47V19c0-1,0.43-1.44,1.48-1.44h0.18c0.91,0,1.45,0.36,1.77,1.26
		l0.07,0.21c1.02-1.11,2.46-1.69,4.17-1.69c3.8,0,5.46,1.87,5.46,5.78v10.45c0,1.04-0.43,1.47-1.44,1.47H105.72z"/>
	<path d="M120.71,33.69c0,1-0.44,1.44-1.45,1.44h-1.16c-3.26,0-4.56-1.29-4.56-4.6v-9.44h-0.98c-1.01,0-1.45-0.43-1.45-1.47v-0.4
		c0-1.04,0.44-1.47,1.45-1.47h1.05l0.54-2.8c0.22-0.93,0.72-1.33,1.66-1.33h0.21c1.02,0,1.45,0.43,1.45,1.43v2.69h1.74
		c1.01,0,1.45,0.43,1.45,1.47v0.4c0,1.04-0.43,1.47-1.45,1.47h-1.74v9.34c0,0.97,0.33,1.22,1.02,1.22h0.76
		c1.01,0,1.45,0.43,1.45,1.43V33.69z"/>
	<path d="M133.01,24.46c-0.04-2.15-0.36-3.77-2.61-3.77c-1.84,0-2.86,0.79-2.93,3.77H133.01z M135.62,27.8h-8.14
		c0.11,2.29,1.01,3.84,3.76,3.84c1.27,0,1.99-0.33,2.46-0.57c0.32-0.22,0.61-0.32,0.94-0.32c0.32,0,0.65,0.11,1.01,0.46l0.54,0.5
		c0.33,0.36,0.51,0.68,0.51,1.04c0,0.4-0.18,0.72-0.58,1c-0.58,0.43-2.18,1.47-5.07,1.47c-5.61,0-7.74-2.91-7.74-9.05
		c0-5.42,1.7-8.83,7.01-8.83c4.78,0,6.73,2.26,6.73,9.01C137.06,27.37,136.63,27.8,135.62,27.8"/>
	<path d="M151.2,35.05c-1.02,0-1.45-0.43-1.45-1.47V23.56c0-1.61-0.69-2.69-2.39-2.69c-1.7,0-2.75,1.25-2.75,3.3v9.41
		c0,1.04-0.44,1.47-1.45,1.47h-1.09c-1.05,0-1.48-0.43-1.48-1.47V19c0-1,0.43-1.44,1.48-1.44h0.18c0.91,0,1.45,0.36,1.77,1.26
		l0.07,0.21c1.02-1.11,2.47-1.69,4.17-1.69c3.8,0,5.46,1.87,5.46,5.78v10.45c0,1.04-0.43,1.47-1.45,1.47H151.2z"/>
	<path d="M164.19,20.58c-2.6,0-2.78,2.84-2.78,5.67c0,4.02,0.9,5.5,2.74,5.5c1.92,0,2.97-1.72,2.97-5.46
		C167.12,22.52,166,20.58,164.19,20.58 M167.01,10.92c0-1.04,0.44-1.47,1.45-1.47h1.09c1.01,0,1.45,0.43,1.45,1.47v22.7
		c0,1.01-0.44,1.44-1.45,1.44h-0.18c-0.94,0-1.48-0.39-1.77-1.25c-0.11-0.29,0,0.03-0.11-0.26c-1.05,1.18-2.39,1.69-4.2,1.69
		c-3.76,0-6.08-2.62-6.08-9.01c0-4.67,1.16-9.05,6.19-9.05c1.52,0,2.72,0.47,3.62,1.3V10.92z"/>
	<path d="M184.44,24.46c-0.04-2.15-0.36-3.77-2.6-3.77c-1.84,0-2.86,0.79-2.93,3.77H184.44z M187.04,27.8h-8.14
		c0.11,2.29,1.01,3.84,3.76,3.84c1.27,0,1.99-0.33,2.46-0.57c0.32-0.22,0.62-0.32,0.94-0.32c0.32,0,0.65,0.11,1.01,0.46l0.54,0.5
		c0.33,0.36,0.51,0.68,0.51,1.04c0,0.4-0.18,0.72-0.58,1c-0.58,0.43-2.18,1.47-5.07,1.47c-5.61,0-7.74-2.91-7.74-9.05
		c0-5.42,1.7-8.83,7.02-8.83c4.78,0,6.73,2.26,6.73,9.01C188.49,27.37,188.06,27.8,187.04,27.8"/>
	<path d="M202.67,35.05c-1.02,0-1.45-0.43-1.45-1.47V23.56c0-1.61-0.69-2.69-2.39-2.69c-1.7,0-2.75,1.25-2.75,3.3v9.41
		c0,1.04-0.44,1.47-1.45,1.47h-1.09c-1.05,0-1.48-0.43-1.48-1.47V19c0-1,0.43-1.44,1.48-1.44h0.18c0.91,0,1.45,0.36,1.78,1.26
		l0.07,0.21c1.02-1.11,2.46-1.69,4.16-1.69c3.8,0,5.46,1.87,5.46,5.78v10.45c0,1.04-0.43,1.47-1.44,1.47H202.67z"/>
	<path d="M220.07,18.5c0.4,0.29,0.62,0.65,0.62,1.04c0,0.39-0.21,0.72-0.54,1.04l-0.44,0.43c-0.4,0.36-0.72,0.54-1.08,0.54
		c-0.29,0-0.58-0.11-0.94-0.29c-0.4-0.22-0.91-0.4-1.63-0.4c-2.42,0-3.33,1.94-3.33,5.24c0,3.66,0.84,5.42,3.58,5.42
		c0.69,0,1.2-0.14,1.63-0.36c0.36-0.22,0.69-0.33,0.98-0.33c0.33,0,0.65,0.14,1.02,0.5l0.47,0.43c0.32,0.36,0.54,0.68,0.54,1.08
		c0,0.36-0.17,0.72-0.57,1.01c-0.51,0.43-1.85,1.36-4.38,1.36c-5.07,0-7.46-3.12-7.46-9.12c0-5.1,2.28-8.76,7.53-8.76
		C218.23,17.35,219.45,18.07,220.07,18.5"/>
	<path d="M224.51,18.82c0-1.01,0.44-1.44,1.45-1.44h1.05c1.01,0,1.45,0.43,1.45,1.44v14.79c0,1.01-0.43,1.44-1.45,1.44h-1.05
		c-1.01,0-1.45-0.43-1.45-1.44V18.82z M224.4,10.92c0-1.04,0.43-1.47,1.45-1.47h1.27c1.01,0,1.44,0.43,1.44,1.47v2.01
		c0,1.05-0.43,1.47-1.44,1.47h-1.27c-1.01,0-1.45-0.43-1.45-1.47V10.92z"/>
	<path d="M241.32,27.8h-1.84c-1.95,0-3.36,0.43-3.36,2.04c0,1.37,0.94,2.05,1.98,2.05c2.03,0,3.22-1.51,3.22-2.62V27.8z
		 M241.72,33.51c-1.12,1.29-2.68,1.72-4.45,1.72c-3.07,0-5.21-2.01-5.21-5.39c0-3.52,2.83-5.25,6.55-5.25h2.53
		c0.11,0,0.18-0.03,0.18-0.1v-1.04c0-1.97-0.9-2.51-3.14-2.51c-1.27,0-2.36,0.4-2.79,0.57c-0.29,0.11-0.55,0.18-0.8,0.18
		c-0.47,0-0.83-0.29-1.12-0.82l-0.25-0.54v0.03c-0.18-0.32-0.28-0.61-0.28-0.9c0-0.5,0.25-0.86,0.83-1.15
		c0.94-0.43,2.53-0.97,4.74-0.97c4.6,0,6.77,1.26,6.77,5.96v10.27c0,1.04-0.44,1.47-1.48,1.47h-0.18c-0.9,0-1.44-0.4-1.77-1.25
		L241.72,33.51z"/>
	<path d="M119.58,53.69c-2.53,0-3.22,1.65-3.22,5.42c0,3.87,0.65,5.49,3.22,5.49c2.57,0,3.26-1.62,3.26-5.49
		C122.84,55.34,122.04,53.69,119.58,53.69 M119.58,68.09c-5.5,0-7.31-3.34-7.31-8.98c0-5.53,1.85-8.91,7.31-8.91
		c5.47,0,7.31,3.37,7.31,8.91C126.89,64.75,125.01,68.09,119.58,68.09"/>
	<path d="M141.1,67.91c-1.02,0-1.44-0.43-1.44-1.47V56.42c0-1.61-0.69-2.69-2.39-2.69c-1.7,0-2.75,1.25-2.75,3.31v9.41
		c0,1.04-0.43,1.47-1.45,1.47h-1.09c-1.05,0-1.48-0.43-1.48-1.47V51.85c0-1,0.43-1.43,1.48-1.43h0.18c0.9,0,1.45,0.36,1.77,1.26
		l0.07,0.21c1.02-1.12,2.46-1.69,4.16-1.69c3.8,0,5.46,1.87,5.46,5.78v10.45c0,1.04-0.43,1.47-1.44,1.47H141.1z"/>
	<path d="M155.67,66.54c0,1-0.44,1.44-1.45,1.44h-1.16c-3.26,0-4.56-1.29-4.56-4.6v-9.44h-0.98c-1.01,0-1.45-0.43-1.45-1.48v-0.39
		c0-1.04,0.44-1.47,1.45-1.47h1.04l0.55-2.8c0.22-0.93,0.72-1.33,1.66-1.33H151c1.02,0,1.45,0.43,1.45,1.44v2.69h1.73
		c1.02,0,1.45,0.43,1.45,1.47v0.39c0,1.04-0.43,1.48-1.45,1.48h-1.73v9.34c0,0.97,0.33,1.22,1.01,1.22h0.76
		c1.01,0,1.45,0.43,1.45,1.44V66.54z"/>
	<path d="M167.73,57.31c-0.04-2.15-0.36-3.77-2.6-3.77c-1.85,0-2.87,0.79-2.94,3.77H167.73z M170.34,60.65h-8.14
		c0.11,2.3,1.01,3.84,3.76,3.84c1.27,0,1.99-0.33,2.46-0.58c0.32-0.21,0.61-0.32,0.94-0.32c0.32,0,0.65,0.11,1.01,0.46l0.54,0.51
		c0.33,0.35,0.52,0.68,0.52,1.04c0,0.4-0.18,0.72-0.58,1.01c-0.58,0.43-2.17,1.47-5.07,1.47c-5.61,0-7.74-2.91-7.74-9.05
		c0-5.42,1.7-8.83,7.02-8.83c4.78,0,6.73,2.26,6.73,9.01C171.78,60.22,171.35,60.65,170.34,60.65"/>
	<path d="M180.9,64.53l0.4-0.18l3.15-12.6c0.25-0.93,0.76-1.33,1.7-1.33h1.41c0.83,0,1.23,0.32,1.23,1.01
		c0,0.18-0.03,0.36-0.11,0.54h0.04l-4.42,14.65v-0.03c-0.21,0.9-0.76,1.33-1.69,1.33h-2.97c-0.94,0-1.52-0.43-1.74-1.33v0.03
		l-4.42-14.65c-0.07-0.18-0.07-0.36-0.07-0.5c0-0.72,0.36-1.04,1.23-1.04h1.42c0.94,0,1.45,0.43,1.7,1.33L180.9,64.53z"/>
	<path d="M191.34,51.68c0-1.01,0.44-1.44,1.45-1.44h1.05c1.01,0,1.45,0.43,1.45,1.44v14.79c0,1.01-0.44,1.44-1.45,1.44h-1.05
		c-1.01,0-1.45-0.43-1.45-1.44V51.68z M191.23,43.78c0-1.04,0.44-1.47,1.45-1.47h1.27c1.01,0,1.44,0.43,1.44,1.47v2.01
		c0,1.05-0.43,1.47-1.44,1.47h-1.27c-1.01,0-1.45-0.43-1.45-1.47V43.78z"/>
	<path d="M206.02,53.43c-2.6,0-2.79,2.84-2.79,5.68c0,4.02,0.91,5.49,2.76,5.49c1.92,0,2.97-1.73,2.97-5.46
		C208.96,55.37,207.84,53.43,206.02,53.43 M208.85,43.78c0-1.04,0.44-1.47,1.45-1.47h1.08c1.01,0,1.45,0.43,1.45,1.47v22.69
		c0,1.01-0.44,1.44-1.45,1.44h-0.18c-0.94,0-1.48-0.4-1.77-1.26c-0.11-0.28,0,0.04-0.11-0.25c-1.05,1.19-2.39,1.69-4.2,1.69
		c-3.77,0-6.08-2.62-6.08-9.01c0-4.67,1.16-9.05,6.18-9.05c1.52,0,2.72,0.47,3.62,1.29V43.78z"/>
	<path d="M225.81,57.31c-0.04-2.15-0.36-3.77-2.6-3.77c-1.84,0-2.86,0.79-2.93,3.77H225.81z M228.42,60.65h-8.14
		c0.11,2.3,1.02,3.84,3.77,3.84c1.27,0,1.99-0.33,2.46-0.58c0.33-0.21,0.61-0.32,0.94-0.32c0.32,0,0.65,0.11,1.01,0.46l0.54,0.51
		c0.33,0.35,0.51,0.68,0.51,1.04c0,0.4-0.18,0.72-0.58,1.01c-0.58,0.43-2.17,1.47-5.07,1.47c-5.61,0-7.74-2.91-7.74-9.05
		c0-5.42,1.7-8.83,7.01-8.83c4.78,0,6.73,2.26,6.73,9.01C229.86,60.22,229.42,60.65,228.42,60.65"/>
	<path d="M240.08,53.69c-2.53,0-3.22,1.65-3.22,5.42c0,3.87,0.65,5.49,3.22,5.49c2.58,0,3.26-1.62,3.26-5.49
		C243.34,55.34,242.55,53.69,240.08,53.69 M240.08,68.09c-5.5,0-7.31-3.34-7.31-8.98c0-5.53,1.85-8.91,7.31-8.91
		c5.47,0,7.31,3.37,7.31,8.91C247.4,64.75,245.52,68.09,240.08,68.09"/>
	<path d="M109.51,66.44v0.15c0,0.93-0.41,1.32-1.38,1.32h-1.41c-0.98,0-1.42-0.43-1.48-1.43l-0.58-15.31l-4.68,15.45
		c-0.28,0.89-0.83,1.29-1.77,1.29h-0.9c-0.94,0-1.48-0.4-1.77-1.29l-4.63-15.38L90.2,66.48c-0.08,1-0.51,1.43-1.49,1.43h-1.33
		c-0.97,0-1.37-0.4-1.37-1.32v-0.15l1.51-21.29c0.05-1,0.5-1.43,1.52-1.43h1.99c0.9,0,1.44,0.43,1.73,1.33l5.07,16.79
		c1.77-5.7,3.23-11.12,5-16.79c0.28-0.9,0.82-1.33,1.72-1.33h2.03c1.01,0,1.48,0.43,1.51,1.43L109.51,66.44z"/>
</g>
</svg>
