<?xml version="1.0" encoding="utf-8"?>
<!-- Generator: Adobe Illustrator 16.0.0, SVG Export Plug-In . SVG Version: 6.00 Build 0)  -->
<!DOCTYPE svg PUBLIC "-//W3C//DTD SVG 1.1//EN" "http://www.w3.org/Graphics/SVG/1.1/DTD/svg11.dtd">
<svg version="1.1" xmlns="http://www.w3.org/2000/svg" xmlns:xlink="http://www.w3.org/1999/xlink" x="0px" y="0px" width="255px"
	 height="255px" viewBox="0 0 255 255" enable-background="new 0 0 255 255" xml:space="preserve">
<g id="Capa_3">
</g>
<g id="Capa_1">
	<g>
		<g>
			<g>
				<g>
					<g>
						<g>
							<g>
								<rect x="102.03" y="62.259" fill="#FFFFE1" width="50.629" height="39.675"/>
								<path fill="#1E2125" d="M152.659,103.941H102.03l-2.008-2.008V62.259l2.008-2.007h50.629l2.008,2.007v39.675
									L152.659,103.941z M104.039,99.925h46.612V64.268h-46.612V99.925z"/>
							</g>
							<g>
								<rect x="98.957" y="61.308" fill="#FFFFE1" width="56.78" height="10.431"/>
								<path fill="#1E2125" d="M155.737,73.746h-56.78l-2.007-2.008V61.308l2.007-2.007h56.78l2.007,2.007v10.431L155.737,73.746z
									 M100.968,69.73h52.754v-6.413h-52.754V69.73z"/>
							</g>
							<g>
								<rect x="122.663" y="61.308" fill="#FFFFE1" width="9.364" height="40.626"/>
								<path fill="#1E2125" d="M132.027,103.941h-9.364l-2.006-2.008V61.308l2.006-2.007h9.364l2.007,2.007v40.626L132.027,103.941
									z M124.671,99.925h5.348V63.317h-5.348V99.925z"/>
							</g>
							<g>
								<path fill="#FFFFE1" d="M126.478,59.661c0,0-8.785,0.017-12.619,0.017c-3.83,0-6.938-3.105-6.938-6.939
									c0-3.832,3.108-6.94,6.938-6.94C121.372,45.799,126.478,59.661,126.478,59.661z"/>
								<path fill="#1E2125" d="M113.858,61.686c-4.934,0-8.947-4.011-8.947-8.946c0-4.934,4.014-8.947,8.947-8.947
									c8.666,0,13.93,13.623,14.5,15.178l-1.879,2.699C126.479,61.669,117.692,61.686,113.858,61.686z M113.858,47.808
									c-2.717,0-4.93,2.213-4.93,4.931c0,2.719,2.213,4.933,4.93,4.933c2.375,0,6.654-0.006,9.562-0.013
									C121.465,53.618,117.796,47.808,113.858,47.808z"/>
							</g>
							<g>
								<path fill="#FFFFE1" d="M127.895,59.661c0,0,8.784,0.017,12.616,0.017c3.834,0,6.938-3.105,6.938-6.939
									c0-3.832-3.104-6.94-6.938-6.94C132.993,45.799,127.895,59.661,127.895,59.661z"/>
								<path fill="#1E2125" d="M140.511,61.686c-3.832,0-12.623-0.017-12.623-0.017l-1.879-2.699
									c0.57-1.555,5.838-15.178,14.502-15.178c4.933,0,8.949,4.014,8.949,8.947C149.46,57.674,145.443,61.686,140.511,61.686z
									 M130.944,57.659c2.907,0.007,7.188,0.013,9.566,0.013c2.719,0,4.933-2.213,4.933-4.933c0-2.718-2.214-4.931-4.933-4.931
									C136.566,47.808,132.897,53.618,130.944,57.659z"/>
							</g>
							<g>
								<g>
									<path fill="#FFFFE1" d="M38.044,31.061c0,27.96,25.74,38.903,25.74,38.903S89.53,59.021,89.53,31.061
										c0-14.219-11.528-25.741-25.746-25.741C49.565,5.32,38.044,16.842,38.044,31.061z"/>
									<path fill="#1E2125" d="M64.612,71.914h-1.657c-0.271-0.115-27.028-11.828-27.028-40.853
										c0-15.361,12.496-27.859,27.857-27.859c15.363,0,27.863,12.498,27.863,27.859C91.647,60.086,64.884,71.798,64.612,71.914z
										 M63.784,7.437c-13.027,0-23.625,10.597-23.625,23.624c0,23.734,19.279,34.456,23.625,36.572
										c4.35-2.116,23.627-12.838,23.627-36.572C87.411,18.034,76.813,7.437,63.784,7.437z"/>
								</g>
								<g>
									<path fill="#96F8A7" d="M93.712,33.223c-3.817,1.16-7.971,1.665-12.283,1.365C65.971,33.501,53.925,22.459,52.876,9.176
										c4.541-2.635,9.896-3.984,15.535-3.59C82.927,6.604,93.983,18.835,93.712,33.223z"/>
									<path fill="#1E2125" d="M83.868,36.79c-0.859,0-1.729-0.03-2.586-0.09c-16.26-1.143-29.378-12.904-30.52-27.357
										l1.051-1.998c5.045-2.927,10.898-4.283,16.744-3.874c15.586,1.095,27.566,14.18,27.273,29.789l-1.503,1.989
										C90.968,36.271,87.446,36.79,83.868,36.79z M55.135,10.356c1.664,11.76,12.778,21.16,26.442,22.12
										c3.391,0.234,6.779-0.057,9.998-0.858C91.032,18.964,81.073,8.597,68.261,7.696C63.722,7.387,59.163,8.305,55.135,10.356z"
										/>
								</g>
								<g>
									<path fill="#96F8A7" d="M50.832,8.818c1.095,2.855,1.704,5.988,1.704,9.277c0,9.972-5.568,18.522-13.498,22.156
										c-0.633-2.833-0.994-5.891-0.994-9.19C38.044,21.566,43.187,13.281,50.832,8.818z"/>
									<path fill="#1E2125" d="M39.917,42.178l-2.947-1.464c-0.695-3.104-1.043-6.352-1.043-9.653
										c0-9.866,5.299-19.09,13.836-24.071l3.045,1.069c1.226,3.187,1.846,6.563,1.846,10.037
										C54.653,28.624,48.87,38.075,39.917,42.178z M49.668,12.126c-5.92,4.429-9.509,11.465-9.509,18.934
										c0,2.01,0.146,3.995,0.427,5.932c6.05-3.896,9.831-11.029,9.831-18.897C50.417,16.055,50.163,14.056,49.668,12.126z"/>
								</g>
								<g>
									<path fill="#96F8A7" d="M32.915,60.186c6.756-6.761,6.449-18.645,6.449-18.645s-12.139-0.561-18.898,6.196
										c-3.438,3.439-3.438,9.009,0,12.448C23.902,63.621,29.472,63.621,32.915,60.186z"/>
									<path fill="#1E2125" d="M26.69,64.881c-2.918,0-5.659-1.137-7.72-3.198c-2.062-2.063-3.199-4.806-3.199-7.721
										c0-2.917,1.138-5.659,3.199-7.723c6.335-6.335,16.683-6.829,19.703-6.829c0.505,0,0.788,0.013,0.788,0.013l2.016,2.062
										c0.014,0.522,0.248,12.875-7.066,20.197C32.345,63.745,29.606,64.881,26.69,64.881z M37.163,43.692
										c-3.402,0.184-10.766,1.112-15.196,5.543c-1.267,1.264-1.96,2.943-1.96,4.728c0,1.783,0.693,3.463,1.96,4.725
										c1.261,1.262,2.938,1.956,4.724,1.956s3.463-0.694,4.725-1.956C35.831,54.271,36.906,47.192,37.163,43.692z"/>
								</g>
								<g>
									<g>
										<path fill="#FFFFE1" d="M82.337,114.707c0,8.846,7.172,16.02,16.015,16.02c8.85,0,16.017-7.174,16.017-16.02H82.337z"/>
										<path fill="#1E2125" d="M98.352,132.844c-9.997,0-18.135-8.136-18.135-18.137l2.12-2.119h32.031l2.121,2.119
											C116.489,124.708,108.349,132.844,98.352,132.844z M84.612,116.824c1.026,6.663,6.797,11.783,13.739,11.783
											c6.947,0,12.717-5.121,13.741-11.783H84.612z"/>
									</g>
									<path fill="#96F8A7" d="M95.409,108.99h-9.794V95.896L63.778,71.458c-12.477,0-22.595,10.113-22.595,22.59v3.675v3.422
										v0.836c0,18.961,15.432,31.464,34.394,31.464H96.55L95.409,108.99z"/>
								</g>
								<path fill="#1E2125" d="M70.191,59.423c-5.601,0-10.55-3.571-12.315-8.885c-0.369-1.109,0.229-2.311,1.34-2.679
									c1.108-0.37,2.309,0.232,2.679,1.34c1.192,3.582,4.524,5.988,8.297,5.988c1.169,0,2.113,0.949,2.113,2.118
									C72.305,58.475,71.36,59.423,70.191,59.423z"/>
							</g>
							<g>
								<g>
									<path fill="#FFFFE1" d="M172.614,114.707c0,8.846-7.168,16.02-16.012,16.02c-8.848,0-16.021-7.174-16.021-16.02H172.614z"
										/>
									<path fill="#1E2125" d="M156.603,132.844c-10.004,0-18.139-8.136-18.139-18.137l2.118-2.119h32.032l2.121,2.119
										C174.735,124.708,166.603,132.844,156.603,132.844z M142.864,116.824c1.018,6.663,6.791,11.783,13.738,11.783
										c6.939,0,12.715-5.121,13.734-11.783H142.864z"/>
								</g>
								<path fill="#96F8A7" d="M191.177,71.458l-21.838,24.437v13.095h-9.793l-1.14,24.456h20.97
									c18.965,0,34.393-15.424,34.393-34.389v-0.108v-1.225v-3.675C213.769,81.571,203.655,71.458,191.177,71.458z"/>
								<g>
									<path fill="#FFFFE1" d="M216.919,31.061c0,27.96-25.742,38.903-25.742,38.903s-25.742-10.943-25.742-38.903
										c0-14.219,11.525-25.741,25.742-25.741S216.919,16.842,216.919,31.061z"/>
									<path fill="#1E2125" d="M190.347,71.914c-0.271-0.115-27.031-11.828-27.031-40.853c0-15.361,12.498-27.859,27.861-27.859
										c15.367,0,27.861,12.498,27.861,27.859c0,29.025-26.762,40.738-27.035,40.853H190.347z M191.177,7.437
										c-13.027,0-23.631,10.597-23.631,23.624c0,23.734,19.282,34.456,23.631,36.572c4.346-2.116,23.627-12.838,23.627-36.572
										C214.804,18.034,204.205,7.437,191.177,7.437z"/>
								</g>
								<path fill="#1E2125" d="M185.081,59.423c-1.168,0-2.119-0.949-2.119-2.117c0-1.169,0.951-2.118,2.119-2.118
									c3.771,0,7.106-2.407,8.299-5.988c0.373-1.108,1.57-1.709,2.68-1.338c1.111,0.369,1.713,1.568,1.342,2.678
									C195.625,55.854,190.675,59.423,185.081,59.423z"/>
								<g>
									<path fill="#96F8A7" d="M204.13,8.818c-1.098,2.855-1.701,5.988-1.701,9.277c0,9.972,5.567,18.522,13.498,22.156
										c0.633-2.833,0.992-5.891,0.992-9.19C216.919,21.566,211.774,13.281,204.13,8.818z"/>
									<path fill="#1E2125" d="M215.042,42.178c-8.951-4.103-14.734-13.556-14.734-24.083c0-3.473,0.621-6.85,1.848-10.037
										l3.039-1.069c8.543,4.984,13.844,14.208,13.844,24.071c0,3.297-0.354,6.544-1.043,9.653L215.042,42.178z M205.297,12.126
										c-0.5,1.929-0.753,3.928-0.753,5.969c0,7.868,3.784,15.001,9.828,18.899c0.287-1.939,0.432-3.925,0.432-5.934
										C214.804,23.592,211.214,16.556,205.297,12.126z"/>
								</g>
								<g>
									<g>
										<g>
											<g>
												<g>
													<path fill="none" d="M238.913,60.186"/>
												</g>
											</g>
										</g>
									</g>
								</g>
								<g>
									<path fill="#96F8A7" d="M160.316,30.677c3.827,1.462,8.049,2.281,12.487,2.281c15.912,0,29.045-10.444,31.08-23.979
										c-4.468-3.025-9.857-4.795-15.662-4.795C173.276,4.183,161.073,15.921,160.316,30.677z"/>
									<path fill="#1E2125" d="M172.804,35.075c-4.588,0-9.045-0.814-13.244-2.42l-1.357-2.087
										c0.818-15.981,14.008-28.501,30.02-28.501c6.039,0,11.865,1.784,16.848,5.16l0.908,2.069
										C203.765,23.993,189.509,35.075,172.804,35.075z M162.559,29.226c3.272,1.072,6.714,1.613,10.245,1.613
										c14.105,0,26.199-8.869,28.742-20.841c-4.012-2.422-8.594-3.695-13.324-3.695C174.989,6.303,164.007,16.25,162.559,29.226z
										"/>
								</g>
							</g>
							<path fill="#1E2125" d="M87.729,108.519h-4.234V96.704L62.849,73.598c-10.858,0.486-19.544,9.474-19.544,20.451v7.097h-4.235
								v-7.097c0-13.623,11.084-24.709,24.709-24.709l1.576,0.708l21.838,24.438l0.537,1.41V108.519z"/>
							<path fill="#1E2125" d="M96.55,135.565H75.577c-21.156,0-36.508-14.125-36.508-33.583v-4.258h4.235v4.258
								c0,17.004,13.571,29.346,32.272,29.346h18.751l-0.944-20.22H75.577c-9.959,0-12.05-4.963-12.05-9.126v-7.241h4.238v7.241
								c0,1.585,0,4.889,7.812,4.889h19.832l2.117,2.019l1.139,24.456L96.55,135.565z"/>
							<path fill="#1E2125" d="M171.458,109.341h-4.238V95.896l0.541-1.41l21.834-24.438l1.582-0.708
								c13.625,0,24.709,11.086,24.709,24.709v4.9h-4.237v-4.9c0-10.977-8.685-19.965-19.544-20.451l-20.646,23.105V109.341z"/>
							<path fill="#1E2125" d="M179.376,135.565h-20.97l-2.117-2.219l1.142-24.456l2.115-2.019h19.83
								c4.312,0,7.814-3.504,7.814-7.813v-4.316h4.238v4.316c0,6.645-5.405,12.05-12.053,12.05H161.57l-0.945,20.22h18.751
								c17.801,0,32.272-14.477,32.272-32.27v-1.333h4.237v1.333C215.886,119.187,199.511,135.565,179.376,135.565z"/>
						</g>
					</g>
				</g>
			</g>
		</g>
		<g>
			<g>
				<path fill="#1E2125" d="M36.967,170.074l1.859-2.553c0.701,0.759,1.559,1.386,2.57,1.88s2.123,0.741,3.336,0.741
					c1.248,0,2.18-0.254,2.795-0.762s0.924-1.119,0.924-1.833c0-0.421-0.123-0.787-0.369-1.099c-0.246-0.311-0.58-0.565-0.998-0.762
					c-0.42-0.197-0.902-0.373-1.449-0.528c-0.547-0.156-1.121-0.309-1.723-0.46c-0.602-0.151-1.201-0.315-1.799-0.494
					c-0.597-0.178-1.168-0.405-1.715-0.68c-0.547-0.274-1.031-0.597-1.449-0.968c-0.42-0.371-0.752-0.844-0.998-1.42
					c-0.246-0.577-0.369-1.231-0.369-1.963c0-1.572,0.629-2.878,1.887-3.918c1.258-1.04,2.898-1.561,4.922-1.561
					c2.861,0,5.186,0.872,6.973,2.614l-1.846,2.44c-0.721-0.723-1.553-1.265-2.496-1.627c-0.943-0.361-1.92-0.542-2.932-0.542
					c-0.949,0-1.709,0.217-2.283,0.652c-0.574,0.435-0.861,0.995-0.861,1.681c0,0.375,0.123,0.703,0.369,0.982
					c0.246,0.279,0.578,0.508,0.998,0.686c0.418,0.179,0.902,0.346,1.449,0.501c0.547,0.156,1.118,0.312,1.715,0.467
					c0.598,0.156,1.197,0.325,1.799,0.508c0.602,0.183,1.176,0.421,1.723,0.714s1.029,0.631,1.449,1.016
					c0.418,0.384,0.752,0.872,0.998,1.462s0.369,1.256,0.369,1.997c0,0.627-0.09,1.223-0.268,1.786s-0.457,1.091-0.84,1.582
					c-0.383,0.491-0.854,0.913-1.408,1.268c-0.557,0.354-1.238,0.634-2.045,0.838c-0.807,0.204-1.697,0.307-2.672,0.307
					C41.428,173.027,38.889,172.042,36.967,170.074z"/>
				<path fill="#1E2125" d="M55.074,172.685v-18.676h3.281v18.676H55.074z"/>
				<path fill="#1E2125" d="M69.881,172.685v-18.676h3.281V169.8h8.23v2.885H69.881z"/>
				<path fill="#1E2125" d="M84.947,168.338c-0.807-1.47-1.211-3.129-1.211-4.978s0.404-3.507,1.211-4.977s1.936-2.619,3.391-3.447
					c1.453-0.828,3.101-1.242,4.941-1.242c1.377,0,2.657,0.244,3.842,0.73c1.186,0.487,2.197,1.156,3.035,2.008
					c0.839,0.851,1.495,1.873,1.969,3.066c0.475,1.193,0.711,2.48,0.711,3.862s-0.236,2.669-0.711,3.862
					c-0.474,1.193-1.13,2.215-1.969,3.066c-0.838,0.851-1.85,1.52-3.035,2.007c-1.185,0.487-2.465,0.73-3.842,0.73
					c-1.841,0-3.488-0.414-4.941-1.242C86.883,170.957,85.754,169.808,84.947,168.338z M87.1,163.361
					c0,1.958,0.565,3.578,1.695,4.859c1.131,1.281,2.625,1.922,4.484,1.922c1.851,0,3.346-0.641,4.484-1.922
					c1.14-1.281,1.709-2.901,1.709-4.859c0-1.967-0.569-3.59-1.709-4.866c-1.139-1.277-2.634-1.915-4.484-1.915
					c-1.859,0-3.354,0.636-4.484,1.908C87.665,159.76,87.1,161.384,87.1,163.361z"/>
				<path fill="#1E2125" d="M111.805,154.009h3.719l5.66,15.094l5.66-15.094h3.719l-7.328,18.676h-4.088L111.805,154.009z"/>
				<path fill="#1E2125" d="M132.852,172.685v-18.676h12.797v2.885h-9.516v4.812h9.324v2.885h-9.324v5.209h9.516v2.885H132.852z"/>
				<path fill="#1E2125" d="M149.279,172.685v-18.676h3.363l9.557,12.934v-12.934h3.281v18.676h-3.172l-9.748-13.357v13.357H149.279
					z"/>
				<path fill="#1E2125" d="M169.328,152.3l3.91-4.033h2.803l-4.621,4.033H169.328z M169.711,172.685v-18.676h3.281v18.676H169.711z
					"/>
				<path fill="#1E2125" d="M176.033,170.074l1.859-2.553c0.702,0.759,1.559,1.386,2.57,1.88s2.124,0.741,3.336,0.741
					c1.249,0,2.182-0.254,2.797-0.762s0.922-1.119,0.922-1.833c0-0.421-0.123-0.787-0.369-1.099
					c-0.246-0.311-0.578-0.565-0.998-0.762c-0.419-0.197-0.902-0.373-1.449-0.528c-0.547-0.156-1.121-0.309-1.723-0.46
					c-0.602-0.151-1.201-0.315-1.797-0.494c-0.598-0.178-1.17-0.405-1.717-0.68c-0.547-0.274-1.029-0.597-1.449-0.968
					c-0.419-0.371-0.752-0.844-0.998-1.42c-0.246-0.577-0.369-1.231-0.369-1.963c0-1.572,0.629-2.878,1.887-3.918
					c1.258-1.04,2.898-1.561,4.922-1.561c2.862,0,5.187,0.872,6.973,2.614l-1.846,2.44c-0.72-0.723-1.551-1.265-2.494-1.627
					c-0.943-0.361-1.922-0.542-2.934-0.542c-0.947,0-1.709,0.217-2.283,0.652c-0.574,0.435-0.861,0.995-0.861,1.681
					c0,0.375,0.123,0.703,0.369,0.982c0.246,0.279,0.579,0.508,0.998,0.686c0.42,0.179,0.902,0.346,1.449,0.501
					c0.547,0.156,1.119,0.312,1.717,0.467c0.596,0.156,1.195,0.325,1.797,0.508c0.602,0.183,1.176,0.421,1.723,0.714
					s1.03,0.631,1.449,1.016c0.42,0.384,0.752,0.872,0.998,1.462s0.369,1.256,0.369,1.997c0,0.627-0.088,1.223-0.266,1.786
					s-0.459,1.091-0.842,1.582c-0.383,0.491-0.852,0.913-1.408,1.268c-0.556,0.354-1.236,0.634-2.043,0.838
					c-0.807,0.204-1.698,0.307-2.674,0.307C180.495,173.027,177.957,172.042,176.033,170.074z"/>
				<path fill="#1E2125" d="M199.713,172.685l7.342-18.676h4.088l7.328,18.676h-3.719l-1.367-3.609h-8.572l-1.381,3.609H199.713z
					 M205.729,166.191h6.727l-3.363-8.9L205.729,166.191z"/>
				<path fill="#1E2125" d="M3.775,199.685v-18.676h9.195c1.67,0,2.975,0.449,3.914,1.347c0.939,0.898,1.41,2.035,1.41,3.411
					c0,1.121-0.314,2.067-0.941,2.837c-0.627,0.771-1.398,1.251-2.312,1.442c1.012,0.155,1.865,0.672,2.562,1.552
					c0.697,0.88,1.047,1.885,1.047,3.015c0,1.504-0.477,2.726-1.43,3.664c-0.952,0.939-2.285,1.408-3.998,1.408H3.775z
					 M7.057,188.707h5.264c0.811,0,1.449-0.221,1.914-0.663c0.465-0.442,0.697-1.023,0.697-1.743c0-0.702-0.232-1.278-0.697-1.729
					s-1.104-0.677-1.914-0.677H7.057V188.707z M7.057,196.8h5.4c0.883,0,1.576-0.23,2.078-0.69c0.5-0.46,0.752-1.096,0.752-1.907
					c0-0.738-0.252-1.358-0.752-1.859c-0.502-0.501-1.195-0.752-2.078-0.752h-5.4V196.8z"/>
				<path fill="#1E2125" d="M22.225,192.289v-11.279h3.363v11.216c0,1.516,0.412,2.714,1.235,3.595
					c0.823,0.881,1.995,1.321,3.516,1.321s2.691-0.44,3.516-1.321c0.823-0.881,1.235-2.08,1.235-3.595v-11.216h3.363v11.279
					c0,2.379-0.689,4.264-2.07,5.653c-1.379,1.39-3.395,2.085-6.044,2.085c-2.641,0-4.653-0.695-6.038-2.085
					C22.917,196.552,22.225,194.667,22.225,192.289z"/>
				<path fill="#1E2125" d="M41.454,197.074l1.859-2.553c0.702,0.759,1.559,1.386,2.57,1.88s2.124,0.741,3.336,0.741
					c1.249,0,2.181-0.254,2.796-0.762s0.923-1.119,0.923-1.833c0-0.421-0.123-0.787-0.369-1.099
					c-0.246-0.311-0.579-0.565-0.998-0.762s-0.902-0.373-1.449-0.528c-0.547-0.156-1.121-0.309-1.723-0.46
					c-0.602-0.151-1.201-0.315-1.798-0.494c-0.598-0.178-1.169-0.405-1.716-0.68c-0.547-0.274-1.03-0.597-1.449-0.968
					s-0.752-0.844-0.998-1.42c-0.246-0.577-0.369-1.231-0.369-1.963c0-1.572,0.629-2.878,1.887-3.918
					c1.258-1.04,2.898-1.561,4.922-1.561c2.862,0,5.187,0.872,6.973,2.614l-1.846,2.44c-0.72-0.723-1.552-1.265-2.495-1.627
					c-0.943-0.361-1.921-0.542-2.933-0.542c-0.948,0-1.709,0.217-2.283,0.652c-0.574,0.435-0.861,0.995-0.861,1.681
					c0,0.375,0.123,0.703,0.369,0.982c0.246,0.279,0.579,0.508,0.998,0.686c0.419,0.179,0.902,0.346,1.449,0.501
					c0.547,0.156,1.118,0.312,1.716,0.467c0.597,0.156,1.196,0.325,1.798,0.508c0.602,0.183,1.176,0.421,1.723,0.714
					s1.03,0.631,1.449,1.016c0.419,0.384,0.752,0.872,0.998,1.462s0.369,1.256,0.369,1.997c0,0.627-0.089,1.223-0.267,1.786
					s-0.458,1.091-0.841,1.582c-0.383,0.491-0.853,0.913-1.408,1.268c-0.556,0.354-1.237,0.634-2.044,0.838
					c-0.807,0.204-1.697,0.307-2.673,0.307C45.916,200.027,43.377,199.042,41.454,197.074z"/>
				<path fill="#1E2125" d="M58.756,190.361c0-1.413,0.252-2.725,0.758-3.938c0.506-1.212,1.197-2.235,2.072-3.069
					s1.914-1.485,3.117-1.955c1.203-0.469,2.488-0.704,3.855-0.704c1.75,0,3.244,0.383,4.484,1.149
					c1.238,0.766,2.236,1.77,2.994,3.012l-2.775,1.456c-0.465-0.806-1.121-1.462-1.969-1.97c-0.848-0.508-1.76-0.762-2.734-0.762
					c-1.852,0-3.387,0.636-4.607,1.908c-1.223,1.272-1.832,2.896-1.832,4.873c0,1.949,0.609,3.567,1.832,4.853
					c1.221,1.286,2.756,1.929,4.607,1.929c0.965,0,1.875-0.256,2.727-0.769c0.853-0.513,1.512-1.167,1.977-1.963l2.803,1.4
					c-1.797,2.811-4.299,4.216-7.506,4.216c-1.367,0-2.652-0.237-3.855-0.711s-2.242-1.128-3.117-1.962s-1.566-1.857-2.072-3.069
					C59.008,193.073,58.756,191.765,58.756,190.361z"/>
				<path fill="#1E2125" d="M77,199.685l7.342-18.676h4.088l7.328,18.676h-3.719l-1.367-3.609H82.1l-1.381,3.609H77z
					 M83.016,193.191h6.727l-3.363-8.9L83.016,193.191z"/>
				<path fill="#1E2125" d="M98.048,199.685v-18.676h8.203c1.841,0,3.324,0.54,4.45,1.62c1.125,1.08,1.688,2.491,1.688,4.231
					c0,0.802-0.126,1.534-0.376,2.194c-0.251,0.661-0.588,1.212-1.012,1.654c-0.424,0.442-0.896,0.802-1.415,1.08
					c-0.52,0.278-1.071,0.463-1.654,0.554l4.594,7.342h-3.801l-4.115-6.973h-3.281v6.973H98.048z M101.329,189.828h4.512
					c0.93,0,1.692-0.273,2.29-0.82c0.597-0.547,0.896-1.271,0.896-2.174c0-0.884-0.296-1.595-0.889-2.133
					c-0.593-0.538-1.358-0.807-2.297-0.807h-4.512V189.828z"/>
				<path fill="#1E2125" d="M115.871,199.269c-0.284-0.332-0.426-0.754-0.426-1.266s0.166-0.952,0.5-1.32
					c0.332-0.368,0.738-0.552,1.215-0.552c0.543,0,1.004,0.225,1.382,0.673c0.378,0.449,0.567,1.06,0.567,1.832
					c0,0.928-0.214,1.812-0.642,2.656c-0.428,0.843-0.999,1.547-1.715,2.112l-1.209-1.08c0.419-0.273,0.808-0.666,1.166-1.176
					c0.357-0.511,0.573-0.998,0.647-1.463c-0.099,0.055-0.242,0.082-0.432,0.082C116.506,199.767,116.154,199.601,115.871,199.269z"
					/>
				<path fill="#1E2125" d="M130.566,199.685v-18.676h12.797v2.885h-9.516v4.812h9.324v2.885h-9.324v5.209h9.516v2.885H130.566z"/>
				<path fill="#1E2125" d="M145.789,197.074l1.859-2.553c0.701,0.759,1.559,1.386,2.57,1.88s2.123,0.741,3.336,0.741
					c1.248,0,2.181-0.254,2.796-0.762s0.923-1.119,0.923-1.833c0-0.421-0.123-0.787-0.369-1.099
					c-0.246-0.311-0.579-0.565-0.998-0.762c-0.42-0.197-0.902-0.373-1.449-0.528c-0.547-0.156-1.121-0.309-1.723-0.46
					c-0.602-0.151-1.201-0.315-1.798-0.494c-0.597-0.178-1.169-0.405-1.716-0.68c-0.547-0.274-1.03-0.597-1.449-0.968
					c-0.42-0.371-0.752-0.844-0.998-1.42c-0.246-0.577-0.369-1.231-0.369-1.963c0-1.572,0.629-2.878,1.887-3.918
					c1.258-1.04,2.898-1.561,4.922-1.561c2.861,0,5.186,0.872,6.973,2.614l-1.846,2.44c-0.721-0.723-1.552-1.265-2.495-1.627
					c-0.943-0.361-1.921-0.542-2.933-0.542c-0.948,0-1.709,0.217-2.283,0.652c-0.574,0.435-0.861,0.995-0.861,1.681
					c0,0.375,0.123,0.703,0.369,0.982c0.246,0.279,0.578,0.508,0.998,0.686c0.419,0.179,0.902,0.346,1.449,0.501
					c0.547,0.156,1.119,0.312,1.716,0.467c0.597,0.156,1.196,0.325,1.798,0.508c0.602,0.183,1.176,0.421,1.723,0.714
					s1.029,0.631,1.449,1.016c0.419,0.384,0.752,0.872,0.998,1.462s0.369,1.256,0.369,1.997c0,0.627-0.089,1.223-0.267,1.786
					s-0.458,1.091-0.841,1.582c-0.383,0.491-0.853,0.913-1.408,1.268c-0.557,0.354-1.237,0.634-2.044,0.838
					c-0.807,0.204-1.698,0.307-2.673,0.307C150.25,200.027,147.712,199.042,145.789,197.074z"/>
				<path fill="#1E2125" d="M170.193,183.894v-2.885h14.588v2.885h-5.646v15.791h-3.281v-15.791H170.193z"/>
				<path fill="#1E2125" d="M187.822,192.289v-11.279h3.363v11.216c0,1.516,0.412,2.714,1.235,3.595
					c0.823,0.881,1.995,1.321,3.516,1.321s2.691-0.44,3.516-1.321c0.823-0.881,1.235-2.08,1.235-3.595v-11.216h3.363v11.279
					c0,2.379-0.689,4.264-2.07,5.653c-1.379,1.39-3.395,2.085-6.044,2.085c-2.641,0-4.653-0.695-6.038-2.085
					C188.515,196.552,187.822,194.667,187.822,192.289z"/>
				<path fill="#1E2125" d="M206.327,181.009h3.76l5.12,7.984l5.134-7.984h3.76l-7.232,10.924v7.752h-3.281v-7.752L206.327,181.009z
					"/>
				<path fill="#1E2125" d="M226.766,195.338c-0.807-1.47-1.209-3.129-1.209-4.978s0.402-3.507,1.209-4.977s1.938-2.619,3.391-3.447
					c1.454-0.828,3.102-1.242,4.943-1.242c1.375,0,2.656,0.244,3.842,0.73c1.184,0.487,2.195,1.156,3.035,2.008
					c0.838,0.851,1.494,1.873,1.969,3.066c0.473,1.193,0.711,2.48,0.711,3.862s-0.238,2.669-0.711,3.862
					c-0.475,1.193-1.131,2.215-1.969,3.066c-0.84,0.851-1.852,1.52-3.035,2.007c-1.186,0.487-2.467,0.73-3.842,0.73
					c-1.842,0-3.489-0.414-4.943-1.242C228.703,197.957,227.572,196.808,226.766,195.338z M228.92,190.361
					c0,1.958,0.564,3.578,1.695,4.859c1.129,1.281,2.625,1.922,4.484,1.922c1.85,0,3.344-0.641,4.484-1.922
					c1.139-1.281,1.709-2.901,1.709-4.859c0-1.967-0.57-3.59-1.709-4.866c-1.141-1.277-2.635-1.915-4.484-1.915
					c-1.859,0-3.355,0.636-4.484,1.908C229.484,186.76,228.92,188.384,228.92,190.361z"/>
				<path fill="#1E2125" d="M247.561,198.127c0-0.487,0.164-0.909,0.492-1.268s0.757-0.538,1.285-0.538
					c0.529,0,0.976,0.18,1.34,0.538c0.365,0.358,0.547,0.781,0.547,1.268c0,0.503-0.182,0.935-0.547,1.293
					c-0.364,0.358-0.811,0.538-1.34,0.538c-0.528,0-0.957-0.18-1.285-0.538C247.725,199.062,247.561,198.631,247.561,198.127z
					 M247.697,181.009h3.363l-0.465,13.145h-2.543L247.697,181.009z"/>
				<path fill="#FFFFFF" d="M3.957,229.59v-11.715h1.004v10.806h5.694v0.909H3.957z"/>
				<path fill="#FFFFFF" d="M12.567,226.975c0-0.589,0.147-1.102,0.441-1.539c0.294-0.438,0.661-0.759,1.103-0.965
					c0.439-0.206,0.914-0.309,1.424-0.309c1.199,0,2.16,0.403,2.881,1.209v-1.707c0-0.604-0.216-1.079-0.647-1.426
					s-0.974-0.521-1.625-0.521c-0.538,0-1.021,0.099-1.45,0.298c-0.428,0.199-0.834,0.514-1.217,0.945l-0.506-0.63
					c0.445-0.491,0.929-0.853,1.449-1.086c0.52-0.234,1.126-0.351,1.818-0.351c0.914,0,1.657,0.229,2.229,0.686
					c0.572,0.458,0.858,1.138,0.858,2.041v5.969h-0.909v-1.003c-0.743,0.812-1.703,1.218-2.881,1.218
					c-0.373,0-0.732-0.063-1.081-0.188c-0.349-0.126-0.665-0.305-0.948-0.536s-0.51-0.53-0.682-0.896
					C12.652,227.818,12.567,227.415,12.567,226.975z M13.527,226.992c0,0.601,0.217,1.099,0.648,1.497s0.99,0.596,1.676,0.596
					c0.521,0,1.004-0.1,1.449-0.3c0.446-0.2,0.818-0.489,1.115-0.866v-1.861c-0.291-0.389-0.662-0.682-1.111-0.879
					c-0.448-0.197-0.933-0.296-1.453-0.296c-0.686,0-1.244,0.199-1.676,0.596C13.744,225.875,13.527,226.38,13.527,226.992z"/>
				<path fill="#FFFFFF" d="M26.949,225.341c0-1.265,0.378-2.322,1.136-3.172c0.757-0.85,1.748-1.274,2.972-1.274
					c0.691,0,1.271,0.123,1.736,0.369c0.466,0.246,0.888,0.604,1.266,1.073l-0.635,0.566c-0.578-0.79-1.35-1.185-2.316-1.185
					c-0.972,0-1.748,0.342-2.328,1.026s-0.87,1.55-0.87,2.597c0,1.048,0.292,1.917,0.874,2.606c0.584,0.69,1.358,1.035,2.324,1.035
					c0.961,0,1.732-0.398,2.316-1.193l0.635,0.566c-0.373,0.472-0.791,0.832-1.257,1.079c-0.466,0.248-1.048,0.371-1.745,0.371
					c-0.612,0-1.177-0.117-1.693-0.351c-0.518-0.234-0.951-0.551-1.3-0.951s-0.622-0.873-0.819-1.418S26.949,225.958,26.949,225.341
					z"/>
				<path fill="#FFFFFF" d="M35.971,225.341c0-1.271,0.373-2.329,1.119-3.176c0.746-0.847,1.725-1.271,2.938-1.271
					c0.82,0,1.545,0.199,2.174,0.596c0.629,0.398,1.107,0.932,1.438,1.601c0.33,0.669,0.495,1.419,0.495,2.249
					c0,0.83-0.165,1.582-0.495,2.255c-0.331,0.673-0.81,1.21-1.438,1.609s-1.354,0.599-2.174,0.599c-0.807,0-1.521-0.2-2.145-0.6
					s-1.098-0.937-1.424-1.611S35.971,226.169,35.971,225.341z M37.287,223.568c-0.237,0.541-0.355,1.132-0.355,1.773
					s0.118,1.235,0.355,1.782c0.236,0.547,0.596,0.993,1.076,1.339s1.035,0.52,1.664,0.52c0.64,0,1.2-0.173,1.68-0.52
					c0.48-0.346,0.838-0.791,1.072-1.335s0.352-1.139,0.352-1.786c0-0.641-0.117-1.232-0.352-1.773
					c-0.234-0.541-0.592-0.984-1.072-1.331c-0.479-0.346-1.04-0.52-1.68-0.52c-0.629,0-1.184,0.173-1.664,0.52
					S37.523,223.027,37.287,223.568z"/>
				<path fill="#FFFFFF" d="M46.818,229.59v-8.481h0.909v1.278c0.218-0.332,0.591-0.663,1.119-0.995
					c0.528-0.332,1.071-0.497,1.626-0.497c0.612,0,1.105,0.153,1.477,0.458c0.372,0.306,0.617,0.688,0.736,1.145
					c0.252-0.423,0.643-0.796,1.173-1.119c0.529-0.323,1.077-0.484,1.645-0.484c1.54,0,2.31,0.86,2.31,2.581v6.115h-0.908v-5.935
					c0-1.292-0.568-1.938-1.702-1.938c-0.446,0-0.903,0.142-1.37,0.424c-0.467,0.283-0.821,0.622-1.062,1.016v6.432h-0.909v-5.935
					c0-1.292-0.563-1.938-1.689-1.938c-0.44,0-0.893,0.143-1.355,0.429c-0.463,0.286-0.826,0.629-1.089,1.029v6.415H46.818z"/>
				<path fill="#FFFFFF" d="M61.02,227.078v-5.969h0.909v5.769c0,0.778,0.176,1.324,0.527,1.636s0.862,0.468,1.53,0.468
					c0.527,0,1.044-0.136,1.553-0.408s0.912-0.605,1.209-1v-6.465h0.91v8.481h-0.91v-1.236c-0.371,0.416-0.83,0.761-1.376,1.037
					s-1.108,0.414-1.685,0.414c-0.881,0-1.546-0.22-1.994-0.66C61.244,228.704,61.02,228.015,61.02,227.078z"/>
				<path fill="#FFFFFF" d="M70.848,229.59v-8.481h0.909v1.278c0.337-0.4,0.788-0.749,1.351-1.046
					c0.563-0.297,1.134-0.446,1.711-0.446c1.778,0,2.668,0.92,2.668,2.761v5.935h-0.91v-5.746c0-0.772-0.177-1.319-0.531-1.643
					c-0.354-0.323-0.863-0.484-1.526-0.484c-0.526,0-1.048,0.143-1.565,0.429c-0.518,0.286-0.916,0.629-1.196,1.029v6.415H70.848z"
					/>
				<path fill="#FFFFFF" d="M80.637,219.561c-0.141-0.14-0.21-0.305-0.21-0.493c0-0.189,0.069-0.35,0.21-0.485
					c0.141-0.134,0.305-0.201,0.493-0.201c0.194,0,0.36,0.065,0.497,0.197c0.138,0.131,0.207,0.294,0.207,0.489
					s-0.069,0.36-0.207,0.497c-0.137,0.137-0.303,0.206-0.497,0.206C80.941,219.771,80.777,219.701,80.637,219.561z M80.676,229.59
					v-8.481h0.908v8.481H80.676z"/>
				<path fill="#FFFFFF" d="M84.312,225.358c0-1.339,0.347-2.417,1.041-3.236c0.695-0.818,1.605-1.228,2.731-1.228
					c0.595,0,1.151,0.142,1.669,0.425c0.517,0.283,0.943,0.67,1.281,1.163v-4.606h0.909v11.715h-0.909v-1.347
					c-0.314,0.455-0.732,0.829-1.256,1.122s-1.088,0.439-1.694,0.439c-1.132,0-2.044-0.404-2.735-1.212
					C84.658,227.784,84.312,226.706,84.312,225.358z M86.07,222.744c-0.532,0.684-0.798,1.556-0.798,2.614
					c0,1.059,0.266,1.928,0.798,2.606c0.531,0.678,1.254,1.018,2.17,1.018c0.576,0,1.123-0.146,1.637-0.438
					c0.516-0.292,0.9-0.649,1.158-1.073v-4.198c-0.258-0.435-0.645-0.803-1.162-1.104c-0.518-0.3-1.062-0.451-1.633-0.451
					C87.324,221.718,86.602,222.06,86.07,222.744z"/>
				<path fill="#FFFFFF" d="M94.705,226.975c0-0.589,0.147-1.102,0.441-1.539c0.295-0.438,0.662-0.759,1.103-0.965
					c0.44-0.206,0.915-0.309,1.424-0.309c1.2,0,2.161,0.403,2.882,1.209v-1.707c0-0.604-0.217-1.079-0.648-1.426
					s-0.973-0.521-1.625-0.521c-0.537,0-1.02,0.099-1.449,0.298c-0.429,0.199-0.834,0.514-1.218,0.945l-0.506-0.63
					c0.446-0.491,0.929-0.853,1.449-1.086c0.521-0.234,1.126-0.351,1.818-0.351c0.915,0,1.657,0.229,2.229,0.686
					s0.857,1.138,0.857,2.041v5.969h-0.908v-1.003c-0.744,0.812-1.704,1.218-2.882,1.218c-0.372,0-0.731-0.063-1.081-0.188
					c-0.349-0.126-0.664-0.305-0.947-0.536s-0.51-0.53-0.682-0.896C94.791,227.818,94.705,227.415,94.705,226.975z M95.666,226.992
					c0,0.601,0.216,1.099,0.647,1.497s0.99,0.596,1.677,0.596c0.52,0,1.003-0.1,1.449-0.3c0.445-0.2,0.817-0.489,1.115-0.866v-1.861
					c-0.292-0.389-0.662-0.682-1.111-0.879s-0.934-0.296-1.453-0.296c-0.687,0-1.245,0.199-1.677,0.596
					C95.882,225.875,95.666,226.38,95.666,226.992z"/>
				<path fill="#FFFFFF" d="M104.189,225.358c0-1.339,0.348-2.417,1.042-3.236s1.605-1.228,2.731-1.228
					c0.595,0,1.15,0.142,1.668,0.425s0.945,0.67,1.282,1.163v-4.606h0.909v11.715h-0.909v-1.347
					c-0.314,0.455-0.733,0.829-1.257,1.122c-0.522,0.293-1.088,0.439-1.693,0.439c-1.132,0-2.044-0.404-2.735-1.212
					C104.535,227.784,104.189,226.706,104.189,225.358z M105.947,222.744c-0.531,0.684-0.797,1.556-0.797,2.614
					c0,1.059,0.266,1.928,0.797,2.606c0.532,0.678,1.256,1.018,2.17,1.018c0.578,0,1.123-0.146,1.639-0.438
					c0.514-0.292,0.9-0.649,1.157-1.073v-4.198c-0.257-0.435-0.645-0.803-1.162-1.104c-0.517-0.3-1.062-0.451-1.634-0.451
					C107.203,221.718,106.479,222.06,105.947,222.744z"/>
				<path fill="#FFFFFF" d="M119.463,225.341c0-1.265,0.379-2.322,1.137-3.172c0.758-0.85,1.748-1.274,2.971-1.274
					c0.692,0,1.271,0.123,1.737,0.369c0.466,0.246,0.888,0.604,1.265,1.073l-0.635,0.566c-0.577-0.79-1.35-1.185-2.314-1.185
					c-0.973,0-1.748,0.342-2.329,1.026c-0.58,0.684-0.87,1.55-0.87,2.597c0,1.048,0.291,1.917,0.875,2.606
					c0.582,0.69,1.357,1.035,2.324,1.035c0.96,0,1.732-0.398,2.314-1.193l0.635,0.566c-0.371,0.472-0.79,0.832-1.256,1.079
					c-0.467,0.248-1.048,0.371-1.746,0.371c-0.611,0-1.176-0.117-1.693-0.351c-0.518-0.234-0.95-0.551-1.299-0.951
					c-0.35-0.4-0.622-0.873-0.819-1.418C119.562,226.539,119.463,225.958,119.463,225.341z"/>
				<path fill="#FFFFFF" d="M128.485,225.341c0-1.271,0.373-2.329,1.119-3.176c0.746-0.847,1.726-1.271,2.937-1.271
					c0.821,0,1.547,0.199,2.175,0.596c0.629,0.398,1.108,0.932,1.438,1.601s0.495,1.419,0.495,2.249c0,0.83-0.165,1.582-0.495,2.255
					s-0.81,1.21-1.438,1.609c-0.628,0.399-1.354,0.599-2.175,0.599c-0.806,0-1.521-0.2-2.144-0.6s-1.098-0.937-1.423-1.611
					C128.648,226.92,128.485,226.169,128.485,225.341z M129.802,223.568c-0.237,0.541-0.356,1.132-0.356,1.773
					s0.119,1.235,0.356,1.782s0.596,0.993,1.076,1.339c0.479,0.346,1.034,0.52,1.663,0.52c0.641,0,1.201-0.173,1.682-0.52
					s0.838-0.791,1.072-1.335s0.352-1.139,0.352-1.786c0-0.641-0.117-1.232-0.352-1.773c-0.234-0.541-0.592-0.984-1.072-1.331
					s-1.041-0.52-1.682-0.52c-0.629,0-1.184,0.173-1.663,0.52C130.397,222.583,130.039,223.027,129.802,223.568z"/>
				<path fill="#FFFFFF" d="M139.334,229.59v-11.715h0.908v11.715H139.334z"/>
				<path fill="#FFFFFF" d="M142.986,226.975c0-0.589,0.146-1.102,0.441-1.539c0.295-0.438,0.662-0.759,1.102-0.965
					c0.441-0.206,0.915-0.309,1.424-0.309c1.201,0,2.162,0.403,2.882,1.209v-1.707c0-0.604-0.216-1.079-0.647-1.426
					s-0.974-0.521-1.625-0.521c-0.537,0-1.021,0.099-1.449,0.298c-0.43,0.199-0.835,0.514-1.219,0.945l-0.506-0.63
					c0.446-0.491,0.93-0.853,1.449-1.086c0.521-0.234,1.127-0.351,1.818-0.351c0.915,0,1.658,0.229,2.23,0.686
					c0.571,0.458,0.857,1.138,0.857,2.041v5.969h-0.909v-1.003c-0.743,0.812-1.704,1.218-2.882,1.218
					c-0.371,0-0.731-0.063-1.08-0.188c-0.35-0.126-0.665-0.305-0.947-0.536c-0.283-0.231-0.511-0.53-0.682-0.896
					C143.072,227.818,142.986,227.415,142.986,226.975z M143.947,226.992c0,0.601,0.215,1.099,0.646,1.497s0.99,0.596,1.677,0.596
					c0.521,0,1.003-0.1,1.45-0.3c0.445-0.2,0.816-0.489,1.114-0.866v-1.861c-0.292-0.389-0.662-0.682-1.11-0.879
					c-0.449-0.197-0.934-0.296-1.454-0.296c-0.687,0-1.245,0.199-1.677,0.596C144.162,225.875,143.947,226.38,143.947,226.992z"/>
				<path fill="#FFFFFF" d="M152.943,229.59v-11.715h0.908v4.606c0.349-0.492,0.781-0.879,1.295-1.163
					c0.515-0.283,1.066-0.425,1.655-0.425c1.138,0,2.058,0.409,2.761,1.228s1.056,1.897,1.056,3.236
					c0,1.348-0.353,2.426-1.056,3.234c-0.703,0.809-1.623,1.212-2.761,1.212c-0.606,0-1.171-0.146-1.694-0.439
					c-0.522-0.293-0.941-0.667-1.256-1.122v1.347H152.943z M153.852,227.47c0.258,0.418,0.646,0.774,1.166,1.069
					c0.521,0.295,1.064,0.442,1.63,0.442c0.927,0,1.652-0.339,2.179-1.018c0.525-0.678,0.789-1.547,0.789-2.606
					c0-1.064-0.266-1.937-0.794-2.619c-0.528-0.681-1.253-1.021-2.174-1.021c-0.565,0-1.109,0.153-1.63,0.459
					c-0.52,0.306-0.908,0.671-1.166,1.095V227.47z"/>
				<path fill="#FFFFFF" d="M162.848,225.341c0-1.271,0.373-2.329,1.119-3.176c0.746-0.847,1.725-1.271,2.938-1.271
					c0.82,0,1.545,0.199,2.174,0.596c0.629,0.398,1.107,0.932,1.438,1.601c0.33,0.669,0.495,1.419,0.495,2.249
					c0,0.83-0.165,1.582-0.495,2.255c-0.331,0.673-0.81,1.21-1.438,1.609s-1.354,0.599-2.174,0.599c-0.807,0-1.521-0.2-2.145-0.6
					s-1.098-0.937-1.424-1.611S162.848,226.169,162.848,225.341z M164.164,223.568c-0.237,0.541-0.355,1.132-0.355,1.773
					s0.118,1.235,0.355,1.782c0.236,0.547,0.596,0.993,1.076,1.339s1.035,0.52,1.664,0.52c0.64,0,1.2-0.173,1.68-0.52
					c0.48-0.346,0.838-0.791,1.072-1.335s0.352-1.139,0.352-1.786c0-0.641-0.117-1.232-0.352-1.773
					c-0.234-0.541-0.592-0.984-1.072-1.331c-0.479-0.346-1.04-0.52-1.68-0.52c-0.629,0-1.184,0.173-1.664,0.52
					S164.4,223.027,164.164,223.568z"/>
				<path fill="#FFFFFF" d="M173.696,229.59v-8.481h0.909v1.458c0.828-1.092,1.783-1.638,2.863-1.638v1.003
					c-0.102-0.023-0.254-0.034-0.453-0.034c-0.424,0-0.883,0.157-1.377,0.472s-0.84,0.66-1.033,1.038v6.183H173.696z"/>
				<path fill="#FFFFFF" d="M179.158,226.975c0-0.589,0.147-1.102,0.441-1.539c0.295-0.438,0.662-0.759,1.103-0.965
					c0.44-0.206,0.915-0.309,1.424-0.309c1.2,0,2.161,0.403,2.882,1.209v-1.707c0-0.604-0.217-1.079-0.648-1.426
					s-0.973-0.521-1.625-0.521c-0.537,0-1.02,0.099-1.449,0.298c-0.429,0.199-0.834,0.514-1.218,0.945l-0.506-0.63
					c0.446-0.491,0.929-0.853,1.449-1.086c0.521-0.234,1.126-0.351,1.818-0.351c0.915,0,1.657,0.229,2.229,0.686
					s0.857,1.138,0.857,2.041v5.969h-0.908v-1.003c-0.744,0.812-1.704,1.218-2.882,1.218c-0.372,0-0.731-0.063-1.081-0.188
					c-0.349-0.126-0.664-0.305-0.947-0.536s-0.51-0.53-0.682-0.896C179.244,227.818,179.158,227.415,179.158,226.975z
					 M180.119,226.992c0,0.601,0.216,1.099,0.647,1.497s0.99,0.596,1.677,0.596c0.52,0,1.003-0.1,1.449-0.3
					c0.445-0.2,0.817-0.489,1.115-0.866v-1.861c-0.292-0.389-0.662-0.682-1.111-0.879s-0.934-0.296-1.453-0.296
					c-0.687,0-1.245,0.199-1.677,0.596C180.335,225.875,180.119,226.38,180.119,226.992z"/>
				<path fill="#FFFFFF" d="M187.862,221.932v-0.823h1.424v-2.307h0.909v2.307h1.749v0.823h-1.749v5.893
					c0,0.354,0.072,0.635,0.219,0.844c0.146,0.208,0.364,0.312,0.656,0.312c0.389,0,0.705-0.134,0.951-0.402l0.352,0.699
					c-0.371,0.351-0.852,0.526-1.44,0.526c-0.553,0-0.966-0.16-1.237-0.479c-0.273-0.32-0.409-0.773-0.409-1.361v-6.033H187.862z"/>
				<path fill="#FFFFFF" d="M194.256,219.561c-0.141-0.14-0.211-0.305-0.211-0.493c0-0.189,0.07-0.35,0.211-0.485
					c0.14-0.134,0.305-0.201,0.492-0.201c0.195,0,0.361,0.065,0.498,0.197c0.137,0.131,0.206,0.294,0.206,0.489
					s-0.069,0.36-0.206,0.497s-0.303,0.206-0.498,0.206C194.561,219.771,194.396,219.701,194.256,219.561z M194.295,229.59v-8.481
					h0.908v8.481H194.295z"/>
				<path fill="#FFFFFF" d="M197.098,221.109h1.021l3.096,7.41l3.053-7.41h1.037l-3.584,8.481h-1.038L197.098,221.109z"/>
				<path fill="#FFFFFF" d="M206.746,226.975c0-0.589,0.146-1.102,0.441-1.539c0.295-0.438,0.662-0.759,1.102-0.965
					c0.441-0.206,0.915-0.309,1.424-0.309c1.201,0,2.162,0.403,2.882,1.209v-1.707c0-0.604-0.216-1.079-0.647-1.426
					s-0.974-0.521-1.625-0.521c-0.537,0-1.021,0.099-1.449,0.298c-0.43,0.199-0.835,0.514-1.219,0.945l-0.506-0.63
					c0.446-0.491,0.93-0.853,1.449-1.086c0.521-0.234,1.127-0.351,1.818-0.351c0.915,0,1.658,0.229,2.23,0.686
					c0.571,0.458,0.857,1.138,0.857,2.041v5.969h-0.909v-1.003c-0.743,0.812-1.704,1.218-2.882,1.218
					c-0.371,0-0.731-0.063-1.08-0.188c-0.35-0.126-0.665-0.305-0.947-0.536c-0.283-0.231-0.511-0.53-0.682-0.896
					C206.832,227.818,206.746,227.415,206.746,226.975z M207.707,226.992c0,0.601,0.215,1.099,0.646,1.497s0.99,0.596,1.677,0.596
					c0.521,0,1.003-0.1,1.45-0.3c0.445-0.2,0.816-0.489,1.114-0.866v-1.861c-0.292-0.389-0.662-0.682-1.11-0.879
					c-0.449-0.197-0.934-0.296-1.454-0.296c-0.687,0-1.245,0.199-1.677,0.596C207.922,225.875,207.707,226.38,207.707,226.992z"/>
				<path fill="#FFFFFF" d="M221.599,229.59v-8.481h0.909v1.278c0.217-0.332,0.59-0.663,1.119-0.995
					c0.528-0.332,1.07-0.497,1.625-0.497c0.613,0,1.105,0.153,1.477,0.458c0.373,0.306,0.618,0.688,0.737,1.145
					c0.252-0.423,0.643-0.796,1.173-1.119c0.529-0.323,1.077-0.484,1.645-0.484c1.539,0,2.31,0.86,2.31,2.581v6.115h-0.909v-5.935
					c0-1.292-0.567-1.938-1.701-1.938c-0.447,0-0.904,0.142-1.371,0.424c-0.467,0.283-0.82,0.622-1.061,1.016v6.432h-0.91v-5.935
					c0-1.292-0.562-1.938-1.689-1.938c-0.439,0-0.892,0.143-1.354,0.429c-0.464,0.286-0.826,0.629-1.089,1.029v6.415H221.599z"/>
				<path fill="#FFFFFF" d="M235.346,226.975c0-0.589,0.146-1.102,0.441-1.539c0.295-0.438,0.662-0.759,1.102-0.965
					c0.441-0.206,0.915-0.309,1.424-0.309c1.201,0,2.162,0.403,2.882,1.209v-1.707c0-0.604-0.216-1.079-0.647-1.426
					s-0.974-0.521-1.625-0.521c-0.537,0-1.021,0.099-1.449,0.298c-0.43,0.199-0.835,0.514-1.219,0.945l-0.506-0.63
					c0.446-0.491,0.93-0.853,1.449-1.086c0.521-0.234,1.127-0.351,1.818-0.351c0.915,0,1.658,0.229,2.23,0.686
					c0.571,0.458,0.857,1.138,0.857,2.041v5.969h-0.909v-1.003c-0.743,0.812-1.704,1.218-2.882,1.218
					c-0.371,0-0.731-0.063-1.08-0.188c-0.35-0.126-0.665-0.305-0.947-0.536c-0.283-0.231-0.511-0.53-0.682-0.896
					C235.432,227.818,235.346,227.415,235.346,226.975z M236.307,226.992c0,0.601,0.215,1.099,0.646,1.497s0.99,0.596,1.677,0.596
					c0.521,0,1.003-0.1,1.45-0.3c0.445-0.2,0.816-0.489,1.114-0.866v-1.861c-0.292-0.389-0.662-0.682-1.11-0.879
					c-0.449-0.197-0.934-0.296-1.454-0.296c-0.687,0-1.245,0.199-1.677,0.596C236.521,225.875,236.307,226.38,236.307,226.992z
					 M237.961,219.822l2.701-2.53h1.09l-3.02,2.53H237.961z"/>
				<path fill="#FFFFFF" d="M244.561,228.45l0.541-0.668c0.285,0.36,0.671,0.657,1.156,0.891c0.486,0.234,1.015,0.351,1.586,0.351
					c0.699,0,1.252-0.16,1.658-0.48c0.407-0.32,0.611-0.732,0.611-1.236c0-0.309-0.1-0.572-0.297-0.789s-0.457-0.375-0.779-0.471
					s-0.672-0.201-1.047-0.313s-0.752-0.225-1.133-0.339c-0.38-0.114-0.727-0.249-1.041-0.406s-0.57-0.382-0.768-0.675
					s-0.297-0.645-0.297-1.056c0-0.676,0.273-1.24,0.818-1.689c0.545-0.45,1.28-0.675,2.205-0.675c1.283,0,2.301,0.42,3.054,1.26
					l-0.516,0.643c-0.253-0.342-0.601-0.615-1.046-0.818c-0.443-0.203-0.941-0.304-1.492-0.304c-0.647,0-1.162,0.148-1.543,0.443
					c-0.381,0.296-0.57,0.673-0.57,1.131c0,0.29,0.098,0.533,0.294,0.73s0.453,0.343,0.771,0.436
					c0.317,0.094,0.662,0.195,1.032,0.304c0.371,0.109,0.748,0.22,1.132,0.333s0.735,0.253,1.052,0.422
					c0.317,0.168,0.576,0.409,0.777,0.72c0.2,0.312,0.301,0.684,0.301,1.117c0,0.726-0.276,1.323-0.828,1.791
					c-0.553,0.468-1.342,0.703-2.366,0.703C246.443,229.805,245.355,229.354,244.561,228.45z"/>
				<path fill="#FFFFFF" d="M51.775,245.242c0-1.338,0.347-2.413,1.041-3.225c0.695-0.812,1.605-1.218,2.731-1.218
					c0.595,0,1.147,0.14,1.659,0.42c0.512,0.28,0.942,0.669,1.291,1.167v-1.372h0.909v8.413c0,0.624-0.1,1.167-0.298,1.63
					c-0.199,0.463-0.478,0.829-0.835,1.098c-0.358,0.269-0.757,0.466-1.196,0.592c-0.441,0.125-0.928,0.188-1.461,0.188
					c-0.756,0-1.381-0.09-1.879-0.27c-0.497-0.18-0.988-0.516-1.475-1.008l0.523-0.737c0.365,0.434,0.766,0.742,1.2,0.922
					c0.435,0.18,0.978,0.27,1.63,0.27c0.531,0,1.008-0.087,1.428-0.262s0.768-0.469,1.041-0.883c0.275-0.415,0.412-0.928,0.412-1.54
					v-1.355c-0.32,0.463-0.742,0.845-1.265,1.145c-0.523,0.3-1.085,0.45-1.686,0.45c-1.132,0-2.044-0.4-2.735-1.201
					C52.121,247.666,51.775,246.591,51.775,245.242z M53.533,242.639c-0.532,0.678-0.798,1.545-0.798,2.603
					c0,1.058,0.265,1.922,0.793,2.594c0.528,0.672,1.253,1.008,2.175,1.008c0.565,0,1.108-0.15,1.629-0.45
					c0.52-0.3,0.908-0.665,1.166-1.093v-4.125c-0.258-0.429-0.646-0.795-1.166-1.098c-0.521-0.303-1.063-0.455-1.629-0.455
					C54.787,241.623,54.064,241.962,53.533,242.639z"/>
				<path fill="#FFFFFF" d="M62.605,249.496v-8.481h0.908v1.458c0.83-1.092,1.784-1.638,2.865-1.638v1.003
					c-0.104-0.023-0.255-0.034-0.455-0.034c-0.423,0-0.882,0.157-1.376,0.472c-0.495,0.314-0.839,0.66-1.034,1.038v6.183H62.605z"/>
				<path fill="#FFFFFF" d="M68.068,246.88c0-0.589,0.146-1.102,0.441-1.539c0.295-0.438,0.662-0.759,1.102-0.965
					c0.441-0.206,0.915-0.309,1.424-0.309c1.201,0,2.162,0.403,2.882,1.209v-1.707c0-0.604-0.216-1.079-0.647-1.426
					s-0.974-0.521-1.625-0.521c-0.537,0-1.021,0.099-1.449,0.298c-0.43,0.199-0.835,0.514-1.219,0.945l-0.506-0.63
					c0.446-0.491,0.93-0.853,1.449-1.086c0.521-0.234,1.127-0.351,1.818-0.351c0.915,0,1.658,0.229,2.23,0.686
					c0.571,0.458,0.857,1.138,0.857,2.041v5.969h-0.909v-1.003c-0.743,0.812-1.704,1.218-2.882,1.218
					c-0.371,0-0.731-0.063-1.08-0.188c-0.35-0.126-0.665-0.305-0.947-0.536c-0.283-0.231-0.511-0.53-0.682-0.896
					C68.154,247.723,68.068,247.32,68.068,246.88z M69.029,246.897c0,0.601,0.215,1.099,0.646,1.497s0.99,0.596,1.677,0.596
					c0.521,0,1.003-0.1,1.45-0.3c0.445-0.2,0.816-0.489,1.114-0.866v-1.861c-0.292-0.389-0.662-0.682-1.11-0.879
					c-0.449-0.197-0.934-0.296-1.454-0.296c-0.687,0-1.245,0.199-1.677,0.596C69.244,245.781,69.029,246.286,69.029,246.897z"/>
				<path fill="#FFFFFF" d="M78.024,249.496v-8.481h0.909v1.278c0.337-0.4,0.787-0.749,1.35-1.046
					c0.564-0.297,1.135-0.446,1.711-0.446c1.779,0,2.668,0.92,2.668,2.761v5.935h-0.909v-5.746c0-0.772-0.177-1.319-0.532-1.643
					c-0.354-0.323-0.863-0.484-1.525-0.484c-0.527,0-1.049,0.143-1.566,0.429c-0.518,0.286-0.916,0.629-1.195,1.029v6.415H78.024z"
					/>
				<path fill="#FFFFFF" d="M87.381,245.263c0-1.339,0.348-2.417,1.041-3.236c0.695-0.818,1.605-1.228,2.732-1.228
					c0.594,0,1.15,0.142,1.668,0.425s0.944,0.67,1.281,1.163v-4.606h0.91v11.715h-0.91v-1.347c-0.314,0.455-0.732,0.829-1.256,1.122
					s-1.088,0.439-1.693,0.439c-1.133,0-2.045-0.404-2.736-1.212C87.727,247.689,87.381,246.611,87.381,245.263z M89.139,242.649
					c-0.531,0.684-0.797,1.556-0.797,2.614c0,1.059,0.266,1.928,0.797,2.606s1.255,1.018,2.17,1.018
					c0.577,0,1.123-0.146,1.638-0.438s0.9-0.649,1.157-1.073v-4.198c-0.257-0.435-0.645-0.803-1.162-1.104
					c-0.517-0.3-1.062-0.451-1.633-0.451C90.394,241.623,89.67,241.965,89.139,242.649z"/>
				<path fill="#FFFFFF" d="M97.758,245.242c0-0.812,0.173-1.557,0.521-2.234c0.348-0.677,0.833-1.215,1.458-1.612
					c0.624-0.397,1.318-0.596,2.082-0.596c0.83,0,1.551,0.206,2.162,0.617s1.067,0.954,1.369,1.625
					c0.301,0.672,0.451,1.425,0.451,2.26v0.24h-7.083c0.046,0.96,0.369,1.764,0.97,2.414c0.602,0.649,1.386,0.974,2.354,0.974
					c1.122,0,2.05-0.394,2.782-1.181l0.461,0.604c-0.878,0.905-1.982,1.358-3.312,1.358c-1.237,0-2.249-0.417-3.035-1.252
					C98.15,247.623,97.758,246.551,97.758,245.242z M98.718,244.822h6.175c-0.006-0.378-0.072-0.752-0.197-1.122
					c-0.127-0.37-0.311-0.715-0.551-1.036s-0.563-0.582-0.97-0.783c-0.407-0.2-0.864-0.301-1.374-0.301
					c-0.481,0-0.919,0.099-1.314,0.297c-0.395,0.198-0.714,0.456-0.957,0.774c-0.244,0.318-0.436,0.664-0.576,1.036
					C98.813,244.06,98.734,244.438,98.718,244.822z"/>
				<path fill="#FFFFFF" d="M112.962,245.263c0-1.339,0.347-2.417,1.042-3.236c0.694-0.818,1.605-1.228,2.73-1.228
					c0.596,0,1.151,0.142,1.669,0.425c0.517,0.283,0.944,0.67,1.282,1.163v-4.606h0.908v11.715h-0.908v-1.347
					c-0.314,0.455-0.733,0.829-1.257,1.122c-0.522,0.293-1.088,0.439-1.694,0.439c-1.131,0-2.043-0.404-2.734-1.212
					C113.308,247.689,112.962,246.611,112.962,245.263z M114.72,242.649c-0.532,0.684-0.798,1.556-0.798,2.614
					c0,1.059,0.266,1.928,0.798,2.606s1.255,1.018,2.17,1.018c0.577,0,1.123-0.146,1.638-0.438s0.9-0.649,1.158-1.073v-4.198
					c-0.258-0.435-0.645-0.803-1.162-1.104c-0.518-0.3-1.062-0.451-1.634-0.451C115.975,241.623,115.252,241.965,114.72,242.649z"/>
				<path fill="#FFFFFF" d="M123.338,245.242c0-0.812,0.174-1.557,0.521-2.234c0.348-0.677,0.834-1.215,1.458-1.612
					c0.624-0.397,1.317-0.596,2.081-0.596c0.83,0,1.551,0.206,2.162,0.617s1.068,0.954,1.369,1.625
					c0.302,0.672,0.453,1.425,0.453,2.26v0.24h-7.084c0.045,0.96,0.369,1.764,0.971,2.414c0.601,0.649,1.385,0.974,2.353,0.974
					c1.122,0,2.05-0.394,2.782-1.181l0.461,0.604c-0.879,0.905-1.982,1.358-3.312,1.358c-1.236,0-2.248-0.417-3.035-1.252
					C123.731,247.623,123.338,246.551,123.338,245.242z M124.299,244.822h6.174c-0.006-0.378-0.07-0.752-0.197-1.122
					c-0.125-0.37-0.309-0.715-0.549-1.036s-0.564-0.582-0.971-0.783c-0.406-0.2-0.865-0.301-1.374-0.301
					c-0.481,0-0.919,0.099-1.313,0.297c-0.396,0.198-0.715,0.456-0.958,0.774c-0.243,0.318-0.435,0.664-0.575,1.036
					S124.316,244.438,124.299,244.822z"/>
				<path fill="#FFFFFF" d="M139.049,245.002v-7.221h1.004v7.209c0,1.196,0.306,2.13,0.918,2.802
					c0.613,0.672,1.488,1.008,2.627,1.008c1.14,0,2.017-0.336,2.633-1.008c0.615-0.672,0.922-1.606,0.922-2.802v-7.209h1.004v7.221
					c0,1.475-0.389,2.628-1.168,3.46c-0.777,0.832-1.908,1.248-3.391,1.248c-1.471,0-2.596-0.417-3.377-1.252
					S139.049,246.471,139.049,245.002z"/>
				<path fill="#FFFFFF" d="M151.406,249.496v-8.481h0.908v1.458c0.83-1.092,1.784-1.638,2.865-1.638v1.003
					c-0.104-0.023-0.255-0.034-0.455-0.034c-0.423,0-0.882,0.157-1.376,0.472c-0.495,0.314-0.839,0.66-1.034,1.038v6.183H151.406z"
					/>
				<path fill="#FFFFFF" d="M157.324,246.983v-5.969h0.908v5.769c0,0.778,0.176,1.324,0.527,1.636s0.862,0.468,1.531,0.468
					c0.525,0,1.043-0.136,1.552-0.408s0.912-0.605,1.21-1v-6.465h0.908v8.481h-0.908v-1.236c-0.372,0.416-0.831,0.761-1.377,1.037
					s-1.107,0.414-1.686,0.414c-0.881,0-1.545-0.22-1.994-0.66C157.548,248.609,157.324,247.92,157.324,246.983z"/>
				<path fill="#FFFFFF" d="M166.68,245.242c0-1.338,0.348-2.413,1.041-3.225c0.695-0.812,1.605-1.218,2.732-1.218
					c0.594,0,1.147,0.14,1.659,0.42c0.512,0.28,0.942,0.669,1.29,1.167v-1.372h0.91v8.413c0,0.624-0.1,1.167-0.299,1.63
					c-0.199,0.463-0.477,0.829-0.834,1.098c-0.358,0.269-0.758,0.466-1.197,0.592c-0.44,0.125-0.928,0.188-1.461,0.188
					c-0.755,0-1.381-0.09-1.878-0.27s-0.989-0.516-1.476-1.008l0.523-0.737c0.365,0.434,0.766,0.742,1.201,0.922
					c0.434,0.18,0.977,0.27,1.629,0.27c0.531,0,1.008-0.087,1.428-0.262s0.768-0.469,1.042-0.883s0.411-0.928,0.411-1.54v-1.355
					c-0.32,0.463-0.741,0.845-1.264,1.145c-0.523,0.3-1.086,0.45-1.686,0.45c-1.133,0-2.045-0.4-2.736-1.201
					C167.025,247.666,166.68,246.591,166.68,245.242z M168.438,242.639c-0.531,0.678-0.797,1.545-0.797,2.603
					c0,1.058,0.264,1.922,0.793,2.594c0.528,0.672,1.253,1.008,2.174,1.008c0.566,0,1.109-0.15,1.629-0.45
					c0.521-0.3,0.909-0.665,1.166-1.093v-4.125c-0.257-0.429-0.646-0.795-1.166-1.098c-0.52-0.303-1.062-0.455-1.629-0.455
					C169.692,241.623,168.969,241.962,168.438,242.639z"/>
				<path fill="#FFFFFF" d="M177.511,246.983v-5.969h0.909v5.769c0,0.778,0.176,1.324,0.527,1.636s0.861,0.468,1.53,0.468
					c0.526,0,1.044-0.136,1.552-0.408c0.51-0.272,0.912-0.605,1.21-1v-6.465h0.909v8.481h-0.909v-1.236
					c-0.372,0.416-0.831,0.761-1.376,1.037c-0.547,0.276-1.108,0.414-1.686,0.414c-0.881,0-1.545-0.22-1.994-0.66
					C177.734,248.609,177.511,247.92,177.511,246.983z"/>
				<path fill="#FFFFFF" d="M186.884,246.88c0-0.589,0.147-1.102,0.441-1.539c0.294-0.438,0.661-0.759,1.103-0.965
					c0.439-0.206,0.914-0.309,1.424-0.309c1.199,0,2.16,0.403,2.881,1.209v-1.707c0-0.604-0.216-1.079-0.647-1.426
					s-0.974-0.521-1.625-0.521c-0.538,0-1.021,0.099-1.45,0.298c-0.428,0.199-0.834,0.514-1.217,0.945l-0.506-0.63
					c0.445-0.491,0.929-0.853,1.449-1.086c0.52-0.234,1.126-0.351,1.818-0.351c0.914,0,1.657,0.229,2.229,0.686
					c0.572,0.458,0.858,1.138,0.858,2.041v5.969h-0.909v-1.003c-0.743,0.812-1.703,1.218-2.881,1.218
					c-0.373,0-0.732-0.063-1.081-0.188c-0.349-0.126-0.665-0.305-0.948-0.536s-0.51-0.53-0.682-0.896
					C186.969,247.723,186.884,247.32,186.884,246.88z M187.844,246.897c0,0.601,0.217,1.099,0.648,1.497s0.99,0.596,1.676,0.596
					c0.521,0,1.004-0.1,1.449-0.3c0.446-0.2,0.818-0.489,1.115-0.866v-1.861c-0.291-0.389-0.662-0.682-1.111-0.879
					c-0.448-0.197-0.933-0.296-1.453-0.296c-0.686,0-1.244,0.199-1.676,0.596C188.061,245.781,187.844,246.286,187.844,246.897z"/>
				<path fill="#FFFFFF" d="M195.536,241.014h1.021l3.096,7.41l3.053-7.41h1.038l-4.391,10.342
					c-0.446,1.052-1.167,1.578-2.161,1.578c-0.344,0-0.648-0.04-0.918-0.12l0.163-0.84c0.212,0.091,0.458,0.137,0.737,0.137
					c0.297,0,0.545-0.076,0.742-0.228c0.197-0.151,0.381-0.421,0.553-0.81l0.67-1.509L195.536,241.014z"/>
			</g>
		</g>
	</g>
</g>
<g id="Capa_4">
</g>
<g id="Capa_6" display="none">
</g>
<g id="_x31_" display="none">
</g>
<g id="pop_up_FB" display="none">
</g>
<g id="_x32_" display="none">
</g>
<g id="_x33_" display="none">
</g>
<g id="_x33__ok" display="none">
</g>
<g id="DENEGADA" display="none">
</g>
<g id="Lista_de_espera" display="none">
</g>
</svg>
