<?xml version="1.0" encoding="utf-8"?>
<!-- Generator: Adobe Illustrator 16.0.0, SVG Export Plug-In . SVG Version: 6.00 Build 0)  -->
<!DOCTYPE svg PUBLIC "-//W3C//DTD SVG 1.1//EN" "http://www.w3.org/Graphics/SVG/1.1/DTD/svg11.dtd">
<svg version="1.1" id="Layer_1" xmlns="http://www.w3.org/2000/svg" xmlns:xlink="http://www.w3.org/1999/xlink" x="0px" y="0px"
	 width="255px" height="207.334px" viewBox="0 0 255 207.334" enable-background="new 0 0 255 207.334" xml:space="preserve">
<g id="Capa_3">
</g>
<g id="Capa_1">
	<g>
		<g>
			<g>
				<g>
					<g>
						<g>
							<g>
								<rect x="102.03" y="62.259" fill="#FFFFE1" width="50.629" height="39.675"/>
								<path fill="#1E2125" d="M152.659,103.941H102.03l-2.008-2.008V62.259l2.008-2.007h50.629l2.008,2.007v39.675
									L152.659,103.941z M104.039,99.925h46.611V64.268h-46.611V99.925z"/>
							</g>
							<g>
								<rect x="98.957" y="61.308" fill="#FFFFE1" width="56.779" height="10.431"/>
								<path fill="#1E2125" d="M155.736,73.746H98.957l-2.007-2.008v-10.43l2.007-2.007h56.779l2.008,2.007v10.431L155.736,73.746z
									 M100.968,69.73h52.755v-6.413h-52.755V69.73z"/>
							</g>
							<g>
								<rect x="122.663" y="61.308" fill="#FFFFE1" width="9.364" height="40.626"/>
								<path fill="#1E2125" d="M132.027,103.941h-9.364l-2.006-2.008V61.308l2.006-2.007h9.364l2.007,2.007v40.626L132.027,103.941
									z M124.671,99.925h5.349V63.317h-5.349V99.925z"/>
							</g>
							<g>
								<path fill="#FFFFE1" d="M126.478,59.661c0,0-8.785,0.017-12.619,0.017c-3.83,0-6.938-3.105-6.938-6.939
									c0-3.832,3.108-6.94,6.938-6.94C121.372,45.799,126.478,59.661,126.478,59.661z"/>
								<path fill="#1E2125" d="M113.858,61.686c-4.934,0-8.947-4.011-8.947-8.946c0-4.934,4.014-8.947,8.947-8.947
									c8.666,0,13.93,13.623,14.5,15.178l-1.878,2.699C126.479,61.669,117.692,61.686,113.858,61.686z M113.858,47.808
									c-2.717,0-4.93,2.213-4.93,4.931c0,2.719,2.213,4.933,4.93,4.933c2.375,0,6.654-0.006,9.562-0.013
									C121.465,53.618,117.796,47.808,113.858,47.808z"/>
							</g>
							<g>
								<path fill="#FFFFE1" d="M127.895,59.661c0,0,8.785,0.017,12.617,0.017c3.834,0,6.938-3.105,6.938-6.939
									c0-3.832-3.104-6.94-6.938-6.94C132.993,45.799,127.895,59.661,127.895,59.661z"/>
								<path fill="#1E2125" d="M140.512,61.686c-3.832,0-12.624-0.017-12.624-0.017l-1.879-2.699
									c0.57-1.555,5.839-15.178,14.503-15.178c4.932,0,8.948,4.014,8.948,8.947C149.46,57.674,145.443,61.686,140.512,61.686z
									 M130.943,57.659c2.908,0.007,7.188,0.013,9.566,0.013c2.719,0,4.934-2.213,4.934-4.933c0-2.718-2.215-4.931-4.934-4.931
									C136.566,47.808,132.896,53.618,130.943,57.659z"/>
							</g>
							<g>
								<g>
									<path fill="#FFFFE1" d="M38.044,31.061c0,27.96,25.74,38.903,25.74,38.903S89.53,59.021,89.53,31.061
										c0-14.219-11.528-25.741-25.746-25.741C49.565,5.32,38.044,16.842,38.044,31.061z"/>
									<path fill="#1E2125" d="M64.612,71.914h-1.657c-0.271-0.115-27.028-11.828-27.028-40.853
										c0-15.361,12.496-27.859,27.857-27.859c15.363,0,27.863,12.498,27.863,27.859C91.647,60.086,64.884,71.798,64.612,71.914z
										 M63.784,7.437c-13.027,0-23.625,10.597-23.625,23.624c0,23.734,19.279,34.456,23.625,36.572
										c4.35-2.116,23.627-12.838,23.627-36.572C87.411,18.034,76.813,7.437,63.784,7.437z"/>
								</g>
								<g>
									<path fill="#96F8A7" d="M93.712,33.223c-3.817,1.16-7.971,1.665-12.283,1.365C65.971,33.501,53.925,22.459,52.876,9.176
										c4.541-2.635,9.896-3.984,15.535-3.59C82.927,6.604,93.983,18.835,93.712,33.223z"/>
									<path fill="#1E2125" d="M83.868,36.79c-0.859,0-1.729-0.03-2.586-0.09c-16.26-1.143-29.378-12.904-30.52-27.357
										l1.051-1.998c5.045-2.927,10.898-4.283,16.744-3.874C84.143,4.566,96.123,17.651,95.83,33.26l-1.503,1.989
										C90.968,36.271,87.446,36.79,83.868,36.79z M55.135,10.356c1.664,11.76,12.778,21.16,26.442,22.12
										c3.391,0.234,6.779-0.057,9.998-0.858C91.032,18.964,81.073,8.597,68.261,7.696C63.722,7.387,59.163,8.305,55.135,10.356z"
										/>
								</g>
								<g>
									<path fill="#96F8A7" d="M50.832,8.818c1.095,2.855,1.704,5.988,1.704,9.277c0,9.972-5.568,18.522-13.498,22.156
										c-0.633-2.833-0.994-5.891-0.994-9.19C38.044,21.566,43.187,13.281,50.832,8.818z"/>
									<path fill="#1E2125" d="M39.917,42.178l-2.947-1.464c-0.695-3.104-1.043-6.352-1.043-9.653
										c0-9.866,5.299-19.09,13.836-24.071l3.045,1.069c1.226,3.187,1.846,6.563,1.846,10.037
										C54.653,28.624,48.87,38.075,39.917,42.178z M49.668,12.126c-5.92,4.429-9.509,11.465-9.509,18.934
										c0,2.01,0.146,3.995,0.427,5.932c6.05-3.896,9.831-11.029,9.831-18.897C50.417,16.055,50.163,14.056,49.668,12.126z"/>
								</g>
								<g>
									<path fill="#96F8A7" d="M32.915,60.186c6.756-6.761,6.449-18.645,6.449-18.645s-12.139-0.561-18.898,6.196
										c-3.438,3.439-3.438,9.009,0,12.448C23.902,63.621,29.472,63.621,32.915,60.186z"/>
									<path fill="#1E2125" d="M26.69,64.881c-2.918,0-5.659-1.137-7.72-3.198c-2.062-2.063-3.199-4.806-3.199-7.721
										c0-2.917,1.138-5.659,3.199-7.723c6.335-6.335,16.683-6.829,19.703-6.829c0.505,0,0.788,0.013,0.788,0.013l2.016,2.062
										c0.014,0.522,0.248,12.875-7.066,20.197C32.345,63.745,29.606,64.881,26.69,64.881z M37.163,43.692
										c-3.402,0.184-10.766,1.112-15.196,5.543c-1.267,1.264-1.96,2.943-1.96,4.728c0,1.783,0.693,3.463,1.96,4.725
										c1.261,1.262,2.938,1.956,4.724,1.956s3.463-0.694,4.725-1.956C35.831,54.271,36.906,47.192,37.163,43.692z"/>
								</g>
								<g>
									<g>
										<path fill="#FFFFE1" d="M82.337,114.707c0,8.846,7.172,16.02,16.015,16.02c8.85,0,16.017-7.173,16.017-16.02H82.337z"/>
										<path fill="#1E2125" d="M98.352,132.844c-9.997,0-18.135-8.136-18.135-18.137l2.12-2.119h32.031l2.121,2.119
											C116.489,124.708,108.349,132.844,98.352,132.844z M84.612,116.824c1.026,6.663,6.797,11.783,13.739,11.783
											c6.947,0,12.717-5.122,13.741-11.783H84.612z"/>
									</g>
									<path fill="#96F8A7" d="M95.409,108.99h-9.794V95.896L63.778,71.458c-12.477,0-22.595,10.113-22.595,22.59v3.675v3.422
										v0.836c0,18.961,15.432,31.464,34.394,31.464H96.55L95.409,108.99z"/>
								</g>
								<path fill="#1E2125" d="M70.191,59.423c-5.601,0-10.55-3.571-12.315-8.885c-0.369-1.109,0.229-2.311,1.34-2.679
									c1.108-0.37,2.309,0.232,2.679,1.34c1.192,3.582,4.524,5.988,8.297,5.988c1.169,0,2.113,0.949,2.113,2.118
									C72.305,58.475,71.36,59.423,70.191,59.423z"/>
							</g>
							<g>
								<g>
									<path fill="#FFFFE1" d="M172.613,114.707c0,8.846-7.168,16.02-16.012,16.02c-8.848,0-16.021-7.173-16.021-16.02H172.613z"
										/>
									<path fill="#1E2125" d="M156.604,132.844c-10.004,0-18.14-8.136-18.14-18.137l2.118-2.119h32.031l2.121,2.119
										C174.734,124.708,166.604,132.844,156.604,132.844z M142.863,116.824c1.019,6.663,6.791,11.783,13.738,11.783
										c6.939,0,12.715-5.122,13.734-11.783H142.863z"/>
								</g>
								<path fill="#96F8A7" d="M191.178,71.458l-21.839,24.437v13.095h-9.793l-1.14,24.456h20.97
									c18.965,0,34.394-15.423,34.394-34.388v-0.108v-1.225v-3.675C213.77,81.571,203.654,71.458,191.178,71.458z"/>
								<g>
									<path fill="#FFFFE1" d="M216.919,31.061c0,27.96-25.741,38.903-25.741,38.903s-25.742-10.943-25.742-38.903
										c0-14.219,11.524-25.741,25.742-25.741C205.395,5.32,216.919,16.842,216.919,31.061z"/>
									<path fill="#1E2125" d="M190.348,71.914c-0.271-0.115-27.031-11.828-27.031-40.853c0-15.361,12.498-27.859,27.861-27.859
										c15.366,0,27.86,12.498,27.86,27.859c0,29.025-26.763,40.738-27.035,40.853H190.348z M191.178,7.437
										c-13.027,0-23.632,10.597-23.632,23.624c0,23.734,19.282,34.456,23.632,36.572c4.346-2.116,23.627-12.838,23.627-36.572
										C214.805,18.034,204.205,7.437,191.178,7.437z"/>
								</g>
								<path fill="#1E2125" d="M185.081,59.423c-1.168,0-2.119-0.949-2.119-2.117c0-1.169,0.951-2.118,2.119-2.118
									c3.771,0,7.106-2.407,8.299-5.988c0.373-1.108,1.57-1.709,2.681-1.338c1.11,0.369,1.713,1.568,1.342,2.678
									C195.625,55.854,190.675,59.423,185.081,59.423z"/>
								<g>
									<path fill="#96F8A7" d="M204.13,8.818c-1.098,2.855-1.7,5.988-1.7,9.277c0,9.972,5.566,18.522,13.498,22.156
										c0.633-2.833,0.991-5.891,0.991-9.19C216.919,21.566,211.773,13.281,204.13,8.818z"/>
									<path fill="#1E2125" d="M215.042,42.178c-8.951-4.103-14.733-13.556-14.733-24.083c0-3.473,0.621-6.85,1.848-10.037
										l3.039-1.069c8.543,4.984,13.844,14.208,13.844,24.071c0,3.297-0.354,6.544-1.043,9.653L215.042,42.178z M205.297,12.126
										c-0.5,1.929-0.753,3.928-0.753,5.969c0,7.868,3.784,15.001,9.828,18.899c0.287-1.939,0.433-3.925,0.433-5.934
										C214.805,23.592,211.214,16.556,205.297,12.126z"/>
								</g>
								<g>
									<g>
										<g>
											<g>
												<g>
													<path fill="none" d="M238.913,60.186"/>
												</g>
											</g>
										</g>
									</g>
								</g>
								<g>
									<path fill="#96F8A7" d="M160.316,30.677c3.826,1.462,8.049,2.281,12.486,2.281c15.912,0,29.045-10.444,31.08-23.979
										c-4.468-3.025-9.857-4.795-15.662-4.795C173.275,4.183,161.072,15.921,160.316,30.677z"/>
									<path fill="#1E2125" d="M172.805,35.075c-4.589,0-9.046-0.814-13.244-2.42l-1.357-2.087
										c0.818-15.981,14.008-28.501,30.02-28.501c6.039,0,11.865,1.784,16.848,5.16l0.908,2.069
										C203.766,23.993,189.509,35.075,172.805,35.075z M162.559,29.226c3.272,1.072,6.715,1.613,10.246,1.613
										c14.104,0,26.198-8.869,28.741-20.841c-4.012-2.422-8.594-3.695-13.323-3.695C174.988,6.303,164.007,16.25,162.559,29.226z
										"/>
								</g>
							</g>
							<path fill="#1E2125" d="M87.729,108.519h-4.234V96.704L62.849,73.598c-10.858,0.486-19.544,9.474-19.544,20.451v7.097H39.07
								v-7.097c0-13.623,11.084-24.709,24.709-24.709l1.576,0.708l21.838,24.438l0.537,1.41L87.729,108.519L87.729,108.519z"/>
							<path fill="#1E2125" d="M96.55,135.564H75.577c-21.156,0-36.508-14.125-36.508-33.583v-4.258h4.235v4.258
								c0,17.004,13.571,29.346,32.272,29.346h18.751l-0.944-20.22H75.577c-9.959,0-12.05-4.963-12.05-9.126v-7.241h4.238v7.241
								c0,1.585,0,4.889,7.812,4.889h19.832l2.117,2.019l1.139,24.456L96.55,135.564z"/>
							<path fill="#1E2125" d="M171.458,109.341h-4.237V95.896l0.541-1.41l21.834-24.438l1.581-0.708
								c13.625,0,24.71,11.086,24.71,24.709v4.9h-4.238v-4.9c0-10.977-8.685-19.965-19.543-20.451l-20.646,23.105L171.458,109.341
								L171.458,109.341z"/>
							<path fill="#1E2125" d="M179.376,135.564h-20.97l-2.117-2.219l1.143-24.456l2.114-2.019h19.83
								c4.312,0,7.813-3.504,7.813-7.813v-4.316h4.238v4.316c0,6.645-5.404,12.05-12.053,12.05H161.57l-0.945,20.22h18.751
								c17.802,0,32.272-14.477,32.272-32.27v-1.333h4.236v1.333C215.887,119.187,199.512,135.564,179.376,135.564z"/>
						</g>
					</g>
				</g>
			</g>
		</g>
		<g>
			<g>
				<path fill="#1E2125" d="M36.967,170.074l1.859-2.553c0.701,0.758,1.559,1.386,2.57,1.879c1.011,0.494,2.123,0.742,3.336,0.742
					c1.248,0,2.18-0.254,2.795-0.763c0.615-0.508,0.924-1.118,0.924-1.833c0-0.421-0.123-0.787-0.369-1.099s-0.58-0.565-0.998-0.763
					c-0.42-0.197-0.902-0.373-1.449-0.527c-0.547-0.156-1.121-0.309-1.723-0.46s-1.201-0.315-1.799-0.494
					c-0.597-0.179-1.168-0.405-1.715-0.681c-0.547-0.273-1.031-0.596-1.449-0.967c-0.42-0.371-0.752-0.845-0.998-1.42
					c-0.246-0.578-0.369-1.232-0.369-1.964c0-1.571,0.629-2.878,1.887-3.918c1.258-1.04,2.898-1.562,4.922-1.562
					c2.861,0,5.186,0.873,6.973,2.615l-1.846,2.439c-0.721-0.723-1.553-1.266-2.496-1.627s-1.92-0.542-2.932-0.542
					c-0.949,0-1.709,0.217-2.283,0.651c-0.574,0.436-0.861,0.996-0.861,1.682c0,0.375,0.123,0.703,0.369,0.982
					c0.246,0.278,0.578,0.508,0.998,0.686c0.418,0.18,0.902,0.346,1.449,0.501c0.547,0.155,1.118,0.312,1.715,0.467
					c0.598,0.156,1.197,0.325,1.799,0.509c0.602,0.182,1.176,0.42,1.723,0.713s1.029,0.631,1.449,1.017
					c0.418,0.384,0.752,0.872,0.998,1.462c0.246,0.59,0.369,1.256,0.369,1.997c0,0.627-0.09,1.224-0.268,1.786
					c-0.178,0.562-0.457,1.091-0.84,1.582c-0.383,0.49-0.854,0.912-1.408,1.268c-0.557,0.354-1.238,0.635-2.045,0.838
					c-0.807,0.204-1.697,0.307-2.672,0.307C41.428,173.027,38.889,172.042,36.967,170.074z"/>
				<path fill="#1E2125" d="M55.074,172.686v-18.677h3.281v18.677H55.074z"/>
				<path fill="#1E2125" d="M69.881,172.686v-18.677h3.281V169.8h8.23v2.886H69.881z"/>
				<path fill="#1E2125" d="M84.947,168.338c-0.807-1.47-1.211-3.129-1.211-4.979c0-1.848,0.404-3.506,1.211-4.977
					c0.807-1.47,1.936-2.619,3.391-3.447c1.453-0.828,3.101-1.242,4.941-1.242c1.377,0,2.657,0.244,3.842,0.73
					c1.186,0.487,2.197,1.156,3.035,2.008c0.839,0.852,1.495,1.873,1.969,3.066c0.475,1.193,0.711,2.48,0.711,3.861
					c0,1.383-0.236,2.67-0.711,3.863c-0.474,1.192-1.13,2.215-1.969,3.065c-0.838,0.851-1.85,1.521-3.035,2.007
					s-2.465,0.73-3.842,0.73c-1.841,0-3.488-0.414-4.941-1.242C86.883,170.957,85.754,169.809,84.947,168.338z M87.1,163.361
					c0,1.957,0.565,3.578,1.695,4.859c1.131,1.28,2.625,1.922,4.484,1.922c1.851,0,3.346-0.642,4.484-1.922
					c1.14-1.281,1.709-2.902,1.709-4.859c0-1.967-0.569-3.59-1.709-4.866c-1.139-1.276-2.634-1.915-4.484-1.915
					c-1.859,0-3.354,0.636-4.484,1.908C87.665,159.76,87.1,161.384,87.1,163.361z"/>
				<path fill="#1E2125" d="M111.805,154.009h3.719l5.66,15.095l5.66-15.095h3.718l-7.328,18.677h-4.088L111.805,154.009z"/>
				<path fill="#1E2125" d="M132.852,172.686v-18.677h12.797v2.886h-9.516v4.812h9.324v2.885h-9.324v5.209h9.516v2.886H132.852z"/>
				<path fill="#1E2125" d="M149.279,172.686v-18.677h3.363l9.557,12.935v-12.935h3.281v18.677h-3.172l-9.748-13.357v13.357H149.279
					z"/>
				<path fill="#1E2125" d="M169.328,152.3l3.91-4.032h2.803l-4.621,4.032H169.328z M169.711,172.686v-18.677h3.281v18.677H169.711z
					"/>
				<path fill="#1E2125" d="M176.033,170.074l1.859-2.553c0.701,0.758,1.559,1.386,2.569,1.879c1.011,0.494,2.124,0.742,3.336,0.742
					c1.249,0,2.183-0.254,2.798-0.763c0.614-0.508,0.922-1.118,0.922-1.833c0-0.421-0.123-0.787-0.369-1.099
					s-0.578-0.565-0.998-0.763s-0.902-0.373-1.449-0.527c-0.547-0.156-1.121-0.309-1.723-0.46c-0.603-0.151-1.201-0.315-1.797-0.494
					c-0.599-0.179-1.17-0.405-1.718-0.681c-0.547-0.273-1.028-0.596-1.448-0.967s-0.752-0.845-0.998-1.42
					c-0.246-0.578-0.369-1.232-0.369-1.964c0-1.571,0.629-2.878,1.887-3.918s2.898-1.562,4.922-1.562
					c2.861,0,5.188,0.873,6.973,2.615l-1.846,2.439c-0.721-0.723-1.551-1.266-2.494-1.627s-1.922-0.542-2.934-0.542
					c-0.947,0-1.709,0.217-2.283,0.651c-0.574,0.436-0.861,0.996-0.861,1.682c0,0.375,0.123,0.703,0.369,0.982
					c0.246,0.278,0.579,0.508,0.998,0.686c0.42,0.18,0.902,0.346,1.449,0.501s1.119,0.312,1.717,0.467
					c0.596,0.156,1.195,0.325,1.797,0.509c0.602,0.182,1.176,0.42,1.723,0.713s1.031,0.631,1.449,1.017
					c0.42,0.384,0.752,0.872,0.998,1.462s0.369,1.256,0.369,1.997c0,0.627-0.088,1.224-0.266,1.786s-0.459,1.091-0.842,1.582
					c-0.383,0.49-0.853,0.912-1.408,1.268c-0.557,0.354-1.236,0.635-2.043,0.838c-0.807,0.204-1.698,0.307-2.674,0.307
					C180.495,173.027,177.957,172.042,176.033,170.074z"/>
				<path fill="#1E2125" d="M199.713,172.686l7.342-18.677h4.088l7.328,18.677h-3.719l-1.367-3.609h-8.572l-1.381,3.609H199.713z
					 M205.729,166.191h6.728l-3.363-8.9L205.729,166.191z"/>
				<path fill="#1E2125" d="M3.775,199.686v-18.677h9.195c1.67,0,2.975,0.449,3.914,1.347c0.939,0.898,1.41,2.035,1.41,3.412
					c0,1.121-0.314,2.066-0.941,2.836c-0.627,0.771-1.398,1.252-2.312,1.442c1.012,0.155,1.865,0.673,2.562,1.552
					c0.697,0.881,1.047,1.885,1.047,3.016c0,1.504-0.477,2.726-1.43,3.664c-0.952,0.938-2.285,1.408-3.998,1.408H3.775z
					 M7.057,188.707h5.264c0.811,0,1.449-0.221,1.914-0.663c0.465-0.442,0.697-1.022,0.697-1.743c0-0.701-0.232-1.277-0.697-1.729
					c-0.465-0.451-1.104-0.678-1.914-0.678H7.057V188.707z M7.057,196.8h5.4c0.883,0,1.576-0.229,2.078-0.69
					c0.5-0.459,0.752-1.096,0.752-1.906c0-0.738-0.252-1.357-0.752-1.859c-0.502-0.5-1.195-0.752-2.078-0.752h-5.4V196.8z"/>
				<path fill="#1E2125" d="M22.225,192.289V181.01h3.363v11.217c0,1.516,0.412,2.713,1.235,3.594
					c0.823,0.882,1.995,1.322,3.516,1.322s2.691-0.44,3.516-1.322c0.823-0.881,1.235-2.079,1.235-3.594V181.01h3.363v11.279
					c0,2.379-0.689,4.264-2.07,5.652c-1.379,1.391-3.395,2.086-6.044,2.086c-2.641,0-4.653-0.695-6.038-2.086
					C22.917,196.553,22.225,194.667,22.225,192.289z"/>
				<path fill="#1E2125" d="M41.454,197.074l1.859-2.553c0.702,0.758,1.559,1.386,2.57,1.879c1.011,0.494,2.124,0.742,3.336,0.742
					c1.249,0,2.181-0.254,2.796-0.763c0.615-0.508,0.923-1.118,0.923-1.833c0-0.421-0.123-0.787-0.369-1.099
					s-0.579-0.565-0.998-0.763c-0.419-0.196-0.902-0.373-1.449-0.527c-0.547-0.156-1.121-0.309-1.723-0.46s-1.201-0.315-1.798-0.494
					c-0.598-0.179-1.169-0.405-1.716-0.681c-0.547-0.273-1.03-0.596-1.449-0.967s-0.752-0.845-0.998-1.42
					c-0.246-0.578-0.369-1.232-0.369-1.964c0-1.571,0.629-2.878,1.887-3.918c1.258-1.04,2.898-1.562,4.922-1.562
					c2.862,0,5.187,0.873,6.973,2.615l-1.846,2.439c-0.72-0.723-1.552-1.266-2.495-1.627c-0.943-0.361-1.921-0.542-2.933-0.542
					c-0.948,0-1.709,0.217-2.283,0.651c-0.574,0.436-0.861,0.996-0.861,1.682c0,0.375,0.123,0.703,0.369,0.982
					c0.246,0.278,0.579,0.508,0.998,0.686c0.419,0.18,0.902,0.346,1.449,0.501s1.118,0.312,1.716,0.467
					c0.597,0.156,1.196,0.325,1.798,0.509c0.602,0.182,1.176,0.42,1.723,0.713c0.547,0.293,1.03,0.631,1.449,1.017
					c0.419,0.384,0.752,0.872,0.998,1.462s0.369,1.256,0.369,1.997c0,0.627-0.089,1.224-0.267,1.786
					c-0.178,0.562-0.458,1.091-0.841,1.582c-0.383,0.49-0.853,0.912-1.408,1.268c-0.556,0.354-1.237,0.635-2.044,0.838
					c-0.807,0.204-1.697,0.307-2.673,0.307C45.916,200.027,43.377,199.042,41.454,197.074z"/>
				<path fill="#1E2125" d="M58.756,190.361c0-1.414,0.252-2.725,0.758-3.938c0.506-1.212,1.197-2.235,2.072-3.069
					s1.914-1.484,3.117-1.955c1.203-0.469,2.488-0.703,3.855-0.703c1.75,0,3.244,0.383,4.484,1.148
					c1.238,0.766,2.236,1.77,2.994,3.012l-2.775,1.457c-0.465-0.807-1.121-1.463-1.969-1.971s-1.76-0.762-2.734-0.762
					c-1.852,0-3.387,0.636-4.607,1.908c-1.223,1.271-1.832,2.896-1.832,4.873c0,1.949,0.609,3.566,1.832,4.853
					c1.221,1.286,2.756,1.929,4.607,1.929c0.965,0,1.875-0.256,2.727-0.769c0.853-0.513,1.512-1.167,1.977-1.963l2.803,1.399
					c-1.797,2.812-4.299,4.217-7.506,4.217c-1.367,0-2.652-0.237-3.855-0.711c-1.203-0.475-2.242-1.129-3.117-1.963
					s-1.566-1.856-2.072-3.068C59.008,193.072,58.756,191.766,58.756,190.361z"/>
				<path fill="#1E2125" d="M77,199.686l7.342-18.677h4.088l7.328,18.677h-3.719l-1.367-3.609H82.1l-1.381,3.609H77z
					 M83.016,193.191h6.727l-3.363-8.9L83.016,193.191z"/>
				<path fill="#1E2125" d="M98.048,199.686v-18.677h8.203c1.841,0,3.324,0.54,4.45,1.62c1.125,1.08,1.688,2.491,1.688,4.23
					c0,0.803-0.126,1.535-0.376,2.195c-0.251,0.66-0.588,1.211-1.012,1.653s-0.896,0.802-1.415,1.08
					c-0.52,0.278-1.071,0.463-1.654,0.554l4.594,7.342h-3.801l-4.115-6.973h-3.281v6.973h-3.281V199.686z M101.329,189.828h4.512
					c0.93,0,1.692-0.273,2.29-0.82c0.597-0.547,0.896-1.271,0.896-2.174c0-0.884-0.296-1.596-0.889-2.133
					c-0.593-0.538-1.358-0.807-2.297-0.807h-4.512V189.828z"/>
				<path fill="#1E2125" d="M115.871,199.27c-0.284-0.332-0.426-0.754-0.426-1.267s0.166-0.952,0.5-1.319
					c0.332-0.369,0.738-0.553,1.215-0.553c0.543,0,1.004,0.225,1.382,0.674c0.378,0.448,0.567,1.059,0.567,1.832
					c0,0.928-0.214,1.811-0.642,2.655c-0.428,0.843-0.999,1.547-1.715,2.112l-1.209-1.08c0.419-0.273,0.808-0.666,1.166-1.176
					c0.357-0.512,0.573-0.998,0.647-1.463c-0.099,0.055-0.242,0.082-0.432,0.082C116.506,199.768,116.154,199.602,115.871,199.27z"
					/>
				<path fill="#1E2125" d="M130.566,199.686v-18.677h12.797v2.886h-9.516v4.812h9.323v2.885h-9.323v5.209h9.516v2.886H130.566z"/>
				<path fill="#1E2125" d="M145.789,197.074l1.859-2.553c0.701,0.758,1.559,1.386,2.569,1.879c1.011,0.494,2.123,0.742,3.337,0.742
					c1.248,0,2.18-0.254,2.795-0.763c0.615-0.508,0.924-1.118,0.924-1.833c0-0.421-0.123-0.787-0.369-1.099
					s-0.579-0.565-0.998-0.763c-0.42-0.197-0.902-0.373-1.449-0.527c-0.547-0.156-1.121-0.309-1.723-0.46
					c-0.603-0.151-1.201-0.315-1.799-0.494c-0.597-0.179-1.168-0.405-1.715-0.681c-0.548-0.273-1.031-0.596-1.449-0.967
					c-0.42-0.371-0.752-0.845-0.998-1.42c-0.246-0.578-0.369-1.232-0.369-1.964c0-1.571,0.629-2.878,1.887-3.918
					s2.898-1.562,4.922-1.562c2.861,0,5.186,0.873,6.973,2.615l-1.846,2.439c-0.721-0.723-1.552-1.266-2.494-1.627
					c-0.943-0.361-1.922-0.542-2.934-0.542c-0.948,0-1.709,0.217-2.283,0.651c-0.574,0.436-0.861,0.996-0.861,1.682
					c0,0.375,0.123,0.703,0.369,0.982c0.246,0.278,0.578,0.508,0.998,0.686c0.42,0.18,0.902,0.346,1.449,0.501
					s1.119,0.312,1.716,0.467c0.597,0.156,1.196,0.325,1.798,0.509c0.603,0.182,1.176,0.42,1.723,0.713
					c0.548,0.293,1.029,0.631,1.449,1.017c0.42,0.384,0.752,0.872,0.998,1.462s0.369,1.256,0.369,1.997
					c0,0.627-0.089,1.224-0.267,1.786c-0.179,0.562-0.458,1.091-0.841,1.582c-0.383,0.49-0.854,0.912-1.408,1.268
					c-0.557,0.354-1.237,0.635-2.044,0.838c-0.808,0.204-1.698,0.307-2.673,0.307C150.25,200.027,147.712,199.042,145.789,197.074z"
					/>
				<path fill="#1E2125" d="M170.193,183.895v-2.886h14.588v2.886h-5.646v15.791h-3.281v-15.791H170.193z"/>
				<path fill="#1E2125" d="M187.822,192.289V181.01h3.363v11.217c0,1.516,0.412,2.713,1.234,3.594
					c0.823,0.882,1.995,1.322,3.516,1.322c1.521,0,2.691-0.44,3.517-1.322c0.823-0.881,1.235-2.079,1.235-3.594V181.01h3.362v11.279
					c0,2.379-0.688,4.264-2.069,5.652c-1.379,1.391-3.396,2.086-6.045,2.086c-2.641,0-4.652-0.695-6.037-2.086
					C188.516,196.553,187.822,194.667,187.822,192.289z"/>
				<path fill="#1E2125" d="M206.327,181.009h3.76l5.12,7.984l5.134-7.984h3.761l-7.232,10.925v7.752h-3.281v-7.752L206.327,181.009
					z"/>
				<path fill="#1E2125" d="M226.766,195.338c-0.807-1.47-1.209-3.129-1.209-4.979c0-1.848,0.402-3.506,1.209-4.977
					c0.808-1.47,1.938-2.619,3.392-3.447c1.454-0.828,3.103-1.242,4.942-1.242c1.375,0,2.656,0.244,3.842,0.73
					c1.185,0.487,2.195,1.156,3.035,2.008c0.838,0.852,1.494,1.873,1.969,3.066c0.474,1.193,0.711,2.48,0.711,3.861
					c0,1.383-0.237,2.67-0.711,3.863c-0.475,1.192-1.131,2.215-1.969,3.065c-0.84,0.851-1.852,1.521-3.035,2.007
					c-1.186,0.486-2.467,0.73-3.842,0.73c-1.842,0-3.488-0.414-4.942-1.242C228.703,197.957,227.572,196.809,226.766,195.338z
					 M228.92,190.361c0,1.957,0.564,3.578,1.695,4.859c1.129,1.28,2.625,1.922,4.484,1.922c1.85,0,3.344-0.642,4.483-1.922
					c1.14-1.281,1.709-2.902,1.709-4.859c0-1.967-0.569-3.59-1.709-4.866c-1.142-1.276-2.636-1.915-4.483-1.915
					c-1.859,0-3.355,0.636-4.484,1.908C229.484,186.76,228.92,188.384,228.92,190.361z"/>
				<path fill="#1E2125" d="M247.561,198.127c0-0.486,0.164-0.908,0.492-1.268s0.758-0.539,1.285-0.539
					c0.529,0,0.977,0.181,1.34,0.539c0.365,0.357,0.547,0.781,0.547,1.268c0,0.503-0.182,0.936-0.547,1.293
					c-0.363,0.357-0.811,0.538-1.34,0.538c-0.527,0-0.957-0.181-1.285-0.538S247.561,198.631,247.561,198.127z M247.697,181.009
					h3.363l-0.465,13.146h-2.543L247.697,181.009z"/>
				<path fill="#FFFFFF" d="M3.957,229.59v-11.715h1.004v10.807h5.694v0.908H3.957z"/>
				<path fill="#FFFFFF" d="M12.567,226.975c0-0.588,0.147-1.102,0.441-1.539c0.294-0.438,0.661-0.758,1.103-0.965
					c0.439-0.205,0.914-0.309,1.424-0.309c1.199,0,2.16,0.402,2.881,1.209v-1.707c0-0.604-0.216-1.079-0.647-1.426
					c-0.431-0.348-0.974-0.521-1.625-0.521c-0.538,0-1.021,0.1-1.45,0.299c-0.428,0.198-0.834,0.514-1.217,0.944l-0.506-0.63
					c0.445-0.491,0.929-0.854,1.449-1.086c0.52-0.234,1.126-0.352,1.818-0.352c0.914,0,1.657,0.229,2.229,0.687
					c0.572,0.458,0.858,1.138,0.858,2.041v5.969h-0.909v-1.003c-0.743,0.812-1.703,1.219-2.881,1.219
					c-0.373,0-0.732-0.063-1.081-0.188c-0.349-0.126-0.665-0.306-0.948-0.536c-0.283-0.23-0.51-0.53-0.682-0.896
					C12.652,227.818,12.567,227.415,12.567,226.975z M13.527,226.992c0,0.602,0.217,1.099,0.648,1.496
					c0.431,0.398,0.99,0.597,1.676,0.597c0.521,0,1.004-0.101,1.449-0.3c0.446-0.2,0.818-0.489,1.115-0.866v-1.86
					c-0.291-0.39-0.662-0.683-1.111-0.879c-0.448-0.197-0.933-0.297-1.453-0.297c-0.686,0-1.244,0.199-1.676,0.596
					C13.744,225.875,13.527,226.38,13.527,226.992z"/>
				<path fill="#FFFFFF" d="M26.949,225.341c0-1.265,0.378-2.321,1.136-3.172c0.757-0.851,1.748-1.274,2.972-1.274
					c0.691,0,1.271,0.123,1.736,0.369c0.466,0.246,0.888,0.604,1.266,1.073l-0.635,0.565c-0.578-0.789-1.35-1.184-2.316-1.184
					c-0.972,0-1.748,0.342-2.328,1.025c-0.58,0.684-0.87,1.55-0.87,2.597c0,1.048,0.292,1.917,0.874,2.606
					c0.584,0.689,1.358,1.035,2.324,1.035c0.961,0,1.732-0.398,2.316-1.193l0.635,0.566c-0.373,0.472-0.791,0.832-1.257,1.078
					c-0.466,0.248-1.048,0.371-1.745,0.371c-0.612,0-1.177-0.117-1.693-0.351c-0.518-0.233-0.951-0.552-1.3-0.951
					s-0.622-0.873-0.819-1.418C27.048,226.54,26.949,225.958,26.949,225.341z"/>
				<path fill="#FFFFFF" d="M35.971,225.341c0-1.271,0.373-2.329,1.119-3.176c0.746-0.847,1.725-1.271,2.938-1.271
					c0.82,0,1.545,0.199,2.174,0.596c0.629,0.398,1.107,0.932,1.438,1.601c0.33,0.669,0.495,1.419,0.495,2.249
					s-0.165,1.582-0.495,2.256c-0.331,0.672-0.81,1.209-1.438,1.608s-1.354,0.599-2.174,0.599c-0.807,0-1.521-0.199-2.145-0.6
					s-1.098-0.938-1.424-1.611S35.971,226.169,35.971,225.341z M37.287,223.568c-0.237,0.541-0.355,1.132-0.355,1.772
					c0,0.642,0.118,1.235,0.355,1.782c0.236,0.547,0.596,0.992,1.076,1.339s1.035,0.521,1.664,0.521c0.64,0,1.2-0.174,1.68-0.521
					c0.48-0.346,0.838-0.791,1.072-1.335c0.234-0.544,0.352-1.139,0.352-1.786c0-0.641-0.117-1.231-0.352-1.772
					c-0.234-0.541-0.592-0.984-1.072-1.332c-0.479-0.346-1.04-0.52-1.68-0.52c-0.629,0-1.184,0.174-1.664,0.52
					C37.883,222.584,37.523,223.027,37.287,223.568z"/>
				<path fill="#FFFFFF" d="M46.818,229.59v-8.48h0.909v1.277c0.218-0.332,0.591-0.662,1.119-0.994
					c0.528-0.332,1.071-0.498,1.626-0.498c0.612,0,1.105,0.153,1.477,0.459c0.372,0.306,0.617,0.688,0.736,1.145
					c0.252-0.423,0.643-0.796,1.173-1.119c0.529-0.322,1.077-0.484,1.645-0.484c1.54,0,2.31,0.86,2.31,2.582v6.114h-0.908v-5.935
					c0-1.293-0.568-1.938-1.702-1.938c-0.446,0-0.903,0.141-1.37,0.424c-0.467,0.282-0.821,0.621-1.062,1.016v6.432h-0.909v-5.936
					c0-1.291-0.563-1.938-1.689-1.938c-0.44,0-0.893,0.143-1.355,0.43c-0.463,0.285-0.826,0.629-1.089,1.028v6.415H46.818
					L46.818,229.59z"/>
				<path fill="#FFFFFF" d="M61.02,227.078v-5.969h0.909v5.769c0,0.778,0.176,1.324,0.527,1.636c0.351,0.312,0.862,0.469,1.53,0.469
					c0.527,0,1.044-0.137,1.553-0.408c0.509-0.271,0.912-0.605,1.209-1v-6.465h0.91v8.48h-0.91v-1.236
					c-0.371,0.416-0.83,0.762-1.376,1.037c-0.546,0.276-1.108,0.414-1.685,0.414c-0.881,0-1.546-0.22-1.994-0.66
					C61.244,228.704,61.02,228.016,61.02,227.078z"/>
				<path fill="#FFFFFF" d="M70.848,229.59v-8.48h0.909v1.277c0.337-0.4,0.788-0.748,1.351-1.046
					c0.563-0.297,1.134-0.446,1.711-0.446c1.778,0,2.668,0.92,2.668,2.762v5.935h-0.91v-5.745c0-0.773-0.177-1.32-0.531-1.644
					s-0.863-0.484-1.526-0.484c-0.526,0-1.048,0.144-1.565,0.429c-0.518,0.287-0.916,0.629-1.196,1.029v6.415L70.848,229.59
					L70.848,229.59z"/>
				<path fill="#FFFFFF" d="M80.637,219.561c-0.141-0.14-0.21-0.305-0.21-0.492c0-0.189,0.069-0.35,0.21-0.485
					c0.141-0.134,0.305-0.201,0.493-0.201c0.194,0,0.36,0.065,0.497,0.197c0.138,0.131,0.207,0.294,0.207,0.489
					s-0.069,0.359-0.207,0.496c-0.137,0.138-0.303,0.207-0.497,0.207C80.941,219.771,80.777,219.701,80.637,219.561z M80.676,229.59
					v-8.48h0.908v8.48H80.676z"/>
				<path fill="#FFFFFF" d="M84.312,225.357c0-1.338,0.347-2.416,1.041-3.235c0.695-0.817,1.605-1.228,2.731-1.228
					c0.595,0,1.151,0.142,1.669,0.424c0.517,0.283,0.943,0.67,1.281,1.164v-4.606h0.909v11.715h-0.909v-1.347
					c-0.314,0.455-0.732,0.828-1.256,1.122c-0.524,0.293-1.088,0.438-1.694,0.438c-1.132,0-2.044-0.404-2.735-1.212
					C84.658,227.784,84.312,226.706,84.312,225.357z M86.07,222.744c-0.532,0.684-0.798,1.556-0.798,2.613
					c0,1.06,0.266,1.929,0.798,2.606c0.531,0.679,1.254,1.019,2.17,1.019c0.576,0,1.123-0.146,1.637-0.438
					c0.516-0.292,0.9-0.649,1.158-1.073v-4.197c-0.258-0.436-0.645-0.803-1.162-1.104c-0.518-0.3-1.062-0.45-1.633-0.45
					C87.324,221.719,86.602,222.061,86.07,222.744z"/>
				<path fill="#FFFFFF" d="M94.705,226.975c0-0.588,0.147-1.102,0.441-1.539c0.295-0.438,0.662-0.758,1.103-0.965
					c0.44-0.205,0.915-0.309,1.424-0.309c1.2,0,2.161,0.402,2.882,1.209v-1.707c0-0.604-0.217-1.079-0.648-1.426
					c-0.431-0.348-0.973-0.521-1.625-0.521c-0.537,0-1.02,0.1-1.449,0.299c-0.429,0.198-0.834,0.514-1.218,0.944l-0.506-0.63
					c0.446-0.491,0.929-0.854,1.449-1.086c0.521-0.234,1.126-0.352,1.818-0.352c0.915,0,1.657,0.229,2.229,0.687
					c0.572,0.457,0.857,1.138,0.857,2.041v5.969h-0.908v-1.003c-0.744,0.812-1.704,1.219-2.882,1.219
					c-0.372,0-0.731-0.063-1.081-0.188c-0.349-0.126-0.664-0.306-0.947-0.536s-0.51-0.53-0.682-0.896
					C94.791,227.818,94.705,227.415,94.705,226.975z M95.666,226.992c0,0.602,0.216,1.099,0.647,1.496
					c0.431,0.398,0.99,0.597,1.677,0.597c0.52,0,1.003-0.101,1.449-0.3c0.445-0.2,0.817-0.489,1.115-0.866v-1.86
					c-0.292-0.39-0.662-0.683-1.111-0.879c-0.449-0.197-0.934-0.297-1.453-0.297c-0.687,0-1.245,0.199-1.677,0.596
					C95.882,225.875,95.666,226.38,95.666,226.992z"/>
				<path fill="#FFFFFF" d="M104.189,225.357c0-1.338,0.348-2.416,1.042-3.235s1.605-1.228,2.731-1.228
					c0.595,0,1.15,0.142,1.668,0.424c0.518,0.283,0.945,0.67,1.282,1.164v-4.606h0.909v11.715h-0.909v-1.347
					c-0.314,0.455-0.733,0.828-1.257,1.122c-0.522,0.293-1.088,0.438-1.693,0.438c-1.132,0-2.044-0.404-2.735-1.212
					C104.535,227.784,104.189,226.706,104.189,225.357z M105.947,222.744c-0.531,0.684-0.797,1.556-0.797,2.613
					c0,1.06,0.266,1.929,0.797,2.606c0.532,0.679,1.256,1.019,2.17,1.019c0.578,0,1.123-0.146,1.639-0.438
					c0.514-0.292,0.9-0.649,1.157-1.073v-4.197c-0.257-0.436-0.645-0.803-1.162-1.104c-0.517-0.3-1.062-0.45-1.634-0.45
					C107.203,221.719,106.479,222.061,105.947,222.744z"/>
				<path fill="#FFFFFF" d="M119.463,225.341c0-1.265,0.379-2.321,1.137-3.172c0.758-0.851,1.748-1.274,2.971-1.274
					c0.692,0,1.271,0.123,1.737,0.369c0.466,0.246,0.888,0.604,1.265,1.073l-0.635,0.565c-0.577-0.789-1.35-1.184-2.314-1.184
					c-0.973,0-1.748,0.342-2.329,1.025c-0.58,0.684-0.87,1.55-0.87,2.597c0,1.048,0.291,1.917,0.875,2.606
					c0.582,0.689,1.357,1.035,2.324,1.035c0.96,0,1.732-0.398,2.314-1.193l0.635,0.566c-0.371,0.472-0.79,0.832-1.256,1.078
					c-0.467,0.248-1.048,0.371-1.746,0.371c-0.611,0-1.176-0.117-1.693-0.351c-0.518-0.233-0.95-0.552-1.299-0.951
					c-0.35-0.399-0.622-0.873-0.819-1.418C119.562,226.539,119.463,225.958,119.463,225.341z"/>
				<path fill="#FFFFFF" d="M128.484,225.341c0-1.271,0.373-2.329,1.119-3.176s1.727-1.271,2.938-1.271
					c0.82,0,1.547,0.199,2.175,0.596c0.63,0.398,1.108,0.932,1.438,1.601s0.494,1.419,0.494,2.249s-0.164,1.582-0.494,2.256
					c-0.33,0.672-0.811,1.209-1.438,1.608s-1.354,0.599-2.175,0.599c-0.807,0-1.521-0.199-2.145-0.6s-1.098-0.938-1.422-1.611
					C128.648,226.92,128.484,226.169,128.484,225.341z M129.803,223.568c-0.238,0.541-0.357,1.132-0.357,1.772
					c0,0.642,0.119,1.235,0.357,1.782c0.236,0.547,0.596,0.992,1.075,1.339s1.034,0.521,1.663,0.521
					c0.641,0,1.201-0.174,1.682-0.521c0.481-0.347,0.838-0.791,1.072-1.335s0.352-1.139,0.352-1.786
					c0-0.641-0.117-1.231-0.352-1.772s-0.592-0.984-1.072-1.332c-0.479-0.346-1.041-0.52-1.682-0.52
					c-0.629,0-1.184,0.174-1.663,0.52C130.396,222.583,130.039,223.027,129.803,223.568z"/>
				<path fill="#FFFFFF" d="M139.334,229.59v-11.715h0.908v11.715H139.334z"/>
				<path fill="#FFFFFF" d="M142.986,226.975c0-0.588,0.146-1.102,0.44-1.539c0.296-0.438,0.662-0.758,1.103-0.965
					c0.441-0.205,0.914-0.309,1.424-0.309c1.201,0,2.162,0.402,2.882,1.209v-1.707c0-0.604-0.216-1.079-0.647-1.426
					c-0.431-0.348-0.974-0.521-1.625-0.521c-0.537,0-1.021,0.1-1.449,0.299c-0.43,0.198-0.834,0.514-1.219,0.944l-0.506-0.63
					c0.446-0.491,0.93-0.854,1.449-1.086c0.521-0.234,1.127-0.352,1.818-0.352c0.914,0,1.658,0.229,2.23,0.687
					c0.57,0.458,0.856,1.138,0.856,2.041v5.969h-0.909v-1.003c-0.743,0.812-1.704,1.219-2.882,1.219
					c-0.371,0-0.731-0.063-1.08-0.188c-0.351-0.126-0.665-0.306-0.947-0.536s-0.511-0.53-0.682-0.896
					C143.072,227.818,142.986,227.415,142.986,226.975z M143.947,226.992c0,0.602,0.215,1.099,0.646,1.496
					c0.431,0.398,0.99,0.597,1.677,0.597c0.521,0,1.004-0.101,1.451-0.3c0.444-0.2,0.815-0.489,1.113-0.866v-1.86
					c-0.292-0.39-0.662-0.683-1.109-0.879c-0.449-0.197-0.935-0.297-1.455-0.297c-0.687,0-1.244,0.199-1.677,0.596
					C144.162,225.875,143.947,226.38,143.947,226.992z"/>
				<path fill="#FFFFFF" d="M152.943,229.59v-11.715h0.908v4.605c0.349-0.492,0.78-0.879,1.295-1.162s1.065-0.426,1.654-0.426
					c1.139,0,2.059,0.41,2.762,1.229s1.056,1.896,1.056,3.236c0,1.348-0.353,2.426-1.056,3.233c-0.703,0.81-1.623,1.212-2.762,1.212
					c-0.605,0-1.171-0.146-1.693-0.439s-0.941-0.666-1.256-1.121v1.347L152.943,229.59L152.943,229.59z M153.852,227.471
					c0.258,0.418,0.646,0.773,1.166,1.068c0.521,0.295,1.064,0.441,1.631,0.441c0.927,0,1.651-0.338,2.179-1.018
					c0.524-0.678,0.789-1.547,0.789-2.605c0-1.064-0.267-1.938-0.794-2.619c-0.528-0.682-1.254-1.021-2.174-1.021
					c-0.565,0-1.109,0.153-1.631,0.459c-0.52,0.307-0.908,0.672-1.166,1.096V227.471z"/>
				<path fill="#FFFFFF" d="M162.848,225.341c0-1.271,0.373-2.329,1.119-3.176s1.725-1.271,2.938-1.271
					c0.82,0,1.546,0.199,2.175,0.596c0.629,0.398,1.106,0.932,1.438,1.601c0.33,0.669,0.494,1.419,0.494,2.249
					s-0.164,1.582-0.494,2.256c-0.332,0.672-0.811,1.209-1.438,1.608s-1.354,0.599-2.175,0.599c-0.807,0-1.521-0.199-2.145-0.6
					c-0.623-0.4-1.098-0.938-1.424-1.611S162.848,226.169,162.848,225.341z M164.164,223.568c-0.236,0.541-0.355,1.132-0.355,1.772
					c0,0.642,0.119,1.235,0.355,1.782s0.596,0.992,1.076,1.339s1.035,0.521,1.664,0.521c0.64,0,1.199-0.174,1.68-0.521
					c0.48-0.346,0.838-0.791,1.072-1.335s0.352-1.139,0.352-1.786c0-0.641-0.117-1.231-0.352-1.772s-0.592-0.984-1.072-1.332
					c-0.479-0.346-1.04-0.52-1.68-0.52c-0.629,0-1.184,0.174-1.664,0.52C164.76,222.584,164.4,223.027,164.164,223.568z"/>
				<path fill="#FFFFFF" d="M173.695,229.59v-8.48h0.91v1.457c0.828-1.092,1.783-1.637,2.862-1.637v1.002
					c-0.102-0.022-0.254-0.033-0.452-0.033c-0.425,0-0.884,0.156-1.377,0.472c-0.494,0.315-0.841,0.659-1.033,1.038v6.183
					L173.695,229.59L173.695,229.59z"/>
				<path fill="#FFFFFF" d="M179.158,226.975c0-0.588,0.146-1.102,0.441-1.539s0.662-0.758,1.103-0.965
					c0.44-0.205,0.915-0.309,1.424-0.309c1.2,0,2.161,0.402,2.882,1.209v-1.707c0-0.604-0.217-1.079-0.648-1.426
					c-0.43-0.348-0.973-0.521-1.625-0.521c-0.537,0-1.02,0.1-1.448,0.299c-0.429,0.198-0.834,0.514-1.218,0.944l-0.506-0.63
					c0.445-0.491,0.929-0.854,1.449-1.086c0.521-0.234,1.125-0.352,1.817-0.352c0.915,0,1.657,0.229,2.229,0.687
					c0.571,0.457,0.856,1.138,0.856,2.041v5.969h-0.908v-1.003c-0.743,0.812-1.704,1.219-2.882,1.219
					c-0.372,0-0.73-0.063-1.081-0.188c-0.349-0.126-0.664-0.306-0.946-0.536c-0.283-0.23-0.511-0.53-0.683-0.896
					C179.244,227.818,179.158,227.415,179.158,226.975z M180.119,226.992c0,0.602,0.216,1.099,0.646,1.496
					c0.432,0.398,0.99,0.597,1.678,0.597c0.52,0,1.002-0.101,1.449-0.3c0.444-0.2,0.816-0.489,1.114-0.866v-1.86
					c-0.292-0.39-0.661-0.683-1.11-0.879c-0.449-0.197-0.935-0.297-1.453-0.297c-0.688,0-1.245,0.199-1.678,0.596
					C180.335,225.875,180.119,226.38,180.119,226.992z"/>
				<path fill="#FFFFFF" d="M187.861,221.932v-0.822h1.425v-2.307h0.909v2.307h1.748v0.822h-1.748v5.894
					c0,0.354,0.072,0.635,0.219,0.844c0.146,0.208,0.363,0.312,0.656,0.312c0.389,0,0.705-0.133,0.951-0.401l0.352,0.698
					c-0.371,0.352-0.852,0.527-1.439,0.527c-0.554,0-0.967-0.16-1.238-0.479c-0.272-0.32-0.408-0.772-0.408-1.361v-6.032H187.861
					L187.861,221.932z"/>
				<path fill="#FFFFFF" d="M194.256,219.561c-0.141-0.14-0.211-0.305-0.211-0.492c0-0.189,0.07-0.35,0.211-0.485
					c0.141-0.134,0.305-0.201,0.492-0.201c0.195,0,0.361,0.065,0.498,0.197c0.137,0.131,0.206,0.294,0.206,0.489
					s-0.069,0.359-0.206,0.496c-0.137,0.138-0.303,0.207-0.498,0.207C194.561,219.771,194.396,219.701,194.256,219.561z
					 M194.295,229.59v-8.48h0.908v8.48H194.295z"/>
				<path fill="#FFFFFF" d="M197.098,221.109h1.021l3.096,7.41l3.053-7.41h1.037l-3.584,8.48h-1.037L197.098,221.109z"/>
				<path fill="#FFFFFF" d="M206.746,226.975c0-0.588,0.146-1.102,0.441-1.539s0.662-0.758,1.102-0.965
					c0.441-0.205,0.915-0.309,1.424-0.309c1.201,0,2.162,0.402,2.883,1.209v-1.707c0-0.604-0.217-1.079-0.648-1.426
					c-0.43-0.348-0.973-0.521-1.625-0.521c-0.536,0-1.02,0.1-1.448,0.299c-0.431,0.198-0.835,0.514-1.22,0.944l-0.506-0.63
					c0.447-0.491,0.931-0.854,1.449-1.086c0.521-0.234,1.127-0.352,1.818-0.352c0.915,0,1.658,0.229,2.23,0.687
					c0.57,0.458,0.856,1.138,0.856,2.041v5.969h-0.909v-1.003c-0.742,0.812-1.703,1.219-2.882,1.219
					c-0.371,0-0.731-0.063-1.08-0.188c-0.351-0.126-0.665-0.306-0.946-0.536c-0.283-0.23-0.512-0.53-0.683-0.896
					C206.832,227.818,206.746,227.415,206.746,226.975z M207.707,226.992c0,0.602,0.215,1.099,0.646,1.496
					c0.431,0.398,0.989,0.597,1.676,0.597c0.521,0,1.004-0.101,1.451-0.3c0.444-0.2,0.815-0.489,1.113-0.866v-1.86
					c-0.292-0.39-0.662-0.683-1.109-0.879c-0.449-0.197-0.935-0.297-1.455-0.297c-0.687,0-1.244,0.199-1.676,0.596
					S207.707,226.38,207.707,226.992z"/>
				<path fill="#FFFFFF" d="M221.6,229.59v-8.48h0.908v1.277c0.217-0.332,0.59-0.662,1.119-0.994
					c0.527-0.332,1.07-0.498,1.625-0.498c0.613,0,1.105,0.153,1.477,0.459c0.373,0.306,0.619,0.688,0.737,1.145
					c0.252-0.423,0.644-0.796,1.173-1.119c0.529-0.322,1.077-0.484,1.646-0.484c1.538,0,2.31,0.86,2.31,2.582v6.114h-0.908v-5.935
					c0-1.293-0.567-1.938-1.701-1.938c-0.447,0-0.904,0.141-1.371,0.424c-0.467,0.282-0.82,0.621-1.061,1.016v6.432h-0.91v-5.936
					c0-1.291-0.562-1.938-1.689-1.938c-0.439,0-0.893,0.143-1.354,0.43c-0.465,0.285-0.826,0.629-1.09,1.028v6.415H221.6
					L221.6,229.59z"/>
				<path fill="#FFFFFF" d="M235.346,226.975c0-0.588,0.146-1.102,0.441-1.539s0.662-0.758,1.102-0.965
					c0.441-0.205,0.916-0.309,1.424-0.309c1.201,0,2.162,0.402,2.883,1.209v-1.707c0-0.604-0.217-1.079-0.647-1.426
					c-0.431-0.348-0.974-0.521-1.625-0.521c-0.536,0-1.021,0.1-1.448,0.299c-0.431,0.198-0.836,0.514-1.22,0.944l-0.506-0.63
					c0.446-0.491,0.931-0.854,1.448-1.086c0.521-0.234,1.128-0.352,1.818-0.352c0.916,0,1.658,0.229,2.23,0.687
					c0.57,0.458,0.857,1.138,0.857,2.041v5.969h-0.91v-1.003c-0.742,0.812-1.703,1.219-2.881,1.219c-0.371,0-0.731-0.063-1.08-0.188
					c-0.351-0.126-0.666-0.306-0.947-0.536c-0.283-0.23-0.512-0.53-0.682-0.896C235.432,227.818,235.346,227.415,235.346,226.975z
					 M236.307,226.992c0,0.602,0.215,1.099,0.646,1.496c0.431,0.398,0.99,0.597,1.677,0.597c0.521,0,1.003-0.101,1.45-0.3
					c0.445-0.2,0.816-0.489,1.113-0.866v-1.86c-0.291-0.39-0.662-0.683-1.109-0.879c-0.449-0.197-0.934-0.297-1.454-0.297
					c-0.687,0-1.245,0.199-1.677,0.596S236.307,226.38,236.307,226.992z M237.961,219.822l2.701-2.53h1.09l-3.02,2.53H237.961z"/>
				<path fill="#FFFFFF" d="M244.561,228.45l0.541-0.669c0.285,0.361,0.672,0.658,1.156,0.892c0.486,0.233,1.016,0.351,1.586,0.351
					c0.699,0,1.252-0.16,1.658-0.479c0.407-0.319,0.611-0.731,0.611-1.235c0-0.31-0.1-0.572-0.297-0.789s-0.457-0.375-0.779-0.472
					c-0.322-0.096-0.672-0.2-1.047-0.313c-0.375-0.111-0.752-0.225-1.133-0.338c-0.381-0.114-0.728-0.25-1.041-0.406
					c-0.314-0.157-0.57-0.383-0.769-0.676s-0.297-0.645-0.297-1.056c0-0.676,0.272-1.239,0.817-1.688
					c0.545-0.45,1.281-0.676,2.205-0.676c1.283,0,2.302,0.42,3.055,1.26l-0.516,0.644c-0.254-0.342-0.602-0.614-1.047-0.817
					c-0.443-0.203-0.94-0.305-1.492-0.305c-0.646,0-1.162,0.148-1.543,0.443c-0.381,0.296-0.569,0.673-0.569,1.131
					c0,0.29,0.098,0.533,0.294,0.73c0.195,0.197,0.453,0.342,0.771,0.436c0.316,0.094,0.662,0.195,1.031,0.305
					c0.371,0.108,0.748,0.219,1.133,0.332c0.383,0.113,0.734,0.254,1.051,0.422c0.317,0.168,0.576,0.409,0.777,0.721
					c0.2,0.312,0.301,0.684,0.301,1.117c0,0.726-0.275,1.322-0.828,1.791c-0.553,0.467-1.342,0.703-2.365,0.703
					C246.443,229.805,245.355,229.354,244.561,228.45z"/>
				<path fill="#FFFFFF" d="M51.775,245.242c0-1.338,0.347-2.413,1.041-3.225c0.695-0.812,1.605-1.219,2.731-1.219
					c0.595,0,1.147,0.141,1.659,0.42c0.512,0.28,0.942,0.67,1.291,1.168v-1.373h0.909v8.414c0,0.623-0.1,1.166-0.298,1.629
					c-0.199,0.463-0.478,0.83-0.835,1.098c-0.358,0.27-0.757,0.467-1.196,0.593c-0.441,0.125-0.928,0.188-1.461,0.188
					c-0.756,0-1.381-0.09-1.879-0.271c-0.497-0.181-0.988-0.517-1.475-1.008l0.523-0.737c0.365,0.434,0.766,0.742,1.2,0.922
					c0.435,0.18,0.978,0.27,1.63,0.27c0.531,0,1.008-0.086,1.428-0.262c0.42-0.174,0.768-0.469,1.041-0.883
					c0.275-0.414,0.412-0.928,0.412-1.539v-1.355c-0.32,0.463-0.742,0.845-1.265,1.145c-0.523,0.301-1.085,0.45-1.686,0.45
					c-1.132,0-2.044-0.399-2.735-1.201C52.121,247.666,51.775,246.591,51.775,245.242z M53.533,242.639
					c-0.532,0.678-0.798,1.545-0.798,2.604c0,1.058,0.265,1.922,0.793,2.594c0.528,0.672,1.253,1.008,2.175,1.008
					c0.565,0,1.108-0.15,1.629-0.449c0.52-0.301,0.908-0.666,1.166-1.094v-4.125c-0.258-0.429-0.646-0.795-1.166-1.098
					c-0.521-0.303-1.063-0.455-1.629-0.455C54.787,241.623,54.064,241.962,53.533,242.639z"/>
				<path fill="#FFFFFF" d="M62.605,249.496v-8.48h0.908v1.457c0.83-1.092,1.784-1.638,2.865-1.638v1.003
					c-0.104-0.023-0.255-0.033-0.455-0.033c-0.423,0-0.882,0.156-1.376,0.471c-0.495,0.314-0.839,0.66-1.034,1.039v6.183
					L62.605,249.496L62.605,249.496z"/>
				<path fill="#FFFFFF" d="M68.068,246.88c0-0.589,0.146-1.103,0.441-1.539c0.295-0.438,0.662-0.759,1.102-0.965
					c0.441-0.206,0.915-0.31,1.424-0.31c1.201,0,2.162,0.404,2.882,1.209v-1.707c0-0.604-0.216-1.078-0.647-1.426
					c-0.431-0.347-0.974-0.521-1.625-0.521c-0.537,0-1.021,0.099-1.449,0.298c-0.43,0.199-0.835,0.514-1.219,0.945l-0.506-0.631
					c0.446-0.49,0.93-0.853,1.449-1.086c0.521-0.233,1.127-0.351,1.818-0.351c0.915,0,1.658,0.229,2.23,0.687
					c0.571,0.457,0.857,1.138,0.857,2.041v5.969h-0.909v-1.003c-0.743,0.812-1.704,1.218-2.882,1.218
					c-0.371,0-0.731-0.062-1.08-0.188c-0.35-0.127-0.665-0.306-0.947-0.537c-0.283-0.23-0.511-0.529-0.682-0.896
					C68.154,247.723,68.068,247.32,68.068,246.88z M69.029,246.896c0,0.602,0.215,1.1,0.646,1.498
					c0.431,0.397,0.99,0.596,1.677,0.596c0.521,0,1.003-0.1,1.45-0.301c0.445-0.199,0.816-0.488,1.114-0.865v-1.861
					c-0.292-0.389-0.662-0.682-1.11-0.879c-0.449-0.197-0.934-0.296-1.454-0.296c-0.687,0-1.245,0.198-1.677,0.596
					C69.244,245.781,69.029,246.286,69.029,246.896z"/>
				<path fill="#FFFFFF" d="M78.024,249.496v-8.48h0.909v1.277c0.337-0.4,0.787-0.749,1.35-1.046
					c0.564-0.297,1.135-0.446,1.711-0.446c1.779,0,2.668,0.92,2.668,2.762v5.935h-0.909v-5.746c0-0.772-0.177-1.319-0.532-1.644
					c-0.354-0.322-0.863-0.483-1.525-0.483c-0.527,0-1.049,0.144-1.566,0.429c-0.518,0.286-0.916,0.629-1.195,1.029v6.415
					L78.024,249.496L78.024,249.496z"/>
				<path fill="#FFFFFF" d="M87.381,245.264c0-1.34,0.348-2.418,1.041-3.236c0.695-0.818,1.605-1.229,2.732-1.229
					c0.594,0,1.15,0.143,1.668,0.426c0.518,0.282,0.944,0.67,1.281,1.162v-4.605h0.91v11.715h-0.91v-1.348
					c-0.314,0.455-0.732,0.83-1.256,1.123s-1.088,0.438-1.693,0.438c-1.133,0-2.045-0.403-2.736-1.212
					S87.381,246.611,87.381,245.264z M89.139,242.648c-0.531,0.685-0.797,1.557-0.797,2.615s0.266,1.928,0.797,2.605
					c0.531,0.678,1.255,1.018,2.17,1.018c0.577,0,1.123-0.146,1.638-0.438c0.515-0.293,0.9-0.649,1.157-1.073v-4.198
					c-0.257-0.435-0.645-0.803-1.162-1.104s-1.062-0.451-1.633-0.451C90.394,241.623,89.67,241.965,89.139,242.648z"/>
				<path fill="#FFFFFF" d="M97.758,245.242c0-0.812,0.173-1.557,0.521-2.234c0.348-0.677,0.833-1.215,1.458-1.611
					c0.624-0.397,1.318-0.597,2.082-0.597c0.83,0,1.551,0.206,2.162,0.617s1.067,0.954,1.369,1.625
					c0.301,0.672,0.451,1.425,0.451,2.261v0.239h-7.083c0.046,0.96,0.369,1.765,0.97,2.414c0.602,0.649,1.386,0.974,2.354,0.974
					c1.122,0,2.05-0.394,2.782-1.181l0.461,0.604c-0.878,0.904-1.982,1.357-3.312,1.357c-1.237,0-2.249-0.417-3.035-1.252
					C98.15,247.623,97.758,246.551,97.758,245.242z M98.718,244.822h6.175c-0.006-0.379-0.072-0.752-0.197-1.122
					c-0.127-0.37-0.311-0.716-0.551-1.036s-0.563-0.582-0.97-0.783c-0.407-0.199-0.864-0.301-1.374-0.301
					c-0.481,0-0.919,0.1-1.314,0.297c-0.395,0.198-0.714,0.456-0.957,0.773c-0.244,0.318-0.436,0.664-0.576,1.037
					C98.813,244.061,98.734,244.438,98.718,244.822z"/>
				<path fill="#FFFFFF" d="M112.962,245.264c0-1.34,0.347-2.418,1.042-3.236c0.694-0.818,1.605-1.229,2.73-1.229
					c0.596,0,1.151,0.143,1.669,0.426c0.517,0.282,0.944,0.67,1.282,1.162v-4.605h0.908v11.715h-0.908v-1.348
					c-0.314,0.455-0.733,0.83-1.257,1.123c-0.522,0.293-1.088,0.438-1.694,0.438c-1.131,0-2.043-0.403-2.734-1.212
					C113.308,247.689,112.962,246.611,112.962,245.264z M114.72,242.648c-0.532,0.685-0.798,1.557-0.798,2.615
					s0.266,1.928,0.798,2.605c0.532,0.678,1.255,1.018,2.17,1.018c0.577,0,1.123-0.146,1.638-0.438
					c0.515-0.293,0.9-0.649,1.158-1.073v-4.198c-0.258-0.435-0.645-0.803-1.162-1.104c-0.518-0.301-1.062-0.451-1.634-0.451
					C115.975,241.623,115.252,241.965,114.72,242.648z"/>
				<path fill="#FFFFFF" d="M123.338,245.242c0-0.812,0.174-1.557,0.521-2.234c0.348-0.677,0.834-1.215,1.458-1.611
					c0.624-0.397,1.317-0.597,2.081-0.597c0.831,0,1.551,0.206,2.163,0.617c0.61,0.411,1.067,0.954,1.369,1.625
					c0.301,0.672,0.452,1.425,0.452,2.261v0.239h-7.084c0.045,0.96,0.369,1.765,0.971,2.414c0.601,0.649,1.385,0.974,2.353,0.974
					c1.122,0,2.05-0.394,2.782-1.181l0.461,0.604c-0.879,0.904-1.982,1.357-3.312,1.357c-1.236,0-2.248-0.417-3.035-1.252
					C123.731,247.623,123.338,246.551,123.338,245.242z M124.299,244.822h6.174c-0.006-0.379-0.07-0.752-0.197-1.122
					c-0.125-0.37-0.309-0.716-0.549-1.036s-0.563-0.582-0.971-0.783c-0.406-0.199-0.865-0.301-1.374-0.301
					c-0.481,0-0.919,0.1-1.313,0.297c-0.396,0.198-0.715,0.456-0.958,0.773c-0.243,0.318-0.435,0.664-0.575,1.037
					C124.396,244.059,124.316,244.438,124.299,244.822z"/>
				<path fill="#FFFFFF" d="M139.049,245.002v-7.221h1.004v7.209c0,1.195,0.307,2.13,0.918,2.802
					c0.613,0.672,1.488,1.008,2.627,1.008c1.141,0,2.018-0.336,2.633-1.008s0.922-1.606,0.922-2.802v-7.209h1.004v7.221
					c0,1.475-0.389,2.628-1.168,3.46c-0.776,0.832-1.907,1.248-3.391,1.248c-1.471,0-2.596-0.417-3.377-1.252
					S139.049,246.471,139.049,245.002z"/>
				<path fill="#FFFFFF" d="M151.406,249.496v-8.48h0.908v1.457c0.83-1.092,1.783-1.638,2.865-1.638v1.003
					c-0.104-0.023-0.256-0.033-0.455-0.033c-0.424,0-0.883,0.156-1.377,0.471s-0.839,0.66-1.033,1.039v6.183L151.406,249.496
					L151.406,249.496z"/>
				<path fill="#FFFFFF" d="M157.324,246.982v-5.969h0.908v5.77c0,0.777,0.176,1.324,0.526,1.636s0.862,0.468,1.531,0.468
					c0.524,0,1.043-0.136,1.552-0.408c0.51-0.271,0.912-0.604,1.211-1v-6.465h0.907v8.481h-0.907v-1.235
					c-0.373,0.415-0.832,0.76-1.378,1.036s-1.106,0.414-1.687,0.414c-0.881,0-1.545-0.22-1.993-0.66
					C157.548,248.609,157.324,247.92,157.324,246.982z"/>
				<path fill="#FFFFFF" d="M166.68,245.242c0-1.338,0.348-2.413,1.041-3.225c0.695-0.812,1.605-1.219,2.732-1.219
					c0.594,0,1.146,0.141,1.658,0.42c0.513,0.28,0.943,0.67,1.291,1.168v-1.373h0.91v8.414c0,0.623-0.101,1.166-0.299,1.629
					c-0.199,0.463-0.478,0.83-0.834,1.098c-0.359,0.27-0.759,0.467-1.197,0.593c-0.44,0.125-0.928,0.188-1.461,0.188
					c-0.756,0-1.381-0.09-1.879-0.271c-0.496-0.181-0.988-0.517-1.476-1.008l0.522-0.737c0.365,0.434,0.767,0.742,1.201,0.922
					s0.978,0.27,1.629,0.27c0.531,0,1.008-0.086,1.428-0.262c0.421-0.174,0.769-0.469,1.043-0.883
					c0.273-0.414,0.41-0.928,0.41-1.539v-1.355c-0.319,0.463-0.74,0.845-1.264,1.145c-0.523,0.301-1.086,0.45-1.686,0.45
					c-1.133,0-2.045-0.399-2.736-1.201C167.025,247.666,166.68,246.591,166.68,245.242z M168.438,242.639
					c-0.53,0.678-0.797,1.545-0.797,2.604c0,1.058,0.264,1.922,0.793,2.594c0.528,0.672,1.254,1.008,2.174,1.008
					c0.566,0,1.109-0.15,1.629-0.449c0.521-0.301,0.91-0.666,1.166-1.094v-4.125c-0.256-0.429-0.646-0.795-1.166-1.098
					c-0.52-0.303-1.062-0.455-1.629-0.455C169.691,241.623,168.969,241.962,168.438,242.639z"/>
				<path fill="#FFFFFF" d="M177.512,246.982v-5.969h0.908v5.77c0,0.777,0.176,1.324,0.527,1.636
					c0.351,0.312,0.861,0.468,1.529,0.468c0.526,0,1.045-0.136,1.553-0.408c0.51-0.271,0.912-0.604,1.209-1v-6.465h0.91v8.481h-0.91
					v-1.235c-0.371,0.415-0.83,0.76-1.375,1.036c-0.547,0.276-1.108,0.414-1.687,0.414c-0.881,0-1.545-0.22-1.993-0.66
					C177.734,248.609,177.512,247.92,177.512,246.982z"/>
				<path fill="#FFFFFF" d="M186.884,246.88c0-0.589,0.147-1.103,0.441-1.539c0.294-0.438,0.661-0.759,1.103-0.965
					c0.439-0.206,0.914-0.31,1.424-0.31c1.199,0,2.16,0.404,2.881,1.209v-1.707c0-0.604-0.215-1.078-0.646-1.426
					c-0.432-0.347-0.975-0.521-1.625-0.521c-0.538,0-1.021,0.099-1.449,0.298c-0.429,0.199-0.835,0.514-1.218,0.945l-0.506-0.631
					c0.444-0.49,0.929-0.853,1.448-1.086c0.521-0.233,1.127-0.351,1.818-0.351c0.914,0,1.657,0.229,2.229,0.687
					c0.571,0.457,0.858,1.138,0.858,2.041v5.969h-0.91v-1.003c-0.742,0.812-1.703,1.218-2.881,1.218
					c-0.373,0-0.731-0.062-1.08-0.188c-0.35-0.127-0.666-0.306-0.948-0.537c-0.283-0.23-0.511-0.529-0.683-0.896
					S186.884,247.32,186.884,246.88z M187.844,246.896c0,0.602,0.217,1.1,0.648,1.498c0.431,0.397,0.99,0.596,1.676,0.596
					c0.521,0,1.004-0.1,1.449-0.301c0.445-0.199,0.818-0.488,1.115-0.865v-1.861c-0.291-0.389-0.662-0.682-1.111-0.879
					c-0.448-0.197-0.934-0.296-1.453-0.296c-0.686,0-1.244,0.198-1.676,0.596S187.844,246.286,187.844,246.896z"/>
				<path fill="#FFFFFF" d="M195.536,241.014h1.021l3.096,7.41l3.054-7.41h1.038l-4.391,10.342
					c-0.447,1.053-1.168,1.578-2.162,1.578c-0.344,0-0.647-0.039-0.918-0.119l0.164-0.84c0.211,0.09,0.457,0.137,0.736,0.137
					c0.297,0,0.545-0.076,0.742-0.229c0.197-0.15,0.381-0.421,0.553-0.811l0.67-1.508L195.536,241.014z"/>
			</g>
		</g>
	</g>
</g>
<g id="Capa_4">
</g>
<g id="Capa_6" display="none">
</g>
<g id="_x31_" display="none">
</g>
<g id="pop_up_FB" display="none">
</g>
<g id="_x32_" display="none">
</g>
<g id="_x33_" display="none">
</g>
<g id="_x33__ok" display="none">
</g>
<g id="DENEGADA" display="none">
</g>
<g id="Lista_de_espera" display="none">
</g>
</svg>
