<?xml version="1.0" encoding="utf-8"?>
<!-- Generator: Adobe Illustrator 16.0.0, SVG Export Plug-In . SVG Version: 6.00 Build 0)  -->
<!DOCTYPE svg PUBLIC "-//W3C//DTD SVG 1.1//EN" "http://www.w3.org/Graphics/SVG/1.1/DTD/svg11.dtd">
<svg version="1.1" xmlns="http://www.w3.org/2000/svg" xmlns:xlink="http://www.w3.org/1999/xlink" x="0px" y="0px"
	 width="367.626px" height="320.619px" viewBox="0 0 367.626 320.619" enable-background="new 0 0 367.626 320.619"
	 xml:space="preserve">
<g id="Capa_3">
</g>
<g id="Capa_1">
	<g>
		<defs>
			<rect id="SVGID_39_" width="367.626" height="320.619"/>
		</defs>
		<clipPath id="SVGID_2_">
			<use xlink:href="#SVGID_39_"  overflow="visible"/>
		</clipPath>
		<g opacity="0.04" clip-path="url(#SVGID_2_)">
			<g>
				<g>
					<rect x="262.459" y="11.949" fill="#919191" width="0.959" height="41.672"/>
					<path fill="#919191" d="M265.117,55.825c0,1.198-0.975,2.174-2.18,2.174c-1.195,0-2.172-0.976-2.172-2.174
						c0-1.203,0.977-3.892,2.172-3.892C264.143,51.934,265.117,54.623,265.117,55.825z"/>
				</g>
				<g>
					<path fill="#161C16" d="M323.784,27.502l-1.419-4.923h-1.391c-3.071-21.088-16.725-30.354-27.203-40.615v-5.347h-4.977
						c-0.062-0.077-0.124-0.154-0.186-0.231c0.812-0.869,1.316-2.033,1.316-3.318c0-2.683-2.186-4.86-4.869-4.86
						c-2.686,0-4.863,2.177-4.863,4.86c0,1.152,0.402,2.208,1.072,3.041c-0.15,0.169-0.295,0.34-0.443,0.508h-4.479v4.706
						c-11.555,11.354-24.488,19.473-27.287,41.256h-1.004l-1.422,4.923h1.986c-0.072,1.35-0.113,2.742-0.113,4.192h73.105
						c0-1.446-0.049-2.839-0.131-4.192H323.784z"/>
					<path fill="#161C16" d="M305.215,89.495c-1.717-13.946-13.957-4.092-19.562-11.669c7.178-10.247,7.258-10.739,7.258-30.084
						l-2.473-13.555H279.98l-2.779,13.555c0,19.175,2.035,20.892,7.279,29.931c-7.248,8.94-18.099-2.109-19.604,11.823h-2.193
						l-0.773,3.968h46.297l-0.776-3.968H305.215z"/>
				</g>
			</g>
			<g>
				<g>
					<g>
						<rect x="102.253" y="-61.456" fill="#161C16" width="1.5" height="103.251"/>
						<rect x="105.143" y="-99.958" fill="#161C16" width="1.5" height="141.753"/>
						<rect x="108.031" y="-86.958" fill="#161C16" width="1.501" height="128.753"/>
					</g>
					<g>
						<g>
							<path fill="#161C16" d="M106.265,68.253c11.057,0,20.507-6.438,24.386-21.459H81.881
								C85.763,61.815,95.215,68.253,106.265,68.253z"/>
						</g>
						<g>
							<path fill="#161C16" d="M111.038,4.795h-0.02l-1.24-19.712l0.85-4.299h1.463v-2.49H99.439v2.49h1.297l0.865,4.459
								l-1.246,19.551h-0.017c0,22.349-18.74,39.462-18.74,39.462h49.477C119.066,35.528,111.215,20.65,111.038,4.795z"/>
						</g>
					</g>
				</g>
			</g>
			<g>
				<g>
					<g>
						
							<rect x="332.997" y="123.738" transform="matrix(0.0029 1 -1 0.0029 463.1553 -216.8333)" fill="#161C16" width="14.619" height="0.178"/>
						
							<rect x="333.503" y="123.739" transform="matrix(0.0029 1 -1 0.0029 463.6602 -217.3396)" fill="#161C16" width="14.619" height="0.177"/>
						
							<rect x="334.01" y="123.738" transform="matrix(0.0029 1 -1 0.0029 464.1428 -217.8547)" fill="#161C16" width="14.619" height="0.178"/>
						
							<rect x="334.515" y="123.739" transform="matrix(0.0029 1 -1 0.0029 464.6703 -218.3521)" fill="#161C16" width="14.62" height="0.177"/>
						
							<rect x="335.023" y="123.739" transform="matrix(0.0029 1 -1 0.0029 465.153 -218.8679)" fill="#161C16" width="14.619" height="0.177"/>
						
							<rect x="335.529" y="123.739" transform="matrix(0.0029 1 -1 0.0029 465.6573 -219.3737)" fill="#161C16" width="14.619" height="0.177"/>
						
							<rect x="336.036" y="123.739" transform="matrix(0.0029 1 -1 0.0029 466.1629 -219.8803)" fill="#161C16" width="14.619" height="0.177"/>
						
							<rect x="336.542" y="123.739" transform="matrix(0.0029 1 -1 0.0029 466.6675 -220.3869)" fill="#161C16" width="14.619" height="0.176"/>
						
							<rect x="337.048" y="123.739" transform="matrix(0.003 1 -1 0.003 467.1494 -220.9014)" fill="#161C16" width="14.619" height="0.176"/>
						
							<rect x="337.555" y="123.739" transform="matrix(0.003 1 -1 0.003 467.6547 -221.4083)" fill="#161C16" width="14.619" height="0.176"/>
						
							<rect x="338.062" y="123.74" transform="matrix(0.003 1 -1 0.003 468.1602 -221.9149)" fill="#161C16" width="14.619" height="0.176"/>
						
							<rect x="338.568" y="123.74" transform="matrix(0.003 1 -1 0.003 468.6648 -222.4214)" fill="#161C16" width="14.619" height="0.175"/>
						
							<rect x="339.074" y="123.74" transform="matrix(0.003 1 -1 0.003 469.1691 -222.9273)" fill="#161C16" width="14.619" height="0.175"/>
						
							<rect x="339.581" y="123.74" transform="matrix(0.003 1 -1 0.003 469.6747 -223.4339)" fill="#161C16" width="14.62" height="0.175"/>
						
							<rect x="340.087" y="123.74" transform="matrix(0.003 1 -1 0.003 470.1793 -223.9405)" fill="#161C16" width="14.619" height="0.174"/>
						
							<rect x="340.594" y="123.74" transform="matrix(0.0031 1 -1 0.0031 470.6609 -224.455)" fill="#161C16" width="14.619" height="0.174"/>
						
							<rect x="341.101" y="123.74" transform="matrix(0.0031 1 -1 0.0031 471.1661 -224.9619)" fill="#161C16" width="14.619" height="0.174"/>
					</g>
					<path fill-rule="evenodd" clip-rule="evenodd" fill="#919191" d="M349.988,129.166c0,0.311-0.25,0.568-0.566,0.568
						c0,0-2.361,0.854-5.465,0.691c-3.104-0.162-4.641-0.691-4.641-0.691c-0.318,0-0.572-0.258-0.572-0.568v-0.784
						c0-0.314,0.254-0.569,0.572-0.569c0,0,2.054,1.175,4.817,1.175c2.759,0,5.288-1.175,5.288-1.175
						c0.316,0,0.566,0.255,0.566,0.569V129.166z"/>
					
						<rect x="332.306" y="121.585" transform="matrix(0.0029 1 -1 0.0029 460.3738 -217.5258)" fill="#161C16" width="13.929" height="1.035"/>
					
						<rect x="342.481" y="121.584" transform="matrix(0.0029 1 -1 0.0029 470.5186 -227.7005)" fill="#161C16" width="13.929" height="1.037"/>
				</g>
				<g>
					<path fill-rule="evenodd" clip-rule="evenodd" fill="#161C16" d="M344.141,173.373c0-0.224-0.021-0.394-0.061-0.506
						c-0.045-0.107-0.111-0.198-0.213-0.259c-0.105-0.062-0.242-0.1-0.412-0.1c-0.238,0-0.413,0.063-0.532,0.178
						c-0.119,0.116-0.171,0.305-0.171,0.566v0.258h1.389V173.373z"/>
					<path fill-rule="evenodd" clip-rule="evenodd" fill="#161C16" d="M345.486,168.796c0.031-0.01,0.057-0.032,0.07-0.062
						c0.023-0.042,0.037-0.105,0.037-0.187c0-0.264-0.096-0.463-0.268-0.604c-0.244-0.19-0.619-0.285-1.133-0.285
						c-0.407,0-0.738,0.065-0.982,0.195c-0.191,0.105-0.325,0.236-0.389,0.398c-0.049,0.111-0.074,0.299-0.07,0.565h2.49
						C345.379,168.817,345.458,168.811,345.486,168.796z"/>
					<path fill-rule="evenodd" clip-rule="evenodd" fill="#161C16" d="M345.337,160.902c0.083,0,0.146-0.021,0.191-0.063
						c0.04-0.043,0.065-0.106,0.065-0.188c0-0.125-0.029-0.244-0.084-0.344c-0.061-0.106-0.141-0.185-0.247-0.241
						c-0.104-0.056-0.222-0.083-0.353-0.083c-0.147,0-0.283,0.031-0.402,0.095c-0.111,0.064-0.201,0.159-0.246,0.277
						c-0.049,0.122-0.07,0.301-0.068,0.542l1.024,0.002L345.337,160.902z"/>
					<path fill-rule="evenodd" clip-rule="evenodd" fill="#161C16" d="M345.543,187.782c-0.096-0.139-0.258-0.249-0.48-0.324
						c-0.219-0.081-0.506-0.117-0.865-0.117c-0.422,0-0.735,0.036-0.948,0.119c-0.207,0.077-0.363,0.181-0.445,0.3
						c-0.083,0.121-0.13,0.263-0.13,0.422c0,0.291,0.152,0.516,0.447,0.669c0.244,0.124,0.6,0.186,1.062,0.186
						c0.546,0,0.95-0.094,1.21-0.292c0.182-0.128,0.275-0.317,0.275-0.56C345.668,188.023,345.626,187.889,345.543,187.782z"/>
					<path fill-rule="evenodd" clip-rule="evenodd" fill="#161C16" d="M343.941,160.405c-0.051-0.106-0.125-0.187-0.215-0.244
						c-0.092-0.056-0.205-0.084-0.35-0.084c-0.143,0-0.261,0.028-0.349,0.08c-0.094,0.061-0.163,0.137-0.21,0.237
						c-0.045,0.104-0.07,0.271-0.066,0.504h1.264C344.016,160.676,343.989,160.508,343.941,160.405z"/>
					<path fill-rule="evenodd" clip-rule="evenodd" fill="#161C16" d="M344.183,139.958c0.546,0,0.95-0.098,1.21-0.286
						c0.182-0.136,0.275-0.325,0.275-0.563c0-0.162-0.042-0.299-0.125-0.41c-0.096-0.136-0.258-0.247-0.48-0.319
						c-0.219-0.077-0.506-0.116-0.865-0.116c-0.422,0-0.735,0.04-0.948,0.12c-0.207,0.076-0.363,0.175-0.445,0.297
						c-0.083,0.124-0.13,0.261-0.13,0.421c0,0.292,0.152,0.515,0.447,0.67C343.365,139.894,343.721,139.958,344.183,139.958z"/>
					<path fill-rule="evenodd" clip-rule="evenodd" fill="#161C16" d="M345.543,156.671c-0.096-0.137-0.258-0.243-0.48-0.323
						c-0.219-0.077-0.506-0.118-0.865-0.118c-0.422,0-0.735,0.042-0.948,0.12c-0.207,0.08-0.363,0.179-0.445,0.3
						c-0.083,0.124-0.13,0.266-0.13,0.425c0,0.292,0.152,0.514,0.447,0.667c0.244,0.125,0.6,0.188,1.062,0.188
						c0.546,0,0.95-0.096,1.21-0.287c0.182-0.136,0.275-0.322,0.275-0.562C345.668,156.918,345.626,156.781,345.543,156.671z"/>
					<path fill-rule="evenodd" clip-rule="evenodd" fill="#161C16" d="M349.422,128.5c0,0-2.529,1.177-5.288,1.177
						c-2.764,0-4.817-1.177-4.817-1.177c-0.318,0-0.572,0.258-0.572,0.572v82.622c0,0.314,0.254,0.568,0.572,0.568
						c0,0,1.537,0.529,4.641,0.69c3.104,0.162,5.465-0.69,5.465-0.69c0.316,0,0.566-0.254,0.566-0.568v-82.622
						C349.988,128.758,349.738,128.5,349.422,128.5z M342.971,137.889c0.318-0.317,0.713-0.476,1.187-0.476
						c0.41,0,0.763,0.117,1.069,0.356c0.414,0.312,0.616,0.757,0.616,1.33c0,0.575-0.195,1.017-0.585,1.333
						c-0.307,0.25-0.674,0.375-1.098,0.375c-0.475,0-0.871-0.162-1.189-0.484c-0.318-0.324-0.463-0.72-0.446-1.19
						C342.508,138.622,342.652,138.209,342.971,137.889z M345.639,148.876c-0.026-0.039-0.064-0.07-0.121-0.09
						c-0.034-0.021-0.139-0.028-0.3-0.028h-2.097c-0.166,0-0.27,0.007-0.312,0.028c-0.035,0.013-0.072,0.052-0.107,0.102
						c-0.027,0.055-0.049,0.122-0.049,0.213v0.102h-0.078v-1.656h0.078v0.105c0,0.09,0.021,0.162,0.057,0.22
						c0.02,0.042,0.062,0.071,0.113,0.095c0.035,0.017,0.137,0.027,0.299,0.027h2.097c0.165,0,0.269-0.01,0.311-0.029
						c0.044-0.015,0.081-0.051,0.112-0.104c0.03-0.051,0.041-0.121,0.041-0.209v-0.105h0.09v1.656h-0.09v-0.102
						C345.682,149.01,345.668,148.933,345.639,148.876z M345.682,147.326v-0.103c0-0.094-0.014-0.169-0.043-0.226
						c-0.026-0.04-0.064-0.069-0.121-0.09c-0.034-0.018-0.139-0.026-0.3-0.026h-2.097c-0.166,0-0.27,0.009-0.312,0.026
						c-0.035,0.013-0.072,0.05-0.107,0.102c-0.027,0.051-0.049,0.124-0.049,0.214v0.103h-0.078v-1.704h0.078v0.14
						c0,0.096,0.021,0.172,0.057,0.23c0.02,0.04,0.062,0.074,0.113,0.099c0.035,0.015,0.137,0.024,0.299,0.024h2.037
						c0.164,0,0.271-0.009,0.312-0.027c0.045-0.019,0.072-0.056,0.098-0.112c0.012-0.037,0.025-0.13,0.025-0.283v-0.264
						c0-0.171-0.029-0.312-0.096-0.424c-0.055-0.116-0.152-0.212-0.283-0.294c-0.131-0.083-0.32-0.159-0.568-0.232v-0.104
						l1.125,0.12v2.833H345.682z M345.682,144.108V144c0-0.088-0.014-0.164-0.043-0.22c-0.026-0.041-0.064-0.07-0.121-0.094
						c-0.034-0.017-0.139-0.025-0.3-0.025h-2.097c-0.166,0-0.27,0.008-0.312,0.025c-0.035,0.017-0.072,0.051-0.107,0.107
						c-0.027,0.053-0.049,0.121-0.049,0.207v0.108h-0.078v-1.705h0.078v0.143c0,0.093,0.021,0.168,0.057,0.228
						c0.02,0.039,0.062,0.072,0.113,0.096c0.035,0.021,0.137,0.031,0.299,0.031h2.037c0.164,0,0.271-0.01,0.312-0.035
						c0.045-0.018,0.072-0.056,0.098-0.108c0.012-0.039,0.025-0.133,0.025-0.285v-0.264c0-0.171-0.029-0.313-0.096-0.425
						c-0.055-0.115-0.152-0.211-0.283-0.295c-0.131-0.081-0.32-0.159-0.568-0.232v-0.103l1.125,0.121v2.833H345.682z
						 M342.686,149.867c-0.033-0.021-0.09-0.044-0.186-0.067v-0.082l1.062-0.029v0.093c-0.269,0.05-0.48,0.162-0.645,0.338
						c-0.16,0.181-0.244,0.375-0.244,0.59c0,0.16,0.047,0.288,0.13,0.38c0.082,0.101,0.183,0.146,0.292,0.146
						c0.074,0,0.139-0.016,0.188-0.049c0.076-0.045,0.148-0.122,0.221-0.22c0.053-0.073,0.143-0.245,0.271-0.513
						c0.188-0.373,0.361-0.624,0.523-0.756c0.16-0.129,0.353-0.195,0.564-0.195c0.264,0,0.502,0.107,0.689,0.315
						c0.197,0.207,0.29,0.475,0.29,0.793c0,0.1-0.011,0.197-0.03,0.286c-0.019,0.09-0.059,0.205-0.119,0.341
						c-0.029,0.073-0.046,0.138-0.046,0.185c0,0.042,0.017,0.087,0.046,0.133c0.035,0.042,0.082,0.081,0.149,0.109v0.083h-1.214
						v-0.083c0.336-0.068,0.594-0.207,0.768-0.403c0.184-0.196,0.271-0.411,0.271-0.64c0-0.177-0.047-0.315-0.145-0.418
						c-0.094-0.107-0.205-0.164-0.336-0.164c-0.072,0-0.146,0.023-0.215,0.063c-0.072,0.039-0.145,0.106-0.201,0.186
						c-0.064,0.081-0.146,0.228-0.25,0.434c-0.139,0.288-0.26,0.5-0.364,0.624c-0.099,0.128-0.21,0.224-0.335,0.294
						c-0.123,0.065-0.26,0.1-0.408,0.1c-0.254,0-0.469-0.096-0.647-0.283c-0.177-0.185-0.267-0.416-0.267-0.706
						c0-0.101,0.012-0.203,0.035-0.298c0.018-0.074,0.057-0.162,0.105-0.271c0.052-0.102,0.08-0.176,0.08-0.221
						C342.721,149.922,342.709,149.891,342.686,149.867z M345.639,191.492c-0.026-0.036-0.064-0.07-0.121-0.092
						c-0.034-0.018-0.139-0.024-0.3-0.024h-2.366l2.92,1.227v0.057l-2.889,1.242h2.252c0.152,0,0.248-0.006,0.285-0.015
						c0.078-0.021,0.145-0.064,0.192-0.132c0.048-0.068,0.069-0.175,0.069-0.321h0.09v1.093h-0.09v-0.032
						c0.008-0.074-0.007-0.141-0.033-0.201c-0.022-0.062-0.055-0.104-0.1-0.136c-0.034-0.034-0.1-0.058-0.17-0.073
						c-0.014-0.004-0.098-0.007-0.244-0.007h-2.014c-0.166,0-0.27,0.008-0.312,0.025c-0.035,0.017-0.072,0.054-0.107,0.106
						c-0.027,0.055-0.049,0.123-0.049,0.211v0.106h-0.078v-1.298l2.104-0.901l-2.104-0.88v-1.287h0.078v0.102
						c0,0.097,0.021,0.172,0.057,0.227c0.02,0.041,0.062,0.069,0.113,0.095c0.035,0.017,0.137,0.026,0.299,0.026h2.097
						c0.165,0,0.269-0.009,0.311-0.026c0.044-0.018,0.081-0.052,0.112-0.105c0.03-0.055,0.041-0.125,0.041-0.217v-0.102h0.09v1.661
						h-0.09v-0.104C345.682,191.621,345.668,191.548,345.639,191.492z M345.258,189.513c-0.307,0.247-0.674,0.371-1.098,0.371
						c-0.475,0-0.871-0.164-1.189-0.485c-0.318-0.322-0.463-0.719-0.446-1.189c-0.017-0.507,0.128-0.923,0.446-1.238
						c0.318-0.318,0.713-0.48,1.187-0.48c0.41,0,0.763,0.118,1.069,0.357c0.414,0.312,0.616,0.758,0.616,1.333
						C345.843,188.755,345.647,189.194,345.258,189.513z M343.516,163.832v0.081c-0.232,0.045-0.396,0.112-0.496,0.195
						c-0.102,0.084-0.172,0.2-0.219,0.355c-0.027,0.087-0.039,0.251-0.039,0.497v0.335h1.292v-0.065
						c0-0.206-0.064-0.355-0.192-0.451c-0.127-0.091-0.314-0.15-0.561-0.175v-0.084h1.686v0.084
						c-0.184,0.016-0.34,0.061-0.459,0.122c-0.117,0.062-0.193,0.132-0.23,0.213c-0.047,0.082-0.064,0.201-0.064,0.355h0.9
						c0.18,0,0.281-0.007,0.325-0.024c0.04-0.013,0.07-0.043,0.095-0.085c0.027-0.04,0.041-0.105,0.041-0.195v-0.191
						c0-0.303-0.07-0.544-0.211-0.724c-0.141-0.179-0.348-0.312-0.631-0.388v-0.089l1.02,0.144v2.764h-0.09v-0.102
						c0-0.093-0.014-0.169-0.043-0.226c-0.026-0.041-0.064-0.071-0.121-0.095c-0.034-0.016-0.139-0.025-0.3-0.025h-2.097
						c-0.145,0-0.238,0.004-0.27,0.013c-0.055,0.016-0.1,0.043-0.125,0.089c-0.051,0.058-0.074,0.139-0.074,0.245v0.102h-0.078
						v-2.673H343.516z M342.574,162.087v-1.532c0-0.366,0.031-0.625,0.1-0.779c0.062-0.153,0.16-0.272,0.289-0.361
						c0.129-0.087,0.271-0.129,0.414-0.129c0.155,0,0.295,0.055,0.412,0.168c0.121,0.108,0.217,0.312,0.291,0.592
						c0.068-0.304,0.156-0.521,0.254-0.645c0.143-0.177,0.326-0.266,0.555-0.266c0.238,0,0.441,0.095,0.595,0.288
						c0.191,0.238,0.288,0.582,0.288,1.037v1.627h-0.09c0-0.152-0.01-0.254-0.041-0.303c-0.025-0.053-0.061-0.092-0.104-0.113
						c-0.047-0.021-0.154-0.032-0.326-0.032h-2.08c-0.176,0-0.283,0.011-0.327,0.032c-0.042,0.021-0.077,0.061-0.111,0.114
						c-0.024,0.051-0.04,0.15-0.04,0.302H342.574z M342.729,167.682c0.129-0.287,0.32-0.5,0.578-0.649
						c0.256-0.146,0.547-0.221,0.869-0.221c0.226,0,0.436,0.039,0.627,0.112c0.188,0.071,0.338,0.162,0.469,0.277
						c0.121,0.113,0.219,0.248,0.293,0.398c0.076,0.149,0.133,0.331,0.18,0.549c0.014,0.096,0.027,0.248,0.027,0.45v1.433h-0.09
						v-0.109c0-0.09-0.011-0.161-0.041-0.213c-0.028-0.048-0.068-0.085-0.123-0.106c-0.031-0.015-0.135-0.021-0.3-0.021h-2.097
						c-0.166,0-0.27,0.007-0.312,0.026c-0.035,0.017-0.072,0.049-0.107,0.102c-0.027,0.054-0.049,0.128-0.049,0.213v0.109h-0.078
						v-1.433C342.574,168.215,342.627,167.911,342.729,167.682z M342.65,172.354c0.059-0.178,0.153-0.325,0.301-0.438
						c0.145-0.115,0.312-0.17,0.508-0.17c0.236,0,0.432,0.086,0.586,0.258c0.102,0.104,0.172,0.26,0.223,0.453l1.069-0.775
						c0.14-0.097,0.228-0.165,0.271-0.209c0.045-0.062,0.074-0.136,0.074-0.22h0.09v0.997l-1.459,1.041v0.22h0.898
						c0.172,0,0.279-0.012,0.326-0.034c0.043-0.023,0.084-0.056,0.104-0.113c0.031-0.051,0.041-0.156,0.041-0.302h0.09v1.629h-0.09
						c0-0.148-0.01-0.25-0.041-0.303c-0.025-0.053-0.061-0.088-0.104-0.108c-0.047-0.024-0.154-0.034-0.326-0.034h-2.08
						c-0.176,0-0.283,0.01-0.327,0.034c-0.042,0.021-0.077,0.055-0.111,0.111c-0.024,0.054-0.04,0.151-0.04,0.3h-0.078v-1.487
						C342.574,172.819,342.602,172.532,342.65,172.354z M343.516,175.226v0.086c-0.232,0.043-0.396,0.107-0.496,0.19
						c-0.102,0.086-0.172,0.202-0.219,0.353c-0.027,0.089-0.039,0.257-0.039,0.498v0.338h1.292v-0.067
						c0-0.207-0.064-0.357-0.192-0.447c-0.127-0.093-0.314-0.15-0.561-0.176v-0.087h1.686V176c-0.184,0.019-0.34,0.06-0.459,0.12
						c-0.117,0.061-0.193,0.136-0.23,0.211c-0.047,0.085-0.064,0.2-0.064,0.359h0.9c0.18,0,0.281-0.008,0.325-0.026
						c0.04-0.015,0.07-0.042,0.095-0.083c0.027-0.041,0.041-0.109,0.041-0.197v-0.193c0-0.301-0.07-0.541-0.211-0.722
						c-0.141-0.181-0.348-0.312-0.631-0.391v-0.087l1.02,0.145v2.763h-0.09v-0.106c0-0.094-0.014-0.166-0.043-0.222
						c-0.026-0.042-0.064-0.075-0.121-0.094c-0.034-0.02-0.139-0.026-0.3-0.026h-2.097c-0.145,0-0.238,0.005-0.27,0.012
						c-0.055,0.016-0.1,0.045-0.125,0.086c-0.051,0.063-0.074,0.141-0.074,0.245v0.106h-0.078v-2.675H343.516z M342.652,178.118
						v0.107c0,0.087,0.021,0.162,0.057,0.216c0.02,0.044,0.062,0.076,0.113,0.097c0.035,0.022,0.137,0.03,0.299,0.03h2.097
						c0.165,0,0.269-0.008,0.311-0.03c0.044-0.017,0.081-0.053,0.112-0.105c0.03-0.051,0.041-0.12,0.041-0.208v-0.107h0.09v1.661
						h-0.09v-0.107c0-0.093-0.014-0.167-0.043-0.224c-0.026-0.038-0.064-0.071-0.121-0.093c-0.034-0.018-0.139-0.024-0.3-0.024
						h-2.097c-0.166,0-0.27,0.006-0.312,0.024c-0.035,0.02-0.072,0.055-0.107,0.105c-0.027,0.052-0.049,0.121-0.049,0.212v0.107
						h-0.078v-1.661H342.652z M342.652,181.289v0.142c0,0.098,0.021,0.171,0.057,0.227c0.02,0.045,0.062,0.076,0.113,0.1
						c0.035,0.019,0.137,0.027,0.299,0.027h2.037c0.164,0,0.271-0.008,0.312-0.027c0.045-0.019,0.072-0.057,0.098-0.113
						c0.012-0.04,0.025-0.133,0.025-0.282v-0.268c0-0.17-0.029-0.309-0.096-0.421c-0.055-0.113-0.152-0.211-0.283-0.293
						c-0.131-0.081-0.32-0.162-0.568-0.235v-0.102l1.125,0.119v2.837h-0.09v-0.105c0-0.093-0.014-0.17-0.043-0.226
						c-0.026-0.039-0.064-0.072-0.121-0.093c-0.034-0.017-0.139-0.028-0.3-0.028h-2.097c-0.166,0-0.27,0.011-0.312,0.028
						c-0.035,0.018-0.072,0.054-0.107,0.106c-0.027,0.053-0.049,0.12-0.049,0.213v0.105h-0.078v-1.709H342.652z M342.652,184.507
						v0.146c0,0.093,0.021,0.168,0.057,0.228c0.02,0.04,0.062,0.07,0.113,0.099c0.035,0.016,0.137,0.024,0.299,0.024h2.037
						c0.164,0,0.271-0.008,0.312-0.029c0.045-0.018,0.072-0.057,0.098-0.11c0.012-0.041,0.025-0.137,0.025-0.286v-0.267
						c0-0.167-0.029-0.306-0.096-0.421c-0.055-0.114-0.152-0.21-0.283-0.295c-0.131-0.08-0.32-0.159-0.568-0.233v-0.102l1.125,0.12
						v2.835h-0.09v-0.104c0-0.095-0.014-0.167-0.043-0.223c-0.026-0.043-0.064-0.073-0.121-0.097
						c-0.034-0.016-0.139-0.026-0.3-0.026h-2.097c-0.166,0-0.27,0.01-0.312,0.026c-0.035,0.021-0.072,0.053-0.107,0.105
						c-0.027,0.054-0.049,0.122-0.049,0.214v0.104h-0.078v-1.708H342.652z M345.258,158.406c-0.307,0.247-0.674,0.373-1.098,0.373
						c-0.475,0-0.871-0.165-1.189-0.482c-0.318-0.327-0.463-0.722-0.446-1.193c-0.017-0.511,0.128-0.924,0.446-1.244
						c0.318-0.316,0.713-0.475,1.187-0.475c0.41,0,0.763,0.12,1.069,0.354c0.414,0.316,0.616,0.761,0.616,1.335
						C345.843,157.646,345.647,158.092,345.258,158.406z M342.709,153.774c0.02,0.04,0.062,0.073,0.113,0.096
						c0.035,0.018,0.137,0.026,0.299,0.026h2.037c0.164,0,0.271-0.009,0.312-0.03c0.045-0.016,0.072-0.053,0.098-0.112
						c0.012-0.036,0.025-0.127,0.025-0.282v-0.266c0-0.166-0.029-0.312-0.096-0.422c-0.055-0.115-0.152-0.214-0.283-0.293
						c-0.131-0.082-0.32-0.158-0.568-0.234v-0.104l1.125,0.121v2.835h-0.09v-0.107c0-0.093-0.014-0.168-0.043-0.224
						c-0.026-0.04-0.064-0.072-0.121-0.092c-0.034-0.016-0.139-0.027-0.3-0.027h-2.097c-0.166,0-0.27,0.011-0.312,0.027
						c-0.035,0.019-0.072,0.052-0.107,0.103c-0.027,0.055-0.049,0.125-0.049,0.213v0.107h-0.078v-1.708h0.078v0.141
						C342.652,153.639,342.674,153.716,342.709,153.774z M344.646,205.5c0.076,0.03,0.187,0.052,0.326,0.073
						c0.236,0.035,0.4,0.092,0.49,0.179c0.09,0.086,0.133,0.185,0.133,0.3c0,0.107-0.035,0.195-0.109,0.275
						c-0.076,0.077-0.162,0.112-0.26,0.112c-0.108,0-0.199-0.026-0.285-0.085c-0.078-0.059-0.166-0.169-0.252-0.323
						c-0.088-0.158-0.154-0.265-0.199-0.324c-0.045-0.059-0.121-0.146-0.236-0.262l-0.018,0.417c0,0.071,0.006,0.14,0.008,0.203
						c0.02,0.154,0.023,0.26,0.023,0.316c0,0.148-0.043,0.271-0.127,0.363c-0.082,0.093-0.184,0.139-0.297,0.139
						c-0.106,0-0.197-0.038-0.274-0.114c-0.079-0.078-0.117-0.176-0.117-0.292c0-0.164,0.077-0.322,0.236-0.473
						c0.153-0.15,0.247-0.246,0.284-0.292c0.043-0.062,0.096-0.164,0.156-0.311c-0.152,0.011-0.264,0.026-0.348,0.048
						c-0.078,0.022-0.196,0.075-0.359,0.16c-0.168,0.085-0.295,0.125-0.385,0.125c-0.119,0-0.229-0.041-0.319-0.125
						c-0.089-0.084-0.138-0.178-0.138-0.278c0-0.112,0.042-0.208,0.129-0.289c0.086-0.083,0.193-0.123,0.333-0.123
						c0.103,0,0.231,0.039,0.384,0.123c0.15,0.081,0.27,0.132,0.348,0.158c0.078,0.022,0.199,0.04,0.355,0.053
						c-0.059-0.148-0.111-0.254-0.156-0.317c-0.045-0.062-0.137-0.155-0.27-0.279c-0.176-0.162-0.265-0.323-0.265-0.473
						c0-0.118,0.04-0.216,0.112-0.296c0.079-0.074,0.168-0.116,0.271-0.116c0.115,0,0.213,0.049,0.301,0.146
						c0.087,0.096,0.131,0.223,0.131,0.378c0,0.056-0.004,0.146-0.01,0.28c-0.002,0.065-0.008,0.133-0.008,0.205
						c0,0.099,0.008,0.246,0.018,0.442c0.129-0.111,0.217-0.198,0.265-0.263c0.049-0.061,0.108-0.17,0.19-0.323
						c0.08-0.154,0.162-0.267,0.25-0.335c0.065-0.049,0.15-0.074,0.248-0.074c0.115,0,0.207,0.036,0.285,0.113
						c0.078,0.077,0.115,0.168,0.115,0.273c0,0.112-0.047,0.211-0.135,0.304c-0.096,0.09-0.258,0.149-0.5,0.185
						c-0.15,0.02-0.262,0.042-0.334,0.067c-0.071,0.025-0.174,0.076-0.307,0.158C344.467,205.415,344.574,205.471,344.646,205.5z"/>
				</g>
				<g>
					
						<rect x="310.584" y="135.918" transform="matrix(0.0031 1 -1 0.0031 456.87 -186.1911)" fill="#161C16" width="22.476" height="0.273"/>
					
						<rect x="311.363" y="135.919" transform="matrix(0.0031 1 -1 0.0031 457.6599 -186.9636)" fill="#161C16" width="22.476" height="0.272"/>
					
						<rect x="312.142" y="135.919" transform="matrix(0.0031 1 -1 0.0031 458.4368 -187.7429)" fill="#161C16" width="22.476" height="0.272"/>
					
						<rect x="312.92" y="135.919" transform="matrix(0.0031 1 -1 0.0031 459.2127 -188.5212)" fill="#161C16" width="22.476" height="0.272"/>
					
						<rect x="313.7" y="135.919" transform="matrix(0.0031 1 -1 0.0031 459.9896 -189.3005)" fill="#161C16" width="22.476" height="0.272"/>
					
						<rect x="314.478" y="135.92" transform="matrix(0.003 1 -1 0.003 460.7802 -190.0724)" fill="#161C16" width="22.476" height="0.272"/>
					
						<rect x="315.256" y="135.92" transform="matrix(0.003 1 -1 0.003 461.5559 -190.851)" fill="#161C16" width="22.476" height="0.272"/>
					
						<rect x="316.036" y="135.919" transform="matrix(0.003 1 -1 0.003 462.3326 -191.6306)" fill="#161C16" width="22.476" height="0.272"/>
					
						<rect x="316.814" y="135.92" transform="matrix(0.003 1 -1 0.003 463.1228 -192.403)" fill="#161C16" width="22.476" height="0.271"/>
					
						<rect x="317.592" y="135.92" transform="matrix(0.003 1 -1 0.003 463.9131 -193.1754)" fill="#161C16" width="22.476" height="0.27"/>
					
						<rect x="318.371" y="135.921" transform="matrix(0.003 1 -1 0.003 464.6904 -193.9545)" fill="#161C16" width="22.476" height="0.27"/>
					
						<rect x="319.15" y="135.921" transform="matrix(0.003 1 -1 0.003 465.4666 -194.7326)" fill="#161C16" width="22.476" height="0.27"/>
					
						<rect x="319.928" y="135.921" transform="matrix(0.0029 1 -1 0.0029 466.2565 -195.5055)" fill="#161C16" width="22.476" height="0.269"/>
					
						<rect x="320.707" y="135.921" transform="matrix(0.0029 1 -1 0.0029 467.0336 -196.2848)" fill="#161C16" width="22.476" height="0.269"/>
					
						<rect x="321.486" y="135.921" transform="matrix(0.0029 1 -1 0.0029 467.8096 -197.0631)" fill="#161C16" width="22.476" height="0.269"/>
					
						<rect x="322.264" y="135.921" transform="matrix(0.0029 1 -1 0.0029 468.6002 -197.8356)" fill="#161C16" width="22.476" height="0.268"/>
					
						<rect x="323.043" y="135.921" transform="matrix(0.0029 1 -1 0.0029 469.3773 -198.6149)" fill="#161C16" width="22.476" height="0.268"/>
				</g>
				<path fill-rule="evenodd" clip-rule="evenodd" fill="#919191" d="M336.715,143.911c0,0.48-0.396,0.873-0.877,0.873
					c0,0-3.629,1.312-8.402,1.06c-4.773-0.247-7.135-1.06-7.135-1.06c-0.484,0-0.875-0.392-0.875-0.873v-0.845
					c0-0.482,0.391-0.878,0.875-0.878c0,0,3.16,1.809,7.396,1.809c4.244,0,8.141-1.809,8.141-1.809c0.48,0,0.877,0.396,0.877,0.878
					V143.911z"/>
				
					<rect x="309.522" y="132.611" transform="matrix(0.0031 1 -1 0.0031 452.6433 -187.2351)" fill="#161C16" width="21.415" height="1.593"/>
				
					<rect x="325.165" y="132.611" transform="matrix(0.003 1 -1 0.003 468.2685 -202.8661)" fill="#161C16" width="21.415" height="1.592"/>
				<g>
					<g>
						
							<rect x="344.133" y="128.851" transform="matrix(0.0032 1 -1 0.0032 483.4511 -226.9734)" fill="#161C16" width="22.878" height="0.305"/>
						
							<rect x="344.998" y="128.851" transform="matrix(0.0032 1 -1 0.0032 484.3137 -227.8386)" fill="#161C16" width="22.878" height="0.305"/>
						
							<rect x="345.863" y="128.851" transform="matrix(0.0032 1 -1 0.0032 485.1614 -228.7097)" fill="#161C16" width="22.878" height="0.305"/>
						
							<rect x="346.729" y="128.851" transform="matrix(0.0032 1 -1 0.0032 486.0396 -229.57)" fill="#161C16" width="22.878" height="0.305"/>
						
							<rect x="347.595" y="128.851" transform="matrix(0.0032 1 -1 0.0032 486.8873 -230.4412)" fill="#161C16" width="22.878" height="0.305"/>
						
							<rect x="348.46" y="128.851" transform="matrix(0.0032 1 -1 0.0032 487.7495 -231.3067)" fill="#161C16" width="22.877" height="0.305"/>
						
							<rect x="349.326" y="128.851" transform="matrix(0.0032 1 -1 0.0032 488.6278 -232.1669)" fill="#161C16" width="22.877" height="0.305"/>
						
							<rect x="350.191" y="128.851" transform="matrix(0.0032 1 -1 0.0032 489.4906 -233.0319)" fill="#161C16" width="22.878" height="0.305"/>
						
							<rect x="351.057" y="128.851" transform="matrix(0.0032 1 -1 0.0032 490.3381 -233.9031)" fill="#161C16" width="22.878" height="0.305"/>
						
							<rect x="351.923" y="128.851" transform="matrix(0.0032 1 -1 0.0032 491.1855 -234.7743)" fill="#161C16" width="22.878" height="0.305"/>
						
							<rect x="352.788" y="128.851" transform="matrix(0.0032 1 -1 0.0032 492.0477 -235.6397)" fill="#161C16" width="22.877" height="0.305"/>
						
							<rect x="353.653" y="128.852" transform="matrix(0.0032 1 -1 0.0032 492.9257 -236.4995)" fill="#161C16" width="22.877" height="0.304"/>
						
							<rect x="354.518" y="128.852" transform="matrix(0.0032 1 -1 0.0032 493.7885 -237.3645)" fill="#161C16" width="22.878" height="0.304"/>
						
							<rect x="355.384" y="128.851" transform="matrix(0.0032 1 -1 0.0032 494.6362 -238.2362)" fill="#161C16" width="22.878" height="0.305"/>
						
							<rect x="356.25" y="128.852" transform="matrix(0.0032 1 -1 0.0032 495.5143 -239.0959)" fill="#161C16" width="22.878" height="0.304"/>
					</g>
					<path fill-rule="evenodd" clip-rule="evenodd" fill="#919191" d="M372.122,138.739c0,0.539-0.44,0.976-0.976,0.976
						c0,0-4.029,1.455-9.338,1.177c-5.301-0.277-7.93-1.177-7.93-1.177c-0.537,0-0.97-0.437-0.97-0.976v-0.897
						c0-0.541,0.433-0.976,0.97-0.976c0,0,3.512,2.006,8.229,2.006c4.71,0,9.038-2.006,9.038-2.006c0.535,0,0.976,0.436,0.976,0.976
						V138.739z"/>
					
						<rect x="341.904" y="126.223" transform="matrix(0.003 1 -1 0.003 479.835 -227.0799)" fill="#161C16" width="23.797" height="1.768"/>
					<path fill-rule="evenodd" clip-rule="evenodd" fill="#161C16" d="M371.146,138.037c0,0-4.328,2.009-9.038,2.009
						c-4.718,0-8.229-2.009-8.229-2.009c-0.537,0-0.97,0.438-0.97,0.974v72.517c0,0.536,0.433,0.976,0.97,0.976
						c0,0,2.629,0.898,7.93,1.176c5.309,0.279,9.338-1.176,9.338-1.176c0.535,0,0.976-0.44,0.976-0.976v-72.517
						C372.122,138.476,371.682,138.037,371.146,138.037z M370.105,159.686c0,0-2.283,0.887-7.303,0.887
						c-5.019,0-8.07-0.887-8.07-0.887v-8.33c0,0,3.233,0.884,7.716,0.884c4.489,0,7.657-0.884,7.657-0.884V159.686z M370.105,149.91
						c0,0-2.283,0.883-7.303,0.883c-5.019,0-8.07-0.883-8.07-0.883v-8.333c0,0,3.233,0.886,7.716,0.886
						c4.489,0,7.657-0.886,7.657-0.886V149.91z"/>
				</g>
				<g>
					<path fill-rule="evenodd" clip-rule="evenodd" fill="#161C16" d="M327.199,176.617h-1.277v6.056h1.277
						c1.035,0,1.754-0.536,2.156-1.604c0.135-0.367,0.209-0.788,0.209-1.262c0-1.134-0.217-1.96-0.648-2.476
						C328.527,176.855,327.955,176.617,327.199,176.617z"/>
					<path fill-rule="evenodd" clip-rule="evenodd" fill="#161C16" d="M329.109,172.296c0.117-0.346,0.18-0.771,0.18-1.279
						c0-0.841-0.205-1.479-0.617-1.913c-0.374-0.397-0.869-0.597-1.473-0.597h-1.277v5.181h1.277
						C328.15,173.688,328.787,173.225,329.109,172.296z"/>
					<path fill-rule="evenodd" clip-rule="evenodd" fill="#161C16" d="M335.838,143.242c0,0-3.896,1.808-8.141,1.808
						c-4.236,0-7.396-1.808-7.396-1.808c-0.484,0-0.875,0.393-0.875,0.875v66.722c0,0.488,0.391,0.88,0.875,0.88
						c0,0,2.361,0.809,7.135,1.061c4.773,0.249,8.402-1.061,8.402-1.061c0.48,0,0.877-0.392,0.877-0.88v-66.722
						C336.715,143.634,336.318,143.242,335.838,143.242z M332.201,183.302c-0.377,0.704-0.91,1.264-1.602,1.684
						c-0.775,0.476-1.549,0.713-2.313,0.713h-5.667V165.4h4.58c1.211,0,2.299,0.32,3.27,0.954c0.828,0.54,1.426,1.375,1.783,2.51
						c0.193,0.604,0.291,1.321,0.291,2.152c0,1.361-0.365,2.449-1.084,3.269c-0.305,0.346-0.661,0.611-1.07,0.794
						c0.676,0.258,1.258,0.769,1.736,1.537c0.31,0.519,0.539,1.188,0.692,2.009c0.077,0.42,0.114,0.887,0.114,1.408
						C332.932,181.317,332.688,182.407,332.201,183.302z"/>
				</g>
			</g>
			<g>
				<rect x="183.505" y="77.295" fill="#919191" width="1.31" height="15.667"/>
				<polygon fill="#161C16" points="181.41,88.644 186.91,88.644 185.865,91.535 182.455,91.535 				"/>
				<polygon fill="#161C16" points="194.732,72.952 173.589,72.952 174.63,75.845 176.285,75.845 177.232,78.478 191.089,78.478 
					192.041,75.845 193.684,75.845 				"/>
				<g>
					<path fill="#161C16" d="M170.271,105.563h0.885c0-0.869-0.884-1.476-2.094-1.659c1.204-0.344,2.087-1.45,2.087-2.759
						c0-1.587-1.288-2.877-2.872-2.877c-1.586,0-2.875,1.29-2.875,2.877c0,1.31,0.885,2.416,2.09,2.759
						c-1.211,0.184-2.096,0.792-2.096,1.659h0.887c-1.896,2.709-3.232,9.356-3.232,18.503c0,12.114,2.342,20.897,5.226,20.897
						c2.885,0,5.222-8.783,5.222-20.897C173.499,114.919,172.165,108.272,170.271,105.563z M166.448,101.145
						c0-1.009,0.82-1.833,1.829-1.833c1.007,0,1.829,0.824,1.829,1.833c0,1.005-0.822,1.826-1.829,1.826
						C167.268,102.971,166.448,102.15,166.448,101.145z"/>
					<rect x="167.231" y="72.328" fill="#919191" width="2.088" height="27.77"/>
				</g>
				<g>
					<path fill="#161C16" d="M202.317,134.033h0.887c0-0.868-0.886-1.478-2.095-1.662c1.201-0.343,2.087-1.451,2.087-2.76
						c0-1.585-1.294-2.872-2.874-2.872s-2.869,1.287-2.869,2.872c0,1.31,0.881,2.417,2.082,2.76
						c-1.207,0.185-2.095,0.794-2.095,1.662h0.888c-1.895,2.71-3.23,9.357-3.23,18.504c0,12.115,2.34,20.894,5.225,20.894
						c2.882,0,5.227-8.779,5.227-20.894C205.549,143.391,204.213,136.743,202.317,134.033z M198.5,129.611
						c0-1.01,0.812-1.827,1.822-1.827s1.83,0.817,1.83,1.827c0,1.008-0.82,1.828-1.83,1.828S198.5,130.619,198.5,129.611z"/>
					<rect x="199.277" y="72.328" fill="#919191" width="2.091" height="56.239"/>
				</g>
				<g>
					<path fill="#161C16" d="M155.198,26.72v4.43c0,1.051-0.854,1.906-1.907,1.906l0,0c-1.055,0-1.905-0.855-1.905-1.906v-4.43"/>
					<path fill="#161C16" d="M159.92,26.72v4.43c0,1.051-0.853,1.906-1.909,1.906l0,0c-1.049,0-1.903-0.855-1.903-1.906v-4.43"/>
					<path fill="#161C16" d="M164.643,26.72v4.43c0,1.051-0.854,1.906-1.906,1.906l0,0c-1.052,0-1.909-0.855-1.909-1.906v-4.43"/>
					<path fill="#161C16" d="M169.361,26.72v4.43c0,1.051-0.85,1.906-1.901,1.906l0,0c-1.055,0-1.909-0.855-1.909-1.906v-4.43"/>
					<path fill="#161C16" d="M174.088,26.72v4.43c0,1.051-0.856,1.906-1.906,1.906l0,0c-1.055,0-1.907-0.855-1.907-1.906v-4.43"/>
					<path fill="#161C16" d="M178.809,26.72v4.43c0,1.051-0.853,1.906-1.903,1.906l0,0c-1.055,0-1.91-0.855-1.91-1.906v-4.43"/>
					<path fill="#161C16" d="M183.531,26.72v4.43c0,1.051-0.852,1.906-1.904,1.906l0,0c-1.058,0-1.905-0.855-1.905-1.906v-4.43"/>
					<path fill="#161C16" d="M188.254,26.72v4.43c0,1.051-0.854,1.906-1.908,1.906l0,0c-1.051,0-1.9-0.855-1.9-1.906v-4.43"/>
					<path fill="#161C16" d="M192.979,26.72v4.43c0,1.051-0.854,1.906-1.912,1.906l0,0c-1.049,0-1.897-0.855-1.897-1.906v-4.43"/>
					<path fill="#161C16" d="M197.701,26.72v4.43c0,1.051-0.855,1.906-1.908,1.906l0,0c-1.051,0-1.904-0.855-1.904-1.906v-4.43"/>
					<path fill="#161C16" d="M202.424,26.72v4.43c0,1.051-0.852,1.906-1.908,1.906l0,0c-1.051,0-1.902-0.855-1.902-1.906v-4.43"/>
					<path fill="#161C16" d="M207.146,26.72v4.43c0,1.051-0.853,1.906-1.904,1.906l0,0c-1.053,0-1.908-0.855-1.908-1.906v-4.43"/>
					<path fill="#161C16" d="M211.87,26.72v4.43c0,1.051-0.858,1.906-1.909,1.906l0,0c-1.055,0-1.902-0.855-1.902-1.906v-4.43"/>
					<path fill="#161C16" d="M216.588,26.72v4.43c0,1.051-0.849,1.906-1.9,1.906l0,0c-1.057,0-1.907-0.855-1.907-1.906v-4.43"/>
					<path fill="#161C16" d="M221.309,26.72v4.43c0,1.051-0.85,1.906-1.903,1.906l0,0c-1.054,0-1.905-0.855-1.905-1.906v-4.43"/>
				</g>
				<g>
					<path fill="#161C16" d="M224.098,28.414l-3.133-2.892h-2.09h-69.297h-2.088l-3.134,2.892h2.306v2.736
						c0,1.051,0.856,1.906,1.91,1.906c0.369,0,0.715-0.111,1.007-0.296v33.662h-2.104v2.633h-2.075v2.89h77.66v-2.89h-2.078v-2.633
						h-2.105V28.414H224.098z M186.314,66.421h-4.095c-7.799-1.008-13.847-7.686-13.847-15.754c0-8.764,7.128-15.898,15.894-15.898
						c8.77,0,15.894,7.134,15.894,15.898C200.16,58.736,194.117,65.414,186.314,66.421z"/>
					<polygon fill="#161C16" points="185.713,-14.54 184.299,-16.053 184.214,-15.972 184.126,-16.053 182.735,-14.559 
						139.067,27.167 141.043,29.28 184.215,-11.973 227.389,29.28 229.361,27.167 					"/>
					<path fill="#161C16" d="M184.138-8.901l-34.56,33.084h69.297L184.138-8.901z M177.867,21.048v-8.497
						c0-3.384,2.744-6.127,6.126-6.127c0,4.528,0.059,14.624,0.059,14.624H177.867z M184.761,21.048c0,0-0.05-10.096-0.05-14.624
						c3.383,0,6.129,2.743,6.129,6.127v8.497H184.761z"/>
					<polygon fill="#161C16" points="199.152,-3.676 208.207,4.683 208.207,-5.766 209.598,-5.766 209.598,-7.855 197.758,-7.855 
						197.758,-5.766 199.152,-5.766 					"/>
				</g>
				<path fill="#161C16" d="M171.376,51.956c-0.683,0-1.288-0.604-1.288-1.289c0-0.689,0.605-1.29,1.288-1.29
					c0.69,0,1.292,0.601,1.292,1.29C172.668,51.352,172.066,51.956,171.376,51.956z M173.097,45.51c-0.696,0-1.29-0.604-1.29-1.288
					c0-0.689,0.594-1.29,1.29-1.29c0.688,0,1.288,0.601,1.288,1.29C174.385,44.906,173.785,45.51,173.097,45.51z M173.097,58.397
					c-0.696,0-1.29-0.604-1.29-1.29c0-0.684,0.594-1.29,1.29-1.29c0.688,0,1.288,0.606,1.288,1.29
					C174.385,57.793,173.785,58.397,173.097,58.397z M177.822,40.784c-0.683,0-1.289-0.601-1.289-1.291
					c0-0.687,0.605-1.286,1.289-1.286c0.687,0,1.293,0.599,1.293,1.286C179.115,40.184,178.508,40.784,177.822,40.784z
					 M177.822,63.124c-0.683,0-1.289-0.603-1.289-1.288c0-0.688,0.605-1.293,1.289-1.293c0.687,0,1.293,0.605,1.293,1.293
					C179.115,62.521,178.508,63.124,177.822,63.124z M184.266,39.066c-0.688,0-1.29-0.6-1.29-1.291c0-0.688,0.602-1.29,1.29-1.29
					c0.686,0,1.292,0.601,1.292,1.29C185.558,38.466,184.952,39.066,184.266,39.066z M184.266,64.836
					c-0.688,0-1.29-0.597-1.29-1.284c0-0.691,0.602-1.289,1.29-1.289c0.686,0,1.292,0.597,1.292,1.289
					C185.558,64.239,184.952,64.836,184.266,64.836z M190.711,40.784c-0.688,0-1.291-0.601-1.291-1.291
					c0-0.687,0.604-1.286,1.291-1.286c0.686,0,1.291,0.599,1.291,1.286C192.002,40.184,191.396,40.784,190.711,40.784z
					 M190.711,63.124c-0.688,0-1.291-0.603-1.291-1.288c0-0.688,0.604-1.293,1.291-1.293c0.686,0,1.291,0.605,1.291,1.293
					C192.002,62.521,191.396,63.124,190.711,63.124z M195.434,45.51c-0.688,0-1.287-0.604-1.287-1.288c0-0.689,0.6-1.29,1.287-1.29
					c0.695,0,1.29,0.601,1.29,1.29C196.724,44.906,196.129,45.51,195.434,45.51z M195.434,58.397c-0.688,0-1.287-0.604-1.287-1.29
					c0-0.684,0.6-1.29,1.287-1.29c0.695,0,1.29,0.606,1.29,1.29C196.724,57.793,196.129,58.397,195.434,58.397z M197.154,51.956
					c-0.689,0-1.283-0.604-1.283-1.289c0-0.689,0.594-1.29,1.283-1.29c0.687,0,1.287,0.601,1.287,1.29
					C198.441,51.352,197.841,51.956,197.154,51.956z"/>
				<path fill="#161C16" d="M191.648,42.701c-0.148,0-0.228,0-0.375,0.071l-8.107,5.384l-3.509-2.013
					c-0.055-0.052-0.172-0.05-0.279-0.047c-0.335,0.008-0.55,0.241-0.543,0.575c0,0.116,0.003,0.167,0.062,0.277l2.987,4.677
					c0.048,0.083,0.107,0.161,0.166,0.233c0.456,0.769,1.299,1.297,2.239,1.297c0.967,0,1.784-0.589,2.225-1.338l5.801-8.002
					c0.07-0.076,0.07-0.223,0.07-0.373C192.385,42.999,192.095,42.701,191.648,42.701z M184.266,51.956
					c-0.688,0-1.29-0.604-1.29-1.289c0-0.689,0.602-1.29,1.29-1.29c0.686,0,1.292,0.601,1.292,1.29
					C185.558,51.352,184.952,51.956,184.266,51.956z"/>
			</g>
			<g>
				<path fill="#161C16" d="M358.822,88.989c-6.137,0-11.131-4.993-11.131-11.13c0-6.137,4.994-11.129,11.131-11.129
					c6.139,0,11.133,4.992,11.133,11.129C369.955,83.996,364.961,88.989,358.822,88.989z"/>
				<path fill="#161C16" d="M388.225,56.682h-58.803c-0.353,0-0.641,0.291-0.641,0.643v40.125c0,0.352,0.288,0.641,0.641,0.641
					h58.803c0.352,0,0.635-0.289,0.635-0.641V57.325C388.859,56.972,388.576,56.682,388.225,56.682z M337.889,76.028v5.754
					c0,0.544-0.443,0.988-0.987,0.988c-0.546,0-0.991-0.444-0.991-0.988v-5.675c-0.746-0.346-1.264-1.094-1.264-1.965
					c0-1.203,0.977-2.178,2.18-2.178c1.199,0,2.174,0.975,2.174,2.178C339,74.954,338.549,75.655,337.889,76.028z M343.266,65.937
					c0,0.299-0.236,0.534-0.529,0.534h-10.871c-0.298,0-0.536-0.235-0.536-0.534v-6.023c0-0.29,0.238-0.531,0.536-0.531h10.871
					c0.293,0,0.529,0.242,0.529,0.531V65.937z M358.822,92.677c-8.184,0-14.814-6.634-14.814-14.818
					c0-8.182,6.631-14.814,14.814-14.814c8.181,0,14.818,6.632,14.818,14.814C373.641,86.043,367.003,92.677,358.822,92.677z
					 M380.015,79.534c-1.198,0-2.171-0.976-2.171-2.177c0-1.203,0.973-2.176,2.171-2.176c1.208,0,2.179,0.973,2.179,2.176
					C382.193,78.558,381.223,79.534,380.015,79.534z M380.015,73.751c-1.198,0-2.171-0.971-2.171-2.171
					c0-1.204,0.973-2.176,2.171-2.176c1.208,0,2.179,0.972,2.179,2.176C382.193,72.78,381.223,73.751,380.015,73.751z"/>
				<path fill="#161C16" d="M370.86,19.035h-24.077c-1.087,0-1.967,0.881-1.967,1.968v20.415c0,1.088,0.88,1.969,1.967,1.969h2.334
					l1.854,10.92c0,0.609,0.492,1.103,1.104,1.103h13.494c0.611,0,1.107-0.494,1.107-1.103l1.855-10.92h2.329
					c1.085,0,1.966-0.881,1.966-1.969V21.003C372.826,19.916,371.945,19.035,370.86,19.035z M368.787,38.309
					c0,0.361-0.289,0.654-0.652,0.654h-18.629c-0.357,0-0.652-0.293-0.652-0.654V24.11c0-0.361,0.295-0.652,0.652-0.652h18.629
					c0.363,0,0.652,0.291,0.652,0.652V38.309z"/>
			</g>
			<g>
				<path fill="#161C16" d="M-7.084,131.416l0.172,3.452c0,0.601,0.342,1.033,0.777,1.295c0.865,0.601,1.81,1.118,2.845,1.551
					l1.277,11.818c0.085,1.124,1.039,2.071,2.155,2.071H6.74c1.12,0,2.07-0.947,2.156-2.071l1.28-11.818
					c1.033-0.433,1.979-0.95,2.845-1.551c0.428-0.262,0.776-0.694,0.776-1.295l0.17-3.452c2.328-2.503,3.713-5.867,3.713-9.578
					c0-3.71-1.385-7.076-3.713-9.576l-0.17-3.45c0-0.606-0.348-1.041-0.776-1.295c-0.866-0.602-1.812-1.125-2.845-1.556
					l-1.28-11.821c-0.086-1.124-1.037-2.066-2.156-2.066H0.142c-1.116,0-2.07,0.943-2.155,2.066l-1.277,11.821
					c-1.035,0.431-1.98,0.954-2.845,1.556c-0.435,0.254-0.777,0.689-0.777,1.295l-0.172,3.45c-2.33,2.5-3.714,5.866-3.714,9.576
					C-10.798,125.549-9.414,128.913-7.084,131.416z M3.523,95.896c0.674,0,1.217,0.544,1.217,1.218c0,0.671-0.542,1.215-1.217,1.215
					c-0.673,0-1.217-0.544-1.217-1.215C2.306,96.441,2.85,95.896,3.523,95.896z M3.523,101.734c0.674,0,1.217,0.545,1.217,1.219
					c0,0.671-0.542,1.214-1.217,1.214c-0.673,0-1.217-0.543-1.217-1.214C2.306,102.279,2.85,101.734,3.523,101.734z M-5.358,112.95
					l0.168-4.053c0.606-0.345,1.212-0.69,1.823-1.039l-0.179,3.623c1.896-1.373,4.398-2.152,6.989-2.152
					c2.589,0,5.004,0.779,6.989,2.152l-0.175-3.623c0.606,0.349,1.206,0.694,1.812,1.039l0.173,4.053
					c2.242,2.243,3.714,5.437,3.714,8.888c0,3.451-1.472,6.643-3.714,8.891l-0.173,4.053c-0.606,0.341-1.206,0.688-1.812,1.037
					l0.175-3.626c-1.985,1.381-4.4,2.155-6.989,2.155c-2.59,0-5.092-0.774-6.989-2.155l0.179,3.626
					c-0.611-0.35-1.217-0.696-1.823-1.037l-0.168-4.053c-2.243-2.248-3.712-5.439-3.712-8.891
					C-9.071,118.387-7.601,115.193-5.358,112.95z"/>
				<path fill="#161C16" d="M3.443,131.761c5.518,0,9.924-4.401,9.924-9.923c0-5.521-4.406-9.925-9.924-9.925
					c-5.52,0-9.924,4.404-9.924,9.925C-6.481,127.36-2.077,131.761,3.443,131.761z M2.311,120.341
					c0.244-0.263,0.559-0.424,0.894-0.487c0.246-0.078,0.506-0.097,0.76-0.042l5.187,0.616c0.091,0.025,0.124,0.049,0.189,0.106
					c0.19,0.171,0.207,0.406,0.042,0.599c-0.053,0.063-0.111,0.128-0.172,0.133l-4.169,1.141l-0.886,6.82
					c-0.031,0.101-0.06,0.136-0.125,0.203c-0.19,0.209-0.455,0.217-0.655,0.028c-0.073-0.064-0.142-0.127-0.142-0.192l-1.251-7.328
					C1.826,121.415,1.9,120.788,2.311,120.341z"/>
			</g>
			<g>
				<g>
					<path fill="#161C16" d="M132.106,126.749l-17.162-5.211l-1.247,3.033c0.163,0.276,0.274,0.583,0.292,0.91
						c0.053,1.115-0.875,2.15-1.987,2.205c-1.114,0.061-2.146-0.873-2.204-1.987c-0.057-1.108,0.871-2.144,1.984-2.201
						c0.095-0.006,0.187,0.007,0.279,0.016l1.043-2.535l-6.126-1.859l-1.268,2.896c0.17,0.283,0.289,0.6,0.307,0.941
						c0.058,1.123-0.864,2.151-1.987,2.207c-1.121,0.061-2.144-0.869-2.203-1.985c-0.062-1.121,0.863-2.143,1.989-2.205
						c0.085-0.004,0.172,0.007,0.255,0.015l1.09-2.495c-2.051-0.772-4.058-1.651-6.02-2.624l-1.246,2.776
						c0.224,0.312,0.371,0.681,0.392,1.078c0.057,1.112-0.87,2.137-1.979,2.192c-1.124,0.06-2.147-0.865-2.204-1.977
						c-0.059-1.119,0.865-2.143,1.987-2.204c0.038-0.001,0.074,0.007,0.11,0.007l1.233-2.748c-1.989-1.056-3.932-2.201-5.818-3.424
						c-0.611,0.908-1.688,1.519-2.926,1.519c-1.916,0-3.473-1.46-3.473-3.256c0-0.833,0.348-1.588,0.892-2.163
						c-0.268-0.206-0.535-0.411-0.801-0.62c-0.447-0.3-0.755-0.447-1.354-0.447c-0.454,0-0.9,0.146-1.206,0.302l-2.551,1.509
						c-0.755,0.442-1.047,1.046-1.047,1.943c0,0.451,0.148,0.754,0.292,1.058l2.417,4.204c0.137,0.309,0.207,0.763,0.294,1.203
						c0.52,2.625-1.108,3.591-2.01,3.891c-2.557,0.75-7.079,0.247-9.783,0.247c-4.209,0-3.785-2.155-7.398-3.966
						c-0.303-0.144-1.238-0.2-1.535-0.2c-0.9,0-1.41-0.181-1.857,0.571c-2.103,3.915-5.223,9.227-5.223,13.887
						c0,3.309,0.407,6.454,1.277,9.44h83.522c0.302-1.046,0.466-2.148,0.466-3.281C139.615,132.452,136.467,128.392,132.106,126.749
						z M80.851,139.069l-12.102-14.281h7.331l12.098,14.281H80.851z"/>
					<path fill="#161C16" d="M56.757,143.879c0.454,1.047,1.652,1.797,2.851,1.797h3.418c1.202,0,3.912,1.643,6.011,1.643
						c2.107,0,4.808-1.643,6.014-1.643H96.71c1.2,0,3.904,1.643,6.012,1.643c2.098,0,4.803-1.643,6.016-1.643h0.032
						c1.197,0,3.902,1.643,6.006,1.643c2.107,0,4.809-1.643,6.017-1.643h0.59c1.197,0,3.905,1.643,6.011,1.643
						c2.107,0,4.808-1.643,6.011-1.643h1.253c0.9,0,1.809-0.451,2.402-1.046c0.507-0.6,0.937-1.259,1.299-1.959H56.288
						C56.436,143.077,56.589,143.482,56.757,143.879z"/>
				</g>
				<polygon fill="#BABABA" points="87.702,124.789 79.514,124.789 91.618,139.069 99.806,139.069 				"/>
			</g>
			<g>
				<path fill="#BBBBBB" stroke="#000000" stroke-width="0.6429" stroke-miterlimit="10" d="M-11.077,336.308
					c-19.543,0-35.442-15.899-35.442-35.444c0-19.542,15.898-35.443,35.442-35.443c19.545,0,35.446,15.901,35.446,35.443
					C24.369,320.409,8.468,336.308-11.077,336.308z M-11.077,271.272c-16.317,0-29.591,13.276-29.591,29.592
					c0,16.319,13.274,29.595,29.591,29.595c16.319,0,29.595-13.276,29.595-29.595C18.518,284.548,5.242,271.272-11.077,271.272z"/>
				<g>
					<g>
						<path fill="#161C16" d="M84.627,252.782c-0.674,0-1.288-0.452-1.466-1.134L79.35,237.01l1.101-2.637l-17.873-0.268
							c-0.837-0.013-1.506-0.702-1.492-1.54c0.01-0.838,0.715-1.491,1.538-1.495l22.35,0.335l-2.431,5.829l3.553,13.647
							c0.21,0.811-0.275,1.641-1.085,1.85C84.883,252.767,84.754,252.782,84.627,252.782z"/>
						
							<rect x="-1.072" y="250.122" transform="matrix(0.471 0.8821 -0.8821 0.471 228.9773 121.9112)" fill="#161C16" width="27.824" height="3.508"/>
						<path fill="#BBBBBB" stroke="#000000" stroke-width="0.6429" stroke-miterlimit="10" d="M102.343,337.625
							c-20.27,0-36.757-16.49-36.757-36.76c0-20.266,16.487-36.754,36.757-36.754c20.266,0,36.755,16.488,36.755,36.754
							C139.098,321.135,122.609,337.625,102.343,337.625z M102.343,270.179c-16.923,0-30.69,13.765-30.69,30.686
							c0,16.924,13.767,30.691,30.69,30.691c16.922,0,30.688-13.767,30.688-30.691C133.031,283.943,119.266,270.179,102.343,270.179
							z"/>
						<g>
							<path fill="#161C16" d="M-4.51,243.514l23.751-2.054c0.687,0,1.236-0.555,1.236-1.236v-1.765
								c0-0.682-0.549-1.237-1.236-1.237L8.945,236.6l-11.137-2.7c-0.685,0-1.239,0.556-1.239,1.239l-2.318,7.138
								C-5.749,242.958-5.192,243.514-4.51,243.514z"/>
							<path fill="#161C16" d="M87.838,249.948c0.423,0.204,1.517-1.612,2.022-1.48c1.397,0.367,3.103,0.443,5.039,0.161
								l-1.618-11.086c-5.739,1.293-7.946,3.939-7.495,7C85.926,245.476,87.275,249.67,87.838,249.948z"/>
							<path fill="#161C16" d="M55.122,235.133l9.553-0.842c0.529,0.039,1.007-0.434,1.055-1.054l0.129-1.604
								c0.044-0.629-0.347-1.167-0.882-1.209l-9.496-0.077c-0.538-0.043-1.007,0.429-1.056,1.05l-0.178,2.533
								C54.193,234.552,54.594,235.089,55.122,235.133z"/>
						</g>
						<path fill="#161C16" d="M102.343,269.389c-2.88,0-5.668,0.396-8.321,1.125l-1.228-3.38c2.903-0.796,5.957-1.228,9.11-1.228
							v-5.058c-3.76,0-7.394,0.538-10.84,1.521l-6.221-17.117l-4.396,1.598l0.422,1.159l-67.903-0.047l-1.155-2.043l-8.273,18.075
							c-4.309-1.624-8.972-2.517-13.841-2.517c-21.718,0-39.385,17.67-39.385,39.388h4.676c0-19.139,15.569-34.711,34.708-34.711
							c4.176,0,8.181,0.742,11.891,2.098l-1.938,4.231c-3.336-1.264-6.951-1.965-10.729-1.965
							c-16.733,0-30.348,13.615-30.348,30.347c0,16.736,13.615,30.353,30.348,30.353c13.972,0,25.762-9.495,29.275-22.368
							l18.72,1.221c2.841,0.188,5.475-0.872,7.379-2.704l4.419,3.502h-2.683l-0.292,4.287l10.617-1.167v-3.121h-3.912
							c-0.04-0.048-0.086-0.095-0.137-0.135l-6.524-5.169c0.845-1.331,1.38-2.883,1.491-4.565c0.122-1.85-0.29-3.607-1.093-5.141
							l38.369-37.71l2.093,5.761c-14.271,5.984-24.322,20.099-24.322,36.518h5.055c0-14.237,8.665-26.486,20.997-31.759l1.241,3.418
							c-11.034,4.898-18.75,15.951-18.75,28.778c0,17.356,14.119,31.477,31.475,31.477c17.354,0,31.472-14.121,31.472-31.477
							C133.815,283.509,119.698,269.389,102.343,269.389z M2.661,277.147c5.839,3.393,10.317,8.876,12.4,15.42l-20.23,1.687
							L2.661,277.147z M-11.077,328.291c-15.121,0-27.423-12.304-27.423-27.427c0-15.12,12.302-27.422,27.423-27.422
							c3.343,0,6.547,0.604,9.509,1.705l-8.92,19.49c-3.134,0.098-5.746,2.562-5.952,5.762c-0.228,3.401,2.346,6.34,5.743,6.565
							l25.909,1.689C11.848,319.994,1.339,328.291-11.077,328.291z M-8.556,300.864c0,1.395-1.128,2.523-2.526,2.523
							c-1.389,0-2.52-1.128-2.52-2.523c0-1.393,1.13-2.521,2.52-2.521C-9.684,298.343-8.556,299.472-8.556,300.864z M18.041,292.319
							c-2.242-7.614-7.39-13.989-14.157-17.842l1.977-4.317c8.447,4.466,14.839,12.311,17.361,21.727L18.041,292.319z
							 M27.948,291.494c-2.728-11.133-10.197-20.417-20.142-25.588l4.445-9.708l19.77,34.956L27.948,291.494z M42.436,302.906
							l-4.39-3.477c-0.506-0.403-1.238-0.317-1.645,0.19c-0.398,0.506-0.316,1.241,0.194,1.641l4.321,3.425
							c-0.915,0.698-2.055,1.115-3.294,1.115c-3.011,0-5.458-2.442-5.458-5.456s2.447-5.456,5.458-5.456
							c3.012,0,5.454,2.442,5.454,5.456C43.076,301.271,42.843,302.144,42.436,302.906z M43.085,292.351
							c-1.4-0.968-3.064-1.591-4.885-1.711l-1.048,0.086l-20.752-36.695l65.625,0.046L43.085,292.351z M102.343,329.308
							c-15.683,0-28.443-12.76-28.443-28.444c0-11.518,6.887-21.452,16.757-25.919l8.19,22.543
							c-0.844,0.876-1.366,2.064-1.366,3.375c0,2.689,2.173,4.862,4.861,4.862c2.683,0,4.859-2.173,4.859-4.862
							c0-2.348-1.668-4.31-3.883-4.763l-8.259-22.729c2.326-0.616,4.765-0.95,7.283-0.95c15.68,0,28.438,12.76,28.438,28.442
							C130.782,316.548,118.023,329.308,102.343,329.308z M104.476,300.864c0,1.18-0.956,2.134-2.132,2.134
							c-1.181,0-2.131-0.955-2.131-2.134c0-1.175,0.95-2.132,2.131-2.132C103.52,298.732,104.476,299.689,104.476,300.864z"/>
					</g>
				</g>
			</g>
			<g>
				<defs>
					<filter id="Adobe_OpacityMaskFilter" filterUnits="userSpaceOnUse" x="-22.889" y="173.806" width="63.299" height="40.749">
						<feFlood  style="flood-color:white;flood-opacity:1" result="back"/>
						<feBlend  in="SourceGraphic" in2="back" mode="normal"/>
					</filter>
				</defs>
				<mask maskUnits="userSpaceOnUse" x="-22.889" y="173.806" width="63.299" height="40.749" id="SVGID_3_">
				</mask>
				<g mask="url(#SVGID_3_)">
					<g>
						<path fill="#161C16" d="M39.207,214.554c0.592,0,1.204-0.581,1.204-1.168l0,0c0-0.589-0.611-1.14-1.204-1.14l-5.281,0.049
							c-0.586,0-1.179,0.547-1.179,1.138l0,0c0,0.587,0.476,1.063,1.065,1.063L39.207,214.554z"/>
						<path fill="#161C16" d="M26.593,214.554c0.595,0,1.208-0.581,1.208-1.168l0,0c0-0.589-0.613-1.14-1.208-1.14l-5.276,0.049
							c-0.588,0-1.179,0.547-1.179,1.138l0,0c0,0.587,0.474,1.063,1.064,1.063L26.593,214.554z"/>
						<path fill="#161C16" d="M13.449,214.554c0.589,0,1.207-0.581,1.207-1.168l0,0c0-0.589-0.617-1.14-1.207-1.14l-5.28,0.049
							c-0.591,0-1.179,0.547-1.179,1.138l0,0c0,0.587,0.473,1.063,1.062,1.063L13.449,214.554z"/>
					</g>
				</g>
				<g>
					<g>
						<path fill="#161C16" d="M26.938,171.188c0.587,0,1.202-0.587,1.202-1.175s-0.614-1.137-1.202-1.137l-5.281,0.05
							c-0.593,0-1.18,0.549-1.18,1.136c0,0.59,0.473,1.065,1.065,1.065l1.494,0.017l0.039,2.008l-1.418,0.012
							c-0.593,0-1.18,0.551-1.18,1.14c0,0.586,0.473,1.066,1.065,1.066l5.396,0.056c0.587,0,1.202-0.581,1.202-1.169
							c0-0.591-0.614-1.138-1.202-1.138l-1.652,0.015l0.044-1.963L26.938,171.188z"/>
						<path fill="#161C16" d="M14.968,169.939c0-0.59-0.616-1.138-1.208-1.138l-5.277,0.049c-0.59,0-1.18,0.547-1.18,1.136
							c0,0.59,0.477,1.067,1.062,1.067l1.513,0.018c-0.013,0.06-0.022,0.121-0.022,0.183l0.036,1.897l-1.409,0.012
							c-0.59,0-1.18,0.551-1.18,1.14c0,0.586,0.477,1.066,1.062,1.066l5.394,0.056c0.592,0,1.208-0.581,1.208-1.169
							c0-0.591-0.616-1.138-1.208-1.138l-1.637,0.015l0.043-1.878c0-0.052-0.01-0.107-0.019-0.16l1.613,0.018
							C14.352,171.112,14.968,170.528,14.968,169.939z"/>
						<path fill="#161C16" d="M39.445,173.118l-1.584,0.015l0.051-2.183l1.533,0.017c0.592,0,1.206-0.581,1.206-1.173
							c0-0.584-0.613-1.134-1.206-1.134l-5.277,0.045c-0.592,0-1.178,0.551-1.178,1.137c0,0.589,0.473,1.066,1.061,1.066
							l1.556,0.016l0.044,2.227l-1.483,0.013c-0.592,0-1.178,0.551-1.178,1.14c0,0.586,0.473,1.066,1.061,1.066l5.395,0.056
							c0.592,0,1.206-0.581,1.206-1.169C40.651,173.665,40.038,173.118,39.445,173.118z"/>
					</g>
					<path fill="#161C16" d="M94.03,158.25c-0.697-1.088-1.287-1.392-1.441-0.641c-0.291,1.387-3.4,8.775-9.302,13.485
						c-0.665,0.361-1.294,0.789-1.859,1.304c-2.468,1.458-6.562,4.134-10.896,4.768c-0.33,0.048-0.805,0.096-1.407,0.14
						c-0.075-1.011-0.911-1.81-1.943-1.81c-1.078,0-1.958,0.875-1.958,1.958v0.057c-5.738,0.227-15.072,0.394-25.243,0.512v-1.27
						c0-0.252-0.215-0.454-0.484-0.454h-5.702c-0.27,0-0.487,0.202-0.487,0.454v1.342c-1.875,0.018-3.759,0.034-5.637,0.051v-1.393
						c0-0.252-0.219-0.454-0.493-0.454h-5.821c-0.274,0-0.493,0.202-0.493,0.454v1.446c-2.234,0.014-4.426,0.028-6.546,0.041v-1.487
						c0-0.252-0.211-0.454-0.464-0.454H8.389c-0.258,0-0.466,0.202-0.466,0.454v1.522c-10.395,0.049-17.857,0.06-17.857,0.06v5.593
						l7.003,0.109c-2.319,2.598-3.734,6.023-3.734,9.772c0,8.066,6.537,14.63,14.588,14.684v1.977c0,0.247,0.208,0.452,0.466,0.452
						h5.465c0.253,0,0.464-0.205,0.464-0.452v-1.974h6.546v1.974c0,0.247,0.219,0.452,0.493,0.452h5.821
						c0.274,0,0.493-0.205,0.493-0.452v-1.974h5.637v1.974c0,0.247,0.217,0.452,0.487,0.452h5.702c0.269,0,0.484-0.205,0.484-0.452
						v-1.974h4.018v0.805c0,1.041,0.845,1.888,1.891,1.888c1.04,0,1.883-0.847,1.883-1.888v-0.805h0.026
						c3.783,0,7.237-1.437,9.845-3.795c-0.033,0.217-0.053,0.437-0.053,0.663c0,2.648,2.149,4.796,4.794,4.796
						c2.652,0,4.799-2.147,4.799-4.796c0-2.649-2.147-4.797-4.799-4.797c-0.608,0-1.188,0.117-1.723,0.325
						c1.16-2.101,1.823-4.516,1.823-7.082c0-2.489-0.624-4.83-1.721-6.885l-7.261-0.269c1.989,1.772,3.288,4.479,3.288,7.154
						c0,4.514-3.673,8.185-8.186,8.185h-0.833v-0.138c0-1.043-0.843-1.887-1.883-1.887c-1.045,0-1.891,0.844-1.891,1.887v0.138
						h-4.018v-17.291l25.243,0.392v0.078c0,1.084,0.88,1.957,1.958,1.957c1.084,0,1.957-0.873,1.957-1.957v-0.019l0.961,0.016
						c5.777,0,11.876,5.816,16.37,11.111c4.494,5.298,5.113,9.39,5.113,9.39s0.548,1.864,1.165,1.042
						C101.653,194.852,101.228,169.442,94.03,158.25z M7.923,201.952c-4.126-0.415-7.356-3.907-7.356-8.143
						c0-4.234,3.23-7.728,7.356-8.145V201.952z M20.864,201.994h-6.546v-16.522l6.546-0.177V201.994z M33.308,201.994h-5.637
						v-16.882l5.637-0.152V201.994z M62.385,203.303c1.144,0,2.063,0.922,2.063,2.061c0,1.136-0.919,2.059-2.063,2.059
						c-1.134,0-2.054-0.923-2.054-2.059C60.331,204.225,61.251,203.303,62.385,203.303z"/>
				</g>
			</g>
			<g>
				<path fill="#161C16" d="M272.369,260.154c-1.293,0-2.338,1.047-2.338,2.341c0,1.292,1.045,2.341,2.338,2.341
					c1.296,0,2.342-1.049,2.342-2.341C274.711,261.201,273.665,260.154,272.369,260.154z"/>
				<g>
					<path fill="#161C16" d="M205.97,252.295v82.683c0,2.377,1.931,4.311,4.312,4.311h70.324c2.379,0,4.311-1.934,4.311-4.311
						v-82.683H205.97z M262.718,257.276h0.374v0.991h-0.374V257.276z M262.611,262.68c0,0.067,0,0.129-0.006,0.195l-0.35-0.027
						c0-0.003,0-0.003,0-0.003c0-0.002,0-0.002,0-0.002v-0.009c0-0.001,0-0.001,0-0.001v-0.001c0.002-0.038,0.002-0.076,0.014-0.117
						v-0.001c0-0.003,0-0.003,0-0.003c0-0.003,0-0.003,0-0.007c0,0,0,0,0-0.004c0,0,0,0,0-0.001c0,0,0,0,0-0.003v-0.004v-0.002
						c0,0,0-0.001,0-0.005c0,0,0,0,0-0.002v-0.003c0-0.068-0.012-0.134-0.014-0.199l0.348-0.039
						C262.609,262.518,262.611,262.602,262.611,262.68z M262.352,263.764c-0.07,0.129-0.146,0.253-0.234,0.369l-0.277-0.213
						c0.023-0.029,0.043-0.057,0.063-0.085h0.005c0,0,0,0,0-0.002v-0.002v-0.003c0,0,0,0,0-0.005h0.002h0.002
						c0-0.003,0-0.003,0-0.003c0.006-0.004,0.01-0.011,0.015-0.016c0-0.002,0.003-0.003,0.003-0.005
						c0.029-0.042,0.053-0.081,0.078-0.124v-0.001c0,0,0,0,0-0.001c0-0.005,0-0.007,0-0.007l0.004-0.003l0,0l0.002-0.003
						l0.004-0.002v-0.002c0,0,0.004,0,0.004-0.003v-0.003c0,0,0.006-0.006,0.006-0.009v-0.003v-0.001c0-0.004,0-0.004,0-0.004h0.002
						c0-0.002,0-0.002,0-0.002v-0.002l0.004-0.001c0-0.003,0-0.004,0-0.004v-0.001c0,0,0,0,0-0.004h0.006v-0.005l0.004-0.001
						L262.352,263.764z M262.33,261.554l-0.303,0.166c-0.006-0.005-0.014-0.016-0.02-0.022v-0.001c0,0,0,0,0-0.001v-0.002l0,0
						v-0.002c0,0,0,0,0-0.003l-0.004-0.001v-0.003H262c0-0.003,0-0.003,0-0.003s-0.006-0.001-0.006-0.005
						c-0.032-0.061-0.076-0.125-0.119-0.187l-0.006-0.001v-0.002c0,0,0,0-0.002-0.004c-0.018-0.02-0.033-0.043-0.053-0.067
						l0.27-0.221C262.178,261.307,262.256,261.426,262.33,261.554z M261.65,257.276h0.371v0.991h-0.371V257.276z M261.375,260.602
						l-0.169,0.307c0,0-0.003-0.003-0.009-0.006h-0.004c-0.004-0.002-0.004-0.002-0.004-0.002l-0.002-0.003h-0.004
						c0-0.004,0-0.004,0-0.004h-0.004h-0.001c0,0,0,0-0.001-0.004h-0.004l-0.002-0.002h-0.004v-0.001h-0.002
						c-0.004-0.004-0.004-0.004-0.004-0.004h-0.004h-0.004c0-0.003,0-0.003,0-0.003h-0.004l-0.002-0.001v-0.002h-0.002h-0.004
						c0-0.002,0-0.002,0-0.002s0,0,0-0.003h-0.006h-0.004v-0.002h-0.006v-0.001l0,0v-0.004h-0.004c0,0,0,0,0-0.002
						c-0.008,0-0.012-0.001-0.018-0.002v-0.003l0,0h-0.004v-0.003h-0.008c0,0,0,0,0-0.002l-0.004-0.002h-0.003v-0.002
						c-0.009-0.001-0.009-0.001-0.009-0.001h-0.002c0-0.002-0.006-0.002-0.006-0.002l0,0c-0.006-0.003-0.014-0.006-0.018-0.01
						h-0.004l-0.004-0.003h-0.002v-0.002h-0.006c0,0,0,0-0.008-0.003c-0.053-0.024-0.107-0.044-0.159-0.061l0.103-0.331
						C261.111,260.475,261.246,260.533,261.375,260.602z M261.414,264.737c-0.127,0.076-0.26,0.134-0.393,0.181l-0.117-0.331
						c0.1-0.031,0.197-0.074,0.283-0.122v-0.002h0.002l0.004-0.001h0.004c0,0,0,0,0.006-0.002l0,0l0.003-0.002h0.003l0.002-0.003
						v-0.001c0.007-0.003,0.014-0.005,0.02-0.005v-0.004c0,0,0,0,0-0.003h0.001h0.007l0.002-0.003l0.004-0.001L261.414,264.737z
						 M260.581,257.276h0.37v0.991h-0.37V257.276z M259.51,257.276h0.372v0.991h-0.372V257.276z M260.246,260.315v0.351h-0.001
						h-0.004h-0.001h-0.012h-0.002h-0.004h-0.005h-0.003h-0.002h-0.004h-0.003h-0.005h-0.002h-0.004h-0.002h-0.016h-0.002h-0.005
						h-0.003c0,0,0,0,0,0.001h-0.004h-0.018v0.002h-0.008h-0.004c-0.083,0.004-0.17,0.017-0.253,0.03l-0.063-0.343
						C259.961,260.329,260.104,260.315,260.246,260.315z M260.246,261.584c0.611,0,1.105,0.492,1.105,1.096
						c0,0.608-0.494,1.102-1.105,1.102c-0.602,0-1.096-0.493-1.096-1.102C259.15,262.076,259.645,261.584,260.246,261.584z
						 M260.126,264.693l-0.025,0.351c-0.146-0.011-0.292-0.034-0.435-0.068l0.087-0.341c0.007,0.002,0.01,0.003,0.01,0.003h0.001
						h0.006h0.004l0.004,0.004h0.004h0.004C259.891,264.67,260.004,264.687,260.126,264.693z M259.15,260.996
						c-0.018,0.007-0.025,0.015-0.041,0.024c0,0,0,0-0.006,0.003l-0.004,0.002h-0.002l-0.002,0.002v0.002l-0.008,0.002l0,0
						c-0.08,0.058-0.156,0.124-0.23,0.193l-0.245-0.256c0.107-0.098,0.226-0.188,0.345-0.267L259.15,260.996z M258.988,264.255
						l0.004,0.002v0.003h0.002v0.002H259v0.002c0.016,0.011,0.025,0.023,0.047,0.031l-0.209,0.284
						c-0.121-0.091-0.229-0.186-0.328-0.297l0.258-0.234c0.07,0.073,0.143,0.141,0.221,0.204
						C258.988,264.251,258.988,264.251,258.988,264.255L258.988,264.255z M258.443,257.276h0.369v0.991h-0.369V257.276z
						 M258.086,261.731l0.32,0.139c-0.014,0.023-0.02,0.047-0.033,0.072v0.003v0.001c0,0.006,0,0.006,0,0.006l-0.003,0.001v0.001
						h-0.003c0,0.003,0,0.003,0,0.003v0.001v0.004c0,0,0,0,0,0.003c-0.023,0.054-0.039,0.111-0.057,0.167v0.002v0.003v0.002
						c0,0.003,0,0.003,0,0.003l0,0v0.003h-0.006v0.002c-0.006,0.026-0.014,0.052-0.02,0.075l-0.336-0.077
						C257.979,262.002,258.025,261.868,258.086,261.731z M258.263,263.014c0.011,0.094,0.036,0.184,0.065,0.272
						c0,0.002,0,0.002,0,0.002v0.005l0,0c0,0,0,0,0,0.001l0.004,0.003v0.002v0.001c0,0,0,0,0,0.004v0.001c0,0,0,0,0,0.003
						c0,0,0,0,0.004,0.004c0.007,0.02,0.008,0.039,0.021,0.061l-0.327,0.118c-0.051-0.135-0.084-0.276-0.111-0.417L258.263,263.014z
						 M257.373,257.276h0.373v0.991h-0.373V257.276z M248.002,259.276c1.938,0,3.502,1.569,3.502,3.503
						c0,1.938-1.564,3.506-3.502,3.506c-1.935,0-3.506-1.569-3.506-3.506C244.496,260.845,246.067,259.276,248.002,259.276z
						 M238.215,259.276c1.936,0,3.499,1.569,3.499,3.503c0,1.938-1.563,3.506-3.499,3.506c-1.938,0-3.508-1.569-3.508-3.506
						C234.707,260.845,236.277,259.276,238.215,259.276z M228.42,259.276c1.938,0,3.503,1.569,3.503,3.503
						c0,1.938-1.565,3.506-3.503,3.506c-1.932,0-3.502-1.569-3.502-3.506C224.918,260.845,226.488,259.276,228.42,259.276z
						 M218.631,259.276c1.937,0,3.5,1.569,3.5,3.503c0,1.938-1.563,3.506-3.5,3.506c-1.934,0-3.505-1.569-3.505-3.506
						C215.126,260.845,216.697,259.276,218.631,259.276z M275.854,310.847c0,3.751-3.041,6.792-6.797,6.792h-47.225
						c-3.75,0-6.793-3.042-6.793-6.792V274.65h60.814V310.847z M274.316,266.017l-1.938,1.936l-1.918-1.916
						c-1.258-0.68-2.111-2.01-2.111-3.541c0-2.222,1.803-4.023,4.02-4.023c2.223,0,4.025,1.801,4.025,4.023
						C276.395,264.011,275.553,265.33,274.316,266.017z"/>
					<path fill="#161C16" d="M222.012,283.453h46.869c2.881,0,5.225-2.337,5.225-5.223v-1.647h-57.314v1.647
						C216.791,281.116,219.131,283.453,222.012,283.453z"/>
				</g>
				<g>
					<rect x="218.082" y="292.865" fill="#919191" width="54.725" height="1.455"/>
					<rect x="218.082" y="310.889" fill="#919191" width="54.725" height="1.455"/>
					<rect x="218.082" y="304.884" fill="#919191" width="54.725" height="1.453"/>
					<rect x="218.082" y="298.873" fill="#919191" width="54.725" height="1.455"/>
					<rect x="218.082" y="286.856" fill="#919191" width="54.725" height="1.453"/>
				</g>
				<path fill="#919191" d="M239.906,241.162c0,1.762-1.434,3.194-3.197,3.194h-17.244c-1.762,0-3.191-1.433-3.191-3.194l0,0
					c0-1.765,1.43-3.197,3.191-3.197h17.244C238.473,237.965,239.906,239.397,239.906,241.162L239.906,241.162z"/>
				<path fill="#919191" d="M274.066,241.162c0,1.762-1.43,3.194-3.193,3.194h-17.247c-1.763,0-3.196-1.433-3.196-3.194l0,0
					c0-1.765,1.434-3.197,3.196-3.197h17.247C272.637,237.965,274.066,239.397,274.066,241.162L274.066,241.162z"/>
				<path fill="#161C16" d="M284.82,242.452c0-0.946-0.632-1.577-1.572-1.577h-75.699c-0.953,0-1.579,0.631-1.579,1.577v7.408
					h78.851V242.452z"/>
			</g>
			<g>
				<path fill="#161C16" d="M185.291,265.939h7.242c3.141,0,5.523,2.919,4.762,6.059l-3.243,13.85
					c-0.54,2.164-2.379,3.892-4.761,3.892h-2.705c-0.645,0-1.189-0.432-1.082-1.08l0.219-2.272c0-0.54,0.543-0.975,1.084-0.975
					h1.621c0.543,0,0.969-0.431,1.084-0.863l2.047-11.902c0.114-0.649-0.318-1.298-1.076-1.298h-6.535"/>
				<g>
					<polygon fill="#161C16" points="164.943,255.382 167.684,253.798 170.428,255.382 170.428,258.546 167.684,260.129 
						164.943,258.546 					"/>
					<polygon fill="#161C16" points="186.047,263.498 186.463,261.003 167.739,256.259 148.91,261.003 149.326,263.498 					"/>
					<path fill="#161C16" d="M185.208,327.774l-3.577-26.055c-0.225-1.37-1.551-2.493-2.935-2.493h-22.023
						c-1.389,0-2.71,1.123-2.936,2.493l-3.58,26.055c-0.223,1.372,0.728,2.49,2.115,2.49h30.825
						C184.483,330.264,185.436,329.146,185.208,327.774z M158.772,324.289l-1.819-0.229l2.275-18.057l1.817,0.229L158.772,324.289z
						 M168.6,325.058h-1.831v-19.171h1.831V325.058z M176.604,324.281l-2.134-18.057l1.816-0.214l2.136,18.057L176.604,324.281z"/>
					<path fill="#161C16" d="M150.147,265.939h-0.589h-9.55v2.702c2.429,2.432,7.298,5.813,7.298,9.464
						c0,1.487,1.217,2.703,2.703,2.703h2.035l2.292,13.72c0.231,1.306,1.502,2.377,2.827,2.377h21.048
						c1.322,0,2.6-1.071,2.829-2.377l4.77-28.588H150.147z M159.084,290.494l-2.131-17.399l1.819-0.222l2.128,17.397
						L159.084,290.494z M168.6,290.611h-1.831v-20.566h1.831V290.611z M176.143,290.501l-1.812-0.238l2.275-17.399l1.816,0.239
						L176.143,290.501z"/>
				</g>
			</g>
			<path fill="#161C16" d="M298.711,203.403c-0.168,0-0.332,0.036-0.5,0.05l0.162-1.309c0.119-0.927-0.553-1.688-1.496-1.688
				h-28.281c-0.939,0-1.615,0.761-1.5,1.688l2.338,2.68c0.074,0.596,0.381,1.323,0.773,1.943l1.158,9.359
				c0,4.207,2.674,7.78,6.41,9.142h-0.871c-0.926,0-1.682,0.751-1.682,1.679c0,0.929,0.756,1.127,1.682,1.127h13.666
				c0.926,0,1.682-0.198,1.682-1.127c0-0.928-0.756-1.679-1.682-1.679h-0.867c3.734-1.362,6.406-4.936,6.406-9.142l0.076-0.607
				c0.775,0.337,1.625,0.529,2.525,0.529c3.496,0,6.322-2.828,6.322-6.322S302.207,203.403,298.711,203.403z M279.918,217.295
				c0,0.591-0.393,0.983-0.992,0.983c-0.586,0-0.98-0.393-0.98-0.983v-6.772c0-0.59,0.395-0.985,0.98-0.985
				c0.6,0,0.992,0.395,0.992,0.985V217.295z M284.859,216.021v4.128c0,0.676-0.453,1.122-1.121,1.122
				c-0.678,0-1.121-0.446-1.121-1.122v-4.157c-0.713-0.403-1.199-1.158-1.199-2.034s0.486-1.63,1.199-2.033v-5.308
				c0-0.674,0.443-1.125,1.121-1.125c0.668,0,1.121,0.451,1.121,1.125v5.279c0.742,0.392,1.256,1.163,1.256,2.061
				C286.115,214.857,285.602,215.629,284.859,216.021z M289.529,217.298c0,0.588-0.393,0.982-0.986,0.982
				c-0.589,0-0.982-0.395-0.982-0.982v-6.775c0-0.592,0.394-0.985,0.982-0.985c0.594,0,0.986,0.393,0.986,0.985V217.298z
				 M298.711,212.965c-0.812,0-1.543-0.309-2.11-0.8v-0.002c-0.173-0.147-0.325-0.308-0.464-0.49
				c-0.002-0.002-0.002-0.002-0.004-0.003c-0.125-0.167-0.232-0.348-0.324-0.535c-0.012-0.022-0.024-0.037-0.035-0.063
				c-0.076-0.168-0.134-0.352-0.183-0.538c-0.013-0.037-0.031-0.076-0.038-0.114c-0.051-0.227-0.077-0.458-0.077-0.694
				c0-0.289,0.046-0.566,0.122-0.833c0.014-0.065,0.033-0.127,0.057-0.19c0.083-0.242,0.184-0.482,0.321-0.697
				c0.009-0.008,0.011-0.018,0.015-0.025c0.16-0.242,0.347-0.465,0.565-0.656c0.012-0.01,0.021-0.019,0.035-0.028
				c0.218-0.19,0.459-0.351,0.722-0.481c0.426-0.207,0.897-0.327,1.398-0.327c1.789,0,3.236,1.448,3.236,3.236
				S300.5,212.965,298.711,212.965z"/>
			<path fill="#161C16" d="M302.979,113c-6.459-1.073-18.494-1.888-27.375,0.683c0,0-1.253-0.949-2.957-0.974
				c-1.695-0.023-3.145,0.974-3.145,0.974c-8.881-2.571-20.92-1.745-27.376-0.683c-0.802,0.211-0.802,3.85-0.2,4.062
				c1.217,0.635,1.816,2.525,1.816,2.525s0.398,1.285,1.416,5.985c0.998,4.723,3.631,5.585,3.631,5.585s4.079,0.848,7.713,0.848
				c3.631,0,5.863-0.211,8.273-1.498c2.424-1.288,3.432-4.709,3.432-4.709s1.215-4.205,2.018-6.976
				c0.098-0.432,0.146-1.624,2.223-1.6c2.123,0.022,2.123,1.168,2.221,1.6c0.801,2.784,2.015,6.976,2.015,6.976
				s1.015,3.421,3.433,4.709c2.428,1.287,4.645,1.498,8.275,1.498s7.715-0.848,7.715-0.848s2.631-0.637,3.631-5.563
				c1.016-4.92,1.42-5.983,1.42-5.983s0.596-1.891,1.814-2.528C303.793,116.859,303.793,113,302.979,113z M244.492,116.237
				c-0.723,0-1.307-0.429-1.307-0.962c0-0.529,0.584-0.958,1.307-0.958c0.721,0,1.02,0.43,1.02,0.958
				C245.512,115.809,245.213,116.237,244.492,116.237z M300.561,116.237c-0.721,0-1.02-0.429-1.02-0.962
				c0-0.529,0.299-0.958,1.02-0.958s1.309,0.43,1.309,0.958C301.869,115.809,301.281,116.237,300.561,116.237z"/>
			<g>
				<path fill="#161C16" d="M271.515,169.2c0,0.714-0.581,1.294-1.296,1.294h-9.895c-0.717,0-1.293-0.58-1.293-1.294l0,0
					c0-0.716,0.576-1.296,1.293-1.296h9.895C270.934,167.904,271.515,168.483,271.515,169.2L271.515,169.2z"/>
				<g>
					<path fill="#161C16" d="M305.612,183.524h-66.04v1.629c0,1.268,1.033,2.304,2.303,2.304h66.73
						C310.102,187.458,305.893,184.002,305.612,183.524z"/>
					<path fill="#161C16" d="M241.737,176.767l-1.992,4.668h63.12c-9.127-13.209-18.865-19.119-21.396-21.189v-2.947
						c0-0.919-0.807-1.729-1.727-1.729c-0.922,0-1.729,0.809-1.729,1.729v0.414c-4.144-2.534-8.982-3.914-14.162-3.914h-18.977
						c-2.305,0-4.15,1.612-4.498,3.797c0,0-3.349,11.718-3.848,13.935c-0.648,3.694,3.018,5.232,5.208,5.232V176.767z
						 M289.133,174.966c0.738,0,1.33,0.598,1.33,1.337c0,0.741-0.592,1.338-1.33,1.338c-0.748,0-1.342-0.597-1.342-1.338
						C287.791,175.564,288.385,174.966,289.133,174.966z M284.444,174.966c0.739,0,1.337,0.598,1.337,1.337
						c0,0.741-0.598,1.338-1.337,1.338s-1.339-0.597-1.339-1.338C283.105,175.564,283.705,174.966,284.444,174.966z
						 M278.764,175.245c0.587,0,1.062,0.474,1.062,1.058s-0.476,1.059-1.062,1.059h-19.328c-0.588,0-1.062-0.475-1.062-1.059
						s0.475-1.058,1.062-1.058H278.764z M242.67,167.271l1.811-4.834c0.227-1.615,1.727-2.881,3.453-2.881h15.918
						c4.605,0,8.523,2.881,10.133,6.796c0.115,0.343,0.23,0.804,0.23,1.264c0,1.958-0.249,3.456-2.205,3.456h-21.393
						C248.428,171.071,241.645,171.796,242.67,167.271z"/>
				</g>
			</g>
			<path fill="#161C16" d="M184.89,221.593h-3.483h-12.239h-14.871c-0.785,0-1.425,0.639-1.425,1.421v1.068
				c-0.484-0.128-0.988-0.201-1.513-0.201c-3.225,0-5.842,2.613-5.842,5.84s2.618,5.841,5.842,5.841
				c1.186,0,2.275-0.352,3.195-0.956c1.131,2.457,2.788,4.624,4.865,6.339l0.966,2.701c0,0.785,0.642,1.426,1.422,1.426h15.506
				c0.779,0,1.425-0.641,1.425-1.426l0.965-2.701c4.051-3.345,6.61-8.396,6.61-14.018v-3.914
				C186.312,222.231,185.676,221.593,184.89,221.593z M154.22,230.289c-0.026,0.133-0.07,0.263-0.118,0.39
				c-0.015,0.04-0.019,0.085-0.039,0.128c-0.135,0.33-0.326,0.63-0.565,0.887c-0.535,0.58-1.293,0.947-2.14,0.947
				c-1.613,0-2.919-1.307-2.919-2.92c0-1.612,1.307-2.92,2.919-2.92c0.56,0,1.078,0.168,1.523,0.441
				c0.403,0.246,0.732,0.589,0.975,0.99c0.024,0.039,0.045,0.084,0.067,0.126c0.087,0.158,0.156,0.324,0.207,0.496
				c0.02,0.059,0.041,0.114,0.056,0.173c0.054,0.223,0.089,0.453,0.089,0.693C154.275,229.915,154.256,230.104,154.22,230.289z
				 M165.502,228.928v8.556l-1.309-0.963v-7.589c-0.308-0.208-0.509-0.56-0.509-0.961c0-0.642,0.521-1.158,1.164-1.158
				c0.64,0,1.158,0.517,1.158,1.158C166.005,228.369,165.808,228.72,165.502,228.928z M167.987,238.944l-1.317-0.966v-7.303
				l1.317-0.966V238.944z M170.452,228.416v11.986h-1.312v-12.01c-0.604-0.266-1.025-0.87-1.025-1.574
				c0-0.95,0.764-1.714,1.713-1.714c0.95,0,1.715,0.764,1.715,1.714C171.543,227.547,171.089,228.166,170.452,228.416z
				 M172.818,237.978l-1.315,0.966v-9.235l1.315,0.966V237.978z M175.175,228.956v7.565l-1.314,0.963v-8.529
				c-0.303-0.209-0.505-0.561-0.505-0.961c0-0.64,0.522-1.161,1.164-1.161c0.644,0,1.163,0.521,1.163,1.161
				C175.681,228.394,175.481,228.746,175.175,228.956z"/>
			<g>
				<g>
					<path fill="#161C16" d="M129.151,213.075l-0.65-3.217c0-0.46-0.46-0.829-0.924-0.829h-1.594c-0.463,0-0.921,0.368-0.921,0.829
						l-0.372,0.904h-16.705c-2.036,0-3.696,1.664-3.696,3.701v28.653c0,5.085,4.159,9.245,9.236,9.245h6.473
						c5.084,0,9.239-4.16,9.239-9.245v-28.653C129.237,214.272,129.151,213.447,129.151,213.075z M120.437,214.022h2.71
						c0.482,0,0.867,0.391,0.867,0.867c0,0.479-0.385,0.868-0.867,0.868h-2.71V214.022z M114.339,214.022h4.055v1.735h-4.055
						V214.022z M110.005,214.022h2.292v1.735h-2.292c-0.476,0-0.867-0.389-0.867-0.868
						C109.138,214.413,109.529,214.022,110.005,214.022z M116.766,248.917c-1.295,0-2.314-1.021-2.314-2.311
						c0-1.296,1.019-2.311,2.314-2.311c1.292,0,2.309,1.014,2.309,2.311C119.075,247.896,118.058,248.917,116.766,248.917z
						 M125.213,240.201c0,0.532-0.356,0.89-0.89,0.89h-15.116c-0.537,0-0.889-0.357-0.889-0.89v-20.057
						c0-0.528,0.352-0.888,0.889-0.888h15.116c0.533,0,0.89,0.359,0.89,0.888V240.201z"/>
					<path fill="#919191" d="M111.221,247.067c-0.739,0-1.389-0.646-1.389-1.387c0-0.744,0.65-1.385,1.389-1.385
						c0.735,0,1.39,0.642,1.39,1.385C112.611,246.422,111.957,247.067,111.221,247.067z"/>
					<path fill="#919191" d="M122.315,247.067c-0.741,0-1.392-0.646-1.392-1.387c0-0.744,0.65-1.385,1.392-1.385
						c0.734,0,1.381,0.642,1.381,1.385C123.696,246.422,123.049,247.067,122.315,247.067z"/>
				</g>
				<g>
					<path fill="#919191" d="M122.401,221.751c0.275,0.206,0.33,0.598,0.126,0.871l-10.872,14.469
						c-0.208,0.271-0.596,0.328-0.868,0.123l0,0c-0.272-0.208-0.33-0.595-0.123-0.867l10.873-14.47
						C121.742,221.603,122.13,221.547,122.401,221.751L122.401,221.751z"/>
					<path fill="#919191" d="M122.297,226.908c0.275,0.204,0.33,0.593,0.126,0.866l-5.818,7.746
						c-0.208,0.271-0.596,0.327-0.869,0.123l0,0c-0.272-0.205-0.329-0.597-0.123-0.867l5.816-7.745
						C121.638,226.756,122.023,226.702,122.297,226.908L122.297,226.908z"/>
				</g>
			</g>
			<g>
				<g>
					<path fill="#919191" d="M36.384,82.348c-1.465,0-2.656-1.238-2.656-2.759V5.815c0-1.521,1.19-2.757,2.656-2.757
						c1.464,0,2.657,1.236,2.657,2.757v73.774C39.041,81.11,37.848,82.348,36.384,82.348z M36.384,4.329
						c-0.788,0-1.43,0.666-1.43,1.486v73.774c0,0.819,0.642,1.487,1.43,1.487c0.787,0,1.431-0.668,1.431-1.487V5.815
						C37.815,4.995,37.171,4.329,36.384,4.329z"/>
					<path fill="#919191" d="M45.978,82.45c-1.464,0-2.655-1.237-2.655-2.757V7.596c0-1.52,1.191-2.756,2.655-2.756
						c1.469,0,2.661,1.236,2.661,2.756v72.097C48.639,81.212,47.447,82.45,45.978,82.45z M45.978,6.112
						c-0.787,0-1.431,0.666-1.431,1.483v72.097c0,0.819,0.644,1.485,1.431,1.485c0.792,0,1.438-0.666,1.438-1.485V7.596
						C47.416,6.778,46.77,6.112,45.978,6.112z"/>
					<path fill="#919191" d="M26.783,82.45c-1.465,0-2.658-1.237-2.658-2.757V7.596c0-1.52,1.193-2.756,2.658-2.756
						c1.467,0,2.658,1.236,2.658,2.756v72.097C29.441,81.212,28.25,82.45,26.783,82.45z M26.783,6.112
						c-0.79,0-1.435,0.666-1.435,1.483v72.097c0,0.819,0.645,1.485,1.435,1.485c0.793,0,1.436-0.666,1.436-1.485V7.596
						C28.219,6.778,27.576,6.112,26.783,6.112z"/>
					<path fill="#919191" d="M55.576,69.991c-1.463,0-2.657-1.237-2.657-2.757V12.952c0-1.522,1.194-2.761,2.657-2.761
						c1.467,0,2.661,1.239,2.661,2.761v54.282C58.237,68.753,57.043,69.991,55.576,69.991z M55.576,11.462
						c-0.789,0-1.432,0.668-1.432,1.49v54.282c0,0.819,0.643,1.485,1.432,1.485c0.791,0,1.435-0.666,1.435-1.485V12.952
						C57.011,12.13,56.367,11.462,55.576,11.462z"/>
					<path fill="#919191" d="M17.187,69.991c-1.467,0-2.658-1.237-2.658-2.757V12.952c0-1.522,1.191-2.761,2.658-2.761
						s2.663,1.239,2.663,2.761v54.282C19.85,68.753,18.653,69.991,17.187,69.991z M17.187,11.462c-0.79,0-1.433,0.668-1.433,1.49
						v54.282c0,0.819,0.643,1.485,1.433,1.485c0.792,0,1.438-0.666,1.438-1.485V12.952C18.625,12.13,17.978,11.462,17.187,11.462z"
						/>
				</g>
				<g>
					<path fill="#919191" d="M56.233,17.458H17.244c-1.466,0-2.657-1.236-2.657-2.759c0-1.521,1.19-2.757,2.657-2.757h38.989
						c1.464,0,2.656,1.236,2.656,2.757C58.889,16.222,57.697,17.458,56.233,17.458z M17.244,13.214
						c-0.792,0-1.432,0.667-1.432,1.485c0,0.82,0.64,1.487,1.432,1.487h38.989c0.789,0,1.429-0.667,1.429-1.487
						c0-0.818-0.64-1.485-1.429-1.485H17.244z"/>
					<path fill="#919191" d="M52.854,72.15H20.62c-1.462,0-2.656-1.236-2.656-2.758c0-1.521,1.193-2.757,2.656-2.757h32.234
						c1.464,0,2.658,1.237,2.658,2.757C55.512,70.914,54.318,72.15,52.854,72.15z M20.62,67.907c-0.788,0-1.43,0.667-1.43,1.486
						c0,0.82,0.642,1.486,1.43,1.486h32.234c0.79,0,1.434-0.666,1.434-1.486c0-0.819-0.644-1.486-1.434-1.486H20.62z"/>
					<path fill="#919191" d="M62.87,26.573H10.6c-1.464,0-2.653-1.237-2.653-2.758c0-1.519,1.188-2.756,2.653-2.756h52.27
						c1.467,0,2.66,1.237,2.66,2.756C65.53,25.336,64.337,26.573,62.87,26.573z M10.6,22.332c-0.787,0-1.428,0.666-1.428,1.483
						c0,0.82,0.641,1.486,1.428,1.486h52.27c0.789,0,1.434-0.667,1.434-1.486c0-0.818-0.645-1.483-1.434-1.483H10.6z"/>
					<path fill="#919191" d="M59.436,63.036H14.04c-1.466,0-2.66-1.236-2.66-2.756c0-1.522,1.193-2.759,2.66-2.759h45.396
						c1.464,0,2.653,1.237,2.653,2.759C62.089,61.8,60.9,63.036,59.436,63.036z M14.04,58.792c-0.792,0-1.434,0.667-1.434,1.488
						c0,0.818,0.643,1.485,1.434,1.485h45.396c0.788,0,1.429-0.667,1.429-1.485c0-0.821-0.641-1.488-1.429-1.488H14.04z"/>
					<path fill="#919191" d="M66.308,35.689H7.166c-1.466,0-2.659-1.236-2.659-2.757c0-1.522,1.193-2.759,2.659-2.759h59.142
						c1.466,0,2.657,1.236,2.657,2.759C68.965,34.453,67.774,35.689,66.308,35.689z M7.166,31.445c-0.79,0-1.435,0.667-1.435,1.488
						c0,0.818,0.645,1.485,1.435,1.485h59.142c0.79,0,1.432-0.667,1.432-1.485c0-0.821-0.643-1.488-1.432-1.488H7.166z"/>
					<path fill="#919191" d="M66.308,44.806H7.166c-1.466,0-2.659-1.236-2.659-2.756c0-1.521,1.193-2.759,2.659-2.759h59.142
						c1.466,0,2.657,1.237,2.657,2.759C68.965,43.57,67.774,44.806,66.308,44.806z M7.166,40.563c-0.79,0-1.435,0.667-1.435,1.487
						s0.645,1.485,1.435,1.485h59.142c0.79,0,1.432-0.666,1.432-1.485s-0.643-1.487-1.432-1.487H7.166z"/>
					<path fill="#919191" d="M63.73,53.921H9.742c-1.463,0-2.655-1.237-2.655-2.758c0-1.521,1.192-2.757,2.655-2.757H63.73
						c1.463,0,2.657,1.236,2.657,2.757C66.387,52.685,65.193,53.921,63.73,53.921z M9.742,49.677c-0.79,0-1.431,0.667-1.431,1.486
						c0,0.82,0.641,1.488,1.431,1.488H63.73c0.789,0,1.431-0.667,1.431-1.488c0-0.819-0.643-1.486-1.431-1.486H9.742z"/>
				</g>
				<g>
					<rect x="31.045" y="133.333" fill="#161C16" width="10.898" height="1.596"/>
					<path fill="#161C16" d="M31.045,136.771v11.525c0,2.407,1.962,4.36,4.358,4.36h2.183c2.395,0,4.357-1.953,4.357-4.36v-11.525
						H31.045z"/>
					<path fill="#161C16" d="M36.496,2.289c-18.088,0-32.688,14.6-32.688,32.682c0,16.351,6.535,31.395,16.777,42.508
						c7.85,8.275,12.643,19.618,12.643,31.812c0,6.105-2.183,8.947-2.183,15.04v7.161h10.898v-7.161
						c0-6.093-2.182-8.935-2.182-15.04c0-12.194,4.797-23.537,12.644-31.812c10.24-11.114,16.779-26.157,16.779-42.508
						C69.185,16.889,54.585,2.289,36.496,2.289z M36.496,89.686c-1.745,0-3.268-1.533-3.268-3.27c0-1.738,1.523-3.272,3.268-3.272
						c1.744,0,3.266,1.534,3.266,3.272C39.762,88.152,38.24,89.686,36.496,89.686z M51.754,71.599
						c-3.711,4.358-9.156,7.187-15.258,7.187c-6.101,0-11.552-2.829-15.251-7.187C12.96,61.563,8.165,48.926,8.165,34.971
						c0-15.686,12.641-28.324,28.331-28.324c15.688,0,28.328,12.638,28.328,28.324C64.824,48.926,60.036,61.563,51.754,71.599z"/>
				</g>
			</g>
			<g>
				<g>
					<path fill="#161C16" d="M399.75,265.29l0.26,7.102h-89.108l-1.743,38.001c0,1.558,1.303,2.861,2.904,2.861h86.857
						c1.6,0,2.9-1.303,2.9-2.903L399.75,265.29z M381.656,276.726c1.639,0,2.97,1.329,2.97,2.971c0,1.635-1.331,2.969-2.97,2.969
						s-2.975-1.334-2.975-2.969C378.682,278.055,380.018,276.726,381.656,276.726z M372.93,276.726c1.643,0,2.974,1.329,2.974,2.971
						c0,1.635-1.331,2.969-2.974,2.969c-1.64,0-2.969-1.334-2.969-2.969C369.961,278.055,371.29,276.726,372.93,276.726z
						 M372.93,285.65c1.643,0,2.974,1.326,2.974,2.968c0,1.64-1.331,2.972-2.974,2.972c-1.64,0-2.969-1.332-2.969-2.972
						C369.961,286.977,371.29,285.65,372.93,285.65z M371.66,296.888c0,1.638-1.336,2.969-2.975,2.969
						c-1.643,0-2.972-1.331-2.972-2.969c0-1.643,1.329-2.972,2.972-2.972C370.324,293.917,371.66,295.246,371.66,296.888z
						 M364.213,276.726c1.637,0,2.966,1.329,2.966,2.971c0,1.635-1.329,2.969-2.966,2.969c-1.644,0-2.973-1.334-2.973-2.969
						C361.24,278.055,362.569,276.726,364.213,276.726z M364.213,285.65c1.637,0,2.966,1.326,2.966,2.968
						c0,1.64-1.329,2.972-2.966,2.972c-1.644,0-2.973-1.332-2.973-2.972C361.24,286.977,362.569,285.65,364.213,285.65z
						 M362.861,296.888c0,1.638-1.33,2.969-2.973,2.969c-1.639,0-2.97-1.331-2.97-2.969c0-1.643,1.331-2.972,2.97-2.972
						C361.531,293.917,362.861,295.246,362.861,296.888z M355.486,276.726c1.646,0,2.973,1.329,2.973,2.971
						c0,1.635-1.326,2.969-2.973,2.969c-1.635,0-2.965-1.334-2.965-2.969C352.521,278.055,353.852,276.726,355.486,276.726z
						 M355.486,285.65c1.646,0,2.973,1.326,2.973,2.968c0,1.64-1.326,2.972-2.973,2.972c-1.635,0-2.965-1.332-2.965-2.972
						C352.521,286.977,353.852,285.65,355.486,285.65z M354.06,296.888c0,1.638-1.329,2.969-2.968,2.969
						c-1.644,0-2.97-1.331-2.97-2.969c0-1.643,1.326-2.972,2.97-2.972C352.73,293.917,354.06,295.246,354.06,296.888z
						 M346.766,276.726c1.643,0,2.973,1.329,2.973,2.971c0,1.635-1.33,2.969-2.973,2.969s-2.973-1.334-2.973-2.969
						C343.793,278.055,345.123,276.726,346.766,276.726z M346.766,285.65c1.643,0,2.973,1.326,2.973,2.968
						c0,1.64-1.33,2.972-2.973,2.972s-2.973-1.332-2.973-2.972C343.793,286.977,345.123,285.65,346.766,285.65z M345.258,296.888
						c0,1.638-1.327,2.969-2.969,2.969c-1.638,0-2.969-1.331-2.969-2.969c0-1.643,1.331-2.972,2.969-2.972
						C343.931,293.917,345.258,295.246,345.258,296.888z M338.041,276.726c1.639,0,2.975,1.329,2.975,2.971
						c0,1.635-1.336,2.969-2.975,2.969c-1.642,0-2.967-1.334-2.967-2.969C335.074,278.055,336.399,276.726,338.041,276.726z
						 M338.041,285.65c1.639,0,2.975,1.326,2.975,2.968c0,1.64-1.336,2.972-2.975,2.972c-1.642,0-2.967-1.332-2.967-2.972
						C335.074,286.977,336.399,285.65,338.041,285.65z M329.32,276.726c1.641,0,2.967,1.329,2.967,2.971
						c0,1.635-1.326,2.969-2.967,2.969s-2.967-1.334-2.967-2.969C326.354,278.055,327.68,276.726,329.32,276.726z M320.6,276.726
						c1.642,0,2.968,1.329,2.968,2.971c0,1.635-1.326,2.969-2.968,2.969c-1.643,0-2.969-1.334-2.969-2.969
						C317.631,278.055,318.957,276.726,320.6,276.726z M317.631,288.619c0-1.642,1.326-2.968,2.969-2.968
						c1.642,0,2.968,1.326,2.968,2.968c0,1.64-1.326,2.972-2.968,2.972C318.957,291.59,317.631,290.258,317.631,288.619z
						 M324.684,299.857c-1.638,0-2.969-1.331-2.969-2.969c0-1.643,1.331-2.972,2.969-2.972c1.639,0,2.973,1.329,2.973,2.972
						C327.656,298.526,326.322,299.857,324.684,299.857z M326.354,288.619c0-1.642,1.326-2.968,2.967-2.968s2.967,1.326,2.967,2.968
						c0,1.64-1.326,2.972-2.967,2.972S326.354,290.258,326.354,288.619z M330.512,296.888c0-1.643,1.336-2.972,2.973-2.972
						c1.639,0,2.973,1.329,2.973,2.972c0,1.638-1.334,2.969-2.973,2.969C331.848,299.857,330.512,298.526,330.512,296.888z
						 M375.555,307.807h-40.441c-1.133,0-2.043-0.916-2.043-2.05c0-1.127,0.91-2.045,2.043-2.045h40.441
						c1.133,0,2.049,0.918,2.049,2.045C377.604,306.892,376.688,307.807,375.555,307.807z M377.49,299.857
						c-1.641,0-2.969-1.331-2.969-2.969c0-1.643,1.328-2.972,2.969-2.972c1.645,0,2.973,1.329,2.973,2.972
						C380.463,298.526,379.135,299.857,377.49,299.857z M378.682,288.619c0-1.642,1.336-2.968,2.975-2.968s2.97,1.326,2.97,2.968
						c0,1.64-1.331,2.972-2.97,2.972S378.682,290.258,378.682,288.619z M386.291,299.857c-1.635,0-2.969-1.331-2.969-2.969
						c0-1.643,1.334-2.972,2.969-2.972c1.644,0,2.973,1.329,2.973,2.972C389.264,298.526,387.935,299.857,386.291,299.857z
						 M390.379,291.59c-1.637,0-2.971-1.332-2.971-2.972c0-1.642,1.334-2.968,2.971-2.968c1.639,0,2.969,1.326,2.969,2.968
						C393.348,290.258,392.018,291.59,390.379,291.59z M390.379,282.666c-1.637,0-2.971-1.334-2.971-2.969
						c0-1.643,1.334-2.971,2.971-2.971c1.639,0,2.969,1.329,2.969,2.971C393.348,281.332,392.018,282.666,390.379,282.666z"/>
					<path fill="#161C16" d="M372.434,264.454h27.277l-0.109-2.355c-0.001-1.64-1.3-2.939-2.898-2.939H367
						C369.118,260.578,370.963,262.372,372.434,264.454z"/>
					<polygon fill="#161C16" points="311.113,269.851 399.817,269.851 399.817,268.014 311.172,268.014 					"/>
					<path fill="#161C16" d="M311.281,264.454h27.264c1.47-2.082,3.316-3.876,5.434-5.295h-29.701c-1.6,0-2.902,1.3-2.902,2.897
						l-0.318,6.935L311.281,264.454z"/>
				</g>
				<path fill="#161C16" d="M405.24,258.504c0-3.38-2.703-6.136-6.055-6.243v-3.388h1.094v2.83c2.314,0,4.189-1.879,4.189-4.187
					c0-2.312-1.875-4.187-4.189-4.187v2.82h-1.094v-2.895h-4.557v2.895h-1.99v-2.895h-0.166v-3.148h-1.527v-7.742h-70.541v7.742
					h-1.902v3.148h-0.164v2.895h-1.986v-2.895h-4.557v2.895h-12.501v1.102l-1.47,39.604c-2.117,0.201-3.777,1.981-3.777,4.151
					c0,2.062,1.502,3.771,3.469,4.106l-0.001,0.084h2.298l3.572-46.323h8.41v3.388c-3.357,0.107-6.057,2.863-6.057,6.243
					l-2.217,54.293c0,3.449,2.809,6.256,6.258,6.256h91.424c3.444,0,6.254-2.807,6.254-6.256L405.24,258.504z M392.639,248.873h1.99
					v3.378h-1.99V248.873z M316.352,248.873h1.986v3.378h-1.986V248.873z M398.92,315.092h-86.857c-2.615,0-4.742-2.128-4.742-4.741
					l2.217-48.337c0-2.57,2.127-4.694,4.74-4.694h33.096c2.492-1.064,5.232-1.662,8.113-1.662c2.887,0,5.627,0.597,8.121,1.662
					h33.096c2.611,0,4.738,2.125,4.738,4.737l2.215,48.254C403.656,312.964,401.533,315.092,398.92,315.092z"/>
				<path fill="#BBBBBB" stroke="#000000" stroke-width="0.6429" stroke-miterlimit="10" d="M338.545,265.004
					c3.754-5.317,9.938-8.796,16.941-8.796c7.01,0,13.193,3.479,16.947,8.796h13.215V225.41H325.33v39.594H338.545z M329.333,234.39
					h50.614v1.183h-50.614V234.39z M329.333,239.571h50.614v1.182h-50.614V239.571z M329.333,244.753h20.946v1.183h-20.946V244.753z
					"/>
			</g>
		</g>
	</g>
</g>
<g id="Capa_4">
</g>
<g id="Capa_6" display="none">
</g>
<g id="_x31_" display="none">
</g>
<g id="pop_up_FB" display="none">
</g>
<g id="_x32_" display="none">
</g>
<g id="_x33_" display="none">
</g>
<g id="_x33__ok" display="none">
</g>
<g id="DENEGADA" display="none">
</g>
<g id="Lista_de_espera" display="none">
</g>
</svg>
