<?xml version="1.0" encoding="UTF-8" standalone="no"?>
<!-- Generator: Adobe Illustrator 16.0.0, SVG Export Plug-In . SVG Version: 6.00 Build 0)  -->

<svg
   xmlns:dc="http://purl.org/dc/elements/1.1/"
   xmlns:cc="http://creativecommons.org/ns#"
   xmlns:rdf="http://www.w3.org/1999/02/22-rdf-syntax-ns#"
   xmlns:svg="http://www.w3.org/2000/svg"
   xmlns="http://www.w3.org/2000/svg"
   xmlns:sodipodi="http://sodipodi.sourceforge.net/DTD/sodipodi-0.dtd"
   xmlns:inkscape="http://www.inkscape.org/namespaces/inkscape"
   version="1.1"
   x="0px"
   y="0px"
   width="440px"
   height="70px"
   viewBox="0 0 440 70"
   enable-background="new 0 0 440 70"
   xml:space="preserve"
   id="svg211"
   sodipodi:docname="logos-auspiciantes.svg"
   inkscape:version="0.92.2 5c3e80d, 2017-08-06"><metadata
     id="metadata217"><rdf:RDF><cc:Work
         rdf:about=""><dc:format>image/svg+xml</dc:format><dc:type
           rdf:resource="http://purl.org/dc/dcmitype/StillImage" /></cc:Work></rdf:RDF></metadata><defs
     id="defs215" /><sodipodi:namedview
     pagecolor="#ffffff"
     bordercolor="#666666"
     borderopacity="1"
     objecttolerance="10"
     gridtolerance="10"
     guidetolerance="10"
     inkscape:pageopacity="0"
     inkscape:pageshadow="2"
     inkscape:window-width="1681"
     inkscape:window-height="1011"
     id="namedview213"
     showgrid="false"
     inkscape:zoom="2.8977273"
     inkscape:cx="220"
     inkscape:cy="35"
     inkscape:window-x="0"
     inkscape:window-y="0"
     inkscape:window-maximized="0"
     inkscape:current-layer="svg211" /><g
     id="Capa_3" /><g
     id="g4191"><g
       transform="translate(314)"
       id="g111"><rect
         id="rect11"
         height="31.405001"
         width="27.285"
         y="4.2140002"
         x="1.7029999" /><rect
         id="rect13"
         height="31.405001"
         width="27.289"
         y="4.2140002"
         x="31.268" /><rect
         id="rect15"
         height="31.405001"
         width="27.291"
         y="4.2140002"
         x="60.827999" /><rect
         id="rect17"
         height="31.405001"
         width="27.290001"
         y="4.2140002"
         x="90.393997" /><polygon
         style="fill:#ffffff"
         id="polygon19"
         points="81.967,11.279 81.967,14.078 81.713,14.334 76.278,14.334 76.278,25.501 81.713,25.501 81.967,25.754 81.967,28.553 81.713,28.808 67.234,28.808 66.979,28.553 66.979,25.754 67.234,25.501 72.67,25.501 72.67,14.334 67.234,14.334 66.979,14.078 66.979,11.279 67.234,11.024 81.713,11.024 " /><polygon
         style="fill:#ffffff"
         id="polygon21"
         points="111.531,11.279 111.531,14.078 111.275,14.334 105.844,14.334 105.844,25.501 111.275,25.501 111.531,25.754 111.531,28.553 111.275,28.808 96.8,28.808 96.547,28.553 96.547,25.754 96.8,25.501 102.232,25.501 102.232,14.334 96.8,14.334 96.547,14.078 96.547,11.279 96.8,11.024 111.275,11.024 " /><polygon
         style="fill:#ffffff"
         id="polygon23"
         points="49.027,11.028 48.773,11.282 48.773,19.774 41.047,14.142 41.047,11.282 40.793,11.028 37.691,11.028 37.436,11.282 37.436,28.555 37.691,28.81 40.793,28.81 41.047,28.555 41.047,18.606 48.773,24.237 48.773,28.555 49.027,28.81 52.127,28.81 52.383,28.555 52.383,11.282 52.127,11.028 " /><rect
         style="fill:#ffffff"
         id="rect25"
         height="3.3080001"
         width="9.1169996"
         y="22.51"
         x="10.787" /><polygon
         style="fill:#ffffff"
         id="polygon27"
         points="15.221,15.531 15.475,15.531 19.229,22.503 19.229,28.55 19.485,28.806 22.583,28.806 22.841,28.55 22.841,21.593 17.25,11.279 16.916,11.024 13.776,11.024 13.441,11.279 7.853,21.593 7.853,28.55 8.107,28.806 11.209,28.806 11.463,28.55 11.463,22.503 " /><path
         inkscape:connector-curvature="0"
         id="path29"
         d="M 4.79,46.279 C 4.74,45.956 4.661,45.641 4.557,45.336 4.45,45.032 4.338,44.753 4.219,44.497 4.1,44.241 3.987,44.018 3.877,43.827 3.77,43.636 3.686,43.493 3.63,43.395 H 3.621 c -0.055,0.098 -0.139,0.24 -0.246,0.432 -0.107,0.19 -0.221,0.414 -0.342,0.67 -0.119,0.256 -0.232,0.535 -0.337,0.839 -0.104,0.306 -0.183,0.62 -0.235,0.943 z M 4.049,42.748 c 0.152,0.251 0.316,0.532 0.49,0.844 0.174,0.313 0.336,0.649 0.487,1.007 0.149,0.358 0.274,0.734 0.374,1.122 0.098,0.39 0.148,0.784 0.148,1.182 v 1.202 c 0,0.062 -0.021,0.116 -0.062,0.158 -0.043,0.043 -0.096,0.063 -0.158,0.063 H 5.061 C 5.002,48.326 4.95,48.305 4.905,48.263 4.864,48.221 4.843,48.167 4.843,48.105 V 46.98 H 2.411 v 1.125 c 0,0.062 -0.022,0.116 -0.065,0.158 -0.041,0.043 -0.095,0.063 -0.156,0.063 H 1.924 C 1.862,48.326 1.809,48.305 1.768,48.263 1.725,48.221 1.704,48.167 1.704,48.105 v -1.202 c 0,-0.397 0.049,-0.792 0.148,-1.182 0.102,-0.388 0.227,-0.764 0.376,-1.122 0.149,-0.357 0.313,-0.693 0.487,-1.007 0.17,-0.312 0.337,-0.593 0.49,-0.844 0.039,-0.062 0.08,-0.115 0.123,-0.158 0.043,-0.042 0.094,-0.063 0.156,-0.063 h 0.283 c 0.062,0 0.114,0.021 0.158,0.063 0.04,0.043 0.083,0.096 0.124,0.158" /><path
         inkscape:connector-curvature="0"
         id="path31"
         d="m 10.967,45.768 c 0,0.262 -0.014,0.506 -0.039,0.729 -0.025,0.226 -0.061,0.408 -0.107,0.55 -0.141,0.444 -0.385,0.784 -0.73,1.021 -0.346,0.235 -0.758,0.354 -1.242,0.354 -0.495,0 -0.916,-0.114 -1.257,-0.342 C 7.25,47.853 7.005,47.515 6.855,47.066 6.83,46.98 6.804,46.891 6.789,46.8 6.771,46.709 6.756,46.603 6.742,46.482 6.728,46.359 6.719,46.211 6.712,46.042 6.707,45.871 6.703,45.666 6.703,45.428 c 0,-0.239 0.004,-0.444 0.009,-0.615 0.007,-0.171 0.017,-0.316 0.03,-0.438 0.014,-0.123 0.029,-0.228 0.047,-0.319 0.016,-0.092 0.037,-0.181 0.066,-0.266 0.149,-0.448 0.394,-0.787 0.732,-1.015 0.345,-0.227 0.761,-0.342 1.256,-0.342 0.479,0 0.87,0.101 1.172,0.299 0.307,0.2 0.537,0.443 0.697,0.733 0.029,0.059 0.033,0.114 0.018,0.171 -0.018,0.058 -0.055,0.101 -0.111,0.128 l -0.264,0.128 c -0.121,0.069 -0.221,0.036 -0.301,-0.094 -0.135,-0.221 -0.299,-0.386 -0.49,-0.494 -0.191,-0.108 -0.43,-0.163 -0.721,-0.163 -0.33,0 -0.598,0.074 -0.807,0.224 -0.209,0.147 -0.355,0.36 -0.449,0.64 -0.014,0.051 -0.033,0.113 -0.049,0.187 -0.018,0.073 -0.029,0.164 -0.038,0.273 -0.008,0.108 -0.017,0.239 -0.021,0.396 -0.006,0.156 -0.011,0.346 -0.011,0.567 0,0.223 0.005,0.41 0.011,0.566 0.004,0.157 0.013,0.289 0.021,0.396 0.009,0.108 0.021,0.2 0.038,0.273 0.016,0.075 0.035,0.137 0.049,0.188 0.094,0.278 0.24,0.492 0.449,0.64 0.209,0.148 0.477,0.223 0.807,0.223 0.295,0 0.557,-0.071 0.777,-0.214 0.219,-0.143 0.379,-0.348 0.469,-0.622 0.029,-0.097 0.055,-0.22 0.075,-0.369 0.024,-0.146 0.034,-0.327 0.034,-0.544 0,-0.033 -0.016,-0.051 -0.049,-0.051 H 9.159 C 9.097,45.914 9.044,45.892 9.001,45.85 8.958,45.807 8.937,45.755 8.937,45.692 V 45.47 c 0,-0.062 0.021,-0.116 0.064,-0.159 0.043,-0.042 0.096,-0.063 0.158,-0.063 h 1.584 c 0.062,0 0.116,0.021 0.159,0.063 0.043,0.043 0.065,0.097 0.065,0.159 z" /><path
         inkscape:connector-curvature="0"
         id="path33"
         d="m 12.41,48.326 c -0.063,0 -0.117,-0.021 -0.159,-0.063 -0.044,-0.042 -0.065,-0.096 -0.065,-0.158 v -5.356 c 0,-0.062 0.021,-0.115 0.065,-0.158 0.042,-0.042 0.096,-0.063 0.159,-0.063 h 3.223 c 0.062,0 0.113,0.021 0.158,0.063 0.041,0.043 0.062,0.096 0.062,0.158 v 0.265 c 0,0.062 -0.021,0.115 -0.062,0.157 -0.045,0.043 -0.096,0.064 -0.158,0.064 h -2.629 c -0.033,0 -0.051,0.017 -0.051,0.051 v 1.707 c 0,0.033 0.018,0.051 0.051,0.051 h 2.21 c 0.062,0 0.114,0.021 0.157,0.062 0.043,0.044 0.066,0.097 0.066,0.158 v 0.265 c 0,0.063 -0.023,0.116 -0.066,0.158 -0.043,0.043 -0.095,0.063 -0.157,0.063 h -2.21 c -0.033,0 -0.051,0.018 -0.051,0.051 v 1.767 c 0,0.033 0.018,0.051 0.051,0.051 h 2.629 c 0.062,0 0.113,0.022 0.158,0.064 0.041,0.043 0.062,0.097 0.062,0.158 v 0.264 c 0,0.062 -0.021,0.116 -0.062,0.158 -0.045,0.043 -0.096,0.063 -0.158,0.063 z" /><path
         inkscape:connector-curvature="0"
         id="path35"
         d="m 20.428,42.748 c 0,-0.062 0.021,-0.115 0.062,-0.158 0.045,-0.042 0.098,-0.063 0.16,-0.063 h 0.268 c 0.064,0 0.117,0.021 0.16,0.063 0.041,0.043 0.065,0.096 0.065,0.158 v 5.356 c 0,0.062 -0.024,0.116 -0.065,0.158 -0.043,0.043 -0.096,0.063 -0.16,0.063 H 20.65 c -0.062,0 -0.115,-0.021 -0.16,-0.063 -0.042,-0.042 -0.062,-0.096 -0.062,-0.158 V 46.97 l -2.697,-2.448 h -0.027 v 3.582 c 0,0.062 -0.02,0.116 -0.064,0.158 -0.041,0.043 -0.095,0.063 -0.158,0.063 h -0.268 c -0.064,0 -0.117,-0.021 -0.16,-0.063 C 17.01,48.22 16.99,48.166 16.99,48.104 v -5.356 c 0,-0.062 0.021,-0.115 0.064,-0.158 0.043,-0.042 0.096,-0.063 0.16,-0.063 h 0.268 c 0.063,0 0.117,0.021 0.158,0.063 0.045,0.043 0.064,0.096 0.064,0.158 v 0.726 l 2.688,2.465 h 0.037 v -3.191 z" /><path
         inkscape:connector-curvature="0"
         id="path37"
         d="m 26.234,47.38 c -0.176,0.335 -0.417,0.592 -0.719,0.772 -0.305,0.179 -0.66,0.269 -1.071,0.269 -0.478,0 -0.882,-0.113 -1.213,-0.337 -0.33,-0.226 -0.567,-0.567 -0.718,-1.028 -0.028,-0.085 -0.049,-0.172 -0.07,-0.261 -0.019,-0.087 -0.035,-0.191 -0.047,-0.314 -0.012,-0.122 -0.02,-0.271 -0.025,-0.439 -0.007,-0.17 -0.01,-0.377 -0.01,-0.614 0,-0.239 0.003,-0.444 0.01,-0.615 0.006,-0.171 0.014,-0.316 0.025,-0.438 0.012,-0.123 0.028,-0.228 0.047,-0.315 0.021,-0.088 0.042,-0.175 0.07,-0.26 0.15,-0.462 0.388,-0.805 0.718,-1.029 0.331,-0.223 0.735,-0.337 1.213,-0.337 0.411,0 0.767,0.091 1.071,0.27 0.302,0.178 0.543,0.437 0.719,0.772 0.029,0.057 0.034,0.112 0.018,0.17 -0.018,0.058 -0.053,0.1 -0.111,0.129 l -0.266,0.127 c -0.055,0.028 -0.112,0.035 -0.168,0.021 -0.059,-0.014 -0.1,-0.053 -0.129,-0.115 -0.107,-0.199 -0.255,-0.359 -0.439,-0.482 -0.186,-0.122 -0.416,-0.184 -0.694,-0.184 -0.319,0 -0.575,0.074 -0.769,0.224 -0.193,0.147 -0.338,0.357 -0.436,0.63 -0.018,0.062 -0.033,0.129 -0.046,0.201 -0.014,0.071 -0.026,0.158 -0.034,0.264 -0.01,0.106 -0.015,0.237 -0.021,0.393 -0.006,0.156 -0.01,0.348 -0.01,0.576 0,0.227 0.004,0.419 0.01,0.574 0.007,0.157 0.012,0.287 0.021,0.395 0.008,0.104 0.021,0.194 0.034,0.268 0.013,0.075 0.028,0.141 0.046,0.196 0.098,0.273 0.242,0.483 0.436,0.631 0.193,0.148 0.449,0.223 0.769,0.223 0.278,0 0.507,-0.062 0.69,-0.184 0.183,-0.122 0.329,-0.283 0.443,-0.483 0.035,-0.062 0.079,-0.1 0.133,-0.113 0.053,-0.016 0.109,-0.008 0.164,0.021 l 0.266,0.128 c 0.059,0.029 0.094,0.072 0.111,0.128 0.017,0.054 0.012,0.109 -0.018,0.166" /><path
         inkscape:connector-curvature="0"
         id="path39"
         d="m 28.863,42.526 c 0.061,0 0.113,0.021 0.156,0.063 0.043,0.043 0.064,0.096 0.064,0.158 v 0.265 c 0,0.063 -0.021,0.115 -0.064,0.157 -0.043,0.043 -0.096,0.064 -0.156,0.064 h -0.428 v 4.384 h 0.428 c 0.061,0 0.113,0.022 0.156,0.064 0.043,0.043 0.064,0.095 0.064,0.158 v 0.264 c 0,0.062 -0.021,0.116 -0.064,0.158 -0.043,0.043 -0.096,0.063 -0.156,0.063 H 27.892 27.859 27.24 c -0.062,0 -0.113,-0.021 -0.156,-0.063 -0.043,-0.042 -0.064,-0.096 -0.064,-0.158 v -0.264 c 0,-0.063 0.021,-0.115 0.064,-0.158 0.043,-0.042 0.094,-0.064 0.156,-0.064 h 0.428 V 43.233 H 27.24 c -0.062,0 -0.113,-0.021 -0.156,-0.064 -0.043,-0.042 -0.064,-0.094 -0.064,-0.157 v -0.265 c 0,-0.062 0.021,-0.115 0.064,-0.158 0.043,-0.042 0.094,-0.063 0.156,-0.063 z" /><path
         inkscape:connector-curvature="0"
         id="path41"
         d="m 33.135,46.279 c -0.051,-0.323 -0.127,-0.638 -0.234,-0.943 -0.104,-0.304 -0.216,-0.583 -0.337,-0.839 -0.118,-0.256 -0.232,-0.479 -0.341,-0.67 -0.107,-0.191 -0.189,-0.334 -0.248,-0.432 h -0.006 c -0.061,0.098 -0.143,0.24 -0.248,0.432 -0.108,0.19 -0.223,0.414 -0.342,0.67 -0.119,0.256 -0.232,0.535 -0.336,0.839 -0.107,0.306 -0.184,0.62 -0.236,0.943 z m -0.741,-3.531 c 0.155,0.251 0.317,0.532 0.491,0.844 0.172,0.313 0.334,0.649 0.484,1.007 0.152,0.358 0.277,0.734 0.378,1.122 0.098,0.39 0.147,0.784 0.147,1.182 v 1.202 c 0,0.062 -0.02,0.116 -0.064,0.158 -0.04,0.043 -0.094,0.063 -0.156,0.063 H 33.41 c -0.062,0 -0.115,-0.021 -0.16,-0.063 -0.043,-0.042 -0.064,-0.096 -0.064,-0.158 V 46.98 h -2.428 v 1.125 c 0,0.062 -0.024,0.116 -0.066,0.158 -0.042,0.043 -0.096,0.063 -0.158,0.063 h -0.266 c -0.06,0 -0.113,-0.021 -0.155,-0.063 -0.042,-0.042 -0.065,-0.096 -0.065,-0.158 v -1.202 c 0,-0.397 0.052,-0.792 0.149,-1.182 0.103,-0.388 0.226,-0.764 0.376,-1.122 0.15,-0.357 0.312,-0.693 0.486,-1.007 0.174,-0.312 0.338,-0.593 0.49,-0.844 0.039,-0.062 0.082,-0.115 0.123,-0.158 0.045,-0.042 0.096,-0.063 0.159,-0.063 h 0.281 c 0.063,0 0.114,0.021 0.157,0.063 0.042,0.043 0.085,0.096 0.125,0.158" /><path
         inkscape:connector-curvature="0"
         id="path43"
         d="m 40.736,42.748 c 0,-0.062 0.023,-0.115 0.063,-0.158 0.044,-0.042 0.097,-0.063 0.161,-0.063 h 0.268 c 0.063,0 0.117,0.021 0.16,0.063 0.043,0.043 0.064,0.096 0.064,0.158 v 5.356 c 0,0.062 -0.021,0.116 -0.064,0.158 -0.043,0.043 -0.097,0.063 -0.16,0.063 H 40.96 c -0.064,0 -0.117,-0.021 -0.161,-0.063 -0.04,-0.042 -0.063,-0.096 -0.063,-0.158 V 46.97 l -2.694,-2.448 h -0.026 v 3.582 c 0,0.062 -0.021,0.116 -0.066,0.158 -0.041,0.043 -0.096,0.063 -0.158,0.063 h -0.268 c -0.062,0 -0.117,-0.021 -0.16,-0.063 -0.043,-0.042 -0.065,-0.096 -0.065,-0.158 v -5.356 c 0,-0.062 0.022,-0.115 0.065,-0.158 0.043,-0.042 0.098,-0.063 0.16,-0.063 h 0.268 c 0.062,0 0.117,0.021 0.158,0.063 0.045,0.043 0.066,0.096 0.066,0.158 v 0.726 l 2.688,2.465 h 0.033 v -3.191 z" /><path
         inkscape:connector-curvature="0"
         id="path45"
         d="M 45.88,46.279 C 45.828,45.956 45.751,45.641 45.647,45.336 45.54,45.032 45.43,44.753 45.309,44.497 45.191,44.241 45.077,44.018 44.967,43.827 44.862,43.636 44.778,43.493 44.719,43.395 h -0.008 c -0.057,0.098 -0.139,0.24 -0.247,0.432 -0.107,0.19 -0.222,0.414 -0.34,0.67 -0.12,0.256 -0.233,0.535 -0.339,0.839 -0.104,0.306 -0.184,0.62 -0.234,0.943 z m -0.741,-3.531 c 0.154,0.251 0.316,0.532 0.49,0.844 0.172,0.313 0.336,0.649 0.486,1.007 0.15,0.358 0.276,0.734 0.373,1.122 0.102,0.39 0.15,0.784 0.15,1.182 v 1.202 c 0,0.062 -0.021,0.116 -0.064,0.158 -0.041,0.043 -0.094,0.063 -0.158,0.063 h -0.264 c -0.062,0 -0.113,-0.021 -0.157,-0.063 -0.042,-0.042 -0.063,-0.096 -0.063,-0.158 V 46.98 h -2.43 v 1.125 c 0,0.062 -0.023,0.116 -0.064,0.158 -0.043,0.043 -0.096,0.063 -0.16,0.063 h -0.264 c -0.062,0 -0.113,-0.021 -0.156,-0.063 -0.043,-0.042 -0.066,-0.096 -0.066,-0.158 v -1.202 c 0,-0.397 0.052,-0.792 0.15,-1.182 0.1,-0.388 0.226,-0.764 0.375,-1.122 0.15,-0.357 0.311,-0.693 0.486,-1.007 0.174,-0.312 0.339,-0.593 0.49,-0.844 0.041,-0.062 0.081,-0.115 0.123,-0.158 0.044,-0.042 0.097,-0.063 0.16,-0.063 h 0.281 c 0.062,0 0.114,0.021 0.156,0.063 0.043,0.043 0.087,0.096 0.126,0.158" /><path
         inkscape:connector-curvature="0"
         id="path47"
         d="m 51.492,47.38 c -0.176,0.335 -0.416,0.592 -0.72,0.772 -0.305,0.179 -0.661,0.269 -1.071,0.269 -0.478,0 -0.881,-0.113 -1.211,-0.337 -0.33,-0.226 -0.567,-0.567 -0.717,-1.028 -0.027,-0.085 -0.053,-0.172 -0.072,-0.261 -0.021,-0.087 -0.037,-0.191 -0.047,-0.314 -0.014,-0.122 -0.02,-0.271 -0.025,-0.439 -0.008,-0.17 -0.01,-0.377 -0.01,-0.614 0,-0.239 0.002,-0.444 0.01,-0.615 0.006,-0.171 0.012,-0.316 0.025,-0.438 0.01,-0.123 0.025,-0.228 0.047,-0.315 0.02,-0.088 0.045,-0.175 0.072,-0.26 0.149,-0.462 0.387,-0.805 0.717,-1.029 0.33,-0.223 0.733,-0.337 1.211,-0.337 0.41,0 0.767,0.091 1.071,0.27 0.304,0.178 0.544,0.437 0.72,0.772 0.029,0.057 0.035,0.112 0.018,0.17 -0.017,0.058 -0.053,0.1 -0.111,0.129 l -0.266,0.127 c -0.055,0.028 -0.111,0.035 -0.168,0.021 -0.058,-0.014 -0.102,-0.053 -0.129,-0.115 -0.106,-0.199 -0.253,-0.359 -0.439,-0.482 -0.185,-0.122 -0.416,-0.184 -0.695,-0.184 -0.318,0 -0.574,0.074 -0.768,0.224 -0.192,0.147 -0.338,0.357 -0.434,0.63 -0.018,0.062 -0.033,0.129 -0.049,0.201 -0.014,0.071 -0.026,0.158 -0.035,0.264 -0.006,0.106 -0.018,0.237 -0.02,0.393 -0.006,0.156 -0.01,0.348 -0.01,0.576 0,0.227 0.004,0.419 0.01,0.574 0.002,0.157 0.014,0.287 0.02,0.395 0.009,0.104 0.021,0.194 0.035,0.268 0.016,0.075 0.031,0.141 0.049,0.196 0.096,0.273 0.241,0.483 0.434,0.631 0.193,0.148 0.449,0.223 0.768,0.223 0.279,0 0.51,-0.062 0.691,-0.184 0.181,-0.122 0.33,-0.283 0.443,-0.483 0.035,-0.062 0.076,-0.1 0.131,-0.113 0.055,-0.016 0.111,-0.008 0.166,0.021 l 0.266,0.128 c 0.059,0.029 0.094,0.072 0.111,0.128 0.017,0.054 0.011,0.109 -0.018,0.166" /><path
         inkscape:connector-curvature="0"
         id="path49"
         d="m 54.119,42.526 c 0.062,0 0.117,0.021 0.158,0.063 0.043,0.043 0.066,0.096 0.066,0.158 v 0.265 c 0,0.063 -0.023,0.115 -0.066,0.157 -0.041,0.043 -0.096,0.064 -0.158,0.064 h -0.425 v 4.384 h 0.425 c 0.062,0 0.117,0.022 0.158,0.064 0.043,0.043 0.066,0.095 0.066,0.158 v 0.264 c 0,0.062 -0.023,0.116 -0.066,0.158 -0.041,0.043 -0.096,0.063 -0.158,0.063 H 53.148 53.115 52.5 c -0.062,0 -0.116,-0.021 -0.158,-0.063 -0.043,-0.042 -0.063,-0.096 -0.063,-0.158 v -0.264 c 0,-0.063 0.021,-0.115 0.063,-0.158 0.042,-0.042 0.096,-0.064 0.158,-0.064 h 0.426 V 43.233 H 52.5 c -0.062,0 -0.116,-0.021 -0.158,-0.064 -0.043,-0.042 -0.063,-0.094 -0.063,-0.157 v -0.265 c 0,-0.062 0.021,-0.115 0.063,-0.158 0.042,-0.042 0.096,-0.063 0.158,-0.063 z" /><path
         inkscape:connector-curvature="0"
         id="path51"
         d="m 57.311,47.713 c 0.322,0 0.588,-0.074 0.793,-0.223 0.205,-0.147 0.354,-0.361 0.443,-0.64 0.018,-0.051 0.033,-0.114 0.047,-0.191 0.014,-0.078 0.03,-0.171 0.043,-0.286 0.014,-0.114 0.024,-0.247 0.03,-0.401 0.005,-0.152 0.009,-0.334 0.009,-0.546 0,-0.21 -0.004,-0.391 -0.009,-0.546 -0.006,-0.153 -0.017,-0.287 -0.03,-0.399 -0.013,-0.115 -0.029,-0.211 -0.043,-0.286 -0.014,-0.077 -0.029,-0.141 -0.047,-0.191 -0.09,-0.279 -0.238,-0.493 -0.443,-0.64 -0.205,-0.149 -0.471,-0.224 -0.793,-0.224 -0.326,0 -0.586,0.074 -0.789,0.224 -0.201,0.146 -0.348,0.36 -0.439,0.64 -0.016,0.051 -0.033,0.114 -0.047,0.191 -0.014,0.075 -0.028,0.171 -0.041,0.286 -0.016,0.112 -0.025,0.246 -0.03,0.399 -0.006,0.155 -0.009,0.336 -0.009,0.546 0,0.212 0.003,0.394 0.009,0.546 0.005,0.154 0.015,0.287 0.03,0.401 0.013,0.115 0.027,0.208 0.041,0.286 0.014,0.077 0.031,0.141 0.047,0.191 0.092,0.278 0.238,0.492 0.439,0.64 0.203,0.149 0.462,0.223 0.789,0.223 m 0,0.708 c -0.49,0 -0.904,-0.114 -1.242,-0.342 -0.338,-0.227 -0.582,-0.565 -0.728,-1.014 -0.03,-0.086 -0.052,-0.175 -0.073,-0.266 -0.02,-0.091 -0.037,-0.197 -0.048,-0.319 -0.009,-0.122 -0.019,-0.271 -0.025,-0.439 -0.005,-0.17 -0.009,-0.377 -0.009,-0.615 0,-0.238 0.004,-0.442 0.009,-0.614 0.007,-0.17 0.017,-0.316 0.025,-0.439 0.011,-0.122 0.028,-0.227 0.048,-0.318 0.021,-0.092 0.043,-0.181 0.073,-0.266 0.146,-0.448 0.39,-0.787 0.728,-1.014 0.338,-0.229 0.752,-0.343 1.242,-0.343 0.494,0 0.91,0.114 1.25,0.343 0.34,0.227 0.581,0.565 0.729,1.014 0.029,0.085 0.053,0.174 0.072,0.266 0.021,0.092 0.037,0.196 0.047,0.318 0.012,0.123 0.021,0.27 0.027,0.439 0.005,0.172 0.008,0.376 0.008,0.614 0,0.238 -0.003,0.445 -0.008,0.615 -0.007,0.169 -0.016,0.317 -0.027,0.439 -0.01,0.122 -0.025,0.229 -0.047,0.319 -0.02,0.091 -0.043,0.18 -0.072,0.266 -0.147,0.448 -0.389,0.787 -0.729,1.014 -0.34,0.228 -0.756,0.342 -1.25,0.342" /><path
         inkscape:connector-curvature="0"
         id="path53"
         d="m 64.109,42.748 c 0,-0.062 0.021,-0.115 0.064,-0.158 0.043,-0.042 0.096,-0.063 0.16,-0.063 H 64.6 c 0.063,0 0.116,0.021 0.16,0.063 0.042,0.043 0.065,0.096 0.065,0.158 v 5.356 c 0,0.062 -0.023,0.116 -0.065,0.158 -0.044,0.043 -0.097,0.063 -0.16,0.063 h -0.267 c -0.064,0 -0.117,-0.021 -0.16,-0.063 C 64.13,48.22 64.109,48.166 64.109,48.104 V 46.97 l -2.697,-2.448 h -0.025 v 3.582 c 0,0.062 -0.021,0.116 -0.062,0.158 -0.045,0.043 -0.098,0.063 -0.16,0.063 h -0.268 c -0.064,0 -0.117,-0.021 -0.162,-0.063 -0.041,-0.042 -0.062,-0.096 -0.062,-0.158 v -5.356 c 0,-0.062 0.021,-0.115 0.062,-0.158 0.045,-0.042 0.098,-0.063 0.162,-0.063 h 0.268 c 0.062,0 0.115,0.021 0.16,0.063 0.041,0.043 0.062,0.096 0.062,0.158 v 0.726 l 2.688,2.465 h 0.035 v -3.191 z" /><path
         inkscape:connector-curvature="0"
         id="path55"
         d="M 69.254,46.279 C 69.203,45.956 69.125,45.641 69.018,45.336 68.914,45.032 68.8,44.753 68.682,44.497 68.563,44.241 68.45,44.018 68.34,43.827 68.231,43.636 68.149,43.493 68.094,43.395 h -0.01 c -0.059,0.098 -0.141,0.24 -0.248,0.432 -0.107,0.19 -0.222,0.414 -0.34,0.67 -0.119,0.256 -0.232,0.535 -0.338,0.839 -0.105,0.306 -0.183,0.62 -0.234,0.943 z M 68.51,42.748 c 0.154,0.251 0.318,0.532 0.49,0.844 0.174,0.313 0.336,0.649 0.488,1.007 0.15,0.358 0.273,0.734 0.375,1.122 0.098,0.39 0.148,0.784 0.148,1.182 v 1.202 c 0,0.062 -0.021,0.116 -0.065,0.158 -0.042,0.043 -0.095,0.063 -0.157,0.063 h -0.265 c -0.06,0 -0.114,-0.021 -0.157,-0.063 -0.041,-0.042 -0.063,-0.096 -0.063,-0.158 V 46.98 h -2.433 v 1.125 c 0,0.062 -0.02,0.116 -0.062,0.158 -0.043,0.043 -0.094,0.063 -0.158,0.063 h -0.264 c -0.062,0 -0.115,-0.021 -0.158,-0.063 -0.043,-0.042 -0.062,-0.096 -0.062,-0.158 v -1.202 c 0,-0.397 0.049,-0.792 0.148,-1.182 0.098,-0.388 0.225,-0.764 0.377,-1.122 0.148,-0.357 0.311,-0.693 0.485,-1.007 0.173,-0.312 0.335,-0.593 0.489,-0.844 0.039,-0.062 0.08,-0.115 0.123,-0.158 0.043,-0.042 0.096,-0.063 0.16,-0.063 h 0.279 c 0.062,0 0.115,0.021 0.158,0.063 0.044,0.043 0.087,0.096 0.124,0.158" /><path
         inkscape:connector-curvature="0"
         id="path57"
         d="m 71.369,42.748 c 0,-0.062 0.021,-0.115 0.063,-0.158 0.042,-0.042 0.098,-0.063 0.16,-0.063 h 0.318 c 0.064,0 0.116,0.021 0.159,0.063 0.043,0.043 0.065,0.096 0.065,0.158 v 4.819 c 0,0.033 0.017,0.051 0.05,0.051 h 2.628 c 0.062,0 0.115,0.021 0.16,0.064 0.04,0.043 0.063,0.095 0.063,0.158 v 0.264 c 0,0.062 -0.023,0.116 -0.063,0.158 -0.045,0.043 -0.098,0.063 -0.16,0.063 h -3.221 c -0.062,0 -0.118,-0.021 -0.16,-0.063 -0.042,-0.042 -0.063,-0.096 -0.063,-0.158 v -5.356 z" /><path
         inkscape:connector-curvature="0"
         id="path59"
         d="m 2.557,56.856 c 0,0.034 0.016,0.051 0.051,0.051 H 3.67 c 0.352,0 0.635,-0.062 0.85,-0.184 0.215,-0.121 0.371,-0.326 0.467,-0.609 0.02,-0.051 0.035,-0.111 0.051,-0.18 0.018,-0.069 0.031,-0.155 0.039,-0.26 0.01,-0.105 0.016,-0.234 0.021,-0.389 0.006,-0.153 0.01,-0.345 0.01,-0.572 0,-0.227 -0.004,-0.418 -0.01,-0.57 C 5.092,53.989 5.086,53.86 5.077,53.754 5.069,53.65 5.056,53.564 5.038,53.492 5.022,53.425 5.007,53.367 4.987,53.314 4.891,53.031 4.735,52.827 4.52,52.704 4.305,52.583 4.022,52.521 3.67,52.521 H 2.607 c -0.035,0 -0.051,0.017 -0.051,0.052 v 4.283 z M 2.01,57.614 C 1.947,57.614 1.895,57.593 1.852,57.55 1.809,57.509 1.79,57.456 1.79,57.394 v -5.355 c 0,-0.064 0.02,-0.116 0.062,-0.159 0.043,-0.042 0.095,-0.064 0.158,-0.064 h 1.816 c 0.996,0 1.627,0.413 1.895,1.237 0.021,0.079 0.045,0.162 0.064,0.246 0.02,0.086 0.035,0.191 0.049,0.316 0.016,0.126 0.027,0.275 0.031,0.451 0.008,0.177 0.008,0.395 0.008,0.648 0,0.256 0,0.473 -0.008,0.648 C 5.861,55.539 5.849,55.69 5.834,55.815 5.82,55.941 5.805,56.044 5.785,56.13 5.765,56.216 5.742,56.297 5.721,56.376 5.453,57.201 4.823,57.613 3.826,57.613 H 2.01 Z" /><path
         inkscape:connector-curvature="0"
         id="path61"
         d="M 7.326,57.614 C 7.262,57.614 7.209,57.593 7.168,57.55 7.123,57.509 7.102,57.456 7.102,57.394 v -5.355 c 0,-0.064 0.021,-0.116 0.066,-0.159 0.041,-0.042 0.094,-0.064 0.158,-0.064 h 3.222 c 0.062,0 0.115,0.022 0.157,0.064 0.043,0.043 0.064,0.095 0.064,0.159 v 0.263 c 0,0.062 -0.021,0.115 -0.064,0.158 -0.042,0.043 -0.095,0.063 -0.157,0.063 H 7.922 c -0.035,0 -0.053,0.017 -0.053,0.052 v 1.705 c 0,0.034 0.018,0.052 0.053,0.052 h 2.209 c 0.061,0 0.115,0.021 0.158,0.064 0.041,0.043 0.063,0.095 0.063,0.157 v 0.264 c 0,0.063 -0.022,0.116 -0.063,0.159 -0.043,0.042 -0.098,0.064 -0.158,0.064 H 7.922 c -0.035,0 -0.053,0.017 -0.053,0.05 v 1.767 c 0,0.034 0.018,0.051 0.053,0.051 h 2.626 c 0.062,0 0.115,0.021 0.157,0.064 0.043,0.041 0.064,0.095 0.064,0.156 v 0.266 c 0,0.062 -0.021,0.115 -0.064,0.156 -0.042,0.043 -0.095,0.064 -0.157,0.064 z" /><path
         inkscape:connector-curvature="0"
         id="path63"
         d="m 15.418,51.814 c 0.062,0 0.117,0.022 0.158,0.064 0.043,0.043 0.065,0.095 0.065,0.158 V 52.3 c 0,0.062 -0.022,0.115 -0.065,0.158 -0.041,0.043 -0.096,0.063 -0.158,0.063 h -0.426 v 4.385 h 0.426 c 0.062,0 0.117,0.021 0.158,0.064 0.043,0.041 0.065,0.095 0.065,0.156 v 0.266 c 0,0.062 -0.022,0.115 -0.065,0.156 -0.041,0.043 -0.096,0.064 -0.158,0.064 h -0.969 -0.033 -0.619 c -0.062,0 -0.113,-0.021 -0.156,-0.064 -0.043,-0.041 -0.064,-0.094 -0.064,-0.156 v -0.266 c 0,-0.062 0.021,-0.115 0.064,-0.156 0.043,-0.043 0.094,-0.064 0.156,-0.064 h 0.429 v -4.385 h -0.429 c -0.062,0 -0.113,-0.021 -0.156,-0.063 -0.043,-0.042 -0.064,-0.096 -0.064,-0.158 v -0.264 c 0,-0.063 0.021,-0.115 0.064,-0.158 0.043,-0.042 0.094,-0.064 0.156,-0.064 z" /><path
         inkscape:connector-curvature="0"
         id="path65"
         d="m 20.127,52.037 c 0,-0.063 0.022,-0.115 0.064,-0.159 0.043,-0.041 0.099,-0.063 0.162,-0.063 h 0.266 c 0.062,0 0.117,0.022 0.16,0.063 0.043,0.044 0.065,0.096 0.065,0.159 v 5.356 c 0,0.062 -0.022,0.115 -0.065,0.156 -0.043,0.043 -0.098,0.064 -0.16,0.064 h -0.266 c -0.063,0 -0.119,-0.021 -0.162,-0.064 -0.042,-0.041 -0.064,-0.095 -0.064,-0.156 v -1.135 l -2.695,-2.447 h -0.025 v 3.582 c 0,0.062 -0.021,0.115 -0.064,0.156 -0.043,0.043 -0.098,0.064 -0.16,0.064 h -0.266 c -0.066,0 -0.119,-0.021 -0.16,-0.064 -0.045,-0.041 -0.066,-0.095 -0.066,-0.156 v -5.356 c 0,-0.063 0.021,-0.115 0.066,-0.159 0.041,-0.041 0.094,-0.063 0.16,-0.063 h 0.266 c 0.062,0 0.117,0.022 0.16,0.063 0.043,0.044 0.064,0.096 0.064,0.159 v 0.724 l 2.688,2.465 h 0.032 z" /><path
         inkscape:connector-curvature="0"
         id="path67"
         d="m 22.754,53.229 c 0.007,0.398 0.062,0.788 0.166,1.17 0.107,0.381 0.229,0.73 0.365,1.045 0.135,0.315 0.268,0.588 0.4,0.818 0.13,0.23 0.225,0.391 0.281,0.482 h 0.008 c 0.057,-0.092 0.15,-0.252 0.281,-0.482 0.131,-0.23 0.264,-0.503 0.401,-0.818 0.138,-0.314 0.258,-0.664 0.362,-1.045 0.105,-0.382 0.16,-0.771 0.166,-1.17 v -1.192 c 0,-0.063 0.022,-0.115 0.064,-0.159 0.042,-0.041 0.096,-0.063 0.158,-0.063 h 0.266 c 0.061,0 0.115,0.022 0.156,0.063 0.043,0.044 0.064,0.096 0.064,0.159 v 1.202 c 0,0.398 -0.049,0.791 -0.15,1.181 -0.1,0.391 -0.227,0.765 -0.373,1.122 -0.154,0.358 -0.314,0.695 -0.488,1.011 -0.172,0.316 -0.336,0.597 -0.49,0.841 -0.04,0.062 -0.08,0.115 -0.124,0.156 -0.042,0.043 -0.095,0.064 -0.157,0.064 h -0.282 c -0.063,0 -0.114,-0.021 -0.157,-0.064 C 23.628,57.509 23.587,57.455 23.548,57.394 23.394,57.15 23.231,56.87 23.056,56.553 22.883,56.238 22.722,55.901 22.57,55.542 22.42,55.185 22.296,54.811 22.197,54.42 22.095,54.03 22.048,53.638 22.048,53.239 v -1.202 c 0,-0.063 0.021,-0.115 0.063,-0.159 0.043,-0.041 0.094,-0.063 0.158,-0.063 h 0.264 c 0.062,0 0.115,0.022 0.158,0.063 0.043,0.044 0.062,0.096 0.062,0.159 v 1.192 z" /><path
         inkscape:connector-curvature="0"
         id="path69"
         d="m 27.287,57.614 c -0.064,0 -0.117,-0.021 -0.16,-0.064 -0.043,-0.041 -0.065,-0.094 -0.065,-0.156 v -5.355 c 0,-0.064 0.022,-0.116 0.065,-0.159 0.043,-0.042 0.096,-0.064 0.16,-0.064 h 3.221 c 0.062,0 0.116,0.022 0.158,0.064 0.042,0.043 0.064,0.095 0.064,0.159 v 0.263 c 0,0.062 -0.022,0.115 -0.064,0.158 -0.042,0.043 -0.096,0.063 -0.158,0.063 h -2.627 c -0.033,0 -0.05,0.017 -0.05,0.052 v 1.705 c 0,0.034 0.017,0.052 0.05,0.052 h 2.209 c 0.062,0 0.115,0.021 0.16,0.064 0.041,0.043 0.062,0.095 0.062,0.157 v 0.264 c 0,0.063 -0.021,0.116 -0.062,0.159 -0.045,0.042 -0.098,0.064 -0.16,0.064 h -2.209 c -0.033,0 -0.05,0.017 -0.05,0.05 v 1.767 c 0,0.034 0.017,0.051 0.05,0.051 h 2.627 c 0.062,0 0.116,0.021 0.158,0.064 0.042,0.041 0.064,0.095 0.064,0.156 v 0.266 c 0,0.062 -0.022,0.115 -0.064,0.156 -0.042,0.043 -0.096,0.064 -0.158,0.064 z" /><path
         inkscape:connector-curvature="0"
         id="path71"
         d="m 32.18,56.488 c 0.189,0.132 0.412,0.25 0.67,0.354 0.26,0.106 0.539,0.159 0.842,0.159 0.402,0 0.717,-0.092 0.941,-0.273 0.224,-0.182 0.338,-0.42 0.338,-0.716 0,-0.125 -0.02,-0.24 -0.061,-0.342 -0.041,-0.103 -0.105,-0.192 -0.2,-0.272 -0.096,-0.08 -0.218,-0.148 -0.37,-0.205 -0.156,-0.057 -0.348,-0.1 -0.581,-0.128 l -0.29,-0.043 c -1.138,-0.152 -1.705,-0.688 -1.705,-1.603 0,-0.257 0.041,-0.49 0.13,-0.699 0.089,-0.211 0.216,-0.391 0.38,-0.538 0.167,-0.148 0.363,-0.261 0.598,-0.342 0.232,-0.081 0.494,-0.119 0.785,-0.119 0.307,0 0.603,0.042 0.884,0.123 0.28,0.083 0.528,0.189 0.747,0.319 0.055,0.035 0.09,0.082 0.104,0.138 0.017,0.057 0.008,0.114 -0.021,0.171 l -0.145,0.238 c -0.026,0.057 -0.07,0.093 -0.131,0.107 -0.061,0.014 -0.117,0.007 -0.176,-0.021 -0.215,-0.121 -0.427,-0.212 -0.637,-0.273 -0.207,-0.062 -0.422,-0.094 -0.65,-0.094 -0.359,0 -0.633,0.087 -0.818,0.26 -0.188,0.175 -0.281,0.4 -0.281,0.68 0,0.243 0.09,0.444 0.271,0.6 0.183,0.156 0.498,0.267 0.947,0.328 l 0.278,0.043 c 0.572,0.08 0.997,0.251 1.284,0.513 0.283,0.262 0.426,0.632 0.426,1.109 0,0.256 -0.047,0.49 -0.133,0.703 -0.088,0.212 -0.221,0.396 -0.402,0.549 -0.178,0.155 -0.398,0.276 -0.663,0.364 -0.265,0.088 -0.572,0.131 -0.919,0.131 -0.374,0 -0.736,-0.062 -1.084,-0.187 -0.346,-0.126 -0.631,-0.276 -0.852,-0.452 -0.045,-0.046 -0.07,-0.097 -0.08,-0.154 -0.008,-0.057 0.01,-0.11 0.053,-0.161 l 0.207,-0.238 c 0.039,-0.047 0.092,-0.072 0.154,-0.078 0.062,-0.006 0.116,0.01 0.16,0.049" /><path
         inkscape:connector-curvature="0"
         id="path73"
         d="m 36.496,52.522 c -0.062,0 -0.114,-0.021 -0.158,-0.063 -0.042,-0.043 -0.062,-0.096 -0.062,-0.158 v -0.264 c 0,-0.063 0.021,-0.115 0.062,-0.158 0.044,-0.042 0.096,-0.064 0.158,-0.064 h 3.771 c 0.062,0 0.115,0.022 0.158,0.064 0.041,0.043 0.062,0.095 0.062,0.158 v 0.264 c 0,0.062 -0.021,0.115 -0.062,0.158 -0.043,0.043 -0.096,0.063 -0.158,0.063 h -1.451 c -0.033,0 -0.051,0.017 -0.051,0.052 v 4.819 c 0,0.062 -0.021,0.115 -0.064,0.158 -0.044,0.041 -0.096,0.062 -0.159,0.062 h -0.321 c -0.062,0 -0.115,-0.021 -0.158,-0.062 -0.043,-0.043 -0.064,-0.097 -0.064,-0.158 v -4.819 c 0,-0.035 -0.017,-0.052 -0.051,-0.052 z" /><path
         inkscape:connector-curvature="0"
         id="path75"
         d="m 42.85,51.814 c 0.064,0 0.117,0.022 0.16,0.064 0.041,0.043 0.064,0.095 0.064,0.158 V 52.3 c 0,0.062 -0.023,0.115 -0.064,0.158 -0.043,0.043 -0.096,0.063 -0.16,0.063 h -0.424 v 4.385 h 0.424 c 0.064,0 0.117,0.021 0.16,0.064 0.041,0.041 0.064,0.095 0.064,0.156 v 0.266 c 0,0.062 -0.023,0.115 -0.064,0.156 -0.043,0.043 -0.096,0.064 -0.16,0.064 H 41.883 41.846 41.23 c -0.062,0 -0.115,-0.021 -0.156,-0.064 C 41.03,57.507 41.01,57.454 41.01,57.392 v -0.266 c 0,-0.062 0.021,-0.115 0.064,-0.156 0.041,-0.043 0.094,-0.064 0.156,-0.064 h 0.428 V 52.521 H 41.23 c -0.062,0 -0.115,-0.021 -0.156,-0.063 C 41.03,52.415 41.01,52.362 41.01,52.3 v -0.264 c 0,-0.063 0.021,-0.115 0.064,-0.158 0.041,-0.042 0.094,-0.064 0.156,-0.064 z" /><path
         inkscape:connector-curvature="0"
         id="path77"
         d="m 48.182,55.057 c 0,0.261 -0.014,0.504 -0.037,0.729 -0.025,0.225 -0.062,0.408 -0.107,0.55 -0.143,0.444 -0.387,0.784 -0.73,1.02 -0.343,0.236 -0.76,0.354 -1.244,0.354 -0.494,0 -0.914,-0.112 -1.256,-0.34 -0.343,-0.228 -0.586,-0.565 -0.734,-1.017 -0.029,-0.085 -0.052,-0.172 -0.07,-0.264 -0.016,-0.09 -0.033,-0.198 -0.045,-0.32 C 43.942,55.648 43.934,55.5 43.928,55.331 43.922,55.16 43.92,54.956 43.92,54.716 c 0,-0.238 0.002,-0.442 0.008,-0.612 0.006,-0.172 0.015,-0.318 0.031,-0.44 0.012,-0.122 0.029,-0.229 0.045,-0.321 0.019,-0.089 0.041,-0.178 0.068,-0.263 0.148,-0.448 0.393,-0.788 0.734,-1.016 0.342,-0.226 0.758,-0.341 1.253,-0.341 0.479,0 0.87,0.1 1.175,0.299 0.305,0.198 0.535,0.442 0.695,0.733 0.027,0.057 0.033,0.114 0.018,0.171 -0.018,0.056 -0.055,0.099 -0.113,0.128 l -0.263,0.128 c -0.122,0.068 -0.22,0.037 -0.302,-0.096 -0.133,-0.221 -0.297,-0.386 -0.488,-0.494 -0.189,-0.107 -0.432,-0.161 -0.722,-0.161 -0.329,0 -0.598,0.073 -0.806,0.221 -0.208,0.148 -0.355,0.363 -0.447,0.641 -0.018,0.05 -0.033,0.114 -0.053,0.188 -0.016,0.073 -0.029,0.164 -0.036,0.272 -0.009,0.107 -0.017,0.24 -0.021,0.397 -0.008,0.155 -0.01,0.344 -0.01,0.565 0,0.223 0.002,0.412 0.01,0.569 0.004,0.155 0.012,0.287 0.021,0.396 0.007,0.106 0.021,0.198 0.036,0.272 0.02,0.072 0.035,0.136 0.053,0.187 0.092,0.279 0.239,0.493 0.447,0.641 0.208,0.148 0.477,0.222 0.806,0.222 0.298,0 0.556,-0.071 0.776,-0.212 0.224,-0.144 0.377,-0.352 0.469,-0.624 0.029,-0.098 0.054,-0.22 0.078,-0.367 0.023,-0.147 0.035,-0.329 0.035,-0.546 0,-0.033 -0.018,-0.052 -0.054,-0.052 h -0.988 c -0.063,0 -0.114,-0.02 -0.158,-0.063 -0.042,-0.042 -0.063,-0.095 -0.063,-0.157 v -0.222 c 0,-0.063 0.021,-0.115 0.063,-0.158 0.044,-0.042 0.095,-0.064 0.158,-0.064 h 1.585 c 0.062,0 0.117,0.022 0.16,0.064 0.042,0.043 0.062,0.095 0.062,0.158 z" /><path
         inkscape:connector-curvature="0"
         id="path79"
         d="m 52.234,55.567 c -0.053,-0.322 -0.129,-0.638 -0.232,-0.942 -0.107,-0.304 -0.221,-0.584 -0.338,-0.84 -0.119,-0.256 -0.234,-0.479 -0.342,-0.669 -0.107,-0.191 -0.191,-0.334 -0.248,-0.432 h -0.008 c -0.059,0.098 -0.139,0.24 -0.248,0.432 -0.107,0.189 -0.222,0.413 -0.342,0.669 -0.119,0.256 -0.23,0.536 -0.336,0.84 -0.105,0.305 -0.184,0.62 -0.234,0.942 z m -0.742,-3.53 c 0.153,0.25 0.316,0.531 0.49,0.844 0.175,0.312 0.338,0.648 0.486,1.008 0.15,0.357 0.277,0.73 0.375,1.121 0.1,0.39 0.15,0.784 0.15,1.182 v 1.202 c 0,0.062 -0.021,0.115 -0.064,0.156 -0.043,0.043 -0.096,0.064 -0.158,0.064 h -0.264 c -0.062,0 -0.115,-0.021 -0.158,-0.064 -0.043,-0.041 -0.062,-0.095 -0.062,-0.156 v -1.127 h -2.432 v 1.127 c 0,0.062 -0.021,0.115 -0.064,0.156 -0.043,0.043 -0.096,0.064 -0.158,0.064 h -0.264 c -0.062,0 -0.114,-0.021 -0.158,-0.064 -0.043,-0.041 -0.064,-0.095 -0.064,-0.156 v -1.202 c 0,-0.397 0.049,-0.792 0.15,-1.182 0.098,-0.391 0.223,-0.764 0.375,-1.121 0.15,-0.359 0.312,-0.695 0.485,-1.008 0.173,-0.313 0.337,-0.594 0.491,-0.844 0.037,-0.063 0.081,-0.115 0.124,-0.159 0.042,-0.041 0.095,-0.063 0.159,-0.063 h 0.279 c 0.062,0 0.117,0.022 0.158,0.063 0.044,0.044 0.085,0.096 0.124,0.159" /><path
         inkscape:connector-curvature="0"
         id="path81"
         d="m 57.846,56.668 c -0.175,0.337 -0.417,0.593 -0.719,0.771 -0.303,0.18 -0.662,0.269 -1.071,0.269 -0.478,0 -0.88,-0.112 -1.212,-0.337 -0.328,-0.224 -0.568,-0.566 -0.715,-1.027 -0.029,-0.085 -0.055,-0.171 -0.072,-0.26 -0.02,-0.088 -0.035,-0.194 -0.049,-0.316 -0.009,-0.121 -0.018,-0.269 -0.023,-0.438 -0.006,-0.171 -0.01,-0.375 -0.01,-0.615 0,-0.239 0.004,-0.442 0.01,-0.612 0.006,-0.172 0.015,-0.318 0.023,-0.44 0.014,-0.122 0.029,-0.227 0.049,-0.315 0.018,-0.087 0.043,-0.174 0.072,-0.259 0.146,-0.463 0.387,-0.805 0.715,-1.028 0.332,-0.226 0.734,-0.338 1.212,-0.338 0.409,0 0.769,0.089 1.071,0.269 0.302,0.18 0.544,0.438 0.719,0.771 0.029,0.058 0.037,0.115 0.018,0.172 -0.018,0.057 -0.053,0.1 -0.109,0.127 L 57.49,53.19 c -0.058,0.029 -0.112,0.036 -0.171,0.021 -0.055,-0.015 -0.099,-0.053 -0.127,-0.115 -0.107,-0.198 -0.256,-0.36 -0.44,-0.48 -0.185,-0.123 -0.415,-0.185 -0.695,-0.185 -0.319,0 -0.574,0.074 -0.767,0.221 -0.193,0.148 -0.338,0.359 -0.436,0.631 -0.018,0.063 -0.033,0.131 -0.045,0.201 -0.014,0.071 -0.029,0.161 -0.035,0.265 -0.01,0.105 -0.017,0.235 -0.023,0.394 -0.006,0.156 -0.006,0.348 -0.006,0.574 0,0.228 0,0.422 0.006,0.577 0.007,0.156 0.014,0.286 0.023,0.392 0.006,0.105 0.021,0.195 0.035,0.27 0.012,0.072 0.027,0.138 0.045,0.196 0.098,0.272 0.242,0.483 0.436,0.631 0.192,0.146 0.447,0.222 0.767,0.222 0.28,0 0.511,-0.062 0.692,-0.185 0.182,-0.122 0.33,-0.281 0.443,-0.479 0.035,-0.063 0.078,-0.103 0.132,-0.117 0.054,-0.014 0.108,-0.007 0.166,0.021 l 0.265,0.128 c 0.057,0.03 0.092,0.072 0.109,0.129 0.019,0.052 0.011,0.108 -0.018,0.166" /><path
         inkscape:connector-curvature="0"
         id="path83"
         d="m 60.475,51.814 c 0.061,0 0.115,0.022 0.158,0.064 0.043,0.043 0.062,0.095 0.062,0.158 V 52.3 c 0,0.062 -0.02,0.115 -0.062,0.158 -0.042,0.043 -0.098,0.063 -0.158,0.063 h -0.426 v 4.385 h 0.426 c 0.061,0 0.115,0.021 0.158,0.064 0.043,0.041 0.062,0.095 0.062,0.156 v 0.266 c 0,0.062 -0.02,0.115 -0.062,0.156 -0.043,0.043 -0.098,0.064 -0.158,0.064 h -0.969 -0.035 -0.617 c -0.062,0 -0.115,-0.021 -0.158,-0.064 -0.041,-0.041 -0.064,-0.094 -0.064,-0.156 v -0.266 c 0,-0.062 0.023,-0.115 0.064,-0.156 0.043,-0.043 0.096,-0.064 0.158,-0.064 h 0.426 v -4.385 h -0.426 c -0.062,0 -0.115,-0.021 -0.158,-0.063 -0.041,-0.043 -0.064,-0.096 -0.064,-0.158 v -0.264 c 0,-0.063 0.023,-0.115 0.064,-0.158 0.043,-0.042 0.096,-0.064 0.158,-0.064 z" /><path
         inkscape:connector-curvature="0"
         id="path85"
         d="m 63.479,51.114 c -0.064,0 -0.1,-0.017 -0.113,-0.056 -0.009,-0.036 -0.002,-0.074 0.028,-0.114 l 0.536,-0.879 c 0.068,-0.112 0.164,-0.17 0.291,-0.17 h 0.434 c 0.051,0 0.09,0.019 0.115,0.057 0.026,0.035 0.018,0.086 -0.029,0.147 l -0.631,0.845 c -0.041,0.052 -0.084,0.092 -0.133,0.124 -0.049,0.03 -0.109,0.046 -0.182,0.046 z m 0.187,5.887 c 0.322,0 0.588,-0.074 0.793,-0.222 0.204,-0.147 0.351,-0.361 0.443,-0.641 0.017,-0.051 0.031,-0.114 0.047,-0.191 0.014,-0.076 0.027,-0.173 0.042,-0.286 0.013,-0.113 0.024,-0.247 0.03,-0.4 0.006,-0.154 0.01,-0.335 0.01,-0.547 0,-0.21 -0.004,-0.392 -0.01,-0.545 -0.006,-0.153 -0.018,-0.287 -0.03,-0.401 -0.015,-0.112 -0.028,-0.209 -0.042,-0.286 -0.016,-0.076 -0.03,-0.141 -0.047,-0.191 -0.093,-0.277 -0.239,-0.492 -0.443,-0.641 -0.205,-0.147 -0.471,-0.221 -0.793,-0.221 -0.324,0 -0.588,0.073 -0.791,0.221 -0.203,0.148 -0.348,0.363 -0.438,0.641 -0.019,0.051 -0.032,0.115 -0.047,0.191 -0.014,0.077 -0.029,0.174 -0.043,0.286 -0.016,0.114 -0.025,0.248 -0.029,0.401 -0.006,0.153 -0.008,0.335 -0.008,0.545 0,0.212 0.002,0.393 0.008,0.547 0.004,0.153 0.014,0.287 0.029,0.4 0.014,0.113 0.029,0.21 0.043,0.286 0.015,0.077 0.028,0.141 0.047,0.191 0.09,0.279 0.234,0.493 0.438,0.641 0.204,0.148 0.467,0.222 0.791,0.222 m 0,0.707 c -0.492,0 -0.904,-0.112 -1.242,-0.34 -0.338,-0.228 -0.582,-0.565 -0.729,-1.017 -0.029,-0.085 -0.053,-0.172 -0.074,-0.264 -0.018,-0.09 -0.035,-0.198 -0.045,-0.32 -0.014,-0.121 -0.02,-0.269 -0.027,-0.438 -0.004,-0.17 -0.009,-0.375 -0.009,-0.615 0,-0.238 0.005,-0.442 0.009,-0.612 0.008,-0.172 0.014,-0.318 0.027,-0.44 0.01,-0.122 0.027,-0.229 0.045,-0.32 0.021,-0.09 0.045,-0.179 0.074,-0.264 0.146,-0.448 0.391,-0.788 0.729,-1.016 0.338,-0.226 0.75,-0.341 1.242,-0.341 0.494,0 0.912,0.115 1.25,0.341 0.338,0.228 0.58,0.567 0.729,1.016 0.027,0.085 0.053,0.174 0.072,0.264 0.02,0.091 0.035,0.198 0.047,0.32 0.01,0.122 0.021,0.269 0.026,0.44 0.005,0.17 0.007,0.374 0.007,0.612 0,0.24 -0.002,0.445 -0.007,0.615 -0.005,0.17 -0.017,0.317 -0.026,0.438 -0.012,0.122 -0.027,0.23 -0.047,0.32 -0.02,0.092 -0.045,0.179 -0.072,0.264 -0.148,0.451 -0.391,0.789 -0.729,1.017 -0.338,0.228 -0.756,0.34 -1.25,0.34" /><path
         inkscape:connector-curvature="0"
         id="path87"
         d="m 70.464,52.037 c 0,-0.063 0.021,-0.115 0.065,-0.159 0.041,-0.041 0.094,-0.063 0.159,-0.063 h 0.267 c 0.064,0 0.117,0.022 0.159,0.063 0.046,0.044 0.067,0.096 0.067,0.159 v 5.356 c 0,0.062 -0.021,0.115 -0.067,0.156 -0.042,0.043 -0.095,0.064 -0.159,0.064 h -0.267 c -0.065,0 -0.118,-0.021 -0.159,-0.064 -0.045,-0.041 -0.065,-0.095 -0.065,-0.156 v -1.135 l -2.696,-2.447 h -0.025 v 3.582 c 0,0.062 -0.021,0.115 -0.065,0.156 -0.042,0.043 -0.095,0.064 -0.159,0.064 h -0.266 c -0.066,0 -0.119,-0.021 -0.161,-0.064 -0.044,-0.041 -0.065,-0.095 -0.065,-0.156 v -5.356 c 0,-0.063 0.021,-0.115 0.065,-0.159 0.042,-0.041 0.095,-0.063 0.161,-0.063 h 0.266 c 0.064,0 0.117,0.022 0.159,0.063 0.044,0.044 0.065,0.096 0.065,0.159 v 0.724 l 2.688,2.465 h 0.034 v -3.189 z" /><path
         inkscape:connector-curvature="0"
         id="path89"
         d="m 2.012,66.904 c -0.064,0 -0.115,-0.022 -0.16,-0.065 C 1.809,66.796 1.79,66.745 1.79,66.681 v -5.356 c 0,-0.062 0.02,-0.115 0.062,-0.157 0.045,-0.043 0.096,-0.063 0.16,-0.063 h 3.223 c 0.062,0 0.115,0.021 0.158,0.063 0.043,0.042 0.062,0.096 0.062,0.157 v 0.264 c 0,0.064 -0.02,0.116 -0.062,0.159 -0.043,0.042 -0.096,0.063 -0.158,0.063 h -2.63 c -0.033,0 -0.051,0.019 -0.051,0.052 v 1.706 c 0,0.034 0.018,0.051 0.051,0.051 h 2.211 c 0.063,0 0.114,0.021 0.158,0.064 0.042,0.042 0.062,0.095 0.062,0.157 v 0.266 c 0,0.062 -0.021,0.114 -0.062,0.157 -0.044,0.042 -0.095,0.063 -0.158,0.063 H 2.605 c -0.033,0 -0.051,0.018 -0.051,0.052 v 1.766 c 0,0.034 0.018,0.052 0.051,0.052 h 2.629 c 0.062,0 0.115,0.02 0.158,0.063 0.043,0.042 0.062,0.093 0.062,0.157 v 0.264 c 0,0.064 -0.02,0.115 -0.062,0.158 -0.042,0.043 -0.096,0.065 -0.158,0.065 z" /><path
         inkscape:connector-curvature="0"
         id="path91"
         d="m 10.105,61.104 c 0.062,0 0.115,0.021 0.157,0.063 0.042,0.042 0.063,0.096 0.063,0.157 v 0.264 c 0,0.063 -0.021,0.116 -0.063,0.159 -0.042,0.042 -0.095,0.063 -0.157,0.063 H 9.68 v 4.386 h 0.426 c 0.062,0 0.115,0.02 0.157,0.063 0.042,0.042 0.063,0.093 0.063,0.157 v 0.265 c 0,0.063 -0.021,0.114 -0.063,0.157 -0.042,0.043 -0.095,0.065 -0.157,0.065 H 9.135 9.1 8.484 C 8.422,66.903 8.369,66.881 8.326,66.838 8.283,66.795 8.261,66.744 8.261,66.681 v -0.265 c 0,-0.064 0.022,-0.115 0.065,-0.157 0.043,-0.044 0.096,-0.063 0.158,-0.063 H 8.91 V 61.81 H 8.484 C 8.422,61.81 8.369,61.789 8.326,61.747 8.283,61.704 8.261,61.651 8.261,61.588 v -0.264 c 0,-0.062 0.022,-0.115 0.065,-0.157 0.043,-0.043 0.096,-0.063 0.158,-0.063 z" /><path
         inkscape:connector-curvature="0"
         id="path93"
         d="m 14.813,61.324 c 0,-0.062 0.021,-0.115 0.063,-0.157 0.043,-0.043 0.098,-0.063 0.16,-0.063 h 0.27 c 0.062,0 0.113,0.021 0.158,0.063 0.044,0.042 0.064,0.096 0.064,0.157 v 5.357 c 0,0.063 -0.021,0.114 -0.064,0.157 -0.045,0.043 -0.096,0.064 -0.158,0.064 h -0.27 c -0.062,0 -0.117,-0.021 -0.16,-0.064 -0.043,-0.043 -0.063,-0.094 -0.063,-0.157 v -1.135 l -2.696,-2.448 h -0.025 v 3.583 c 0,0.063 -0.021,0.114 -0.064,0.157 -0.043,0.043 -0.098,0.064 -0.16,0.064 H 11.6 c -0.062,0 -0.115,-0.021 -0.16,-0.064 -0.043,-0.043 -0.064,-0.094 -0.064,-0.157 v -5.357 c 0,-0.062 0.021,-0.115 0.064,-0.157 0.045,-0.043 0.098,-0.063 0.16,-0.063 h 0.268 c 0.062,0 0.117,0.021 0.16,0.063 0.043,0.042 0.064,0.096 0.064,0.157 v 0.726 l 2.688,2.466 h 0.034 v -3.192 z" /><path
         inkscape:connector-curvature="0"
         id="path95"
         d="m 20.391,61.324 c 0,-0.062 0.022,-0.115 0.064,-0.157 0.045,-0.043 0.098,-0.063 0.162,-0.063 h 0.268 c 0.062,0 0.115,0.021 0.158,0.063 0.045,0.042 0.065,0.096 0.065,0.157 v 5.357 c 0,0.063 -0.021,0.114 -0.065,0.157 -0.043,0.043 -0.096,0.064 -0.158,0.064 h -0.268 c -0.064,0 -0.117,-0.021 -0.162,-0.064 -0.042,-0.043 -0.064,-0.094 -0.064,-0.157 v -1.135 l -2.693,-2.448 h -0.025 v 3.583 c 0,0.063 -0.022,0.114 -0.065,0.157 -0.043,0.043 -0.097,0.064 -0.16,0.064 H 17.18 c -0.063,0 -0.118,-0.021 -0.159,-0.064 -0.045,-0.043 -0.066,-0.094 -0.066,-0.157 v -5.357 c 0,-0.062 0.021,-0.115 0.066,-0.157 0.041,-0.043 0.096,-0.063 0.159,-0.063 h 0.268 c 0.063,0 0.117,0.021 0.16,0.063 0.043,0.042 0.065,0.096 0.065,0.157 v 0.726 l 2.686,2.466 h 0.033 v -3.192 z" /><path
         inkscape:connector-curvature="0"
         id="path97"
         d="m 24.453,66.289 c 0.322,0 0.588,-0.073 0.793,-0.222 0.205,-0.149 0.354,-0.361 0.443,-0.64 0.018,-0.052 0.033,-0.115 0.047,-0.192 0.014,-0.076 0.027,-0.172 0.041,-0.284 0.016,-0.114 0.025,-0.249 0.032,-0.402 0.003,-0.153 0.005,-0.335 0.005,-0.546 0,-0.21 -0.002,-0.393 -0.005,-0.546 -0.007,-0.152 -0.017,-0.287 -0.032,-0.401 -0.014,-0.114 -0.027,-0.208 -0.041,-0.286 -0.014,-0.075 -0.029,-0.14 -0.047,-0.19 -0.09,-0.279 -0.238,-0.491 -0.443,-0.64 -0.205,-0.149 -0.471,-0.221 -0.793,-0.221 -0.326,0 -0.589,0.071 -0.789,0.221 -0.202,0.148 -0.349,0.36 -0.441,0.64 -0.016,0.051 -0.031,0.115 -0.045,0.19 -0.016,0.078 -0.029,0.172 -0.045,0.286 -0.014,0.114 -0.021,0.249 -0.029,0.401 -0.004,0.153 -0.008,0.336 -0.008,0.546 0,0.211 0.004,0.393 0.008,0.546 0.008,0.153 0.016,0.288 0.029,0.402 0.016,0.112 0.029,0.208 0.045,0.284 0.014,0.077 0.029,0.141 0.045,0.192 0.093,0.278 0.239,0.491 0.441,0.64 0.2,0.149 0.463,0.222 0.789,0.222 m 0,0.708 c -0.49,0 -0.904,-0.112 -1.242,-0.342 -0.34,-0.226 -0.58,-0.566 -0.73,-1.014 -0.027,-0.086 -0.051,-0.174 -0.07,-0.266 -0.021,-0.09 -0.035,-0.197 -0.049,-0.32 -0.012,-0.121 -0.018,-0.268 -0.025,-0.438 -0.006,-0.171 -0.008,-0.376 -0.008,-0.614 0,-0.238 0.002,-0.443 0.008,-0.613 0.008,-0.171 0.014,-0.316 0.025,-0.439 0.014,-0.122 0.027,-0.229 0.049,-0.32 0.02,-0.092 0.043,-0.179 0.07,-0.264 0.15,-0.45 0.391,-0.788 0.73,-1.018 0.338,-0.227 0.752,-0.34 1.242,-0.34 0.494,0 0.911,0.113 1.248,0.34 0.34,0.229 0.582,0.567 0.73,1.018 0.029,0.085 0.053,0.172 0.07,0.264 0.02,0.091 0.037,0.198 0.047,0.32 0.013,0.123 0.021,0.269 0.027,0.439 0.006,0.17 0.008,0.375 0.008,0.613 0,0.238 -0.002,0.443 -0.008,0.614 -0.006,0.171 -0.015,0.317 -0.027,0.438 -0.01,0.123 -0.027,0.23 -0.047,0.32 -0.018,0.092 -0.041,0.18 -0.07,0.266 -0.148,0.447 -0.391,0.788 -0.73,1.014 -0.337,0.23 -0.754,0.342 -1.248,0.342" /><path
         inkscape:connector-curvature="0"
         id="path99"
         d="m 28.24,62.52 c 0.002,0.397 0.061,0.787 0.166,1.169 0.104,0.38 0.227,0.729 0.362,1.044 0.138,0.314 0.271,0.588 0.401,0.818 0.13,0.23 0.225,0.392 0.281,0.482 h 0.008 c 0.057,-0.091 0.15,-0.252 0.281,-0.482 0.131,-0.23 0.266,-0.504 0.401,-0.818 0.136,-0.315 0.257,-0.664 0.362,-1.044 0.106,-0.382 0.162,-0.771 0.168,-1.169 v -1.195 c 0,-0.062 0.02,-0.115 0.062,-0.157 0.046,-0.043 0.098,-0.063 0.158,-0.063 h 0.265 c 0.062,0 0.117,0.021 0.158,0.063 0.042,0.042 0.064,0.096 0.064,0.157 v 1.203 c 0,0.398 -0.051,0.792 -0.15,1.182 -0.099,0.389 -0.223,0.763 -0.375,1.122 -0.15,0.359 -0.312,0.694 -0.484,1.011 -0.176,0.315 -0.338,0.595 -0.492,0.842 -0.041,0.062 -0.08,0.112 -0.123,0.155 -0.043,0.043 -0.094,0.064 -0.158,0.064 h -0.281 c -0.062,0 -0.115,-0.021 -0.158,-0.064 -0.043,-0.043 -0.083,-0.094 -0.123,-0.155 -0.154,-0.247 -0.318,-0.526 -0.49,-0.842 -0.174,-0.316 -0.338,-0.651 -0.486,-1.011 -0.15,-0.359 -0.276,-0.733 -0.375,-1.122 -0.102,-0.39 -0.151,-0.783 -0.151,-1.182 v -1.203 c 0,-0.062 0.022,-0.115 0.065,-0.157 0.043,-0.043 0.096,-0.063 0.158,-0.063 h 0.264 c 0.062,0 0.115,0.021 0.158,0.063 0.041,0.042 0.064,0.096 0.064,0.157 z" /><path
         inkscape:connector-curvature="0"
         id="path101"
         d="m 35.156,64.856 c -0.05,-0.324 -0.128,-0.64 -0.232,-0.942 -0.105,-0.305 -0.219,-0.585 -0.338,-0.84 -0.121,-0.257 -0.234,-0.48 -0.342,-0.671 -0.108,-0.191 -0.189,-0.334 -0.248,-0.43 H 33.99 c -0.06,0.096 -0.141,0.239 -0.249,0.43 -0.106,0.19 -0.222,0.414 -0.341,0.671 -0.121,0.255 -0.232,0.535 -0.337,0.84 -0.104,0.303 -0.184,0.618 -0.235,0.942 z m -0.74,-3.532 c 0.152,0.251 0.316,0.532 0.491,0.845 0.173,0.312 0.334,0.648 0.485,1.007 0.15,0.358 0.275,0.732 0.375,1.122 0.1,0.389 0.148,0.782 0.148,1.182 v 1.202 c 0,0.063 -0.022,0.114 -0.064,0.157 -0.041,0.043 -0.094,0.064 -0.156,0.064 H 35.43 c -0.063,0 -0.114,-0.021 -0.159,-0.064 -0.041,-0.043 -0.062,-0.094 -0.062,-0.157 v -1.126 h -2.432 v 1.126 c 0,0.063 -0.021,0.114 -0.062,0.157 -0.043,0.043 -0.096,0.064 -0.158,0.064 h -0.266 c -0.062,0 -0.115,-0.021 -0.156,-0.064 C 32.092,66.796 32.07,66.745 32.07,66.682 V 65.48 c 0,-0.399 0.05,-0.793 0.149,-1.182 0.098,-0.39 0.227,-0.764 0.377,-1.122 0.148,-0.358 0.312,-0.694 0.484,-1.007 0.174,-0.312 0.336,-0.594 0.49,-0.845 0.039,-0.062 0.082,-0.115 0.123,-0.157 0.045,-0.043 0.097,-0.063 0.158,-0.063 h 0.283 c 0.061,0 0.113,0.021 0.158,0.063 0.044,0.042 0.084,0.096 0.124,0.157" /><path
         inkscape:connector-curvature="0"
         id="path103"
         d="m 40.771,65.958 c -0.178,0.333 -0.418,0.59 -0.723,0.771 -0.303,0.179 -0.66,0.269 -1.07,0.269 -0.477,0 -0.881,-0.111 -1.211,-0.336 -0.33,-0.226 -0.566,-0.568 -0.717,-1.027 -0.027,-0.087 -0.052,-0.174 -0.071,-0.262 -0.021,-0.088 -0.035,-0.193 -0.048,-0.316 -0.01,-0.122 -0.02,-0.267 -0.027,-0.438 -0.004,-0.171 -0.006,-0.376 -0.006,-0.614 0,-0.239 0.002,-0.442 0.006,-0.613 0.008,-0.171 0.018,-0.316 0.027,-0.439 0.013,-0.122 0.027,-0.229 0.048,-0.316 0.02,-0.088 0.044,-0.175 0.071,-0.26 0.15,-0.461 0.387,-0.803 0.717,-1.027 0.33,-0.226 0.734,-0.338 1.211,-0.338 0.41,0 0.768,0.09 1.07,0.27 0.305,0.179 0.545,0.437 0.723,0.771 0.028,0.057 0.033,0.114 0.018,0.171 -0.018,0.056 -0.057,0.099 -0.112,0.127 l -0.265,0.129 c -0.059,0.028 -0.113,0.035 -0.17,0.021 -0.057,-0.014 -0.1,-0.053 -0.129,-0.114 -0.106,-0.198 -0.253,-0.359 -0.439,-0.483 -0.184,-0.12 -0.416,-0.182 -0.695,-0.182 -0.318,0 -0.574,0.072 -0.767,0.222 -0.194,0.147 -0.341,0.358 -0.435,0.63 -0.018,0.062 -0.033,0.131 -0.048,0.201 -0.013,0.071 -0.026,0.159 -0.034,0.264 -0.01,0.106 -0.016,0.236 -0.021,0.394 -0.007,0.155 -0.009,0.348 -0.009,0.575 0,0.227 0.002,0.42 0.009,0.577 0.005,0.154 0.011,0.286 0.021,0.391 0.008,0.105 0.021,0.195 0.034,0.27 0.015,0.074 0.03,0.14 0.048,0.196 0.094,0.272 0.24,0.482 0.435,0.631 0.192,0.148 0.448,0.222 0.767,0.222 0.279,0 0.51,-0.06 0.691,-0.184 0.182,-0.122 0.33,-0.282 0.443,-0.48 0.035,-0.063 0.08,-0.103 0.133,-0.116 0.054,-0.014 0.107,-0.007 0.166,0.021 l 0.265,0.127 c 0.056,0.028 0.095,0.072 0.112,0.129 0.016,0.052 0.011,0.107 -0.018,0.166" /><path
         inkscape:connector-curvature="0"
         id="path105"
         d="m 43.397,61.104 c 0.063,0 0.116,0.021 0.158,0.063 0.042,0.042 0.063,0.096 0.063,0.157 v 0.264 c 0,0.063 -0.021,0.116 -0.063,0.159 -0.042,0.042 -0.095,0.063 -0.158,0.063 h -0.426 v 4.386 h 0.426 c 0.063,0 0.116,0.02 0.158,0.063 0.042,0.042 0.063,0.093 0.063,0.157 v 0.265 c 0,0.063 -0.021,0.114 -0.063,0.157 -0.042,0.043 -0.095,0.065 -0.158,0.065 h -0.969 -0.034 -0.617 c -0.064,0 -0.115,-0.022 -0.158,-0.065 -0.043,-0.043 -0.063,-0.094 -0.063,-0.157 v -0.265 c 0,-0.064 0.021,-0.115 0.063,-0.157 0.043,-0.044 0.094,-0.063 0.158,-0.063 h 0.426 V 61.81 h -0.426 c -0.064,0 -0.115,-0.021 -0.158,-0.063 -0.043,-0.043 -0.063,-0.096 -0.063,-0.159 v -0.264 c 0,-0.062 0.021,-0.115 0.063,-0.157 0.043,-0.043 0.094,-0.063 0.158,-0.063 z" /><path
         inkscape:connector-curvature="0"
         id="path107"
         d="m 46.4,60.402 c -0.062,0 -0.1,-0.017 -0.11,-0.055 -0.011,-0.037 -0.003,-0.074 0.024,-0.115 l 0.539,-0.878 c 0.066,-0.115 0.164,-0.171 0.291,-0.171 h 0.434 c 0.049,0 0.089,0.019 0.114,0.055 0.026,0.038 0.017,0.087 -0.028,0.149 l -0.633,0.845 c -0.039,0.05 -0.084,0.093 -0.133,0.123 -0.049,0.033 -0.108,0.047 -0.183,0.047 z m 0.188,5.887 c 0.326,0 0.59,-0.073 0.793,-0.222 0.205,-0.148 0.354,-0.361 0.445,-0.64 0.016,-0.052 0.031,-0.115 0.045,-0.192 0.017,-0.076 0.027,-0.172 0.045,-0.284 0.013,-0.114 0.023,-0.249 0.029,-0.402 0.006,-0.153 0.01,-0.335 0.01,-0.546 0,-0.21 -0.004,-0.393 -0.01,-0.546 -0.006,-0.152 -0.017,-0.287 -0.029,-0.401 -0.018,-0.114 -0.028,-0.208 -0.045,-0.286 -0.014,-0.075 -0.029,-0.14 -0.045,-0.19 -0.092,-0.279 -0.24,-0.491 -0.445,-0.64 -0.203,-0.149 -0.467,-0.221 -0.793,-0.221 -0.324,0 -0.586,0.071 -0.788,0.221 -0.202,0.148 -0.349,0.36 -0.44,0.64 -0.016,0.051 -0.031,0.115 -0.046,0.19 -0.014,0.078 -0.028,0.172 -0.044,0.286 -0.013,0.114 -0.023,0.249 -0.029,0.401 -0.004,0.153 -0.008,0.336 -0.008,0.546 0,0.211 0.004,0.393 0.008,0.546 0.006,0.153 0.017,0.288 0.029,0.402 0.016,0.112 0.03,0.208 0.044,0.284 0.015,0.077 0.03,0.141 0.046,0.192 0.092,0.278 0.238,0.491 0.44,0.64 0.202,0.149 0.464,0.222 0.788,0.222 m 0,0.708 c -0.488,0 -0.903,-0.112 -1.242,-0.342 -0.336,-0.226 -0.58,-0.566 -0.727,-1.014 -0.031,-0.086 -0.053,-0.174 -0.074,-0.266 -0.02,-0.09 -0.035,-0.197 -0.047,-0.32 -0.01,-0.121 -0.02,-0.268 -0.023,-0.438 -0.008,-0.171 -0.011,-0.376 -0.011,-0.614 0,-0.238 0.003,-0.443 0.011,-0.613 0.004,-0.171 0.014,-0.316 0.023,-0.439 0.012,-0.122 0.027,-0.229 0.047,-0.32 0.021,-0.092 0.043,-0.179 0.074,-0.264 0.146,-0.45 0.391,-0.788 0.727,-1.018 0.339,-0.227 0.754,-0.34 1.242,-0.34 0.495,0 0.912,0.113 1.251,0.34 0.337,0.229 0.58,0.567 0.728,1.018 0.029,0.085 0.053,0.172 0.072,0.264 0.021,0.091 0.037,0.198 0.047,0.32 0.013,0.123 0.021,0.269 0.025,0.439 0.006,0.17 0.01,0.375 0.01,0.613 0,0.238 -0.004,0.443 -0.01,0.614 -0.004,0.171 -0.013,0.317 -0.025,0.438 -0.01,0.123 -0.025,0.23 -0.047,0.32 -0.02,0.092 -0.043,0.18 -0.072,0.266 -0.147,0.447 -0.391,0.788 -0.728,1.014 -0.339,0.23 -0.756,0.342 -1.251,0.342" /><path
         inkscape:connector-curvature="0"
         id="path109"
         d="m 53.387,61.324 c 0,-0.062 0.021,-0.115 0.064,-0.157 0.043,-0.043 0.097,-0.063 0.16,-0.063 h 0.27 c 0.061,0 0.115,0.021 0.158,0.063 0.043,0.042 0.065,0.096 0.065,0.157 v 5.357 c 0,0.063 -0.022,0.114 -0.065,0.157 -0.043,0.043 -0.098,0.064 -0.158,0.064 h -0.27 c -0.063,0 -0.117,-0.021 -0.16,-0.064 -0.043,-0.043 -0.064,-0.094 -0.064,-0.157 v -1.135 l -2.695,-2.448 h -0.025 v 3.583 c 0,0.063 -0.023,0.114 -0.065,0.157 -0.044,0.043 -0.097,0.064 -0.159,0.064 h -0.268 c -0.065,0 -0.117,-0.021 -0.16,-0.064 -0.043,-0.043 -0.064,-0.094 -0.064,-0.157 v -5.357 c 0,-0.062 0.021,-0.115 0.064,-0.157 0.043,-0.043 0.095,-0.063 0.16,-0.063 h 0.268 c 0.062,0 0.115,0.021 0.159,0.063 0.042,0.042 0.065,0.096 0.065,0.157 v 0.726 l 2.687,2.466 h 0.034 v -3.192 z" /></g><g
       transform="translate(14)"
       id="g147"><path
         style="fill:#3eba95"
         inkscape:connector-curvature="0"
         id="path113"
         d="m 151.628,36.903 c -0.04,0.155 -0.091,0.305 -0.15,0.451 -0.121,0.302 -0.28,0.559 -0.475,0.768 -0.147,0.169 -0.308,0.303 -0.483,0.402 l -3.758,-2.104 c -0.059,-0.297 -0.09,-0.6 -0.09,-0.906 0,-0.427 0.052,-0.831 0.158,-1.21 0.103,-0.392 0.266,-0.748 0.488,-1.062 0.114,-0.153 0.238,-0.293 0.379,-0.416 0.138,-0.123 0.295,-0.233 0.47,-0.331 0.342,-0.19 0.753,-0.284 1.231,-0.284 0.135,0 0.262,0.008 0.389,0.025 0.127,0.019 0.248,0.047 0.355,0.092 0.252,0.082 0.475,0.2 0.67,0.355 0.188,0.141 0.357,0.33 0.504,0.568 0.137,0.235 0.232,0.497 0.293,0.778 h 0.688 c -0.043,-0.4 -0.15,-0.748 -0.332,-1.041 -0.178,-0.302 -0.4,-0.558 -0.67,-0.77 -0.274,-0.208 -0.569,-0.367 -0.885,-0.473 -0.341,-0.104 -0.676,-0.158 -1.012,-0.158 -0.559,0 -1.059,0.11 -1.496,0.327 -0.424,0.21 -0.776,0.497 -1.072,0.861 -0.288,0.374 -0.5,0.79 -0.635,1.253 -0.14,0.478 -0.209,0.972 -0.209,1.483 0,0.524 0.069,1.022 0.209,1.494 0.15,0.477 0.36,0.892 0.635,1.24 0.28,0.352 0.635,0.634 1.072,0.853 0.416,0.217 0.914,0.324 1.496,0.324 0.411,0 0.797,-0.067 1.162,-0.208 0.351,-0.142 0.648,-0.341 0.896,-0.6 0.25,-0.252 0.459,-0.567 0.627,-0.949 0.08,-0.188 0.146,-0.386 0.203,-0.594 0.055,-0.206 0.092,-0.428 0.11,-0.668 h -0.687 c -0.012,0.18 -0.035,0.344 -0.081,0.5 m -2.23,1.925 c -0.479,0 -0.89,-0.094 -1.231,-0.284 -0.337,-0.183 -0.62,-0.436 -0.849,-0.757 -0.135,-0.182 -0.24,-0.38 -0.324,-0.59 l 0.471,0.273 0.57,0.325 1.777,1 c -0.135,0.022 -0.275,0.033 -0.414,0.033" /><path
         style="fill:#3eba95"
         inkscape:connector-curvature="0"
         id="path115"
         d="m 166.72,32.778 c -0.274,-0.364 -0.632,-0.65 -1.06,-0.861 -0.416,-0.217 -0.916,-0.327 -1.484,-0.327 -0.58,0 -1.076,0.11 -1.492,0.327 -0.436,0.211 -0.793,0.497 -1.072,0.861 -0.283,0.358 -0.496,0.775 -0.636,1.253 -0.144,0.463 -0.214,0.957 -0.214,1.483 0,0.518 0.07,1.013 0.214,1.482 0.14,0.47 0.353,0.884 0.636,1.24 0.299,0.371 0.652,0.661 1.072,0.864 0.436,0.217 0.934,0.324 1.492,0.324 0.551,0 1.045,-0.107 1.484,-0.324 0.416,-0.203 0.77,-0.493 1.06,-0.864 0.283,-0.356 0.492,-0.771 0.637,-1.24 0.142,-0.47 0.212,-0.965 0.212,-1.482 0,-0.526 -0.07,-1.021 -0.212,-1.483 -0.145,-0.477 -0.354,-0.894 -0.637,-1.253 m -1.323,5.755 c -0.345,0.196 -0.751,0.295 -1.222,0.295 -0.47,0 -0.887,-0.099 -1.24,-0.295 -0.195,-0.107 -0.367,-0.235 -0.514,-0.373 h 3.483 c -0.142,0.138 -0.311,0.266 -0.507,0.373 m 1.477,-3.125 v 0 c -0.024,0.292 -0.069,0.996 -0.144,1.317 -0.078,0.271 -0.189,0.517 -0.315,0.747 h -4.5 c -0.126,-0.23 -0.237,-0.476 -0.317,-0.747 -0.073,-0.321 -0.12,-1.025 -0.137,-1.317 h -0.004 c 0,-0.003 0.004,-0.006 0.004,-0.006 0,-0.003 -0.004,-0.006 -0.004,-0.006 l 0.004,-10e-4 c 0.01,-0.16 0.027,-0.504 0.052,-0.65 0.024,-0.146 0.054,-0.293 0.085,-0.44 0.11,-0.392 0.273,-0.748 0.498,-1.062 0.208,-0.316 0.484,-0.568 0.84,-0.76 0.34,-0.189 0.754,-0.282 1.24,-0.282 0.479,0 0.887,0.093 1.222,0.282 0.351,0.191 0.63,0.443 0.837,0.76 0.223,0.313 0.39,0.67 0.496,1.062 0.031,0.147 0.062,0.295 0.087,0.44 0.021,0.146 0.039,0.49 0.053,0.65 h 0.004 v 0.006 0.007 z" /><path
         style="fill:#3eba95"
         inkscape:connector-curvature="0"
         id="path117"
         d="m 199.415,36.985 c 0.142,-0.463 0.212,-0.955 0.212,-1.484 0,-0.517 -0.07,-1.011 -0.212,-1.482 -0.143,-0.469 -0.354,-0.884 -0.637,-1.24 -0.287,-0.371 -0.642,-0.66 -1.062,-0.863 -0.438,-0.216 -0.93,-0.325 -1.483,-0.325 -0.557,0 -1.06,0.109 -1.493,0.325 -0.419,0.203 -0.776,0.492 -1.07,0.863 -0.282,0.356 -0.498,0.771 -0.639,1.24 -0.141,0.472 -0.213,0.966 -0.213,1.482 0,0.529 0.072,1.021 0.213,1.484 0.141,0.479 0.356,0.894 0.639,1.251 0.283,0.366 0.641,0.655 1.07,0.864 0.418,0.218 0.914,0.325 1.493,0.325 0.571,0 1.067,-0.107 1.483,-0.325 0.434,-0.209 0.787,-0.498 1.062,-0.864 0.283,-0.357 0.494,-0.771 0.637,-1.251 m -1.446,-4.13 h -3.486 c 0.146,-0.137 0.313,-0.265 0.509,-0.372 0.36,-0.196 0.772,-0.294 1.242,-0.294 0.472,0 0.881,0.098 1.226,0.294 0.19,0.108 0.356,0.236 0.509,0.372 m 0.961,2.761 v 0.006 c -0.014,0.16 -0.031,0.503 -0.055,0.648 -0.025,0.147 -0.054,0.294 -0.086,0.441 -0.107,0.393 -0.272,0.747 -0.494,1.063 -0.211,0.314 -0.49,0.568 -0.836,0.758 -0.342,0.188 -0.746,0.282 -1.226,0.282 -0.485,0 -0.897,-0.094 -1.242,-0.282 -0.349,-0.189 -0.628,-0.443 -0.837,-0.758 -0.225,-0.316 -0.389,-0.671 -0.496,-1.063 -0.033,-0.147 -0.061,-0.294 -0.082,-0.441 -0.025,-0.146 -0.045,-0.488 -0.057,-0.648 V 35.616 35.61 c 0.018,-0.293 0.067,-1 0.139,-1.318 0.08,-0.273 0.189,-0.517 0.314,-0.747 h 4.502 c 0.126,0.23 0.235,0.474 0.314,0.747 0.07,0.318 0.122,1.025 0.141,1.318 v 0.006 z" /><polygon
         style="fill:#3eba95"
         id="polygon119"
         points="178.287,39.28 179.082,39.28 180.185,36.198 181.276,39.28 182.074,39.28 184.75,31.772 184.021,31.772 181.703,38.49 181.681,38.49 180.53,35.198 181.76,31.772 181.031,31.772 180.185,34.209 179.336,31.772 178.609,31.772 179.842,35.22 178.71,38.49 178.69,38.49 176.349,31.772 175.619,31.772 " /><path
         style="fill:#3eba95"
         inkscape:connector-curvature="0"
         id="path121"
         d="m 212.475,35.913 c 0.277,-0.096 0.504,-0.234 0.68,-0.408 0.199,-0.197 0.35,-0.426 0.442,-0.685 0.098,-0.26 0.151,-0.562 0.151,-0.905 0,-0.336 -0.054,-0.639 -0.151,-0.903 -0.093,-0.261 -0.243,-0.487 -0.442,-0.683 -0.176,-0.183 -0.402,-0.323 -0.68,-0.422 -0.254,-0.091 -0.543,-0.135 -0.863,-0.135 h -2.519 -0.695 v 7.508 h 0.695 v -6.29 l 4.192,6.29 h 0.807 l -2.16,-3.25 c 0.216,-0.02 0.396,-0.06 0.543,-0.117 m -2.979,-3.534 h 1.961 c 0.468,0 0.856,0.127 1.154,0.379 0.29,0.247 0.44,0.632 0.44,1.157 0,0.525 -0.15,0.912 -0.44,1.156 -0.263,0.233 -0.625,0.358 -1.074,0.38 z" /><path
         style="fill:#3eba95"
         inkscape:connector-curvature="0"
         id="path123"
         d="m 228.658,31.772 h -0.934 l -2.611,2.239 -1.586,-2.239 h -0.687 v 7.508 h 0.687 v -3.02 l 1.424,-1.239 2.969,4.26 h 0.89 l -3.324,-4.743 z m -5.131,3.595 V 32.99 l 1.037,1.481 z" /><polygon
         style="fill:#f05a56"
         id="polygon125"
         points="247.23,37.66 248.102,39.28 248.787,39.28 247.617,36.935 250.049,32.422 250.049,39.28 250.734,39.28 250.734,31.748 250.411,31.748 250.049,31.748 249.442,31.748 247.23,36.165 245.02,31.748 244.415,31.748 244.049,31.748 243.726,31.748 243.726,39.28 244.415,39.28 244.415,32.422 246.85,36.935 245.676,39.28 246.363,39.28 " /><polygon
         style="fill:#f05a56"
         id="polygon127"
         points="262.225,31.772 261.5,31.772 263.489,37.502 263.145,38.49 263.123,38.49 260.8,31.772 260.073,31.772 262.751,39.28 263.549,39.28 266.215,31.772 265.496,31.772 263.83,36.514 " /><path
         style="fill:#f05a56"
         inkscape:connector-curvature="0"
         id="path129"
         d="m 279.412,32.716 c -0.55,-0.61 -1.381,-0.931 -2.486,-0.968 h -2.492 v 7.532 h 2.492 c 1.098,-0.028 1.927,-0.351 2.486,-0.967 0.559,-0.604 0.838,-1.537 0.838,-2.799 0,-1.262 -0.279,-2.195 -0.838,-2.798 m -4.293,-0.357 h 1.463 c 0.514,0 0.962,0.058 1.347,0.178 0.382,0.12 0.69,0.301 0.928,0.547 0.244,0.253 0.419,0.582 0.535,0.989 0.046,0.16 0.098,0.334 0.111,0.526 0.035,0.456 0.035,1.373 0,1.83 -0.014,0.192 -0.065,0.363 -0.111,0.524 -0.106,0.395 -0.288,0.719 -0.535,0.979 -0.246,0.259 -0.561,0.446 -0.928,0.557 -0.385,0.118 -0.833,0.181 -1.347,0.181 h -1.463 v -2.853" /><path
         style="fill:#002835"
         inkscape:connector-curvature="0"
         id="path131"
         d="m 190.514,4.759 v 23.385 h -2.043 L 175.695,14.291 v 13.853 h -2.073 V 4.759 h 2.073 L 188.471,18.58 V 4.759 Z m -2.043,16.965 -12.777,-13.82 v 3.275 l 12.776,13.819 v -3.274 z" /><polygon
         style="fill:#002835"
         id="polygon133"
         points="209.434,19.269 197.468,19.269 197.468,26.246 210.395,26.246 210.395,28.144 195.424,28.144 195.424,4.728 210.248,4.728 210.248,6.658 197.468,6.658 197.468,13.57 209.434,13.57 209.434,15.501 197.468,15.501 197.468,17.368 209.434,17.368 " /><path
         style="fill:#002835"
         inkscape:connector-curvature="0"
         id="path135"
         d="m 215.911,8.559 v 19.585 h -2.049 V 4.759 h 2.049 7.401 c 0.948,0 1.801,0.144 2.557,0.426 0.809,0.307 1.473,0.743 1.987,1.311 0.597,0.612 1.032,1.323 1.312,2.129 0.293,0.832 0.445,1.771 0.445,2.817 0,1.07 -0.152,2.01 -0.445,2.815 -0.279,0.809 -0.715,1.519 -1.312,2.129 -0.515,0.546 -1.179,0.971 -1.987,1.278 -0.439,0.175 -0.973,0.293 -1.608,0.358 l 6.36,10.121 h -2.377 z m 1.187,-1.901 6.006,9.565 c 1.326,-0.066 2.375,-0.46 3.15,-1.182 0.872,-0.763 1.309,-1.964 1.309,-3.601 0,-1.638 -0.437,-2.84 -1.309,-3.603 -0.873,-0.785 -2.003,-1.181 -3.387,-1.181 h -5.769 z" /><path
         style="fill:#002835"
         inkscape:connector-curvature="0"
         id="path137"
         d="m 252.41,15.256 v 3.725 1.863 6.839 h -1.453 l -0.271,-4.174 h -0.058 c -0.358,0.812 -0.802,1.507 -1.336,2.085 -0.495,0.601 -1.071,1.083 -1.726,1.445 -0.672,0.406 -1.354,0.686 -2.05,0.836 -0.752,0.171 -1.505,0.256 -2.26,0.256 -1.684,0 -3.138,-0.331 -4.366,-0.994 -1.269,-0.645 -2.316,-1.511 -3.152,-2.603 -0.827,-1.091 -1.451,-2.362 -1.868,-3.819 -0.415,-1.414 -0.626,-2.923 -0.626,-4.527 0,-1.561 0.211,-3.071 0.626,-4.525 0.417,-1.456 1.041,-2.729 1.868,-3.82 0.873,-1.133 1.922,-2.013 3.152,-2.634 1.287,-0.664 2.746,-0.993 4.366,-0.993 1.112,0 2.173,0.157 3.181,0.48 0.989,0.318 1.875,0.802 2.645,1.442 0.396,0.345 0.754,0.709 1.07,1.094 0.314,0.386 0.615,0.824 0.893,1.314 0.514,0.922 0.881,2.023 1.098,3.308 h -2.02 c -0.061,-0.663 -0.268,-1.338 -0.623,-2.022 -0.315,-0.664 -0.784,-1.273 -1.396,-1.829 -0.28,-0.3 -0.597,-0.562 -0.954,-0.787 -0.355,-0.226 -0.731,-0.422 -1.129,-0.593 -0.851,-0.364 -1.773,-0.548 -2.765,-0.548 -1.425,0 -2.628,0.3 -3.625,0.898 -1.028,0.602 -1.86,1.36 -2.492,2.28 -0.634,0.986 -1.112,2.066 -1.429,3.243 -0.296,1.198 -0.446,2.429 -0.446,3.691 0,1.24 0.15,2.472 0.446,3.693 0.316,1.176 0.795,2.257 1.429,3.242 0.65,0.962 1.485,1.732 2.492,2.31 1.011,0.579 2.22,0.869 3.625,0.869 1.149,0 2.2,-0.215 3.151,-0.643 0.91,-0.406 1.696,-0.985 2.35,-1.734 0.631,-0.793 1.105,-1.689 1.424,-2.697 0.02,-0.063 0.043,-0.127 0.062,-0.193 0.018,-0.063 0.035,-0.127 0.06,-0.19 h -6.925 V 18.98 h 7.219 c 0.02,-0.171 0.03,-0.353 0.03,-0.546 v -0.578 -0.735 h -7.249 v -1.865 z" /><path
         style="fill:#002835"
         inkscape:connector-curvature="0"
         id="path139"
         d="m 281.045,28.144 h -2.171 l -12.214,-7.303 -2.555,7.303 h -2.137 l 8.556,-23.385 h 2.2 z m -9.479,-21.159 -4.281,11.956 10.697,6.713 z" /><path
         style="fill:#002835"
         inkscape:connector-curvature="0"
         id="path141"
         d="m 166.538,4.77 h 2.163 v 3.313 l -2.163,1.175 z m 2.163,5.444 v 17.71 h -2.163 V 11.39 l 1.274,-0.698 z" /><path
         style="fill:#002835"
         inkscape:connector-curvature="0"
         id="path143"
         d="m 161.471,16.179 c -0.293,-0.271 -0.625,-0.522 -0.979,-0.762 l 0.002,-0.002 c -0.355,-0.271 -0.765,-0.5 -1.229,-0.684 -0.021,-0.009 -0.046,-0.015 -0.067,-0.025 -0.209,-0.087 -0.415,-0.17 -0.625,-0.244 -0.078,-0.025 -0.155,-0.05 -0.233,-0.074 0,0 -0.004,-0.003 -0.006,-0.005 l -0.008,-0.002 c -0.289,-0.095 -0.58,-0.185 -0.885,-0.267 l -1.336,-0.336 -0.008,10e-4 -3.654,-0.914 c -0.27,-0.062 -0.533,-0.138 -0.79,-0.222 -0.259,-0.084 -0.524,-0.18 -0.792,-0.285 -0.518,-0.189 -1.057,-0.404 -1.547,-0.693 -0.289,-0.17 -0.298,-0.137 -0.523,-0.326 -0.201,-0.165 -0.352,-0.305 -0.564,-0.618 -0.123,-0.188 -0.156,-0.377 -0.143,-0.564 0.1,-0.353 0.234,-0.671 0.416,-0.952 0.371,-0.663 0.855,-1.195 1.455,-1.596 0.603,-0.45 1.24,-0.759 1.925,-0.924 0.724,-0.189 1.354,-0.283 1.89,-0.283 1.074,0 2.027,0.118 2.854,0.355 0.906,0.211 1.683,0.579 2.322,1.1 0.686,0.565 1.2,1.264 1.553,2.092 0.186,0.449 0.319,0.946 0.403,1.49 0.083,0.545 0.121,1.138 0.121,1.774 h 2.112 c 0.06,-1.538 -0.123,-2.875 -0.56,-4.009 -0.452,-1.136 -1.053,-2.046 -1.798,-2.732 -0.808,-0.708 -1.767,-1.243 -2.884,-1.596 -1.157,-0.332 -2.367,-0.497 -3.629,-0.497 -1.259,0 -2.375,0.129 -3.35,0.39 -0.908,0.283 -1.693,0.64 -2.354,1.064 -0.622,0.448 -1.116,0.947 -1.489,1.49 -0.352,0.497 -0.63,1.04 -0.836,1.632 -0.188,0.519 -0.312,1.018 -0.373,1.491 -0.042,0.26 -0.063,0.479 -0.063,0.655 v 0.479 c 0,1.111 0.146,1.998 0.437,2.66 0.328,0.78 0.744,1.406 1.24,1.881 0.293,0.27 0.623,0.523 0.979,0.763 l -0.002,0.001 c 0.357,0.272 0.767,0.502 1.23,0.683 0.02,0.012 0.045,0.019 0.064,0.027 0.207,0.088 0.416,0.169 0.627,0.244 0.076,0.026 0.156,0.051 0.234,0.076 0.002,0.001 0.002,0.001 0.002,0.001 l 0.008,0.002 c 0.287,0.098 0.58,0.187 0.885,0.269 l 1.338,0.336 0.008,-0.001 3.654,0.916 c 0.27,0.062 0.531,0.136 0.791,0.22 0.258,0.085 0.52,0.179 0.793,0.284 0.516,0.188 1.057,0.405 1.544,0.693 0.293,0.172 0.3,0.139 0.525,0.327 0.196,0.167 0.351,0.306 0.562,0.618 0.125,0.188 0.157,0.376 0.145,0.564 -0.098,0.352 -0.234,0.67 -0.416,0.953 -0.371,0.661 -0.857,1.193 -1.455,1.595 -0.599,0.451 -1.241,0.76 -1.923,0.924 -0.725,0.189 -1.356,0.283 -1.892,0.283 -1.076,0 -2.027,-0.117 -2.854,-0.354 -0.907,-0.215 -1.687,-0.58 -2.327,-1.101 -0.68,-0.566 -1.196,-1.266 -1.549,-2.093 -0.184,-0.45 -0.319,-0.945 -0.403,-1.491 -0.084,-0.544 -0.124,-1.136 -0.124,-1.774 h -2.109 c -0.06,1.538 0.127,2.874 0.561,4.011 0.455,1.135 1.055,2.046 1.799,2.732 0.807,0.709 1.767,1.24 2.883,1.596 1.156,0.33 2.365,0.497 3.628,0.497 1.261,0 2.378,-0.132 3.351,-0.391 0.906,-0.284 1.694,-0.639 2.354,-1.064 0.621,-0.45 1.119,-0.946 1.491,-1.49 0.351,-0.497 0.63,-1.041 0.837,-1.633 0.186,-0.52 0.309,-1.017 0.371,-1.489 0.041,-0.262 0.062,-0.479 0.062,-0.656 V 20.72 c 0,-1.112 -0.146,-1.997 -0.433,-2.66 -0.334,-0.781 -0.746,-1.407 -1.244,-1.881 m -1.807,2.164 c -0.352,-0.167 -0.568,-0.25 -0.93,-0.378 -0.363,-0.125 -0.74,-0.24 -1.131,-0.347 l -1.205,-0.303 h 0.003 l -0.204,-0.052 -1.23,-0.311 h -0.01 l -2.49,-0.622 c -0.268,-0.063 -0.533,-0.138 -0.79,-0.223 -0.224,-0.072 -0.542,-0.188 -0.798,-0.286 -0.473,-0.195 -0.932,-0.452 -1.365,-0.767 -0.01,-0.006 -0.02,-0.01 -0.027,-0.018 -0.183,-0.114 -0.249,-0.196 -0.561,-0.532 -0.045,-0.05 -0.091,-0.098 -0.145,-0.181 -0.037,-0.054 -0.08,-0.15 -0.158,-0.302 -0.178,-0.347 -0.261,-0.63 -0.261,-0.63 0.315,0.166 0.417,0.202 0.791,0.363 0.356,0.154 0.841,0.37 1.202,0.497 0.36,0.127 0.816,0.296 1.205,0.416 l 0.994,0.251 -0.006,0.004 3.932,0.983 c 0.268,0.062 0.531,0.139 0.788,0.222 0.228,0.074 0.545,0.188 0.802,0.285 0.512,0.214 1.006,0.496 1.479,0.849 0.229,0.19 0.402,0.347 0.605,0.621 0.188,0.255 0.314,0.707 0.43,1.028 -0.289,-0.244 -0.596,-0.41 -0.92,-0.567" /><path
         style="fill:#002835"
         inkscape:connector-curvature="0"
         id="path145"
         d="M 259.146,9.258 256.985,8.083 V 4.77 h 2.161 z m -1.272,1.433 1.271,0.698 v 16.534 h -2.161 v -17.71 z" /></g><g
       transform="translate(-298)"
       id="g197"><path
         style="fill:#00bfda"
         inkscape:connector-curvature="0"
         id="path149"
         d="m 327.361,14.424 c -0.421,0.724 -1.395,0.939 -2.176,0.485 l -4.59,-2.664 c 0,-0.003 -0.004,-0.003 -0.004,-0.003 l -1.678,-0.972 -3.812,2.199 h -0.004 l -2.531,1.461 c -0.781,0.45 -1.754,0.225 -2.168,-0.497 -0.42,-0.723 -0.126,-1.675 0.658,-2.128 l 4.6,-2.645 2.439,-1.404 c 0.036,-0.021 0.071,-0.034 0.105,-0.051 0.047,-0.023 0.092,-0.044 0.144,-0.062 0.03,-0.015 0.062,-0.023 0.093,-0.033 0.074,-0.025 0.146,-0.043 0.223,-0.054 0.023,-0.005 0.046,-0.008 0.068,-0.011 0.074,-0.009 0.148,-0.012 0.225,-0.012 0.033,0 0.062,0.003 0.092,0.007 0.066,0.002 0.127,0.014 0.191,0.026 0.041,0.007 0.08,0.016 0.119,0.025 0.059,0.018 0.113,0.039 0.172,0.062 0.035,0.014 0.064,0.031 0.094,0.043 0.041,0.02 0.082,0.031 0.119,0.054 l 4.449,2.586 c 0,0 0.002,0.002 0.014,0.002 l 2.502,1.454 c 0.781,0.458 1.073,1.406 0.656,2.132 m -1.107,20.184 h -1.817 c -0.372,0 -0.794,-0.318 -0.794,-0.688 0,0 -0.469,-9.848 -0.469,-10.512 -0.119,0.935 -2.962,10.55 -2.962,10.55 -0.077,0.368 -0.499,0.617 -0.864,0.617 h -0.955 c -0.369,0 -0.791,-0.249 -0.862,-0.617 0,0 -2.8,-9.615 -2.948,-10.55 0,0.493 -0.498,10.512 -0.498,10.512 -0.025,0.369 -0.416,0.688 -0.787,0.688 h -1.795 c -0.371,0 -0.613,-0.318 -0.59,-0.688 l 1.332,-15.318 c 0.021,-0.369 0.416,-0.688 0.783,-0.688 h 2.109 c 0.369,0 0.788,0.248 0.861,0.617 0,0 2.818,10.005 2.895,10.871 0.071,-0.839 2.904,-10.871 2.904,-10.871 0.076,-0.369 0.498,-0.617 0.863,-0.617 h 2.091 c 0.368,0 0.766,0.319 0.788,0.688 l 1.307,15.318 c 0.019,0.37 -0.223,0.688 -0.592,0.688 m 5.098,-31.605 h -24.945 c -1.845,0 -3.287,1.525 -3.287,3.289 v 31.28 c 0,1.766 1.442,3.286 3.287,3.286 h 24.945 c 1.844,0 3.288,-1.521 3.288,-3.286 V 6.292 c 0,-1.764 -1.445,-3.289 -3.288,-3.289" /><path
         style="fill:#131717"
         inkscape:connector-curvature="0"
         id="path151"
         d="m 345.811,19.317 h -0.804 c -0.3,0 -0.552,-0.25 -0.552,-0.534 V 8.587 c 0,-0.3 0.252,-0.553 0.552,-0.553 h 0.804 c 0.283,0 0.534,0.253 0.534,0.553 v 10.196 c 0,0.284 -0.251,0.534 -0.534,0.534" /><path
         style="fill:#131717"
         inkscape:connector-curvature="0"
         id="path153"
         d="m 353.561,19.317 c -0.469,0 -0.668,-0.199 -0.668,-0.685 V 13.97 c 0,-0.752 -0.316,-1.254 -1.104,-1.254 -0.785,0 -1.27,0.585 -1.27,1.537 v 4.38 c 0,0.485 -0.201,0.685 -0.67,0.685 h -0.502 c -0.484,0 -0.684,-0.199 -0.684,-0.685 v -6.788 c 0,-0.466 0.199,-0.667 0.684,-0.667 h 0.084 c 0.418,0 0.669,0.167 0.82,0.585 l 0.033,0.1 c 0.469,-0.518 1.135,-0.783 1.923,-0.783 1.755,0 2.522,0.867 2.522,2.688 v 4.865 c 0,0.485 -0.199,0.685 -0.668,0.685 h -0.5 z" /><path
         style="fill:#131717"
         inkscape:connector-curvature="0"
         id="path155"
         d="m 360.482,18.684 c 0,0.468 -0.201,0.667 -0.669,0.667 h -0.534 c -1.506,0 -2.105,-0.601 -2.105,-2.14 v -4.396 h -0.453 c -0.467,0 -0.668,-0.199 -0.668,-0.686 v -0.184 c 0,-0.483 0.201,-0.685 0.668,-0.685 h 0.484 l 0.252,-1.304 c 0.1,-0.435 0.334,-0.618 0.768,-0.618 h 0.102 c 0.469,0 0.666,0.2 0.666,0.669 v 1.253 h 0.803 c 0.471,0 0.67,0.201 0.67,0.685 v 0.184 c 0,0.486 -0.199,0.686 -0.67,0.686 h -0.803 v 4.348 c 0,0.45 0.151,0.568 0.471,0.568 h 0.351 c 0.468,0 0.669,0.198 0.669,0.667 v 0.286 z" /><path
         style="fill:#131717"
         inkscape:connector-curvature="0"
         id="path157"
         d="m 367.369,15.942 h -3.762 c 0.049,1.068 0.467,1.789 1.738,1.789 0.584,0 0.919,-0.151 1.137,-0.269 0.15,-0.101 0.283,-0.15 0.434,-0.15 0.151,0 0.301,0.05 0.469,0.217 l 0.25,0.234 c 0.15,0.166 0.234,0.317 0.234,0.484 0,0.184 -0.084,0.335 -0.266,0.468 -0.27,0.201 -1.006,0.685 -2.343,0.685 -2.589,0 -3.575,-1.352 -3.575,-4.21 0,-2.524 0.785,-4.112 3.24,-4.112 2.207,0 3.109,1.052 3.109,4.194 0.001,0.469 -0.199,0.67 -0.665,0.67 m -1.205,-1.554 c -0.016,-1.003 -0.168,-1.756 -1.203,-1.756 -0.852,0 -1.322,0.368 -1.354,1.756 z" /><path
         style="fill:#131717"
         inkscape:connector-curvature="0"
         id="path159"
         d="m 374.566,19.317 c -0.471,0 -0.67,-0.199 -0.67,-0.685 V 13.97 c 0,-0.752 -0.318,-1.254 -1.102,-1.254 -0.788,0 -1.271,0.585 -1.271,1.537 v 4.38 c 0,0.485 -0.202,0.685 -0.668,0.685 h -0.502 c -0.486,0 -0.686,-0.199 -0.686,-0.685 v -6.788 c 0,-0.466 0.199,-0.667 0.686,-0.667 h 0.082 c 0.42,0 0.668,0.167 0.818,0.585 l 0.033,0.1 c 0.471,-0.518 1.139,-0.783 1.925,-0.783 1.755,0 2.522,0.867 2.522,2.688 v 4.865 c 0,0.485 -0.199,0.685 -0.668,0.685 h -0.499 z" /><path
         style="fill:#131717"
         inkscape:connector-curvature="0"
         id="path161"
         d="m 381.869,8.085 c 0,-0.484 0.201,-0.685 0.668,-0.685 h 0.502 c 0.467,0 0.668,0.2 0.668,0.685 v 10.563 c 0,0.47 -0.201,0.669 -0.668,0.669 h -0.085 c -0.434,0 -0.686,-0.183 -0.817,-0.584 -0.053,-0.134 0,0.017 -0.053,-0.118 -0.484,0.551 -1.103,0.786 -1.938,0.786 -1.736,0 -2.809,-1.22 -2.809,-4.195 0,-2.173 0.536,-4.213 2.857,-4.213 0.703,0 1.256,0.219 1.674,0.604 V 8.085 Z m -1.307,4.497 c -1.2,0 -1.284,1.32 -1.284,2.641 0,1.873 0.417,2.559 1.27,2.559 0.886,0 1.37,-0.803 1.37,-2.543 0,-1.755 -0.52,-2.657 -1.356,-2.657" /><path
         style="fill:#131717"
         inkscape:connector-curvature="0"
         id="path163"
         d="m 391.121,15.942 h -3.76 c 0.049,1.068 0.467,1.789 1.738,1.789 0.582,0 0.918,-0.151 1.137,-0.269 0.148,-0.101 0.284,-0.15 0.434,-0.15 0.148,0 0.299,0.05 0.469,0.217 l 0.249,0.234 c 0.149,0.166 0.233,0.317 0.233,0.484 0,0.184 -0.084,0.335 -0.268,0.468 -0.266,0.201 -1.004,0.685 -2.34,0.685 -2.589,0 -3.576,-1.352 -3.576,-4.21 0,-2.524 0.785,-4.112 3.242,-4.112 2.207,0 3.109,1.052 3.109,4.194 10e-4,0.469 -0.198,0.67 -0.667,0.67 m -1.205,-1.554 c -0.016,-1.003 -0.166,-1.756 -1.203,-1.756 -0.85,0 -1.32,0.368 -1.352,1.756 z" /><path
         style="fill:#131717"
         inkscape:connector-curvature="0"
         id="path165"
         d="m 398.336,19.317 c -0.471,0 -0.668,-0.199 -0.668,-0.685 V 13.97 c 0,-0.752 -0.318,-1.254 -1.104,-1.254 -0.786,0 -1.27,0.585 -1.27,1.537 v 4.38 c 0,0.485 -0.202,0.685 -0.67,0.685 h -0.501 c -0.485,0 -0.685,-0.199 -0.685,-0.685 v -6.788 c 0,-0.466 0.199,-0.667 0.685,-0.667 h 0.083 c 0.418,0 0.67,0.167 0.82,0.585 l 0.031,0.1 c 0.469,-0.518 1.137,-0.783 1.924,-0.783 1.756,0 2.523,0.867 2.523,2.688 v 4.865 c 0,0.485 -0.201,0.685 -0.668,0.685 h -0.5 z" /><path
         style="fill:#131717"
         inkscape:connector-curvature="0"
         id="path167"
         d="m 406.374,11.611 c 0.187,0.136 0.286,0.303 0.286,0.485 0,0.184 -0.1,0.335 -0.252,0.485 l -0.201,0.2 c -0.184,0.168 -0.334,0.251 -0.5,0.251 -0.133,0 -0.268,-0.051 -0.434,-0.134 -0.186,-0.1 -0.42,-0.184 -0.754,-0.184 -1.119,0 -1.537,0.902 -1.537,2.439 0,1.705 0.385,2.525 1.653,2.525 0.319,0 0.552,-0.067 0.753,-0.167 0.168,-0.102 0.318,-0.151 0.451,-0.151 0.151,0 0.301,0.067 0.469,0.233 l 0.217,0.201 c 0.15,0.168 0.248,0.316 0.248,0.502 0,0.167 -0.08,0.334 -0.264,0.467 -0.232,0.202 -0.852,0.636 -2.021,0.636 -2.343,0 -3.445,-1.453 -3.445,-4.246 0,-2.373 1.053,-4.076 3.477,-4.076 1.001,0.002 1.571,0.336 1.854,0.534" /><path
         style="fill:#131717"
         inkscape:connector-curvature="0"
         id="path169"
         d="m 408.375,8.085 c 0,-0.484 0.201,-0.685 0.668,-0.685 h 0.586 c 0.469,0 0.666,0.2 0.666,0.685 v 0.937 c 0,0.485 -0.197,0.686 -0.666,0.686 h -0.586 c -0.467,0 -0.668,-0.2 -0.668,-0.686 z m 0.05,3.678 c 0,-0.468 0.2,-0.669 0.669,-0.669 h 0.485 c 0.468,0 0.668,0.201 0.668,0.669 v 6.887 c 0,0.468 -0.2,0.668 -0.668,0.668 h -0.485 c -0.469,0 -0.669,-0.2 -0.669,-0.668 z" /><path
         style="fill:#131717"
         inkscape:connector-curvature="0"
         id="path171"
         d="m 416.377,18.6 c -0.516,0.602 -1.236,0.802 -2.056,0.802 -1.42,0 -2.407,-0.936 -2.407,-2.507 0,-1.638 1.307,-2.441 3.025,-2.441 h 1.17 c 0.052,0 0.082,-0.018 0.082,-0.05 V 13.92 c 0,-0.919 -0.416,-1.17 -1.451,-1.17 -0.586,0 -1.088,0.184 -1.287,0.267 -0.135,0.051 -0.252,0.084 -0.369,0.084 -0.217,0 -0.383,-0.134 -0.518,-0.384 l -0.117,-0.25 v 0.016 c -0.084,-0.149 -0.133,-0.284 -0.133,-0.417 0,-0.234 0.117,-0.402 0.385,-0.535 0.432,-0.201 1.17,-0.451 2.188,-0.451 2.124,0 3.128,0.584 3.128,2.774 v 4.78 c 0,0.485 -0.202,0.685 -0.685,0.685 h -0.086 c -0.418,0 -0.668,-0.183 -0.818,-0.584 z m -0.186,-2.658 h -0.851 c -0.901,0 -1.552,0.199 -1.552,0.952 0,0.635 0.432,0.953 0.916,0.953 0.938,0 1.486,-0.702 1.486,-1.22 v -0.685 z" /><path
         style="fill:#131717"
         inkscape:connector-curvature="0"
         id="path173"
         d="m 348.535,23.379 c 0,-0.485 0.199,-0.686 0.666,-0.686 h 0.502 c 0.469,0 0.67,0.2 0.67,0.686 v 10.563 c 0,0.47 -0.201,0.668 -0.67,0.668 h -0.084 c -0.432,0 -0.686,-0.184 -0.818,-0.585 -0.05,-0.133 0,0.018 -0.05,-0.117 -0.485,0.553 -1.104,0.786 -1.938,0.786 -1.74,0 -2.807,-1.221 -2.807,-4.196 0,-2.171 0.532,-4.211 2.855,-4.211 0.703,0 1.256,0.217 1.674,0.603 z m -1.305,4.495 c -1.203,0 -1.287,1.322 -1.287,2.642 0,1.873 0.419,2.559 1.27,2.559 0.885,0 1.371,-0.803 1.371,-2.541 0,-1.757 -0.518,-2.66 -1.354,-2.66" /><path
         style="fill:#131717"
         inkscape:connector-curvature="0"
         id="path175"
         d="m 357.787,31.234 h -3.762 c 0.053,1.07 0.467,1.789 1.739,1.789 0.585,0 0.919,-0.15 1.136,-0.269 0.152,-0.1 0.283,-0.148 0.436,-0.148 0.148,0 0.301,0.049 0.467,0.216 l 0.25,0.235 c 0.152,0.164 0.236,0.316 0.236,0.483 0,0.184 -0.084,0.335 -0.268,0.468 -0.268,0.2 -1.004,0.686 -2.342,0.686 -2.59,0 -3.574,-1.354 -3.574,-4.211 0,-2.524 0.783,-4.111 3.24,-4.111 2.207,0 3.109,1.05 3.109,4.193 10e-4,0.468 -0.198,0.669 -0.667,0.669 m -1.204,-1.554 c -0.017,-1.003 -0.167,-1.755 -1.204,-1.755 -0.852,0 -1.32,0.368 -1.354,1.755 z" /><path
         style="fill:#131717"
         inkscape:connector-curvature="0"
         id="path177"
         d="m 379.262,34.693 c -2.542,0 -3.377,-1.554 -3.377,-4.178 0,-2.574 0.854,-4.145 3.377,-4.145 2.523,0 3.375,1.57 3.375,4.145 0,2.625 -0.867,4.178 -3.375,4.178 m 0,-6.701 c -1.17,0 -1.488,0.77 -1.488,2.523 0,1.805 0.301,2.559 1.488,2.559 1.189,0 1.504,-0.754 1.504,-2.559 0,-1.753 -0.368,-2.523 -1.504,-2.523" /><path
         style="fill:#131717"
         inkscape:connector-curvature="0"
         id="path179"
         d="m 389.201,34.61 c -0.469,0 -0.666,-0.199 -0.666,-0.684 v -4.665 c 0,-0.751 -0.32,-1.253 -1.105,-1.253 -0.785,0 -1.27,0.584 -1.27,1.538 v 4.38 c 0,0.484 -0.201,0.684 -0.67,0.684 h -0.502 c -0.484,0 -0.685,-0.199 -0.685,-0.684 v -6.788 c 0,-0.468 0.2,-0.667 0.685,-0.667 h 0.084 c 0.418,0 0.669,0.166 0.818,0.585 l 0.033,0.1 c 0.471,-0.519 1.137,-0.785 1.924,-0.785 1.756,0 2.523,0.869 2.523,2.69 v 4.865 c 0,0.484 -0.201,0.684 -0.668,0.684 z" /><path
         style="fill:#131717"
         inkscape:connector-curvature="0"
         id="path181"
         d="m 395.93,33.976 c 0,0.468 -0.199,0.668 -0.668,0.668 h -0.535 c -1.504,0 -2.107,-0.601 -2.107,-2.139 v -4.396 h -0.449 c -0.467,0 -0.67,-0.201 -0.67,-0.688 V 27.24 c 0,-0.484 0.203,-0.686 0.67,-0.686 h 0.482 l 0.253,-1.304 c 0.101,-0.434 0.333,-0.618 0.77,-0.618 h 0.099 c 0.471,0 0.668,0.2 0.668,0.669 v 1.253 h 0.801 c 0.471,0 0.67,0.201 0.67,0.686 v 0.182 c 0,0.486 -0.199,0.688 -0.67,0.688 h -0.801 v 4.346 c 0,0.451 0.152,0.568 0.47,0.568 h 0.351 c 0.469,0 0.668,0.198 0.668,0.668 v 0.284 z" /><path
         style="fill:#131717"
         inkscape:connector-curvature="0"
         id="path183"
         d="m 402.706,31.234 h -3.763 c 0.053,1.07 0.469,1.789 1.738,1.789 0.586,0 0.92,-0.15 1.137,-0.269 0.15,-0.1 0.285,-0.148 0.436,-0.148 0.148,0 0.299,0.049 0.469,0.216 l 0.248,0.235 c 0.152,0.164 0.236,0.316 0.236,0.483 0,0.184 -0.084,0.335 -0.268,0.468 -0.268,0.2 -1.004,0.686 -2.342,0.686 -2.591,0 -3.576,-1.354 -3.576,-4.211 0,-2.524 0.785,-4.111 3.242,-4.111 2.207,0 3.107,1.05 3.107,4.193 10e-4,0.468 -0.198,0.669 -0.664,0.669 m -1.204,-1.554 c -0.018,-1.003 -0.168,-1.755 -1.203,-1.755 -0.853,0 -1.322,0.368 -1.355,1.755 z" /><path
         style="fill:#131717"
         inkscape:connector-curvature="0"
         id="path185"
         d="m 407.58,33.039 0.184,-0.083 1.456,-5.866 c 0.114,-0.434 0.351,-0.618 0.784,-0.618 h 0.652 c 0.383,0 0.568,0.149 0.568,0.468 0,0.083 -0.018,0.167 -0.053,0.251 h 0.02 l -2.042,6.818 v -0.016 c -0.097,0.418 -0.351,0.618 -0.782,0.618 h -1.371 c -0.437,0 -0.701,-0.2 -0.803,-0.618 v 0.016 l -2.039,-6.818 c -0.033,-0.084 -0.033,-0.168 -0.033,-0.236 0,-0.333 0.166,-0.482 0.566,-0.482 h 0.653 c 0.434,0 0.669,0.199 0.787,0.618 z" /><path
         style="fill:#131717"
         inkscape:connector-curvature="0"
         id="path187"
         d="m 412.354,23.379 c 0,-0.485 0.202,-0.686 0.668,-0.686 h 0.588 c 0.469,0 0.667,0.2 0.667,0.686 v 0.937 c 0,0.485 -0.198,0.684 -0.667,0.684 h -0.588 c -0.466,0 -0.668,-0.198 -0.668,-0.684 z m 0.05,3.678 c 0,-0.469 0.203,-0.668 0.67,-0.668 h 0.484 c 0.467,0 0.67,0.199 0.67,0.668 v 6.886 c 0,0.469 -0.203,0.669 -0.67,0.669 h -0.484 c -0.467,0 -0.67,-0.2 -0.67,-0.669 z" /><path
         style="fill:#131717"
         inkscape:connector-curvature="0"
         id="path189"
         d="m 420.492,23.379 c 0,-0.485 0.201,-0.686 0.669,-0.686 h 0.501 c 0.469,0 0.668,0.2 0.668,0.686 v 10.563 c 0,0.47 -0.199,0.668 -0.668,0.668 h -0.084 c -0.434,0 -0.686,-0.184 -0.818,-0.585 -0.051,-0.133 0,0.018 -0.051,-0.117 -0.485,0.553 -1.104,0.786 -1.939,0.786 -1.738,0 -2.807,-1.221 -2.807,-4.196 0,-2.171 0.535,-4.211 2.855,-4.211 0.703,0 1.258,0.217 1.674,0.603 z m -1.304,4.495 c -1.201,0 -1.287,1.322 -1.287,2.642 0,1.873 0.418,2.559 1.271,2.559 0.885,0 1.369,-0.803 1.369,-2.541 0,-1.757 -0.516,-2.66 -1.353,-2.66" /><path
         style="fill:#131717"
         inkscape:connector-curvature="0"
         id="path191"
         d="m 429.529,31.234 h -3.762 c 0.053,1.07 0.471,1.789 1.74,1.789 0.585,0 0.918,-0.15 1.137,-0.269 0.15,-0.1 0.283,-0.148 0.434,-0.148 0.151,0 0.301,0.049 0.469,0.216 l 0.25,0.235 c 0.15,0.164 0.236,0.316 0.236,0.483 0,0.184 -0.086,0.335 -0.27,0.468 -0.27,0.2 -1.003,0.686 -2.342,0.686 -2.59,0 -3.574,-1.354 -3.574,-4.211 0,-2.524 0.785,-4.111 3.24,-4.111 2.205,0 3.109,1.05 3.109,4.193 10e-4,0.468 -0.2,0.669 -0.667,0.669 m -1.203,-1.554 c -0.02,-1.003 -0.168,-1.755 -1.204,-1.755 -0.853,0 -1.321,0.368 -1.354,1.755 z" /><path
         style="fill:#131717"
         inkscape:connector-curvature="0"
         id="path193"
         d="m 434.918,34.693 c -2.539,0 -3.375,-1.554 -3.375,-4.178 0,-2.574 0.854,-4.145 3.375,-4.145 2.527,0 3.379,1.57 3.379,4.145 0,2.625 -0.869,4.178 -3.379,4.178 m 0,-6.701 c -1.168,0 -1.485,0.77 -1.485,2.523 0,1.805 0.3,2.559 1.485,2.559 1.19,0 1.506,-0.754 1.506,-2.559 0,-1.753 -0.367,-2.523 -1.506,-2.523" /><path
         style="fill:#131717"
         inkscape:connector-curvature="0"
         id="path195"
         d="m 374.611,33.927 v 0.068 c 0,0.432 -0.187,0.615 -0.636,0.615 h -0.651 c -0.451,0 -0.654,-0.2 -0.684,-0.667 l -0.267,-7.125 -2.159,7.191 c -0.133,0.417 -0.383,0.601 -0.816,0.601 h -0.42 c -0.43,0 -0.684,-0.184 -0.814,-0.601 l -2.137,-7.157 -0.336,7.091 c -0.034,0.467 -0.234,0.667 -0.688,0.667 h -0.617 c -0.449,0 -0.631,-0.184 -0.631,-0.615 v -0.068 l 0.698,-9.911 c 0.02,-0.467 0.231,-0.667 0.7,-0.667 h 0.92 c 0.416,0 0.666,0.2 0.797,0.618 l 2.344,7.813 c 0.816,-2.653 1.49,-5.178 2.309,-7.813 0.13,-0.418 0.379,-0.618 0.799,-0.618 h 0.936 c 0.466,0 0.682,0.2 0.697,0.667 z" /></g></g><g
     id="Capa_4" /><g
     id="Capa_6"
     display="none" /><g
     id="_x31_"
     display="none" /><g
     id="pop_up_FB"
     display="none" /><g
     id="_x32_"
     display="none" /><g
     id="_x33_"
     display="none" /><g
     id="_x33__ok"
     display="none" /><g
     id="DENEGADA"
     display="none" /><g
     id="Lista_de_espera"
     display="none" /></svg>