<?xml version="1.0" encoding="utf-8"?>
<!-- Generator: Adobe Illustrator 16.0.0, SVG Export Plug-In . SVG Version: 6.00 Build 0)  -->
<!DOCTYPE svg PUBLIC "-//W3C//DTD SVG 1.1//EN" "http://www.w3.org/Graphics/SVG/1.1/DTD/svg11.dtd">
<svg version="1.1" id="Layer_1" xmlns="http://www.w3.org/2000/svg" xmlns:xlink="http://www.w3.org/1999/xlink" x="0px" y="0px"
	 width="168px" height="46px" viewBox="0 0 168 46" enable-background="new 0 0 168 46" xml:space="preserve">
<g>
	<g>
		<g>
			<g>
				<g>
					<g>
						<g>
							<rect x="121.875" y="20.818" fill="#FFFFE1" width="16.854" height="13.207"/>
							<path fill="#1E2125" d="M138.729,34.693h-16.854l-0.668-0.668V20.818l0.668-0.668h16.854l0.669,0.668v13.207L138.729,34.693z
								 M122.544,33.356h15.516v-11.87h-15.516V33.356z"/>
						</g>
						<g>
							<rect x="120.853" y="20.502" fill="#FFFFE1" width="18.898" height="3.472"/>
							<path fill="#1E2125" d="M139.751,24.642h-18.898l-0.668-0.668v-3.472l0.668-0.668h18.898l0.669,0.668v3.472L139.751,24.642z
								 M121.521,23.305h17.562V21.17h-17.562V23.305z"/>
						</g>
						<g>
							<rect x="128.744" y="20.502" fill="#FFFFE1" width="3.117" height="13.522"/>
							<path fill="#1E2125" d="M131.861,34.693h-3.117l-0.668-0.668V20.502l0.668-0.668h3.117l0.668,0.668v13.522L131.861,34.693z
								 M129.413,33.356h1.78V21.17h-1.78V33.356z"/>
						</g>
						<g>
							<path fill="#FFFFE1" d="M130.013,19.954c0,0-2.924,0.005-4.2,0.005s-2.31-1.034-2.31-2.31c0-1.275,1.033-2.31,2.31-2.31
								C128.315,15.339,130.013,19.954,130.013,19.954z"/>
							<path fill="#1E2125" d="M125.813,20.628c-1.643,0-2.979-1.336-2.979-2.979c0-1.642,1.336-2.978,2.979-2.978
								c2.884,0,4.636,4.535,4.827,5.052l-0.626,0.899C130.014,20.622,127.089,20.628,125.813,20.628z M125.813,16.008
								c-0.905,0-1.642,0.736-1.642,1.641c0,0.905,0.736,1.642,1.642,1.642c0.79,0,2.216-0.002,3.184-0.003
								C128.345,17.941,127.123,16.008,125.813,16.008z"/>
						</g>
						<g>
							<path fill="#FFFFE1" d="M130.485,19.954c0,0,2.925,0.005,4.199,0.005c1.276,0,2.31-1.034,2.31-2.31
								c0-1.275-1.033-2.31-2.31-2.31C132.183,15.339,130.485,19.954,130.485,19.954z"/>
							<path fill="#1E2125" d="M134.684,20.628c-1.275,0-4.201-0.006-4.201-0.006l-0.626-0.899c0.19-0.517,1.943-5.052,4.827-5.052
								c1.643,0,2.979,1.336,2.979,2.978C137.663,19.292,136.327,20.628,134.684,20.628z M131.5,19.287
								c0.969,0.001,2.394,0.003,3.185,0.003c0.905,0,1.642-0.736,1.642-1.642c0-0.905-0.736-1.641-1.642-1.641
								C133.371,16.008,132.15,17.941,131.5,19.287z"/>
						</g>
						<g>
							<g>
								<path fill="#FFFFE1" d="M100.576,10.433c0,9.307,8.569,12.95,8.569,12.95s8.569-3.643,8.569-12.95
									c0-4.733-3.838-8.568-8.569-8.568C104.412,1.865,100.576,5.7,100.576,10.433z"/>
								<path fill="#1E2125" d="M109.421,24.032h-0.553c-0.09-0.039-8.997-3.937-8.997-13.599c0-5.113,4.159-9.273,9.273-9.273
									s9.274,4.16,9.274,9.273C118.419,20.095,109.511,23.993,109.421,24.032z M109.145,2.57c-4.337,0-7.864,3.527-7.864,7.863
									c0,7.9,6.417,11.469,7.864,12.173c1.447-0.704,7.864-4.273,7.864-12.173C117.009,6.097,113.482,2.57,109.145,2.57z"/>
							</g>
							<g>
								<path fill="#96F8A7" d="M119.107,11.152c-1.27,0.387-2.653,0.555-4.089,0.455c-5.146-0.362-9.155-4.037-9.505-8.459
									c1.513-0.877,3.295-1.327,5.172-1.196C115.517,2.292,119.197,6.363,119.107,11.152z"/>
								<path fill="#1E2125" d="M115.83,12.34c-0.285,0-0.574-0.01-0.861-0.03c-5.411-0.38-9.778-4.295-10.158-9.106l0.35-0.665
									c1.68-0.974,3.629-1.426,5.574-1.289c5.188,0.365,9.175,4.72,9.078,9.916l-0.5,0.661
									C118.194,12.167,117.022,12.34,115.83,12.34z M106.265,3.542c0.555,3.914,4.254,7.042,8.803,7.363
									c1.128,0.078,2.257-0.019,3.328-0.286c-0.181-4.212-3.496-7.663-7.762-7.962C109.123,2.552,107.607,2.859,106.265,3.542z"/>
							</g>
							<g>
								<path fill="#96F8A7" d="M104.833,3.029c0.365,0.95,0.566,1.993,0.566,3.088c0,3.32-1.854,6.166-4.494,7.375
									c-0.209-0.943-0.33-1.961-0.33-3.059C100.576,7.273,102.289,4.515,104.833,3.029z"/>
								<path fill="#1E2125" d="M101.201,14.134l-0.982-0.488c-0.23-1.034-0.347-2.115-0.347-3.213c0-3.284,1.765-6.354,4.606-8.013
									l1.014,0.356c0.406,1.061,0.613,2.184,0.613,3.341C106.105,9.622,104.18,12.768,101.201,14.134z M104.446,4.13
									c-1.972,1.475-3.165,3.817-3.165,6.303c0,0.669,0.048,1.33,0.143,1.975c2.013-1.297,3.271-3.671,3.271-6.291
									C104.695,5.438,104.611,4.773,104.446,4.13z"/>
							</g>
							<g>
								<path fill="#96F8A7" d="M98.869,20.128c2.248-2.25,2.146-6.207,2.146-6.207s-4.04-0.186-6.289,2.063
									c-1.145,1.145-1.145,2.999,0,4.143C95.869,21.271,97.724,21.271,98.869,20.128z"/>
								<path fill="#1E2125" d="M96.796,21.69c-0.971,0-1.883-0.378-2.568-1.064c-0.688-0.687-1.065-1.6-1.065-2.57
									s0.378-1.883,1.065-2.57c2.109-2.109,5.553-2.273,6.559-2.273c0.167,0,0.261,0.005,0.261,0.005l0.671,0.686
									c0.006,0.174,0.084,4.286-2.352,6.723C98.68,21.312,97.767,21.69,96.796,21.69z M100.283,14.638
									c-1.132,0.062-3.583,0.37-5.059,1.845c-0.42,0.42-0.652,0.979-0.652,1.573s0.232,1.153,0.652,1.573s0.979,0.651,1.572,0.651
									s1.153-0.231,1.574-0.651C99.839,18.159,100.197,15.803,100.283,14.638z"/>
							</g>
							<g>
								<g>
									<path fill="#FFFFE1" d="M115.32,38.275c0,2.945,2.387,5.334,5.332,5.334s5.332-2.389,5.332-5.334H115.32z"/>
									<path fill="#1E2125" d="M120.652,44.314c-3.328,0-6.037-2.709-6.037-6.039l0.705-0.705h10.664l0.705,0.705
										C126.689,41.605,123.98,44.314,120.652,44.314z M116.079,38.981c0.341,2.218,2.262,3.923,4.573,3.923
										s4.232-1.705,4.573-3.923H116.079z"/>
								</g>
								<path fill="#96F8A7" d="M119.671,36.373h-3.261v-4.359l-7.269-8.134c-4.152,0-7.52,3.366-7.52,7.52v1.223v1.14v0.277
									c0,6.313,5.135,10.474,11.447,10.474h6.981L119.671,36.373z"/>
							</g>
							<path fill="#1E2125" d="M111.277,19.874c-1.863,0-3.511-1.188-4.1-2.958c-0.123-0.369,0.076-0.769,0.447-0.892
								c0.368-0.123,0.768,0.077,0.891,0.446c0.396,1.192,1.506,1.993,2.762,1.993c0.39,0,0.705,0.315,0.705,0.705
								C111.982,19.559,111.667,19.874,111.277,19.874z"/>
						</g>
						<g>
							<g>
								<path fill="#FFFFE1" d="M145.373,38.275c0,2.945-2.388,5.334-5.332,5.334c-2.945,0-5.332-2.389-5.332-5.334H145.373z"/>
								<path fill="#1E2125" d="M140.041,44.314c-3.328,0-6.037-2.709-6.037-6.039l0.705-0.705h10.664l0.704,0.705
									C146.077,41.605,143.369,44.314,140.041,44.314z M135.466,38.981c0.341,2.218,2.262,3.923,4.574,3.923
									c2.312,0,4.232-1.705,4.572-3.923H135.466z"/>
							</g>
							<path fill="#96F8A7" d="M151.55,23.88l-7.27,8.134v4.359h-3.26l-0.381,8.141h6.983c6.312,0,11.448-5.135,11.448-11.447
								v-0.036v-0.408V31.4C159.072,27.246,155.705,23.88,151.55,23.88z"/>
							<g>
								<path fill="#FFFFE1" d="M160.121,10.433c0,9.307-8.57,12.95-8.57,12.95s-8.57-3.643-8.57-12.95
									c0-4.733,3.838-8.568,8.57-8.568S160.121,5.7,160.121,10.433z"/>
								<path fill="#1E2125" d="M151.275,24.032c-0.09-0.039-9-3.937-9-13.599c0-5.113,4.161-9.273,9.275-9.273
									c5.115,0,9.274,4.16,9.274,9.273c0,9.662-8.908,13.56-8.997,13.599H151.275z M151.55,2.57c-4.336,0-7.865,3.527-7.865,7.863
									c0,7.9,6.418,11.469,7.865,12.173c1.447-0.704,7.865-4.273,7.865-12.173C159.416,6.097,155.887,2.57,151.55,2.57z"/>
							</g>
							<path fill="#1E2125" d="M149.523,19.874c-0.391,0-0.705-0.315-0.705-0.705c0-0.39,0.314-0.705,0.705-0.705
								c1.255,0,2.364-0.801,2.762-1.994c0.123-0.369,0.523-0.568,0.893-0.446c0.368,0.123,0.568,0.522,0.445,0.892
								C153.033,18.686,151.385,19.874,149.523,19.874z"/>
							<g>
								<path fill="#96F8A7" d="M155.863,3.029c-0.365,0.95-0.566,1.993-0.566,3.088c0,3.32,1.854,6.166,4.492,7.375
									c0.211-0.943,0.332-1.961,0.332-3.059C160.121,7.273,158.408,4.515,155.863,3.029z"/>
								<path fill="#1E2125" d="M159.496,14.134c-2.98-1.366-4.905-4.512-4.905-8.017c0-1.156,0.207-2.28,0.614-3.341l1.014-0.356
									c2.842,1.659,4.606,4.729,4.606,8.013c0,1.097-0.117,2.178-0.349,3.213L159.496,14.134z M156.25,4.13
									C156.084,4.773,156,5.438,156,6.117c0,2.619,1.26,4.994,3.273,6.291c0.094-0.646,0.143-1.306,0.143-1.975
									C159.416,7.947,158.221,5.605,156.25,4.13z"/>
							</g>
							<g>
								<g>
									<g>
										<g>
											<g>
												<path fill="none" d="M167.441,20.128"/>
											</g>
										</g>
									</g>
								</g>
							</g>
							<g>
								<path fill="#96F8A7" d="M141.277,10.305c1.274,0.487,2.68,0.759,4.156,0.759c5.298,0,9.67-3.477,10.347-7.981
									c-1.486-1.008-3.28-1.596-5.212-1.596C145.591,1.487,141.529,5.393,141.277,10.305z"/>
								<path fill="#1E2125" d="M145.433,11.77c-1.527,0-3.01-0.271-4.408-0.807l-0.451-0.694c0.273-5.32,4.662-9.487,9.994-9.487
									c2.01,0,3.949,0.594,5.607,1.717l0.302,0.688C155.743,8.08,150.996,11.77,145.433,11.77z M142.024,9.822
									c1.09,0.356,2.234,0.537,3.409,0.537c4.697,0,8.723-2.952,9.57-6.938c-1.337-0.806-2.861-1.23-4.436-1.23
									C146.162,2.192,142.505,5.503,142.024,9.822z"/>
							</g>
						</g>
						<path fill="#1E2125" d="M117.115,36.217h-1.409v-3.933l-6.873-7.691c-3.614,0.162-6.505,3.154-6.505,6.808v2.363h-1.41V31.4
							c0-4.535,3.689-8.225,8.225-8.225l0.525,0.235l7.27,8.134l0.178,0.469V36.217z"/>
						<path fill="#1E2125" d="M120.051,45.219h-6.981c-7.041,0-12.152-4.701-12.152-11.179v-1.417h1.41v1.417
							c0,5.661,4.518,9.769,10.742,9.769h6.242l-0.313-6.73h-5.929c-3.314,0-4.01-1.652-4.01-3.038v-2.41h1.41v2.41
							c0,0.529,0,1.628,2.6,1.628h6.602l0.704,0.672l0.38,8.141L120.051,45.219z"/>
						<path fill="#1E2125" d="M144.986,36.49h-1.41v-4.476l0.18-0.469l7.27-8.134l0.525-0.235c4.536,0,8.225,3.69,8.225,8.225v1.631
							h-1.409V31.4c0-3.654-2.892-6.646-6.505-6.808l-6.875,7.691V36.49z"/>
						<path fill="#1E2125" d="M147.624,45.219h-6.983l-0.703-0.738l0.38-8.141l0.704-0.672h6.603c1.435,0,2.602-1.167,2.602-2.601
							V31.63h1.409v1.437c0,2.212-1.799,4.011-4.011,4.011h-5.931l-0.312,6.73h6.243c5.924,0,10.742-4.818,10.742-10.742v-0.444
							h1.409v0.444C159.775,39.768,154.324,45.219,147.624,45.219z"/>
					</g>
				</g>
			</g>
		</g>
	</g>
	<g>
		<g>
			<path fill="#1E2125" d="M12.758,27.866h7.692v1.996h-5.463v2.069h4.809v1.997h-4.809v2.142h5.537v1.996h-7.767V27.866z"/>
			<path fill="#1E2125" d="M22.258,36.58l1.326-1.589c0.919,0.758,1.88,1.239,3.046,1.239c0.918,0,1.471-0.365,1.471-0.963v-0.028
				c0-0.568-0.35-0.859-2.054-1.297c-2.054-0.524-3.381-1.093-3.381-3.118v-0.029c0-1.851,1.487-3.075,3.569-3.075
				c1.487,0,2.754,0.466,3.789,1.297l-1.166,1.69c-0.903-0.626-1.792-1.005-2.65-1.005c-0.86,0-1.312,0.394-1.312,0.889v0.029
				c0,0.67,0.438,0.888,2.2,1.34c2.069,0.54,3.235,1.283,3.235,3.06v0.029c0,2.025-1.545,3.161-3.745,3.161
				C25.042,38.211,23.483,37.673,22.258,36.58z"/>
			<path fill="#1E2125" d="M39.904,29.936h-3.103v-2.069h8.451v2.069h-3.104v8.131h-2.244V29.936z"/>
			<path fill="#1E2125" d="M47.25,33.695v-5.829h2.244v5.77c0,1.661,0.829,2.521,2.199,2.521c1.369,0,2.2-0.831,2.2-2.448v-5.843
				h2.243v5.755c0,3.089-1.733,4.605-4.473,4.605C48.923,38.227,47.25,36.696,47.25,33.695z"/>
			<path fill="#1E2125" d="M61.732,34.044l-3.919-6.178h2.622l2.434,4.094l2.477-4.094h2.552l-3.921,6.135v4.065h-2.244V34.044z"/>
			<path fill="#1E2125" d="M68.408,32.995v-0.028c0-2.9,2.287-5.274,5.436-5.274c3.146,0,5.405,2.345,5.405,5.245v0.029
				c0,2.899-2.288,5.274-5.436,5.274S68.408,35.895,68.408,32.995z M76.902,32.995v-0.028c0-1.749-1.281-3.206-3.089-3.206
				c-1.806,0-3.06,1.428-3.06,3.176v0.029c0,1.749,1.283,3.206,3.09,3.206S76.902,34.744,76.902,32.995z"/>
			<path fill="#1E2125" d="M81.522,28.157v-0.291h2.593v0.291l-0.685,6.441h-1.224L81.522,28.157z M81.639,35.734H84v2.332h-2.36
				V35.734z"/>
		</g>
		<g>
			<path fill="#1E2125" d="M59.633,12.271l0.642-0.763c0.58,0.503,1.162,0.789,1.916,0.789c0.659,0,1.075-0.304,1.075-0.763v-0.017
				c0-0.434-0.243-0.667-1.37-0.928c-1.291-0.312-2.021-0.694-2.021-1.812V8.759c0-1.04,0.868-1.76,2.073-1.76
				c0.884,0,1.586,0.269,2.201,0.763l-0.572,0.807c-0.547-0.408-1.092-0.625-1.646-0.625c-0.625,0-0.988,0.321-0.988,0.72v0.018
				c0,0.467,0.277,0.676,1.438,0.953c1.284,0.312,1.952,0.771,1.952,1.777v0.017c0,1.137-0.894,1.812-2.167,1.812
				C61.238,13.241,60.362,12.921,59.633,12.271z"/>
			<path fill="#1E2125" d="M66.169,7.086h1.067v6.069h-1.067V7.086z"/>
			<path fill="#1E2125" d="M72.499,7.086h1.066v5.097h3.19v0.972h-4.257V7.086z"/>
			<path fill="#1E2125" d="M77.769,10.138V10.12c0-1.708,1.318-3.138,3.182-3.138c1.864,0,3.164,1.413,3.164,3.121v0.018
				c0,1.708-1.317,3.139-3.182,3.139S77.769,11.846,77.769,10.138z M82.996,10.138V10.12c0-1.179-0.857-2.159-2.062-2.159
				s-2.046,0.962-2.046,2.141v0.018c0,1.179,0.858,2.159,2.063,2.159S82.996,11.317,82.996,10.138z"/>
		</g>
		<g>
			<path fill="#1E2125" d="M0.559,17.537h1.18l1.83,4.664l1.82-4.664h1.153l-2.523,6.112H3.082L0.559,17.537z"/>
			<path fill="#1E2125" d="M8.103,17.537h4.5v0.953H9.168v1.578h3.042v0.954H9.168v1.629h3.476v0.954H8.103V17.537z"/>
			<path fill="#1E2125" d="M14.43,17.537h0.987l3.252,4.196v-4.196h1.049v6.068h-0.893l-3.347-4.317v4.317H14.43V17.537z"/>
			<path fill="#1E2125" d="M21.86,17.537h1.065v6.068H21.86V17.537z M22.944,15.777l0.952,0.416l-1.109,0.84h-0.814L22.944,15.777z"
				/>
			<path fill="#1E2125" d="M24.66,22.721l0.642-0.763c0.581,0.503,1.162,0.789,1.916,0.789c0.659,0,1.076-0.303,1.076-0.762v-0.018
				c0-0.434-0.243-0.668-1.37-0.928c-1.292-0.312-2.021-0.694-2.021-1.812V19.21c0-1.041,0.867-1.761,2.072-1.761
				c0.884,0,1.587,0.269,2.202,0.763l-0.572,0.806c-0.547-0.408-1.094-0.624-1.647-0.624c-0.624,0-0.987,0.321-0.987,0.72v0.018
				c0,0.468,0.277,0.676,1.438,0.953c1.282,0.312,1.95,0.772,1.95,1.777v0.018c0,1.136-0.893,1.812-2.168,1.812
				C26.263,23.692,25.388,23.372,24.66,22.721z"/>
			<path fill="#1E2125" d="M36.406,17.494h0.988l2.672,6.112h-1.127l-0.616-1.465h-2.87l-0.624,1.465h-1.092L36.406,17.494z
				 M37.933,21.195l-1.051-2.427l-1.04,2.427H37.933z"/>
			<path fill="#1E2125" d="M44.745,17.537h2.724c0.693,0,1.239,0.19,1.586,0.537c0.27,0.269,0.408,0.598,0.408,1.006v0.018
				c0,0.728-0.417,1.118-0.866,1.352c0.71,0.243,1.204,0.65,1.204,1.474v0.017c0,1.084-0.893,1.665-2.244,1.665h-2.812V17.537z
				 M47.251,20.094c0.684,0,1.144-0.269,1.144-0.824v-0.017c0-0.478-0.38-0.772-1.065-0.772h-1.535v1.612H47.251z M47.563,22.66
				c0.729,0,1.171-0.286,1.171-0.832v-0.017c0-0.512-0.408-0.815-1.248-0.815h-1.691v1.665H47.563z"/>
			<path fill="#1E2125" d="M51.429,21.031v-3.494h1.066v3.45c0,1.126,0.582,1.733,1.535,1.733c0.945,0,1.525-0.572,1.525-1.69
				v-3.494h1.066v3.441c0,1.812-1.021,2.722-2.609,2.722C52.435,23.701,51.429,22.791,51.429,21.031z"/>
			<path fill="#1E2125" d="M58.201,22.721l0.641-0.763c0.582,0.503,1.162,0.789,1.917,0.789c0.658,0,1.075-0.303,1.075-0.762v-0.018
				c0-0.434-0.244-0.668-1.371-0.928c-1.292-0.312-2.02-0.694-2.02-1.812V19.21c0-1.041,0.867-1.761,2.072-1.761
				c0.884,0,1.586,0.269,2.201,0.763l-0.572,0.806c-0.546-0.408-1.092-0.624-1.646-0.624c-0.624,0-0.988,0.321-0.988,0.72v0.018
				c0,0.468,0.277,0.676,1.439,0.953c1.283,0.312,1.95,0.772,1.95,1.777v0.018c0,1.136-0.894,1.812-2.168,1.812
				C59.805,23.692,58.928,23.372,58.201,22.721z"/>
			<path fill="#1E2125" d="M64.407,20.588v-0.017c0-1.725,1.294-3.138,3.13-3.138c1.118,0,1.795,0.39,2.375,0.945l-0.684,0.789
				c-0.486-0.451-1.006-0.754-1.7-0.754c-1.161,0-2.001,0.953-2.001,2.141v0.017c0,1.188,0.84,2.159,2.001,2.159
				c0.747,0,1.222-0.303,1.743-0.79l0.686,0.694c-0.634,0.66-1.326,1.076-2.463,1.076C65.724,23.71,64.407,22.331,64.407,20.588z"/>
			<path fill="#1E2125" d="M73.745,17.494h0.989l2.672,6.112h-1.128l-0.615-1.465h-2.871l-0.625,1.465h-1.093L73.745,17.494z
				 M75.272,21.195l-1.05-2.427l-1.04,2.427H75.272z"/>
			<path fill="#1E2125" d="M78.964,17.537h2.706c0.763,0,1.361,0.225,1.751,0.606c0.32,0.329,0.502,0.78,0.502,1.31v0.017
				c0,0.997-0.599,1.595-1.447,1.838l1.639,2.297h-1.257l-1.492-2.116h-1.334v2.116h-1.067V17.537z M81.592,20.544
				c0.761,0,1.248-0.398,1.248-1.014v-0.018c0-0.65-0.469-1.005-1.257-1.005h-1.552v2.037H81.592z"/>
		</g>
	</g>
</g>
</svg>
