<?xml version="1.0" encoding="utf-8"?>
<!-- Generator: Adobe Illustrator 16.0.0, SVG Export Plug-In . SVG Version: 6.00 Build 0)  -->
<!DOCTYPE svg PUBLIC "-//W3C//DTD SVG 1.1//EN" "http://www.w3.org/Graphics/SVG/1.1/DTD/svg11.dtd">
<svg version="1.1" xmlns="http://www.w3.org/2000/svg" xmlns:xlink="http://www.w3.org/1999/xlink" x="0px" y="0px" width="300px"
	 height="50px" viewBox="0 0 300 50" enable-background="new 0 0 300 50" xml:space="preserve">
<g id="Capa_2">
</g>
<g id="Capa_1">
	<g>
		<g>
			<rect x="31.041" y="22.745" fill="#FFFFFF" width="17.407" height="13.641"/>
			<path fill="#BDBDBF" d="M48.447,37.075H31.04l-0.689-0.689V22.745l0.689-0.689h17.407l0.69,0.689v13.641L48.447,37.075z
				 M31.732,35.696h16.023V23.438H31.732V35.696z"/>
			<rect x="29.984" y="22.421" fill="#FFFFFF" width="19.517" height="3.586"/>
			<path fill="#BDBDBF" d="M49.501,26.696H29.984l-0.688-0.689v-3.586l0.688-0.691h19.517l0.693,0.691v3.586L49.501,26.696z
				 M30.675,25.315h18.14V23.11h-18.14V25.315z"/>
			<rect x="38.135" y="22.421" fill="#FFFFFF" width="3.219" height="13.965"/>
			<path fill="#BDBDBF" d="M41.354,37.075h-3.219l-0.69-0.689V22.421l0.69-0.691h3.219l0.689,0.691v13.965L41.354,37.075z
				 M38.825,35.696h1.839V23.112h-1.839V35.696z"/>
			<path fill="#FFFFFF" d="M39.446,21.854c0,0-3.021,0.006-4.34,0.006c-1.316,0-2.385-1.068-2.385-2.387
				c0-1.316,1.068-2.385,2.385-2.385C37.691,17.089,39.446,21.854,39.446,21.854"/>
			<path fill="#BDBDBF" d="M35.106,22.55c-1.694,0-3.075-1.379-3.075-3.076c0-1.695,1.381-3.076,3.075-3.076
				c2.979,0,4.788,4.684,4.987,5.217l-0.647,0.93C39.446,22.544,36.425,22.55,35.106,22.55 M35.106,17.778
				c-0.934,0-1.694,0.762-1.694,1.695s0.761,1.695,1.694,1.695c0.816,0,2.29-0.002,3.29-0.004
				C37.724,19.774,36.46,17.778,35.106,17.778"/>
			<path fill="#FFFFFF" d="M39.932,21.854c0,0,3.021,0.006,4.338,0.006c1.318,0,2.385-1.068,2.385-2.387
				c0-1.316-1.066-2.385-2.385-2.385C41.687,17.089,39.932,21.854,39.932,21.854"/>
			<path fill="#BDBDBF" d="M44.27,22.55c-1.317,0-4.34-0.006-4.34-0.006l-0.646-0.93c0.197-0.533,2.008-5.217,4.986-5.217
				c1.697,0,3.076,1.381,3.076,3.078C47.346,21.169,45.967,22.55,44.27,22.55 M40.98,21.165c1,0.002,2.473,0.004,3.289,0.004
				c0.935,0,1.695-0.762,1.695-1.693c0-0.936-0.761-1.697-1.695-1.697C42.912,17.778,41.652,19.774,40.98,21.165"/>
			<path fill="#FFFFFF" d="M9.043,12.021c0,9.613,8.852,13.375,8.852,13.375s8.849-3.762,8.849-13.375
				c0-4.887-3.964-8.848-8.849-8.848C13.005,3.173,9.043,7.134,9.043,12.021"/>
			<path fill="#BDBDBF" d="M18.18,26.065h-0.573c-0.091-0.039-9.29-4.064-9.29-14.045c0-5.281,4.296-9.576,9.578-9.576
				c5.281,0,9.577,4.295,9.577,9.576C27.472,22.001,18.271,26.026,18.18,26.065 M17.895,3.899c-4.48,0-8.124,3.643-8.124,8.121
				c0,8.16,6.628,11.848,8.124,12.574c1.494-0.727,8.121-4.414,8.121-12.574C26.016,7.542,22.372,3.899,17.895,3.899"/>
			<path fill="#FFFFFF" d="M28.182,12.765c-1.311,0.398-2.74,0.572-4.223,0.471c-5.313-0.375-9.458-4.17-9.817-8.738
				c1.562-0.906,3.404-1.369,5.343-1.234C24.474,3.614,28.274,7.819,28.182,12.765"/>
			<path fill="#BDBDBF" d="M24.797,13.993c-0.296,0-0.593-0.012-0.89-0.033c-5.589-0.393-10.098-4.436-10.491-9.404l0.362-0.688
				c1.735-1.006,3.747-1.473,5.757-1.332c5.356,0.377,9.475,4.877,9.375,10.24l-0.516,0.684
				C27.239,13.812,26.029,13.993,24.797,13.993 M14.917,4.905c0.574,4.041,4.396,7.271,9.095,7.604
				c1.164,0.08,2.329-0.02,3.436-0.297c-0.186-4.35-3.611-7.912-8.016-8.223C17.869,3.882,16.305,4.198,14.917,4.905"/>
			<path fill="#FFFFFF" d="M13.441,4.376c0.377,0.98,0.584,2.059,0.584,3.188c0,3.43-1.914,6.367-4.641,7.617
				c-0.217-0.975-0.342-2.025-0.342-3.158C9.043,8.759,10.812,5.909,13.441,4.376"/>
			<path fill="#BDBDBF" d="M9.688,15.843l-1.014-0.504c-0.239-1.066-0.358-2.184-0.358-3.318c0-3.391,1.821-6.561,4.758-8.273
				l1.045,0.367c0.421,1.096,0.635,2.256,0.635,3.449C14.754,11.185,12.766,14.433,9.688,15.843 M13.04,5.513
				c-2.036,1.523-3.27,3.941-3.27,6.508c0,0.691,0.051,1.375,0.146,2.041c2.081-1.34,3.382-3.793,3.382-6.498
				C13.299,6.864,13.211,6.175,13.04,5.513"/>
			<path fill="#FFFFFF" d="M7.279,22.034c2.322-2.324,2.217-6.41,2.217-6.41s-4.171-0.191-6.494,2.131
				c-1.182,1.182-1.182,3.096,0,4.279C4.182,23.216,6.098,23.216,7.279,22.034"/>
			<path fill="#BDBDBF" d="M5.141,23.647c-1.004,0-1.945-0.391-2.653-1.098c-0.709-0.711-1.102-1.654-1.102-2.656
				s0.393-1.943,1.102-2.654c2.179-2.178,5.734-2.348,6.774-2.348c0.172,0,0.27,0.006,0.27,0.006l0.69,0.709
				c0.009,0.178,0.089,4.426-2.427,6.943C7.085,23.257,6.143,23.647,5.141,23.647 M8.739,16.362
				c-1.168,0.064-3.699,0.383-5.223,1.906c-0.434,0.436-0.673,1.014-0.673,1.625c0,0.613,0.239,1.191,0.673,1.627
				c0.435,0.434,1.012,0.672,1.624,0.672c0.611,0,1.191-0.238,1.625-0.672C8.283,19.999,8.653,17.567,8.739,16.362"/>
			<path fill="#FFFFFF" d="M24.271,40.776c0,3.041,2.466,5.51,5.507,5.51c3.043,0,5.508-2.469,5.508-5.51H24.271z"/>
			<path fill="#BDBDBF" d="M29.777,47.013c-3.438,0-6.234-2.797-6.234-6.236l0.728-0.729h11.015l0.729,0.729
				C36.014,44.216,33.215,47.013,29.777,47.013 M25.054,41.505c0.353,2.291,2.336,4.053,4.724,4.053
				c2.387,0,4.371-1.762,4.724-4.053H25.054z"/>
			<path fill="#FFFFFF" d="M28.766,38.812h-3.369V34.31l-7.507-8.4c-4.288,0-7.766,3.477-7.766,7.768v1.262v1.176v0.287
				c0,6.521,5.305,10.818,11.823,10.818h7.21L28.766,38.812z"/>
			<path fill="#BDBDBF" d="M20.096,21.772c-1.926,0-3.627-1.227-4.234-3.055c-0.127-0.383,0.079-0.795,0.462-0.922
				c0.38-0.127,0.792,0.082,0.92,0.461c0.409,1.232,1.556,2.059,2.853,2.059c0.4,0,0.728,0.326,0.728,0.729
				S20.496,21.772,20.096,21.772"/>
			<path fill="#FFFFFF" d="M55.308,40.776c0,3.041-2.466,5.51-5.506,5.51c-3.042,0-5.507-2.469-5.507-5.51H55.308z"/>
			<path fill="#BDBDBF" d="M49.802,47.013c-3.437,0-6.235-2.797-6.235-6.236l0.729-0.729h11.013l0.728,0.729
				C56.035,44.216,53.239,47.013,49.802,47.013 M45.077,41.505c0.353,2.291,2.335,4.053,4.725,4.053
				c2.387,0,4.371-1.762,4.721-4.053H45.077z"/>
			<path fill="#FFFFFF" d="M61.688,25.909l-7.509,8.4v4.502h-3.365L50.42,47.22h7.213c6.52,0,11.822-5.305,11.822-11.822V35.36
				v-0.422v-1.262C69.455,29.386,65.979,25.909,61.688,25.909"/>
			<path fill="#FFFFFF" d="M70.539,12.021c0,9.613-8.851,13.375-8.851,13.375s-8.853-3.762-8.853-13.375
				c0-4.887,3.965-8.848,8.853-8.848S70.539,7.134,70.539,12.021"/>
			<path fill="#BDBDBF" d="M61.404,26.065c-0.094-0.039-9.295-4.064-9.295-14.045c0-5.281,4.297-9.576,9.579-9.576
				c5.283,0,9.579,4.295,9.579,9.576c0,9.98-9.201,14.006-9.293,14.045H61.404z M61.688,3.899c-4.479,0-8.124,3.643-8.124,8.121
				c0,8.16,6.63,11.848,8.124,12.574c1.495-0.727,8.123-4.414,8.123-12.574C69.812,7.542,66.168,3.899,61.688,3.899"/>
			<path fill="#BDBDBF" d="M59.596,21.772c-0.405,0-0.729-0.326-0.729-0.729s0.323-0.729,0.729-0.729
				c1.294,0,2.441-0.826,2.851-2.059c0.128-0.379,0.541-0.588,0.922-0.461c0.382,0.127,0.588,0.539,0.461,0.922
				C63.218,20.546,61.518,21.772,59.596,21.772"/>
			<path fill="#FFFFFF" d="M66.142,4.376c-0.376,0.98-0.585,2.059-0.585,3.188c0,3.43,1.915,6.367,4.641,7.617
				c0.218-0.975,0.342-2.025,0.342-3.158C70.539,8.759,68.77,5.909,66.142,4.376"/>
			<path fill="#BDBDBF" d="M69.894,15.843c-3.077-1.41-5.065-4.658-5.065-8.279c0-1.193,0.214-2.354,0.635-3.449l1.047-0.367
				c2.936,1.713,4.758,4.883,4.758,8.273c0,1.135-0.121,2.25-0.361,3.318L69.894,15.843z M66.54,5.513
				c-0.169,0.662-0.257,1.352-0.257,2.051c0,2.705,1.301,5.158,3.381,6.498c0.097-0.668,0.147-1.35,0.147-2.041
				C69.812,9.454,68.578,7.036,66.54,5.513"/>
			<path fill="#FFFFFF" d="M51.078,11.89c1.316,0.502,2.768,0.783,4.29,0.783c5.474,0,9.989-3.59,10.688-8.242
				c-1.538-1.041-3.389-1.648-5.384-1.648C55.534,2.782,51.339,6.817,51.078,11.89"/>
			<path fill="#BDBDBF" d="M55.368,13.401c-1.575,0-3.106-0.279-4.55-0.834l-0.468-0.715c0.283-5.496,4.816-9.799,10.322-9.799
				c2.075,0,4.079,0.613,5.792,1.773l0.312,0.711C66.018,9.591,61.115,13.401,55.368,13.401 M51.85,11.39
				c1.125,0.369,2.306,0.557,3.519,0.557c4.854,0,9.011-3.049,9.885-7.166c-1.381-0.832-2.952-1.27-4.58-1.27
				C56.122,3.511,52.346,6.931,51.85,11.39"/>
			<path fill="#BDBDBF" d="M26.124,38.649h-1.456v-4.061l-7.097-7.943c-3.732,0.168-6.72,3.256-6.72,7.029v2.439H9.396v-2.439
				c0-4.684,3.811-8.494,8.493-8.494l0.544,0.244l7.507,8.4l0.184,0.484V38.649z"/>
			<path fill="#BDBDBF" d="M29.157,47.946h-7.21c-7.271,0-12.551-4.854-12.551-11.545v-1.463h1.455v1.463
				c0,5.846,4.666,10.09,11.096,10.09h6.447L28.07,39.54h-6.123c-3.423,0-4.142-1.707-4.142-3.139v-2.488h1.456v2.488
				c0,0.547,0,1.682,2.686,1.682h6.818l0.727,0.693l0.393,8.408L29.157,47.946z"/>
			<path fill="#BDBDBF" d="M54.909,38.933h-1.456V34.31l0.184-0.484l7.51-8.402l0.542-0.242c4.684,0,8.493,3.811,8.493,8.496v1.684
				h-1.455v-1.684c0-3.775-2.985-6.865-6.717-7.031l-7.101,7.941V38.933z"/>
			<path fill="#BDBDBF" d="M57.633,47.946H50.42l-0.725-0.762l0.39-8.408l0.729-0.693h6.818c1.482,0,2.688-1.205,2.688-2.688v-1.482
				h1.454v1.482c0,2.285-1.857,4.145-4.142,4.145h-6.125l-0.322,6.951h6.447c6.119,0,11.094-4.977,11.094-11.096v-0.457h1.455v0.457
				C70.182,42.317,64.553,47.946,57.633,47.946"/>
		</g>
		<g>
			<text transform="matrix(1 0 0 1 103.1777 31.0967)" fill="#7D7D7D" font-family="'ProximaNova-Light'" font-size="16">Si lo venís a buscar es tuyo!</text>
		</g>
		<g>
			<path fill="#8B8D92" d="M89.222,25.909V25.88c0-2.859,2.318-5.268,5.237-5.268c2.952,0,5.238,2.379,5.238,5.238v0.029
				c0,2.859-2.317,5.266-5.238,5.266C91.512,31.146,89.222,28.769,89.222,25.909z M99.096,25.88v-0.029
				c0-2.561-1.986-4.666-4.637-4.666c-2.618,0-4.634,2.137-4.634,4.695v0.029c0,2.559,1.986,4.666,4.634,4.666
				C97.078,30.575,99.096,28.438,99.096,25.88z M92.504,23.14h2.348c1.083,0,1.954,0.572,1.954,1.627
				c0,0.871-0.569,1.385-1.292,1.596l1.474,2.047h-1.053l-1.325-1.928h-1.264v1.928h-0.842V23.14z M94.762,25.79
				c0.752,0,1.173-0.393,1.173-0.963c0-0.633-0.45-0.934-1.173-0.934h-1.416v1.896H94.762z"/>
		</g>
	</g>
</g>
<g id="Layer_3" display="none">
</g>
</svg>
