<svg id="Layer_1" data-name="Layer 1" xmlns="http://www.w3.org/2000/svg" viewBox="0 0 214.42 70.49"><defs><style>.cls-1{fill:#f0f0ec;}</style></defs><path class="cls-1" d="M53,0H6.17A6.18,6.18,0,0,0,0,6.13V64.37a6.17,6.17,0,0,0,6.17,6.12H53a6.17,6.17,0,0,0,6.17-6.12V6.13A6.18,6.18,0,0,0,53,0M43.42,58.85H40a1.5,1.5,0,0,1-1.49-1.28S37.63,39.24,37.63,38c-.22,1.74-5.55,19.64-5.55,19.64a1.68,1.68,0,0,1-1.62,1.15h-1.8a1.64,1.64,0,0,1-1.61-1.15S21.79,39.74,21.51,38c0,.92-.93,19.57-.93,19.57a1.52,1.52,0,0,1-1.48,1.28H15.74a1.14,1.14,0,0,1-1.12-1.28l2.51-28.52a1.51,1.51,0,0,1,1.47-1.28h3.95a1.65,1.65,0,0,1,1.62,1.14s5.29,18.63,5.43,20.25c.14-1.56,5.45-20.25,5.45-20.25a1.66,1.66,0,0,1,1.62-1.14H40.6a1.51,1.51,0,0,1,1.47,1.28l2.46,28.52a1.15,1.15,0,0,1-1.11,1.28m2.07-37.59a3,3,0,0,1-4.08.91l-8.61-5h0l-3.15-1.81-7.15,4.1h0l-4.75,2.72a3,3,0,0,1-4.07-.93,2.93,2.93,0,0,1,1.24-4l8.63-4.92,4.58-2.62.2-.09.26-.12.18-.06a2,2,0,0,1,.42-.1l.13,0a2.88,2.88,0,0,1,.42,0h.17l.36,0,.22.05.32.11.18.08.22.1,8.35,4.82h0l4.7,2.71a2.92,2.92,0,0,1,1.23,4"/><path class="cls-1" d="M77.09,30.38H75.58a1,1,0,0,1-1-1v-19a1,1,0,0,1,1-1h1.51a1,1,0,0,1,1,1v19a1,1,0,0,1-1,1"/><path class="cls-1" d="M91.63,30.38c-.88,0-1.25-.38-1.25-1.28V20.42c0-1.4-.6-2.33-2.08-2.33S85.92,19.17,85.92,21V29.1c0,.9-.37,1.28-1.25,1.28h-.94c-.91,0-1.29-.38-1.29-1.28V16.47c0-.87.38-1.25,1.29-1.25h.15a1.45,1.45,0,0,1,1.54,1.09l.06.19A4.72,4.72,0,0,1,89.09,15c3.3,0,4.74,1.61,4.74,5V29.1c0,.9-.38,1.28-1.26,1.28Z"/><path class="cls-1" d="M104.62,29.2c0,.87-.38,1.24-1.26,1.24h-1c-2.82,0-4-1.12-4-4V18.27h-.85c-.88,0-1.25-.37-1.25-1.27v-.35c0-.9.37-1.27,1.25-1.27h.91L98.94,13a1.3,1.3,0,0,1,1.45-1.15h.18c.88,0,1.25.37,1.25,1.24v2.34h1.51c.88,0,1.26.37,1.26,1.27V17c0,.9-.38,1.27-1.26,1.27h-1.51v8.1c0,.83.29,1.05.89,1.05h.65c.88,0,1.26.37,1.26,1.25Z"/><path class="cls-1" d="M115.28,21.2c0-1.87-.31-3.27-2.26-3.27-1.59,0-2.48.68-2.54,3.27Zm2.26,2.89h-7.06c.1,2,.88,3.33,3.26,3.33a4.35,4.35,0,0,0,2.14-.49,1.41,1.41,0,0,1,.81-.29,1.22,1.22,0,0,1,.88.41l.47.43a1.39,1.39,0,0,1,.44.91,1,1,0,0,1-.5.87,7.16,7.16,0,0,1-4.4,1.28c-4.85,0-6.7-2.53-6.7-7.85,0-4.7,1.47-7.65,6.08-7.65,4.14,0,5.83,2,5.83,7.81,0,.87-.37,1.24-1.25,1.24"/><path class="cls-1" d="M131.05,30.38c-.88,0-1.26-.38-1.26-1.28V20.42c0-1.4-.6-2.33-2.07-2.33s-2.38,1.08-2.38,2.86V29.1c0,.9-.38,1.28-1.25,1.28h-1c-.91,0-1.28-.38-1.28-1.28V16.47c0-.87.37-1.25,1.28-1.25h.16a1.44,1.44,0,0,1,1.53,1.09l.06.19A4.74,4.74,0,0,1,128.51,15c3.29,0,4.73,1.61,4.73,5V29.1c0,.9-.38,1.28-1.25,1.28Z"/><path class="cls-1" d="M142.3,17.84c-2.25,0-2.41,2.46-2.41,4.91,0,3.49.78,4.77,2.38,4.77s2.57-1.5,2.57-4.74-1-4.94-2.54-4.94m2.45-8.38c0-.9.38-1.27,1.25-1.27H147c.87,0,1.25.37,1.25,1.27V29.13c0,.88-.38,1.25-1.25,1.25h-.16a1.44,1.44,0,0,1-1.54-1.09c-.09-.25,0,0-.09-.22a4.5,4.5,0,0,1-3.64,1.46c-3.26,0-5.27-2.27-5.27-7.81,0-4,1-7.84,5.36-7.84A4.5,4.5,0,0,1,144.75,16Z"/><path class="cls-1" d="M159.85,21.2c0-1.87-.31-3.27-2.26-3.27-1.59,0-2.47.68-2.53,3.27Zm2.26,2.89h-7.05c.09,2,.87,3.33,3.26,3.33a4.33,4.33,0,0,0,2.13-.49,1.41,1.41,0,0,1,.82-.29,1.19,1.19,0,0,1,.87.41l.47.43a1.39,1.39,0,0,1,.44.91,1,1,0,0,1-.5.87,7.12,7.12,0,0,1-4.39,1.28c-4.86,0-6.71-2.53-6.71-7.85,0-4.7,1.47-7.65,6.08-7.65,4.14,0,5.83,2,5.83,7.81,0,.87-.37,1.24-1.25,1.24"/><path class="cls-1" d="M175.65,30.38c-.88,0-1.25-.38-1.25-1.28V20.42c0-1.4-.6-2.33-2.08-2.33s-2.38,1.08-2.38,2.86V29.1c0,.9-.38,1.28-1.25,1.28h-.94c-.92,0-1.29-.38-1.29-1.28V16.47c0-.87.37-1.25,1.29-1.25h.15a1.45,1.45,0,0,1,1.54,1.09l.06.19A4.72,4.72,0,0,1,173.11,15c3.29,0,4.73,1.61,4.73,5V29.1c0,.9-.37,1.28-1.25,1.28Z"/><path class="cls-1" d="M190.73,16a1.12,1.12,0,0,1,.54.9,1.31,1.31,0,0,1-.47.91l-.38.37a1.43,1.43,0,0,1-.94.47,1.92,1.92,0,0,1-.81-.25,2.85,2.85,0,0,0-1.42-.34c-2.09,0-2.88,1.68-2.88,4.54,0,3.17.72,4.7,3.1,4.7a3.18,3.18,0,0,0,1.42-.31,1.64,1.64,0,0,1,.84-.28,1.22,1.22,0,0,1,.88.43l.41.38a1.4,1.4,0,0,1,.46.93,1.07,1.07,0,0,1-.49.87,5.64,5.64,0,0,1-3.8,1.18c-4.39,0-6.46-2.7-6.46-7.9,0-4.42,2-7.59,6.52-7.59a5.77,5.77,0,0,1,3.48,1"/><path class="cls-1" d="M194.58,16.31c0-.87.38-1.24,1.26-1.24h.91c.88,0,1.25.37,1.25,1.24V29.13c0,.88-.37,1.25-1.25,1.25h-.91c-.88,0-1.26-.37-1.26-1.25Zm-.09-6.85c0-.9.37-1.27,1.25-1.27h1.1c.88,0,1.25.37,1.25,1.27V11.2c0,.91-.37,1.28-1.25,1.28h-1.1c-.88,0-1.25-.37-1.25-1.28Z"/><path class="cls-1" d="M209.16,24.09h-1.6c-1.69,0-2.91.37-2.91,1.78a1.65,1.65,0,0,0,1.72,1.77,2.64,2.64,0,0,0,2.79-2.27ZM209.5,29a4.79,4.79,0,0,1-3.85,1.49,4.3,4.3,0,0,1-4.52-4.66c0-3.05,2.45-4.55,5.68-4.55H209l.16-.09v-.9c0-1.71-.78-2.18-2.73-2.18a6.65,6.65,0,0,0-2.41.49,2,2,0,0,1-.7.16,1.14,1.14,0,0,1-1-.71l-.22-.47v0a1.67,1.67,0,0,1-.24-.78,1.05,1.05,0,0,1,.72-1,9.65,9.65,0,0,1,4.1-.84c4,0,5.87,1.09,5.87,5.16v8.9c0,.91-.38,1.28-1.29,1.28h-.16a1.47,1.47,0,0,1-1.53-1.09Z"/><path class="cls-1" d="M103.64,46.53c-2.19,0-2.79,1.43-2.79,4.7s.56,4.76,2.79,4.76,2.82-1.4,2.82-4.76-.68-4.7-2.82-4.7m0,12.48c-4.77,0-6.34-2.89-6.34-7.78s1.61-7.72,6.34-7.72S110,46.44,110,51.23,108.35,59,103.64,59"/><path class="cls-1" d="M122.29,58.86c-.88,0-1.25-.38-1.25-1.28V48.89c0-1.39-.6-2.33-2.07-2.33s-2.39,1.09-2.39,2.87v8.15c0,.9-.37,1.28-1.25,1.28h-.94c-.91,0-1.29-.38-1.29-1.28V44.94c0-.87.38-1.24,1.29-1.24h.16a1.44,1.44,0,0,1,1.53,1.09l.06.18a4.77,4.77,0,0,1,3.61-1.46c3.3,0,4.74,1.62,4.74,5v9.06c0,.9-.38,1.28-1.25,1.28Z"/><path class="cls-1" d="M134.92,57.67c0,.87-.38,1.25-1.25,1.25h-1c-2.82,0-3.95-1.12-3.95-4V46.75h-.84c-.88,0-1.26-.38-1.26-1.28v-.34c0-.9.38-1.28,1.26-1.28h.9l.47-2.42a1.3,1.3,0,0,1,1.45-1.15h.18c.88,0,1.26.37,1.26,1.24v2.33h1.5c.88,0,1.26.38,1.26,1.28v.34c0,.9-.38,1.28-1.26,1.28h-1.5v8.09c0,.84.28,1.06.88,1.06h.66c.87,0,1.25.37,1.25,1.24Z"/><path class="cls-1" d="M145.37,49.67c0-1.86-.31-3.26-2.25-3.26-1.6,0-2.49.68-2.54,3.26Zm2.26,2.9h-7c.09,2,.87,3.33,3.26,3.33a4.17,4.17,0,0,0,2.13-.5,1.4,1.4,0,0,1,.82-.28,1.15,1.15,0,0,1,.87.41l.47.43a1.34,1.34,0,0,1,.45.9,1,1,0,0,1-.51.87A7.05,7.05,0,0,1,143.68,59c-4.86,0-6.71-2.52-6.71-7.84,0-4.7,1.47-7.66,6.08-7.66,4.14,0,5.83,2,5.83,7.81,0,.87-.37,1.25-1.25,1.25"/><path class="cls-1" d="M156.78,55.93l.35-.16,2.73-10.92a1.34,1.34,0,0,1,1.47-1.15h1.22c.72,0,1.07.28,1.07.87a1.14,1.14,0,0,1-.1.47h0l-3.84,12.69v0a1.34,1.34,0,0,1-1.46,1.16h-2.58a1.38,1.38,0,0,1-1.5-1.16v0L150.35,45a1.19,1.19,0,0,1-.06-.44c0-.62.31-.9,1.06-.9h1.23a1.38,1.38,0,0,1,1.48,1.15Z"/><path class="cls-1" d="M165.84,44.79c0-.87.37-1.24,1.25-1.24H168c.88,0,1.26.37,1.26,1.24V57.61c0,.87-.38,1.25-1.26,1.25h-.91c-.88,0-1.25-.38-1.25-1.25Zm-.1-6.85c0-.9.38-1.27,1.25-1.27h1.1c.88,0,1.26.37,1.26,1.27v1.74c0,.91-.38,1.28-1.26,1.28H167c-.87,0-1.25-.37-1.25-1.28Z"/><path class="cls-1" d="M178.56,46.31c-2.25,0-2.41,2.46-2.41,4.92,0,3.49.78,4.76,2.38,4.76s2.57-1.49,2.57-4.73-1-4.95-2.54-4.95M181,37.94c0-.9.38-1.28,1.25-1.28h.94c.88,0,1.26.38,1.26,1.28V57.61c0,.87-.38,1.25-1.26,1.25h-.15a1.45,1.45,0,0,1-1.54-1.09c-.09-.25,0,0-.09-.22A4.5,4.5,0,0,1,177.78,59c-3.26,0-5.27-2.27-5.27-7.81,0-4.05,1-7.84,5.36-7.84A4.46,4.46,0,0,1,181,44.48Z"/><path class="cls-1" d="M195.71,49.67c0-1.86-.31-3.26-2.26-3.26-1.6,0-2.48.68-2.54,3.26Zm2.26,2.9h-7.06c.1,2,.88,3.33,3.26,3.33a4.22,4.22,0,0,0,2.14-.5,1.39,1.39,0,0,1,.81-.28,1.17,1.17,0,0,1,.88.41l.47.43a1.37,1.37,0,0,1,.44.9,1,1,0,0,1-.5.87A7.09,7.09,0,0,1,194,59c-4.86,0-6.7-2.52-6.7-7.84,0-4.7,1.47-7.66,6.08-7.66,4.14,0,5.83,2,5.83,7.81,0,.87-.38,1.25-1.25,1.25"/><path class="cls-1" d="M208.08,46.53c-2.19,0-2.79,1.43-2.79,4.7s.57,4.76,2.79,4.76,2.82-1.4,2.82-4.76-.68-4.7-2.82-4.7m0,12.48c-4.76,0-6.33-2.89-6.33-7.78s1.6-7.72,6.33-7.72,6.34,2.93,6.34,7.72S212.79,59,208.08,59"/><path class="cls-1" d="M94.91,57.58v.13c0,.8-.35,1.15-1.19,1.15H92.5c-.85,0-1.23-.38-1.28-1.25l-.5-13.27-4.06,13.4a1.42,1.42,0,0,1-1.53,1.12h-.78a1.44,1.44,0,0,1-1.53-1.12l-4-13.33-.63,13.2c-.07.87-.44,1.25-1.29,1.25H75.73c-.84,0-1.18-.35-1.18-1.15v-.13l1.3-18.45a1.14,1.14,0,0,1,1.32-1.25H78.9A1.43,1.43,0,0,1,80.39,39l4.4,14.56c1.53-4.94,2.8-9.65,4.33-14.56a1.44,1.44,0,0,1,1.5-1.15h1.75c.88,0,1.29.38,1.32,1.25Z"/></svg>