<?xml version="1.0" encoding="utf-8"?>
<!-- Generator: Adobe Illustrator 16.0.0, SVG Export Plug-In . SVG Version: 6.00 Build 0)  -->
<!DOCTYPE svg PUBLIC "-//W3C//DTD SVG 1.1//EN" "http://www.w3.org/Graphics/SVG/1.1/DTD/svg11.dtd">
<svg version="1.1" xmlns="http://www.w3.org/2000/svg" xmlns:xlink="http://www.w3.org/1999/xlink" x="0px" y="0px" width="158px"
	 height="86px" viewBox="0 0 158 86" enable-background="new 0 0 158 86" xml:space="preserve">
<g id="Capa_2">
</g>
<g id="Capa_1">
	<g>
		<rect x="0.58" y="0.549" width="36.9" height="42.469"/>
		<rect x="40.56" y="0.549" width="36.902" height="42.469"/>
		<rect x="80.535" y="0.549" width="36.904" height="42.469"/>
		<rect x="120.515" y="0.549" width="36.904" height="42.469"/>
		<polygon fill="#FFFFFF" points="108.776,9.761 109.119,10.104 109.119,13.889 108.776,14.233 101.428,14.233 101.428,29.334 
			108.776,29.334 109.119,29.678 109.119,33.463 108.776,33.807 89.197,33.807 88.854,33.463 88.854,29.678 89.197,29.334 
			96.547,29.334 96.547,14.233 89.197,14.233 88.854,13.889 88.854,10.104 89.197,9.761 		"/>
		<polygon fill="#FFFFFF" points="148.755,9.761 149.099,10.104 149.099,13.889 148.755,14.233 141.408,14.233 141.408,29.334 
			148.755,29.334 149.099,29.677 149.099,33.463 148.755,33.807 129.178,33.807 128.835,33.463 128.835,29.677 129.178,29.334 
			136.525,29.334 136.525,14.233 129.178,14.233 128.835,13.889 128.835,10.104 129.178,9.761 		"/>
		<polygon fill="#FFFFFF" points="68.769,9.764 64.576,9.764 64.234,10.106 64.234,21.591 53.784,13.975 53.784,10.106 53.44,9.764 
			49.246,9.764 48.901,10.106 48.901,33.466 49.246,33.809 53.44,33.809 53.784,33.466 53.784,20.014 64.234,27.628 64.234,33.466 
			64.576,33.809 68.769,33.809 69.113,33.466 69.113,10.106 		"/>
		<rect x="12.863" y="25.291" fill="#FFFFFF" width="12.332" height="4.473"/>
		<polygon fill="#FFFFFF" points="19.202,15.853 24.281,25.282 24.281,33.458 24.628,33.806 28.817,33.806 29.164,33.458 
			29.164,24.05 21.604,10.104 21.151,9.761 16.908,9.761 16.454,10.104 8.896,24.05 8.896,33.458 9.241,33.806 13.435,33.806 
			13.777,33.458 13.777,25.282 18.859,15.853 		"/>
		<path d="M4.755,57.434c-0.068-0.438-0.174-0.862-0.316-1.275c-0.144-0.41-0.294-0.789-0.455-1.136
			c-0.162-0.346-0.314-0.647-0.463-0.904c-0.146-0.259-0.257-0.452-0.334-0.584H3.176c-0.077,0.132-0.189,0.325-0.334,0.584
			c-0.146,0.257-0.3,0.559-0.463,0.904c-0.161,0.347-0.312,0.726-0.456,1.136c-0.142,0.413-0.247,0.838-0.316,1.275H4.755z
			 M3.753,52.658c0.206,0.339,0.429,0.72,0.663,1.142c0.234,0.424,0.454,0.877,0.657,1.361c0.204,0.484,0.372,0.991,0.507,1.517
			c0.134,0.527,0.201,1.061,0.201,1.598v1.627c0,0.084-0.028,0.156-0.085,0.213c-0.058,0.059-0.129,0.087-0.213,0.087H5.122
			c-0.081,0-0.152-0.028-0.211-0.087c-0.056-0.057-0.086-0.129-0.086-0.213V58.38H1.538v1.522c0,0.084-0.031,0.156-0.088,0.213
			c-0.056,0.059-0.129,0.087-0.213,0.087H0.879c-0.083,0-0.155-0.028-0.212-0.087c-0.058-0.057-0.086-0.129-0.086-0.213v-1.627
			c0-0.537,0.065-1.07,0.2-1.598c0.135-0.525,0.306-1.032,0.509-1.517c0.202-0.484,0.423-0.938,0.658-1.361
			c0.231-0.422,0.455-0.803,0.663-1.142c0.053-0.085,0.108-0.155,0.167-0.214c0.057-0.057,0.127-0.086,0.211-0.086h0.383
			c0.085,0,0.155,0.029,0.213,0.086C3.642,52.503,3.697,52.573,3.753,52.658"/>
		<path d="M13.108,56.741c0,0.354-0.019,0.684-0.053,0.986c-0.035,0.304-0.082,0.552-0.146,0.744
			c-0.191,0.601-0.522,1.059-0.988,1.378s-1.025,0.479-1.68,0.479c-0.67,0-1.238-0.153-1.701-0.462
			c-0.461-0.308-0.793-0.765-0.994-1.372c-0.037-0.115-0.069-0.234-0.093-0.357c-0.022-0.123-0.043-0.268-0.062-0.432
			c-0.02-0.166-0.032-0.365-0.041-0.596c-0.006-0.23-0.012-0.507-0.012-0.83s0.006-0.6,0.012-0.831
			c0.009-0.231,0.021-0.429,0.041-0.593c0.02-0.167,0.04-0.31,0.062-0.434c0.023-0.123,0.053-0.242,0.093-0.357
			C7.746,53.458,8.078,53,8.538,52.692c0.464-0.307,1.026-0.461,1.696-0.461c0.646,0,1.176,0.134,1.587,0.403s0.726,0.6,0.94,0.992
			c0.039,0.077,0.046,0.154,0.023,0.23c-0.023,0.077-0.074,0.135-0.151,0.174l-0.356,0.172c-0.161,0.093-0.297,0.05-0.403-0.126
			c-0.186-0.3-0.406-0.523-0.664-0.669c-0.259-0.146-0.582-0.22-0.976-0.22c-0.445,0-0.809,0.101-1.09,0.301
			c-0.283,0.2-0.482,0.487-0.606,0.864c-0.021,0.069-0.045,0.155-0.067,0.254c-0.025,0.1-0.041,0.223-0.052,0.369
			c-0.012,0.146-0.022,0.324-0.028,0.536c-0.009,0.212-0.014,0.468-0.014,0.768c0,0.301,0.005,0.556,0.014,0.767
			c0.006,0.212,0.017,0.391,0.028,0.536c0.011,0.146,0.026,0.271,0.052,0.369c0.022,0.102,0.046,0.186,0.067,0.255
			c0.124,0.376,0.323,0.665,0.606,0.865c0.281,0.199,0.645,0.3,1.09,0.3c0.4,0,0.751-0.096,1.051-0.289
			c0.297-0.192,0.511-0.472,0.634-0.842c0.038-0.131,0.073-0.296,0.102-0.497c0.033-0.199,0.049-0.444,0.049-0.736
			c0-0.047-0.023-0.07-0.069-0.07h-1.338c-0.085,0-0.156-0.028-0.214-0.086c-0.059-0.059-0.087-0.129-0.087-0.214v-0.299
			c0-0.085,0.028-0.156,0.087-0.215c0.058-0.058,0.129-0.087,0.214-0.087h2.141c0.087,0,0.159,0.029,0.217,0.087
			c0.059,0.059,0.089,0.13,0.089,0.215V56.741z"/>
		<path d="M15.06,60.202c-0.086,0-0.159-0.028-0.216-0.087c-0.06-0.057-0.087-0.129-0.087-0.213v-7.244
			c0-0.085,0.027-0.155,0.087-0.214c0.057-0.057,0.13-0.086,0.216-0.086h4.358c0.084,0,0.154,0.029,0.213,0.086
			c0.058,0.059,0.086,0.129,0.086,0.214v0.358c0,0.084-0.028,0.155-0.086,0.212c-0.059,0.059-0.129,0.087-0.213,0.087h-3.554
			c-0.046,0-0.069,0.023-0.069,0.069v2.308c0,0.046,0.023,0.069,0.069,0.069h2.986c0.085,0,0.155,0.028,0.214,0.086
			c0.058,0.058,0.087,0.129,0.087,0.213v0.357c0,0.086-0.029,0.156-0.087,0.214c-0.059,0.059-0.129,0.087-0.214,0.087h-2.986
			c-0.046,0-0.069,0.022-0.069,0.068v2.389c0,0.046,0.023,0.069,0.069,0.069h3.554c0.084,0,0.154,0.029,0.213,0.086
			c0.058,0.059,0.086,0.13,0.086,0.214v0.357c0,0.084-0.028,0.156-0.086,0.213c-0.059,0.059-0.129,0.087-0.213,0.087H15.06z"/>
		<path d="M25.9,52.658c0-0.085,0.028-0.155,0.086-0.214c0.059-0.057,0.131-0.086,0.216-0.086h0.362
			c0.087,0,0.159,0.029,0.216,0.086c0.059,0.059,0.089,0.129,0.089,0.214v7.244c0,0.084-0.03,0.156-0.089,0.213
			c-0.057,0.059-0.129,0.087-0.216,0.087h-0.362c-0.085,0-0.157-0.028-0.216-0.087c-0.058-0.057-0.086-0.129-0.086-0.213v-1.534
			l-3.646-3.311H22.22v4.845c0,0.084-0.028,0.156-0.089,0.213c-0.058,0.059-0.129,0.087-0.215,0.087h-0.362
			c-0.087,0-0.157-0.028-0.216-0.087c-0.059-0.057-0.087-0.129-0.087-0.213v-7.244c0-0.085,0.028-0.155,0.087-0.214
			c0.059-0.057,0.129-0.086,0.216-0.086h0.362c0.086,0,0.157,0.029,0.215,0.086c0.061,0.059,0.089,0.129,0.089,0.214v0.98
			l3.633,3.334H25.9V52.658z"/>
		<path d="M33.755,58.922c-0.238,0.453-0.564,0.801-0.974,1.044c-0.412,0.242-0.894,0.363-1.448,0.363
			c-0.646,0-1.193-0.151-1.64-0.456c-0.445-0.304-0.767-0.767-0.97-1.39c-0.038-0.115-0.068-0.232-0.097-0.352
			c-0.026-0.119-0.048-0.261-0.062-0.427c-0.016-0.165-0.027-0.364-0.035-0.595c-0.009-0.229-0.011-0.508-0.011-0.83
			c0-0.323,0.002-0.6,0.011-0.831c0.008-0.231,0.02-0.428,0.035-0.593c0.015-0.166,0.036-0.309,0.062-0.428
			c0.028-0.119,0.059-0.236,0.097-0.351c0.203-0.624,0.524-1.088,0.97-1.392c0.446-0.303,0.994-0.455,1.64-0.455
			c0.555,0,1.036,0.121,1.448,0.363c0.409,0.242,0.735,0.59,0.974,1.044c0.038,0.077,0.046,0.153,0.023,0.23
			c-0.023,0.078-0.073,0.135-0.151,0.174l-0.357,0.173c-0.078,0.038-0.153,0.048-0.229,0.028c-0.078-0.019-0.135-0.071-0.173-0.155
			c-0.146-0.27-0.345-0.486-0.595-0.652c-0.252-0.165-0.563-0.248-0.939-0.248c-0.432,0-0.777,0.101-1.038,0.301
			c-0.264,0.2-0.458,0.484-0.589,0.853c-0.024,0.086-0.045,0.175-0.063,0.272c-0.019,0.096-0.034,0.214-0.047,0.357
			c-0.011,0.142-0.02,0.319-0.027,0.529c-0.009,0.212-0.013,0.471-0.013,0.779c0,0.307,0.004,0.567,0.013,0.778
			c0.008,0.212,0.017,0.388,0.027,0.531c0.013,0.142,0.028,0.263,0.047,0.362c0.019,0.102,0.039,0.189,0.063,0.267
			c0.131,0.369,0.325,0.653,0.589,0.854c0.261,0.199,0.606,0.299,1.038,0.299c0.376,0,0.684-0.083,0.934-0.247
			c0.246-0.166,0.446-0.383,0.601-0.652c0.046-0.085,0.104-0.136,0.178-0.155s0.146-0.01,0.225,0.028l0.357,0.174
			c0.078,0.038,0.128,0.097,0.151,0.173C33.801,58.769,33.793,58.845,33.755,58.922"/>
		<path d="M37.308,52.358c0.085,0,0.155,0.029,0.213,0.086c0.058,0.059,0.087,0.129,0.087,0.214v0.358
			c0,0.085-0.029,0.155-0.087,0.212c-0.058,0.059-0.128,0.087-0.213,0.087h-0.576v5.93h0.576c0.085,0,0.155,0.029,0.213,0.086
			c0.058,0.059,0.087,0.129,0.087,0.214v0.357c0,0.084-0.029,0.156-0.087,0.213c-0.058,0.059-0.128,0.087-0.213,0.087h-1.311H35.95
			h-0.835c-0.086,0-0.154-0.028-0.212-0.087c-0.06-0.057-0.088-0.129-0.088-0.213v-0.357c0-0.085,0.028-0.155,0.088-0.214
			c0.058-0.057,0.126-0.086,0.212-0.086h0.577v-5.93h-0.577c-0.086,0-0.154-0.028-0.212-0.087c-0.06-0.057-0.088-0.127-0.088-0.212
			v-0.358c0-0.085,0.028-0.155,0.088-0.214c0.058-0.057,0.126-0.086,0.212-0.086H37.308z"/>
		<path d="M43.086,57.434c-0.069-0.438-0.173-0.862-0.317-1.275c-0.142-0.41-0.292-0.789-0.456-1.136
			c-0.16-0.346-0.314-0.647-0.461-0.904c-0.146-0.259-0.256-0.452-0.334-0.584h-0.011c-0.079,0.132-0.189,0.325-0.334,0.584
			c-0.146,0.257-0.301,0.559-0.462,0.904c-0.161,0.347-0.314,0.726-0.456,1.136c-0.144,0.413-0.248,0.838-0.318,1.275H43.086z
			 M42.084,52.658c0.208,0.339,0.428,0.72,0.662,1.142c0.234,0.424,0.454,0.877,0.658,1.361s0.373,0.991,0.509,1.517
			c0.134,0.527,0.2,1.061,0.2,1.598v1.627c0,0.084-0.028,0.156-0.086,0.213c-0.057,0.059-0.128,0.087-0.213,0.087h-0.358
			c-0.085,0-0.154-0.028-0.215-0.087c-0.057-0.057-0.085-0.129-0.085-0.213V58.38H39.87v1.522c0,0.084-0.031,0.156-0.089,0.213
			c-0.058,0.059-0.128,0.087-0.214,0.087h-0.358c-0.082,0-0.153-0.028-0.211-0.087c-0.058-0.057-0.087-0.129-0.087-0.213v-1.627
			c0-0.537,0.067-1.07,0.202-1.598c0.135-0.525,0.303-1.032,0.507-1.517c0.203-0.484,0.423-0.938,0.657-1.361
			c0.235-0.422,0.456-0.803,0.664-1.142c0.055-0.085,0.11-0.155,0.167-0.214c0.059-0.057,0.129-0.086,0.213-0.086h0.383
			c0.083,0,0.152,0.029,0.212,0.086C41.972,52.503,42.029,52.573,42.084,52.658"/>
		<path d="M53.364,52.658c0-0.085,0.031-0.155,0.088-0.214c0.059-0.057,0.13-0.086,0.216-0.086h0.361
			c0.086,0,0.158,0.029,0.217,0.086c0.058,0.059,0.089,0.129,0.089,0.214v7.244c0,0.084-0.031,0.156-0.089,0.213
			c-0.059,0.059-0.131,0.087-0.217,0.087h-0.361c-0.086,0-0.157-0.028-0.216-0.087c-0.057-0.057-0.088-0.129-0.088-0.213v-1.534
			l-3.645-3.311h-0.035v4.845c0,0.084-0.028,0.156-0.089,0.213c-0.056,0.059-0.13,0.087-0.214,0.087h-0.361
			c-0.086,0-0.159-0.028-0.217-0.087c-0.058-0.057-0.089-0.129-0.089-0.213v-7.244c0-0.085,0.031-0.155,0.089-0.214
			c0.058-0.057,0.131-0.086,0.217-0.086h0.361c0.084,0,0.158,0.029,0.214,0.086c0.061,0.059,0.089,0.129,0.089,0.214v0.98
			l3.633,3.334h0.047V52.658z"/>
		<path d="M60.32,57.434c-0.07-0.438-0.174-0.862-0.316-1.275c-0.144-0.41-0.294-0.789-0.455-1.136
			c-0.162-0.346-0.316-0.647-0.462-0.904c-0.146-0.259-0.258-0.452-0.336-0.584h-0.012c-0.075,0.132-0.188,0.325-0.334,0.584
			c-0.146,0.257-0.301,0.559-0.46,0.904c-0.162,0.347-0.314,0.726-0.458,1.136c-0.142,0.413-0.247,0.838-0.316,1.275H60.32z
			 M59.317,52.658c0.208,0.339,0.428,0.72,0.663,1.142c0.234,0.424,0.454,0.877,0.657,1.361c0.204,0.484,0.374,0.991,0.506,1.517
			c0.137,0.527,0.204,1.061,0.204,1.598v1.627c0,0.084-0.03,0.156-0.088,0.213c-0.056,0.059-0.127,0.087-0.213,0.087h-0.358
			c-0.084,0-0.153-0.028-0.214-0.087c-0.056-0.057-0.084-0.129-0.084-0.213V58.38h-3.287v1.522c0,0.084-0.031,0.156-0.088,0.213
			c-0.058,0.059-0.129,0.087-0.215,0.087h-0.355c-0.085,0-0.155-0.028-0.213-0.087c-0.059-0.057-0.088-0.129-0.088-0.213v-1.627
			c0-0.537,0.068-1.07,0.202-1.598c0.136-0.525,0.305-1.032,0.508-1.517s0.421-0.938,0.657-1.361
			c0.234-0.422,0.457-0.803,0.662-1.142c0.056-0.085,0.11-0.155,0.168-0.214c0.06-0.057,0.13-0.086,0.214-0.086h0.381
			c0.086,0,0.155,0.029,0.212,0.086C59.206,52.503,59.264,52.573,59.317,52.658"/>
		<path d="M67.91,58.922c-0.237,0.453-0.562,0.801-0.975,1.044c-0.411,0.242-0.894,0.363-1.447,0.363
			c-0.646,0-1.191-0.151-1.638-0.456c-0.448-0.304-0.769-0.767-0.969-1.39c-0.038-0.115-0.071-0.232-0.099-0.352
			c-0.028-0.119-0.05-0.261-0.064-0.427c-0.017-0.165-0.025-0.364-0.033-0.595c-0.01-0.229-0.012-0.508-0.012-0.83
			c0-0.323,0.002-0.6,0.012-0.831c0.008-0.231,0.017-0.428,0.033-0.593c0.015-0.166,0.036-0.309,0.064-0.428
			c0.027-0.119,0.061-0.236,0.099-0.351c0.2-0.624,0.521-1.088,0.969-1.392c0.446-0.303,0.992-0.455,1.638-0.455
			c0.554,0,1.036,0.121,1.447,0.363c0.412,0.242,0.737,0.59,0.975,1.044c0.039,0.077,0.046,0.153,0.024,0.23
			c-0.024,0.078-0.073,0.135-0.151,0.174l-0.356,0.173c-0.077,0.038-0.154,0.048-0.23,0.028c-0.078-0.019-0.137-0.071-0.174-0.155
			c-0.146-0.27-0.344-0.486-0.595-0.652c-0.25-0.165-0.562-0.248-0.939-0.248c-0.43,0-0.777,0.101-1.037,0.301
			c-0.263,0.2-0.459,0.484-0.59,0.853c-0.022,0.086-0.043,0.175-0.062,0.272c-0.02,0.096-0.035,0.214-0.048,0.357
			c-0.011,0.142-0.022,0.319-0.028,0.529c-0.008,0.212-0.012,0.471-0.012,0.779c0,0.307,0.004,0.567,0.012,0.778
			c0.006,0.212,0.018,0.388,0.028,0.531c0.013,0.142,0.028,0.263,0.048,0.362c0.02,0.102,0.04,0.189,0.062,0.267
			c0.131,0.369,0.327,0.653,0.59,0.854c0.26,0.199,0.607,0.299,1.037,0.299c0.377,0,0.688-0.083,0.935-0.247
			c0.246-0.166,0.445-0.383,0.6-0.652c0.047-0.085,0.104-0.136,0.178-0.155c0.074-0.02,0.149-0.01,0.227,0.028l0.356,0.174
			c0.078,0.038,0.127,0.097,0.151,0.173C67.956,58.769,67.949,58.845,67.91,58.922"/>
		<path d="M71.463,52.358c0.084,0,0.156,0.029,0.213,0.086c0.058,0.059,0.088,0.129,0.088,0.214v0.358
			c0,0.085-0.03,0.155-0.088,0.212c-0.057,0.059-0.129,0.087-0.213,0.087h-0.576v5.93h0.576c0.084,0,0.156,0.029,0.213,0.086
			c0.058,0.059,0.088,0.129,0.088,0.214v0.357c0,0.084-0.03,0.156-0.088,0.213c-0.057,0.059-0.129,0.087-0.213,0.087H70.15h-0.046
			h-0.833c-0.083,0-0.156-0.028-0.213-0.087c-0.058-0.057-0.087-0.129-0.087-0.213v-0.357c0-0.085,0.029-0.155,0.087-0.214
			c0.057-0.057,0.13-0.086,0.213-0.086h0.578v-5.93h-0.578c-0.083,0-0.156-0.028-0.213-0.087c-0.058-0.057-0.087-0.127-0.087-0.212
			v-0.358c0-0.085,0.029-0.155,0.087-0.214c0.057-0.057,0.13-0.086,0.213-0.086H71.463z"/>
		<path d="M75.777,59.372c0.438,0,0.796-0.101,1.073-0.301c0.275-0.2,0.477-0.488,0.599-0.864c0.024-0.069,0.045-0.156,0.064-0.259
			c0.019-0.105,0.039-0.232,0.058-0.388c0.02-0.154,0.032-0.335,0.041-0.542c0.008-0.207,0.012-0.454,0.012-0.739
			c0-0.283-0.004-0.529-0.012-0.737c-0.009-0.208-0.021-0.389-0.041-0.542c-0.019-0.154-0.039-0.283-0.058-0.387
			c-0.02-0.104-0.04-0.19-0.064-0.259c-0.122-0.378-0.323-0.666-0.599-0.865c-0.277-0.201-0.636-0.301-1.073-0.301
			c-0.439,0-0.794,0.1-1.066,0.301c-0.273,0.199-0.472,0.487-0.596,0.865c-0.021,0.068-0.043,0.155-0.063,0.259
			c-0.018,0.104-0.037,0.232-0.056,0.387c-0.021,0.153-0.033,0.334-0.04,0.542c-0.008,0.208-0.013,0.454-0.013,0.737
			c0,0.285,0.005,0.532,0.013,0.739c0.007,0.207,0.02,0.388,0.04,0.542c0.019,0.155,0.038,0.282,0.056,0.388
			c0.021,0.103,0.042,0.189,0.063,0.259c0.124,0.376,0.322,0.664,0.596,0.864C74.983,59.271,75.338,59.372,75.777,59.372
			 M75.777,60.329c-0.662,0-1.222-0.153-1.679-0.462c-0.457-0.308-0.786-0.765-0.985-1.372c-0.04-0.115-0.07-0.234-0.099-0.357
			c-0.027-0.123-0.048-0.268-0.064-0.433c-0.014-0.165-0.025-0.364-0.034-0.595c-0.007-0.229-0.011-0.508-0.011-0.831
			c0-0.322,0.004-0.598,0.011-0.83c0.009-0.23,0.021-0.429,0.034-0.594c0.017-0.165,0.037-0.309,0.064-0.433
			c0.028-0.123,0.059-0.242,0.099-0.357c0.199-0.607,0.528-1.065,0.985-1.372c0.457-0.309,1.017-0.462,1.679-0.462
			c0.668,0,1.231,0.153,1.689,0.462c0.459,0.307,0.787,0.765,0.987,1.372c0.039,0.115,0.071,0.234,0.098,0.357
			c0.026,0.124,0.049,0.268,0.062,0.433c0.018,0.165,0.029,0.363,0.037,0.594c0.007,0.232,0.011,0.508,0.011,0.83
			c0,0.323-0.004,0.602-0.011,0.831c-0.008,0.23-0.02,0.43-0.037,0.595c-0.013,0.165-0.035,0.31-0.062,0.433
			s-0.059,0.242-0.098,0.357c-0.2,0.607-0.528,1.064-0.987,1.372C77.009,60.176,76.445,60.329,75.777,60.329"/>
		<path d="M84.972,52.658c0-0.085,0.029-0.155,0.088-0.214c0.059-0.057,0.129-0.086,0.215-0.086h0.361
			c0.087,0,0.158,0.029,0.217,0.086c0.058,0.059,0.088,0.129,0.088,0.214v7.244c0,0.084-0.03,0.156-0.088,0.213
			c-0.059,0.059-0.13,0.087-0.217,0.087h-0.361c-0.086,0-0.156-0.028-0.215-0.087c-0.059-0.057-0.088-0.129-0.088-0.213v-1.534
			l-3.646-3.311H81.29v4.845c0,0.084-0.028,0.156-0.086,0.213c-0.058,0.059-0.131,0.087-0.216,0.087h-0.363
			c-0.085,0-0.157-0.028-0.216-0.087c-0.057-0.057-0.086-0.129-0.086-0.213v-7.244c0-0.085,0.029-0.155,0.086-0.214
			c0.059-0.057,0.131-0.086,0.216-0.086h0.363c0.085,0,0.158,0.029,0.216,0.086c0.058,0.059,0.086,0.129,0.086,0.214v0.98
			l3.636,3.334h0.046V52.658z"/>
		<path d="M91.927,57.434c-0.068-0.438-0.174-0.862-0.316-1.275c-0.143-0.41-0.296-0.789-0.455-1.136
			c-0.162-0.346-0.316-0.647-0.464-0.904c-0.146-0.259-0.257-0.452-0.333-0.584h-0.012c-0.078,0.132-0.188,0.325-0.335,0.584
			c-0.146,0.257-0.301,0.559-0.461,0.904c-0.161,0.347-0.313,0.726-0.456,1.136c-0.143,0.413-0.247,0.838-0.317,1.275H91.927z
			 M90.923,52.658c0.208,0.339,0.43,0.72,0.664,1.142c0.233,0.424,0.453,0.877,0.658,1.361c0.203,0.484,0.373,0.991,0.506,1.517
			c0.135,0.527,0.203,1.061,0.203,1.598v1.627c0,0.084-0.029,0.156-0.089,0.213c-0.057,0.059-0.128,0.087-0.212,0.087h-0.358
			c-0.082,0-0.155-0.028-0.213-0.087c-0.057-0.057-0.086-0.129-0.086-0.213V58.38h-3.287v1.522c0,0.084-0.029,0.156-0.088,0.213
			c-0.057,0.059-0.127,0.087-0.212,0.087h-0.358c-0.084,0-0.155-0.028-0.213-0.087c-0.059-0.057-0.087-0.129-0.087-0.213v-1.627
			c0-0.537,0.067-1.07,0.202-1.598c0.134-0.525,0.304-1.032,0.508-1.517c0.203-0.484,0.423-0.938,0.657-1.361
			c0.234-0.422,0.455-0.803,0.663-1.142c0.053-0.085,0.109-0.155,0.167-0.214c0.059-0.057,0.129-0.086,0.214-0.086h0.38
			c0.085,0,0.155,0.029,0.213,0.086C90.812,52.503,90.87,52.573,90.923,52.658"/>
		<path d="M94.788,52.658c0-0.085,0.029-0.155,0.087-0.214c0.057-0.057,0.131-0.086,0.216-0.086h0.432
			c0.086,0,0.157,0.029,0.215,0.086c0.059,0.059,0.088,0.129,0.088,0.214v6.518c0,0.046,0.022,0.068,0.069,0.068h3.553
			c0.084,0,0.155,0.029,0.215,0.087c0.057,0.059,0.086,0.129,0.086,0.214v0.357c0,0.084-0.029,0.156-0.086,0.213
			c-0.06,0.059-0.131,0.087-0.215,0.087h-4.356c-0.085,0-0.159-0.028-0.216-0.087c-0.058-0.057-0.087-0.129-0.087-0.213V52.658z"/>
		<path d="M1.733,71.736c0,0.047,0.023,0.068,0.069,0.068H3.24c0.475,0,0.858-0.082,1.147-0.248
			c0.292-0.164,0.504-0.439,0.633-0.824c0.024-0.069,0.047-0.15,0.068-0.242c0.024-0.093,0.041-0.21,0.051-0.352
			c0.016-0.143,0.022-0.317,0.03-0.525c0.009-0.207,0.014-0.466,0.014-0.772s-0.005-0.566-0.014-0.772
			c-0.008-0.209-0.015-0.384-0.03-0.525c-0.01-0.142-0.026-0.259-0.051-0.353c-0.021-0.092-0.044-0.172-0.068-0.242
			c-0.129-0.384-0.341-0.659-0.633-0.825c-0.289-0.164-0.673-0.246-1.147-0.246H1.803c-0.046,0-0.069,0.021-0.069,0.068V71.736z
			 M0.995,72.763c-0.085,0-0.156-0.029-0.214-0.087s-0.085-0.128-0.085-0.214V65.22c0-0.086,0.027-0.155,0.085-0.214
			c0.058-0.058,0.129-0.087,0.214-0.087h2.457c1.347,0,2.199,0.558,2.562,1.672c0.028,0.108,0.059,0.221,0.085,0.335
			c0.027,0.116,0.049,0.258,0.067,0.427c0.021,0.17,0.035,0.373,0.042,0.61c0.009,0.239,0.011,0.532,0.011,0.878
			s-0.002,0.639-0.011,0.876c-0.007,0.238-0.021,0.442-0.042,0.612c-0.019,0.169-0.04,0.311-0.067,0.426
			c-0.026,0.116-0.057,0.228-0.085,0.334c-0.363,1.116-1.216,1.674-2.562,1.674H0.995z"/>
		<path d="M8.184,72.763c-0.085,0-0.155-0.029-0.214-0.087s-0.088-0.128-0.088-0.214V65.22c0-0.086,0.029-0.155,0.088-0.214
			c0.059-0.058,0.129-0.087,0.214-0.087h4.358c0.084,0,0.155,0.029,0.213,0.087c0.058,0.059,0.087,0.128,0.087,0.214v0.356
			c0,0.084-0.029,0.156-0.087,0.214s-0.129,0.087-0.213,0.087H8.989c-0.046,0-0.07,0.021-0.07,0.068v2.308
			c0,0.045,0.024,0.068,0.07,0.068h2.987c0.084,0,0.156,0.029,0.215,0.087c0.055,0.059,0.085,0.129,0.085,0.214v0.356
			c0,0.085-0.03,0.156-0.085,0.215c-0.059,0.057-0.131,0.087-0.215,0.087H8.989c-0.046,0-0.07,0.021-0.07,0.068v2.388
			c0,0.047,0.024,0.068,0.07,0.068h3.553c0.084,0,0.155,0.029,0.213,0.087c0.058,0.057,0.087,0.13,0.087,0.213v0.357
			c0,0.086-0.029,0.156-0.087,0.214s-0.129,0.087-0.213,0.087H8.184z"/>
		<path d="M19.127,64.919c0.087,0,0.157,0.029,0.215,0.087c0.057,0.059,0.088,0.128,0.088,0.213v0.357
			c0,0.084-0.031,0.156-0.088,0.214c-0.058,0.058-0.128,0.087-0.215,0.087h-0.574v5.928h0.574c0.087,0,0.157,0.029,0.215,0.087
			c0.057,0.057,0.088,0.13,0.088,0.213v0.357c0,0.086-0.031,0.156-0.088,0.214c-0.058,0.058-0.128,0.087-0.215,0.087h-1.31h-0.046
			h-0.835c-0.085,0-0.155-0.029-0.214-0.087c-0.057-0.058-0.087-0.128-0.087-0.214v-0.357c0-0.083,0.03-0.156,0.087-0.213
			c0.059-0.058,0.129-0.087,0.214-0.087h0.578v-5.928h-0.578c-0.085,0-0.155-0.029-0.214-0.087c-0.057-0.058-0.087-0.13-0.087-0.214
			v-0.357c0-0.085,0.03-0.154,0.087-0.213c0.059-0.058,0.129-0.087,0.214-0.087H19.127z"/>
		<path d="M25.496,65.219c0-0.084,0.029-0.155,0.086-0.214c0.06-0.057,0.133-0.086,0.218-0.086h0.361
			c0.085,0,0.158,0.029,0.216,0.086c0.059,0.059,0.089,0.13,0.089,0.214v7.243c0,0.085-0.03,0.156-0.089,0.214
			c-0.058,0.058-0.131,0.087-0.216,0.087H25.8c-0.085,0-0.158-0.029-0.218-0.087c-0.057-0.058-0.086-0.129-0.086-0.214v-1.533
			l-3.645-3.311h-0.036v4.844c0,0.085-0.029,0.156-0.089,0.214c-0.057,0.058-0.131,0.087-0.214,0.087h-0.361
			c-0.087,0-0.158-0.029-0.216-0.087c-0.059-0.058-0.089-0.129-0.089-0.214v-7.243c0-0.084,0.03-0.155,0.089-0.214
			c0.058-0.057,0.129-0.086,0.216-0.086h0.361c0.083,0,0.157,0.029,0.214,0.086c0.06,0.059,0.089,0.13,0.089,0.214v0.98l3.635,3.333
			h0.046V65.219z"/>
		<path d="M29.049,66.833c0.007,0.538,0.082,1.065,0.224,1.581c0.144,0.516,0.308,0.986,0.491,1.413
			c0.186,0.427,0.365,0.795,0.542,1.107c0.178,0.312,0.304,0.528,0.382,0.651h0.01c0.077-0.123,0.204-0.34,0.381-0.651
			c0.179-0.312,0.358-0.681,0.544-1.107c0.184-0.427,0.348-0.897,0.489-1.413s0.217-1.043,0.224-1.581v-1.614
			c0-0.084,0.03-0.155,0.088-0.214c0.058-0.057,0.13-0.086,0.213-0.086h0.358c0.084,0,0.156,0.029,0.214,0.086
			c0.058,0.059,0.086,0.13,0.086,0.214v1.626c0,0.539-0.067,1.071-0.202,1.598c-0.136,0.527-0.306,1.033-0.507,1.517
			c-0.206,0.485-0.423,0.94-0.658,1.367c-0.233,0.427-0.456,0.807-0.663,1.136c-0.054,0.085-0.109,0.156-0.168,0.214
			c-0.058,0.058-0.129,0.087-0.213,0.087h-0.381c-0.086,0-0.156-0.029-0.213-0.087c-0.059-0.058-0.114-0.129-0.167-0.214
			c-0.208-0.329-0.43-0.709-0.664-1.136s-0.453-0.882-0.657-1.367c-0.205-0.483-0.373-0.989-0.507-1.517
			c-0.136-0.526-0.202-1.059-0.202-1.598v-1.626c0-0.084,0.027-0.155,0.087-0.214c0.057-0.057,0.128-0.086,0.212-0.086h0.358
			c0.083,0,0.155,0.029,0.213,0.086c0.059,0.059,0.087,0.13,0.087,0.214V66.833z"/>
		<path d="M35.178,72.763c-0.087,0-0.157-0.029-0.217-0.087c-0.058-0.058-0.087-0.128-0.087-0.214V65.22
			c0-0.086,0.029-0.155,0.087-0.214c0.06-0.058,0.13-0.087,0.217-0.087h4.355c0.085,0,0.157,0.029,0.215,0.087
			c0.056,0.059,0.086,0.128,0.086,0.214v0.356c0,0.084-0.03,0.156-0.086,0.214c-0.058,0.058-0.13,0.087-0.215,0.087H35.98
			c-0.046,0-0.068,0.021-0.068,0.068v2.308c0,0.045,0.022,0.068,0.068,0.068h2.988c0.085,0,0.155,0.029,0.215,0.087
			c0.057,0.059,0.086,0.129,0.086,0.214v0.356c0,0.085-0.029,0.156-0.086,0.215c-0.06,0.057-0.13,0.087-0.215,0.087H35.98
			c-0.046,0-0.068,0.021-0.068,0.068v2.388c0,0.047,0.022,0.068,0.068,0.068h3.553c0.085,0,0.157,0.029,0.215,0.087
			c0.056,0.057,0.086,0.13,0.086,0.213v0.357c0,0.086-0.03,0.156-0.086,0.214c-0.058,0.058-0.13,0.087-0.215,0.087H35.178z"/>
		<path d="M41.795,71.24c0.255,0.177,0.555,0.337,0.906,0.479c0.349,0.143,0.729,0.214,1.136,0.214c0.546,0,0.97-0.123,1.274-0.37
			c0.303-0.245,0.456-0.568,0.456-0.969c0-0.169-0.027-0.323-0.082-0.461c-0.054-0.139-0.143-0.261-0.271-0.37
			c-0.128-0.106-0.294-0.199-0.501-0.276c-0.208-0.077-0.469-0.135-0.785-0.173l-0.392-0.058c-1.539-0.207-2.307-0.931-2.307-2.168
			c0-0.346,0.057-0.662,0.177-0.946s0.292-0.527,0.514-0.727c0.224-0.2,0.492-0.354,0.808-0.462s0.67-0.161,1.062-0.161
			c0.416,0,0.813,0.056,1.194,0.167s0.716,0.256,1.01,0.433c0.075,0.046,0.123,0.108,0.143,0.185
			c0.021,0.077,0.01,0.154-0.028,0.231l-0.196,0.322c-0.038,0.077-0.097,0.125-0.179,0.146c-0.08,0.019-0.158,0.009-0.236-0.03
			c-0.292-0.162-0.578-0.284-0.859-0.368c-0.281-0.085-0.574-0.128-0.881-0.128c-0.485,0-0.855,0.118-1.108,0.353
			s-0.381,0.54-0.381,0.917c0,0.33,0.123,0.602,0.368,0.812c0.247,0.211,0.674,0.36,1.281,0.443l0.378,0.059
			c0.773,0.107,1.349,0.339,1.733,0.692c0.384,0.354,0.576,0.854,0.576,1.5c0,0.346-0.062,0.663-0.178,0.951
			c-0.12,0.287-0.3,0.537-0.543,0.743c-0.242,0.208-0.541,0.373-0.899,0.491c-0.357,0.119-0.772,0.178-1.241,0.178
			c-0.507,0-0.995-0.084-1.466-0.253c-0.469-0.169-0.853-0.373-1.152-0.612c-0.061-0.061-0.097-0.129-0.108-0.206
			c-0.011-0.077,0.012-0.15,0.074-0.22l0.276-0.322c0.055-0.062,0.124-0.097,0.208-0.104C41.661,71.164,41.733,71.187,41.795,71.24"
			/>
		<path d="M47.631,65.877c-0.084,0-0.154-0.029-0.213-0.087c-0.058-0.058-0.086-0.13-0.086-0.214v-0.357
			c0-0.085,0.028-0.155,0.086-0.213c0.059-0.058,0.129-0.087,0.213-0.087h5.1c0.084,0,0.155,0.029,0.213,0.087
			s0.086,0.128,0.086,0.213v0.357c0,0.084-0.028,0.156-0.086,0.214s-0.129,0.087-0.213,0.087h-1.962
			c-0.046,0-0.067,0.022-0.067,0.068v6.517c0,0.085-0.031,0.156-0.088,0.215c-0.06,0.057-0.131,0.086-0.217,0.086h-0.432
			c-0.086,0-0.158-0.029-0.216-0.086c-0.059-0.059-0.089-0.13-0.089-0.215v-6.517c0-0.046-0.021-0.068-0.068-0.068H47.631z"/>
		<path d="M56.224,64.919c0.085,0,0.157,0.029,0.215,0.087c0.056,0.059,0.087,0.128,0.087,0.213v0.357
			c0,0.084-0.031,0.156-0.087,0.214c-0.058,0.058-0.13,0.087-0.215,0.087h-0.575v5.928h0.575c0.085,0,0.157,0.029,0.215,0.087
			c0.056,0.057,0.087,0.13,0.087,0.213v0.357c0,0.086-0.031,0.156-0.087,0.214c-0.058,0.058-0.13,0.087-0.215,0.087h-1.31h-0.049
			h-0.832c-0.086,0-0.156-0.029-0.213-0.087c-0.059-0.058-0.087-0.128-0.087-0.214v-0.357c0-0.083,0.028-0.156,0.087-0.213
			c0.057-0.058,0.127-0.087,0.213-0.087h0.577v-5.928h-0.577c-0.086,0-0.156-0.029-0.213-0.087c-0.059-0.058-0.087-0.13-0.087-0.214
			v-0.357c0-0.085,0.028-0.154,0.087-0.213c0.057-0.058,0.127-0.087,0.213-0.087H56.224z"/>
		<path d="M63.434,69.302c0,0.354-0.017,0.684-0.051,0.987c-0.035,0.303-0.083,0.552-0.146,0.743
			c-0.192,0.601-0.522,1.06-0.988,1.379c-0.465,0.318-1.026,0.478-1.681,0.478c-0.67,0-1.238-0.153-1.699-0.461
			c-0.464-0.307-0.794-0.765-0.994-1.373c-0.039-0.115-0.069-0.234-0.094-0.357c-0.021-0.122-0.044-0.267-0.062-0.433
			c-0.021-0.164-0.032-0.362-0.04-0.593c-0.008-0.231-0.013-0.508-0.013-0.831s0.005-0.6,0.013-0.83
			c0.008-0.231,0.019-0.43,0.04-0.595c0.019-0.165,0.041-0.31,0.062-0.434c0.024-0.122,0.055-0.24,0.092-0.356
			c0.2-0.607,0.531-1.065,0.992-1.373c0.464-0.307,1.026-0.461,1.695-0.461c0.647,0,1.177,0.135,1.588,0.403s0.725,0.6,0.94,0.993
			c0.038,0.076,0.045,0.153,0.023,0.23c-0.023,0.076-0.074,0.134-0.151,0.172l-0.356,0.174c-0.162,0.093-0.297,0.05-0.407-0.128
			c-0.182-0.3-0.402-0.522-0.661-0.669c-0.256-0.146-0.582-0.219-0.976-0.219c-0.444,0-0.808,0.1-1.089,0.3
			c-0.283,0.2-0.482,0.489-0.606,0.865c-0.022,0.068-0.045,0.154-0.068,0.255c-0.022,0.099-0.042,0.222-0.051,0.367
			c-0.013,0.147-0.022,0.326-0.029,0.538c-0.008,0.211-0.012,0.467-0.012,0.767s0.004,0.556,0.012,0.768
			c0.007,0.211,0.017,0.39,0.029,0.536c0.009,0.146,0.028,0.27,0.051,0.369c0.023,0.1,0.046,0.184,0.068,0.253
			c0.124,0.377,0.323,0.666,0.606,0.866c0.281,0.199,0.645,0.3,1.089,0.3c0.401,0,0.752-0.097,1.051-0.288
			c0.301-0.192,0.511-0.475,0.634-0.842c0.038-0.132,0.072-0.298,0.104-0.497c0.031-0.199,0.046-0.445,0.046-0.738
			c0-0.046-0.021-0.069-0.069-0.069h-1.338c-0.084,0-0.154-0.028-0.213-0.087c-0.059-0.057-0.087-0.128-0.087-0.213v-0.301
			c0-0.083,0.028-0.155,0.087-0.213s0.129-0.086,0.213-0.086h2.143c0.084,0,0.157,0.028,0.217,0.086
			c0.058,0.058,0.086,0.13,0.086,0.213V69.302z"/>
		<path d="M68.914,69.994c-0.07-0.438-0.175-0.863-0.316-1.274c-0.144-0.411-0.296-0.79-0.456-1.136
			c-0.162-0.347-0.316-0.648-0.463-0.906c-0.146-0.257-0.258-0.451-0.333-0.582h-0.012c-0.079,0.131-0.189,0.325-0.336,0.582
			c-0.146,0.258-0.299,0.56-0.461,0.906c-0.162,0.346-0.313,0.725-0.455,1.136c-0.143,0.411-0.248,0.837-0.318,1.274H68.914z
			 M67.91,65.219c0.206,0.339,0.429,0.719,0.663,1.142c0.235,0.423,0.455,0.877,0.658,1.362c0.202,0.483,0.373,0.989,0.506,1.517
			c0.135,0.526,0.203,1.06,0.203,1.598v1.625c0,0.085-0.029,0.156-0.087,0.214c-0.059,0.058-0.128,0.087-0.214,0.087h-0.356
			c-0.086,0-0.157-0.029-0.214-0.087c-0.059-0.058-0.086-0.129-0.086-0.214v-1.522h-3.288v1.522c0,0.085-0.028,0.156-0.086,0.214
			s-0.13,0.087-0.213,0.087h-0.358c-0.084,0-0.154-0.029-0.214-0.087c-0.058-0.058-0.087-0.129-0.087-0.214v-1.625
			c0-0.538,0.066-1.071,0.203-1.598c0.133-0.527,0.303-1.033,0.507-1.517c0.203-0.485,0.423-0.939,0.656-1.362
			c0.235-0.423,0.457-0.803,0.664-1.142c0.053-0.084,0.111-0.155,0.168-0.214c0.058-0.057,0.129-0.086,0.215-0.086h0.379
			c0.084,0,0.156,0.029,0.214,0.086C67.801,65.063,67.856,65.135,67.91,65.219"/>
		<path d="M76.503,71.481c-0.237,0.455-0.564,0.803-0.974,1.045c-0.41,0.241-0.896,0.363-1.448,0.363
			c-0.646,0-1.191-0.152-1.641-0.456c-0.443-0.303-0.766-0.767-0.966-1.39c-0.039-0.115-0.072-0.232-0.097-0.352
			c-0.027-0.119-0.049-0.262-0.065-0.428c-0.015-0.164-0.026-0.362-0.032-0.594c-0.01-0.23-0.014-0.506-0.014-0.83
			s0.004-0.6,0.014-0.83c0.006-0.231,0.018-0.43,0.032-0.595c0.017-0.165,0.038-0.308,0.065-0.427
			c0.024-0.118,0.058-0.235,0.097-0.351c0.2-0.625,0.522-1.088,0.966-1.391c0.449-0.304,0.994-0.457,1.641-0.457
			c0.553,0,1.038,0.121,1.448,0.364c0.409,0.242,0.736,0.59,0.974,1.044c0.039,0.077,0.048,0.154,0.024,0.231
			c-0.024,0.076-0.073,0.134-0.149,0.173l-0.358,0.173c-0.079,0.038-0.152,0.048-0.23,0.028c-0.076-0.02-0.134-0.071-0.173-0.156
			c-0.146-0.269-0.345-0.486-0.596-0.649c-0.248-0.167-0.562-0.25-0.939-0.25c-0.433,0-0.777,0.101-1.038,0.3
			c-0.262,0.2-0.456,0.484-0.587,0.854c-0.024,0.085-0.045,0.176-0.063,0.271s-0.036,0.216-0.047,0.357
			c-0.013,0.143-0.021,0.318-0.029,0.532c-0.007,0.21-0.011,0.471-0.011,0.777s0.004,0.567,0.011,0.778
			c0.008,0.212,0.017,0.389,0.029,0.53c0.011,0.143,0.028,0.265,0.047,0.364s0.039,0.188,0.063,0.265
			c0.131,0.37,0.325,0.654,0.587,0.854c0.261,0.198,0.605,0.3,1.038,0.3c0.378,0,0.689-0.083,0.935-0.249
			c0.247-0.165,0.447-0.382,0.601-0.65c0.046-0.085,0.105-0.138,0.179-0.156c0.074-0.02,0.146-0.01,0.225,0.028l0.358,0.173
			c0.076,0.04,0.125,0.097,0.149,0.173C76.551,71.328,76.542,71.405,76.503,71.481"/>
		<path d="M80.056,64.919c0.084,0,0.157,0.029,0.215,0.087c0.058,0.059,0.086,0.128,0.086,0.213v0.357
			c0,0.084-0.028,0.156-0.086,0.214s-0.131,0.087-0.215,0.087h-0.576v5.928h0.576c0.084,0,0.157,0.029,0.215,0.087
			c0.058,0.057,0.086,0.13,0.086,0.213v0.357c0,0.086-0.028,0.156-0.086,0.214s-0.131,0.087-0.215,0.087h-1.31h-0.049h-0.832
			c-0.085,0-0.156-0.029-0.214-0.087c-0.057-0.058-0.087-0.128-0.087-0.214v-0.357c0-0.083,0.03-0.156,0.087-0.213
			c0.058-0.058,0.129-0.087,0.214-0.087h0.575v-5.928h-0.575c-0.085,0-0.156-0.029-0.214-0.087c-0.057-0.058-0.087-0.13-0.087-0.214
			v-0.357c0-0.085,0.03-0.154,0.087-0.213c0.058-0.058,0.129-0.087,0.214-0.087H80.056z"/>
		<path d="M84.118,63.973c-0.086,0-0.136-0.024-0.151-0.075c-0.015-0.05-0.004-0.101,0.036-0.156l0.726-1.187
			c0.093-0.153,0.223-0.231,0.394-0.231h0.587c0.068,0,0.121,0.025,0.156,0.076c0.034,0.048,0.021,0.117-0.041,0.201l-0.853,1.141
			c-0.055,0.071-0.113,0.125-0.179,0.169c-0.066,0.041-0.148,0.062-0.248,0.062H84.118z M84.371,71.933
			c0.438,0,0.796-0.101,1.073-0.3c0.276-0.2,0.475-0.489,0.6-0.866c0.022-0.069,0.043-0.155,0.063-0.259
			c0.02-0.104,0.037-0.233,0.057-0.387s0.033-0.334,0.042-0.542c0.008-0.209,0.011-0.453,0.011-0.738s-0.003-0.53-0.011-0.738
			c-0.009-0.207-0.022-0.389-0.042-0.542s-0.037-0.283-0.057-0.387c-0.021-0.104-0.041-0.19-0.063-0.26
			c-0.125-0.376-0.323-0.665-0.6-0.865c-0.277-0.2-0.636-0.3-1.073-0.3c-0.439,0-0.794,0.1-1.068,0.3
			c-0.273,0.2-0.47,0.489-0.592,0.865c-0.024,0.069-0.044,0.156-0.064,0.26c-0.019,0.104-0.039,0.233-0.058,0.387
			s-0.033,0.335-0.039,0.542c-0.01,0.208-0.012,0.453-0.012,0.738s0.002,0.529,0.012,0.738c0.006,0.208,0.021,0.389,0.039,0.542
			s0.039,0.283,0.058,0.387c0.021,0.104,0.04,0.189,0.064,0.259c0.122,0.377,0.318,0.666,0.592,0.866
			C83.577,71.832,83.932,71.933,84.371,71.933 M84.371,72.889c-0.662,0-1.223-0.153-1.679-0.461
			c-0.457-0.307-0.787-0.765-0.986-1.373c-0.04-0.115-0.07-0.234-0.098-0.357c-0.026-0.122-0.048-0.267-0.063-0.433
			c-0.016-0.164-0.026-0.362-0.034-0.593c-0.008-0.229-0.013-0.508-0.013-0.831s0.005-0.6,0.013-0.83
			c0.008-0.231,0.019-0.43,0.034-0.595s0.037-0.31,0.063-0.433c0.027-0.123,0.058-0.241,0.098-0.356
			c0.199-0.608,0.529-1.066,0.986-1.374c0.456-0.307,1.017-0.461,1.679-0.461c0.669,0,1.232,0.154,1.69,0.461
			c0.457,0.308,0.786,0.766,0.984,1.374c0.04,0.115,0.073,0.233,0.099,0.356c0.026,0.123,0.05,0.268,0.064,0.433
			c0.014,0.165,0.028,0.363,0.035,0.595c0.008,0.23,0.011,0.507,0.011,0.83s-0.003,0.602-0.011,0.831
			c-0.007,0.23-0.021,0.429-0.035,0.593c-0.015,0.166-0.038,0.311-0.064,0.433c-0.025,0.123-0.059,0.242-0.099,0.357
			c-0.198,0.608-0.527,1.066-0.984,1.373C85.604,72.735,85.04,72.889,84.371,72.889"/>
		<path d="M93.564,65.219c0-0.084,0.029-0.155,0.088-0.214c0.058-0.057,0.129-0.086,0.216-0.086h0.362
			c0.085,0,0.157,0.029,0.214,0.086c0.061,0.059,0.09,0.13,0.09,0.214v7.243c0,0.085-0.029,0.156-0.09,0.214
			c-0.057,0.058-0.129,0.087-0.214,0.087h-0.362c-0.087,0-0.158-0.029-0.216-0.087c-0.059-0.058-0.088-0.129-0.088-0.214v-1.533
			l-3.646-3.311h-0.035v4.844c0,0.085-0.028,0.156-0.087,0.214c-0.058,0.058-0.131,0.087-0.217,0.087h-0.36
			c-0.087,0-0.159-0.029-0.216-0.087c-0.06-0.058-0.09-0.129-0.09-0.214v-7.243c0-0.084,0.03-0.155,0.09-0.214
			c0.057-0.057,0.129-0.086,0.216-0.086h0.36c0.086,0,0.159,0.029,0.217,0.086c0.059,0.059,0.087,0.13,0.087,0.214v0.98l3.635,3.333
			h0.046V65.219z"/>
		<path d="M0.998,85.323c-0.086,0-0.157-0.028-0.217-0.087c-0.058-0.058-0.085-0.128-0.085-0.214v-7.243
			c0-0.084,0.027-0.156,0.085-0.213c0.06-0.059,0.131-0.087,0.217-0.087h4.358c0.084,0,0.155,0.028,0.213,0.087
			c0.059,0.057,0.084,0.129,0.084,0.213v0.357c0,0.085-0.025,0.155-0.084,0.214c-0.058,0.057-0.129,0.085-0.213,0.085H1.802
			c-0.045,0-0.069,0.024-0.069,0.071v2.307c0,0.045,0.024,0.069,0.069,0.069H4.79c0.086,0,0.155,0.028,0.215,0.086
			c0.057,0.058,0.084,0.129,0.084,0.213v0.358c0,0.085-0.027,0.155-0.084,0.214c-0.06,0.057-0.129,0.085-0.215,0.085H1.802
			c-0.045,0-0.069,0.024-0.069,0.07v2.388c0,0.046,0.024,0.069,0.069,0.069h3.555c0.084,0,0.155,0.028,0.213,0.087
			c0.059,0.057,0.084,0.127,0.084,0.212v0.357c0,0.086-0.025,0.156-0.084,0.214c-0.058,0.059-0.129,0.087-0.213,0.087H0.998z"/>
		<path d="M11.941,77.479c0.086,0,0.157,0.028,0.215,0.087c0.056,0.057,0.085,0.129,0.085,0.213v0.357
			c0,0.084-0.029,0.155-0.085,0.214c-0.058,0.057-0.129,0.085-0.215,0.085h-0.576v5.931h0.576c0.086,0,0.157,0.028,0.215,0.087
			c0.056,0.057,0.085,0.127,0.085,0.212v0.358c0,0.085-0.029,0.155-0.085,0.213c-0.058,0.059-0.129,0.087-0.215,0.087h-1.311h-0.049
			H9.75c-0.086,0-0.155-0.028-0.212-0.087c-0.06-0.058-0.089-0.128-0.089-0.213v-0.358c0-0.085,0.029-0.155,0.089-0.212
			c0.057-0.059,0.126-0.087,0.212-0.087h0.576v-5.931H9.75c-0.086,0-0.155-0.028-0.212-0.085c-0.06-0.059-0.089-0.13-0.089-0.214
			v-0.357c0-0.084,0.029-0.156,0.089-0.213c0.057-0.059,0.126-0.087,0.212-0.087H11.941z"/>
		<path d="M18.311,77.779c0-0.085,0.028-0.156,0.086-0.213c0.058-0.059,0.131-0.087,0.217-0.087h0.362
			c0.084,0,0.155,0.028,0.216,0.087c0.059,0.057,0.086,0.128,0.086,0.213v7.244c0,0.085-0.027,0.155-0.086,0.213
			c-0.061,0.058-0.132,0.086-0.216,0.086h-0.362c-0.086,0-0.159-0.028-0.217-0.086s-0.086-0.128-0.086-0.213v-1.534l-3.648-3.312
			H14.63v4.846c0,0.085-0.029,0.155-0.087,0.213c-0.059,0.058-0.133,0.086-0.217,0.086h-0.363c-0.084,0-0.156-0.028-0.215-0.086
			c-0.06-0.058-0.088-0.128-0.088-0.213v-7.244c0-0.085,0.028-0.156,0.088-0.213c0.059-0.059,0.131-0.087,0.215-0.087h0.363
			c0.084,0,0.158,0.028,0.217,0.087c0.058,0.057,0.087,0.128,0.087,0.213v0.98l3.633,3.334h0.048V77.779z"/>
		<path d="M25.853,77.779c0-0.085,0.03-0.156,0.087-0.213c0.059-0.059,0.133-0.087,0.218-0.087h0.362
			c0.084,0,0.156,0.028,0.214,0.087c0.061,0.057,0.088,0.128,0.088,0.213v7.244c0,0.085-0.027,0.155-0.088,0.213
			c-0.058,0.058-0.13,0.086-0.214,0.086h-0.362c-0.085,0-0.159-0.028-0.218-0.086c-0.057-0.058-0.087-0.128-0.087-0.213v-1.534
			l-3.644-3.312h-0.036v4.846c0,0.085-0.028,0.155-0.087,0.213c-0.058,0.058-0.13,0.086-0.216,0.086h-0.363
			c-0.084,0-0.157-0.028-0.214-0.086c-0.06-0.058-0.088-0.128-0.088-0.213v-7.244c0-0.085,0.028-0.156,0.088-0.213
			c0.057-0.059,0.13-0.087,0.214-0.087h0.363c0.086,0,0.158,0.028,0.216,0.087c0.059,0.057,0.087,0.128,0.087,0.213v0.98
			l3.634,3.334h0.046V77.779z"/>
		<path d="M31.345,84.492c0.437,0,0.795-0.099,1.072-0.3c0.276-0.199,0.477-0.487,0.6-0.865c0.023-0.068,0.045-0.155,0.062-0.26
			c0.021-0.103,0.039-0.232,0.059-0.386c0.019-0.153,0.032-0.335,0.041-0.542c0.006-0.208,0.01-0.454,0.01-0.738
			s-0.004-0.531-0.01-0.739c-0.009-0.206-0.022-0.388-0.041-0.542c-0.02-0.154-0.038-0.281-0.059-0.387
			c-0.018-0.103-0.039-0.189-0.062-0.259c-0.123-0.377-0.323-0.664-0.6-0.865c-0.277-0.199-0.636-0.299-1.072-0.299
			c-0.439,0-0.795,0.1-1.067,0.299c-0.274,0.201-0.472,0.488-0.596,0.865c-0.021,0.069-0.043,0.156-0.062,0.259
			c-0.021,0.105-0.04,0.232-0.058,0.387c-0.02,0.154-0.034,0.336-0.042,0.542c-0.007,0.208-0.011,0.455-0.011,0.739
			s0.004,0.53,0.011,0.738c0.008,0.207,0.022,0.389,0.042,0.542c0.018,0.153,0.037,0.283,0.058,0.386
			c0.019,0.104,0.04,0.191,0.062,0.26c0.124,0.378,0.321,0.666,0.596,0.865C30.55,84.394,30.905,84.492,31.345,84.492 M31.345,85.45
			c-0.662,0-1.223-0.153-1.68-0.462c-0.459-0.307-0.784-0.766-0.986-1.372c-0.039-0.115-0.071-0.234-0.098-0.357
			c-0.026-0.124-0.047-0.268-0.062-0.434c-0.017-0.165-0.026-0.363-0.036-0.594c-0.008-0.231-0.011-0.508-0.011-0.83
			s0.003-0.601,0.011-0.83c0.01-0.231,0.02-0.429,0.036-0.595c0.016-0.166,0.036-0.31,0.062-0.433s0.059-0.242,0.098-0.357
			c0.202-0.607,0.527-1.065,0.986-1.374c0.457-0.307,1.018-0.46,1.68-0.46c0.669,0,1.231,0.153,1.689,0.46
			c0.458,0.309,0.785,0.767,0.985,1.374c0.04,0.115,0.071,0.234,0.097,0.357c0.028,0.123,0.05,0.267,0.065,0.433
			s0.026,0.363,0.035,0.595c0.007,0.229,0.011,0.508,0.011,0.83s-0.004,0.599-0.011,0.83c-0.009,0.23-0.02,0.429-0.035,0.594
			c-0.016,0.166-0.037,0.31-0.065,0.434c-0.025,0.123-0.057,0.242-0.097,0.357c-0.2,0.606-0.527,1.065-0.985,1.372
			C32.576,85.297,32.014,85.45,31.345,85.45"/>
		<path d="M36.467,79.395c0.005,0.538,0.082,1.064,0.225,1.58c0.141,0.515,0.305,0.986,0.488,1.412
			c0.186,0.427,0.367,0.797,0.544,1.107c0.176,0.312,0.304,0.529,0.38,0.652h0.012c0.077-0.123,0.202-0.341,0.381-0.652
			c0.177-0.311,0.357-0.681,0.541-1.107c0.186-0.426,0.349-0.897,0.491-1.412c0.143-0.516,0.217-1.042,0.226-1.58v-1.615
			c0-0.085,0.027-0.156,0.085-0.213c0.06-0.059,0.13-0.087,0.213-0.087h0.358c0.085,0,0.157,0.028,0.214,0.087
			c0.058,0.057,0.087,0.128,0.087,0.213v1.627c0,0.537-0.068,1.07-0.204,1.597c-0.133,0.526-0.302,1.032-0.506,1.518
			s-0.423,0.939-0.657,1.367c-0.234,0.427-0.456,0.805-0.664,1.137c-0.054,0.084-0.109,0.154-0.167,0.212
			c-0.057,0.058-0.128,0.086-0.214,0.086h-0.38c-0.084,0-0.156-0.028-0.213-0.086c-0.06-0.058-0.113-0.128-0.168-0.212
			c-0.208-0.332-0.429-0.71-0.662-1.137c-0.236-0.428-0.455-0.882-0.658-1.367c-0.204-0.485-0.374-0.991-0.508-1.518
			c-0.137-0.526-0.203-1.06-0.203-1.597v-1.627c0-0.085,0.028-0.156,0.089-0.213c0.057-0.059,0.128-0.087,0.213-0.087h0.356
			c0.085,0,0.156,0.028,0.214,0.087c0.058,0.057,0.088,0.128,0.088,0.213V79.395z"/>
		<path d="M45.82,82.555c-0.069-0.438-0.175-0.863-0.317-1.274c-0.142-0.412-0.293-0.79-0.454-1.136
			c-0.163-0.347-0.316-0.648-0.463-0.906c-0.145-0.258-0.257-0.452-0.335-0.582h-0.01c-0.079,0.13-0.189,0.324-0.336,0.582
			c-0.146,0.258-0.299,0.56-0.461,0.906c-0.163,0.346-0.313,0.724-0.455,1.136c-0.144,0.411-0.249,0.836-0.318,1.274H45.82z
			 M44.817,77.779c0.207,0.339,0.429,0.72,0.663,1.142c0.234,0.423,0.454,0.877,0.657,1.361c0.203,0.485,0.374,0.99,0.508,1.517
			c0.136,0.527,0.202,1.06,0.202,1.599v1.626c0,0.085-0.031,0.155-0.088,0.213c-0.056,0.058-0.127,0.086-0.211,0.086H46.19
			c-0.087,0-0.156-0.028-0.215-0.086c-0.057-0.058-0.086-0.128-0.086-0.213v-1.522h-3.287v1.522c0,0.085-0.029,0.155-0.086,0.213
			c-0.058,0.058-0.13,0.086-0.214,0.086h-0.357c-0.085,0-0.156-0.028-0.213-0.086c-0.059-0.058-0.088-0.128-0.088-0.213v-1.626
			c0-0.539,0.066-1.071,0.203-1.599c0.133-0.526,0.304-1.031,0.508-1.517c0.203-0.484,0.422-0.938,0.656-1.361
			c0.234-0.422,0.455-0.803,0.663-1.142c0.054-0.085,0.11-0.156,0.167-0.213c0.059-0.059,0.129-0.087,0.214-0.087h0.382
			c0.083,0,0.154,0.028,0.213,0.087C44.708,77.623,44.764,77.694,44.817,77.779"/>
		<path d="M53.411,84.043c-0.24,0.453-0.563,0.801-0.975,1.044c-0.411,0.242-0.894,0.363-1.448,0.363
			c-0.644,0-1.191-0.152-1.637-0.455c-0.447-0.305-0.77-0.769-0.97-1.391c-0.038-0.115-0.071-0.232-0.099-0.353
			c-0.026-0.118-0.047-0.261-0.063-0.427c-0.015-0.166-0.026-0.362-0.035-0.594c-0.007-0.23-0.011-0.508-0.011-0.83
			c0-0.323,0.004-0.6,0.011-0.83c0.009-0.23,0.021-0.429,0.035-0.595c0.017-0.165,0.037-0.308,0.063-0.427
			c0.027-0.119,0.061-0.236,0.099-0.353c0.2-0.622,0.522-1.085,0.97-1.389c0.445-0.305,0.993-0.456,1.637-0.456
			c0.555,0,1.037,0.121,1.448,0.363s0.734,0.591,0.975,1.044c0.039,0.077,0.047,0.153,0.024,0.23
			c-0.024,0.076-0.075,0.135-0.151,0.173l-0.357,0.173c-0.079,0.039-0.154,0.049-0.231,0.029c-0.077-0.019-0.135-0.071-0.173-0.155
			c-0.146-0.269-0.343-0.487-0.593-0.652c-0.252-0.164-0.564-0.248-0.941-0.248c-0.431,0-0.776,0.101-1.038,0.3
			c-0.262,0.2-0.458,0.485-0.587,0.854c-0.024,0.086-0.046,0.176-0.065,0.271c-0.018,0.097-0.034,0.216-0.045,0.357
			c-0.012,0.143-0.021,0.319-0.029,0.531c-0.009,0.211-0.011,0.47-0.011,0.778c0,0.308,0.002,0.567,0.011,0.779
			c0.008,0.21,0.018,0.388,0.029,0.529c0.011,0.143,0.027,0.264,0.045,0.364c0.02,0.1,0.041,0.188,0.065,0.265
			c0.129,0.369,0.325,0.653,0.587,0.854s0.607,0.3,1.038,0.3c0.377,0,0.688-0.081,0.935-0.247c0.246-0.166,0.447-0.383,0.6-0.651
			c0.047-0.085,0.106-0.138,0.179-0.156c0.074-0.02,0.146-0.01,0.226,0.028l0.357,0.173c0.076,0.038,0.127,0.097,0.151,0.173
			C53.458,83.89,53.45,83.966,53.411,84.043"/>
		<path d="M56.963,77.479c0.084,0,0.157,0.028,0.214,0.087c0.058,0.057,0.087,0.129,0.087,0.213v0.357
			c0,0.084-0.029,0.155-0.087,0.214c-0.057,0.057-0.13,0.085-0.214,0.085h-0.576v5.931h0.576c0.084,0,0.157,0.028,0.214,0.087
			c0.058,0.057,0.087,0.127,0.087,0.212v0.358c0,0.085-0.029,0.155-0.087,0.213c-0.057,0.059-0.13,0.087-0.214,0.087h-1.31h-0.047
			h-0.835c-0.084,0-0.155-0.028-0.212-0.087c-0.06-0.058-0.088-0.128-0.088-0.213v-0.358c0-0.085,0.028-0.155,0.088-0.212
			c0.057-0.059,0.128-0.087,0.212-0.087h0.576v-5.931h-0.576c-0.084,0-0.155-0.028-0.212-0.085c-0.06-0.059-0.088-0.13-0.088-0.214
			v-0.357c0-0.084,0.028-0.156,0.088-0.213c0.057-0.059,0.128-0.087,0.212-0.087H56.963z"/>
		<path d="M61.024,76.532c-0.084,0-0.134-0.023-0.15-0.074c-0.015-0.05-0.004-0.101,0.034-0.155l0.728-1.188
			c0.091-0.154,0.224-0.23,0.394-0.23h0.587c0.068,0,0.121,0.025,0.155,0.074c0.034,0.051,0.021,0.118-0.039,0.202l-0.854,1.143
			c-0.053,0.068-0.114,0.125-0.179,0.167c-0.065,0.043-0.147,0.062-0.249,0.062H61.024z M61.277,84.492
			c0.439,0,0.798-0.099,1.073-0.3c0.277-0.199,0.477-0.487,0.601-0.865c0.023-0.068,0.044-0.155,0.062-0.26
			c0.021-0.103,0.038-0.232,0.059-0.386c0.019-0.153,0.032-0.335,0.04-0.542c0.009-0.208,0.013-0.454,0.013-0.738
			s-0.004-0.531-0.013-0.739c-0.008-0.206-0.021-0.388-0.04-0.542c-0.021-0.154-0.038-0.281-0.059-0.387
			c-0.019-0.103-0.039-0.189-0.062-0.259c-0.124-0.377-0.323-0.664-0.601-0.865c-0.275-0.199-0.634-0.299-1.073-0.299
			c-0.438,0-0.793,0.1-1.066,0.299c-0.272,0.201-0.471,0.488-0.594,0.865c-0.023,0.069-0.044,0.156-0.063,0.259
			c-0.02,0.105-0.038,0.232-0.058,0.387c-0.019,0.154-0.033,0.336-0.04,0.542c-0.008,0.208-0.013,0.455-0.013,0.739
			s0.005,0.53,0.013,0.738c0.007,0.207,0.021,0.389,0.04,0.542c0.02,0.153,0.038,0.283,0.058,0.386
			c0.02,0.104,0.04,0.191,0.063,0.26c0.123,0.378,0.321,0.666,0.594,0.865C60.484,84.394,60.839,84.492,61.277,84.492 M61.277,85.45
			c-0.66,0-1.222-0.153-1.679-0.462c-0.455-0.307-0.784-0.766-0.985-1.372c-0.04-0.115-0.07-0.234-0.098-0.357
			c-0.027-0.124-0.048-0.268-0.063-0.434c-0.015-0.165-0.026-0.363-0.034-0.594c-0.008-0.231-0.013-0.508-0.013-0.83
			s0.005-0.601,0.013-0.83c0.008-0.231,0.02-0.429,0.034-0.595c0.016-0.166,0.036-0.31,0.063-0.433s0.058-0.242,0.098-0.357
			c0.201-0.607,0.53-1.065,0.985-1.374c0.457-0.307,1.019-0.46,1.679-0.46c0.671,0,1.233,0.153,1.691,0.46
			c0.457,0.309,0.786,0.767,0.985,1.374c0.038,0.115,0.072,0.234,0.098,0.357c0.027,0.123,0.05,0.267,0.063,0.433
			c0.016,0.166,0.028,0.363,0.033,0.595c0.009,0.229,0.014,0.508,0.014,0.83s-0.005,0.599-0.014,0.83
			c-0.005,0.23-0.018,0.429-0.033,0.594c-0.014,0.166-0.036,0.31-0.063,0.434c-0.025,0.123-0.06,0.242-0.098,0.357
			c-0.199,0.606-0.528,1.065-0.985,1.372C62.511,85.297,61.948,85.45,61.277,85.45"/>
		<path d="M70.472,77.779c0-0.085,0.029-0.156,0.087-0.213c0.059-0.059,0.13-0.087,0.217-0.087h0.362
			c0.085,0,0.157,0.028,0.215,0.087c0.06,0.057,0.09,0.128,0.09,0.213v7.244c0,0.085-0.03,0.155-0.09,0.213
			c-0.058,0.058-0.13,0.086-0.215,0.086h-0.362c-0.087,0-0.158-0.028-0.217-0.086c-0.058-0.058-0.087-0.128-0.087-0.213v-1.534
			l-3.645-3.312h-0.034v4.846c0,0.085-0.03,0.155-0.089,0.213c-0.058,0.058-0.131,0.086-0.216,0.086h-0.362
			c-0.088,0-0.156-0.028-0.217-0.086c-0.057-0.058-0.086-0.128-0.086-0.213v-7.244c0-0.085,0.029-0.156,0.086-0.213
			c0.061-0.059,0.129-0.087,0.217-0.087h0.362c0.085,0,0.158,0.028,0.216,0.087c0.059,0.057,0.089,0.128,0.089,0.213v0.98
			l3.634,3.334h0.045V77.779z"/>
	</g>
</g>
<g id="Layer_3" display="none">
</g>
</svg>
