<?xml version="1.0" encoding="utf-8"?>
<!-- Generator: Adobe Illustrator 16.0.0, SVG Export Plug-In . SVG Version: 6.00 Build 0)  -->
<!DOCTYPE svg PUBLIC "-//W3C//DTD SVG 1.1//EN" "http://www.w3.org/Graphics/SVG/1.1/DTD/svg11.dtd">
<svg version="1.1" xmlns="http://www.w3.org/2000/svg" xmlns:xlink="http://www.w3.org/1999/xlink" x="0px" y="0px" width="117px"
	 height="32px" viewBox="0 0 117 32" enable-background="new 0 0 117 32" xml:space="preserve">
<g id="Capa_2">
</g>
<g id="Capa_1">
	<g>
		<path fill="#3EBA95" d="M5.796,28.864c-0.037,0.133-0.078,0.26-0.129,0.385c-0.104,0.257-0.238,0.477-0.405,0.653
			C5.137,30.048,5,30.162,4.849,30.246l-3.204-1.795c-0.051-0.251-0.078-0.509-0.078-0.771c0-0.365,0.046-0.71,0.136-1.033
			c0.087-0.335,0.227-0.638,0.415-0.905c0.099-0.132,0.204-0.25,0.323-0.355c0.118-0.104,0.252-0.198,0.401-0.282
			c0.292-0.161,0.643-0.241,1.05-0.241c0.115,0,0.224,0.006,0.332,0.02c0.108,0.017,0.209,0.04,0.303,0.079
			c0.214,0.07,0.405,0.171,0.571,0.304c0.16,0.121,0.304,0.281,0.43,0.484c0.114,0.201,0.198,0.424,0.25,0.664h0.587
			c-0.037-0.34-0.13-0.638-0.286-0.888c-0.15-0.257-0.34-0.476-0.571-0.656c-0.232-0.177-0.486-0.313-0.755-0.403
			c-0.289-0.09-0.574-0.135-0.862-0.135c-0.477,0-0.902,0.094-1.275,0.279c-0.36,0.178-0.663,0.424-0.914,0.734
			c-0.245,0.318-0.425,0.675-0.541,1.068c-0.12,0.407-0.179,0.828-0.179,1.267c0,0.446,0.06,0.871,0.179,1.272
			c0.127,0.407,0.306,0.761,0.541,1.059c0.238,0.299,0.542,0.541,0.914,0.727c0.356,0.184,0.78,0.278,1.275,0.278
			c0.352,0,0.681-0.06,0.991-0.179c0.299-0.121,0.555-0.291,0.766-0.512c0.212-0.216,0.391-0.484,0.534-0.809
			c0.07-0.16,0.126-0.331,0.172-0.507s0.078-0.366,0.094-0.569H5.865C5.855,28.591,5.834,28.73,5.796,28.864 M3.893,30.506
			c-0.407,0-0.759-0.08-1.05-0.242c-0.288-0.157-0.529-0.372-0.724-0.646c-0.113-0.154-0.206-0.323-0.276-0.503l0.403,0.233
			l0.486,0.279l1.516,0.851C4.13,30.496,4.012,30.506,3.893,30.506"/>
		<path fill="#3EBA95" d="M18.667,25.346c-0.234-0.311-0.538-0.556-0.905-0.734c-0.354-0.186-0.781-0.279-1.265-0.279
			c-0.496,0-0.917,0.094-1.273,0.279c-0.37,0.179-0.672,0.424-0.913,0.734c-0.243,0.306-0.423,0.661-0.544,1.068
			c-0.12,0.396-0.181,0.816-0.181,1.267c0,0.44,0.062,0.863,0.181,1.264c0.121,0.401,0.301,0.754,0.544,1.057
			c0.252,0.318,0.555,0.564,0.913,0.737c0.371,0.186,0.797,0.278,1.273,0.278c0.471,0,0.893-0.093,1.265-0.278
			c0.356-0.173,0.658-0.419,0.905-0.737c0.241-0.303,0.42-0.655,0.543-1.057c0.12-0.4,0.18-0.823,0.18-1.264
			c0-0.45-0.06-0.871-0.18-1.267C19.088,26.007,18.908,25.651,18.667,25.346 M17.539,30.254c-0.294,0.167-0.638,0.252-1.042,0.252
			c-0.401,0-0.755-0.085-1.058-0.252c-0.167-0.091-0.313-0.201-0.438-0.319h2.972C17.849,30.053,17.706,30.163,17.539,30.254
			 M18.798,27.588L18.798,27.588c-0.02,0.25-0.059,0.851-0.122,1.124c-0.067,0.232-0.162,0.441-0.27,0.638h-3.837
			c-0.107-0.196-0.201-0.405-0.27-0.638c-0.062-0.273-0.102-0.874-0.119-1.124h-0.002l0.002-0.005c0-0.002-0.002-0.005-0.002-0.005
			l0.002-0.001c0.009-0.136,0.024-0.43,0.046-0.554c0.02-0.125,0.044-0.25,0.072-0.376c0.093-0.335,0.233-0.638,0.423-0.905
			c0.176-0.271,0.416-0.486,0.716-0.647c0.292-0.162,0.644-0.241,1.058-0.241c0.408,0,0.757,0.079,1.042,0.241
			c0.3,0.161,0.538,0.377,0.714,0.647c0.19,0.268,0.332,0.57,0.423,0.905c0.028,0.126,0.054,0.251,0.074,0.376
			c0.02,0.124,0.033,0.418,0.043,0.554h0.004v0.006V27.588z"/>
		<path fill="#3EBA95" d="M46.552,28.934c0.122-0.395,0.182-0.814,0.182-1.267c0-0.439-0.06-0.862-0.182-1.264
			c-0.121-0.4-0.301-0.753-0.542-1.058c-0.246-0.317-0.547-0.562-0.906-0.736c-0.372-0.186-0.792-0.277-1.265-0.277
			c-0.477,0-0.902,0.092-1.274,0.277c-0.356,0.174-0.661,0.419-0.914,0.736c-0.239,0.305-0.422,0.657-0.542,1.058
			c-0.121,0.401-0.181,0.824-0.181,1.264c0,0.452,0.06,0.872,0.181,1.267c0.121,0.409,0.303,0.763,0.542,1.067
			c0.242,0.312,0.547,0.559,0.914,0.737c0.356,0.184,0.781,0.278,1.274,0.278c0.488,0,0.91-0.095,1.265-0.278
			c0.37-0.179,0.672-0.425,0.906-0.737C46.251,29.696,46.432,29.343,46.552,28.934 M45.32,25.412h-2.976
			c0.125-0.118,0.27-0.227,0.437-0.317c0.304-0.168,0.658-0.252,1.059-0.252c0.402,0,0.75,0.084,1.044,0.252
			C45.049,25.186,45.189,25.294,45.32,25.412 M46.141,27.766v0.005c-0.012,0.138-0.028,0.43-0.048,0.554
			c-0.021,0.126-0.045,0.25-0.074,0.377c-0.092,0.334-0.231,0.637-0.422,0.906c-0.177,0.27-0.416,0.485-0.712,0.646
			c-0.291,0.16-0.637,0.241-1.044,0.241c-0.414,0-0.768-0.081-1.059-0.241c-0.3-0.161-0.538-0.377-0.716-0.646
			c-0.189-0.27-0.332-0.572-0.422-0.906c-0.029-0.127-0.053-0.251-0.071-0.377c-0.021-0.124-0.038-0.416-0.048-0.554v-0.005V27.76
			c0.015-0.25,0.058-0.852,0.119-1.122c0.068-0.234,0.162-0.441,0.269-0.638h3.839c0.107,0.196,0.201,0.403,0.268,0.638
			c0.062,0.271,0.103,0.872,0.122,1.122V27.766z"/>
		<polygon fill="#3EBA95" points="31.444,30.218 31.426,30.218 30.446,27.41 31.495,24.486 30.873,24.486 30.151,26.565 
			29.426,24.486 28.808,24.486 29.858,27.427 28.895,30.218 28.875,30.218 26.88,24.486 26.258,24.486 28.532,30.892 29.211,30.892 
			30.151,28.263 31.083,30.892 31.762,30.892 34.046,24.486 33.425,24.486 		"/>
		<path fill="#3EBA95" d="M57.691,28.02c0.235-0.083,0.431-0.199,0.579-0.35c0.17-0.167,0.299-0.361,0.377-0.582
			c0.086-0.222,0.13-0.48,0.13-0.772c0-0.287-0.043-0.544-0.13-0.771c-0.078-0.222-0.207-0.414-0.377-0.582
			c-0.148-0.156-0.344-0.276-0.579-0.36c-0.217-0.076-0.463-0.115-0.737-0.115h-2.146h-0.595v6.405h0.595v-5.365l3.575,5.365h0.688
			l-1.843-2.772C57.413,28.102,57.568,28.067,57.691,28.02 M55.153,25.005h1.669c0.4,0,0.731,0.108,0.985,0.323
			c0.249,0.211,0.376,0.538,0.376,0.987c0,0.448-0.127,0.778-0.376,0.987c-0.224,0.198-0.532,0.305-0.916,0.322L55.153,25.005z"/>
		<path fill="#3EBA95" d="M71.494,24.486h-0.796l-2.228,1.91l-1.353-1.91h-0.586v6.405h0.586v-2.576l1.213-1.058l2.534,3.634h0.757
			l-2.834-4.047L71.494,24.486z M67.118,27.554v-2.027l0.885,1.264L67.118,27.554z"/>
		<polygon fill="#F05A56" points="89.739,24.467 89.222,24.467 87.334,28.234 85.45,24.467 84.933,24.467 84.623,24.467 
			84.346,24.467 84.346,30.892 84.933,30.892 84.933,25.041 87.01,28.892 86.009,30.892 86.595,30.892 87.334,29.51 88.077,30.892 
			88.663,30.892 87.664,28.892 89.739,25.041 89.739,30.892 90.325,30.892 90.325,24.467 90.047,24.467 		"/>
		<polygon fill="#F05A56" points="101.492,28.531 100.123,24.486 99.505,24.486 101.202,29.373 100.908,30.218 100.89,30.218 
			98.908,24.486 98.288,24.486 100.572,30.892 101.252,30.892 103.526,24.486 102.914,24.486 		"/>
		<path fill="#F05A56" d="M114.782,25.293c-0.469-0.521-1.177-0.795-2.12-0.826h-2.125v6.425h2.125
			c0.938-0.024,1.642-0.299,2.12-0.824c0.477-0.517,0.715-1.312,0.715-2.387C115.497,26.604,115.259,25.808,114.782,25.293
			 M111.121,24.987h1.248c0.438,0,0.82,0.051,1.148,0.152c0.326,0.103,0.588,0.258,0.792,0.468c0.208,0.214,0.356,0.496,0.456,0.843
			c0.04,0.137,0.084,0.284,0.096,0.448c0.028,0.389,0.028,1.172,0,1.562c-0.012,0.163-0.056,0.31-0.096,0.446
			c-0.091,0.335-0.246,0.613-0.456,0.835c-0.211,0.221-0.478,0.381-0.792,0.476c-0.328,0.102-0.71,0.153-1.148,0.153h-1.248v-2.433"
			/>
		<path fill="#002835" d="M38.962,1.448v19.944h-1.744L26.32,9.578v11.814h-1.768V1.448h1.768l10.898,11.788V1.448H38.962z
			 M37.218,15.918L26.32,4.131v2.793L37.218,18.71V15.918z"/>
		<polygon fill="#002835" points="55.918,19.773 55.918,21.393 43.148,21.393 43.148,1.421 55.792,1.421 55.792,3.068 44.892,3.068 
			44.892,8.963 55.097,8.963 55.097,10.61 44.892,10.61 44.892,12.203 55.097,12.203 55.097,13.823 44.892,13.823 44.892,19.773 		
			"/>
		<path fill="#002835" d="M60.621,4.688v16.704h-1.747V1.448h1.747h6.313c0.81,0,1.536,0.122,2.18,0.363
			c0.69,0.262,1.258,0.633,1.696,1.117c0.509,0.522,0.881,1.129,1.119,1.816c0.251,0.71,0.377,1.509,0.377,2.402
			c0,0.912-0.126,1.714-0.377,2.401c-0.238,0.689-0.61,1.295-1.119,1.816c-0.438,0.466-1.006,0.828-1.696,1.09
			c-0.372,0.147-0.83,0.25-1.37,0.306l5.424,8.632h-2.027L60.621,4.688z M61.637,3.068l5.119,8.157
			c1.133-0.057,2.027-0.391,2.688-1.007c0.743-0.65,1.116-1.675,1.116-3.071s-0.373-2.421-1.116-3.072
			c-0.744-0.672-1.708-1.007-2.89-1.007H61.637z"/>
		<path fill="#002835" d="M91.752,10.401v3.176v1.59V21h-1.24l-0.229-3.561h-0.052c-0.303,0.693-0.684,1.286-1.14,1.778
			c-0.421,0.513-0.912,0.924-1.471,1.233c-0.573,0.347-1.154,0.585-1.748,0.712c-0.642,0.146-1.283,0.218-1.926,0.218
			c-1.437,0-2.678-0.282-3.724-0.848c-1.083-0.549-1.978-1.287-2.688-2.219c-0.708-0.931-1.241-2.016-1.596-3.258
			c-0.354-1.205-0.534-2.492-0.534-3.86c0-1.332,0.179-2.62,0.534-3.86c0.354-1.241,0.888-2.329,1.596-3.259
			c0.744-0.967,1.637-1.717,2.688-2.247c1.096-0.565,2.34-0.847,3.724-0.847c0.948,0,1.851,0.135,2.712,0.409
			c0.845,0.273,1.6,0.685,2.254,1.232c0.34,0.293,0.644,0.603,0.915,0.932c0.267,0.328,0.523,0.702,0.76,1.121
			c0.439,0.786,0.75,1.727,0.936,2.821h-1.722c-0.05-0.565-0.229-1.141-0.531-1.725C89,5.207,88.603,4.688,88.08,4.215
			c-0.237-0.257-0.508-0.48-0.813-0.673c-0.303-0.192-0.623-0.358-0.962-0.506c-0.726-0.311-1.513-0.467-2.357-0.467
			c-1.217,0-2.245,0.257-3.093,0.768c-0.878,0.512-1.587,1.16-2.127,1.944c-0.54,0.84-0.947,1.761-1.217,2.766
			c-0.254,1.021-0.38,2.072-0.38,3.149c0,1.058,0.126,2.107,0.38,3.149c0.271,1.003,0.677,1.924,1.217,2.764
			c0.556,0.823,1.268,1.479,2.127,1.972c0.862,0.494,1.893,0.74,3.093,0.74c0.979,0,1.875-0.183,2.688-0.548
			c0.777-0.347,1.445-0.84,2.004-1.479c0.538-0.676,0.942-1.442,1.213-2.301c0.017-0.054,0.037-0.108,0.053-0.164
			c0.016-0.055,0.03-0.109,0.05-0.163H84.05v-1.59h6.157c0.015-0.146,0.024-0.3,0.024-0.465v-0.493V11.99H84.05v-1.589H91.752z"/>
		<path fill="#002835" d="M116.175,21.393h-1.852l-10.416-6.229l-2.179,6.229h-1.823l7.297-19.944h1.875L116.175,21.393z
			 M108.091,3.349l-3.65,10.196l9.123,5.724L108.091,3.349z"/>
		<path fill="#002835" d="M18.513,1.457h1.844v2.827l-1.844,1.002V1.457z M20.357,6.101v15.104h-1.844V7.104l1.085-0.597
			L20.357,6.101z"/>
		<path fill="#002835" d="M14.189,11.188c-0.25-0.229-0.532-0.445-0.834-0.649l0-0.002c-0.302-0.23-0.651-0.427-1.046-0.583
			c-0.02-0.007-0.039-0.013-0.058-0.021c-0.177-0.075-0.354-0.145-0.533-0.209c-0.064-0.022-0.131-0.042-0.198-0.064
			c-0.001,0-0.003-0.001-0.006-0.003c-0.002-0.001-0.006-0.001-0.009-0.002c-0.244-0.081-0.493-0.157-0.752-0.228L9.614,9.141
			L9.607,9.142l-3.117-0.78C6.261,8.309,6.036,8.244,5.816,8.174C5.596,8.101,5.372,8.02,5.141,7.931
			C4.7,7.768,4.24,7.586,3.822,7.338C3.574,7.192,3.567,7.222,3.375,7.06C3.204,6.919,3.076,6.801,2.897,6.533
			C2.789,6.372,2.76,6.212,2.773,6.052c0.083-0.301,0.2-0.572,0.354-0.812c0.317-0.564,0.731-1.019,1.242-1.361
			c0.512-0.384,1.059-0.646,1.641-0.787c0.617-0.162,1.155-0.242,1.613-0.242c0.916,0,1.729,0.102,2.433,0.303
			c0.775,0.181,1.437,0.494,1.983,0.938c0.583,0.483,1.023,1.078,1.323,1.785c0.159,0.384,0.272,0.809,0.343,1.271
			c0.071,0.464,0.105,0.97,0.105,1.514h1.799c0.054-1.312-0.105-2.452-0.475-3.42c-0.388-0.97-0.9-1.745-1.535-2.331
			c-0.688-0.604-1.508-1.06-2.46-1.36c-0.988-0.283-2.019-0.424-3.094-0.424c-1.075,0-2.027,0.11-2.856,0.332
			C4.414,1.699,3.744,2,3.18,2.364c-0.53,0.383-0.953,0.808-1.27,1.271C1.611,4.059,1.373,4.522,1.195,5.027
			C1.037,5.47,0.931,5.895,0.877,6.299C0.844,6.521,0.825,6.707,0.825,6.857v0.409c0,0.948,0.124,1.705,0.37,2.27
			c0.282,0.665,0.636,1.199,1.059,1.604c0.251,0.231,0.532,0.447,0.836,0.65l-0.001,0.001c0.303,0.232,0.652,0.427,1.047,0.583
			c0.02,0.01,0.04,0.014,0.058,0.022c0.175,0.075,0.354,0.145,0.533,0.208c0.064,0.023,0.134,0.043,0.2,0.065
			c0.001,0.001,0.002,0.001,0.003,0.001s0.003,0.001,0.005,0.001C5.18,12.754,5.43,12.83,5.689,12.9l1.142,0.288l0.006-0.003
			l3.116,0.782c0.23,0.053,0.455,0.116,0.676,0.188c0.22,0.072,0.444,0.152,0.674,0.244c0.439,0.16,0.9,0.345,1.317,0.589
			c0.25,0.146,0.257,0.118,0.449,0.279c0.169,0.144,0.299,0.261,0.478,0.528c0.107,0.159,0.136,0.32,0.124,0.48
			c-0.083,0.301-0.2,0.573-0.354,0.813c-0.318,0.564-0.732,1.019-1.243,1.361c-0.51,0.384-1.058,0.646-1.64,0.787
			c-0.617,0.16-1.155,0.241-1.613,0.241c-0.917,0-1.729-0.101-2.434-0.303c-0.775-0.182-1.437-0.494-1.983-0.938
			c-0.583-0.484-1.022-1.079-1.322-1.785C2.925,16.07,2.81,15.647,2.74,15.183c-0.072-0.464-0.107-0.968-0.107-1.514H0.835
			c-0.053,1.312,0.106,2.451,0.477,3.421c0.389,0.967,0.898,1.745,1.535,2.33c0.687,0.605,1.507,1.059,2.459,1.362
			c0.986,0.281,2.017,0.423,3.094,0.423c1.075,0,2.027-0.11,2.856-0.334c0.774-0.241,1.445-0.544,2.009-0.906
			c0.529-0.384,0.954-0.808,1.27-1.271c0.3-0.423,0.538-0.888,0.715-1.393c0.158-0.443,0.263-0.867,0.317-1.271
			c0.034-0.223,0.051-0.408,0.051-0.56v-0.408c0-0.949-0.123-1.705-0.369-2.27C14.967,12.126,14.614,11.593,14.189,11.188
			 M12.649,13.033c-0.3-0.142-0.485-0.213-0.792-0.321c-0.309-0.107-0.631-0.205-0.966-0.297l-1.026-0.257h0.001l-0.174-0.045
			l-1.05-0.264H8.634L6.51,11.318c-0.228-0.055-0.454-0.118-0.675-0.19c-0.192-0.062-0.461-0.159-0.679-0.244
			c-0.403-0.167-0.792-0.386-1.165-0.654c-0.008-0.005-0.015-0.009-0.024-0.014c-0.156-0.098-0.211-0.167-0.477-0.455
			C3.453,9.719,3.413,9.678,3.366,9.607C3.337,9.562,3.297,9.479,3.233,9.35C3.08,9.054,3.01,8.812,3.01,8.812
			c0.269,0.142,0.355,0.173,0.674,0.309c0.305,0.132,0.717,0.317,1.025,0.425C5.018,9.654,5.408,9.8,5.738,9.9l0.847,0.215
			L6.58,10.118l3.354,0.84c0.228,0.054,0.454,0.117,0.673,0.188c0.194,0.062,0.462,0.161,0.681,0.243
			c0.437,0.183,0.858,0.424,1.262,0.724c0.195,0.162,0.343,0.296,0.517,0.529c0.16,0.217,0.268,0.604,0.367,0.877
			C13.185,13.31,12.926,13.167,12.649,13.033"/>
		<path fill="#002835" d="M97.497,5.286l-1.843-1.002V1.457h1.843V5.286z M96.413,6.507l1.084,0.597v14.102h-1.843V6.101
			L96.413,6.507z"/>
	</g>
</g>
<g id="Layer_3" display="none">
</g>
</svg>
