<?xml version="1.0" encoding="utf-8"?>
<!-- Generator: Adobe Illustrator 16.0.0, SVG Export Plug-In . SVG Version: 6.00 Build 0)  -->
<!DOCTYPE svg PUBLIC "-//W3C//DTD SVG 1.1//EN" "http://www.w3.org/Graphics/SVG/1.1/DTD/svg11.dtd">
<svg version="1.1" id="Capa_1" xmlns="http://www.w3.org/2000/svg" xmlns:xlink="http://www.w3.org/1999/xlink" x="0px" y="0px"
	 width="160px" height="45px" viewBox="0 0 160 45" enable-background="new 0 0 160 45" xml:space="preserve">
<g>
	<path fill="#00BFDA" d="M29.94,13.83c-0.485,0.836-1.61,1.086-2.513,0.562l-5.301-3.077c0-0.004-0.002-0.004-0.002-0.004
		l-1.938-1.121l-4.404,2.539h-0.005l-2.922,1.688c-0.903,0.52-2.027,0.26-2.505-0.574c-0.484-0.834-0.145-1.935,0.762-2.457
		l5.31-3.055l2.818-1.621c0.041-0.025,0.083-0.04,0.122-0.06c0.055-0.026,0.106-0.051,0.166-0.071
		c0.035-0.018,0.07-0.027,0.108-0.039c0.084-0.029,0.167-0.05,0.256-0.062c0.027-0.006,0.053-0.009,0.079-0.013
		c0.086-0.01,0.172-0.014,0.26-0.014c0.037,0,0.072,0.004,0.106,0.008c0.076,0.003,0.146,0.016,0.221,0.03
		c0.047,0.008,0.092,0.019,0.137,0.03c0.067,0.02,0.132,0.045,0.198,0.07c0.041,0.016,0.075,0.036,0.108,0.05
		c0.047,0.022,0.094,0.036,0.138,0.062l5.138,2.986c0,0,0.001,0.002,0.015,0.002l2.89,1.68C30.087,11.897,30.423,12.993,29.94,13.83
		 M28.663,37.141h-2.1c-0.43,0-0.917-0.367-0.917-0.795c0,0-0.542-11.372-0.542-12.138c-0.138,1.079-3.42,12.183-3.42,12.183
		c-0.089,0.426-0.575,0.713-0.998,0.713h-1.104c-0.425,0-0.912-0.287-0.995-0.713c0,0-3.234-11.104-3.404-12.183
		c0,0.569-0.576,12.138-0.576,12.138c-0.029,0.428-0.48,0.795-0.909,0.795h-2.072c-0.429,0-0.708-0.367-0.682-0.795l1.539-17.69
		c0.024-0.426,0.481-0.795,0.905-0.795h2.436c0.426,0,0.911,0.286,0.994,0.713c0,0,3.256,11.555,3.344,12.555
		c0.082-0.969,3.354-12.555,3.354-12.555c0.088-0.427,0.573-0.713,0.997-0.713h2.414c0.425,0,0.884,0.369,0.91,0.795l1.511,17.69
		C29.368,36.773,29.089,37.141,28.663,37.141 M34.55,0.64H5.742c-2.131,0-3.798,1.762-3.798,3.799v36.125
		c0,2.037,1.667,3.795,3.798,3.795H34.55c2.129,0,3.797-1.758,3.797-3.795V4.439C38.347,2.402,36.679,0.64,34.55,0.64"/>
	<path fill="#131717" d="M51.247,19.482h-0.928c-0.347,0-0.637-0.289-0.637-0.617V7.089c0-0.347,0.29-0.639,0.637-0.639h0.928
		c0.328,0,0.617,0.292,0.617,0.639v11.775C51.864,19.193,51.575,19.482,51.247,19.482"/>
	<path fill="#131717" d="M60.198,19.482c-0.541,0-0.771-0.23-0.771-0.791v-5.386c0-0.868-0.367-1.447-1.275-1.447
		c-0.906,0-1.465,0.675-1.465,1.774v5.059c0,0.561-0.233,0.791-0.773,0.791h-0.58c-0.56,0-0.79-0.23-0.79-0.791v-7.839
		c0-0.538,0.23-0.771,0.79-0.771h0.097c0.483,0,0.772,0.192,0.946,0.676l0.038,0.114c0.542-0.598,1.312-0.904,2.222-0.904
		c2.027,0,2.914,1.002,2.914,3.104v5.619c0,0.561-0.231,0.791-0.771,0.791H60.198z"/>
	<path fill="#131717" d="M68.192,18.75c0,0.54-0.233,0.771-0.773,0.771h-0.617c-1.738,0-2.432-0.694-2.432-2.472v-5.075h-0.522
		c-0.54,0-0.772-0.23-0.772-0.792v-0.212c0-0.559,0.232-0.791,0.772-0.791h0.56l0.29-1.506c0.116-0.501,0.386-0.714,0.888-0.714
		H65.7c0.542,0,0.771,0.231,0.771,0.772v1.447h0.928c0.542,0,0.772,0.232,0.772,0.791v0.212c0,0.562-0.23,0.792-0.772,0.792h-0.928
		v5.021c0,0.52,0.175,0.656,0.543,0.656h0.405c0.54,0,0.773,0.229,0.773,0.771V18.75z"/>
	<path fill="#131717" d="M76.144,15.583H71.8c0.058,1.234,0.539,2.066,2.008,2.066c0.676,0,1.062-0.175,1.312-0.31
		c0.174-0.117,0.329-0.174,0.502-0.174s0.347,0.057,0.54,0.25l0.29,0.271c0.173,0.191,0.271,0.366,0.271,0.56
		c0,0.212-0.098,0.387-0.308,0.54c-0.311,0.232-1.161,0.791-2.705,0.791c-2.99,0-4.129-1.562-4.129-4.862
		c0-2.915,0.906-4.749,3.742-4.749c2.549,0,3.591,1.215,3.591,4.844C76.914,15.351,76.683,15.583,76.144,15.583 M74.753,13.789
		c-0.019-1.158-0.193-2.028-1.39-2.028c-0.983,0-1.526,0.426-1.563,2.028H74.753z"/>
	<path fill="#131717" d="M84.456,19.482c-0.543,0-0.773-0.23-0.773-0.791v-5.386c0-0.868-0.368-1.447-1.272-1.447
		c-0.909,0-1.468,0.675-1.468,1.774v5.059c0,0.561-0.233,0.791-0.771,0.791h-0.58c-0.561,0-0.791-0.23-0.791-0.791v-7.839
		c0-0.538,0.23-0.771,0.791-0.771h0.096c0.484,0,0.771,0.192,0.945,0.676l0.039,0.114c0.543-0.598,1.314-0.904,2.222-0.904
		c2.026,0,2.913,1.002,2.913,3.104v5.619c0,0.561-0.231,0.791-0.771,0.791H84.456z"/>
	<path fill="#131717" d="M92.89,6.509c0-0.559,0.232-0.79,0.771-0.79h0.581c0.538,0,0.771,0.231,0.771,0.79v12.2
		c0,0.542-0.233,0.772-0.771,0.772h-0.099c-0.501,0-0.792-0.212-0.944-0.675c-0.06-0.154,0,0.019-0.06-0.137
		c-0.561,0.637-1.274,0.908-2.237,0.908c-2.007,0-3.244-1.409-3.244-4.845c0-2.51,0.618-4.866,3.3-4.866
		c0.812,0,1.45,0.253,1.932,0.697V6.509z M91.383,11.703c-1.388,0-1.484,1.525-1.484,3.05c0,2.163,0.481,2.955,1.466,2.955
		c1.022,0,1.582-0.927,1.582-2.937C92.946,12.746,92.348,11.703,91.383,11.703"/>
	<path fill="#131717" d="M103.575,15.583h-4.343c0.058,1.234,0.54,2.066,2.008,2.066c0.674,0,1.062-0.175,1.312-0.31
		c0.173-0.117,0.329-0.174,0.502-0.174c0.172,0,0.345,0.057,0.541,0.25l0.287,0.271c0.173,0.191,0.271,0.366,0.271,0.56
		c0,0.212-0.098,0.387-0.309,0.54c-0.309,0.232-1.159,0.791-2.702,0.791c-2.991,0-4.13-1.562-4.13-4.862
		c0-2.915,0.906-4.749,3.742-4.749c2.549,0,3.592,1.215,3.592,4.844C104.347,15.351,104.116,15.583,103.575,15.583 M102.185,13.789
		c-0.02-1.158-0.193-2.028-1.39-2.028c-0.982,0-1.526,0.426-1.562,2.028H102.185z"/>
	<path fill="#131717" d="M111.908,19.482c-0.544,0-0.772-0.23-0.772-0.791v-5.386c0-0.868-0.367-1.447-1.273-1.447
		c-0.908,0-1.468,0.675-1.468,1.774v5.059c0,0.561-0.232,0.791-0.772,0.791h-0.579c-0.561,0-0.791-0.23-0.791-0.791v-7.839
		c0-0.538,0.23-0.771,0.791-0.771h0.096c0.483,0,0.773,0.192,0.947,0.676l0.037,0.114c0.542-0.598,1.313-0.904,2.222-0.904
		c2.027,0,2.913,1.002,2.913,3.104v5.619c0,0.561-0.23,0.791-0.771,0.791H111.908z"/>
	<path fill="#131717" d="M121.19,10.583c0.215,0.156,0.329,0.349,0.329,0.561s-0.114,0.387-0.289,0.56l-0.233,0.231
		c-0.211,0.194-0.385,0.29-0.577,0.29c-0.153,0-0.309-0.059-0.501-0.154c-0.214-0.115-0.484-0.212-0.87-0.212
		c-1.292,0-1.774,1.042-1.774,2.817c0,1.969,0.443,2.916,1.908,2.916c0.37,0,0.638-0.078,0.871-0.192
		c0.192-0.117,0.366-0.176,0.521-0.176c0.174,0,0.347,0.078,0.54,0.271l0.251,0.231c0.174,0.194,0.287,0.366,0.287,0.58
		c0,0.192-0.093,0.386-0.305,0.539c-0.27,0.233-0.984,0.734-2.335,0.734c-2.706,0-3.979-1.679-3.979-4.903
		c0-2.741,1.216-4.708,4.015-4.708C120.207,9.967,120.863,10.353,121.19,10.583"/>
	<path fill="#131717" d="M123.501,6.509c0-0.559,0.231-0.79,0.771-0.79h0.677c0.541,0,0.77,0.231,0.77,0.79v1.082
		c0,0.561-0.229,0.791-0.77,0.791h-0.677c-0.54,0-0.771-0.23-0.771-0.791V6.509z M123.559,10.757c0-0.541,0.231-0.772,0.772-0.772
		h0.561c0.54,0,0.771,0.231,0.771,0.772v7.953c0,0.54-0.231,0.771-0.771,0.771h-0.561c-0.541,0-0.772-0.231-0.772-0.771V10.757z"/>
	<path fill="#131717" d="M132.742,18.653c-0.596,0.694-1.428,0.926-2.374,0.926c-1.64,0-2.78-1.081-2.78-2.896
		c0-1.891,1.509-2.819,3.495-2.819h1.351c0.06,0,0.095-0.02,0.095-0.058v-0.559c0-1.062-0.48-1.352-1.676-1.352
		c-0.677,0-1.257,0.212-1.486,0.308c-0.156,0.059-0.292,0.098-0.427,0.098c-0.25,0-0.443-0.155-0.598-0.443l-0.136-0.289v0.018
		c-0.097-0.172-0.152-0.327-0.152-0.481c0-0.271,0.134-0.464,0.442-0.617c0.501-0.232,1.352-0.521,2.527-0.521
		c2.453,0,3.612,0.675,3.612,3.204v5.521c0,0.561-0.233,0.791-0.791,0.791h-0.099c-0.481,0-0.771-0.212-0.944-0.675L132.742,18.653z
		 M132.528,15.583h-0.982c-1.041,0-1.793,0.23-1.793,1.1c0,0.733,0.499,1.101,1.059,1.101c1.082,0,1.717-0.811,1.717-1.408V15.583z"
		/>
	<path fill="#131717" d="M54.394,24.172c0-0.561,0.23-0.792,0.77-0.792h0.581c0.54,0,0.772,0.231,0.772,0.792v12.199
		c0,0.543-0.232,0.771-0.772,0.771h-0.098c-0.499,0-0.792-0.211-0.944-0.676c-0.059-0.152,0,0.021-0.059-0.135
		c-0.56,0.639-1.274,0.908-2.238,0.908c-2.01,0-3.242-1.41-3.242-4.846c0-2.508,0.615-4.863,3.299-4.863
		c0.811,0,1.448,0.25,1.932,0.695V24.172z M52.888,29.363c-1.39,0-1.487,1.527-1.487,3.052c0,2.162,0.484,2.955,1.468,2.955
		c1.021,0,1.582-0.928,1.582-2.935C54.45,30.407,53.853,29.363,52.888,29.363"/>
	<path fill="#131717" d="M65.079,33.244h-4.344c0.06,1.237,0.539,2.067,2.008,2.067c0.676,0,1.062-0.174,1.312-0.311
		c0.175-0.115,0.326-0.172,0.502-0.172c0.172,0,0.348,0.057,0.54,0.25l0.288,0.271c0.176,0.189,0.272,0.365,0.272,0.559
		c0,0.211-0.097,0.387-0.309,0.539c-0.31,0.232-1.158,0.793-2.704,0.793c-2.991,0-4.129-1.564-4.129-4.864
		c0-2.915,0.906-4.748,3.743-4.748c2.549,0,3.59,1.213,3.59,4.843C65.85,33.012,65.62,33.244,65.079,33.244 M63.688,31.449
		c-0.02-1.158-0.193-2.026-1.391-2.026c-0.982,0-1.525,0.425-1.562,2.026H63.688z"/>
	<path fill="#131717" d="M89.879,37.238c-2.936,0-3.899-1.793-3.899-4.824c0-2.974,0.986-4.787,3.899-4.787
		c2.915,0,3.898,1.813,3.898,4.787C93.777,35.445,92.775,37.238,89.879,37.238 M89.879,29.5c-1.351,0-1.718,0.889-1.718,2.915
		c0,2.083,0.347,2.955,1.718,2.955c1.373,0,1.736-0.871,1.736-2.955C91.615,30.388,91.192,29.5,89.879,29.5"/>
	<path fill="#131717" d="M101.358,37.143c-0.542,0-0.771-0.23-0.771-0.789v-5.387c0-0.867-0.369-1.447-1.276-1.447
		c-0.906,0-1.467,0.675-1.467,1.776v5.058c0,0.559-0.23,0.789-0.772,0.789h-0.58c-0.559,0-0.79-0.23-0.79-0.789v-7.839
		c0-0.54,0.231-0.771,0.79-0.771h0.098c0.482,0,0.772,0.191,0.945,0.676l0.038,0.115c0.543-0.6,1.312-0.907,2.222-0.907
		c2.027,0,2.914,1.004,2.914,3.107v5.619c0,0.559-0.231,0.789-0.771,0.789H101.358z"/>
	<path fill="#131717" d="M109.13,36.41c0,0.539-0.231,0.771-0.772,0.771h-0.618c-1.736,0-2.433-0.693-2.433-2.471v-5.076h-0.52
		c-0.539,0-0.773-0.232-0.773-0.794v-0.21c0-0.56,0.234-0.792,0.773-0.792h0.556l0.293-1.505c0.116-0.501,0.386-0.715,0.889-0.715
		h0.113c0.543,0,0.772,0.231,0.772,0.773v1.446h0.925c0.543,0,0.774,0.232,0.774,0.792v0.21c0,0.562-0.231,0.794-0.774,0.794h-0.925
		v5.019c0,0.52,0.175,0.656,0.542,0.656h0.405c0.541,0,0.772,0.229,0.772,0.771V36.41z"/>
	<path fill="#131717" d="M116.954,33.244h-4.345c0.06,1.237,0.54,2.067,2.008,2.067c0.676,0,1.062-0.174,1.312-0.311
		c0.173-0.115,0.328-0.172,0.503-0.172c0.172,0,0.346,0.057,0.541,0.25l0.287,0.271c0.175,0.189,0.272,0.365,0.272,0.559
		c0,0.211-0.098,0.387-0.31,0.539c-0.31,0.232-1.159,0.793-2.704,0.793c-2.992,0-4.131-1.564-4.131-4.864
		c0-2.915,0.908-4.748,3.744-4.748c2.549,0,3.591,1.213,3.591,4.843C117.724,33.012,117.493,33.244,116.954,33.244 M115.563,31.449
		c-0.02-1.158-0.193-2.026-1.39-2.026c-0.984,0-1.526,0.425-1.564,2.026H115.563z"/>
	<path fill="#131717" d="M122.584,35.328l0.211-0.096l1.682-6.775c0.133-0.501,0.404-0.714,0.906-0.714h0.753
		c0.443,0,0.656,0.173,0.656,0.54c0,0.096-0.02,0.193-0.06,0.29h0.021l-2.358,7.874V36.43c-0.112,0.482-0.404,0.715-0.904,0.715
		h-1.583c-0.504,0-0.811-0.232-0.927-0.715v0.018l-2.355-7.874c-0.037-0.097-0.037-0.194-0.037-0.272
		c0-0.385,0.19-0.558,0.654-0.558h0.754c0.501,0,0.772,0.23,0.909,0.714L122.584,35.328z"/>
	<path fill="#131717" d="M128.097,24.172c0-0.561,0.232-0.792,0.771-0.792h0.679c0.54,0,0.77,0.231,0.77,0.792v1.081
		c0,0.561-0.229,0.79-0.77,0.79h-0.679c-0.539,0-0.771-0.229-0.771-0.79V24.172z M128.155,28.419c0-0.541,0.233-0.771,0.773-0.771
		h0.559c0.539,0,0.773,0.23,0.773,0.771v7.952c0,0.541-0.234,0.773-0.773,0.773h-0.559c-0.54,0-0.773-0.232-0.773-0.773V28.419z"/>
	<path fill="#131717" d="M137.494,24.172c0-0.561,0.233-0.792,0.773-0.792h0.578c0.541,0,0.772,0.231,0.772,0.792v12.199
		c0,0.543-0.231,0.771-0.772,0.771h-0.098c-0.5,0-0.791-0.211-0.944-0.676c-0.059-0.152,0,0.021-0.059-0.135
		c-0.561,0.639-1.275,0.908-2.238,0.908c-2.009,0-3.243-1.41-3.243-4.846c0-2.508,0.618-4.863,3.299-4.863
		c0.812,0,1.451,0.25,1.932,0.695V24.172z M135.988,29.363c-1.388,0-1.486,1.527-1.486,3.052c0,2.162,0.483,2.955,1.469,2.955
		c1.021,0,1.581-0.928,1.581-2.935C137.552,30.407,136.955,29.363,135.988,29.363"/>
	<path fill="#131717" d="M147.932,33.244h-4.344c0.06,1.237,0.543,2.067,2.009,2.067c0.676,0,1.061-0.174,1.313-0.311
		c0.174-0.115,0.327-0.172,0.501-0.172c0.173,0,0.347,0.057,0.54,0.25l0.289,0.271c0.175,0.189,0.272,0.365,0.272,0.559
		c0,0.211-0.098,0.387-0.311,0.539c-0.311,0.232-1.158,0.793-2.704,0.793c-2.991,0-4.128-1.564-4.128-4.864
		c0-2.915,0.907-4.748,3.742-4.748c2.547,0,3.591,1.213,3.591,4.843C148.703,33.012,148.471,33.244,147.932,33.244 M146.541,31.449
		c-0.021-1.158-0.192-2.026-1.39-2.026c-0.983,0-1.525,0.425-1.563,2.026H146.541z"/>
	<path fill="#131717" d="M154.155,37.238c-2.933,0-3.898-1.793-3.898-4.824c0-2.974,0.986-4.787,3.898-4.787
		c2.917,0,3.901,1.813,3.901,4.787C158.057,35.445,157.054,37.238,154.155,37.238 M154.155,29.5c-1.35,0-1.716,0.889-1.716,2.915
		c0,2.083,0.347,2.955,1.716,2.955c1.374,0,1.738-0.871,1.738-2.955C155.894,30.388,155.47,29.5,154.155,29.5"/>
	<path fill="#131717" d="M84.508,36.354v0.078c0,0.5-0.215,0.711-0.733,0.711h-0.752c-0.521,0-0.756-0.23-0.789-0.77l-0.309-8.229
		l-2.493,8.305c-0.153,0.482-0.441,0.693-0.943,0.693h-0.483c-0.498,0-0.79-0.211-0.942-0.693l-2.468-8.265l-0.387,8.189
		c-0.04,0.539-0.271,0.77-0.794,0.77h-0.713c-0.519,0-0.729-0.211-0.729-0.711v-0.078l0.807-11.446
		c0.022-0.539,0.268-0.771,0.81-0.771h1.062c0.48,0,0.77,0.231,0.921,0.714l2.706,9.023c0.943-3.064,1.721-5.979,2.667-9.023
		c0.149-0.482,0.438-0.714,0.921-0.714h1.081c0.538,0,0.787,0.231,0.807,0.771L84.508,36.354z"/>
</g>
</svg>
