<?xml version="1.0" encoding="utf-8"?>
<!-- Generator: Adobe Illustrator 16.0.0, SVG Export Plug-In . SVG Version: 6.00 Build 0)  -->
<!DOCTYPE svg PUBLIC "-//W3C//DTD SVG 1.1//EN" "http://www.w3.org/Graphics/SVG/1.1/DTD/svg11.dtd">
<svg version="1.1" xmlns="http://www.w3.org/2000/svg" xmlns:xlink="http://www.w3.org/1999/xlink" x="0px" y="0px" width="95px"
	 height="65px" viewBox="0 0 95 65" enable-background="new 0 0 95 65" xml:space="preserve">
<g id="Capa_3">
</g>
<g id="Capa_1">
</g>
<g id="Capa_4">
	<g>
		<rect x="40.883" y="29.679" fill="#FFFFE1" width="21.786" height="17.07"/>
		<path fill="#1E2125" d="M62.669,47.613H40.883l-0.862-0.865V29.68l0.862-0.865h21.786l0.862,0.865v17.069L62.669,47.613z
			 M41.749,45.886h20.057V30.542H41.749V45.886z"/>
		<rect x="39.564" y="29.269" fill="#FFFFE1" width="24.426" height="4.489"/>
		<path fill="#1E2125" d="M63.99,34.623H39.564L38.7,33.758v-4.486l0.864-0.866H63.99l0.864,0.866v4.486L63.99,34.623z
			 M40.427,32.894h22.699v-2.759H40.427V32.894z"/>
		<rect x="49.761" y="29.271" fill="#FFFFE1" width="4.029" height="17.477"/>
		<path fill="#1E2125" d="M53.791,47.613h-4.029l-0.862-0.865V29.271l0.862-0.866h4.029l0.864,0.866v17.477L53.791,47.613z
			 M50.628,45.886h2.301V30.135h-2.301V45.886z"/>
		<path fill="#FFFFE1" d="M51.404,28.562c0,0-3.779,0.005-5.43,0.005c-1.649,0-2.984-1.335-2.984-2.986
			c0-1.647,1.335-2.983,2.984-2.983C49.208,22.599,51.404,28.562,51.404,28.562"/>
		<path fill="#1E2125" d="M45.974,29.434c-2.125,0-3.851-1.728-3.851-3.85c0-2.124,1.726-3.85,3.851-3.85
			c3.729,0,5.992,5.862,6.241,6.53l-0.812,1.162C51.404,29.426,47.625,29.434,45.974,29.434 M45.974,23.462
			c-1.17,0-2.121,0.95-2.121,2.122c0,1.168,0.951,2.121,2.121,2.121c1.021,0,2.863-0.002,4.117-0.005
			C49.248,25.962,47.667,23.462,45.974,23.462"/>
		<path fill="#FFFFE1" d="M52.013,28.562c0,0,3.779,0.005,5.426,0.005c1.65,0,2.988-1.335,2.988-2.986
			c0-1.647-1.338-2.983-2.988-2.983C54.208,22.599,52.013,28.562,52.013,28.562"/>
		<path fill="#1E2125" d="M57.441,29.434c-1.647,0-5.431-0.008-5.431-0.008l-0.81-1.161c0.244-0.67,2.512-6.531,6.24-6.531
			c2.125,0,3.852,1.727,3.852,3.85C61.292,27.705,59.566,29.434,57.441,29.434 M53.325,27.7c1.253,0.001,3.093,0.004,4.116,0.004
			c1.17,0,2.121-0.952,2.121-2.12c0-1.171-0.951-2.121-2.121-2.121C55.744,23.463,54.166,25.961,53.325,27.7"/>
		<path fill="#FFFFE1" d="M13.355,16.255c0,12.031,11.074,16.74,11.074,16.74s11.078-4.709,11.078-16.74
			c0-6.117-4.963-11.074-11.078-11.074C18.312,5.182,13.355,10.139,13.355,16.255"/>
		<path fill="#1E2125" d="M24.789,33.833h-0.716c-0.115-0.05-11.628-5.089-11.628-17.578c0-6.609,5.375-11.986,11.984-11.986
			c6.611,0,11.988,5.377,11.988,11.986C36.417,28.745,24.904,33.783,24.789,33.833 M24.429,6.092
			c-5.604,0-10.163,4.56-10.163,10.164c0,10.211,8.296,14.827,10.163,15.735c1.872-0.909,10.168-5.524,10.168-15.735
			C34.597,10.651,30.035,6.092,24.429,6.092"/>
		<path fill="#96F8A7" d="M37.306,17.186c-1.64,0.501-3.428,0.718-5.284,0.588c-6.651-0.469-11.836-5.219-12.285-10.935
			c1.954-1.133,4.259-1.715,6.685-1.545C32.667,5.733,37.422,10.996,37.306,17.186"/>
		<path fill="#1E2125" d="M33.072,18.722c-0.369,0-0.744-0.012-1.113-0.039c-6.996-0.491-12.642-5.551-13.131-11.771l0.451-0.86
			c2.172-1.258,4.691-1.843,7.203-1.666c6.709,0.471,11.863,6.101,11.733,12.816l-0.644,0.855
			C36.128,18.497,34.611,18.722,33.072,18.722 M20.707,7.35c0.719,5.059,5.499,9.1,11.379,9.516c1.459,0.1,2.919-0.024,4.303-0.37
			c-0.233-5.442-4.521-9.904-10.032-10.292C24.401,6.07,22.443,6.466,20.707,7.35"/>
		<path fill="#96F8A7" d="M18.857,6.687c0.473,1.229,0.732,2.576,0.732,3.991c0,4.292-2.396,7.968-5.807,9.533
			c-0.272-1.218-0.428-2.537-0.428-3.954C13.355,12.172,15.569,8.606,18.857,6.687"/>
		<path fill="#1E2125" d="M14.163,21.039l-1.269-0.631c-0.3-1.335-0.45-2.734-0.45-4.153c0-4.244,2.282-8.212,5.954-10.355
			l1.309,0.459c0.526,1.371,0.795,2.824,0.795,4.318C20.501,15.208,18.011,19.275,14.163,21.039 M18.357,8.109
			c-2.549,1.906-4.091,4.933-4.091,8.146c0,0.866,0.062,1.72,0.184,2.554c2.603-1.678,4.229-4.748,4.229-8.131
			C18.679,9.8,18.572,8.939,18.357,8.109"/>
		<path fill="#96F8A7" d="M11.148,28.787c2.905-2.908,2.772-8.022,2.772-8.022s-5.221-0.24-8.126,2.668
			c-1.48,1.479-1.48,3.875,0,5.354C7.271,30.267,9.668,30.267,11.148,28.787"/>
		<path fill="#1E2125" d="M8.47,30.807c-1.256,0-2.434-0.489-3.322-1.375c-0.887-0.888-1.377-2.069-1.377-3.323
			c0-1.253,0.49-2.434,1.377-3.323c2.729-2.725,7.18-2.937,8.479-2.937c0.215,0,0.338,0.006,0.338,0.006l0.868,0.886
			c0.006,0.225,0.107,5.541-3.042,8.691C10.904,30.318,9.724,30.807,8.47,30.807 M12.976,21.69
			c-1.462,0.081-4.631,0.479-6.539,2.386c-0.543,0.543-0.844,1.266-0.844,2.033c0,0.767,0.301,1.491,0.844,2.035
			c0.543,0.542,1.266,0.84,2.033,0.84c0.767,0,1.491-0.298,2.035-0.84C12.402,26.242,12.865,23.197,12.976,21.69"/>
		<path fill="#FFFFE1" d="M32.412,52.245c0,3.806,3.084,6.892,6.893,6.892c3.805,0,6.891-3.086,6.891-6.892H32.412z"/>
		<path fill="#1E2125" d="M39.304,60.049c-4.303,0-7.804-3.501-7.804-7.806l0.911-0.912h13.783l0.912,0.912
			C47.107,56.548,43.605,60.049,39.304,60.049 M33.392,53.156c0.44,2.867,2.924,5.07,5.912,5.07c2.986,0,5.47-2.203,5.908-5.07
			H33.392z"/>
		<path fill="#96F8A7" d="M38.037,49.786h-4.213v-5.634l-9.396-10.515c-5.369,0-9.721,4.353-9.721,9.719v1.583v1.472v0.358
			c0,8.16,6.637,13.54,14.797,13.54h9.021L38.037,49.786z"/>
		<path fill="#1E2125" d="M27.186,28.459c-2.409,0-4.54-1.535-5.299-3.823c-0.159-0.478,0.099-0.994,0.578-1.153
			c0.476-0.159,0.992,0.102,1.151,0.579c0.512,1.54,1.947,2.575,3.569,2.575c0.505,0,0.912,0.409,0.912,0.912
			C28.098,28.053,27.691,28.459,27.186,28.459"/>
		<path fill="#FFFFE1" d="M71.256,52.245c0,3.806-3.087,6.892-6.894,6.892c-3.805,0-6.891-3.086-6.891-6.892H71.256z"/>
		<path fill="#1E2125" d="M64.363,60.049c-4.301,0-7.801-3.501-7.801-7.806l0.91-0.912h13.784l0.91,0.912
			C72.167,56.548,68.667,60.049,64.363,60.049 M58.452,53.156c0.44,2.867,2.925,5.07,5.911,5.07c2.988,0,5.472-2.203,5.911-5.07
			H58.452z"/>
		<path fill="#96F8A7" d="M79.242,33.636l-9.399,10.515v5.634h-4.212L65.14,60.308h9.024c8.16,0,14.798-6.637,14.798-14.796v-0.046
			v-0.526v-1.582C88.963,37.989,84.611,33.636,79.242,33.636"/>
		<path fill="#FFFFE1" d="M90.318,16.255c0,12.031-11.076,16.74-11.076,16.74s-11.079-4.709-11.079-16.74
			c0-6.117,4.961-11.074,11.079-11.074C85.357,5.182,90.318,10.139,90.318,16.255"/>
		<path fill="#1E2125" d="M78.885,33.833c-0.115-0.05-11.633-5.089-11.633-17.578c0-6.609,5.38-11.986,11.991-11.986
			c6.611,0,11.986,5.377,11.986,11.986c0,12.489-11.516,17.528-11.629,17.578H78.885z M79.242,6.092
			c-5.606,0-10.168,4.56-10.168,10.164c0,10.211,8.297,14.827,10.168,15.735c1.869-0.909,10.166-5.524,10.166-15.735
			C89.408,10.651,84.846,6.092,79.242,6.092"/>
		<path fill="#1E2125" d="M76.621,28.459c-0.504,0-0.913-0.406-0.913-0.911c0-0.502,0.409-0.912,0.913-0.912
			c1.619,0,3.055-1.035,3.57-2.575c0.158-0.477,0.674-0.737,1.15-0.579c0.479,0.159,0.738,0.675,0.578,1.154
			C81.156,26.924,79.027,28.459,76.621,28.459"/>
		<path fill="#96F8A7" d="M84.814,6.687c-0.471,1.229-0.732,2.576-0.732,3.991c0,4.292,2.396,7.968,5.807,9.533
			c0.275-1.218,0.43-2.537,0.43-3.954C90.318,12.172,88.105,8.606,84.814,6.687"/>
		<path fill="#1E2125" d="M89.512,21.039c-3.854-1.764-6.342-5.831-6.342-10.361c0-1.495,0.268-2.947,0.795-4.318L85.275,5.9
			c3.672,2.143,5.953,6.111,5.953,10.355c0,1.418-0.15,2.815-0.451,4.153L89.512,21.039z M85.316,8.109
			c-0.213,0.831-0.324,1.691-0.324,2.569c0,3.384,1.629,6.454,4.23,8.131c0.123-0.836,0.186-1.688,0.186-2.554
			C89.408,13.042,87.865,10.015,85.316,8.109"/>
		<path fill="#96F8A7" d="M65.961,16.092c1.647,0.628,3.464,0.98,5.372,0.98c6.852,0,12.499-4.492,13.374-10.316
			c-1.92-1.303-4.24-2.062-6.736-2.062C71.539,4.693,66.289,9.742,65.961,16.092"/>
		<path fill="#1E2125" d="M71.335,17.982c-1.976,0-3.892-0.35-5.698-1.04l-0.583-0.898C65.407,9.167,71.08,3.781,77.971,3.781
			c2.598,0,5.107,0.767,7.25,2.22l0.389,0.89C84.662,13.215,78.525,17.982,71.335,17.982 M66.927,15.467
			c1.41,0.46,2.887,0.694,4.408,0.694c6.071,0,11.274-3.816,12.37-8.966c-1.727-1.044-3.697-1.591-5.734-1.591
			C72.276,5.604,67.549,9.884,66.927,15.467"/>
		<path fill="#1E2125" d="M34.732,49.584H32.91v-5.085l-8.885-9.941c-4.67,0.21-8.406,4.077-8.406,8.8v3.053h-1.82v-3.053
			c0-5.862,4.768-10.632,10.629-10.632l0.68,0.304l9.395,10.516l0.23,0.606V49.584z"/>
		<path fill="#1E2125" d="M38.528,61.219h-9.024c-9.103,0-15.705-6.079-15.705-14.451v-1.831h1.82v1.831
			c0,7.316,5.839,12.628,13.885,12.628h8.068l-0.407-8.701h-7.661c-4.283,0-5.185-2.134-5.185-3.927v-3.115h1.823v3.115
			c0,0.685,0,2.106,3.361,2.106h8.533l0.908,0.868l0.494,10.522L38.528,61.219z"/>
		<path fill="#1E2125" d="M70.755,49.935h-1.822v-5.785l0.232-0.605l9.397-10.513l0.68-0.305c5.863,0,10.631,4.767,10.631,10.629
			v2.111h-1.822v-2.111c0-4.723-3.738-8.588-8.406-8.798L70.755,44.5V49.935z"/>
		<path fill="#1E2125" d="M74.166,61.219H65.14l-0.91-0.954l0.49-10.522l0.911-0.868h8.534c1.856,0,3.364-1.51,3.364-3.363v-1.858
			h1.82v1.858c0,2.859-2.326,5.184-5.184,5.184H66.5l-0.405,8.701h8.07c7.657,0,13.885-6.229,13.885-13.885v-0.574h1.82v0.574
			C89.871,54.171,82.828,61.219,74.166,61.219"/>
	</g>
</g>
<g id="Capa_6" display="none">
</g>
<g id="_x31_" display="none">
</g>
<g id="pop_up_FB" display="none">
</g>
<g id="_x32_" display="none">
</g>
<g id="_x33_" display="none">
</g>
<g id="_x33__ok" display="none">
</g>
<g id="DENEGADA" display="none">
</g>
<g id="Lista_de_espera" display="none">
</g>
</svg>
