<svg id="Layer_1" data-name="Layer 1" xmlns="http://www.w3.org/2000/svg" viewBox="0 0 434.77 114.79"><defs><style>.cls-1{fill:#f0f0ec;}.cls-2{fill:#2d2e35;}.cls-3{fill:#96f8a7;}</style></defs><rect class="cls-1" x="74.17" y="51.76" width="43.53" height="34.12"/><path class="cls-2" d="M117.7,87.6H74.17l-1.73-1.73V51.76L74.17,50H117.7l1.73,1.73V85.87ZM75.9,84.15H116V53.49H75.9Z"/><rect class="cls-1" x="71.53" y="50.94" width="48.82" height="8.97"/><path class="cls-2" d="M120.34,61.63H71.53L69.8,59.91v-9l1.73-1.72h48.81l1.73,1.72v9ZM73.25,58.18h45.37V52.67H73.25Z"/><rect class="cls-1" x="91.91" y="50.95" width="8.05" height="34.93"/><path class="cls-2" d="M100,87.6h-8l-1.72-1.73V50.94l1.72-1.72h8l1.72,1.72V85.87Zm-6.32-3.45h4.6V52.67h-4.6Z"/><path class="cls-1" d="M95.19,49.52l-10.85,0a6,6,0,0,1,0-11.93c6.47,0,10.85,11.91,10.85,11.91"/><path class="cls-2" d="M84.34,51.27a7.7,7.7,0,1,1,0-15.39c7.45,0,12,11.72,12.47,13l-1.62,2.32-10.85,0m0-11.94a4.24,4.24,0,0,0,0,8.48h8.22c-1.68-3.47-4.83-8.47-8.22-8.47"/><path class="cls-1" d="M96.41,49.52l10.85,0a6,6,0,0,0,0-11.93c-6.47,0-10.85,11.91-10.85,11.91"/><path class="cls-2" d="M107.26,51.27l-10.86,0-1.61-2.32c.49-1.34,5-13,12.47-13a7.7,7.7,0,0,1,0,15.39M99,47.8h8.23a4.24,4.24,0,0,0,0-8.48c-3.4,0-6.55,5-8.23,8.47"/><path class="cls-1" d="M19.15,24.93c0,24,22.13,33.45,22.13,33.45S63.42,49,63.42,24.93a22.14,22.14,0,0,0-44.27,0"/><path class="cls-2" d="M42,60.06H40.57c-.23-.1-23.24-10.17-23.24-35.13a24,24,0,0,1,47.91,0c0,25-23,35-23.24,35.13M41.28,4.62A20.33,20.33,0,0,0,21,24.93c0,20.41,16.58,29.63,20.31,31.45C45,54.56,61.6,45.34,61.6,24.93A20.33,20.33,0,0,0,41.28,4.62"/><path class="cls-3" d="M67,26.79A29.43,29.43,0,0,1,56.46,28C43.17,27,32.81,17.54,31.9,6.11A23.4,23.4,0,0,1,67,26.79"/><path class="cls-2" d="M58.55,29.86c-.74,0-1.48,0-2.22-.08-14-1-25.26-11.09-26.24-23.52L31,4.54A25.22,25.22,0,0,1,68.84,26.82l-1.29,1.71a30.88,30.88,0,0,1-9,1.33M33.85,7.13c1.43,10.11,11,18.19,22.74,19a27.71,27.71,0,0,0,8.59-.74A21.57,21.57,0,0,0,33.85,7.13"/><path class="cls-3" d="M30.15,5.81a22.26,22.26,0,0,1,1.46,8c0,8.58-4.79,15.93-11.61,19.06a36.47,36.47,0,0,1-.85-7.91,22.1,22.1,0,0,1,11-19.12"/><path class="cls-2" d="M20.76,34.49l-2.53-1.26a37.9,37.9,0,0,1-.9-8.3A24,24,0,0,1,29.23,4.24l2.62.91a24,24,0,0,1,1.58,8.63c0,9.06-5,17.18-12.67,20.71M29.14,8.65A20.41,20.41,0,0,0,21,24.93a35.7,35.7,0,0,0,.37,5.1,19.21,19.21,0,0,0,8.45-16.25,20.44,20.44,0,0,0-.65-5.13"/><path class="cls-3" d="M14.74,50c5.81-5.81,5.54-16,5.54-16S9.85,33.46,4,39.27A7.57,7.57,0,1,0,14.74,50"/><path class="cls-2" d="M9.39,54A9.39,9.39,0,0,1,2.75,38c5.45-5.44,14.35-5.87,16.94-5.87.44,0,.68,0,.68,0L22.1,33.9c0,.44.22,11.07-6.08,17.36A9.29,9.29,0,0,1,9.39,54m9-18.22c-2.92.16-9.25,1-13.07,4.77a5.75,5.75,0,0,0,8.13,8.13c3.8-3.8,4.72-9.89,4.94-12.9"/><path class="cls-1" d="M57.24,96.85a13.77,13.77,0,1,0,27.54,0Z"/><path class="cls-2" d="M71,112.45a15.62,15.62,0,0,1-15.6-15.6L57.24,95H84.78l1.82,1.82A15.61,15.61,0,0,1,71,112.45M59.2,98.68a11.95,11.95,0,0,0,23.62,0Z"/><path class="cls-3" d="M68.48,91.94H60.05V80.68l-18.77-21A19.42,19.42,0,0,0,21.85,79.09v6.82c0,16.31,13.27,27.06,29.57,27.06h18Z"/><path class="cls-2" d="M46.79,49.32A11.15,11.15,0,0,1,36.2,41.68a1.82,1.82,0,0,1,3.46-1.15,7.5,7.5,0,0,0,7.13,5.15,1.82,1.82,0,1,1,0,3.64"/><path class="cls-1" d="M134.86,96.85a13.77,13.77,0,1,1-27.54,0Z"/><path class="cls-2" d="M121.09,112.45a15.62,15.62,0,0,1-15.59-15.6L107.32,95h27.54l1.82,1.82a15.61,15.61,0,0,1-15.59,15.6M109.27,98.68a12,12,0,0,0,23.63,0Z"/><path class="cls-3" d="M150.82,59.67,132,80.68V91.94h-8.42l-1,21h18A29.61,29.61,0,0,0,170.25,83.4V79.09a19.42,19.42,0,0,0-19.43-19.42"/><path class="cls-1" d="M173,24.93c0,24-22.14,33.45-22.14,33.45S128.68,49,128.68,24.93a22.14,22.14,0,0,1,44.28,0"/><path class="cls-2" d="M150.11,60.06c-.23-.1-23.25-10.17-23.25-35.13a24,24,0,0,1,47.92,0c0,25-23,35-23.24,35.13Zm.71-55.44a20.33,20.33,0,0,0-20.31,20.31c0,20.41,16.57,29.63,20.31,31.45,3.74-1.82,20.32-11,20.32-31.45A20.34,20.34,0,0,0,150.82,4.62"/><path class="cls-2" d="M145.59,49.32a1.82,1.82,0,1,1,0-3.64,7.51,7.51,0,0,0,7.13-5.15,1.82,1.82,0,1,1,3.45,1.15,11.14,11.14,0,0,1-10.58,7.64"/><path class="cls-3" d="M162,5.81a22.26,22.26,0,0,0-1.46,8c0,8.58,4.79,15.93,11.6,19.06a35.84,35.84,0,0,0,.86-7.91A22.12,22.12,0,0,0,162,5.81"/><path class="cls-2" d="M171.35,34.49c-7.7-3.53-12.68-11.65-12.68-20.71a24.05,24.05,0,0,1,1.59-8.63l2.62-.91a24,24,0,0,1,11.9,20.69,37.9,37.9,0,0,1-.9,8.3ZM163,8.65a20.91,20.91,0,0,0-.65,5.13A19.22,19.22,0,0,0,170.77,30a35.7,35.7,0,0,0,.37-5.1A20.42,20.42,0,0,0,163,8.65"/><path class="cls-3" d="M124.28,24.6a30,30,0,0,0,10.74,2c13.68,0,25-9,26.72-20.61a23.8,23.8,0,0,0-13.45-4.13,24,24,0,0,0-24,22.78"/><path class="cls-2" d="M135,28.39a31.85,31.85,0,0,1-11.39-2.09l-1.16-1.79a25.85,25.85,0,0,1,40.3-20.07l.78,1.78c-1.9,12.64-14.16,22.17-28.53,22.17m-8.81-5A28.63,28.63,0,0,0,135,24.74c12.13,0,22.53-7.62,24.72-17.91a22.22,22.22,0,0,0-33.53,16.53"/><path class="cls-2" d="M61.87,91.54H58.23V81.38L40.48,61.51A17.63,17.63,0,0,0,23.67,79.09V85.2H20V79.09A21.27,21.27,0,0,1,41.28,57.85l1.36.61,18.77,21,.46,1.21Z"/><path class="cls-2" d="M69.46,114.79h-18C33.24,114.79,20,102.65,20,85.91V82.25h3.64v3.66c0,14.63,11.67,25.24,27.75,25.24H67.55l-.81-17.39H51.42c-8.56,0-10.35-4.27-10.35-7.85V79.69h3.64v6.22c0,1.37,0,4.21,6.71,4.21H68.48l1.82,1.73,1,21Z"/><path class="cls-2" d="M133.86,92.24h-3.63V80.68l.46-1.21,18.78-21,1.35-.61a21.27,21.27,0,0,1,21.25,21.24v4.22h-3.64V79.09a17.63,17.63,0,0,0-16.8-17.58L133.86,81.37Z"/><path class="cls-2" d="M140.68,114.79h-18l-1.82-1.91,1-21,1.81-1.73h17.06a6.73,6.73,0,0,0,6.72-6.72V79.69H151V83.4a10.37,10.37,0,0,1-10.36,10.36H125.36l-.81,17.39h16.13A27.78,27.78,0,0,0,168.43,83.4V82.25h3.64V83.4a31.43,31.43,0,0,1-31.39,31.39"/><path class="cls-2" d="M188.9,83.86V65.3H198a5.4,5.4,0,0,1,3.89,1.34,4.46,4.46,0,0,1,1.4,3.39,4.35,4.35,0,0,1-.93,2.82,4,4,0,0,1-2.3,1.43,4,4,0,0,1,2.55,1.54,4.72,4.72,0,0,1,1,3,4.91,4.91,0,0,1-1.42,3.64,5.46,5.46,0,0,1-4,1.4ZM192.16,73h5.23a2.66,2.66,0,0,0,1.9-.66,2.5,2.5,0,0,0,0-3.45,2.63,2.63,0,0,0-1.9-.68h-5.23Zm0,8h5.36a2.94,2.94,0,0,0,2.07-.68,2.48,2.48,0,0,0,.74-1.9,2.55,2.55,0,0,0-.74-1.85,2.84,2.84,0,0,0-2.07-.75h-5.36Z"/><path class="cls-2" d="M207.23,76.51V65.3h3.34V76.45A5,5,0,0,0,211.8,80a5.3,5.3,0,0,0,7,0A5,5,0,0,0,220,76.45V65.3h3.34V76.51a7.63,7.63,0,0,1-2,5.62,9.75,9.75,0,0,1-12,0A7.6,7.6,0,0,1,207.23,76.51Z"/><path class="cls-2" d="M226.34,81.26l1.84-2.53a8.77,8.77,0,0,0,2.56,1.87,7.44,7.44,0,0,0,3.31.73,4.33,4.33,0,0,0,2.78-.75,2.3,2.3,0,0,0,.92-1.82,1.76,1.76,0,0,0-.37-1.1,2.75,2.75,0,0,0-1-.76,10,10,0,0,0-1.44-.52c-.54-.16-1.12-.31-1.71-.46s-1.2-.31-1.79-.49a10.92,10.92,0,0,1-1.7-.67,7.3,7.3,0,0,1-1.45-1,3.92,3.92,0,0,1-1-1.41,5.09,5.09,0,0,1,1.5-5.85A7.39,7.39,0,0,1,233.71,65a9.5,9.5,0,0,1,6.93,2.6L238.81,70a6.86,6.86,0,0,0-2.48-1.61,8.09,8.09,0,0,0-2.92-.55,3.64,3.64,0,0,0-2.27.66,2,2,0,0,0-.85,1.66,1.41,1.41,0,0,0,.37,1,2.63,2.63,0,0,0,1,.68,11.92,11.92,0,0,0,1.44.5c.54.16,1.11.31,1.7.46l1.79.5a10,10,0,0,1,1.71.72,7,7,0,0,1,1.44,1,3.89,3.89,0,0,1,1,1.45,5,5,0,0,1,.37,2,5.81,5.81,0,0,1-.27,1.78A4.85,4.85,0,0,1,240,81.8a5.47,5.47,0,0,1-1.4,1.26,6.89,6.89,0,0,1-2,.83,10.5,10.5,0,0,1-2.66.31A10.08,10.08,0,0,1,226.34,81.26Z"/><path class="cls-2" d="M243.53,74.59a10.12,10.12,0,0,1,.75-3.91,8.88,8.88,0,0,1,2.06-3.05,9.43,9.43,0,0,1,3.09-1.94,10.43,10.43,0,0,1,3.84-.7,8.29,8.29,0,0,1,4.45,1.14,8.82,8.82,0,0,1,3,3l-2.76,1.44a5.34,5.34,0,0,0-2-2,5.21,5.21,0,0,0-2.71-.76,6.09,6.09,0,0,0-4.58,1.9,7.33,7.33,0,0,0,0,9.67,6.07,6.07,0,0,0,4.58,1.91,5.17,5.17,0,0,0,2.71-.76,5.55,5.55,0,0,0,2-1.95L260.73,80a8.4,8.4,0,0,1-7.46,4.19,10.44,10.44,0,0,1-3.84-.71,9.45,9.45,0,0,1-3.09-1.95,8.79,8.79,0,0,1-2.06-3.05A10,10,0,0,1,243.53,74.59Z"/><path class="cls-2" d="M261.66,83.86,269,65.3H273l7.28,18.56h-3.7l-1.36-3.59h-8.52l-1.37,3.59Zm6-6.45h6.69L271,68.56Z"/><path class="cls-2" d="M282.57,83.86V65.3h8.15a6.12,6.12,0,0,1,4.43,1.62,5.57,5.57,0,0,1,1.67,4.2,6,6,0,0,1-.37,2.17,4.84,4.84,0,0,1-1,1.65A5.77,5.77,0,0,1,294,76a5.08,5.08,0,0,1-1.65.54l4.57,7.3h-3.78l-4.09-6.93h-3.26v6.93Zm3.26-9.8h4.48a3.25,3.25,0,0,0,2.28-.81,2.82,2.82,0,0,0,.89-2.16A2.71,2.71,0,0,0,292.6,69a3.25,3.25,0,0,0-2.29-.81h-4.48Z"/><path class="cls-2" d="M300.28,83.44a1.85,1.85,0,0,1-.42-1.25,1.88,1.88,0,0,1,.5-1.31,1.55,1.55,0,0,1,1.2-.55,1.76,1.76,0,0,1,1.38.66,2.8,2.8,0,0,1,.56,1.83,5.64,5.64,0,0,1-.64,2.63,6.13,6.13,0,0,1-1.7,2.1L300,86.48a4.55,4.55,0,0,0,1.16-1.16,3.61,3.61,0,0,0,.64-1.46,1,1,0,0,1-.43.08A1.33,1.33,0,0,1,300.28,83.44Z"/><path class="cls-2" d="M314.88,83.86V65.3h12.71v2.86h-9.45V73h9.26v2.86h-9.26V81h9.45v2.87Z"/><path class="cls-2" d="M330,81.26l1.85-2.53a8.77,8.77,0,0,0,2.56,1.87,7.44,7.44,0,0,0,3.31.73,4.33,4.33,0,0,0,2.78-.75,2.3,2.3,0,0,0,.92-1.82,1.76,1.76,0,0,0-.37-1.1,2.67,2.67,0,0,0-1-.76,10,10,0,0,0-1.44-.52c-.54-.16-1.12-.31-1.71-.46s-1.19-.31-1.79-.49a10.92,10.92,0,0,1-1.7-.67,6.94,6.94,0,0,1-1.44-1,4,4,0,0,1-1-1.41,5.06,5.06,0,0,1-.36-2,4.84,4.84,0,0,1,1.87-3.9A7.39,7.39,0,0,1,337.38,65a9.5,9.5,0,0,1,6.93,2.6L342.48,70A6.86,6.86,0,0,0,340,68.4a8.09,8.09,0,0,0-2.92-.55,3.59,3.59,0,0,0-2.26.66,2,2,0,0,0-.86,1.66,1.45,1.45,0,0,0,.36,1,2.76,2.76,0,0,0,1,.68,11.92,11.92,0,0,0,1.44.5c.54.16,1.11.31,1.7.46l1.79.5A10,10,0,0,1,342,74a7.26,7.26,0,0,1,1.44,1,3.89,3.89,0,0,1,1,1.45,5,5,0,0,1,.37,2,6.13,6.13,0,0,1-.26,1.78,5.09,5.09,0,0,1-.84,1.57,5.64,5.64,0,0,1-1.4,1.26,6.89,6.89,0,0,1-2,.83,10.5,10.5,0,0,1-2.66.31A10.12,10.12,0,0,1,330,81.26Z"/><path class="cls-2" d="M354.25,68.16V65.3h14.5v2.86h-5.61v15.7h-3.26V68.16Z"/><path class="cls-2" d="M371.77,76.51V65.3h3.34V76.45A5.06,5.06,0,0,0,376.34,80a5.32,5.32,0,0,0,7,0,5.06,5.06,0,0,0,1.23-3.57V65.3h3.34V76.51a7.67,7.67,0,0,1-2,5.62,9.75,9.75,0,0,1-12,0A7.6,7.6,0,0,1,371.77,76.51Z"/><path class="cls-2" d="M390.16,65.3h3.74L399,73.23l5.1-7.93h3.74l-7.19,10.86v7.7h-3.26v-7.7Z"/><path class="cls-2" d="M410.47,79.54a10.71,10.71,0,0,1,0-9.89,8.75,8.75,0,0,1,3.37-3.43A9.75,9.75,0,0,1,418.75,65a10,10,0,0,1,3.82.72,8.84,8.84,0,0,1,5,5,10.74,10.74,0,0,1,0,7.68,8.77,8.77,0,0,1-5,5,10.39,10.39,0,0,1-8.73-.5A8.75,8.75,0,0,1,410.47,79.54Zm2.14-5a7,7,0,0,0,1.68,4.83,6.15,6.15,0,0,0,8.91,0,7.68,7.68,0,0,0,0-9.66,6.16,6.16,0,0,0-8.91,0A7,7,0,0,0,412.61,74.59Z"/><path class="cls-2" d="M431.13,82.31a1.85,1.85,0,0,1,.49-1.26,1.67,1.67,0,0,1,1.28-.53,1.85,1.85,0,0,1,1.33.53,1.73,1.73,0,0,1,.54,1.26,1.74,1.74,0,0,1-.54,1.29,1.85,1.85,0,0,1-1.33.53,1.67,1.67,0,0,1-1.28-.53A1.87,1.87,0,0,1,431.13,82.31Zm.14-17h3.34l-.46,13.07h-2.53Z"/><path class="cls-2" d="M188.9,54.44l1.84-2.54a8.4,8.4,0,0,0,2.56,1.86,7.31,7.31,0,0,0,3.31.74,4.27,4.27,0,0,0,2.78-.76,2.29,2.29,0,0,0,.92-1.82,1.75,1.75,0,0,0-.37-1.09,2.73,2.73,0,0,0-1-.75,9.93,9.93,0,0,0-1.44-.53c-.54-.15-1.11-.31-1.71-.45L194,48.61a12.05,12.05,0,0,1-1.7-.68,6.23,6.23,0,0,1-1.44-1,3.82,3.82,0,0,1-1-1.41,4.89,4.89,0,0,1-.37-2,4.83,4.83,0,0,1,1.87-3.89,7.39,7.39,0,0,1,4.89-1.55,9.51,9.51,0,0,1,6.93,2.6l-1.83,2.42a7,7,0,0,0-2.48-1.61A8.08,8.08,0,0,0,196,41a3.65,3.65,0,0,0-2.26.64,2,2,0,0,0-.86,1.67,1.41,1.41,0,0,0,.37,1,2.53,2.53,0,0,0,1,.68,11.92,11.92,0,0,0,1.44.5l1.7.47c.6.15,1.19.32,1.79.5a9.19,9.19,0,0,1,1.71.71,7.26,7.26,0,0,1,1.44,1,3.89,3.89,0,0,1,1,1.45,5,5,0,0,1,.37,2,6.11,6.11,0,0,1-.26,1.77,5.09,5.09,0,0,1-.84,1.57,5.47,5.47,0,0,1-1.4,1.26,6.63,6.63,0,0,1-2,.83,10.51,10.51,0,0,1-2.66.3A10.1,10.1,0,0,1,188.9,54.44Z"/><path class="cls-2" d="M206.89,57V38.47h3.26V57Z"/><path class="cls-2" d="M221.6,57V38.47h3.26V54.16H233V57Z"/><path class="cls-2" d="M236.57,52.71a10.79,10.79,0,0,1,0-9.89,8.75,8.75,0,0,1,3.37-3.43,9.75,9.75,0,0,1,4.91-1.23,10,10,0,0,1,3.82.72,9.05,9.05,0,0,1,3,2,9.23,9.23,0,0,1,1.95,3,10.74,10.74,0,0,1,0,7.68,9.07,9.07,0,0,1-1.95,3,9.21,9.21,0,0,1-3,2,10,10,0,0,1-3.82.71,9.65,9.65,0,0,1-4.91-1.23A8.66,8.66,0,0,1,236.57,52.71Zm2.14-5a7,7,0,0,0,1.69,4.83,6.15,6.15,0,0,0,8.91,0,7,7,0,0,0,1.7-4.83,7,7,0,0,0-1.7-4.83,6.18,6.18,0,0,0-8.91,0A7,7,0,0,0,238.71,47.76Z"/><path class="cls-2" d="M263.26,38.47H267l5.63,15,5.62-15h3.7L274.62,57h-4.07Z"/><path class="cls-2" d="M284.17,57V38.47h12.72v2.87h-9.46v4.78h9.27V49h-9.27v5.17h9.46V57Z"/><path class="cls-2" d="M300.49,57V38.47h3.34l9.5,12.85V38.47h3.26V57h-3.15l-9.69-13.27V57Z"/><path class="cls-2" d="M320.42,36.78l3.88-4h2.79l-4.6,4ZM320.79,57V38.47h3.26V57Z"/><path class="cls-2" d="M327.08,54.44l1.85-2.54a8.24,8.24,0,0,0,2.55,1.86,7.34,7.34,0,0,0,3.31.74,4.25,4.25,0,0,0,2.78-.76,2.29,2.29,0,0,0,.92-1.82,1.69,1.69,0,0,0-.37-1.09,2.65,2.65,0,0,0-1-.75,9.93,9.93,0,0,0-1.44-.53c-.54-.15-1.11-.31-1.71-.45l-1.79-.49a12.05,12.05,0,0,1-1.7-.68A6.52,6.52,0,0,1,329,47a4.07,4.07,0,0,1-1-1.41,5.07,5.07,0,0,1-.36-2,4.83,4.83,0,0,1,1.87-3.89,7.42,7.42,0,0,1,4.9-1.55,9.49,9.49,0,0,1,6.92,2.6l-1.83,2.42a6.9,6.9,0,0,0-2.48-1.61,8.08,8.08,0,0,0-2.92-.54,3.63,3.63,0,0,0-2.26.64,2,2,0,0,0-.86,1.67,1.41,1.41,0,0,0,.37,1,2.53,2.53,0,0,0,1,.68,12.56,12.56,0,0,0,1.44.5l1.7.47c.6.15,1.19.32,1.79.5a9.19,9.19,0,0,1,1.71.71,6.72,6.72,0,0,1,1.44,1,3.89,3.89,0,0,1,1,1.45,5,5,0,0,1,.37,2,5.79,5.79,0,0,1-.26,1.77,5.09,5.09,0,0,1-.84,1.57,5.31,5.31,0,0,1-1.4,1.26,6.63,6.63,0,0,1-2,.83,10.51,10.51,0,0,1-2.66.3A10.1,10.1,0,0,1,327.08,54.44Z"/><path class="cls-2" d="M350.6,57l7.3-18.56H362L369.25,57h-3.7l-1.36-3.59h-8.51L354.3,57Zm6-6.45h6.69l-3.34-8.85Z"/></svg>