<?xml version="1.0" encoding="utf-8"?>
<!-- Generator: Adobe Illustrator 16.0.0, SVG Export Plug-In . SVG Version: 6.00 Build 0)  -->
<!DOCTYPE svg PUBLIC "-//W3C//DTD SVG 1.1//EN" "http://www.w3.org/Graphics/SVG/1.1/DTD/svg11.dtd">
<svg version="1.1" id="Layer_1" xmlns="http://www.w3.org/2000/svg" xmlns:xlink="http://www.w3.org/1999/xlink" x="0px" y="0px"
	 width="93.543px" height="93.543px" viewBox="0 0 93.543 93.543" enable-background="new 0 0 93.543 93.543" xml:space="preserve">
<g>
	<path fill="#7DEEAC" d="M92.23,46.771c0,25.107-20.352,45.46-45.459,45.46c-25.105,0-45.458-20.353-45.458-45.46
		c0-25.106,20.353-45.46,45.458-45.46C71.879,1.312,92.23,21.666,92.23,46.771"/>
	<path fill="#FFFFFF" d="M72.238,69.158l-3.318-9.85c2.018-3.64,3.176-7.831,3.176-12.289c0-14.029-11.371-25.395-25.4-25.395
		c-14.022,0-25.39,11.365-25.39,25.395c0,14.025,11.367,25.393,25.39,25.393c6.048,0,11.597-2.123,15.96-5.651L72.238,69.158z"/>
	<path fill="#33363F" d="M46.696,74.218C31.7,74.218,19.5,62.017,19.5,47.02c0-14.999,12.2-27.201,27.196-27.201
		c15.001,0,27.206,12.202,27.206,27.201c0,4.327-1.042,8.614-3.021,12.452l3.069,9.11c0.21,0.626,0.062,1.316-0.385,1.802
		c-0.448,0.485-1.122,0.689-1.766,0.527l-8.727-2.183C58.368,72.274,52.589,74.218,46.696,74.218z M46.696,23.431
		c-13.004,0-23.583,10.582-23.583,23.588c0,13.006,10.58,23.586,23.583,23.586c5.451,0,10.578-1.815,14.825-5.249
		c0.441-0.357,1.021-0.485,1.574-0.348l6.378,1.595l-2.265-6.72c-0.162-0.481-0.113-1.008,0.132-1.452
		c1.93-3.481,2.95-7.428,2.95-11.413C70.29,34.013,59.705,23.431,46.696,23.431z"/>
	<path fill="#33363F" d="M54.568,41.917c0,1.027-0.189,1.938-0.566,2.736c-0.379,0.796-0.85,1.573-1.42,2.328l-3,3.971
		c-0.214,0.269-0.39,0.594-0.524,0.972c-0.133,0.379-0.201,0.743-0.201,1.093v0.851h-5.268v-1.214c0-0.865,0.121-1.607,0.363-2.23
		c0.245-0.621,0.634-1.281,1.176-1.984l2.996-3.848c0.325-0.433,0.604-0.879,0.834-1.338c0.229-0.459,0.343-0.918,0.343-1.378
		c0-0.944-0.292-1.734-0.868-2.37c-0.582-0.634-1.384-0.951-2.412-0.951c-1.082,0-1.893,0.324-2.432,0.972
		c-0.54,0.647-0.811,1.446-0.811,2.39h-5.268c0-1.242,0.225-2.37,0.672-3.383c0.443-1.013,1.051-1.864,1.819-2.551
		c0.771-0.69,1.671-1.223,2.695-1.602c1.026-0.377,2.137-0.566,3.323-0.566c1.135,0,2.219,0.181,3.258,0.548
		c1.041,0.363,1.953,0.889,2.738,1.579c0.78,0.688,1.401,1.532,1.862,2.531C54.336,39.473,54.568,40.62,54.568,41.917
		 M43.609,56.463h5.226v5.035h-5.226V56.463z"/>
</g>
</svg>
