<?xml version="1.0" encoding="utf-8"?>
<!-- Generator: Adobe Illustrator 16.0.0, SVG Export Plug-In . SVG Version: 6.00 Build 0)  -->
<!DOCTYPE svg PUBLIC "-//W3C//DTD SVG 1.1//EN" "http://www.w3.org/Graphics/SVG/1.1/DTD/svg11.dtd">
<svg version="1.1" id="Layer_1" xmlns="http://www.w3.org/2000/svg" xmlns:xlink="http://www.w3.org/1999/xlink" x="0px" y="0px"
	 width="10px" height="6px" viewBox="0 0 10 6" enable-background="new 0 0 10 6" xml:space="preserve">
<path fill-rule="evenodd" clip-rule="evenodd" fill="#59BB66" d="M4.988,4.033c0.557-0.558,1.084-1.086,1.611-1.613
	C7.228,1.79,7.858,1.16,8.488,0.531C8.69,0.328,8.821,0.327,9.026,0.527c0.107,0.104,0.212,0.21,0.317,0.316
	c0.21,0.214,0.209,0.347-0.005,0.563C9.135,1.612,8.93,1.815,8.726,2.02c-1.133,1.133-2.267,2.267-3.4,3.399
	C5.282,5.463,5.237,5.507,5.188,5.545C5.049,5.652,4.926,5.646,4.798,5.532C4.773,5.51,4.75,5.485,4.727,5.461
	C3.372,4.107,2.018,2.752,0.663,1.398C0.445,1.18,0.445,1.065,0.667,0.844c0.119-0.119,0.236-0.24,0.358-0.357
	C1.17,0.346,1.301,0.342,1.458,0.472c0.041,0.033,0.078,0.072,0.115,0.109c1.1,1.099,2.199,2.198,3.297,3.298
	C4.911,3.92,4.94,3.971,4.988,4.033z"/>
</svg>
