<?xml version="1.0" encoding="utf-8"?>
<!-- Generator: Adobe Illustrator 16.0.0, SVG Export Plug-In . SVG Version: 6.00 Build 0)  -->
<!DOCTYPE svg PUBLIC "-//W3C//DTD SVG 1.1//EN" "http://www.w3.org/Graphics/SVG/1.1/DTD/svg11.dtd">
<svg version="1.1" id="Layer_1" xmlns="http://www.w3.org/2000/svg" xmlns:xlink="http://www.w3.org/1999/xlink" x="0px" y="0px"
	 width="90.92px" height="91px" viewBox="0 0 90.92 91" enable-background="new 0 0 90.92 91" xml:space="preserve">
<g>
	<g>
		<path fill="#7DEEAC" d="M90.92,45.501c0,25.107-20.354,45.459-45.459,45.459C20.353,90.96,0,70.608,0,45.501
			S20.353,0.04,45.461,0.04C70.566,0.04,90.92,20.394,90.92,45.501"/>
		<path fill="#FFFFFF" d="M21.377,66.981c-5.512,0-7.639-3.829-4.727-8.509l23.514-37.789c2.912-4.68,7.678-4.68,10.59,0
			L74.27,58.473c2.912,4.68,0.785,8.509-4.727,8.509H21.377z"/>
		<polygon fill="#33363F" points="42.699,36.173 42.699,35.554 48.215,35.554 48.215,36.173 46.762,49.876 44.158,49.876 		"/>
		
			<rect x="43.412" y="53.847" fill="none" stroke="#33363F" stroke-width="1.092" stroke-linejoin="round" stroke-miterlimit="10" width="4.092" height="4.037"/>
	</g>
	<rect x="43.412" y="53.847" fill="#33363F" width="4.092" height="4.037"/>
	<g>
		
			<path fill="none" stroke="#33363F" stroke-width="3.612" stroke-linecap="round" stroke-linejoin="round" stroke-miterlimit="10" d="
			M21.377,66.981c-5.512,0-7.639-3.829-4.727-8.509l23.514-37.789c2.912-4.68,7.678-4.68,10.59,0L74.27,58.473
			c2.912,4.68,0.785,8.509-4.727,8.509H21.377z"/>
	</g>
</g>
</svg>
