<?xml version="1.0" encoding="utf-8"?>
<!-- Generator: Adobe Illustrator 16.0.0, SVG Export Plug-In . SVG Version: 6.00 Build 0)  -->
<!DOCTYPE svg PUBLIC "-//W3C//DTD SVG 1.1//EN" "http://www.w3.org/Graphics/SVG/1.1/DTD/svg11.dtd">
<svg version="1.1" xmlns="http://www.w3.org/2000/svg" xmlns:xlink="http://www.w3.org/1999/xlink" x="0px" y="0px" width="266px"
	 height="18px" viewBox="0 0 266 18" enable-background="new 0 0 266 18" xml:space="preserve">
<g id="Capa_3">
</g>
<g id="Capa_1">
	<g>
		<g>
			<path fill="#33363F" d="M1.274,13.422l1.062-1.459c0.401,0.435,0.891,0.792,1.469,1.074s1.213,0.424,1.906,0.424
				c0.713,0,1.246-0.146,1.598-0.436s0.527-0.64,0.527-1.047c0-0.241-0.07-0.45-0.211-0.628s-0.331-0.322-0.57-0.436
				c-0.24-0.111-0.516-0.213-0.828-0.302s-0.641-0.177-0.984-0.263s-0.687-0.18-1.027-0.282c-0.341-0.103-0.668-0.231-0.98-0.388
				C2.922,9.523,2.646,9.339,2.407,9.127c-0.24-0.212-0.43-0.482-0.57-0.812c-0.141-0.33-0.211-0.703-0.211-1.122
				c0-0.897,0.359-1.645,1.078-2.239C3.422,4.36,4.36,4.062,5.516,4.062c1.635,0,2.963,0.498,3.984,1.493L8.446,6.95
				C8.034,6.537,7.559,6.228,7.02,6.021c-0.539-0.206-1.098-0.31-1.676-0.31c-0.542,0-0.977,0.124-1.305,0.372
				C3.711,6.332,3.547,6.652,3.547,7.044c0,0.215,0.07,0.402,0.211,0.562s0.331,0.29,0.57,0.392C4.568,8.1,4.844,8.194,5.157,8.284
				c0.312,0.088,0.639,0.178,0.98,0.267c0.341,0.089,0.684,0.186,1.027,0.29s0.672,0.24,0.984,0.408
				c0.312,0.167,0.588,0.36,0.828,0.58c0.239,0.22,0.43,0.498,0.57,0.836c0.141,0.337,0.211,0.717,0.211,1.141
				c0,0.358-0.051,0.699-0.152,1.021c-0.102,0.321-0.262,0.623-0.48,0.903s-0.487,0.522-0.805,0.725
				c-0.318,0.202-0.707,0.362-1.168,0.479c-0.461,0.116-0.97,0.175-1.527,0.175C3.823,15.109,2.373,14.547,1.274,13.422z"/>
			<path fill="#33363F" d="M11.622,14.914V4.242h1.875v10.672H11.622z"/>
			<path fill="#33363F" d="M20.082,14.914V4.242h1.875v9.023h4.703v1.648H20.082z"/>
			<path fill="#33363F" d="M28.691,12.431C28.23,11.591,28,10.643,28,9.586c0-1.056,0.23-2.005,0.691-2.845s1.106-1.496,1.938-1.969
				c0.831-0.473,1.772-0.71,2.824-0.71c0.786,0,1.518,0.14,2.195,0.417c0.677,0.279,1.255,0.661,1.734,1.147
				c0.479,0.487,0.854,1.071,1.125,1.752c0.271,0.682,0.406,1.417,0.406,2.207s-0.136,1.525-0.406,2.207
				c-0.271,0.682-0.646,1.266-1.125,1.752c-0.479,0.486-1.058,0.868-1.734,1.147c-0.677,0.277-1.409,0.417-2.195,0.417
				c-1.052,0-1.994-0.236-2.824-0.71C29.798,13.927,29.152,13.271,28.691,12.431z M29.922,9.586c0,1.119,0.323,2.045,0.969,2.776
				c0.646,0.732,1.5,1.099,2.562,1.099c1.057,0,1.911-0.366,2.562-1.099c0.651-0.731,0.977-1.657,0.977-2.776
				c0-1.124-0.326-2.052-0.977-2.78c-0.651-0.73-1.505-1.095-2.562-1.095c-1.062,0-1.917,0.363-2.562,1.091
				C30.245,7.528,29.922,8.456,29.922,9.586z"/>
			<path fill="#33363F" d="M44.039,4.242h2.125l3.234,8.625l3.234-8.625h2.125L50.57,14.914h-2.336L44.039,4.242z"/>
			<path fill="#33363F" d="M56.066,14.914V4.242h7.312v1.648h-5.438v2.75h5.328v1.648h-5.328v2.977h5.438v1.648H56.066z"/>
			<path fill="#33363F" d="M65.452,14.914V4.242h1.922l5.461,7.391V4.242h1.875v10.672h-1.812l-5.57-7.633v7.633H65.452z"/>
			<path fill="#33363F" d="M76.909,3.266l2.234-2.305h1.602l-2.641,2.305H76.909z M77.128,14.914V4.242h1.875v10.672H77.128z"/>
			<path fill="#33363F" d="M80.741,13.422l1.062-1.459c0.401,0.435,0.891,0.792,1.469,1.074s1.213,0.424,1.906,0.424
				c0.713,0,1.246-0.146,1.598-0.436s0.527-0.64,0.527-1.047c0-0.241-0.07-0.45-0.211-0.628s-0.331-0.322-0.57-0.436
				c-0.24-0.111-0.516-0.213-0.828-0.302s-0.641-0.177-0.984-0.263s-0.687-0.18-1.027-0.282c-0.341-0.103-0.668-0.231-0.98-0.388
				c-0.312-0.157-0.589-0.342-0.828-0.554c-0.24-0.212-0.43-0.482-0.57-0.812c-0.141-0.33-0.211-0.703-0.211-1.122
				c0-0.897,0.359-1.645,1.078-2.239c0.719-0.594,1.656-0.892,2.812-0.892c1.635,0,2.963,0.498,3.984,1.493L87.913,6.95
				c-0.412-0.413-0.887-0.723-1.426-0.93c-0.539-0.206-1.098-0.31-1.676-0.31c-0.542,0-0.977,0.124-1.305,0.372
				c-0.328,0.249-0.492,0.569-0.492,0.961c0,0.215,0.07,0.402,0.211,0.562s0.331,0.29,0.57,0.392
				c0.239,0.103,0.516,0.197,0.828,0.287c0.312,0.088,0.639,0.178,0.98,0.267c0.341,0.089,0.684,0.186,1.027,0.29
				s0.672,0.24,0.984,0.408c0.312,0.167,0.588,0.36,0.828,0.58c0.239,0.22,0.43,0.498,0.57,0.836
				c0.141,0.337,0.211,0.717,0.211,1.141c0,0.358-0.051,0.699-0.152,1.021c-0.102,0.321-0.262,0.623-0.48,0.903
				s-0.487,0.522-0.805,0.725c-0.318,0.202-0.707,0.362-1.168,0.479c-0.461,0.116-0.97,0.175-1.527,0.175
				C83.291,15.109,81.84,14.547,80.741,13.422z"/>
			<path fill="#33363F" d="M94.272,14.914l4.195-10.672h2.336l4.188,10.672h-2.125l-0.781-2.062h-4.898l-0.789,2.062H94.272z
				 M97.709,11.203h3.844l-1.922-5.086L97.709,11.203z"/>
			<path fill="#33363F" d="M110.584,14.914V4.242h5.255c0.954,0,1.7,0.257,2.236,0.77c0.537,0.513,0.806,1.163,0.806,1.949
				c0,0.641-0.179,1.181-0.538,1.621c-0.358,0.44-0.799,0.715-1.322,0.824c0.578,0.089,1.066,0.384,1.465,0.887
				s0.598,1.077,0.598,1.723c0,0.859-0.272,1.558-0.816,2.094c-0.544,0.536-1.306,0.805-2.285,0.805H110.584z M112.459,8.641h3.008
				c0.463,0,0.828-0.126,1.094-0.379s0.398-0.585,0.398-0.996c0-0.401-0.133-0.73-0.398-0.988s-0.63-0.387-1.094-0.387h-3.008V8.641
				z M112.459,13.266h3.086c0.505,0,0.901-0.132,1.188-0.395c0.286-0.263,0.43-0.626,0.43-1.09c0-0.422-0.144-0.776-0.43-1.062
				c-0.287-0.286-0.683-0.43-1.188-0.43h-3.086V13.266z"/>
			<path fill="#33363F" d="M121.127,10.688V4.242h1.922v6.409c0,0.866,0.235,1.551,0.706,2.055c0.471,0.503,1.14,0.755,2.009,0.755
				s1.538-0.252,2.009-0.755c0.471-0.504,0.706-1.188,0.706-2.055V4.242h1.922v6.445c0,1.359-0.395,2.437-1.183,3.23
				c-0.789,0.794-1.94,1.191-3.454,1.191c-1.509,0-2.659-0.397-3.45-1.191S121.127,12.047,121.127,10.688z"/>
			<path fill="#33363F" d="M132.115,13.422l1.062-1.459c0.401,0.435,0.891,0.792,1.469,1.074s1.213,0.424,1.906,0.424
				c0.713,0,1.246-0.146,1.598-0.436s0.527-0.64,0.527-1.047c0-0.241-0.07-0.45-0.211-0.628s-0.331-0.322-0.57-0.436
				c-0.24-0.111-0.516-0.213-0.828-0.302s-0.641-0.177-0.984-0.263s-0.687-0.18-1.027-0.282c-0.341-0.103-0.668-0.231-0.98-0.388
				c-0.312-0.157-0.589-0.342-0.828-0.554c-0.24-0.212-0.43-0.482-0.57-0.812c-0.141-0.33-0.211-0.703-0.211-1.122
				c0-0.897,0.359-1.645,1.078-2.239c0.719-0.594,1.656-0.892,2.812-0.892c1.635,0,2.963,0.498,3.984,1.493l-1.055,1.395
				c-0.412-0.413-0.887-0.723-1.426-0.93c-0.539-0.206-1.098-0.31-1.676-0.31c-0.542,0-0.977,0.124-1.305,0.372
				c-0.328,0.249-0.492,0.569-0.492,0.961c0,0.215,0.07,0.402,0.211,0.562s0.331,0.29,0.57,0.392
				c0.239,0.103,0.516,0.197,0.828,0.287c0.312,0.088,0.639,0.178,0.98,0.267c0.341,0.089,0.684,0.186,1.027,0.29
				s0.672,0.24,0.984,0.408c0.312,0.167,0.588,0.36,0.828,0.58c0.239,0.22,0.43,0.498,0.57,0.836
				c0.141,0.337,0.211,0.717,0.211,1.141c0,0.358-0.051,0.699-0.152,1.021c-0.102,0.321-0.262,0.623-0.48,0.903
				s-0.487,0.522-0.805,0.725c-0.318,0.202-0.707,0.362-1.168,0.479c-0.461,0.116-0.97,0.175-1.527,0.175
				C134.665,15.109,133.214,14.547,132.115,13.422z"/>
			<path fill="#33363F" d="M142.002,9.586c0-0.808,0.145-1.558,0.434-2.25s0.684-1.277,1.184-1.754s1.094-0.849,1.781-1.117
				s1.422-0.402,2.203-0.402c1,0,1.854,0.219,2.562,0.657c0.708,0.438,1.278,1.011,1.711,1.721l-1.586,0.832
				c-0.266-0.461-0.641-0.836-1.125-1.126s-1.005-0.436-1.562-0.436c-1.058,0-1.935,0.363-2.633,1.091
				c-0.698,0.727-1.047,1.654-1.047,2.784c0,1.114,0.349,2.038,1.047,2.772c0.698,0.735,1.575,1.103,2.633,1.103
				c0.552,0,1.071-0.146,1.559-0.439c0.487-0.292,0.863-0.667,1.129-1.122l1.602,0.801c-1.026,1.605-2.456,2.409-4.289,2.409
				c-0.781,0-1.516-0.136-2.203-0.406s-1.281-0.645-1.781-1.121s-0.895-1.062-1.184-1.754S142.002,10.388,142.002,9.586z"/>
			<path fill="#33363F" d="M152.427,14.914l4.195-10.672h2.336l4.188,10.672h-2.125l-0.781-2.062h-4.898l-0.789,2.062H152.427z
				 M155.865,11.203h3.844l-1.922-5.086L155.865,11.203z"/>
			<path fill="#33363F" d="M164.455,14.914V4.242h4.688c1.052,0,1.899,0.309,2.543,0.926c0.643,0.617,0.965,1.423,0.965,2.418
				c0,0.458-0.072,0.876-0.215,1.254c-0.144,0.378-0.336,0.692-0.578,0.945s-0.512,0.458-0.809,0.617s-0.612,0.265-0.945,0.316
				l2.625,4.195h-2.172l-2.352-3.984h-1.875v3.984H164.455z M166.33,9.281h2.578c0.531,0,0.967-0.156,1.309-0.469
				c0.341-0.312,0.512-0.727,0.512-1.242c0-0.505-0.169-0.911-0.508-1.219c-0.339-0.308-0.776-0.461-1.312-0.461h-2.578V9.281z"/>
			<path fill="#33363F" d="M174.639,14.677c-0.162-0.19-0.243-0.432-0.243-0.725c0-0.292,0.095-0.543,0.286-0.754
				c0.19-0.21,0.421-0.315,0.694-0.315c0.31,0,0.573,0.128,0.79,0.385c0.216,0.257,0.324,0.605,0.324,1.047
				c0,0.53-0.122,1.036-0.367,1.518c-0.244,0.481-0.571,0.884-0.98,1.207l-0.69-0.617c0.239-0.156,0.461-0.38,0.666-0.672
				c0.204-0.292,0.328-0.57,0.37-0.836c-0.057,0.031-0.139,0.047-0.247,0.047C175.002,14.961,174.801,14.866,174.639,14.677z"/>
			<path fill="#33363F" d="M183.036,14.914V4.242h7.312v1.648h-5.438v2.75h5.328v1.648h-5.328v2.977h5.438v1.648H183.036z"/>
			<path fill="#33363F" d="M191.735,13.422l1.062-1.459c0.401,0.435,0.891,0.792,1.469,1.074s1.213,0.424,1.906,0.424
				c0.713,0,1.246-0.146,1.598-0.436s0.527-0.64,0.527-1.047c0-0.241-0.07-0.45-0.211-0.628s-0.331-0.322-0.57-0.436
				c-0.24-0.111-0.516-0.213-0.828-0.302s-0.641-0.177-0.984-0.263s-0.687-0.18-1.027-0.282c-0.341-0.103-0.668-0.231-0.98-0.388
				c-0.312-0.157-0.589-0.342-0.828-0.554c-0.24-0.212-0.43-0.482-0.57-0.812c-0.141-0.33-0.211-0.703-0.211-1.122
				c0-0.897,0.359-1.645,1.078-2.239c0.719-0.594,1.656-0.892,2.812-0.892c1.635,0,2.963,0.498,3.984,1.493l-1.055,1.395
				c-0.412-0.413-0.887-0.723-1.426-0.93c-0.539-0.206-1.098-0.31-1.676-0.31c-0.542,0-0.977,0.124-1.305,0.372
				c-0.328,0.249-0.492,0.569-0.492,0.961c0,0.215,0.07,0.402,0.211,0.562s0.331,0.29,0.57,0.392
				c0.239,0.103,0.516,0.197,0.828,0.287c0.312,0.088,0.639,0.178,0.98,0.267c0.341,0.089,0.684,0.186,1.027,0.29
				s0.672,0.24,0.984,0.408c0.312,0.167,0.588,0.36,0.828,0.58c0.239,0.22,0.43,0.498,0.57,0.836
				c0.141,0.337,0.211,0.717,0.211,1.141c0,0.358-0.051,0.699-0.152,1.021c-0.102,0.321-0.262,0.623-0.48,0.903
				s-0.487,0.522-0.805,0.725c-0.318,0.202-0.707,0.362-1.168,0.479c-0.461,0.116-0.97,0.175-1.527,0.175
				C194.285,15.109,192.834,14.547,191.735,13.422z"/>
			<path fill="#33363F" d="M205.68,5.891V4.242h8.336v1.648h-3.227v9.023h-1.875V5.891H205.68z"/>
			<path fill="#33363F" d="M215.754,10.688V4.242h1.922v6.409c0,0.866,0.235,1.551,0.706,2.055c0.471,0.503,1.14,0.755,2.009,0.755
				s1.538-0.252,2.009-0.755c0.471-0.504,0.706-1.188,0.706-2.055V4.242h1.922v6.445c0,1.359-0.395,2.437-1.183,3.23
				c-0.789,0.794-1.94,1.191-3.454,1.191c-1.509,0-2.659-0.397-3.45-1.191S215.754,12.047,215.754,10.688z"/>
			<path fill="#33363F" d="M226.328,4.242h2.148l2.926,4.562l2.934-4.562h2.148l-4.133,6.242v4.43h-1.875v-4.43L226.328,4.242z"/>
			<path fill="#33363F" d="M238.008,12.431c-0.461-0.84-0.691-1.788-0.691-2.845c0-1.056,0.23-2.005,0.691-2.845
				s1.106-1.496,1.938-1.969c0.831-0.473,1.772-0.71,2.824-0.71c0.786,0,1.518,0.14,2.195,0.417
				c0.677,0.279,1.255,0.661,1.734,1.147c0.479,0.487,0.854,1.071,1.125,1.752c0.271,0.682,0.406,1.417,0.406,2.207
				s-0.136,1.525-0.406,2.207c-0.271,0.682-0.646,1.266-1.125,1.752c-0.479,0.486-1.058,0.868-1.734,1.147
				c-0.677,0.277-1.409,0.417-2.195,0.417c-1.052,0-1.994-0.236-2.824-0.71C239.114,13.927,238.469,13.271,238.008,12.431z
				 M239.238,9.586c0,1.119,0.323,2.045,0.969,2.776c0.646,0.732,1.5,1.099,2.562,1.099c1.057,0,1.911-0.366,2.562-1.099
				c0.651-0.731,0.977-1.657,0.977-2.776c0-1.124-0.326-2.052-0.977-2.78c-0.651-0.73-1.505-1.095-2.562-1.095
				c-1.062,0-1.917,0.363-2.562,1.091C239.561,7.528,239.238,8.456,239.238,9.586z"/>
			<path fill="#33363F" d="M249.891,14.024c0-0.278,0.094-0.52,0.281-0.725s0.432-0.308,0.734-0.308
				c0.302,0,0.557,0.103,0.766,0.308c0.208,0.205,0.312,0.446,0.312,0.725c0,0.287-0.104,0.533-0.312,0.738
				c-0.208,0.205-0.464,0.308-0.766,0.308c-0.302,0-0.547-0.103-0.734-0.308S249.891,14.312,249.891,14.024z M249.969,4.242h1.922
				l-0.266,7.511h-1.453L249.969,4.242z"/>
			<path fill="#33363F" d="M257.945,7.477c0-0.942,0.331-1.743,0.992-2.402c0.661-0.659,1.461-0.988,2.398-0.988
				c0.62,0,1.19,0.149,1.711,0.449c0.521,0.3,0.931,0.71,1.23,1.23c0.299,0.521,0.449,1.091,0.449,1.711
				c0,0.938-0.33,1.737-0.988,2.398c-0.659,0.661-1.46,0.992-2.402,0.992c-0.938,0-1.737-0.331-2.398-0.992
				C258.275,9.214,257.945,8.414,257.945,7.477z M258.437,7.477c0,0.792,0.282,1.472,0.848,2.039
				c0.565,0.567,1.249,0.852,2.051,0.852c0.807,0,1.495-0.282,2.062-0.848c0.567-0.565,0.852-1.246,0.852-2.043
				c0-0.812-0.283-1.501-0.848-2.066c-0.565-0.565-1.254-0.848-2.066-0.848c-0.802,0-1.486,0.282-2.051,0.848
				C258.719,5.976,258.437,6.664,258.437,7.477z M260.039,9.43V5.539h1.586c0.338,0,0.63,0.109,0.875,0.328
				c0.245,0.219,0.367,0.503,0.367,0.852c0,0.375-0.12,0.661-0.359,0.859c-0.24,0.198-0.451,0.297-0.633,0.297l1.047,1.555h-0.656
				l-1.008-1.539h-0.688V9.43H260.039z M260.57,7.406h1.055c0.177,0,0.338-0.066,0.484-0.199c0.146-0.133,0.219-0.296,0.219-0.488
				c0-0.203-0.073-0.374-0.219-0.512C261.963,6.069,261.801,6,261.625,6h-1.055V7.406z"/>
		</g>
	</g>
</g>
<g id="Capa_4">
</g>
<g id="Capa_6" display="none">
</g>
<g id="_x31_" display="none">
</g>
<g id="pop_up_FB" display="none">
</g>
<g id="_x32_" display="none">
</g>
<g id="_x33_" display="none">
</g>
<g id="_x33__ok" display="none">
</g>
<g id="DENEGADA" display="none">
</g>
<g id="Lista_de_espera" display="none">
</g>
</svg>
