<?xml version="1.0" encoding="utf-8"?>
<!-- Generator: Adobe Illustrator 16.0.0, SVG Export Plug-In . SVG Version: 6.00 Build 0)  -->
<!DOCTYPE svg PUBLIC "-//W3C//DTD SVG 1.1//EN" "http://www.w3.org/Graphics/SVG/1.1/DTD/svg11.dtd">
<svg version="1.1" id="Capa_1" xmlns="http://www.w3.org/2000/svg" xmlns:xlink="http://www.w3.org/1999/xlink" x="0px" y="0px"
	 width="72px" height="231px" viewBox="0 0 72 231" enable-background="new 0 0 72 231" xml:space="preserve">
<g>
	<g>
		<path fill-rule="evenodd" clip-rule="evenodd" fill="#00BB68" d="M42.464,15.995c9.168,3.245,15.38,8.021,18.141,17.734
			c2.921,10.286,0.141,24.197,5.239,31.845c1.296,1.942,4.43,3.931,5.04,6.046c0.708,2.465-0.258,5.992-2.219,7.054
			c-2.785,1.512-11.146,0.605-15.92,0.605c-10.93,0-22.097,0-33.056,0c-8.587,0-20.762,2.32-18.539-7.257
			c0.63-2.722,3.832-4.318,5.44-7.054c4.018-6.833,2.75-15.104,3.425-25.191c0.88-13.112,9.299-20.021,19.352-23.782
			C24.6,10.374,28.37,0.878,36.016,0.878C43.269,0.878,47.861,10.04,42.464,15.995z M30.778,8.336
			c-2.062,9.274,12.44,8.827,10.479,0c-0.493-2.22-2.586-4.118-6.046-3.63C32.704,5.063,31.113,6.814,30.778,8.336z M13.644,39.172
			c-0.821,10.643,0.47,20.217-4.434,28.216c-1.041,1.698-6.062,4.915-4.636,7.457c0.714,1.269,4.74,0.806,7.256,0.806
			c17.238,0,31.423,0,48.37,0c2.067,0,6.445,0.64,7.257-0.806c1.386-2.466-3.728-5.923-4.839-7.658
			c-5.882-9.199-1.691-22.887-5.643-33.859c-2.982-8.289-11.807-15.279-22.774-14.308C23.256,19.986,14.44,28.841,13.644,39.172z"/>
		<path fill-rule="evenodd" clip-rule="evenodd" fill="#00BB68" d="M23.722,82.906c1.209,0,2.419,0,3.629,0
			c0.789,9.037,16.542,9.037,17.332,0c1.209,0,2.418,0,3.626,0c-1.128,13.446-22.85,13.85-24.384,0.605
			C23.69,83.479,23.754,83.144,23.722,82.906z"/>
	</g>
	<g>
		<g>
			<path fill-rule="evenodd" clip-rule="evenodd" fill="#87878B" d="M42.464,152.896c9.168,3.245,15.38,8.021,18.141,17.734
				c2.921,10.286,0.141,24.197,5.239,31.845c1.296,1.942,4.43,3.931,5.04,6.046c0.708,2.465-0.258,5.992-2.219,7.054
				c-2.785,1.512-11.146,0.605-15.92,0.605c-10.93,0-22.097,0-33.056,0c-8.587,0-20.762,2.32-18.539-7.257
				c0.63-2.722,3.832-4.318,5.44-7.054c4.018-6.833,2.75-15.104,3.425-25.191c0.88-13.112,9.299-20.021,19.352-23.782
				c-4.768-5.621-0.998-15.117,6.648-15.117C43.269,137.778,47.861,146.94,42.464,152.896z M30.778,145.236
				c-2.062,9.274,12.44,8.827,10.479,0c-0.493-2.22-2.586-4.118-6.046-3.63C32.704,141.964,31.113,143.715,30.778,145.236z
				 M13.644,176.072c-0.821,10.643,0.47,20.217-4.434,28.216c-1.041,1.698-6.062,4.915-4.636,7.457
				c0.714,1.269,4.74,0.806,7.256,0.806c17.238,0,31.423,0,48.37,0c2.067,0,6.445,0.64,7.257-0.806
				c1.386-2.466-3.728-5.923-4.839-7.658c-5.882-9.199-1.691-22.887-5.643-33.859c-2.982-8.289-11.807-15.279-22.774-14.308
				C23.256,156.887,14.44,165.741,13.644,176.072z"/>
			<path fill-rule="evenodd" clip-rule="evenodd" fill="#87878B" d="M23.722,219.807c1.209,0,2.419,0,3.629,0
				c0.789,9.037,16.542,9.037,17.332,0c1.209,0,2.418,0,3.626,0c-1.128,13.446-22.85,13.85-24.384,0.605
				C23.69,220.379,23.754,220.044,23.722,219.807z"/>
		</g>
	</g>
</g>
</svg>
