<?xml version="1.0" encoding="utf-8"?>
<!-- Generator: Adobe Illustrator 16.0.0, SVG Export Plug-In . SVG Version: 6.00 Build 0)  -->
<!DOCTYPE svg PUBLIC "-//W3C//DTD SVG 1.1//EN" "http://www.w3.org/Graphics/SVG/1.1/DTD/svg11.dtd">
<svg version="1.1" id="Capa_1" xmlns="http://www.w3.org/2000/svg" xmlns:xlink="http://www.w3.org/1999/xlink" x="0px" y="0px"
	 width="31px" height="24px" viewBox="0 0 31 24" enable-background="new 0 0 31 24" xml:space="preserve">
<g>
	<path fill="#87878B" d="M21.85,13.008c2.992,0,5.433-2.439,5.433-5.434c0-2.996-2.44-5.434-5.433-5.434
		c-2.995,0-5.432,2.438-5.432,5.434C16.418,10.568,18.854,13.008,21.85,13.008z"/>
	<path fill="#87878B" d="M14.887,15.455c-1.389-0.807-3.122-1.219-5.156-1.219c-2.033,0-3.768,0.412-5.155,1.219
		c-1.107,0.643-2,1.545-2.647,2.676c-1.102,1.926-1.114,3.875-1.114,3.896c0,0.715,0.444,1.297,0.991,1.297h15.852
		c0.549,0,0.99-0.582,0.99-1.297c0-0.021-0.011-1.971-1.113-3.896C16.887,17,15.996,16.102,14.887,15.455z"/>
	<path fill="#87878B" d="M29.146,18.467c-0.604-1.057-1.438-1.898-2.475-2.504c-1.299-0.754-2.922-1.137-4.822-1.137
		c-1.551,0-2.904,0.268-4.059,0.771c0.471,0.504,0.893,1.057,1.246,1.674c1.326,2.318,1.342,4.656,1.342,4.756
		c0,0.469-0.098,0.904-0.262,1.297h9.145c0.512,0,0.926-0.545,0.926-1.213C30.188,22.092,30.176,20.268,29.146,18.467z"/>
	<path fill="#87878B" d="M9.73,12.293c3.203,0,5.81-2.607,5.81-5.809c0-3.204-2.606-5.81-5.81-5.81c-3.201,0-5.807,2.606-5.807,5.81
		C3.924,9.686,6.529,12.293,9.73,12.293z"/>
</g>
</svg>
