<?xml version="1.0" encoding="utf-8"?>
<!-- Generator: Adobe Illustrator 16.0.0, SVG Export Plug-In . SVG Version: 6.00 Build 0)  -->
<!DOCTYPE svg PUBLIC "-//W3C//DTD SVG 1.1//EN" "http://www.w3.org/Graphics/SVG/1.1/DTD/svg11.dtd">
<svg version="1.1" id="Capa_1" xmlns="http://www.w3.org/2000/svg" xmlns:xlink="http://www.w3.org/1999/xlink" x="0px" y="0px"
	 width="73px" height="39px" viewBox="0 0 73 39" enable-background="new 0 0 73 39" xml:space="preserve">
<g>
	<g>
		<path fill="#E7E7E7" d="M36.496,38.302c-11.479,0-33.836-16.432-34.783-17.13c-0.527-0.393-0.842-1.013-0.842-1.671
			s0.314-1.28,0.842-1.67C2.66,17.13,25.018,0.698,36.496,0.698c11.48,0,33.842,16.432,34.787,17.133
			c0.529,0.39,0.846,1.012,0.846,1.67s-0.316,1.278-0.846,1.671C70.338,21.87,47.977,38.302,36.496,38.302z M6.518,19.501
			c7.486,5.238,22.477,14.646,29.979,14.646c7.508,0,22.498-9.407,29.984-14.646c-7.486-5.24-22.482-14.645-29.984-14.645
			C28.992,4.856,14.004,14.261,6.518,19.501z"/>
		<path fill="#E7E7E7" d="M36.496,37.129c-9.721,0-17.629-7.908-17.629-17.628c0-9.723,7.908-17.631,17.629-17.631
			c9.73,0,17.635,7.908,17.635,17.631C54.131,29.221,46.227,37.129,36.496,37.129z M36.496,7.134
			c-6.816,0-12.361,5.549-12.361,12.367s5.545,12.364,12.361,12.364c6.82,0,12.367-5.546,12.367-12.364S43.316,7.134,36.496,7.134z"
			/>
		<circle fill="#E7E7E7" cx="36.499" cy="19.501" r="7.938"/>
	</g>
</g>
</svg>
