<?xml version="1.0" encoding="utf-8"?>
<!-- Generator: Adobe Illustrator 16.0.0, SVG Export Plug-In . SVG Version: 6.00 Build 0)  -->
<!DOCTYPE svg PUBLIC "-//W3C//DTD SVG 1.1//EN" "http://www.w3.org/Graphics/SVG/1.1/DTD/svg11.dtd">
<svg version="1.1" id="Layer_1" xmlns="http://www.w3.org/2000/svg" xmlns:xlink="http://www.w3.org/1999/xlink" x="0px" y="0px"
	 width="31px" height="37px" viewBox="0 0 31 37" enable-background="new 0 0 31 37" xml:space="preserve">
<g>
	<g>
		<path fill="none" stroke="#FFFFFF" stroke-width="1.8301" stroke-linejoin="round" stroke-miterlimit="10" d="M19.282,29.827
			h1.261h9.365c-2.621-1.966-4.107-4.971-4.107-8.237v-6.181c0-5.673-4.63-10.291-10.307-10.291l0,0
			c-5.674,0-10.29,4.617-10.29,10.291v6.181c0,3.267-1.503,6.271-4.112,8.237h9.367h1.261H19.282z"/>
		<path fill="none" stroke="#FFFFFF" stroke-width="1.8301" stroke-linejoin="round" stroke-miterlimit="10" d="M13.439,5.292V4.519
			V3.055C13.439,1.923,14.362,1,15.494,1l0,0c1.147,0,2.07,0.923,2.07,2.055v1.463v0.774"/>
	</g>
	<path fill="none" stroke="#FFFFFF" stroke-width="1.8301" stroke-linejoin="round" stroke-miterlimit="10" d="M11.72,29.827
		l-0.259,1.233c-0.048,0.278-0.079,0.562-0.079,0.822c0,2.272,1.847,4.118,4.11,4.118c2.278,0,4.126-1.846,4.126-4.118
		c0-0.287-0.03-0.563-0.09-0.822l-0.246-1.233"/>
</g>
</svg>
