<?xml version="1.0" encoding="utf-8"?>
<!-- Generator: Adobe Illustrator 16.0.0, SVG Export Plug-In . SVG Version: 6.00 Build 0)  -->
<!DOCTYPE svg PUBLIC "-//W3C//DTD SVG 1.1//EN" "http://www.w3.org/Graphics/SVG/1.1/DTD/svg11.dtd">
<svg version="1.1" id="Capa_1" xmlns="http://www.w3.org/2000/svg" xmlns:xlink="http://www.w3.org/1999/xlink" x="0px" y="0px"
	 width="18px" height="22px" viewBox="0 0 18 22" enable-background="new 0 0 18 22" xml:space="preserve">
<path fill="#51E890" d="M16.471,1.334l-0.504-0.48H14.35l-0.479,0.344l-1.367,4.041C12.096,6.84,10.654,7.959,9,7.959
	c-1.653,0-3.094-1.119-3.514-2.758L4.13,1.197L3.65,0.854H2.035l-0.504,0.48L0.924,13.395l0.504,0.531H3.1l1.654,4.078
	c0.575,1.881,2.282,3.143,4.247,3.143c1.964,0,3.671-1.262,4.23-3.102l1.669-4.119h1.672l0.504-0.531L16.471,1.334z M4.164,12.051
	l-1.008-0.049l0.227-4.553L4.391,7.5 M10.836,17.615H7.324v-1.305h0.951v-3.271l-0.713,0.383l-0.398-1.287l1.514-0.943h1.17v5.119
	h0.988V17.615z M13.837,12.051L13.609,7.5l1.008-0.051l0.229,4.553L13.837,12.051z"/>
</svg>
