<?xml version="1.0" encoding="utf-8"?>
<!-- Generator: Adobe Illustrator 16.0.0, SVG Export Plug-In . SVG Version: 6.00 Build 0)  -->
<!DOCTYPE svg PUBLIC "-//W3C//DTD SVG 1.1//EN" "http://www.w3.org/Graphics/SVG/1.1/DTD/svg11.dtd">
<svg version="1.1" id="Capa_1" xmlns="http://www.w3.org/2000/svg" xmlns:xlink="http://www.w3.org/1999/xlink" x="0px" y="0px"
	 width="22px" height="28px" viewBox="0 0 22 28" enable-background="new 0 0 22 28" xml:space="preserve">
<path fill="#FFFFFF" d="M20.588,1.596L19.939,0.98h-2.074l-0.614,0.44l-1.755,5.184C14.971,8.66,13.123,10.096,11,10.096
	c-2.121,0-3.969-1.436-4.508-3.539L4.752,1.42L4.138,0.98H2.062L1.417,1.594L0.638,17.07l0.646,0.68H3.43l2.123,5.234
	c0.738,2.414,2.928,4.035,5.449,4.035c2.521,0,4.711-1.621,5.428-3.98l2.144-5.289h2.145l0.646-0.68L20.588,1.596z M4.795,15.348
	l-1.293-0.063l0.291-5.842l1.293,0.064 M13.355,22.486H8.852v-1.674h1.221v-4.199l-0.916,0.494l-0.51-1.654l1.941-1.209h1.502v6.568
	h1.266V22.486L13.355,22.486z M17.208,15.348l-0.292-5.842l1.293-0.064l0.292,5.842L17.208,15.348z"/>
</svg>
