<?xml version="1.0" encoding="utf-8"?>
<!-- Generator: Adobe Illustrator 16.0.0, SVG Export Plug-In . SVG Version: 6.00 Build 0)  -->
<!DOCTYPE svg PUBLIC "-//W3C//DTD SVG 1.1//EN" "http://www.w3.org/Graphics/SVG/1.1/DTD/svg11.dtd">
<svg version="1.1" xmlns="http://www.w3.org/2000/svg" xmlns:xlink="http://www.w3.org/1999/xlink" x="0px" y="0px" width="119px"
	 height="119px" viewBox="0 0 119 119" enable-background="new 0 0 119 119" xml:space="preserve">
<g id="Capa_2">
</g>
<g id="Capa_1">
	<g>
		<circle fill="#FFD005" cx="59.501" cy="59.5" r="56.891"/>
		<g>
			<g>
				<circle fill="none" stroke="#414248" stroke-width="3.6703" stroke-miterlimit="10" cx="59.502" cy="59.5" r="56.891"/>
				<g>
					<g>
						<path fill-rule="evenodd" clip-rule="evenodd" fill="#414248" d="M80.602,57.664c6.08,0,11.009-4.932,11.009-11.01
							c0-6.083-4.929-11.012-11.009-11.012c-6.079,0-11.009,4.929-11.009,11.012C69.593,52.732,74.523,57.664,80.602,57.664z"/>
						<circle fill-rule="evenodd" clip-rule="evenodd" fill="#FFFFFF" cx="85.384" cy="44.095" r="2.946"/>
						<path fill-rule="evenodd" clip-rule="evenodd" fill="#FFFFFF" d="M82.961,44.026c1.301,0,2.356-1.054,2.356-2.354
							c0-1.305-1.056-2.359-2.356-2.359c-1.304,0-2.359,1.055-2.359,2.359C80.602,42.973,81.657,44.026,82.961,44.026z"/>
					</g>
					<g>
						<path fill-rule="evenodd" clip-rule="evenodd" fill="#414248" d="M38.4,57.664c6.081,0,11.012-4.932,11.012-11.01
							c0-6.083-4.931-11.012-11.012-11.012c-6.08,0-11.011,4.929-11.011,11.012C27.39,52.732,32.32,57.664,38.4,57.664z"/>
						<circle fill-rule="evenodd" clip-rule="evenodd" fill="#FFFFFF" cx="43.183" cy="44.095" r="2.946"/>
						<path fill-rule="evenodd" clip-rule="evenodd" fill="#FFFFFF" d="M40.759,44.026c1.303,0,2.358-1.054,2.358-2.354
							c0-1.305-1.056-2.359-2.358-2.359S38.4,40.367,38.4,41.672C38.4,42.973,39.456,44.026,40.759,44.026z"/>
					</g>
				</g>
				
					<path fill="none" stroke="#414248" stroke-width="3.6703" stroke-linecap="round" stroke-linejoin="round" stroke-miterlimit="10" d="
					M90.516,86.98c-4.52-12.789-16.677-21.968-31.014-21.968c-14.336,0-26.496,9.179-31.018,21.968"/>
			</g>
		</g>
	</g>
</g>
</svg>
