<?xml version="1.0" encoding="utf-8"?>
<!-- Generator: Adobe Illustrator 16.0.0, SVG Export Plug-In . SVG Version: 6.00 Build 0)  -->
<!DOCTYPE svg PUBLIC "-//W3C//DTD SVG 1.1//EN" "http://www.w3.org/Graphics/SVG/1.1/DTD/svg11.dtd">
<svg version="1.1" id="Layer_1" xmlns="http://www.w3.org/2000/svg" xmlns:xlink="http://www.w3.org/1999/xlink" x="0px" y="0px"
	 width="37px" height="37px" viewBox="0 0 37 37" enable-background="new 0 0 37 37" xml:space="preserve">
<g>
	<path fill="none" stroke="#FFFFFF" stroke-width="1.8301" stroke-linejoin="round" stroke-miterlimit="10" d="M8.146,8.778H30.16
		H36v5.83h-0.979h-0.968v0.972v18.473c0,1.075-0.878,1.947-1.944,1.947H4.893c-1.082,0-1.946-0.872-1.946-1.947V15.58v-0.972H1.965
		H1v-5.83h5.841h1.93"/>
	<path fill="none" stroke="#FFFFFF" stroke-width="1.8301" stroke-miterlimit="10" d="M10.715,1C8.583,1,6.839,2.744,6.839,4.892
		c0,2.141,1.744,3.886,3.876,3.886h6.567h1.429l-0.518-1.33c-0.413-1.064-1.192-2.293-2.122-3.368C14.336,2.095,12.444,1,10.715,1
		L10.715,1z"/>
	
		<line fill="none" stroke="#FFFFFF" stroke-width="1.8301" stroke-miterlimit="10" x1="14.535" y1="14.608" x2="1.965" y2="14.608"/>
	
		<line fill="none" stroke="#FFFFFF" stroke-width="1.8301" stroke-miterlimit="10" x1="14.612" y1="9.001" x2="14.612" y2="35.777"/>
	
		<line fill="none" stroke="#FFFFFF" stroke-width="1.8301" stroke-miterlimit="10" x1="22.431" y1="9.001" x2="22.431" y2="35.777"/>
	<path fill="none" stroke="#FFFFFF" stroke-width="1.8301" stroke-miterlimit="10" d="M26.271,1c-1.715,0-3.605,1.095-5.343,3.08
		C20,5.154,19.221,6.383,18.806,7.448l-0.516,1.33h1.413h6.567c2.146,0,3.892-1.745,3.892-3.886C30.162,2.744,28.417,1,26.271,1
		L26.271,1z"/>
	
		<line fill="none" stroke="#FFFFFF" stroke-width="1.8301" stroke-miterlimit="10" x1="35.086" y1="14.608" x2="22.53" y2="14.608"/>
</g>
</svg>
