<?xml version="1.0" encoding="utf-8"?>
<!-- Generator: Adobe Illustrator 16.0.0, SVG Export Plug-In . SVG Version: 6.00 Build 0)  -->
<!DOCTYPE svg PUBLIC "-//W3C//DTD SVG 1.1//EN" "http://www.w3.org/Graphics/SVG/1.1/DTD/svg11.dtd">
<svg version="1.1" id="Capa_1" xmlns="http://www.w3.org/2000/svg" xmlns:xlink="http://www.w3.org/1999/xlink" x="0px" y="0px"
	 width="28px" height="27px" viewBox="0 0 28 27" enable-background="new 0 0 28 27" xml:space="preserve">
<path fill="#FFFFFF" d="M27.717,10.328c-0.099-0.301-0.365-0.511-0.716-0.561l-8.485-1.28l-3.761-7.619
	c-0.314-0.633-1.195-0.636-1.513,0.002L9.399,8.546l-8.4,1.22c-0.35,0.051-0.619,0.261-0.716,0.562
	c-0.099,0.3-0.006,0.629,0.247,0.877l6.109,6.023l-1.432,8.373C5.16,25.88,5.223,26.139,5.384,26.33l0.302,0.275h0.301
	c0.15,0,0.3-0.039,0.444-0.115l7.618-3.954l7.514,3.954c0.146,0.076,0.295,0.115,0.445,0.115l0.408-0.045l0.195-0.23
	c0.16-0.191,0.224-0.45,0.176-0.729l-1.402-8.467l6.084-5.932C27.723,10.957,27.814,10.629,27.717,10.328z"/>
</svg>
