<?xml version="1.0" encoding="utf-8"?>
<!-- Generator: Adobe Illustrator 16.0.0, SVG Export Plug-In . SVG Version: 6.00 Build 0)  -->
<!DOCTYPE svg PUBLIC "-//W3C//DTD SVG 1.1//EN" "http://www.w3.org/Graphics/SVG/1.1/DTD/svg11.dtd">
<svg version="1.1" id="Capa_1" xmlns="http://www.w3.org/2000/svg" xmlns:xlink="http://www.w3.org/1999/xlink" x="0px" y="0px"
	 width="22px" height="21px" viewBox="0 0 22 21" enable-background="new 0 0 22 21" xml:space="preserve">
<path fill="#51E890" d="M21.689,8.028c-0.076-0.235-0.285-0.398-0.559-0.437L14.52,6.594l-2.932-5.938
	c-0.244-0.494-0.932-0.495-1.179,0.002l-2.995,5.98L0.869,7.59c-0.273,0.04-0.482,0.203-0.559,0.438
	C0.232,8.262,0.306,8.519,0.502,8.712l4.762,4.694l-1.116,6.525c-0.036,0.217,0.013,0.418,0.138,0.567l0.236,0.215h0.234
	c0.117,0,0.232-0.031,0.346-0.09l5.938-3.082l5.855,3.082c0.114,0.06,0.23,0.09,0.346,0.09l0.318-0.036l0.153-0.179
	c0.124-0.149,0.175-0.351,0.138-0.568l-1.094-6.599l4.74-4.622C21.693,8.519,21.767,8.262,21.689,8.028z"/>
</svg>
