<?xml version="1.0" encoding="utf-8"?>
<!-- Generator: Adobe Illustrator 16.0.0, SVG Export Plug-In . SVG Version: 6.00 Build 0)  -->
<!DOCTYPE svg PUBLIC "-//W3C//DTD SVG 1.1//EN" "http://www.w3.org/Graphics/SVG/1.1/DTD/svg11.dtd">
<svg version="1.1" id="Capa_1" xmlns="http://www.w3.org/2000/svg" xmlns:xlink="http://www.w3.org/1999/xlink" x="0px" y="0px"
	 width="27px" height="25px" viewBox="0 0 27 25" enable-background="new 0 0 27 25" xml:space="preserve">
<path fill="#00C074" d="M26.194,5.917c-0.428-1.983-1.543-3.436-3.311-4.315c-1.047-0.522-2.137-0.668-2.97-0.737
	c-1.692-0.138-3.237,0.336-4.769,1.439c-0.459,0.332-0.9,0.684-1.352,1.042L13.499,3.58l-0.234-0.187
	c-0.469-0.375-0.933-0.743-1.412-1.089c-1.529-1.103-3.057-1.576-4.768-1.439C6.252,0.933,5.161,1.079,4.116,1.6
	C2.345,2.482,1.231,3.935,0.806,5.917C0.519,7.258,0.535,8.473,0.86,9.631c0.502,1.793,1.635,3.214,2.651,4.396
	c1.269,1.531,7.333,8.121,8.931,9.665l0.129,0.117c0.233,0.189,0.488,0.303,0.717,0.332l0.211,0.018l0.172-0.011
	c0.268-0.036,0.529-0.153,0.752-0.335l0.117-0.104c1.557-1.5,7.664-8.135,8.943-9.675c1.021-1.193,2.156-2.616,2.656-4.403
	C26.464,8.471,26.481,7.255,26.194,5.917z"/>
</svg>
