<?xml version="1.0" encoding="utf-8"?>
<!-- Generator: Adobe Illustrator 16.0.0, SVG Export Plug-In . SVG Version: 6.00 Build 0)  -->
<!DOCTYPE svg PUBLIC "-//W3C//DTD SVG 1.1//EN" "http://www.w3.org/Graphics/SVG/1.1/DTD/svg11.dtd">
<svg version="1.1" id="Capa_1" xmlns="http://www.w3.org/2000/svg" xmlns:xlink="http://www.w3.org/1999/xlink" x="0px" y="0px"
	 width="21px" height="19px" viewBox="0 0 21 19" enable-background="new 0 0 21 19" xml:space="preserve">
<path fill="#51E890" d="M20.393,4.37c-0.332-1.546-1.201-2.678-2.578-3.363c-0.817-0.407-1.666-0.521-2.316-0.574
	c-1.318-0.107-2.521,0.262-3.717,1.121c-0.355,0.26-0.701,0.533-1.053,0.812L10.5,2.547l-0.184-0.145
	c-0.365-0.293-0.727-0.58-1.1-0.85C8.025,0.694,6.834,0.326,5.5,0.432C4.852,0.485,4.001,0.599,3.188,1.006
	C1.807,1.693,0.939,2.825,0.606,4.371C0.383,5.415,0.396,6.362,0.65,7.264c0.391,1.398,1.273,2.505,2.064,3.426
	c0.99,1.193,5.715,6.329,6.961,7.532l0.1,0.091c0.182,0.148,0.381,0.236,0.561,0.259l0.164,0.015l0.133-0.01
	c0.209-0.027,0.412-0.119,0.586-0.26l0.092-0.081c1.213-1.169,5.973-6.34,6.969-7.54c0.798-0.93,1.682-2.039,2.07-3.432
	C20.604,6.36,20.617,5.413,20.393,4.37z"/>
</svg>
