<?xml version="1.0" encoding="utf-8"?>
<!-- Generator: Adobe Illustrator 16.0.0, SVG Export Plug-In . SVG Version: 6.00 Build 0)  -->
<!DOCTYPE svg PUBLIC "-//W3C//DTD SVG 1.1//EN" "http://www.w3.org/Graphics/SVG/1.1/DTD/svg11.dtd">
<svg version="1.1" id="Layer_1" xmlns="http://www.w3.org/2000/svg" xmlns:xlink="http://www.w3.org/1999/xlink" x="0px" y="0px"
	 width="69px" height="70px" viewBox="0 0 69 70" enable-background="new 0 0 69 70" xml:space="preserve">
<g>
	<path fill-rule="evenodd" clip-rule="evenodd" fill="#FFFFFF" d="M58.896,10.46C52.423,3.98,43.815,0.41,34.644,0.406
		c-18.897,0-34.277,15.379-34.285,34.282C0.356,40.73,1.935,46.628,4.935,51.828L0.071,69.594l18.175-4.768
		c5.008,2.731,10.646,4.171,16.384,4.173h0.014l0,0c18.896,0,34.277-15.38,34.285-34.284C68.932,25.555,65.369,16.94,58.896,10.46
		 M34.644,63.209h-0.012c-5.113-0.002-10.128-1.375-14.503-3.972l-1.041-0.618L8.303,61.449l2.879-10.516l-0.678-1.078
		c-2.853-4.537-4.358-9.781-4.356-15.165C6.153,18.979,18.937,6.196,34.655,6.196c7.611,0.002,14.766,2.971,20.146,8.357
		c5.38,5.386,8.341,12.545,8.338,20.16C63.134,50.426,50.351,63.209,34.644,63.209 M50.274,41.867
		c-0.856-0.429-5.068-2.501-5.854-2.787s-1.356-0.429-1.928,0.429c-0.57,0.857-2.213,2.787-2.712,3.359
		c-0.5,0.572-1,0.644-1.856,0.214c-0.856-0.429-3.617-1.333-6.889-4.252c-2.547-2.271-4.266-5.077-4.766-5.934
		c-0.5-0.858-0.054-1.321,0.375-1.749c0.386-0.384,0.857-1,1.285-1.501c0.429-0.5,0.571-0.857,0.857-1.429
		c0.285-0.572,0.143-1.072-0.072-1.501c-0.214-0.429-1.928-4.646-2.641-6.361c-0.695-1.67-1.402-1.444-1.928-1.47
		c-0.499-0.025-1.07-0.03-1.642-0.03s-1.499,0.214-2.284,1.072s-2.999,2.93-2.999,7.146c0,4.217,3.07,8.29,3.498,8.862
		c0.429,0.572,6.041,9.225,14.635,12.935c2.044,0.883,3.64,1.41,4.883,1.805c2.053,0.652,3.92,0.56,5.396,0.339
		c1.646-0.246,5.068-2.072,5.783-4.073c0.713-2.001,0.713-3.716,0.499-4.074S51.131,42.296,50.274,41.867"/>
</g>
</svg>
