<?xml version="1.0" encoding="utf-8"?>
<!-- Generator: Adobe Illustrator 16.0.0, SVG Export Plug-In . SVG Version: 6.00 Build 0)  -->
<!DOCTYPE svg PUBLIC "-//W3C//DTD SVG 1.1//EN" "http://www.w3.org/Graphics/SVG/1.1/DTD/svg11.dtd">
<svg version="1.1" id="Capa_1" xmlns="http://www.w3.org/2000/svg" xmlns:xlink="http://www.w3.org/1999/xlink" x="0px" y="0px"
	 width="24px" height="19px" viewBox="0 0 24 19" enable-background="new 0 0 24 19" xml:space="preserve">
<g>
	<path fill="#51E890" d="M16.947,10.285c2.333,0,4.234-1.901,4.234-4.234c0-2.334-1.901-4.234-4.234-4.234
		c-2.334,0-4.232,1.9-4.232,4.234C12.715,8.384,14.613,10.285,16.947,10.285z"/>
	<path fill="#51E890" d="M11.521,12.192c-1.082-0.628-2.434-0.948-4.018-0.948c-1.586,0-2.938,0.32-4.02,0.948
		c-0.863,0.502-1.558,1.205-2.062,2.086c-0.858,1.501-0.867,3.02-0.867,3.036c0,0.557,0.346,1.012,0.771,1.012H13.68
		c0.428,0,0.771-0.455,0.771-1.012c0-0.017-0.008-1.535-0.867-3.036C13.08,13.397,12.387,12.697,11.521,12.192z"/>
	<path fill="#51E890" d="M22.635,14.54c-0.471-0.823-1.121-1.479-1.93-1.95c-1.012-0.589-2.277-0.888-3.758-0.888
		c-1.208,0-2.264,0.21-3.162,0.603c0.367,0.393,0.695,0.822,0.971,1.303c1.033,1.809,1.047,3.63,1.047,3.707
		c0,0.366-0.078,0.705-0.205,1.012h7.127c0.398,0,0.721-0.425,0.721-0.946C23.445,17.365,23.436,15.943,22.635,14.54z"/>
	<path fill="#51E890" d="M7.504,9.729c2.494,0,4.527-2.031,4.527-4.527S9.998,0.674,7.504,0.674c-2.496,0-4.526,2.031-4.526,4.527
		S5.008,9.729,7.504,9.729z"/>
</g>
</svg>
