<?xml version="1.0" encoding="utf-8"?>
<!-- Generator: Adobe Illustrator 16.0.0, SVG Export Plug-In . SVG Version: 6.00 Build 0)  -->
<!DOCTYPE svg PUBLIC "-//W3C//DTD SVG 1.1//EN" "http://www.w3.org/Graphics/SVG/1.1/DTD/svg11.dtd">
<svg version="1.1" id="Layer_1" xmlns="http://www.w3.org/2000/svg" xmlns:xlink="http://www.w3.org/1999/xlink" x="0px" y="0px"
	 width="32px" height="38px" viewBox="0 0 32 38" enable-background="new 0 0 32 38" xml:space="preserve">
<g>
	<g>
		<path fill="none" stroke="#00f393" stroke-width="1.8301" stroke-linejoin="round" stroke-miterlimit="10" d="M19.782,30.326
			h1.261h9.365c-2.621-1.966-4.107-4.971-4.107-8.237v-6.181c0-5.673-4.63-10.29-10.307-10.29l0,0c-5.674,0-10.29,4.617-10.29,10.29
			v6.181c0,3.267-1.503,6.271-4.112,8.237h9.367h1.261H19.782z"/>
		<path fill="none" stroke="#00f393" stroke-width="1.8301" stroke-linejoin="round" stroke-miterlimit="10" d="M13.939,5.792V5.019
			V3.555c0-1.132,0.923-2.055,2.055-2.055l0,0c1.147,0,2.07,0.923,2.07,2.055v1.464v0.773"/>
	</g>
	<path fill="none" stroke="#00f393" stroke-width="1.8301" stroke-linejoin="round" stroke-miterlimit="10" d="M12.22,30.326
		l-0.259,1.233c-0.048,0.277-0.079,0.561-0.079,0.822c0,2.271,1.847,4.117,4.11,4.117c2.278,0,4.126-1.846,4.126-4.117
		c0-0.287-0.03-0.564-0.09-0.822l-0.246-1.233"/>
</g>
</svg>
