<?xml version="1.0" encoding="utf-8"?>
<!-- Generator: Adobe Illustrator 16.0.0, SVG Export Plug-In . SVG Version: 6.00 Build 0)  -->
<!DOCTYPE svg PUBLIC "-//W3C//DTD SVG 1.1//EN" "http://www.w3.org/Graphics/SVG/1.1/DTD/svg11.dtd">
<svg version="1.1" xmlns="http://www.w3.org/2000/svg" xmlns:xlink="http://www.w3.org/1999/xlink" x="0px" y="0px" width="38px"
	 height="38px" viewBox="0 0 38 38" enable-background="new 0 0 38 38" xml:space="preserve">
<g id="Capa_2">
</g>
<g id="Capa_1">
	<g>
		<path fill="#FFFFFF" stroke="#414248" stroke-width="1.5256" stroke-linejoin="round" stroke-miterlimit="10" d="M36.941,34.597
			l-2.336-6.938c1.422-2.566,2.237-5.516,2.237-8.66c0-9.881-8.01-17.891-17.893-17.891c-9.882,0-17.891,8.01-17.891,17.891
			s8.009,17.893,17.891,17.893c4.262,0,8.166-1.496,11.242-3.98L36.941,34.597z"/>
		<g>
			<path fill="#414248" d="M24.762,18.999c0,1.133,0.919,2.053,2.054,2.053s2.052-0.92,2.052-2.053c0-1.135-0.917-2.053-2.052-2.053
				S24.762,17.864,24.762,18.999"/>
			<path fill="#414248" d="M17.129,18.999c0,1.133,0.92,2.053,2.051,2.053c1.133,0,2.055-0.92,2.055-2.053
				c0-1.135-0.922-2.053-2.055-2.053C18.049,16.946,17.129,17.864,17.129,18.999"/>
			<path fill="#414248" d="M9.492,18.999c0,1.133,0.92,2.053,2.053,2.053c1.137,0,2.055-0.92,2.055-2.053
				c0-1.135-0.918-2.053-2.055-2.053C10.412,16.946,9.492,17.864,9.492,18.999"/>
		</g>
	</g>
</g>
</svg>
