<?xml version="1.0" encoding="utf-8"?>
<!-- Generator: Adobe Illustrator 16.0.0, SVG Export Plug-In . SVG Version: 6.00 Build 0)  -->
<!DOCTYPE svg PUBLIC "-//W3C//DTD SVG 1.1//EN" "http://www.w3.org/Graphics/SVG/1.1/DTD/svg11.dtd">
<svg version="1.1" id="Capa_1" xmlns="http://www.w3.org/2000/svg" xmlns:xlink="http://www.w3.org/1999/xlink" x="0px" y="0px"
	 width="35.364px" height="59px" viewBox="0 0 35.364 59" enable-background="new 0 0 35.364 59" xml:space="preserve">
<g>
	<g>
		<polygon fill="#FFC828" points="2.702,2.319 2.702,13.219 17.683,25.906 32.664,13.219 32.664,2.319 		"/>
		<path fill="#34383B" d="M18.929,27.38h-2.496L1.452,14.696l-0.69-1.478V2.319l1.94-1.933h29.962l1.929,1.933v10.899l-0.683,1.478
			L18.929,27.38z M4.63,12.322l13.052,11.05l13.041-11.05V4.252H4.63V12.322z"/>
	</g>
	<polygon fill="#F5F5F5" points="16.378,22.696 10.083,17.258 10.083,3.421 16.378,3.421 	"/>
	<rect x="15.723" y="2.302" fill="#34383B" width="3.866" height="21.989"/>
	<rect x="8.207" y="2.302" fill="#34383B" width="3.874" height="17.022"/>
	<g>
		<g>
			<polygon fill="#FFFFFF" points="1.94,40.932 3.362,38.081 3.133,34.903 5.541,32.816 6.548,29.794 9.569,28.785 11.654,26.375 
				14.832,26.604 17.683,25.182 20.534,26.604 23.712,26.377 25.798,28.787 28.82,29.795 29.829,32.817 32.237,34.903 32.01,38.081 
				33.433,40.932 32.01,43.783 32.237,46.962 29.829,49.048 28.82,52.07 25.797,53.079 23.712,55.488 20.534,55.261 17.683,56.684 
				14.832,55.261 11.653,55.489 9.568,53.08 6.546,52.07 5.54,49.048 3.132,46.96 3.362,43.783 			"/>
		</g>
		<path fill="#34383B" d="M17.683,58.613c-0.297,0-0.586-0.067-0.853-0.203l-2.388-1.186l-2.65,0.189
			c-0.61,0.039-1.2-0.203-1.598-0.66L8.45,54.742L5.931,53.9c-0.575-0.191-1.026-0.644-1.22-1.219l-0.841-2.52l-2.006-1.74
			c-0.459-0.399-0.706-0.991-0.66-1.599L1.39,44.17l-1.185-2.376c-0.274-0.544-0.274-1.181,0-1.725l1.185-2.376l-0.186-2.655
			c-0.042-0.605,0.201-1.2,0.66-1.597l2.006-1.74l0.841-2.52c0.197-0.577,0.645-1.03,1.224-1.223l2.519-0.839l1.74-2.008
			c0.397-0.461,0.977-0.702,1.598-0.664l2.65,0.191l2.388-1.187c0.529-0.27,1.177-0.27,1.709,0l2.384,1.187l2.654-0.189
			c0.606-0.041,1.2,0.205,1.598,0.662l1.736,2.012l2.523,0.839c0.579,0.191,1.026,0.645,1.224,1.219l0.837,2.521l2.006,1.738
			c0.463,0.399,0.709,0.992,0.667,1.597l-0.193,2.655l1.188,2.376c0.267,0.544,0.267,1.181,0,1.725l-1.188,2.378l0.193,2.652
			c0.042,0.606-0.205,1.202-0.667,1.597l-2.006,1.74l-0.837,2.52c-0.197,0.577-0.645,1.03-1.224,1.221l-2.523,0.841l-1.736,2.01
			c-0.397,0.457-1,0.696-1.598,0.66l-2.654-0.189l-2.384,1.186C18.277,58.546,17.984,58.613,17.683,58.613z M14.832,53.328
			c0.301,0,0.598,0.071,0.86,0.203l1.991,0.991l1.991-0.991c0.309-0.152,0.648-0.22,0.999-0.197l2.215,0.158l1.455-1.676
			c0.228-0.265,0.517-0.461,0.849-0.569l2.107-0.704l0.698-2.103c0.111-0.332,0.309-0.623,0.567-0.851l1.682-1.453l-0.162-2.216
			c-0.023-0.344,0.046-0.691,0.197-0.998l1-1.991l-1-1.989c-0.15-0.309-0.22-0.656-0.197-1l0.162-2.214l-1.682-1.451
			c-0.258-0.228-0.456-0.521-0.567-0.849l-0.698-2.106l-2.107-0.704c-0.328-0.11-0.621-0.307-0.849-0.569l-1.455-1.678l-2.215,0.158
			c-0.351,0.021-0.69-0.042-0.999-0.197l-1.991-0.992l-1.991,0.992c-0.309,0.154-0.648,0.216-0.999,0.197l-2.207-0.158l-1.455,1.678
			c-0.228,0.262-0.521,0.459-0.849,0.567l-2.106,0.704l-0.702,2.104c-0.111,0.33-0.312,0.623-0.571,0.849l-1.678,1.455l0.162,2.214
			c0.023,0.344-0.046,0.69-0.208,1L4.09,40.932l0.988,1.991c0.162,0.307,0.231,0.654,0.208,0.998l-0.162,2.216l1.678,1.449
			c0.258,0.228,0.459,0.521,0.563,0.849l0.71,2.108l2.106,0.704c0.328,0.108,0.622,0.305,0.849,0.569l1.451,1.676l2.211-0.158
			C14.739,53.33,14.789,53.328,14.832,53.328z"/>
	</g>
	<g>
		<g>
			<path fill="#34383B" d="M8.582,41.308v-0.05c0-5.097,3.839-9.271,9.344-9.271c3.379,0,5.405,1.127,7.072,2.765l-2.508,2.894
				c-1.381-1.254-2.797-2.023-4.587-2.023c-3.025,0-5.197,2.51-5.197,5.583v0.054c0,3.071,2.126,5.631,5.197,5.631
				c2.052,0,3.306-0.82,4.714-2.101l2.508,2.537c-1.844,1.974-3.893,3.201-7.346,3.201C12.501,50.525,8.582,46.453,8.582,41.308z"/>
		</g>
	</g>
</g>
</svg>
