<?xml version="1.0" encoding="utf-8"?>
<!-- Generator: Adobe Illustrator 16.0.0, SVG Export Plug-In . SVG Version: 6.00 Build 0)  -->
<!DOCTYPE svg PUBLIC "-//W3C//DTD SVG 1.1//EN" "http://www.w3.org/Graphics/SVG/1.1/DTD/svg11.dtd">
<svg version="1.1" xmlns="http://www.w3.org/2000/svg" xmlns:xlink="http://www.w3.org/1999/xlink" x="0px" y="0px" width="32px"
	 height="25px" viewBox="0 0 32 25" enable-background="new 0 0 32 25" xml:space="preserve">
<g id="Capa_3">
</g>
<g id="Capa_1">
</g>
<g id="Capa_4">
</g>
<g id="Capa_6">
</g>
<g id="_x31_" display="none">
</g>
<g id="pop_up_FB" display="none">
</g>
<g id="_x32_">
	<g>
		<polygon fill="#FFFFFF" points="27.668,0.047 10.988,16.733 4.332,10.072 0.218,14.182 10.988,24.953 31.781,4.156 		"/>
	</g>
</g>
<g id="_x33_" display="none">
	<path display="inline" fill="#FFFFFF" d="M443.452-4.211c0,8.424-6.829,15.254-15.253,15.254H8.627
		c-8.424,0-15.253-6.83-15.253-15.254v-600.665c0-8.425,6.829-15.254,15.253-15.254h419.572c8.424,0,15.253,6.829,15.253,15.254
		V-4.211z"/>
</g>
<g id="_x33__ok" display="none">
	<path display="inline" fill="#FFFFFF" d="M289.281-4.211c0,8.424-6.828,15.254-15.252,15.254h-419.572
		c-8.424,0-15.254-6.83-15.254-15.254v-600.665c0-8.425,6.83-15.254,15.254-15.254h419.572c8.424,0,15.252,6.829,15.252,15.254
		V-4.211z"/>
</g>
<g id="DENEGADA" display="none">
</g>
<g id="Lista_de_espera" display="none">
</g>
</svg>
