<?xml version="1.0" encoding="utf-8"?>
<!-- Generator: Adobe Illustrator 16.0.0, SVG Export Plug-In . SVG Version: 6.00 Build 0)  -->
<!DOCTYPE svg PUBLIC "-//W3C//DTD SVG 1.1//EN" "http://www.w3.org/Graphics/SVG/1.1/DTD/svg11.dtd">
<svg version="1.1" id="Capa_1" xmlns="http://www.w3.org/2000/svg" xmlns:xlink="http://www.w3.org/1999/xlink" x="0px" y="0px"
	 width="37px" height="37px" viewBox="0 0 37 37" enable-background="new 0 0 37 37" xml:space="preserve">
<g>
	
		<polygon fill-rule="evenodd" clip-rule="evenodd" fill="none" stroke="#00BB62" stroke-width="1.3211" stroke-miterlimit="10" points="
		8.604,19.192 21.806,5.993 30.893,15.083 17.696,28.282 1.624,35.403 	"/>
	<path fill="none" stroke="#00BB62" stroke-width="1.3211" stroke-miterlimit="10" d="M9.31,31.998l8.387-3.716l0.016-0.019
		c0.707-2.672,0.152-5.454-1.74-7.348c-1.896-1.895-4.676-2.451-7.345-1.742l-0.022,0.019L4.962,27.65L9.31,31.998z"/>
	
		<line fill="none" stroke="#00BB62" stroke-width="1.3211" stroke-miterlimit="10" x1="16.981" y1="22.788" x2="27.733" y2="12.036"/>
	<line fill="none" stroke="#00BB62" stroke-width="1.3211" stroke-miterlimit="10" x1="13.977" y1="19.782" x2="24.727" y2="9.03"/>
	<path fill="none" stroke="#00BB62" stroke-width="1.3211" stroke-miterlimit="10" d="M21.452,6.425l3.793-3.799
		c2.207-2.207,5.785-2.207,7.992,0l1.097,1.095c2.206,2.208,2.206,5.786,0,7.992l-3.8,3.797"/>
</g>
</svg>
