<?xml version="1.0" encoding="utf-8"?>
<!-- Generator: Adobe Illustrator 16.0.0, SVG Export Plug-In . SVG Version: 6.00 Build 0)  -->
<!DOCTYPE svg PUBLIC "-//W3C//DTD SVG 1.1//EN" "http://www.w3.org/Graphics/SVG/1.1/DTD/svg11.dtd">
<svg version="1.1" id="Capa_1" xmlns="http://www.w3.org/2000/svg" xmlns:xlink="http://www.w3.org/1999/xlink" x="0px" y="0px"
	 width="34.016px" height="82.205px" viewBox="0 0 34.016 82.205" enable-background="new 0 0 34.016 82.205" xml:space="preserve">
<g>
	<g>
		<g>
			<g>
				<g>
					<g>
						<g>
							<path fill="#929292" d="M29.322,33.417v-0.01c0-0.964,0.782-1.775,1.765-1.775c0.993,0,1.766,0.802,1.766,1.764v0.012
								c0,0.963-0.781,1.775-1.766,1.775C30.093,35.182,29.322,34.38,29.322,33.417z M32.45,33.407v-0.01
								c0-0.753-0.584-1.371-1.363-1.371c-0.771,0-1.362,0.627-1.362,1.381v0.009c0,0.753,0.584,1.373,1.362,1.373
								C31.856,34.789,32.45,34.16,32.45,33.407z M30.451,32.574h0.75c0.374,0,0.648,0.168,0.648,0.531
								c0,0.258-0.143,0.426-0.354,0.495l0.405,0.577h-0.467l-0.347-0.503h-0.248v0.503h-0.388V32.574z M31.175,33.353
								c0.177,0,0.274-0.089,0.274-0.221c0-0.142-0.106-0.223-0.274-0.223h-0.337v0.443H31.175z"/>
						</g>
					</g>
				</g>
				<g>
					<g>
						<g>
							<g>
								<path fill="#929292" d="M24.688,31.419H7.586c-3.541,0-6.423-2.881-6.423-6.423V8.778c0-3.541,2.882-6.422,6.423-6.422
									h17.102c3.542,0,6.423,2.881,6.423,6.422v16.219C31.111,28.539,28.23,31.419,24.688,31.419z M7.586,4.389
									c-2.42,0-4.388,1.969-4.388,4.389v16.219c0,2.42,1.968,4.39,4.388,4.39h17.102c2.421,0,4.39-1.97,4.39-4.39V8.778
									c0-2.42-1.969-4.389-4.39-4.389H7.586z"/>
							</g>
						</g>
					</g>
					<g>
						<g>
							<path fill="#929292" d="M26.071,24.508H13.324c-2.779,0-5.041-2.261-5.041-5.041V7.396c0-2.779,2.262-5.04,5.041-5.04h12.747
								c2.778,0,5.04,2.261,5.04,5.04v12.071C31.111,22.248,28.849,24.508,26.071,24.508z M13.324,4.389
								c-1.658,0-3.007,1.35-3.007,3.007v12.071c0,1.658,1.349,3.008,3.007,3.008h12.747c1.657,0,3.007-1.35,3.007-3.008V7.396
								c0-1.657-1.35-3.007-3.007-3.007H13.324z"/>
						</g>
					</g>
					<g>
						
							<rect x="7.653" y="22.1" transform="matrix(0.7069 0.7073 -0.7073 0.7069 21.3343 1.6549)" fill="#929292" width="2.035" height="8.936"/>
					</g>
					<g>
						<path fill="#929292" d="M19.333,12.71c-0.266,0-0.552,0.211-0.552,0.552v0.488c0,0.325,0.292,0.552,0.552,0.552h1.179v1.509
							c0,1.113-0.202,1.854-1.194,1.854c-0.484,0-1.053-0.187-1.162-1.647c-0.139-1.92-0.145-3.596-0.016-5.273
							c0.09-1.108,0.281-1.603,1.178-1.603c1.132,0,1.132,0.695,1.132,1.366c0,0.267,0.212,0.554,0.553,0.554h0.55
							c0.322,0,0.537-0.285,0.537-0.554v-0.204c0-1.781-1.003-2.803-2.756-2.803c-2.576,0-2.745,2.142-2.816,3.055
							c-0.15,1.783-0.15,3.774,0,5.758c0.056,0.699,0.422,2.978,2.801,2.978c0.533,0,0.965-0.134,1.332-0.415
							c0.09,0.171,0.26,0.272,0.478,0.272h0.472c0.326,0,0.553-0.291,0.553-0.552V12.71H19.333z"/>
					</g>
					<g>
						
							<rect x="4.912" y="19.309" transform="matrix(0.7076 0.7066 -0.7066 0.7076 18.5364 2.7639)" fill="#929292" width="2.034" height="8.939"/>
					</g>
				</g>
			</g>
		</g>
	</g>
	<g>
		<g>
			<g>
				<g>
					<g>
						<path fill="#2E313A" d="M29.322,78.083v-0.01c0-0.964,0.782-1.775,1.765-1.775c0.993,0,1.766,0.802,1.766,1.764v0.012
							c0,0.963-0.781,1.775-1.766,1.775C30.093,79.849,29.322,79.047,29.322,78.083z M32.45,78.073v-0.01
							c0-0.753-0.584-1.371-1.363-1.371c-0.771,0-1.362,0.627-1.362,1.381v0.009c0,0.753,0.584,1.373,1.362,1.373
							C31.856,79.455,32.45,78.826,32.45,78.073z M30.451,77.24h0.75c0.374,0,0.648,0.168,0.648,0.531
							c0,0.258-0.143,0.426-0.354,0.495l0.405,0.577h-0.467l-0.347-0.503h-0.248v0.503h-0.388V77.24z M31.175,78.02
							c0.177,0,0.274-0.089,0.274-0.221c0-0.142-0.106-0.223-0.274-0.223h-0.337v0.443H31.175z"/>
					</g>
				</g>
			</g>
			<g>
				<g>
					<path fill="#2E313A" d="M24.688,76.086H7.586c-3.541,0-6.423-2.881-6.423-6.423V53.444c0-3.541,2.882-6.422,6.423-6.422h17.102
						c3.542,0,6.423,2.881,6.423,6.422v16.219C31.111,73.205,28.23,76.086,24.688,76.086z M7.586,49.056
						c-2.42,0-4.388,1.969-4.388,4.389v16.219c0,2.42,1.968,4.39,4.388,4.39h17.102c2.421,0,4.39-1.97,4.39-4.39V53.444
						c0-2.42-1.969-4.389-4.39-4.389H7.586z"/>
				</g>
				<path fill="#2E313A" d="M26.071,69.175H13.324c-2.779,0-5.041-2.261-5.041-5.041V52.062c0-2.779,2.262-5.04,5.041-5.04h12.747
					c2.778,0,5.04,2.261,5.04,5.04v12.071C31.111,66.914,28.849,69.175,26.071,69.175z M13.324,49.056
					c-1.658,0-3.007,1.35-3.007,3.007v12.071c0,1.658,1.349,3.008,3.007,3.008h12.747c1.657,0,3.007-1.35,3.007-3.008V52.062
					c0-1.657-1.35-3.007-3.007-3.007H13.324z"/>
				
					<rect x="7.653" y="66.766" transform="matrix(0.7069 0.7073 -0.7073 0.7069 52.929 14.7482)" fill="#2E313A" width="2.035" height="8.936"/>
				<path fill="#2E313A" d="M19.333,57.377c-0.266,0-0.552,0.211-0.552,0.552v0.488c0,0.325,0.292,0.552,0.552,0.552h1.179v1.509
					c0,1.113-0.202,1.854-1.194,1.854c-0.484,0-1.053-0.187-1.162-1.647c-0.139-1.92-0.145-3.596-0.016-5.273
					c0.09-1.108,0.281-1.603,1.178-1.603c1.132,0,1.132,0.695,1.132,1.366c0,0.267,0.212,0.554,0.553,0.554h0.55
					c0.322,0,0.537-0.285,0.537-0.554v-0.204c0-1.781-1.003-2.803-2.756-2.803c-2.576,0-2.745,2.142-2.816,3.055
					c-0.15,1.783-0.15,3.774,0,5.758c0.056,0.699,0.422,2.978,2.801,2.978c0.533,0,0.965-0.134,1.332-0.415
					c0.09,0.171,0.26,0.272,0.478,0.272h0.472c0.326,0,0.553-0.291,0.553-0.552v-5.887H19.333z"/>
				
					<rect x="4.912" y="63.976" transform="matrix(0.7076 0.7066 -0.7066 0.7076 50.0989 15.8249)" fill="#2E313A" width="2.034" height="8.939"/>
			</g>
		</g>
	</g>
</g>
</svg>
