<?xml version="1.0" encoding="utf-8"?>
<!-- Generator: Adobe Illustrator 16.0.0, SVG Export Plug-In . SVG Version: 6.00 Build 0)  -->
<!DOCTYPE svg PUBLIC "-//W3C//DTD SVG 1.1//EN" "http://www.w3.org/Graphics/SVG/1.1/DTD/svg11.dtd">
<svg version="1.1" id="Capa_1" xmlns="http://www.w3.org/2000/svg" xmlns:xlink="http://www.w3.org/1999/xlink" x="0px" y="0px"
	 width="283.465px" height="680.315px" viewBox="0 0 283.465 680.315" enable-background="new 0 0 283.465 680.315"
	 xml:space="preserve">
<g>
	<circle fill="#BBB9BB" cx="141.732" cy="156.306" r="140.224"/>
	<path fill="#FFFFFF" d="M176.204,130.015h-23.371v-15.191c0-5.843,4.09-7.011,6.427-7.011c2.921,0,16.359,0,16.359,0V82.104
		h-22.786c-25.708,0-30.966,19.281-30.966,30.966v16.944h-14.606v26.292h14.606c0,33.888,0,74.202,0,74.202h30.966
		c0,0,0-40.899,0-74.202h21.034L176.204,130.015z"/>
	<circle fill="#4E71A8" cx="141.732" cy="524.009" r="140.224"/>
	<path fill="#FFFFFF" d="M176.204,497.717h-23.371v-15.191c0-5.843,4.09-7.011,6.427-7.011c2.921,0,16.359,0,16.359,0v-25.708
		h-22.786c-25.708,0-30.966,19.281-30.966,30.966v16.944h-14.606v26.292h14.606c0,33.888,0,74.202,0,74.202h30.966
		c0,0,0-40.899,0-74.202h21.034L176.204,497.717z"/>
</g>
</svg>
