<?xml version="1.0" encoding="utf-8"?>
<!-- Generator: Adobe Illustrator 16.0.0, SVG Export Plug-In . SVG Version: 6.00 Build 0)  -->
<!DOCTYPE svg PUBLIC "-//W3C//DTD SVG 1.1//EN" "http://www.w3.org/Graphics/SVG/1.1/DTD/svg11.dtd">
<svg version="1.1" id="Layer_1" xmlns="http://www.w3.org/2000/svg" xmlns:xlink="http://www.w3.org/1999/xlink" x="0px" y="0px"
	 width="36px" height="33px" viewBox="0 0 36 33" enable-background="new 0 0 36 33" xml:space="preserve">
<g id="Layer_2">
</g>
<g id="Layer_1_1_">
	<path fill="none" stroke="#FFFFFF" stroke-linejoin="round" stroke-miterlimit="10" d="M34.977,7.455
		c-0.535-2.485-1.914-4.346-4.205-5.484c-1.211-0.604-2.518-0.838-3.856-0.947c-2.295-0.186-4.308,0.545-6.133,1.863
		C19.841,3.566,18.945,4.31,18,5.049c-0.944-0.739-1.84-1.482-2.781-2.162c-1.824-1.318-3.836-2.049-6.131-1.863
		C7.746,1.133,6.44,1.367,5.23,1.971C2.939,3.109,1.561,4.97,1.026,7.455c-0.345,1.604-0.384,3.205,0.065,4.81
		c0.641,2.285,2.084,4.141,3.555,5.853c1.793,2.163,10.273,11.378,12.461,13.483c0.002,0.004,0.006,0.006,0.01,0.01l0,0
		c0.023,0.021,0.047,0.043,0.071,0.062c0.009,0.008,0.017,0.016,0.024,0.023c0.209,0.171,0.432,0.271,0.656,0.299
		c0.004,0,0.01,0.002,0.014,0.002c0.025,0.002,0.049,0.003,0.074,0.004c0.015,0.001,0.029,0.003,0.043,0.003
		c0.016,0,0.029-0.002,0.044-0.003c0.024-0.001,0.05-0.002,0.074-0.004c0.005,0,0.01-0.002,0.015-0.002
		c0.224-0.027,0.446-0.128,0.654-0.299c0.009-0.008,0.019-0.016,0.024-0.023c0.024-0.021,0.049-0.041,0.072-0.062l0,0
		c0.004-0.004,0.008-0.006,0.01-0.01c2.188-2.105,10.668-11.32,12.461-13.483c1.471-1.712,2.914-3.567,3.555-5.853
		C35.357,10.66,35.318,9.059,34.977,7.455z"/>
</g>
</svg>
