<?xml version="1.0" encoding="utf-8"?>
<!-- Generator: Adobe Illustrator 16.0.0, SVG Export Plug-In . SVG Version: 6.00 Build 0)  -->
<!DOCTYPE svg PUBLIC "-//W3C//DTD SVG 1.1//EN" "http://www.w3.org/Graphics/SVG/1.1/DTD/svg11.dtd">
<svg version="1.1" xmlns="http://www.w3.org/2000/svg" xmlns:xlink="http://www.w3.org/1999/xlink" x="0px" y="0px" width="35px"
	 height="32px" viewBox="0 0 35 32" enable-background="new 0 0 35 32" xml:space="preserve">
<g id="Layer_2">
</g>
<g id="Layer_1">
	<path fill-rule="evenodd" clip-rule="evenodd" fill="#00C074" d="M34.475,6.955c-0.535-2.485-1.913-4.346-4.204-5.484
		c-1.211-0.604-2.518-0.838-3.857-0.947c-2.295-0.186-4.308,0.545-6.133,1.863c-0.94,0.68-1.836,1.423-2.781,2.162
		c-0.944-0.739-1.84-1.482-2.781-2.162c-1.824-1.318-3.836-2.049-6.131-1.863C7.245,0.633,5.939,0.867,4.729,1.471
		C2.438,2.609,1.06,4.47,0.525,6.955c-0.345,1.604-0.384,3.205,0.065,4.81c0.641,2.285,2.084,4.141,3.555,5.853
		c1.793,2.164,10.273,11.378,12.461,13.484c0.002,0.003,0.006,0.006,0.01,0.01l0,0c0.023,0.021,0.047,0.042,0.071,0.062
		c0.009,0.008,0.017,0.016,0.024,0.023c0.209,0.171,0.432,0.271,0.656,0.299c0.004,0,0.01,0.002,0.014,0.002
		c0.025,0.002,0.049,0.003,0.074,0.004c0.015,0.001,0.029,0.003,0.043,0.003c0.016,0,0.029-0.002,0.044-0.003
		c0.024-0.001,0.05-0.002,0.074-0.004c0.005,0,0.01-0.002,0.015-0.002c0.224-0.028,0.446-0.128,0.654-0.299
		c0.009-0.008,0.018-0.016,0.025-0.023c0.024-0.021,0.049-0.041,0.072-0.062l0,0c0.004-0.004,0.007-0.007,0.01-0.01
		c2.188-2.106,10.667-11.32,12.461-13.484c1.47-1.712,2.914-3.567,3.554-5.853C34.856,10.16,34.818,8.559,34.475,6.955z"/>
</g>
</svg>
