<?xml version="1.0" encoding="UTF-8" standalone="no"?>
<svg
   xmlns:dc="http://purl.org/dc/elements/1.1/"
   xmlns:cc="http://creativecommons.org/ns#"
   xmlns:rdf="http://www.w3.org/1999/02/22-rdf-syntax-ns#"
   xmlns:svg="http://www.w3.org/2000/svg"
   xmlns="http://www.w3.org/2000/svg"
   xml:space="preserve"
   enable-background="new 0 0 36 36"
   viewBox="0 0 36 36"
   height="36px"
   width="36px"
   y="0px"
   x="0px"
   id="Layer_1"
   version="1.1"><metadata
     id="metadata3751"><rdf:RDF><cc:Work
         rdf:about=""><dc:format>image/svg+xml</dc:format><dc:type
           rdf:resource="http://purl.org/dc/dcmitype/StillImage" /><dc:title></dc:title></cc:Work></rdf:RDF></metadata><defs
     id="defs3749" /><g
     id="g3744"><path
       id="path3740"
       d="M18,35.967c-9.907,0-17.968-8.06-17.968-17.967S8.093,0.033,18,0.033S35.968,8.093,35.968,18   S27.907,35.967,18,35.967z M18,0.967C8.608,0.967,0.968,8.608,0.968,18S8.608,35.033,18,35.033S35.032,27.392,35.032,18   S27.392,0.967,18,0.967z"
       fill="#00C074" /></g><path
     id="path3783"
     d="M 16.828412,35.985442 C 13.552123,35.724552 10.661066,34.74194 8.0620558,33.00593 4.9503418,30.927461 2.5862548,27.998783 1.2350408,24.54849 -0.29531913,20.640749 -0.40707613,16.301833 0.91995787,12.315531 2.9676098,6.1645527 8.2250138,1.5443927 14.581198,0.31015557 c 1.298742,-0.252189 2.332019,-0.334584 3.813835,-0.30412 1.592735,0.03274 2.642902,0.173266 4.129292,0.552529 5.844362,1.49124513 10.680189,6.02046413 12.577949,11.78046543 0.6237,1.893051 0.897119,3.611441 0.897725,5.642259 3.57e-4,1.218548 -0.0441,1.807859 -0.218336,2.893003 -0.884434,5.508259 -4.296821,10.299825 -9.252408,12.991925 -1.961203,1.065415 -4.145426,1.75239 -6.474654,2.03639 -0.574342,0.07004 -2.701205,0.124639 -3.226189,0.08283 z"
     style="fill:#00c074;fill-opacity:1;stroke-width:0.04451135" /><polygon
     transform="matrix(-1,0,0,1,35.976,0.023)"
     id="polygon3742-0"
     points="20.984,9.096 21.629,9.773 12.979,18 21.629,26.228 20.984,26.905 11.622,18 "
     style="fill:#ffffff" /></svg>