<?xml version="1.0" encoding="utf-8"?>
<!-- Generator: Adobe Illustrator 16.0.0, SVG Export Plug-In . SVG Version: 6.00 Build 0)  -->
<!DOCTYPE svg PUBLIC "-//W3C//DTD SVG 1.1//EN" "http://www.w3.org/Graphics/SVG/1.1/DTD/svg11.dtd">
<svg version="1.1" id="Capa_1" xmlns="http://www.w3.org/2000/svg" xmlns:xlink="http://www.w3.org/1999/xlink" x="0px" y="0px"
	 width="30px" height="75px" viewBox="0 0 30 75" enable-background="new 0 0 30 75" xml:space="preserve">
<g>
	<g>
		<path fill="#929292" d="M29.734,22.138c0,4.287-3.477,7.764-7.764,7.764H8.029c-4.287,0-7.764-3.477-7.764-7.764V8.196
			c0-4.287,3.477-7.764,7.764-7.764h13.941c4.287,0,7.764,3.477,7.764,7.764V22.138z"/>
		<g>
			<path fill="#FFFFFF" d="M5.762,15.22v-0.053c0-5.344,4.028-9.721,9.801-9.721c3.545,0,5.666,1.18,7.411,2.9l-2.631,3.033
				c-1.45-1.316-2.927-2.121-4.806-2.121c-3.17,0-5.452,2.631-5.452,5.854v0.055c0,3.221,2.229,5.904,5.452,5.904
				c2.147,0,3.463-0.857,4.939-2.199l2.632,2.658c-1.933,2.068-4.081,3.355-7.706,3.355C9.871,24.886,5.762,20.618,5.762,15.22z"/>
		</g>
	</g>
	<g>
		<path fill="#2E313A" d="M29.734,66.804c0,4.287-3.477,7.764-7.764,7.764H8.029c-4.287,0-7.764-3.477-7.764-7.764V52.862
			c0-4.287,3.477-7.764,7.764-7.764h13.941c4.287,0,7.764,3.477,7.764,7.764V66.804z"/>
		<g>
			<path fill="#FFFFFF" d="M5.762,59.886v-0.053c0-5.344,4.028-9.721,9.801-9.721c3.545,0,5.666,1.18,7.411,2.9l-2.631,3.033
				c-1.45-1.316-2.927-2.121-4.806-2.121c-3.17,0-5.452,2.631-5.452,5.854v0.055c0,3.221,2.229,5.904,5.452,5.904
				c2.147,0,3.463-0.857,4.939-2.199l2.632,2.658c-1.933,2.068-4.081,3.355-7.706,3.355C9.871,69.552,5.762,65.284,5.762,59.886z"/>
		</g>
	</g>
</g>
</svg>
