<?xml version="1.0" encoding="utf-8"?>
<!-- Generator: Adobe Illustrator 16.0.0, SVG Export Plug-In . SVG Version: 6.00 Build 0)  -->
<!DOCTYPE svg PUBLIC "-//W3C//DTD SVG 1.1//EN" "http://www.w3.org/Graphics/SVG/1.1/DTD/svg11.dtd">
<svg version="1.1" id="Capa_1" xmlns="http://www.w3.org/2000/svg" xmlns:xlink="http://www.w3.org/1999/xlink" x="0px" y="0px"
	 width="30px" height="75px" viewBox="0 0 30 75" enable-background="new 0 0 30 75" xml:space="preserve">
<g>
	<g>
		<path fill="#929292" d="M29.734,22.137c0,4.288-3.476,7.764-7.764,7.764H8.03c-4.288,0-7.765-3.476-7.765-7.764V8.197
			c0-4.287,3.477-7.764,7.765-7.764h13.94c4.288,0,7.764,3.477,7.764,7.764V22.137z"/>
		<g>
			<g>
				<g>
					<rect x="6.283" y="7.478" fill="#FFFFFF" width="1.352" height="15.99"/>
					<path fill="#FFFFFF" d="M7.633,7.62H6.281c0-1.691,1.377-3.067,3.068-3.067v1.351C8.402,5.903,7.633,6.673,7.633,7.62z"/>
					<path fill="#FFFFFF" d="M7.637,7.62h-1.35c0-0.946-0.771-1.716-1.717-1.716V4.553C6.262,4.553,7.637,5.929,7.637,7.62z"/>
					<path fill="#FFFFFF" d="M4.57,25.782v-1.351c0.946,0,1.717-0.769,1.717-1.714h1.35C7.637,24.407,6.262,25.782,4.57,25.782z"/>
					<path fill="#FFFFFF" d="M9.35,25.782c-1.691,0-3.068-1.375-3.068-3.065h1.352c0,0.945,0.77,1.714,1.717,1.714V25.782z"/>
					<rect x="22.365" y="7.478" fill="#FFFFFF" width="1.35" height="15.99"/>
					<rect x="5.206" y="14.271" fill="#FFFFFF" width="19.425" height="1.351"/>
					<path fill="#FFFFFF" d="M23.715,7.62h-1.352c0-1.691,1.376-3.067,3.066-3.067v1.351C24.484,5.903,23.715,6.673,23.715,7.62z"/>
					<path fill="#FFFFFF" d="M23.719,7.62h-1.35c0-0.946-0.771-1.716-1.717-1.716V4.553C22.344,4.553,23.719,5.929,23.719,7.62z"/>
					<path fill="#FFFFFF" d="M20.652,25.782v-1.351c0.946,0,1.717-0.769,1.717-1.714h1.35
						C23.719,24.407,22.344,25.782,20.652,25.782z"/>
					<path fill="#FFFFFF" d="M25.43,25.782c-1.69,0-3.066-1.375-3.066-3.065h1.352c0,0.945,0.77,1.714,1.715,1.714V25.782z"/>
				</g>
			</g>
			<g>
				<rect x="11.089" y="11.13" fill="#FFFFFF" width="1.352" height="7.745"/>
				<path fill="#FFFFFF" d="M12.439,11.251h-1.352c0-1.498,1.219-2.717,2.715-2.717v1.351C13.051,9.885,12.439,10.498,12.439,11.251
					z"/>
				<path fill="#FFFFFF" d="M12.443,11.251h-1.352c0-0.754-0.611-1.367-1.364-1.367V8.534C11.225,8.534,12.443,9.753,12.443,11.251z
					"/>
				<rect x="13.688" y="19.6" fill="#FFFFFF" width="3.899" height="1.351"/>
				<path fill="#FFFFFF" d="M20.184,22.313h-1.352c0-0.752-0.612-1.365-1.365-1.365v-1.351
					C18.965,19.598,20.184,20.816,20.184,22.313z"/>
				<path fill="#FFFFFF" d="M17.467,20.952v-1.351c0.753,0,1.365-0.612,1.365-1.364h1.352
					C20.184,19.734,18.965,20.952,17.467,20.952z"/>
				<path fill="#FFFFFF" d="M9.728,20.951v-1.351c0.753,0,1.364-0.612,1.364-1.365h1.352C12.443,19.733,11.225,20.951,9.728,20.951z
					"/>
				<path fill="#FFFFFF" d="M13.803,20.951c-1.496,0-2.715-1.218-2.715-2.715h1.352c0,0.752,0.611,1.365,1.363,1.365V20.951z"/>
			</g>
		</g>
	</g>
	<g>
		<path fill="#2E313A" d="M29.734,66.804c0,4.288-3.476,7.764-7.764,7.764H8.03c-4.288,0-7.765-3.476-7.765-7.764v-13.94
			c0-4.287,3.477-7.764,7.765-7.764h13.94c4.288,0,7.764,3.477,7.764,7.764V66.804z"/>
		<g>
			<g>
				<g>
					<rect x="6.283" y="52.145" fill="#FFFFFF" width="1.352" height="15.99"/>
					<path fill="#FFFFFF" d="M7.633,52.286H6.281c0-1.691,1.377-3.066,3.068-3.066v1.35C8.402,50.569,7.633,51.34,7.633,52.286z"/>
					<path fill="#FFFFFF" d="M7.637,52.286h-1.35c0-0.946-0.771-1.717-1.717-1.717v-1.35C6.262,49.22,7.637,50.595,7.637,52.286z"/>
					<path fill="#FFFFFF" d="M4.57,70.448v-1.35c0.946,0,1.717-0.77,1.717-1.715h1.35C7.637,69.073,6.262,70.448,4.57,70.448z"/>
					<path fill="#FFFFFF" d="M9.35,70.448c-1.691,0-3.068-1.375-3.068-3.064h1.352c0,0.945,0.77,1.715,1.717,1.715V70.448z"/>
					<rect x="22.365" y="52.145" fill="#FFFFFF" width="1.35" height="15.99"/>
					<rect x="5.206" y="58.937" fill="#FFFFFF" width="19.425" height="1.352"/>
					<path fill="#FFFFFF" d="M23.715,52.286h-1.352c0-1.691,1.376-3.066,3.066-3.066v1.35C24.484,50.569,23.715,51.34,23.715,52.286
						z"/>
					<path fill="#FFFFFF" d="M23.719,52.286h-1.35c0-0.946-0.771-1.717-1.717-1.717v-1.35C22.344,49.22,23.719,50.595,23.719,52.286
						z"/>
					<path fill="#FFFFFF" d="M20.652,70.448v-1.35c0.946,0,1.717-0.77,1.717-1.715h1.35C23.719,69.073,22.344,70.448,20.652,70.448z
						"/>
					<path fill="#FFFFFF" d="M25.43,70.448c-1.69,0-3.066-1.375-3.066-3.064h1.352c0,0.945,0.77,1.715,1.715,1.715V70.448z"/>
				</g>
			</g>
			<g>
				<rect x="11.089" y="55.797" fill="#FFFFFF" width="1.352" height="7.745"/>
				<path fill="#FFFFFF" d="M12.439,55.918h-1.352c0-1.498,1.219-2.718,2.715-2.718v1.352
					C13.051,54.552,12.439,55.164,12.439,55.918z"/>
				<path fill="#FFFFFF" d="M12.443,55.918h-1.352c0-0.754-0.611-1.366-1.364-1.366V53.2C11.225,53.2,12.443,54.42,12.443,55.918z"
					/>
				<rect x="13.688" y="64.267" fill="#FFFFFF" width="3.899" height="1.35"/>
				<path fill="#FFFFFF" d="M20.184,66.979h-1.352c0-0.752-0.612-1.365-1.365-1.365v-1.35
					C18.965,64.265,20.184,65.482,20.184,66.979z"/>
				<path fill="#FFFFFF" d="M17.467,65.618v-1.35c0.753,0,1.365-0.612,1.365-1.364h1.352C20.184,64.401,18.965,65.618,17.467,65.618
					z"/>
				<path fill="#FFFFFF" d="M9.728,65.618v-1.352c0.753,0,1.364-0.611,1.364-1.364h1.352C12.443,64.399,11.225,65.618,9.728,65.618z
					"/>
				<path fill="#FFFFFF" d="M13.803,65.618c-1.496,0-2.715-1.219-2.715-2.716h1.352c0,0.753,0.611,1.364,1.363,1.364V65.618z"/>
			</g>
		</g>
	</g>
</g>
</svg>
