<?xml version="1.0" encoding="utf-8"?>
<!-- Generator: Adobe Illustrator 16.0.0, SVG Export Plug-In . SVG Version: 6.00 Build 0)  -->
<!DOCTYPE svg PUBLIC "-//W3C//DTD SVG 1.1//EN" "http://www.w3.org/Graphics/SVG/1.1/DTD/svg11.dtd">
<svg version="1.1" id="Capa_1" xmlns="http://www.w3.org/2000/svg" xmlns:xlink="http://www.w3.org/1999/xlink" x="0px" y="0px"
	 width="32px" height="80px" viewBox="0 0 32 80" enable-background="new 0 0 32 80" xml:space="preserve">
<g>
	<g>
		<g>
			<g>
				<g>
					<g>
						<g>
							<path fill="#929292" d="M28.314,32.314v-0.01c0-0.964,0.782-1.775,1.765-1.775c0.993,0,1.766,0.802,1.766,1.764v0.012
								c0,0.963-0.781,1.775-1.766,1.775C29.086,34.08,28.314,33.278,28.314,32.314z M31.442,32.304v-0.01
								c0-0.753-0.584-1.371-1.363-1.371c-0.771,0-1.362,0.627-1.362,1.381v0.009c0,0.753,0.584,1.373,1.362,1.373
								C30.849,33.686,31.442,33.057,31.442,32.304z M29.443,31.471h0.75c0.374,0,0.648,0.168,0.648,0.531
								c0,0.258-0.143,0.426-0.354,0.495l0.405,0.577h-0.467l-0.347-0.503h-0.248v0.503h-0.388V31.471z M30.168,32.25
								c0.177,0,0.274-0.089,0.274-0.221c0-0.142-0.106-0.223-0.274-0.223h-0.337v0.443H30.168z"/>
						</g>
					</g>
				</g>
				<g>
					<g>
						<g>
							<g>
								<path fill="#929292" d="M23.681,30.317H6.579c-3.541,0-6.423-2.881-6.423-6.423V7.675c0-3.541,2.882-6.422,6.423-6.422
									h17.102c3.542,0,6.423,2.881,6.423,6.422v16.219C30.104,27.436,27.223,30.317,23.681,30.317z M6.579,3.287
									c-2.42,0-4.388,1.969-4.388,4.389v16.219c0,2.42,1.968,4.39,4.388,4.39h17.102c2.421,0,4.39-1.97,4.39-4.39V7.675
									c0-2.42-1.969-4.389-4.39-4.389H6.579z"/>
							</g>
						</g>
					</g>
					<g>
						<g>
							<path fill="#929292" d="M25.063,23.406H12.316c-2.779,0-5.041-2.261-5.041-5.041V6.293c0-2.779,2.262-5.04,5.041-5.04h12.747
								c2.778,0,5.04,2.261,5.04,5.04v12.071C30.104,21.145,27.842,23.406,25.063,23.406z M12.316,3.287
								c-1.658,0-3.007,1.35-3.007,3.007v12.071c0,1.658,1.349,3.008,3.007,3.008h12.747c1.657,0,3.007-1.35,3.007-3.008V6.293
								c0-1.657-1.35-3.007-3.007-3.007H12.316z"/>
						</g>
					</g>
					<g>
						
							<rect x="6.646" y="20.997" transform="matrix(0.7069 0.7073 -0.7073 0.7069 20.2591 2.0443)" fill="#929292" width="2.035" height="8.936"/>
					</g>
					<g>
						<path fill="#929292" d="M18.326,11.608c-0.266,0-0.552,0.211-0.552,0.552v0.488c0,0.325,0.292,0.552,0.552,0.552h1.179v1.509
							c0,1.113-0.202,1.854-1.194,1.854c-0.484,0-1.053-0.187-1.162-1.647c-0.139-1.92-0.145-3.596-0.016-5.273
							c0.09-1.108,0.281-1.603,1.178-1.603c1.132,0,1.132,0.695,1.132,1.366c0,0.267,0.212,0.554,0.553,0.554h0.55
							c0.322,0,0.537-0.285,0.537-0.554V9.202c0-1.781-1.003-2.803-2.756-2.803c-2.576,0-2.745,2.142-2.816,3.055
							c-0.15,1.783-0.15,3.774,0,5.758c0.056,0.699,0.422,2.978,2.801,2.978c0.533,0,0.965-0.134,1.332-0.415
							c0.09,0.171,0.26,0.272,0.478,0.272h0.472c0.326,0,0.553-0.291,0.553-0.552v-5.887H18.326z"/>
					</g>
					<g>
						
							<rect x="3.904" y="18.207" transform="matrix(0.7076 0.7066 -0.7066 0.7076 17.4627 3.1533)" fill="#929292" width="2.034" height="8.939"/>
					</g>
				</g>
			</g>
		</g>
	</g>
	<g>
		<g>
			<g>
				<g>
					<g>
						<path fill="#2E313A" d="M28.314,76.98v-0.01c0-0.964,0.782-1.775,1.765-1.775c0.993,0,1.766,0.802,1.766,1.764v0.012
							c0,0.963-0.781,1.775-1.766,1.775C29.086,78.746,28.314,77.944,28.314,76.98z M31.442,76.971v-0.01
							c0-0.753-0.584-1.371-1.363-1.371c-0.771,0-1.362,0.627-1.362,1.381v0.009c0,0.753,0.584,1.373,1.362,1.373
							C30.849,78.353,31.442,77.724,31.442,76.971z M29.443,76.138h0.75c0.374,0,0.648,0.168,0.648,0.531
							c0,0.258-0.143,0.426-0.354,0.495l0.405,0.577h-0.467l-0.347-0.503h-0.248v0.503h-0.388V76.138z M30.168,76.917
							c0.177,0,0.274-0.089,0.274-0.221c0-0.142-0.106-0.223-0.274-0.223h-0.337v0.443H30.168z"/>
					</g>
				</g>
			</g>
			<g>
				<g>
					<path fill="#2E313A" d="M23.681,74.983H6.579c-3.541,0-6.423-2.881-6.423-6.423V52.342c0-3.541,2.882-6.422,6.423-6.422h17.102
						c3.542,0,6.423,2.881,6.423,6.422v16.219C30.104,72.103,27.223,74.983,23.681,74.983z M6.579,47.953
						c-2.42,0-4.388,1.969-4.388,4.389v16.219c0,2.42,1.968,4.39,4.388,4.39h17.102c2.421,0,4.39-1.97,4.39-4.39V52.342
						c0-2.42-1.969-4.389-4.39-4.389H6.579z"/>
				</g>
				<path fill="#2E313A" d="M25.063,68.072H12.316c-2.779,0-5.041-2.261-5.041-5.041V50.96c0-2.779,2.262-5.04,5.041-5.04h12.747
					c2.778,0,5.04,2.261,5.04,5.04v12.071C30.104,65.812,27.842,68.072,25.063,68.072z M12.316,47.953
					c-1.658,0-3.007,1.35-3.007,3.007v12.071c0,1.658,1.349,3.008,3.007,3.008h12.747c1.657,0,3.007-1.35,3.007-3.008V50.96
					c0-1.657-1.35-3.007-3.007-3.007H12.316z"/>
				
					<rect x="6.646" y="65.664" transform="matrix(0.7069 0.7073 -0.7073 0.7069 51.8538 15.1375)" fill="#2E313A" width="2.035" height="8.936"/>
				<path fill="#2E313A" d="M18.326,56.274c-0.266,0-0.552,0.211-0.552,0.552v0.488c0,0.325,0.292,0.552,0.552,0.552h1.179v1.509
					c0,1.113-0.202,1.854-1.194,1.854c-0.484,0-1.053-0.187-1.162-1.647c-0.139-1.92-0.145-3.596-0.016-5.273
					c0.09-1.108,0.281-1.603,1.178-1.603c1.132,0,1.132,0.695,1.132,1.366c0,0.267,0.212,0.554,0.553,0.554h0.55
					c0.322,0,0.537-0.285,0.537-0.554v-0.204c0-1.781-1.003-2.803-2.756-2.803c-2.576,0-2.745,2.142-2.816,3.055
					c-0.15,1.783-0.15,3.774,0,5.758c0.056,0.699,0.422,2.978,2.801,2.978c0.533,0,0.965-0.134,1.332-0.415
					c0.09,0.171,0.26,0.272,0.478,0.272h0.472c0.326,0,0.553-0.291,0.553-0.552v-5.887H18.326z"/>
				
					<rect x="3.904" y="62.873" transform="matrix(0.7076 0.7066 -0.7066 0.7076 49.0253 16.2143)" fill="#2E313A" width="2.034" height="8.939"/>
			</g>
		</g>
	</g>
</g>
</svg>
