<?xml version="1.0" encoding="utf-8"?>
<!-- Generator: Adobe Illustrator 16.0.0, SVG Export Plug-In . SVG Version: 6.00 Build 0)  -->
<!DOCTYPE svg PUBLIC "-//W3C//DTD SVG 1.1//EN" "http://www.w3.org/Graphics/SVG/1.1/DTD/svg11.dtd">
<svg version="1.1" id="Capa_1" xmlns="http://www.w3.org/2000/svg" xmlns:xlink="http://www.w3.org/1999/xlink" x="0px" y="0px"
	 width="30px" height="75px" viewBox="0 0 30 75" enable-background="new 0 0 30 75" xml:space="preserve">
<g>
	<g>
		<path fill="#929292" d="M29.734,22.137c0,4.288-3.476,7.764-7.764,7.764H8.03c-4.288,0-7.765-3.476-7.765-7.764V8.196
			c0-4.287,3.477-7.764,7.765-7.764h13.94c4.288,0,7.764,3.477,7.764,7.764V22.137z"/>
		<path fill="#FFFFFF" d="M5.212,11.531h4.194v13.495H5.212V11.531z M7.311,4.821c1.34,0,2.43,1.09,2.43,2.43
			c0,1.345-1.09,2.434-2.43,2.434c-1.345,0-2.434-1.089-2.434-2.434C4.877,5.911,5.966,4.821,7.311,4.821"/>
		<path fill="#FFFFFF" d="M12.038,11.531h4.022v1.842h0.056c0.561-1.06,1.929-2.18,3.969-2.18c4.247,0,5.032,2.798,5.032,6.429
			v7.404h-4.191v-6.563c0-1.565-0.029-3.579-2.18-3.579c-2.182,0-2.518,1.705-2.518,3.465v6.678h-4.19V11.531z"/>
	</g>
	<g>
		<path fill="#0177B5" d="M29.734,66.804c0,4.287-3.476,7.764-7.764,7.764H8.03c-4.288,0-7.765-3.477-7.765-7.764V52.862
			c0-4.287,3.477-7.764,7.765-7.764h13.94c4.288,0,7.764,3.477,7.764,7.764V66.804z"/>
		<path fill="#FFFFFF" d="M5.212,56.198h4.194v13.494H5.212V56.198z M7.311,49.487c1.34,0,2.43,1.09,2.43,2.43
			c0,1.346-1.09,2.434-2.43,2.434c-1.345,0-2.434-1.088-2.434-2.434C4.877,50.577,5.966,49.487,7.311,49.487"/>
		<path fill="#FFFFFF" d="M12.038,56.198h4.022v1.842h0.056c0.561-1.061,1.929-2.18,3.969-2.18c4.247,0,5.032,2.797,5.032,6.428
			v7.404h-4.191V63.13c0-1.566-0.029-3.58-2.18-3.58c-2.182,0-2.518,1.705-2.518,3.465v6.678h-4.19V56.198z"/>
	</g>
</g>
</svg>
