<?xml version="1.0" encoding="utf-8"?>
<!-- Generator: Adobe Illustrator 16.0.0, SVG Export Plug-In . SVG Version: 6.00 Build 0)  -->
<!DOCTYPE svg PUBLIC "-//W3C//DTD SVG 1.1//EN" "http://www.w3.org/Graphics/SVG/1.1/DTD/svg11.dtd">
<svg version="1.1" xmlns="http://www.w3.org/2000/svg" xmlns:xlink="http://www.w3.org/1999/xlink" x="0px" y="0px" width="118px"
	 height="118px" viewBox="0 0 118 118" enable-background="new 0 0 118 118" xml:space="preserve">
<g id="Capa_2">
</g>
<g id="Capa_1">
	<g>
		<g>
			<g>
				
					<path fill="none" stroke="#4B4A4B" stroke-width="3.6703" stroke-linecap="round" stroke-linejoin="round" stroke-miterlimit="10" d="
					M20.461,63.828c0,21.656,17.558,39.216,39.216,39.216s39.216-17.56,39.216-39.216c0-10.889-19.501-10.064-39.216-10.008
					C40.178,53.881,20.461,53.057,20.461,63.828z"/>
			</g>
			<g>
				<circle fill="none" stroke="#414248" stroke-width="3.6703" stroke-miterlimit="10" cx="59" cy="59" r="56.891"/>
			</g>
			<g>
				
					<path fill="#FFFFFF" stroke="#414248" stroke-width="3.6703" stroke-linecap="round" stroke-linejoin="round" stroke-miterlimit="10" d="
					M20.461,63.828c0,21.656,17.558,39.216,39.216,39.216s39.216-17.56,39.216-39.216c0-10.889-19.501-10.064-39.216-10.008
					C40.178,53.881,20.461,53.057,20.461,63.828z"/>
			</g>
			<g>
				
					<path fill="#FFFFFF" stroke="#414248" stroke-width="3.6703" stroke-linecap="round" stroke-linejoin="round" stroke-miterlimit="10" d="
					M20.923,69.875c9.515,1.979,24.087,1.678,38.754,1.641c14.556-0.035,29.206,0.237,38.768-1.748
					c0.296-1.936,0.448-3.922,0.448-5.939c0-10.889-19.501-10.064-39.216-10.008c-19.499,0.061-39.216-0.764-39.216,10.008
					C20.461,65.885,20.619,67.903,20.923,69.875z"/>
			</g>
			<g>
				<g>
					<g>
						<circle fill-rule="evenodd" clip-rule="evenodd" fill="#414248" cx="78.552" cy="38.901" r="11.011"/>
						<circle fill-rule="evenodd" clip-rule="evenodd" fill="#FFFFFF" cx="83.333" cy="36.343" r="2.947"/>
						<circle fill-rule="evenodd" clip-rule="evenodd" fill="#FFFFFF" cx="80.911" cy="33.918" r="2.357"/>
					</g>
				</g>
				<g>
					<circle fill-rule="evenodd" clip-rule="evenodd" fill="#414248" cx="39.955" cy="38.901" r="11.011"/>
					<circle fill-rule="evenodd" clip-rule="evenodd" fill="#FFFFFF" cx="44.736" cy="36.343" r="2.947"/>
					<circle fill-rule="evenodd" clip-rule="evenodd" fill="#FFFFFF" cx="42.313" cy="33.918" r="2.357"/>
				</g>
			</g>
		</g>
	</g>
</g>
</svg>
