<?xml version="1.0" encoding="utf-8"?>
<!-- Generator: Adobe Illustrator 16.0.0, SVG Export Plug-In . SVG Version: 6.00 Build 0)  -->
<!DOCTYPE svg PUBLIC "-//W3C//DTD SVG 1.1//EN" "http://www.w3.org/Graphics/SVG/1.1/DTD/svg11.dtd">
<svg version="1.1" id="Layer_1" xmlns="http://www.w3.org/2000/svg" xmlns:xlink="http://www.w3.org/1999/xlink" x="0px" y="0px"
	 width="38px" height="37px" viewBox="0 0 38 37" enable-background="new 0 0 38 37" xml:space="preserve">
<g>
	<path fill="none" stroke="#000000" stroke-width="1.8301" stroke-linejoin="round" stroke-miterlimit="10" d="M8.646,8.778H30.66
		h5.84v5.83h-0.979h-0.968v0.972v18.473c0,1.076-0.878,1.947-1.944,1.947H5.393c-1.082,0-1.946-0.871-1.946-1.947V15.58v-0.972
		H2.465H1.5v-5.83h5.841h1.93"/>
	<path fill="none" stroke="#000000" stroke-width="1.8301" stroke-miterlimit="10" d="M11.215,1C9.083,1,7.339,2.744,7.339,4.893
		c0,2.141,1.744,3.886,3.876,3.886h6.567h1.429l-0.518-1.33c-0.413-1.064-1.192-2.294-2.122-3.368C14.836,2.095,12.944,1,11.215,1
		L11.215,1z"/>
	
		<line fill="none" stroke="#000000" stroke-width="1.8301" stroke-miterlimit="10" x1="15.035" y1="14.608" x2="2.465" y2="14.608"/>
	
		<line fill="none" stroke="#000000" stroke-width="1.8301" stroke-miterlimit="10" x1="15.112" y1="9.002" x2="15.112" y2="35.777"/>
	
		<line fill="none" stroke="#000000" stroke-width="1.8301" stroke-miterlimit="10" x1="22.931" y1="9.002" x2="22.931" y2="35.777"/>
	<path fill="none" stroke="#000000" stroke-width="1.8301" stroke-miterlimit="10" d="M26.771,1c-1.715,0-3.605,1.095-5.343,3.08
		c-0.928,1.074-1.707,2.303-2.122,3.368l-0.516,1.33h1.413h6.567c2.146,0,3.892-1.745,3.892-3.886C30.662,2.744,28.917,1,26.771,1
		L26.771,1z"/>
	
		<line fill="none" stroke="#000000" stroke-width="1.8301" stroke-miterlimit="10" x1="35.586" y1="14.608" x2="23.03" y2="14.608"/>
</g>
</svg>
