<?xml version="1.0" encoding="utf-8"?>
<!-- Generator: Adobe Illustrator 16.0.0, SVG Export Plug-In . SVG Version: 6.00 Build 0)  -->
<!DOCTYPE svg PUBLIC "-//W3C//DTD SVG 1.1//EN" "http://www.w3.org/Graphics/SVG/1.1/DTD/svg11.dtd">
<svg version="1.1" id="Layer_1" xmlns="http://www.w3.org/2000/svg" xmlns:xlink="http://www.w3.org/1999/xlink" x="0px" y="0px"
	 width="38px" height="38px" viewBox="0 0 38 38" enable-background="new 0 0 38 38" xml:space="preserve">
<g>
	<path fill="none" stroke="#D7D8D8" stroke-width="1.8301" stroke-linejoin="round" stroke-miterlimit="10" d="M8.646,9.277H30.66
		h5.84v5.83h-0.979h-0.968v0.972v18.473c0,1.076-0.878,1.947-1.944,1.947H5.393c-1.082,0-1.946-0.871-1.946-1.947V16.079v-0.972
		H2.465H1.5v-5.83h5.841h1.93"/>
	<path fill="none" stroke="#D7D8D8" stroke-width="1.8301" stroke-miterlimit="10" d="M11.215,1.5c-2.132,0-3.876,1.743-3.876,3.892
		c0,2.141,1.744,3.886,3.876,3.886h6.567h1.429l-0.518-1.33c-0.413-1.064-1.192-2.294-2.122-3.367
		C14.836,2.594,12.944,1.5,11.215,1.5L11.215,1.5z"/>
	
		<line fill="none" stroke="#D7D8D8" stroke-width="1.8301" stroke-miterlimit="10" x1="15.035" y1="15.107" x2="2.465" y2="15.107"/>
	
		<line fill="none" stroke="#D7D8D8" stroke-width="1.8301" stroke-miterlimit="10" x1="15.112" y1="9.501" x2="15.112" y2="36.276"/>
	
		<line fill="none" stroke="#D7D8D8" stroke-width="1.8301" stroke-miterlimit="10" x1="22.931" y1="9.501" x2="22.931" y2="36.276"/>
	<path fill="none" stroke="#D7D8D8" stroke-width="1.8301" stroke-miterlimit="10" d="M26.771,1.5c-1.715,0-3.605,1.094-5.343,3.08
		c-0.928,1.073-1.707,2.303-2.122,3.367l-0.516,1.33h1.413h6.567c2.146,0,3.892-1.745,3.892-3.886
		C30.662,3.243,28.917,1.5,26.771,1.5L26.771,1.5z"/>
	
		<line fill="none" stroke="#D7D8D8" stroke-width="1.8301" stroke-miterlimit="10" x1="35.586" y1="15.107" x2="23.03" y2="15.107"/>
</g>
</svg>
