<?xml version="1.0" encoding="utf-8"?>
<!-- Generator: Adobe Illustrator 16.0.0, SVG Export Plug-In . SVG Version: 6.00 Build 0)  -->
<!DOCTYPE svg PUBLIC "-//W3C//DTD SVG 1.1//EN" "http://www.w3.org/Graphics/SVG/1.1/DTD/svg11.dtd">
<svg version="1.1" id="Capa_1" xmlns="http://www.w3.org/2000/svg" xmlns:xlink="http://www.w3.org/1999/xlink" x="0px" y="0px"
	 width="28px" height="27px" viewBox="0 0 28 27" enable-background="new 0 0 28 27" xml:space="preserve">
<path fill="#00C074" d="M27.717,10.328c-0.099-0.301-0.366-0.511-0.716-0.561l-8.485-1.28l-3.761-7.619
	c-0.314-0.633-1.195-0.636-1.513,0.002L9.399,8.546l-8.4,1.22c-0.35,0.051-0.619,0.261-0.716,0.562
	c-0.099,0.3-0.006,0.629,0.247,0.877l6.109,6.024l-1.432,8.373c-0.047,0.278,0.016,0.537,0.177,0.728l0.302,0.276h0.301
	c0.15,0,0.3-0.04,0.444-0.116l7.618-3.954l7.514,3.954c0.146,0.077,0.295,0.116,0.445,0.116l0.408-0.046l0.195-0.23
	c0.16-0.191,0.224-0.45,0.176-0.729l-1.402-8.467l6.084-5.931C27.722,10.957,27.815,10.629,27.717,10.328z"/>
</svg>
