<?xml version="1.0" encoding="utf-8"?>
<!-- Generator: Adobe Illustrator 16.0.0, SVG Export Plug-In . SVG Version: 6.00 Build 0)  -->
<!DOCTYPE svg PUBLIC "-//W3C//DTD SVG 1.1//EN" "http://www.w3.org/Graphics/SVG/1.1/DTD/svg11.dtd">
<svg version="1.1" id="Layer_1" xmlns="http://www.w3.org/2000/svg" xmlns:xlink="http://www.w3.org/1999/xlink" x="0px" y="0px"
	 width="36px" height="38px" viewBox="0 0 36 38" enable-background="new 0 0 36 38" xml:space="preserve">
<g>
	<path fill="none" stroke="#D7D8D8" stroke-width="1.8301" stroke-miterlimit="10" d="M17.999,23.602
		c3.787,0,7.007,0.589,9.595,1.734c2.056,0.913,3.722,2.19,4.921,3.796c2.05,2.732,2.062,5.493,2.062,5.523
		c0,1.02-0.822,1.844-1.844,1.844H3.265c-1.021,0-1.843-0.824-1.843-1.844c0-0.03,0.027-2.791,2.077-5.523
		c1.201-1.605,2.865-2.886,4.922-3.796C10.993,24.19,14.228,23.602,17.999,23.602"/>
	<path fill="none" stroke="#D7D8D8" stroke-width="1.8301" stroke-miterlimit="10" d="M17.999,1.5c5.084,0,9.219,4.134,9.219,9.211
		s-4.135,9.211-9.219,9.211c-5.069,0-9.203-4.134-9.203-9.211S12.93,1.5,17.999,1.5"/>
</g>
</svg>
